G04 EAGLE Gerber RS-274X export*
G75*
%MOMM*%
%FSLAX34Y34*%
%LPD*%
%AMOC8*
5,1,8,0,0,1.08239X$1,22.5*%
G01*
%ADD10C,1.879600*%
%ADD11C,2.400000*%
%ADD12C,0.705600*%
%ADD13C,0.203200*%

G36*
X13774Y12709D02*
X13774Y12709D01*
X13832Y12708D01*
X13914Y12729D01*
X13997Y12741D01*
X14051Y12765D01*
X14107Y12779D01*
X14180Y12822D01*
X14257Y12857D01*
X14302Y12895D01*
X14352Y12925D01*
X14410Y12986D01*
X14474Y13041D01*
X14506Y13089D01*
X14546Y13132D01*
X14585Y13207D01*
X14631Y13277D01*
X14649Y13333D01*
X14676Y13385D01*
X14687Y13453D01*
X14717Y13548D01*
X14720Y13648D01*
X14731Y13716D01*
X14731Y24466D01*
X15496Y24345D01*
X17283Y23764D01*
X18957Y22911D01*
X20478Y21806D01*
X21806Y20478D01*
X22911Y18957D01*
X23764Y17283D01*
X24128Y16163D01*
X24158Y16101D01*
X24179Y16035D01*
X24220Y15974D01*
X24253Y15908D01*
X24299Y15857D01*
X24338Y15799D01*
X24394Y15752D01*
X24443Y15697D01*
X24502Y15661D01*
X24555Y15616D01*
X24622Y15586D01*
X24685Y15548D01*
X24752Y15529D01*
X24815Y15501D01*
X24888Y15491D01*
X24959Y15471D01*
X25028Y15471D01*
X25096Y15462D01*
X25169Y15472D01*
X25243Y15473D01*
X25310Y15493D01*
X25378Y15503D01*
X25445Y15533D01*
X25516Y15554D01*
X25574Y15591D01*
X25637Y15620D01*
X25693Y15667D01*
X25755Y15707D01*
X25801Y15759D01*
X25853Y15804D01*
X25886Y15857D01*
X25943Y15921D01*
X25992Y16025D01*
X26031Y16089D01*
X27548Y19751D01*
X31049Y23252D01*
X35624Y25147D01*
X40576Y25147D01*
X45151Y23252D01*
X48652Y19751D01*
X49862Y16829D01*
X49877Y16804D01*
X49886Y16776D01*
X49949Y16681D01*
X50007Y16584D01*
X50028Y16564D01*
X50044Y16539D01*
X50131Y16466D01*
X50213Y16389D01*
X50239Y16375D01*
X50262Y16356D01*
X50365Y16310D01*
X50466Y16259D01*
X50495Y16253D01*
X50522Y16241D01*
X50634Y16225D01*
X50745Y16204D01*
X50774Y16206D01*
X50803Y16202D01*
X50915Y16218D01*
X51028Y16228D01*
X51055Y16239D01*
X51085Y16243D01*
X51188Y16289D01*
X51293Y16330D01*
X51317Y16348D01*
X51344Y16360D01*
X51430Y16433D01*
X51520Y16502D01*
X51538Y16525D01*
X51560Y16544D01*
X51602Y16611D01*
X51690Y16729D01*
X51712Y16788D01*
X51738Y16829D01*
X52948Y19751D01*
X56449Y23252D01*
X61024Y25147D01*
X65976Y25147D01*
X70551Y23252D01*
X74052Y19751D01*
X75262Y16829D01*
X75277Y16804D01*
X75286Y16776D01*
X75349Y16681D01*
X75407Y16584D01*
X75428Y16564D01*
X75444Y16539D01*
X75531Y16466D01*
X75613Y16389D01*
X75639Y16375D01*
X75662Y16356D01*
X75765Y16310D01*
X75866Y16259D01*
X75895Y16253D01*
X75922Y16241D01*
X76034Y16225D01*
X76145Y16204D01*
X76174Y16206D01*
X76203Y16202D01*
X76315Y16218D01*
X76428Y16228D01*
X76455Y16239D01*
X76485Y16243D01*
X76588Y16289D01*
X76693Y16330D01*
X76717Y16348D01*
X76744Y16360D01*
X76830Y16433D01*
X76920Y16502D01*
X76938Y16525D01*
X76960Y16544D01*
X77002Y16611D01*
X77090Y16729D01*
X77112Y16788D01*
X77138Y16829D01*
X78348Y19751D01*
X81849Y23252D01*
X86424Y25147D01*
X91376Y25147D01*
X95951Y23252D01*
X99452Y19751D01*
X100662Y16829D01*
X100677Y16804D01*
X100686Y16776D01*
X100749Y16681D01*
X100807Y16584D01*
X100828Y16564D01*
X100844Y16539D01*
X100931Y16466D01*
X101013Y16389D01*
X101039Y16375D01*
X101062Y16356D01*
X101165Y16310D01*
X101266Y16259D01*
X101295Y16253D01*
X101322Y16241D01*
X101434Y16225D01*
X101545Y16204D01*
X101574Y16206D01*
X101603Y16202D01*
X101715Y16218D01*
X101828Y16228D01*
X101855Y16239D01*
X101885Y16243D01*
X101988Y16289D01*
X102093Y16330D01*
X102117Y16348D01*
X102144Y16360D01*
X102230Y16433D01*
X102320Y16502D01*
X102338Y16525D01*
X102360Y16544D01*
X102402Y16611D01*
X102490Y16729D01*
X102512Y16788D01*
X102538Y16829D01*
X103748Y19751D01*
X107249Y23252D01*
X111824Y25147D01*
X116776Y25147D01*
X121351Y23252D01*
X124852Y19751D01*
X126062Y16829D01*
X126077Y16804D01*
X126086Y16776D01*
X126149Y16681D01*
X126207Y16584D01*
X126228Y16564D01*
X126244Y16539D01*
X126331Y16466D01*
X126413Y16389D01*
X126439Y16375D01*
X126462Y16356D01*
X126565Y16310D01*
X126666Y16259D01*
X126695Y16253D01*
X126722Y16241D01*
X126834Y16225D01*
X126945Y16204D01*
X126974Y16206D01*
X127003Y16202D01*
X127115Y16218D01*
X127228Y16228D01*
X127255Y16239D01*
X127285Y16243D01*
X127388Y16289D01*
X127493Y16330D01*
X127517Y16348D01*
X127544Y16360D01*
X127630Y16433D01*
X127720Y16502D01*
X127738Y16525D01*
X127760Y16544D01*
X127802Y16611D01*
X127890Y16729D01*
X127912Y16788D01*
X127938Y16829D01*
X129148Y19751D01*
X132649Y23252D01*
X137224Y25147D01*
X142176Y25147D01*
X146751Y23252D01*
X150252Y19751D01*
X151462Y16829D01*
X151477Y16804D01*
X151486Y16776D01*
X151549Y16681D01*
X151607Y16584D01*
X151628Y16564D01*
X151644Y16539D01*
X151731Y16466D01*
X151813Y16389D01*
X151839Y16375D01*
X151862Y16356D01*
X151965Y16310D01*
X152066Y16259D01*
X152095Y16253D01*
X152122Y16241D01*
X152234Y16225D01*
X152345Y16204D01*
X152374Y16206D01*
X152403Y16202D01*
X152515Y16218D01*
X152628Y16228D01*
X152655Y16239D01*
X152685Y16243D01*
X152788Y16289D01*
X152893Y16330D01*
X152917Y16348D01*
X152944Y16360D01*
X153030Y16433D01*
X153120Y16502D01*
X153138Y16525D01*
X153160Y16544D01*
X153202Y16611D01*
X153290Y16729D01*
X153312Y16788D01*
X153338Y16829D01*
X154548Y19751D01*
X158049Y23252D01*
X162624Y25147D01*
X167576Y25147D01*
X172151Y23252D01*
X175652Y19751D01*
X176862Y16829D01*
X176877Y16804D01*
X176886Y16776D01*
X176949Y16681D01*
X177007Y16584D01*
X177028Y16564D01*
X177044Y16539D01*
X177131Y16466D01*
X177213Y16389D01*
X177239Y16375D01*
X177262Y16356D01*
X177365Y16310D01*
X177466Y16259D01*
X177495Y16253D01*
X177522Y16241D01*
X177634Y16225D01*
X177745Y16204D01*
X177774Y16206D01*
X177803Y16202D01*
X177915Y16218D01*
X178028Y16228D01*
X178055Y16239D01*
X178085Y16243D01*
X178188Y16289D01*
X178293Y16330D01*
X178317Y16348D01*
X178344Y16360D01*
X178430Y16433D01*
X178520Y16502D01*
X178538Y16525D01*
X178560Y16544D01*
X178602Y16611D01*
X178690Y16729D01*
X178712Y16788D01*
X178738Y16829D01*
X179948Y19751D01*
X183449Y23252D01*
X188024Y25147D01*
X192976Y25147D01*
X197551Y23252D01*
X201052Y19751D01*
X202262Y16829D01*
X202277Y16804D01*
X202286Y16776D01*
X202349Y16681D01*
X202407Y16584D01*
X202428Y16564D01*
X202444Y16539D01*
X202531Y16466D01*
X202613Y16389D01*
X202639Y16375D01*
X202662Y16356D01*
X202765Y16310D01*
X202866Y16259D01*
X202895Y16253D01*
X202922Y16241D01*
X203034Y16225D01*
X203145Y16204D01*
X203174Y16206D01*
X203203Y16202D01*
X203315Y16218D01*
X203428Y16228D01*
X203455Y16239D01*
X203485Y16243D01*
X203588Y16289D01*
X203693Y16330D01*
X203717Y16348D01*
X203744Y16360D01*
X203830Y16433D01*
X203920Y16502D01*
X203938Y16525D01*
X203960Y16544D01*
X204002Y16611D01*
X204090Y16729D01*
X204112Y16788D01*
X204138Y16829D01*
X205348Y19751D01*
X208849Y23252D01*
X213424Y25147D01*
X218376Y25147D01*
X222951Y23252D01*
X226452Y19751D01*
X227662Y16829D01*
X227677Y16804D01*
X227686Y16776D01*
X227749Y16681D01*
X227807Y16584D01*
X227828Y16564D01*
X227844Y16539D01*
X227931Y16466D01*
X228013Y16389D01*
X228039Y16375D01*
X228062Y16356D01*
X228165Y16310D01*
X228266Y16259D01*
X228295Y16253D01*
X228322Y16241D01*
X228434Y16225D01*
X228545Y16204D01*
X228574Y16206D01*
X228603Y16202D01*
X228715Y16218D01*
X228828Y16228D01*
X228855Y16239D01*
X228885Y16243D01*
X228988Y16289D01*
X229093Y16330D01*
X229117Y16348D01*
X229144Y16360D01*
X229230Y16433D01*
X229320Y16502D01*
X229338Y16525D01*
X229360Y16544D01*
X229402Y16611D01*
X229490Y16729D01*
X229512Y16788D01*
X229538Y16829D01*
X230748Y19751D01*
X234249Y23252D01*
X238824Y25147D01*
X243776Y25147D01*
X248351Y23252D01*
X251852Y19751D01*
X253062Y16829D01*
X253077Y16804D01*
X253086Y16776D01*
X253149Y16681D01*
X253207Y16584D01*
X253228Y16564D01*
X253244Y16539D01*
X253331Y16466D01*
X253413Y16389D01*
X253439Y16375D01*
X253462Y16356D01*
X253565Y16310D01*
X253666Y16259D01*
X253695Y16253D01*
X253722Y16241D01*
X253834Y16225D01*
X253945Y16204D01*
X253974Y16206D01*
X254003Y16202D01*
X254115Y16218D01*
X254228Y16228D01*
X254255Y16239D01*
X254285Y16243D01*
X254388Y16289D01*
X254493Y16330D01*
X254517Y16348D01*
X254544Y16360D01*
X254630Y16433D01*
X254720Y16502D01*
X254738Y16525D01*
X254760Y16544D01*
X254802Y16611D01*
X254890Y16729D01*
X254912Y16788D01*
X254938Y16829D01*
X256148Y19751D01*
X259649Y23252D01*
X264224Y25147D01*
X269176Y25147D01*
X273751Y23252D01*
X277252Y19751D01*
X278462Y16829D01*
X278477Y16804D01*
X278486Y16776D01*
X278549Y16681D01*
X278607Y16584D01*
X278628Y16564D01*
X278644Y16539D01*
X278731Y16466D01*
X278813Y16389D01*
X278839Y16375D01*
X278862Y16356D01*
X278965Y16310D01*
X279066Y16259D01*
X279095Y16253D01*
X279122Y16241D01*
X279234Y16225D01*
X279345Y16204D01*
X279374Y16206D01*
X279403Y16202D01*
X279515Y16218D01*
X279628Y16228D01*
X279655Y16239D01*
X279685Y16243D01*
X279788Y16289D01*
X279893Y16330D01*
X279917Y16348D01*
X279944Y16360D01*
X280030Y16433D01*
X280120Y16502D01*
X280138Y16525D01*
X280160Y16544D01*
X280202Y16611D01*
X280290Y16729D01*
X280312Y16788D01*
X280338Y16829D01*
X281548Y19751D01*
X285049Y23252D01*
X289624Y25147D01*
X294576Y25147D01*
X299151Y23252D01*
X302652Y19751D01*
X303862Y16829D01*
X303877Y16804D01*
X303886Y16776D01*
X303949Y16681D01*
X304007Y16584D01*
X304028Y16564D01*
X304044Y16539D01*
X304131Y16466D01*
X304213Y16389D01*
X304239Y16375D01*
X304262Y16356D01*
X304365Y16310D01*
X304466Y16259D01*
X304495Y16253D01*
X304522Y16241D01*
X304634Y16225D01*
X304745Y16204D01*
X304774Y16206D01*
X304803Y16202D01*
X304915Y16218D01*
X305028Y16228D01*
X305055Y16239D01*
X305085Y16243D01*
X305188Y16289D01*
X305293Y16330D01*
X305317Y16348D01*
X305344Y16360D01*
X305430Y16433D01*
X305520Y16502D01*
X305538Y16525D01*
X305560Y16544D01*
X305602Y16611D01*
X305690Y16729D01*
X305712Y16788D01*
X305738Y16829D01*
X306948Y19751D01*
X310449Y23252D01*
X315024Y25147D01*
X319976Y25147D01*
X324551Y23252D01*
X328052Y19751D01*
X329262Y16829D01*
X329277Y16804D01*
X329286Y16776D01*
X329349Y16681D01*
X329407Y16584D01*
X329428Y16564D01*
X329444Y16539D01*
X329531Y16466D01*
X329613Y16389D01*
X329639Y16375D01*
X329662Y16356D01*
X329765Y16310D01*
X329866Y16259D01*
X329895Y16253D01*
X329922Y16241D01*
X330034Y16225D01*
X330145Y16204D01*
X330174Y16206D01*
X330203Y16202D01*
X330315Y16218D01*
X330428Y16228D01*
X330455Y16239D01*
X330485Y16243D01*
X330588Y16289D01*
X330693Y16330D01*
X330717Y16348D01*
X330744Y16360D01*
X330830Y16433D01*
X330920Y16502D01*
X330938Y16525D01*
X330960Y16544D01*
X331002Y16611D01*
X331090Y16729D01*
X331112Y16788D01*
X331138Y16829D01*
X332348Y19751D01*
X335849Y23252D01*
X338771Y24462D01*
X338796Y24477D01*
X338824Y24486D01*
X338919Y24549D01*
X339016Y24607D01*
X339036Y24628D01*
X339061Y24644D01*
X339134Y24731D01*
X339211Y24813D01*
X339225Y24839D01*
X339244Y24862D01*
X339290Y24965D01*
X339341Y25066D01*
X339347Y25095D01*
X339359Y25122D01*
X339375Y25234D01*
X339396Y25345D01*
X339394Y25374D01*
X339398Y25403D01*
X339382Y25515D01*
X339372Y25628D01*
X339361Y25655D01*
X339357Y25685D01*
X339311Y25788D01*
X339270Y25893D01*
X339252Y25917D01*
X339240Y25944D01*
X339167Y26030D01*
X339098Y26120D01*
X339075Y26138D01*
X339056Y26160D01*
X338989Y26202D01*
X338871Y26290D01*
X338812Y26312D01*
X338771Y26338D01*
X335849Y27548D01*
X332348Y31049D01*
X330453Y35624D01*
X330453Y40576D01*
X332423Y45331D01*
X332452Y45443D01*
X332486Y45552D01*
X332487Y45580D01*
X332494Y45607D01*
X332491Y45721D01*
X332494Y45836D01*
X332487Y45863D01*
X332486Y45891D01*
X332451Y46000D01*
X332422Y46111D01*
X332408Y46135D01*
X332399Y46162D01*
X332335Y46257D01*
X332277Y46356D01*
X332256Y46375D01*
X332241Y46398D01*
X332153Y46472D01*
X332069Y46550D01*
X332045Y46563D01*
X332023Y46581D01*
X331919Y46627D01*
X331816Y46680D01*
X331792Y46684D01*
X331764Y46696D01*
X331500Y46733D01*
X331485Y46735D01*
X56457Y46735D01*
X56370Y46723D01*
X56283Y46720D01*
X56230Y46703D01*
X56175Y46695D01*
X56095Y46660D01*
X56012Y46633D01*
X55973Y46605D01*
X55916Y46579D01*
X55803Y46483D01*
X55739Y46438D01*
X54525Y45225D01*
X52108Y44223D01*
X49492Y44223D01*
X47075Y45225D01*
X45225Y47075D01*
X44223Y49492D01*
X44223Y52108D01*
X45225Y54525D01*
X47075Y56375D01*
X49492Y57377D01*
X52108Y57377D01*
X54525Y56375D01*
X55739Y55162D01*
X55809Y55110D01*
X55873Y55050D01*
X55922Y55024D01*
X55966Y54991D01*
X56048Y54960D01*
X56126Y54920D01*
X56173Y54912D01*
X56232Y54890D01*
X56379Y54878D01*
X56457Y54865D01*
X331485Y54865D01*
X331599Y54881D01*
X331713Y54891D01*
X331739Y54901D01*
X331767Y54905D01*
X331872Y54952D01*
X331979Y54993D01*
X332001Y55009D01*
X332026Y55021D01*
X332114Y55095D01*
X332205Y55164D01*
X332222Y55187D01*
X332243Y55204D01*
X332307Y55300D01*
X332376Y55392D01*
X332385Y55418D01*
X332401Y55441D01*
X332435Y55551D01*
X332476Y55658D01*
X332478Y55686D01*
X332486Y55712D01*
X332489Y55827D01*
X332499Y55941D01*
X332493Y55966D01*
X332494Y55996D01*
X332427Y56253D01*
X332423Y56269D01*
X330453Y61024D01*
X330453Y65976D01*
X332348Y70551D01*
X335849Y74052D01*
X339511Y75569D01*
X339571Y75604D01*
X339635Y75630D01*
X339693Y75676D01*
X339756Y75713D01*
X339804Y75763D01*
X339858Y75806D01*
X339901Y75866D01*
X339951Y75920D01*
X339983Y75981D01*
X340023Y76038D01*
X340048Y76107D01*
X340082Y76173D01*
X340095Y76240D01*
X340118Y76306D01*
X340122Y76379D01*
X340137Y76452D01*
X340131Y76520D01*
X340135Y76589D01*
X340119Y76661D01*
X340112Y76735D01*
X340087Y76799D01*
X340072Y76867D01*
X340037Y76931D01*
X340010Y77000D01*
X339969Y77055D01*
X339935Y77116D01*
X339883Y77168D01*
X339839Y77227D01*
X339783Y77268D01*
X339734Y77317D01*
X339679Y77346D01*
X339611Y77397D01*
X339503Y77438D01*
X339437Y77472D01*
X338317Y77836D01*
X336643Y78689D01*
X335122Y79794D01*
X333794Y81122D01*
X332689Y82643D01*
X331836Y84317D01*
X331255Y86104D01*
X331134Y86869D01*
X341884Y86869D01*
X341942Y86877D01*
X342000Y86875D01*
X342082Y86897D01*
X342165Y86909D01*
X342219Y86933D01*
X342275Y86947D01*
X342348Y86990D01*
X342425Y87025D01*
X342469Y87063D01*
X342520Y87093D01*
X342577Y87154D01*
X342642Y87209D01*
X342674Y87257D01*
X342714Y87300D01*
X342753Y87375D01*
X342799Y87445D01*
X342817Y87501D01*
X342844Y87553D01*
X342855Y87621D01*
X342885Y87716D01*
X342888Y87816D01*
X342899Y87884D01*
X342899Y89916D01*
X342892Y89964D01*
X342892Y89969D01*
X342891Y89974D01*
X342892Y90032D01*
X342871Y90114D01*
X342859Y90197D01*
X342835Y90251D01*
X342821Y90307D01*
X342778Y90380D01*
X342743Y90457D01*
X342705Y90502D01*
X342675Y90552D01*
X342614Y90610D01*
X342559Y90674D01*
X342511Y90706D01*
X342468Y90746D01*
X342393Y90785D01*
X342323Y90831D01*
X342267Y90849D01*
X342215Y90876D01*
X342147Y90887D01*
X342052Y90917D01*
X341952Y90920D01*
X341884Y90931D01*
X331134Y90931D01*
X331255Y91696D01*
X331836Y93483D01*
X332689Y95157D01*
X333246Y95923D01*
X333289Y96005D01*
X333340Y96081D01*
X333355Y96130D01*
X333379Y96174D01*
X333398Y96264D01*
X333426Y96352D01*
X333427Y96403D01*
X333437Y96453D01*
X333431Y96544D01*
X333433Y96636D01*
X333420Y96685D01*
X333416Y96736D01*
X333384Y96823D01*
X333361Y96911D01*
X333335Y96955D01*
X333317Y97003D01*
X333263Y97077D01*
X333216Y97156D01*
X333179Y97191D01*
X333149Y97231D01*
X333076Y97287D01*
X333008Y97350D01*
X332963Y97373D01*
X332923Y97404D01*
X332837Y97438D01*
X332755Y97480D01*
X332711Y97487D01*
X332658Y97508D01*
X332500Y97523D01*
X332424Y97535D01*
X56457Y97535D01*
X56370Y97523D01*
X56283Y97520D01*
X56230Y97503D01*
X56175Y97495D01*
X56095Y97460D01*
X56012Y97433D01*
X55973Y97405D01*
X55916Y97379D01*
X55803Y97283D01*
X55739Y97238D01*
X54525Y96025D01*
X52108Y95023D01*
X49492Y95023D01*
X47075Y96025D01*
X45225Y97875D01*
X44223Y100292D01*
X44223Y102908D01*
X45225Y105325D01*
X47075Y107175D01*
X49492Y108177D01*
X52108Y108177D01*
X54525Y107175D01*
X55739Y105962D01*
X55809Y105910D01*
X55873Y105850D01*
X55922Y105824D01*
X55966Y105791D01*
X56048Y105760D01*
X56126Y105720D01*
X56173Y105712D01*
X56232Y105690D01*
X56379Y105678D01*
X56457Y105665D01*
X331485Y105665D01*
X331599Y105681D01*
X331713Y105691D01*
X331739Y105701D01*
X331767Y105705D01*
X331872Y105752D01*
X331979Y105793D01*
X332001Y105809D01*
X332026Y105821D01*
X332114Y105895D01*
X332205Y105964D01*
X332222Y105987D01*
X332243Y106004D01*
X332307Y106100D01*
X332375Y106192D01*
X332385Y106218D01*
X332401Y106241D01*
X332435Y106351D01*
X332476Y106458D01*
X332478Y106486D01*
X332486Y106512D01*
X332489Y106627D01*
X332499Y106741D01*
X332493Y106766D01*
X332494Y106796D01*
X332427Y107053D01*
X332423Y107069D01*
X330453Y111824D01*
X330453Y116776D01*
X332348Y121351D01*
X335849Y124852D01*
X338771Y126062D01*
X338796Y126077D01*
X338824Y126086D01*
X338919Y126149D01*
X339016Y126207D01*
X339036Y126228D01*
X339061Y126244D01*
X339134Y126331D01*
X339211Y126413D01*
X339225Y126439D01*
X339244Y126462D01*
X339290Y126565D01*
X339341Y126666D01*
X339347Y126695D01*
X339359Y126722D01*
X339375Y126834D01*
X339396Y126945D01*
X339394Y126974D01*
X339398Y127003D01*
X339382Y127115D01*
X339372Y127228D01*
X339361Y127255D01*
X339357Y127285D01*
X339311Y127388D01*
X339270Y127493D01*
X339252Y127517D01*
X339240Y127544D01*
X339167Y127630D01*
X339098Y127720D01*
X339075Y127738D01*
X339056Y127760D01*
X338989Y127802D01*
X338871Y127890D01*
X338812Y127912D01*
X338771Y127938D01*
X335849Y129148D01*
X332348Y132649D01*
X330453Y137224D01*
X330453Y142176D01*
X332348Y146751D01*
X335849Y150252D01*
X338771Y151462D01*
X338796Y151477D01*
X338824Y151486D01*
X338919Y151549D01*
X339016Y151607D01*
X339036Y151628D01*
X339061Y151644D01*
X339133Y151731D01*
X339211Y151813D01*
X339225Y151839D01*
X339243Y151862D01*
X339289Y151965D01*
X339341Y152066D01*
X339347Y152095D01*
X339359Y152122D01*
X339375Y152234D01*
X339396Y152345D01*
X339394Y152374D01*
X339398Y152403D01*
X339382Y152515D01*
X339372Y152628D01*
X339361Y152655D01*
X339357Y152684D01*
X339311Y152788D01*
X339270Y152893D01*
X339252Y152917D01*
X339240Y152944D01*
X339167Y153030D01*
X339098Y153120D01*
X339075Y153138D01*
X339056Y153160D01*
X338989Y153202D01*
X338871Y153290D01*
X338812Y153312D01*
X338771Y153338D01*
X335849Y154548D01*
X332348Y158049D01*
X331138Y160971D01*
X331123Y160996D01*
X331114Y161024D01*
X331051Y161119D01*
X330993Y161216D01*
X330972Y161236D01*
X330956Y161261D01*
X330869Y161333D01*
X330787Y161411D01*
X330761Y161425D01*
X330738Y161443D01*
X330635Y161489D01*
X330534Y161541D01*
X330505Y161547D01*
X330478Y161559D01*
X330366Y161575D01*
X330255Y161596D01*
X330226Y161594D01*
X330197Y161598D01*
X330085Y161582D01*
X329972Y161572D01*
X329945Y161561D01*
X329916Y161557D01*
X329812Y161511D01*
X329707Y161470D01*
X329683Y161452D01*
X329656Y161440D01*
X329570Y161367D01*
X329480Y161298D01*
X329462Y161275D01*
X329440Y161256D01*
X329398Y161189D01*
X329310Y161071D01*
X329288Y161012D01*
X329262Y160971D01*
X328052Y158049D01*
X324551Y154548D01*
X319976Y152653D01*
X315024Y152653D01*
X310449Y154548D01*
X306948Y158049D01*
X305738Y160971D01*
X305723Y160996D01*
X305714Y161024D01*
X305651Y161119D01*
X305593Y161216D01*
X305572Y161236D01*
X305556Y161261D01*
X305469Y161333D01*
X305387Y161411D01*
X305361Y161425D01*
X305338Y161443D01*
X305235Y161489D01*
X305134Y161541D01*
X305105Y161547D01*
X305078Y161559D01*
X304966Y161575D01*
X304855Y161596D01*
X304826Y161594D01*
X304797Y161598D01*
X304685Y161582D01*
X304572Y161572D01*
X304545Y161561D01*
X304516Y161557D01*
X304412Y161511D01*
X304307Y161470D01*
X304283Y161452D01*
X304256Y161440D01*
X304170Y161367D01*
X304080Y161298D01*
X304062Y161275D01*
X304040Y161256D01*
X303998Y161189D01*
X303910Y161071D01*
X303888Y161012D01*
X303862Y160971D01*
X302652Y158049D01*
X299151Y154548D01*
X294576Y152653D01*
X289624Y152653D01*
X285049Y154548D01*
X281548Y158049D01*
X280338Y160971D01*
X280323Y160996D01*
X280314Y161024D01*
X280251Y161119D01*
X280193Y161216D01*
X280172Y161236D01*
X280156Y161261D01*
X280069Y161333D01*
X279987Y161411D01*
X279961Y161425D01*
X279938Y161443D01*
X279835Y161489D01*
X279734Y161541D01*
X279705Y161547D01*
X279678Y161559D01*
X279566Y161575D01*
X279455Y161596D01*
X279426Y161594D01*
X279397Y161598D01*
X279285Y161582D01*
X279172Y161572D01*
X279145Y161561D01*
X279116Y161557D01*
X279012Y161511D01*
X278907Y161470D01*
X278883Y161452D01*
X278856Y161440D01*
X278770Y161367D01*
X278680Y161298D01*
X278662Y161275D01*
X278640Y161256D01*
X278598Y161189D01*
X278510Y161071D01*
X278488Y161012D01*
X278462Y160971D01*
X277252Y158049D01*
X273751Y154548D01*
X269176Y152653D01*
X264224Y152653D01*
X259649Y154548D01*
X256148Y158049D01*
X254938Y160971D01*
X254923Y160996D01*
X254914Y161024D01*
X254851Y161119D01*
X254793Y161216D01*
X254772Y161236D01*
X254756Y161261D01*
X254669Y161333D01*
X254587Y161411D01*
X254561Y161425D01*
X254538Y161443D01*
X254435Y161489D01*
X254334Y161541D01*
X254305Y161547D01*
X254278Y161559D01*
X254166Y161575D01*
X254055Y161596D01*
X254026Y161594D01*
X253997Y161598D01*
X253885Y161582D01*
X253772Y161572D01*
X253745Y161561D01*
X253716Y161557D01*
X253612Y161511D01*
X253507Y161470D01*
X253483Y161452D01*
X253456Y161440D01*
X253370Y161367D01*
X253280Y161298D01*
X253262Y161275D01*
X253240Y161256D01*
X253198Y161189D01*
X253110Y161071D01*
X253088Y161012D01*
X253062Y160971D01*
X251852Y158049D01*
X248351Y154548D01*
X243776Y152653D01*
X238824Y152653D01*
X234249Y154548D01*
X230748Y158049D01*
X229538Y160971D01*
X229523Y160996D01*
X229514Y161024D01*
X229451Y161119D01*
X229393Y161216D01*
X229372Y161236D01*
X229356Y161261D01*
X229269Y161334D01*
X229187Y161411D01*
X229161Y161425D01*
X229138Y161444D01*
X229035Y161490D01*
X228934Y161541D01*
X228905Y161547D01*
X228878Y161559D01*
X228766Y161575D01*
X228655Y161596D01*
X228626Y161594D01*
X228597Y161598D01*
X228485Y161582D01*
X228372Y161572D01*
X228345Y161561D01*
X228315Y161557D01*
X228212Y161511D01*
X228107Y161470D01*
X228083Y161452D01*
X228056Y161440D01*
X227970Y161367D01*
X227880Y161298D01*
X227862Y161275D01*
X227840Y161256D01*
X227798Y161189D01*
X227710Y161071D01*
X227688Y161012D01*
X227662Y160971D01*
X226452Y158049D01*
X222951Y154548D01*
X218376Y152653D01*
X213424Y152653D01*
X208849Y154548D01*
X205348Y158049D01*
X204138Y160971D01*
X204123Y160996D01*
X204114Y161024D01*
X204051Y161119D01*
X203993Y161216D01*
X203972Y161236D01*
X203956Y161261D01*
X203869Y161334D01*
X203787Y161411D01*
X203761Y161425D01*
X203738Y161444D01*
X203635Y161490D01*
X203534Y161541D01*
X203505Y161547D01*
X203478Y161559D01*
X203366Y161575D01*
X203255Y161596D01*
X203226Y161594D01*
X203197Y161598D01*
X203085Y161582D01*
X202972Y161572D01*
X202945Y161561D01*
X202916Y161557D01*
X202812Y161511D01*
X202707Y161470D01*
X202683Y161452D01*
X202656Y161440D01*
X202570Y161367D01*
X202480Y161298D01*
X202462Y161275D01*
X202440Y161256D01*
X202398Y161189D01*
X202310Y161071D01*
X202288Y161012D01*
X202262Y160971D01*
X201052Y158049D01*
X197551Y154548D01*
X192976Y152653D01*
X188024Y152653D01*
X183449Y154548D01*
X179948Y158049D01*
X178738Y160971D01*
X178723Y160996D01*
X178714Y161024D01*
X178651Y161119D01*
X178593Y161216D01*
X178572Y161236D01*
X178556Y161261D01*
X178469Y161334D01*
X178387Y161411D01*
X178361Y161425D01*
X178338Y161444D01*
X178235Y161490D01*
X178134Y161541D01*
X178105Y161547D01*
X178078Y161559D01*
X177966Y161575D01*
X177855Y161596D01*
X177826Y161594D01*
X177797Y161598D01*
X177685Y161582D01*
X177572Y161572D01*
X177545Y161561D01*
X177516Y161557D01*
X177412Y161511D01*
X177307Y161470D01*
X177283Y161452D01*
X177256Y161440D01*
X177170Y161367D01*
X177080Y161298D01*
X177062Y161275D01*
X177040Y161256D01*
X176998Y161189D01*
X176910Y161071D01*
X176888Y161012D01*
X176862Y160971D01*
X175652Y158049D01*
X172151Y154548D01*
X167576Y152653D01*
X162624Y152653D01*
X158049Y154548D01*
X154548Y158049D01*
X153338Y160971D01*
X153323Y160996D01*
X153314Y161024D01*
X153251Y161119D01*
X153193Y161216D01*
X153172Y161236D01*
X153156Y161261D01*
X153069Y161334D01*
X152987Y161411D01*
X152961Y161425D01*
X152938Y161444D01*
X152835Y161490D01*
X152734Y161541D01*
X152705Y161547D01*
X152678Y161559D01*
X152566Y161575D01*
X152455Y161596D01*
X152426Y161594D01*
X152397Y161598D01*
X152285Y161582D01*
X152172Y161572D01*
X152145Y161561D01*
X152116Y161557D01*
X152012Y161511D01*
X151907Y161470D01*
X151883Y161452D01*
X151856Y161440D01*
X151770Y161367D01*
X151680Y161298D01*
X151662Y161275D01*
X151640Y161256D01*
X151598Y161189D01*
X151510Y161071D01*
X151488Y161012D01*
X151462Y160971D01*
X150252Y158049D01*
X146751Y154548D01*
X143829Y153338D01*
X143804Y153323D01*
X143776Y153314D01*
X143681Y153251D01*
X143584Y153193D01*
X143564Y153172D01*
X143539Y153156D01*
X143466Y153069D01*
X143389Y152987D01*
X143375Y152961D01*
X143356Y152938D01*
X143310Y152835D01*
X143259Y152734D01*
X143253Y152705D01*
X143241Y152678D01*
X143225Y152566D01*
X143204Y152455D01*
X143206Y152426D01*
X143202Y152397D01*
X143218Y152285D01*
X143228Y152172D01*
X143239Y152145D01*
X143243Y152116D01*
X143289Y152012D01*
X143330Y151907D01*
X143348Y151883D01*
X143360Y151856D01*
X143433Y151770D01*
X143502Y151680D01*
X143525Y151662D01*
X143544Y151640D01*
X143611Y151598D01*
X143729Y151510D01*
X143788Y151488D01*
X143829Y151462D01*
X146751Y150252D01*
X150252Y146751D01*
X152147Y142176D01*
X152147Y137224D01*
X150252Y132649D01*
X146751Y129148D01*
X142176Y127253D01*
X137224Y127253D01*
X132649Y129148D01*
X129148Y132649D01*
X127938Y135571D01*
X127923Y135596D01*
X127914Y135624D01*
X127851Y135719D01*
X127793Y135816D01*
X127772Y135836D01*
X127756Y135861D01*
X127669Y135934D01*
X127587Y136011D01*
X127561Y136025D01*
X127538Y136044D01*
X127435Y136090D01*
X127334Y136141D01*
X127305Y136147D01*
X127278Y136159D01*
X127166Y136175D01*
X127055Y136196D01*
X127026Y136194D01*
X126997Y136198D01*
X126885Y136182D01*
X126772Y136172D01*
X126745Y136161D01*
X126716Y136157D01*
X126612Y136111D01*
X126507Y136070D01*
X126483Y136052D01*
X126456Y136040D01*
X126370Y135967D01*
X126280Y135898D01*
X126262Y135875D01*
X126240Y135856D01*
X126198Y135789D01*
X126110Y135671D01*
X126088Y135612D01*
X126062Y135571D01*
X124852Y132649D01*
X121351Y129148D01*
X116776Y127253D01*
X111824Y127253D01*
X107249Y129148D01*
X103748Y132649D01*
X102538Y135571D01*
X102523Y135596D01*
X102514Y135624D01*
X102451Y135719D01*
X102393Y135816D01*
X102372Y135836D01*
X102356Y135861D01*
X102269Y135934D01*
X102187Y136011D01*
X102161Y136025D01*
X102138Y136044D01*
X102035Y136090D01*
X101934Y136141D01*
X101905Y136147D01*
X101878Y136159D01*
X101766Y136175D01*
X101655Y136196D01*
X101626Y136194D01*
X101597Y136198D01*
X101485Y136182D01*
X101372Y136172D01*
X101345Y136161D01*
X101316Y136157D01*
X101212Y136111D01*
X101107Y136070D01*
X101083Y136052D01*
X101056Y136040D01*
X100970Y135967D01*
X100880Y135898D01*
X100862Y135875D01*
X100840Y135856D01*
X100798Y135789D01*
X100710Y135671D01*
X100688Y135612D01*
X100662Y135571D01*
X99452Y132649D01*
X95951Y129148D01*
X91376Y127253D01*
X86424Y127253D01*
X81849Y129148D01*
X78348Y132649D01*
X76453Y137224D01*
X76453Y142176D01*
X78348Y146751D01*
X81849Y150252D01*
X84771Y151462D01*
X84796Y151477D01*
X84824Y151486D01*
X84919Y151549D01*
X85016Y151607D01*
X85036Y151628D01*
X85061Y151644D01*
X85134Y151731D01*
X85211Y151813D01*
X85225Y151839D01*
X85244Y151862D01*
X85290Y151965D01*
X85341Y152066D01*
X85347Y152095D01*
X85359Y152122D01*
X85375Y152234D01*
X85396Y152345D01*
X85394Y152374D01*
X85398Y152403D01*
X85382Y152515D01*
X85372Y152628D01*
X85361Y152655D01*
X85357Y152685D01*
X85311Y152788D01*
X85270Y152893D01*
X85252Y152917D01*
X85240Y152944D01*
X85167Y153030D01*
X85098Y153120D01*
X85075Y153138D01*
X85056Y153160D01*
X84989Y153202D01*
X84871Y153290D01*
X84812Y153312D01*
X84771Y153338D01*
X81849Y154548D01*
X78348Y158049D01*
X77138Y160971D01*
X77123Y160996D01*
X77114Y161024D01*
X77051Y161119D01*
X76993Y161216D01*
X76972Y161236D01*
X76956Y161261D01*
X76869Y161334D01*
X76787Y161411D01*
X76761Y161425D01*
X76738Y161444D01*
X76635Y161490D01*
X76534Y161541D01*
X76505Y161547D01*
X76478Y161559D01*
X76366Y161575D01*
X76255Y161596D01*
X76226Y161594D01*
X76197Y161598D01*
X76085Y161582D01*
X75972Y161572D01*
X75945Y161561D01*
X75916Y161557D01*
X75812Y161511D01*
X75707Y161470D01*
X75683Y161452D01*
X75656Y161440D01*
X75570Y161367D01*
X75480Y161298D01*
X75462Y161275D01*
X75440Y161256D01*
X75398Y161189D01*
X75310Y161071D01*
X75288Y161012D01*
X75262Y160971D01*
X74052Y158049D01*
X70551Y154548D01*
X65976Y152653D01*
X61024Y152653D01*
X56449Y154548D01*
X52948Y158049D01*
X51431Y161711D01*
X51396Y161771D01*
X51370Y161835D01*
X51324Y161893D01*
X51287Y161956D01*
X51237Y162004D01*
X51194Y162058D01*
X51134Y162101D01*
X51080Y162151D01*
X51019Y162183D01*
X50962Y162223D01*
X50893Y162248D01*
X50827Y162282D01*
X50760Y162295D01*
X50694Y162318D01*
X50621Y162322D01*
X50548Y162337D01*
X50480Y162331D01*
X50411Y162335D01*
X50339Y162319D01*
X50265Y162312D01*
X50201Y162287D01*
X50133Y162272D01*
X50069Y162237D01*
X50000Y162210D01*
X49945Y162169D01*
X49884Y162135D01*
X49832Y162083D01*
X49773Y162039D01*
X49732Y161983D01*
X49683Y161934D01*
X49654Y161879D01*
X49603Y161811D01*
X49562Y161703D01*
X49528Y161637D01*
X49164Y160517D01*
X48311Y158843D01*
X47206Y157322D01*
X45878Y155994D01*
X44357Y154889D01*
X42683Y154036D01*
X41563Y153672D01*
X41501Y153642D01*
X41435Y153621D01*
X41374Y153580D01*
X41308Y153547D01*
X41257Y153501D01*
X41199Y153462D01*
X41152Y153406D01*
X41097Y153357D01*
X41061Y153298D01*
X41016Y153245D01*
X40986Y153178D01*
X40947Y153115D01*
X40929Y153048D01*
X40901Y152985D01*
X40891Y152912D01*
X40871Y152841D01*
X40871Y152772D01*
X40862Y152703D01*
X40872Y152631D01*
X40873Y152557D01*
X40893Y152490D01*
X40902Y152422D01*
X40933Y152355D01*
X40954Y152284D01*
X40991Y152226D01*
X41020Y152163D01*
X41067Y152107D01*
X41107Y152045D01*
X41159Y151999D01*
X41204Y151947D01*
X41257Y151914D01*
X41321Y151857D01*
X41425Y151808D01*
X41489Y151769D01*
X45151Y150252D01*
X48652Y146751D01*
X50547Y142176D01*
X50547Y137224D01*
X48652Y132649D01*
X45151Y129148D01*
X40576Y127253D01*
X35624Y127253D01*
X31049Y129148D01*
X27548Y132649D01*
X25653Y137224D01*
X25653Y142176D01*
X27548Y146751D01*
X31049Y150252D01*
X34711Y151769D01*
X34771Y151804D01*
X34835Y151830D01*
X34893Y151876D01*
X34956Y151913D01*
X35004Y151963D01*
X35058Y152006D01*
X35101Y152066D01*
X35151Y152120D01*
X35183Y152181D01*
X35223Y152238D01*
X35248Y152307D01*
X35282Y152373D01*
X35295Y152440D01*
X35318Y152506D01*
X35322Y152579D01*
X35337Y152652D01*
X35331Y152720D01*
X35335Y152789D01*
X35319Y152861D01*
X35312Y152935D01*
X35287Y152999D01*
X35272Y153067D01*
X35237Y153131D01*
X35210Y153200D01*
X35169Y153255D01*
X35135Y153316D01*
X35083Y153368D01*
X35039Y153427D01*
X34983Y153468D01*
X34934Y153517D01*
X34879Y153546D01*
X34811Y153597D01*
X34703Y153638D01*
X34637Y153672D01*
X33517Y154036D01*
X31843Y154889D01*
X30322Y155994D01*
X28994Y157322D01*
X27889Y158843D01*
X27036Y160517D01*
X26672Y161637D01*
X26642Y161699D01*
X26621Y161765D01*
X26580Y161826D01*
X26547Y161892D01*
X26501Y161943D01*
X26462Y162001D01*
X26406Y162048D01*
X26357Y162103D01*
X26298Y162139D01*
X26245Y162184D01*
X26178Y162214D01*
X26115Y162253D01*
X26048Y162271D01*
X25985Y162299D01*
X25912Y162309D01*
X25841Y162329D01*
X25772Y162329D01*
X25703Y162338D01*
X25631Y162328D01*
X25557Y162327D01*
X25490Y162307D01*
X25422Y162298D01*
X25355Y162267D01*
X25284Y162246D01*
X25226Y162209D01*
X25163Y162180D01*
X25107Y162133D01*
X25045Y162093D01*
X24999Y162041D01*
X24947Y161996D01*
X24914Y161943D01*
X24857Y161879D01*
X24808Y161775D01*
X24769Y161711D01*
X23252Y158049D01*
X19751Y154548D01*
X15176Y152653D01*
X10224Y152653D01*
X5649Y154548D01*
X4274Y155924D01*
X4250Y155941D01*
X4231Y155964D01*
X4137Y156027D01*
X4047Y156095D01*
X4019Y156105D01*
X3995Y156121D01*
X3887Y156156D01*
X3781Y156196D01*
X3752Y156198D01*
X3724Y156207D01*
X3610Y156210D01*
X3498Y156219D01*
X3469Y156214D01*
X3440Y156214D01*
X3330Y156186D01*
X3219Y156164D01*
X3193Y156150D01*
X3165Y156143D01*
X3067Y156085D01*
X2967Y156033D01*
X2945Y156012D01*
X2920Y155997D01*
X2843Y155915D01*
X2761Y155837D01*
X2746Y155811D01*
X2726Y155790D01*
X2674Y155689D01*
X2617Y155592D01*
X2610Y155563D01*
X2596Y155537D01*
X2583Y155460D01*
X2547Y155316D01*
X2549Y155254D01*
X2541Y155206D01*
X2541Y21876D01*
X2545Y21847D01*
X2542Y21817D01*
X2565Y21706D01*
X2581Y21594D01*
X2593Y21567D01*
X2598Y21539D01*
X2651Y21438D01*
X2697Y21335D01*
X2716Y21312D01*
X2729Y21286D01*
X2807Y21204D01*
X2880Y21118D01*
X2905Y21101D01*
X2925Y21080D01*
X3023Y21023D01*
X3117Y20960D01*
X3145Y20951D01*
X3170Y20936D01*
X3280Y20909D01*
X3388Y20874D01*
X3418Y20874D01*
X3446Y20866D01*
X3559Y20870D01*
X3672Y20867D01*
X3701Y20874D01*
X3730Y20875D01*
X3838Y20910D01*
X3947Y20939D01*
X3973Y20954D01*
X4001Y20963D01*
X4065Y21009D01*
X4192Y21084D01*
X4235Y21130D01*
X4274Y21158D01*
X4922Y21806D01*
X6443Y22911D01*
X8117Y23764D01*
X9904Y24345D01*
X10669Y24466D01*
X10669Y13716D01*
X10677Y13658D01*
X10675Y13600D01*
X10697Y13518D01*
X10709Y13435D01*
X10733Y13381D01*
X10747Y13325D01*
X10790Y13252D01*
X10825Y13175D01*
X10863Y13131D01*
X10893Y13080D01*
X10954Y13023D01*
X11009Y12958D01*
X11057Y12926D01*
X11100Y12886D01*
X11175Y12847D01*
X11245Y12801D01*
X11301Y12783D01*
X11353Y12756D01*
X11421Y12745D01*
X11516Y12715D01*
X11616Y12712D01*
X11684Y12701D01*
X13716Y12701D01*
X13774Y12709D01*
G37*
G36*
X421696Y2549D02*
X421696Y2549D01*
X421740Y2546D01*
X422780Y2648D01*
X423056Y2715D01*
X423063Y2719D01*
X423069Y2721D01*
X424992Y3517D01*
X425019Y3533D01*
X425048Y3542D01*
X425112Y3588D01*
X425237Y3661D01*
X425281Y3708D01*
X425321Y3737D01*
X426793Y5209D01*
X426811Y5233D01*
X426835Y5253D01*
X426877Y5320D01*
X426964Y5436D01*
X426987Y5496D01*
X427013Y5538D01*
X427809Y7461D01*
X427880Y7736D01*
X427880Y7744D01*
X427882Y7750D01*
X427984Y8790D01*
X427982Y8847D01*
X427989Y8890D01*
X427989Y168910D01*
X427981Y168966D01*
X427984Y169010D01*
X427882Y170050D01*
X427815Y170326D01*
X427811Y170333D01*
X427809Y170339D01*
X427013Y172262D01*
X426997Y172289D01*
X426988Y172318D01*
X426942Y172382D01*
X426869Y172507D01*
X426822Y172551D01*
X426793Y172591D01*
X425321Y174063D01*
X425297Y174081D01*
X425277Y174105D01*
X425210Y174147D01*
X425094Y174234D01*
X425034Y174257D01*
X424992Y174283D01*
X423069Y175079D01*
X422794Y175150D01*
X422786Y175150D01*
X422780Y175152D01*
X421740Y175254D01*
X421683Y175252D01*
X421640Y175259D01*
X352794Y175259D01*
X352765Y175255D01*
X352736Y175258D01*
X352625Y175235D01*
X352513Y175219D01*
X352486Y175207D01*
X352457Y175202D01*
X352356Y175149D01*
X352253Y175103D01*
X352231Y175084D01*
X352205Y175071D01*
X352123Y174993D01*
X352036Y174920D01*
X352020Y174895D01*
X351999Y174875D01*
X351941Y174777D01*
X351879Y174683D01*
X351870Y174655D01*
X351855Y174630D01*
X351827Y174520D01*
X351793Y174412D01*
X351792Y174382D01*
X351785Y174354D01*
X351788Y174241D01*
X351786Y174128D01*
X351793Y174099D01*
X351794Y174070D01*
X351829Y173962D01*
X351857Y173853D01*
X351872Y173827D01*
X351881Y173799D01*
X351927Y173735D01*
X352003Y173608D01*
X352048Y173565D01*
X352076Y173526D01*
X353452Y172151D01*
X355347Y167576D01*
X355347Y162624D01*
X353452Y158049D01*
X349951Y154548D01*
X347029Y153338D01*
X347004Y153323D01*
X346976Y153314D01*
X346881Y153251D01*
X346784Y153193D01*
X346764Y153172D01*
X346739Y153156D01*
X346666Y153069D01*
X346589Y152987D01*
X346575Y152961D01*
X346556Y152938D01*
X346510Y152835D01*
X346459Y152734D01*
X346453Y152705D01*
X346441Y152678D01*
X346425Y152566D01*
X346404Y152455D01*
X346406Y152426D01*
X346402Y152397D01*
X346418Y152285D01*
X346428Y152172D01*
X346439Y152145D01*
X346443Y152115D01*
X346489Y152012D01*
X346530Y151907D01*
X346548Y151883D01*
X346560Y151856D01*
X346633Y151770D01*
X346702Y151680D01*
X346725Y151662D01*
X346744Y151640D01*
X346811Y151598D01*
X346929Y151510D01*
X346988Y151488D01*
X347029Y151462D01*
X349951Y150252D01*
X353452Y146751D01*
X355347Y142176D01*
X355347Y137224D01*
X353452Y132649D01*
X349951Y129148D01*
X347029Y127938D01*
X347004Y127923D01*
X346976Y127914D01*
X346881Y127851D01*
X346784Y127793D01*
X346764Y127772D01*
X346739Y127756D01*
X346667Y127669D01*
X346589Y127587D01*
X346575Y127561D01*
X346557Y127538D01*
X346511Y127435D01*
X346459Y127334D01*
X346453Y127305D01*
X346441Y127278D01*
X346425Y127166D01*
X346404Y127055D01*
X346406Y127026D01*
X346402Y126997D01*
X346418Y126885D01*
X346428Y126772D01*
X346439Y126745D01*
X346443Y126716D01*
X346489Y126612D01*
X346530Y126507D01*
X346548Y126483D01*
X346560Y126456D01*
X346633Y126370D01*
X346702Y126280D01*
X346725Y126262D01*
X346744Y126240D01*
X346811Y126198D01*
X346929Y126110D01*
X346988Y126088D01*
X347029Y126062D01*
X349951Y124852D01*
X353452Y121351D01*
X355347Y116776D01*
X355347Y111824D01*
X353377Y107069D01*
X353348Y106957D01*
X353314Y106848D01*
X353313Y106820D01*
X353306Y106793D01*
X353309Y106679D01*
X353306Y106564D01*
X353313Y106537D01*
X353314Y106509D01*
X353349Y106400D01*
X353378Y106289D01*
X353392Y106265D01*
X353401Y106238D01*
X353465Y106143D01*
X353523Y106044D01*
X353544Y106025D01*
X353559Y106002D01*
X353647Y105928D01*
X353731Y105850D01*
X353755Y105837D01*
X353777Y105819D01*
X353881Y105773D01*
X353984Y105720D01*
X354008Y105716D01*
X354036Y105704D01*
X354300Y105667D01*
X354315Y105665D01*
X378896Y105665D01*
X378982Y105677D01*
X379070Y105680D01*
X379122Y105697D01*
X379177Y105705D01*
X379257Y105740D01*
X379340Y105767D01*
X379380Y105795D01*
X379437Y105821D01*
X379550Y105917D01*
X379614Y105962D01*
X380019Y106367D01*
X380020Y106369D01*
X380021Y106369D01*
X380104Y106481D01*
X380190Y106594D01*
X380190Y106596D01*
X380191Y106597D01*
X380240Y106726D01*
X380291Y106860D01*
X380291Y106862D01*
X380292Y106863D01*
X380303Y107001D01*
X380315Y107143D01*
X380314Y107145D01*
X380314Y107147D01*
X380311Y107162D01*
X380298Y107224D01*
X380299Y107228D01*
X380294Y107244D01*
X380259Y107422D01*
X380245Y107449D01*
X380239Y107474D01*
X378651Y111307D01*
X378651Y117293D01*
X380942Y122824D01*
X385176Y127058D01*
X390707Y129349D01*
X396693Y129349D01*
X402224Y127058D01*
X406458Y122824D01*
X408749Y117293D01*
X408749Y111307D01*
X406458Y105776D01*
X402224Y101542D01*
X396693Y99251D01*
X390707Y99251D01*
X386874Y100839D01*
X386872Y100839D01*
X386871Y100840D01*
X386736Y100874D01*
X386598Y100910D01*
X386597Y100910D01*
X386595Y100910D01*
X386455Y100906D01*
X386314Y100902D01*
X386313Y100901D01*
X386311Y100901D01*
X386178Y100858D01*
X386043Y100815D01*
X386042Y100814D01*
X386041Y100814D01*
X386029Y100805D01*
X385807Y100657D01*
X385788Y100633D01*
X385767Y100619D01*
X382684Y97535D01*
X353376Y97535D01*
X353285Y97522D01*
X353193Y97519D01*
X353144Y97503D01*
X353094Y97495D01*
X353010Y97458D01*
X352923Y97429D01*
X352881Y97400D01*
X352835Y97379D01*
X352765Y97320D01*
X352689Y97268D01*
X352657Y97228D01*
X352618Y97196D01*
X352567Y97119D01*
X352508Y97048D01*
X352488Y97001D01*
X352460Y96959D01*
X352432Y96871D01*
X352396Y96787D01*
X352390Y96736D01*
X352374Y96688D01*
X352372Y96596D01*
X352361Y96505D01*
X352368Y96454D01*
X352367Y96404D01*
X352390Y96315D01*
X352405Y96224D01*
X352425Y96184D01*
X352439Y96129D01*
X352520Y95992D01*
X352554Y95923D01*
X353111Y95157D01*
X353964Y93483D01*
X354545Y91696D01*
X354666Y90931D01*
X343916Y90931D01*
X343858Y90923D01*
X343800Y90925D01*
X343718Y90903D01*
X343635Y90891D01*
X343581Y90867D01*
X343525Y90853D01*
X343452Y90810D01*
X343375Y90775D01*
X343331Y90737D01*
X343280Y90707D01*
X343223Y90646D01*
X343158Y90591D01*
X343126Y90543D01*
X343086Y90500D01*
X343047Y90425D01*
X343001Y90355D01*
X342983Y90299D01*
X342956Y90247D01*
X342945Y90179D01*
X342915Y90084D01*
X342912Y89984D01*
X342901Y89916D01*
X342901Y87884D01*
X342909Y87826D01*
X342908Y87768D01*
X342929Y87686D01*
X342941Y87603D01*
X342965Y87549D01*
X342979Y87493D01*
X343022Y87420D01*
X343057Y87343D01*
X343095Y87298D01*
X343125Y87248D01*
X343186Y87190D01*
X343241Y87126D01*
X343289Y87094D01*
X343332Y87054D01*
X343407Y87015D01*
X343477Y86969D01*
X343533Y86951D01*
X343585Y86924D01*
X343653Y86913D01*
X343748Y86883D01*
X343848Y86880D01*
X343916Y86869D01*
X354666Y86869D01*
X354545Y86104D01*
X353964Y84317D01*
X353111Y82643D01*
X352006Y81122D01*
X350678Y79794D01*
X349157Y78689D01*
X347483Y77836D01*
X346363Y77472D01*
X346301Y77442D01*
X346235Y77421D01*
X346174Y77380D01*
X346108Y77347D01*
X346057Y77301D01*
X345999Y77262D01*
X345952Y77206D01*
X345897Y77157D01*
X345861Y77098D01*
X345816Y77045D01*
X345786Y76977D01*
X345747Y76915D01*
X345729Y76848D01*
X345701Y76785D01*
X345691Y76712D01*
X345671Y76641D01*
X345671Y76572D01*
X345662Y76503D01*
X345672Y76430D01*
X345673Y76357D01*
X345693Y76291D01*
X345702Y76222D01*
X345733Y76155D01*
X345754Y76084D01*
X345791Y76026D01*
X345820Y75963D01*
X345867Y75907D01*
X345907Y75845D01*
X345959Y75799D01*
X346004Y75747D01*
X346057Y75714D01*
X346121Y75657D01*
X346225Y75608D01*
X346289Y75569D01*
X349951Y74052D01*
X353452Y70551D01*
X355347Y65976D01*
X355347Y61024D01*
X353377Y56269D01*
X353348Y56157D01*
X353314Y56048D01*
X353313Y56020D01*
X353306Y55993D01*
X353309Y55879D01*
X353306Y55764D01*
X353313Y55737D01*
X353314Y55709D01*
X353349Y55600D01*
X353378Y55489D01*
X353392Y55465D01*
X353401Y55438D01*
X353465Y55343D01*
X353523Y55244D01*
X353544Y55225D01*
X353559Y55202D01*
X353647Y55128D01*
X353731Y55050D01*
X353755Y55037D01*
X353777Y55019D01*
X353881Y54973D01*
X353984Y54920D01*
X354008Y54916D01*
X354036Y54904D01*
X354300Y54867D01*
X354315Y54865D01*
X377729Y54865D01*
X377843Y54881D01*
X377957Y54891D01*
X377983Y54901D01*
X378011Y54905D01*
X378115Y54951D01*
X378223Y54993D01*
X378245Y55009D01*
X378270Y55021D01*
X378358Y55095D01*
X378449Y55164D01*
X378466Y55187D01*
X378487Y55204D01*
X378551Y55300D01*
X378619Y55392D01*
X378629Y55418D01*
X378645Y55441D01*
X378679Y55551D01*
X378720Y55658D01*
X378722Y55686D01*
X378730Y55712D01*
X378733Y55827D01*
X378742Y55941D01*
X378737Y55966D01*
X378738Y55996D01*
X378670Y56254D01*
X378667Y56269D01*
X378651Y56307D01*
X378651Y62293D01*
X380942Y67824D01*
X385176Y72058D01*
X390707Y74349D01*
X396693Y74349D01*
X402224Y72058D01*
X406458Y67824D01*
X408749Y62293D01*
X408749Y56307D01*
X406458Y50776D01*
X402224Y46542D01*
X396693Y44251D01*
X390707Y44251D01*
X385104Y46572D01*
X385097Y46576D01*
X385053Y46609D01*
X384971Y46640D01*
X384893Y46680D01*
X384846Y46688D01*
X384787Y46710D01*
X384639Y46722D01*
X384562Y46735D01*
X354315Y46735D01*
X354201Y46719D01*
X354087Y46709D01*
X354061Y46699D01*
X354033Y46695D01*
X353928Y46648D01*
X353821Y46607D01*
X353799Y46591D01*
X353774Y46579D01*
X353686Y46505D01*
X353595Y46436D01*
X353578Y46413D01*
X353557Y46396D01*
X353493Y46300D01*
X353424Y46208D01*
X353415Y46182D01*
X353399Y46159D01*
X353365Y46049D01*
X353324Y45942D01*
X353322Y45914D01*
X353314Y45888D01*
X353311Y45773D01*
X353301Y45659D01*
X353307Y45634D01*
X353306Y45604D01*
X353373Y45347D01*
X353377Y45331D01*
X355347Y40576D01*
X355347Y35624D01*
X353452Y31049D01*
X349951Y27548D01*
X347029Y26338D01*
X347004Y26323D01*
X346976Y26314D01*
X346881Y26251D01*
X346784Y26193D01*
X346764Y26172D01*
X346739Y26156D01*
X346666Y26069D01*
X346589Y25987D01*
X346575Y25961D01*
X346556Y25938D01*
X346510Y25835D01*
X346459Y25734D01*
X346453Y25705D01*
X346441Y25678D01*
X346425Y25566D01*
X346404Y25455D01*
X346406Y25426D01*
X346402Y25397D01*
X346418Y25285D01*
X346428Y25172D01*
X346439Y25145D01*
X346443Y25116D01*
X346489Y25012D01*
X346530Y24907D01*
X346548Y24883D01*
X346560Y24856D01*
X346633Y24770D01*
X346702Y24680D01*
X346725Y24662D01*
X346744Y24640D01*
X346811Y24598D01*
X346929Y24510D01*
X346988Y24488D01*
X347029Y24462D01*
X349951Y23252D01*
X353452Y19751D01*
X355347Y15176D01*
X355347Y10224D01*
X353452Y5649D01*
X352076Y4274D01*
X352059Y4250D01*
X352036Y4231D01*
X351973Y4137D01*
X351905Y4047D01*
X351895Y4019D01*
X351879Y3995D01*
X351844Y3887D01*
X351804Y3781D01*
X351802Y3752D01*
X351793Y3724D01*
X351790Y3610D01*
X351781Y3498D01*
X351786Y3469D01*
X351786Y3440D01*
X351814Y3330D01*
X351836Y3219D01*
X351850Y3193D01*
X351857Y3165D01*
X351915Y3067D01*
X351967Y2967D01*
X351988Y2945D01*
X352003Y2920D01*
X352085Y2843D01*
X352163Y2761D01*
X352189Y2746D01*
X352210Y2726D01*
X352311Y2674D01*
X352408Y2617D01*
X352437Y2610D01*
X352463Y2596D01*
X352540Y2583D01*
X352684Y2547D01*
X352746Y2549D01*
X352794Y2541D01*
X421640Y2541D01*
X421696Y2549D01*
G37*
G36*
X50096Y163077D02*
X50096Y163077D01*
X50154Y163075D01*
X50236Y163097D01*
X50320Y163109D01*
X50373Y163133D01*
X50429Y163147D01*
X50502Y163190D01*
X50579Y163225D01*
X50624Y163263D01*
X50674Y163293D01*
X50732Y163354D01*
X50796Y163409D01*
X50828Y163457D01*
X50868Y163500D01*
X50907Y163575D01*
X50954Y163645D01*
X50971Y163701D01*
X50998Y163753D01*
X51009Y163821D01*
X51039Y163916D01*
X51042Y164016D01*
X51053Y164084D01*
X51053Y166116D01*
X51045Y166174D01*
X51047Y166232D01*
X51025Y166314D01*
X51013Y166397D01*
X50990Y166451D01*
X50975Y166507D01*
X50932Y166580D01*
X50897Y166657D01*
X50859Y166702D01*
X50830Y166752D01*
X50768Y166810D01*
X50714Y166874D01*
X50665Y166906D01*
X50622Y166946D01*
X50547Y166985D01*
X50477Y167031D01*
X50421Y167049D01*
X50369Y167076D01*
X50301Y167087D01*
X50206Y167117D01*
X50106Y167120D01*
X50038Y167131D01*
X39116Y167131D01*
X39058Y167123D01*
X39000Y167125D01*
X38918Y167103D01*
X38835Y167091D01*
X38781Y167067D01*
X38725Y167053D01*
X38652Y167010D01*
X38575Y166975D01*
X38531Y166937D01*
X38480Y166907D01*
X38423Y166846D01*
X38358Y166791D01*
X38326Y166743D01*
X38286Y166700D01*
X38247Y166625D01*
X38201Y166555D01*
X38183Y166499D01*
X38156Y166447D01*
X38145Y166379D01*
X38115Y166284D01*
X38112Y166184D01*
X38101Y166116D01*
X38101Y164084D01*
X38109Y164026D01*
X38108Y163968D01*
X38129Y163886D01*
X38141Y163803D01*
X38165Y163749D01*
X38179Y163693D01*
X38222Y163620D01*
X38257Y163543D01*
X38295Y163498D01*
X38325Y163448D01*
X38386Y163390D01*
X38441Y163326D01*
X38489Y163294D01*
X38532Y163254D01*
X38607Y163215D01*
X38677Y163169D01*
X38733Y163151D01*
X38785Y163124D01*
X38853Y163113D01*
X38948Y163083D01*
X39048Y163080D01*
X39116Y163069D01*
X50038Y163069D01*
X50096Y163077D01*
G37*
D10*
X342900Y165100D03*
X317500Y165100D03*
X292100Y165100D03*
X266700Y165100D03*
X241300Y165100D03*
X215900Y165100D03*
X190500Y165100D03*
X165100Y165100D03*
X139700Y165100D03*
X114300Y165100D03*
X88900Y165100D03*
X63500Y165100D03*
X38100Y165100D03*
X12700Y165100D03*
X342900Y12700D03*
X317500Y12700D03*
X292100Y12700D03*
X266700Y12700D03*
X241300Y12700D03*
X215900Y12700D03*
X190500Y12700D03*
X165100Y12700D03*
X139700Y12700D03*
X114300Y12700D03*
X88900Y12700D03*
X63500Y12700D03*
X38100Y12700D03*
X12700Y12700D03*
X342900Y139700D03*
X342900Y114300D03*
X342900Y88900D03*
X342900Y63500D03*
X342900Y38100D03*
X139700Y139700D03*
X114300Y139700D03*
X88900Y139700D03*
X38100Y139700D03*
D11*
X393700Y59300D03*
X393700Y114300D03*
D12*
X50800Y50800D03*
D13*
X385200Y50800D01*
X393700Y59300D01*
D12*
X50800Y101600D03*
D13*
X381000Y101600D01*
X393700Y114300D01*
X47879Y156845D02*
X39624Y165100D01*
X38100Y165100D01*
X47879Y156845D02*
X47981Y156661D01*
D12*
X304800Y38100D03*
M02*
