M48
;GenerationSoftware,Autodesk,EAGLE,9.1.1*%
;CreationDate,2018-11-07T06:55:05Z*%
FMAT,2
ICI,OFF
METRIC,TZ,000.000
T3C0.350
T2C1.016
T1C1.600
%
G90
M71
T1
X39370Y11430
X39370Y5930
T2
X24130Y1270
X34290Y16510
X31750Y16510
X29210Y16510
X26670Y16510
X24130Y16510
X21590Y16510
X19050Y16510
X16510Y16510
X13970Y16510
X11430Y16510
X8890Y16510
X6350Y16510
X3810Y16510
X1270Y16510
X34290Y1270
X31750Y1270
X29210Y1270
X26670Y1270
X3810Y13970
X21590Y1270
X19050Y1270
X16510Y1270
X13970Y1270
X11430Y1270
X8890Y1270
X6350Y1270
X3810Y1270
X1270Y1270
X34290Y13970
X34290Y11430
X34290Y8890
X34290Y6350
X34290Y3810
X13970Y13970
X11430Y13970
X8890Y13970
T3
X30480Y3810
X5080Y10160
X5080Y5080
M30