G04 EAGLE Gerber RS-274X export*
G75*
%MOMM*%
%FSLAX34Y34*%
%LPD*%
%AMOC8*
5,1,8,0,0,1.08239X$1,22.5*%
G01*
%ADD10C,0.254000*%


D10*
X-1270Y8890D02*
X-1231Y8005D01*
X-1116Y7126D01*
X-924Y6260D01*
X-657Y5415D01*
X-318Y4596D01*
X91Y3810D01*
X567Y3062D01*
X1107Y2359D01*
X1706Y1706D01*
X2359Y1107D01*
X3062Y567D01*
X3810Y91D01*
X4596Y-318D01*
X5415Y-657D01*
X6260Y-924D01*
X7126Y-1116D01*
X8005Y-1231D01*
X8890Y-1270D01*
X421640Y-1270D01*
X422526Y-1231D01*
X423404Y-1116D01*
X424270Y-924D01*
X425115Y-657D01*
X425934Y-318D01*
X426720Y91D01*
X427468Y567D01*
X428171Y1107D01*
X428824Y1706D01*
X429423Y2359D01*
X429963Y3062D01*
X430439Y3810D01*
X430848Y4596D01*
X431187Y5415D01*
X431454Y6260D01*
X431646Y7126D01*
X431761Y8005D01*
X431800Y8890D01*
X431800Y168910D01*
X431761Y169796D01*
X431646Y170674D01*
X431454Y171540D01*
X431187Y172385D01*
X430848Y173204D01*
X430439Y173990D01*
X429963Y174738D01*
X429423Y175441D01*
X428824Y176094D01*
X428171Y176693D01*
X427468Y177233D01*
X426720Y177709D01*
X425934Y178118D01*
X425115Y178457D01*
X424270Y178724D01*
X423404Y178916D01*
X422526Y179031D01*
X421640Y179070D01*
X8890Y179070D01*
X8005Y179031D01*
X7126Y178916D01*
X6260Y178724D01*
X5415Y178457D01*
X4596Y178118D01*
X3810Y177709D01*
X3062Y177233D01*
X2359Y176693D01*
X1706Y176094D01*
X1107Y175441D01*
X567Y174738D01*
X91Y173990D01*
X-318Y173204D01*
X-657Y172385D01*
X-924Y171540D01*
X-1116Y170674D01*
X-1231Y169796D01*
X-1270Y168910D01*
X-1270Y8890D01*
M02*
