G04 EAGLE Gerber RS-274X export*
G75*
%MOMM*%
%FSLAX34Y34*%
%LPD*%
%AMOC8*
5,1,8,0,0,1.08239X$1,22.5*%
G01*
%ADD10C,0.152400*%
%ADD11C,0.127000*%
%ADD12C,0.203200*%
%ADD13C,0.025400*%
%ADD14C,0.120000*%
%ADD15C,0.076200*%
%ADD16C,0.050800*%
%ADD17C,0.101600*%

G36*
X139776Y46615D02*
X139776Y46615D01*
X139853Y46621D01*
X139883Y46635D01*
X139914Y46640D01*
X139981Y46681D01*
X140050Y46714D01*
X140073Y46737D01*
X140100Y46754D01*
X140148Y46816D01*
X140201Y46871D01*
X140214Y46901D01*
X140233Y46927D01*
X140256Y47001D01*
X140286Y47072D01*
X140290Y47118D01*
X140296Y47136D01*
X140294Y47155D01*
X140299Y47200D01*
X140299Y51700D01*
X140282Y51792D01*
X140270Y51884D01*
X140263Y51898D01*
X140260Y51914D01*
X140211Y51994D01*
X140167Y52076D01*
X140154Y52087D01*
X140146Y52100D01*
X140072Y52157D01*
X140001Y52218D01*
X139986Y52224D01*
X139973Y52233D01*
X139884Y52260D01*
X139796Y52292D01*
X139780Y52291D01*
X139764Y52296D01*
X139671Y52289D01*
X139578Y52287D01*
X139563Y52281D01*
X139547Y52279D01*
X139463Y52240D01*
X139376Y52204D01*
X139360Y52191D01*
X139350Y52186D01*
X139336Y52172D01*
X139276Y52124D01*
X134776Y47624D01*
X134724Y47547D01*
X134667Y47473D01*
X134662Y47458D01*
X134653Y47444D01*
X134631Y47353D01*
X134604Y47264D01*
X134605Y47248D01*
X134602Y47232D01*
X134614Y47140D01*
X134621Y47047D01*
X134628Y47032D01*
X134630Y47016D01*
X134674Y46934D01*
X134714Y46850D01*
X134726Y46838D01*
X134733Y46824D01*
X134804Y46763D01*
X134871Y46699D01*
X134886Y46693D01*
X134899Y46682D01*
X134986Y46651D01*
X135072Y46614D01*
X135094Y46612D01*
X135104Y46609D01*
X135124Y46609D01*
X135200Y46601D01*
X139700Y46601D01*
X139776Y46615D01*
G37*
D10*
X384168Y22352D02*
X382249Y22352D01*
X382163Y22354D01*
X382077Y22360D01*
X381991Y22369D01*
X381906Y22383D01*
X381822Y22400D01*
X381738Y22421D01*
X381656Y22446D01*
X381575Y22474D01*
X381495Y22506D01*
X381416Y22542D01*
X381340Y22581D01*
X381265Y22624D01*
X381192Y22669D01*
X381121Y22718D01*
X381053Y22771D01*
X380986Y22826D01*
X380923Y22884D01*
X380862Y22945D01*
X380804Y23008D01*
X380749Y23075D01*
X380696Y23143D01*
X380647Y23214D01*
X380602Y23287D01*
X380559Y23362D01*
X380520Y23438D01*
X380484Y23517D01*
X380452Y23597D01*
X380424Y23678D01*
X380399Y23760D01*
X380378Y23844D01*
X380361Y23928D01*
X380347Y24013D01*
X380338Y24099D01*
X380332Y24185D01*
X380330Y24271D01*
X380330Y29069D01*
X380332Y29155D01*
X380338Y29241D01*
X380347Y29327D01*
X380361Y29412D01*
X380378Y29496D01*
X380399Y29580D01*
X380424Y29662D01*
X380452Y29743D01*
X380484Y29823D01*
X380520Y29902D01*
X380559Y29978D01*
X380602Y30053D01*
X380647Y30126D01*
X380696Y30197D01*
X380749Y30265D01*
X380804Y30332D01*
X380862Y30395D01*
X380923Y30456D01*
X380986Y30514D01*
X381053Y30569D01*
X381121Y30621D01*
X381192Y30671D01*
X381265Y30716D01*
X381340Y30759D01*
X381416Y30798D01*
X381495Y30834D01*
X381575Y30866D01*
X381656Y30894D01*
X381738Y30919D01*
X381822Y30940D01*
X381906Y30957D01*
X381991Y30971D01*
X382077Y30980D01*
X382163Y30986D01*
X382249Y30988D01*
X384168Y30988D01*
X390387Y30988D02*
X387508Y22352D01*
X393265Y22352D02*
X390387Y30988D01*
X392546Y24511D02*
X388228Y24511D01*
X397437Y22352D02*
X397437Y30988D01*
X402234Y22352D01*
X402234Y30988D01*
X407190Y30988D02*
X407190Y22352D01*
X407190Y27150D02*
X411988Y27150D01*
X411988Y30988D02*
X411988Y22352D01*
X385102Y143002D02*
X383183Y143002D01*
X383097Y143004D01*
X383011Y143010D01*
X382925Y143019D01*
X382840Y143033D01*
X382756Y143050D01*
X382672Y143071D01*
X382590Y143096D01*
X382509Y143124D01*
X382429Y143156D01*
X382350Y143192D01*
X382274Y143231D01*
X382199Y143274D01*
X382126Y143319D01*
X382055Y143368D01*
X381987Y143421D01*
X381920Y143476D01*
X381857Y143534D01*
X381796Y143595D01*
X381738Y143658D01*
X381683Y143725D01*
X381630Y143793D01*
X381581Y143864D01*
X381536Y143937D01*
X381493Y144012D01*
X381454Y144088D01*
X381418Y144167D01*
X381386Y144247D01*
X381358Y144328D01*
X381333Y144410D01*
X381312Y144494D01*
X381295Y144578D01*
X381281Y144663D01*
X381272Y144749D01*
X381266Y144835D01*
X381264Y144921D01*
X381263Y144921D02*
X381263Y149719D01*
X381264Y149719D02*
X381266Y149805D01*
X381272Y149891D01*
X381281Y149977D01*
X381295Y150062D01*
X381312Y150146D01*
X381333Y150230D01*
X381358Y150312D01*
X381386Y150393D01*
X381418Y150473D01*
X381454Y150552D01*
X381493Y150628D01*
X381536Y150703D01*
X381581Y150776D01*
X381630Y150847D01*
X381683Y150915D01*
X381738Y150982D01*
X381796Y151045D01*
X381857Y151106D01*
X381920Y151164D01*
X381987Y151219D01*
X382055Y151271D01*
X382126Y151321D01*
X382199Y151366D01*
X382274Y151409D01*
X382350Y151448D01*
X382429Y151484D01*
X382509Y151516D01*
X382590Y151544D01*
X382672Y151569D01*
X382756Y151590D01*
X382840Y151607D01*
X382925Y151621D01*
X383011Y151630D01*
X383097Y151636D01*
X383183Y151638D01*
X385102Y151638D01*
X391320Y151638D02*
X388442Y143002D01*
X394199Y143002D02*
X391320Y151638D01*
X393479Y145161D02*
X389161Y145161D01*
X398370Y143002D02*
X398370Y151638D01*
X403168Y143002D01*
X403168Y151638D01*
X408150Y151638D02*
X408150Y143002D01*
X411988Y143002D01*
D11*
X360920Y86321D02*
X360920Y84981D01*
X360919Y86321D02*
X360921Y86392D01*
X360927Y86464D01*
X360936Y86534D01*
X360949Y86604D01*
X360966Y86674D01*
X360987Y86742D01*
X361011Y86809D01*
X361039Y86875D01*
X361070Y86939D01*
X361105Y87002D01*
X361143Y87062D01*
X361184Y87121D01*
X361228Y87177D01*
X361275Y87231D01*
X361324Y87282D01*
X361377Y87330D01*
X361432Y87376D01*
X361489Y87418D01*
X361549Y87458D01*
X361610Y87494D01*
X361674Y87527D01*
X361739Y87556D01*
X361805Y87582D01*
X361873Y87605D01*
X361942Y87624D01*
X362012Y87639D01*
X362082Y87650D01*
X362153Y87658D01*
X362224Y87662D01*
X362296Y87662D01*
X362367Y87658D01*
X362438Y87650D01*
X362508Y87639D01*
X362578Y87624D01*
X362647Y87605D01*
X362715Y87582D01*
X362781Y87556D01*
X362846Y87527D01*
X362910Y87494D01*
X362971Y87458D01*
X363031Y87418D01*
X363088Y87376D01*
X363143Y87330D01*
X363196Y87282D01*
X363245Y87231D01*
X363292Y87177D01*
X363336Y87121D01*
X363377Y87062D01*
X363415Y87002D01*
X363450Y86939D01*
X363481Y86875D01*
X363509Y86809D01*
X363533Y86742D01*
X363554Y86674D01*
X363571Y86604D01*
X363584Y86534D01*
X363593Y86464D01*
X363599Y86392D01*
X363601Y86321D01*
X363601Y84981D01*
X358775Y84981D01*
X358775Y86321D01*
X358777Y86386D01*
X358783Y86450D01*
X358793Y86514D01*
X358806Y86578D01*
X358824Y86640D01*
X358845Y86701D01*
X358869Y86761D01*
X358898Y86819D01*
X358930Y86876D01*
X358965Y86930D01*
X359003Y86982D01*
X359045Y87032D01*
X359089Y87079D01*
X359136Y87123D01*
X359186Y87165D01*
X359238Y87203D01*
X359292Y87238D01*
X359349Y87270D01*
X359407Y87299D01*
X359467Y87323D01*
X359528Y87344D01*
X359590Y87362D01*
X359654Y87375D01*
X359718Y87385D01*
X359782Y87391D01*
X359847Y87393D01*
X359912Y87391D01*
X359976Y87385D01*
X360040Y87375D01*
X360104Y87362D01*
X360166Y87344D01*
X360227Y87323D01*
X360287Y87299D01*
X360345Y87270D01*
X360402Y87238D01*
X360456Y87203D01*
X360508Y87165D01*
X360558Y87123D01*
X360605Y87079D01*
X360649Y87032D01*
X360691Y86982D01*
X360729Y86930D01*
X360764Y86876D01*
X360796Y86819D01*
X360825Y86761D01*
X360849Y86701D01*
X360870Y86640D01*
X360888Y86578D01*
X360901Y86514D01*
X360911Y86450D01*
X360917Y86386D01*
X360919Y86321D01*
X359847Y90138D02*
X358775Y91478D01*
X363601Y91478D01*
X363601Y90138D02*
X363601Y92819D01*
X355600Y177800D02*
X0Y177800D01*
X0Y0D02*
X355600Y0D01*
X355600Y177800D01*
X0Y177800D02*
X0Y0D01*
X360920Y84981D02*
X360920Y86321D01*
X360919Y86321D02*
X360921Y86392D01*
X360927Y86464D01*
X360936Y86534D01*
X360949Y86604D01*
X360966Y86674D01*
X360987Y86742D01*
X361011Y86809D01*
X361039Y86875D01*
X361070Y86939D01*
X361105Y87002D01*
X361143Y87062D01*
X361184Y87121D01*
X361228Y87177D01*
X361275Y87231D01*
X361324Y87282D01*
X361377Y87330D01*
X361432Y87376D01*
X361489Y87418D01*
X361549Y87458D01*
X361610Y87494D01*
X361674Y87527D01*
X361739Y87556D01*
X361805Y87582D01*
X361873Y87605D01*
X361942Y87624D01*
X362012Y87639D01*
X362082Y87650D01*
X362153Y87658D01*
X362224Y87662D01*
X362296Y87662D01*
X362367Y87658D01*
X362438Y87650D01*
X362508Y87639D01*
X362578Y87624D01*
X362647Y87605D01*
X362715Y87582D01*
X362781Y87556D01*
X362846Y87527D01*
X362910Y87494D01*
X362971Y87458D01*
X363031Y87418D01*
X363088Y87376D01*
X363143Y87330D01*
X363196Y87282D01*
X363245Y87231D01*
X363292Y87177D01*
X363336Y87121D01*
X363377Y87062D01*
X363415Y87002D01*
X363450Y86939D01*
X363481Y86875D01*
X363509Y86809D01*
X363533Y86742D01*
X363554Y86674D01*
X363571Y86604D01*
X363584Y86534D01*
X363593Y86464D01*
X363599Y86392D01*
X363601Y86321D01*
X363601Y84981D01*
X358775Y84981D01*
X358775Y86321D01*
X358777Y86386D01*
X358783Y86450D01*
X358793Y86514D01*
X358806Y86578D01*
X358824Y86640D01*
X358845Y86701D01*
X358869Y86761D01*
X358898Y86819D01*
X358930Y86876D01*
X358965Y86930D01*
X359003Y86982D01*
X359045Y87032D01*
X359089Y87079D01*
X359136Y87123D01*
X359186Y87165D01*
X359238Y87203D01*
X359292Y87238D01*
X359349Y87270D01*
X359407Y87299D01*
X359467Y87323D01*
X359528Y87344D01*
X359590Y87362D01*
X359654Y87375D01*
X359718Y87385D01*
X359782Y87391D01*
X359847Y87393D01*
X359912Y87391D01*
X359976Y87385D01*
X360040Y87375D01*
X360104Y87362D01*
X360166Y87344D01*
X360227Y87323D01*
X360287Y87299D01*
X360345Y87270D01*
X360402Y87238D01*
X360456Y87203D01*
X360508Y87165D01*
X360558Y87123D01*
X360605Y87079D01*
X360649Y87032D01*
X360691Y86982D01*
X360729Y86930D01*
X360764Y86876D01*
X360796Y86819D01*
X360825Y86761D01*
X360849Y86701D01*
X360870Y86640D01*
X360888Y86578D01*
X360901Y86514D01*
X360911Y86450D01*
X360917Y86386D01*
X360919Y86321D01*
X359847Y90138D02*
X358775Y91478D01*
X363601Y91478D01*
X363601Y90138D02*
X363601Y92819D01*
D12*
X152705Y76200D02*
X152095Y76200D01*
D13*
X144653Y69130D02*
X144653Y68284D01*
X144651Y68226D01*
X144645Y68169D01*
X144635Y68112D01*
X144622Y68055D01*
X144604Y68000D01*
X144583Y67947D01*
X144558Y67894D01*
X144530Y67844D01*
X144498Y67796D01*
X144463Y67749D01*
X144425Y67706D01*
X144384Y67665D01*
X144341Y67627D01*
X144294Y67592D01*
X144246Y67560D01*
X144196Y67532D01*
X144143Y67507D01*
X144090Y67486D01*
X144035Y67468D01*
X143978Y67455D01*
X143921Y67445D01*
X143864Y67439D01*
X143806Y67437D01*
X141690Y67437D01*
X141632Y67439D01*
X141575Y67445D01*
X141518Y67455D01*
X141461Y67468D01*
X141406Y67486D01*
X141353Y67507D01*
X141300Y67532D01*
X141250Y67560D01*
X141202Y67592D01*
X141155Y67627D01*
X141112Y67665D01*
X141071Y67706D01*
X141033Y67749D01*
X140998Y67796D01*
X140966Y67844D01*
X140938Y67894D01*
X140913Y67947D01*
X140892Y68000D01*
X140874Y68055D01*
X140861Y68112D01*
X140851Y68169D01*
X140845Y68226D01*
X140843Y68284D01*
X140843Y69130D01*
X141690Y70494D02*
X140843Y71553D01*
X144653Y71553D01*
X144653Y72611D02*
X144653Y70494D01*
X144653Y69130D02*
X144653Y68284D01*
X144651Y68226D01*
X144645Y68169D01*
X144635Y68112D01*
X144622Y68055D01*
X144604Y68000D01*
X144583Y67947D01*
X144558Y67894D01*
X144530Y67844D01*
X144498Y67796D01*
X144463Y67749D01*
X144425Y67706D01*
X144384Y67665D01*
X144341Y67627D01*
X144294Y67592D01*
X144246Y67560D01*
X144196Y67532D01*
X144143Y67507D01*
X144090Y67486D01*
X144035Y67468D01*
X143978Y67455D01*
X143921Y67445D01*
X143864Y67439D01*
X143806Y67437D01*
X141690Y67437D01*
X141632Y67439D01*
X141575Y67445D01*
X141518Y67455D01*
X141461Y67468D01*
X141406Y67486D01*
X141353Y67507D01*
X141300Y67532D01*
X141250Y67560D01*
X141202Y67592D01*
X141155Y67627D01*
X141112Y67665D01*
X141071Y67706D01*
X141033Y67749D01*
X140998Y67796D01*
X140966Y67844D01*
X140938Y67894D01*
X140913Y67947D01*
X140892Y68000D01*
X140874Y68055D01*
X140861Y68112D01*
X140851Y68169D01*
X140845Y68226D01*
X140843Y68284D01*
X140843Y69130D01*
X141690Y70494D02*
X140843Y71553D01*
X144653Y71553D01*
X144653Y72611D02*
X144653Y70494D01*
D14*
X139700Y47200D02*
X63500Y47200D01*
X63500Y105200D01*
X139700Y105200D01*
X139700Y47200D01*
D10*
X117784Y44438D02*
X117784Y35962D01*
X118725Y35962D02*
X116842Y35962D01*
X116842Y44438D02*
X118725Y44438D01*
X124475Y35962D02*
X126358Y35962D01*
X124475Y35962D02*
X124390Y35964D01*
X124306Y35970D01*
X124222Y35979D01*
X124139Y35992D01*
X124056Y36009D01*
X123974Y36030D01*
X123893Y36054D01*
X123813Y36082D01*
X123735Y36114D01*
X123658Y36149D01*
X123582Y36187D01*
X123509Y36229D01*
X123437Y36274D01*
X123368Y36322D01*
X123300Y36373D01*
X123235Y36427D01*
X123173Y36484D01*
X123113Y36544D01*
X123056Y36606D01*
X123002Y36671D01*
X122951Y36739D01*
X122903Y36808D01*
X122858Y36880D01*
X122816Y36953D01*
X122778Y37029D01*
X122743Y37106D01*
X122711Y37184D01*
X122683Y37264D01*
X122659Y37345D01*
X122638Y37427D01*
X122621Y37510D01*
X122608Y37593D01*
X122599Y37677D01*
X122593Y37761D01*
X122591Y37846D01*
X122591Y42554D01*
X122593Y42639D01*
X122599Y42723D01*
X122608Y42807D01*
X122621Y42890D01*
X122638Y42973D01*
X122659Y43055D01*
X122683Y43136D01*
X122711Y43216D01*
X122743Y43294D01*
X122778Y43371D01*
X122816Y43447D01*
X122858Y43520D01*
X122903Y43592D01*
X122951Y43661D01*
X123002Y43729D01*
X123056Y43794D01*
X123113Y43856D01*
X123173Y43916D01*
X123235Y43973D01*
X123300Y44027D01*
X123368Y44078D01*
X123437Y44126D01*
X123509Y44171D01*
X123582Y44213D01*
X123658Y44251D01*
X123735Y44286D01*
X123813Y44318D01*
X123893Y44346D01*
X123974Y44370D01*
X124056Y44391D01*
X124139Y44408D01*
X124222Y44421D01*
X124306Y44430D01*
X124390Y44436D01*
X124475Y44438D01*
X126358Y44438D01*
X130129Y42554D02*
X132484Y44438D01*
X132484Y35962D01*
X134838Y35962D02*
X130129Y35962D01*
D14*
X117500Y51200D02*
X117500Y101200D01*
X85700Y101200D01*
X85700Y51200D01*
X109600Y51200D02*
X117500Y51200D01*
X93600Y51200D02*
X85700Y51200D01*
X93600Y51200D02*
X93602Y51395D01*
X93609Y51590D01*
X93621Y51784D01*
X93638Y51978D01*
X93659Y52172D01*
X93685Y52365D01*
X93716Y52557D01*
X93751Y52749D01*
X93791Y52939D01*
X93836Y53129D01*
X93885Y53318D01*
X93939Y53505D01*
X93998Y53691D01*
X94060Y53875D01*
X94128Y54058D01*
X94200Y54239D01*
X94276Y54418D01*
X94356Y54596D01*
X94441Y54771D01*
X94530Y54944D01*
X94624Y55115D01*
X94721Y55284D01*
X94823Y55450D01*
X94928Y55614D01*
X95037Y55775D01*
X95151Y55934D01*
X95268Y56089D01*
X95389Y56242D01*
X95514Y56392D01*
X95642Y56539D01*
X95774Y56682D01*
X95909Y56822D01*
X96047Y56959D01*
X96189Y57093D01*
X96334Y57223D01*
X96483Y57349D01*
X96634Y57472D01*
X96788Y57591D01*
X96945Y57706D01*
X97105Y57818D01*
X97267Y57925D01*
X97432Y58029D01*
X97600Y58128D01*
X97770Y58224D01*
X97942Y58315D01*
X98116Y58402D01*
X98293Y58484D01*
X98471Y58563D01*
X98651Y58637D01*
X98833Y58706D01*
X99017Y58772D01*
X99202Y58832D01*
X99389Y58888D01*
X99577Y58940D01*
X99766Y58987D01*
X99956Y59029D01*
X100147Y59067D01*
X100339Y59100D01*
X100532Y59128D01*
X100725Y59152D01*
X100919Y59171D01*
X101113Y59185D01*
X101308Y59195D01*
X101503Y59199D01*
X101697Y59199D01*
X101892Y59195D01*
X102087Y59185D01*
X102281Y59171D01*
X102475Y59152D01*
X102668Y59128D01*
X102861Y59100D01*
X103053Y59067D01*
X103244Y59029D01*
X103434Y58987D01*
X103623Y58940D01*
X103811Y58888D01*
X103998Y58832D01*
X104183Y58772D01*
X104367Y58706D01*
X104549Y58637D01*
X104729Y58563D01*
X104907Y58484D01*
X105084Y58402D01*
X105258Y58315D01*
X105430Y58224D01*
X105600Y58128D01*
X105768Y58029D01*
X105933Y57925D01*
X106095Y57818D01*
X106255Y57706D01*
X106412Y57591D01*
X106566Y57472D01*
X106717Y57349D01*
X106866Y57223D01*
X107011Y57093D01*
X107153Y56959D01*
X107291Y56822D01*
X107426Y56682D01*
X107558Y56539D01*
X107686Y56392D01*
X107811Y56242D01*
X107932Y56089D01*
X108049Y55934D01*
X108163Y55775D01*
X108272Y55614D01*
X108377Y55450D01*
X108479Y55284D01*
X108576Y55115D01*
X108670Y54944D01*
X108759Y54771D01*
X108844Y54596D01*
X108924Y54418D01*
X109000Y54239D01*
X109072Y54058D01*
X109140Y53875D01*
X109202Y53691D01*
X109261Y53505D01*
X109315Y53318D01*
X109364Y53129D01*
X109409Y52939D01*
X109449Y52749D01*
X109484Y52557D01*
X109515Y52365D01*
X109541Y52172D01*
X109562Y51978D01*
X109579Y51784D01*
X109591Y51590D01*
X109598Y51395D01*
X109600Y51200D01*
D10*
X117784Y44438D02*
X117784Y35962D01*
X118725Y35962D02*
X116842Y35962D01*
X116842Y44438D02*
X118725Y44438D01*
X124475Y35962D02*
X126358Y35962D01*
X124475Y35962D02*
X124390Y35964D01*
X124306Y35970D01*
X124222Y35979D01*
X124139Y35992D01*
X124056Y36009D01*
X123974Y36030D01*
X123893Y36054D01*
X123813Y36082D01*
X123735Y36114D01*
X123658Y36149D01*
X123582Y36187D01*
X123509Y36229D01*
X123437Y36274D01*
X123368Y36322D01*
X123300Y36373D01*
X123235Y36427D01*
X123173Y36484D01*
X123113Y36544D01*
X123056Y36606D01*
X123002Y36671D01*
X122951Y36739D01*
X122903Y36808D01*
X122858Y36880D01*
X122816Y36953D01*
X122778Y37029D01*
X122743Y37106D01*
X122711Y37184D01*
X122683Y37264D01*
X122659Y37345D01*
X122638Y37427D01*
X122621Y37510D01*
X122608Y37593D01*
X122599Y37677D01*
X122593Y37761D01*
X122591Y37846D01*
X122591Y42554D01*
X122593Y42639D01*
X122599Y42723D01*
X122608Y42807D01*
X122621Y42890D01*
X122638Y42973D01*
X122659Y43055D01*
X122683Y43136D01*
X122711Y43216D01*
X122743Y43294D01*
X122778Y43371D01*
X122816Y43447D01*
X122858Y43520D01*
X122903Y43592D01*
X122951Y43661D01*
X123002Y43729D01*
X123056Y43794D01*
X123113Y43856D01*
X123173Y43916D01*
X123235Y43973D01*
X123300Y44027D01*
X123368Y44078D01*
X123437Y44126D01*
X123509Y44171D01*
X123582Y44213D01*
X123658Y44251D01*
X123735Y44286D01*
X123813Y44318D01*
X123893Y44346D01*
X123974Y44370D01*
X124056Y44391D01*
X124139Y44408D01*
X124222Y44421D01*
X124306Y44430D01*
X124390Y44436D01*
X124475Y44438D01*
X126358Y44438D01*
X130129Y42554D02*
X132484Y44438D01*
X132484Y35962D01*
X134838Y35962D02*
X130129Y35962D01*
D15*
X58420Y60960D02*
X58420Y91440D01*
X58420Y60960D02*
X43180Y60960D01*
X43180Y91440D01*
X58420Y91440D01*
D13*
X58547Y79210D02*
X62357Y79210D01*
X58547Y79210D02*
X58547Y80268D01*
X58549Y80332D01*
X58555Y80396D01*
X58564Y80459D01*
X58578Y80521D01*
X58595Y80583D01*
X58616Y80643D01*
X58640Y80702D01*
X58668Y80760D01*
X58700Y80815D01*
X58734Y80869D01*
X58772Y80920D01*
X58813Y80970D01*
X58857Y81016D01*
X58903Y81060D01*
X58953Y81101D01*
X59004Y81139D01*
X59058Y81173D01*
X59113Y81205D01*
X59171Y81233D01*
X59230Y81257D01*
X59290Y81278D01*
X59352Y81295D01*
X59414Y81309D01*
X59477Y81318D01*
X59541Y81324D01*
X59605Y81326D01*
X59669Y81324D01*
X59733Y81318D01*
X59796Y81309D01*
X59858Y81295D01*
X59920Y81278D01*
X59980Y81257D01*
X60039Y81233D01*
X60097Y81205D01*
X60152Y81173D01*
X60206Y81139D01*
X60257Y81101D01*
X60307Y81060D01*
X60353Y81016D01*
X60397Y80970D01*
X60438Y80920D01*
X60476Y80869D01*
X60510Y80815D01*
X60542Y80760D01*
X60570Y80702D01*
X60594Y80643D01*
X60615Y80583D01*
X60632Y80521D01*
X60646Y80459D01*
X60655Y80396D01*
X60661Y80332D01*
X60663Y80268D01*
X60664Y80268D02*
X60664Y79210D01*
X60664Y80480D02*
X62357Y81326D01*
X59394Y82846D02*
X58547Y83905D01*
X62357Y83905D01*
X62357Y84963D02*
X62357Y82846D01*
D10*
X28448Y71882D02*
X21844Y71882D01*
X21844Y73716D01*
X21846Y73801D01*
X21852Y73885D01*
X21862Y73969D01*
X21875Y74053D01*
X21893Y74136D01*
X21914Y74218D01*
X21939Y74299D01*
X21968Y74379D01*
X22000Y74457D01*
X22036Y74533D01*
X22076Y74608D01*
X22119Y74681D01*
X22165Y74752D01*
X22214Y74821D01*
X22267Y74888D01*
X22323Y74952D01*
X22381Y75013D01*
X22442Y75071D01*
X22506Y75127D01*
X22573Y75180D01*
X22642Y75229D01*
X22713Y75275D01*
X22786Y75318D01*
X22861Y75358D01*
X22937Y75394D01*
X23015Y75426D01*
X23095Y75455D01*
X23176Y75480D01*
X23258Y75501D01*
X23341Y75519D01*
X23425Y75532D01*
X23509Y75542D01*
X23593Y75548D01*
X23678Y75550D01*
X23763Y75548D01*
X23847Y75542D01*
X23931Y75532D01*
X24015Y75519D01*
X24098Y75501D01*
X24180Y75480D01*
X24261Y75455D01*
X24341Y75426D01*
X24419Y75394D01*
X24495Y75358D01*
X24570Y75318D01*
X24643Y75275D01*
X24714Y75229D01*
X24783Y75180D01*
X24850Y75127D01*
X24914Y75071D01*
X24975Y75013D01*
X25033Y74952D01*
X25089Y74888D01*
X25142Y74821D01*
X25191Y74752D01*
X25237Y74681D01*
X25280Y74608D01*
X25320Y74533D01*
X25356Y74457D01*
X25388Y74379D01*
X25417Y74299D01*
X25442Y74218D01*
X25463Y74136D01*
X25481Y74053D01*
X25494Y73969D01*
X25504Y73885D01*
X25510Y73801D01*
X25512Y73716D01*
X25513Y73716D02*
X25513Y71882D01*
X25513Y74083D02*
X28448Y75551D01*
X23312Y79118D02*
X21844Y80953D01*
X28448Y80953D01*
X28448Y82787D02*
X28448Y79118D01*
D11*
X420700Y38050D02*
X420700Y135550D01*
X366700Y135550D01*
X366700Y38050D01*
X420700Y38050D01*
D16*
X424434Y82136D02*
X428470Y82136D01*
X428547Y82138D01*
X428625Y82144D01*
X428701Y82153D01*
X428778Y82167D01*
X428853Y82184D01*
X428927Y82205D01*
X429001Y82230D01*
X429073Y82258D01*
X429143Y82290D01*
X429212Y82325D01*
X429279Y82364D01*
X429344Y82406D01*
X429407Y82451D01*
X429468Y82499D01*
X429526Y82550D01*
X429581Y82604D01*
X429634Y82661D01*
X429683Y82720D01*
X429730Y82782D01*
X429774Y82846D01*
X429814Y82912D01*
X429851Y82980D01*
X429885Y83050D01*
X429915Y83121D01*
X429941Y83194D01*
X429964Y83268D01*
X429983Y83343D01*
X429998Y83418D01*
X430010Y83495D01*
X430018Y83572D01*
X430022Y83649D01*
X430022Y83727D01*
X430018Y83804D01*
X430010Y83881D01*
X429998Y83958D01*
X429983Y84033D01*
X429964Y84108D01*
X429941Y84182D01*
X429915Y84255D01*
X429885Y84326D01*
X429851Y84396D01*
X429814Y84464D01*
X429774Y84530D01*
X429730Y84594D01*
X429683Y84656D01*
X429634Y84715D01*
X429581Y84772D01*
X429526Y84826D01*
X429468Y84877D01*
X429407Y84925D01*
X429344Y84970D01*
X429279Y85012D01*
X429212Y85051D01*
X429143Y85086D01*
X429073Y85118D01*
X429001Y85146D01*
X428927Y85171D01*
X428853Y85192D01*
X428778Y85209D01*
X428701Y85223D01*
X428625Y85232D01*
X428547Y85238D01*
X428470Y85240D01*
X424434Y85240D01*
X424434Y88991D02*
X430022Y88991D01*
X427228Y88991D02*
X426762Y88215D01*
X426729Y88164D01*
X426693Y88115D01*
X426654Y88069D01*
X426611Y88026D01*
X426567Y87985D01*
X426519Y87947D01*
X426469Y87913D01*
X426417Y87882D01*
X426363Y87854D01*
X426308Y87830D01*
X426250Y87809D01*
X426192Y87793D01*
X426133Y87780D01*
X426073Y87771D01*
X426013Y87766D01*
X425952Y87765D01*
X425891Y87768D01*
X425831Y87775D01*
X425771Y87786D01*
X425713Y87801D01*
X425655Y87819D01*
X425598Y87841D01*
X425544Y87867D01*
X425491Y87897D01*
X425440Y87930D01*
X425391Y87966D01*
X425345Y88005D01*
X425301Y88047D01*
X425260Y88092D01*
X425223Y88139D01*
X425188Y88189D01*
X425157Y88241D01*
X425129Y88295D01*
X425105Y88351D01*
X425085Y88408D01*
X425068Y88466D01*
X425055Y88525D01*
X425055Y88526D02*
X425039Y88623D01*
X425027Y88721D01*
X425020Y88819D01*
X425016Y88918D01*
X425015Y89016D01*
X425019Y89115D01*
X425027Y89213D01*
X425039Y89311D01*
X425055Y89408D01*
X425074Y89504D01*
X425098Y89600D01*
X425125Y89695D01*
X425156Y89788D01*
X425191Y89880D01*
X425229Y89971D01*
X425271Y90060D01*
X425316Y90148D01*
X425365Y90233D01*
X427228Y88991D02*
X427694Y89768D01*
X427694Y89767D02*
X427727Y89818D01*
X427763Y89867D01*
X427802Y89913D01*
X427845Y89956D01*
X427889Y89997D01*
X427937Y90035D01*
X427987Y90069D01*
X428039Y90100D01*
X428093Y90128D01*
X428148Y90152D01*
X428206Y90173D01*
X428264Y90189D01*
X428323Y90202D01*
X428383Y90211D01*
X428443Y90216D01*
X428504Y90217D01*
X428565Y90214D01*
X428625Y90207D01*
X428685Y90196D01*
X428743Y90181D01*
X428801Y90163D01*
X428858Y90141D01*
X428912Y90115D01*
X428965Y90085D01*
X429016Y90052D01*
X429065Y90016D01*
X429111Y89977D01*
X429155Y89935D01*
X429196Y89890D01*
X429233Y89843D01*
X429268Y89793D01*
X429299Y89741D01*
X429327Y89687D01*
X429351Y89631D01*
X429371Y89574D01*
X429388Y89516D01*
X429401Y89457D01*
X429417Y89360D01*
X429429Y89262D01*
X429436Y89164D01*
X429440Y89065D01*
X429441Y88967D01*
X429437Y88868D01*
X429429Y88770D01*
X429417Y88672D01*
X429401Y88575D01*
X429382Y88479D01*
X429358Y88383D01*
X429331Y88288D01*
X429300Y88195D01*
X429265Y88103D01*
X429227Y88012D01*
X429185Y87923D01*
X429140Y87835D01*
X429091Y87750D01*
X425676Y92560D02*
X424434Y94112D01*
X430022Y94112D01*
X430022Y92560D02*
X430022Y95664D01*
D17*
X402618Y86445D02*
X402618Y78655D01*
X398724Y82550D02*
X406513Y82550D01*
X389918Y90085D02*
X389918Y97875D01*
D16*
X424434Y82136D02*
X428470Y82136D01*
X428547Y82138D01*
X428625Y82144D01*
X428701Y82153D01*
X428778Y82167D01*
X428853Y82184D01*
X428927Y82205D01*
X429001Y82230D01*
X429073Y82258D01*
X429143Y82290D01*
X429212Y82325D01*
X429279Y82364D01*
X429344Y82406D01*
X429407Y82451D01*
X429468Y82499D01*
X429526Y82550D01*
X429581Y82604D01*
X429634Y82661D01*
X429683Y82720D01*
X429730Y82782D01*
X429774Y82846D01*
X429814Y82912D01*
X429851Y82980D01*
X429885Y83050D01*
X429915Y83121D01*
X429941Y83194D01*
X429964Y83268D01*
X429983Y83343D01*
X429998Y83418D01*
X430010Y83495D01*
X430018Y83572D01*
X430022Y83649D01*
X430022Y83727D01*
X430018Y83804D01*
X430010Y83881D01*
X429998Y83958D01*
X429983Y84033D01*
X429964Y84108D01*
X429941Y84182D01*
X429915Y84255D01*
X429885Y84326D01*
X429851Y84396D01*
X429814Y84464D01*
X429774Y84530D01*
X429730Y84594D01*
X429683Y84656D01*
X429634Y84715D01*
X429581Y84772D01*
X429526Y84826D01*
X429468Y84877D01*
X429407Y84925D01*
X429344Y84970D01*
X429279Y85012D01*
X429212Y85051D01*
X429143Y85086D01*
X429073Y85118D01*
X429001Y85146D01*
X428927Y85171D01*
X428853Y85192D01*
X428778Y85209D01*
X428701Y85223D01*
X428625Y85232D01*
X428547Y85238D01*
X428470Y85240D01*
X424434Y85240D01*
X424434Y88991D02*
X430022Y88991D01*
X427228Y88991D02*
X426762Y88215D01*
X426729Y88164D01*
X426693Y88115D01*
X426654Y88069D01*
X426611Y88026D01*
X426567Y87985D01*
X426519Y87947D01*
X426469Y87913D01*
X426417Y87882D01*
X426363Y87854D01*
X426308Y87830D01*
X426250Y87809D01*
X426192Y87793D01*
X426133Y87780D01*
X426073Y87771D01*
X426013Y87766D01*
X425952Y87765D01*
X425891Y87768D01*
X425831Y87775D01*
X425771Y87786D01*
X425713Y87801D01*
X425655Y87819D01*
X425598Y87841D01*
X425544Y87867D01*
X425491Y87897D01*
X425440Y87930D01*
X425391Y87966D01*
X425345Y88005D01*
X425301Y88047D01*
X425260Y88092D01*
X425223Y88139D01*
X425188Y88189D01*
X425157Y88241D01*
X425129Y88295D01*
X425105Y88351D01*
X425085Y88408D01*
X425068Y88466D01*
X425055Y88525D01*
X425055Y88526D02*
X425039Y88623D01*
X425027Y88721D01*
X425020Y88819D01*
X425016Y88918D01*
X425015Y89016D01*
X425019Y89115D01*
X425027Y89213D01*
X425039Y89311D01*
X425055Y89408D01*
X425074Y89504D01*
X425098Y89600D01*
X425125Y89695D01*
X425156Y89788D01*
X425191Y89880D01*
X425229Y89971D01*
X425271Y90060D01*
X425316Y90148D01*
X425365Y90233D01*
X427228Y88991D02*
X427694Y89768D01*
X427694Y89767D02*
X427727Y89818D01*
X427763Y89867D01*
X427802Y89913D01*
X427845Y89956D01*
X427889Y89997D01*
X427937Y90035D01*
X427987Y90069D01*
X428039Y90100D01*
X428093Y90128D01*
X428148Y90152D01*
X428206Y90173D01*
X428264Y90189D01*
X428323Y90202D01*
X428383Y90211D01*
X428443Y90216D01*
X428504Y90217D01*
X428565Y90214D01*
X428625Y90207D01*
X428685Y90196D01*
X428743Y90181D01*
X428801Y90163D01*
X428858Y90141D01*
X428912Y90115D01*
X428965Y90085D01*
X429016Y90052D01*
X429065Y90016D01*
X429111Y89977D01*
X429155Y89935D01*
X429196Y89890D01*
X429233Y89843D01*
X429268Y89793D01*
X429299Y89741D01*
X429327Y89687D01*
X429351Y89631D01*
X429371Y89574D01*
X429388Y89516D01*
X429401Y89457D01*
X429417Y89360D01*
X429429Y89262D01*
X429436Y89164D01*
X429440Y89065D01*
X429441Y88967D01*
X429437Y88868D01*
X429429Y88770D01*
X429417Y88672D01*
X429401Y88575D01*
X429382Y88479D01*
X429358Y88383D01*
X429331Y88288D01*
X429300Y88195D01*
X429265Y88103D01*
X429227Y88012D01*
X429185Y87923D01*
X429140Y87835D01*
X429091Y87750D01*
X425676Y92560D02*
X424434Y94112D01*
X430022Y94112D01*
X430022Y92560D02*
X430022Y95664D01*
M02*
