G04 EAGLE Gerber RS-274X export*
G75*
%MOMM*%
%FSLAX34Y34*%
%LPD*%
%AMOC8*
5,1,8,0,0,1.08239X$1,22.5*%
G01*
%ADD10C,2.006600*%
%ADD11R,1.127000X1.227000*%
%ADD12R,1.827000X0.827000*%
%ADD13C,2.527000*%

G36*
X206253Y63376D02*
X206253Y63376D01*
X206258Y63374D01*
X208106Y63520D01*
X261787Y63917D01*
X261788Y63917D01*
X261789Y63915D01*
X261874Y63882D01*
X272542Y63882D01*
X272552Y63886D01*
X272562Y63883D01*
X272605Y63909D01*
X272633Y63920D01*
X272635Y63926D01*
X272641Y63929D01*
X310233Y110919D01*
X310244Y110961D01*
X310260Y111002D01*
X310258Y111008D01*
X310259Y111014D01*
X310237Y111052D01*
X310219Y111091D01*
X310213Y111094D01*
X310210Y111099D01*
X310181Y111106D01*
X310134Y111124D01*
X297688Y111124D01*
X297676Y111119D01*
X297664Y111122D01*
X297625Y111098D01*
X297597Y111086D01*
X297594Y111078D01*
X297587Y111073D01*
X270382Y74549D01*
X270385Y110998D01*
X270384Y111000D01*
X270385Y111002D01*
X270365Y111045D01*
X270347Y111089D01*
X270345Y111089D01*
X270344Y111091D01*
X270259Y111124D01*
X261934Y111124D01*
X261934Y111131D01*
X261930Y111136D01*
X261929Y111135D01*
X261929Y111136D01*
X259510Y111133D01*
X259479Y111133D01*
X254579Y111128D01*
X254548Y111128D01*
X249648Y111123D01*
X249617Y111123D01*
X244717Y111118D01*
X244686Y111118D01*
X239786Y111113D01*
X239755Y111113D01*
X234855Y111108D01*
X234824Y111108D01*
X229924Y111103D01*
X229893Y111103D01*
X224993Y111098D01*
X224962Y111098D01*
X224961Y111098D01*
X220061Y111093D01*
X220030Y111093D01*
X215130Y111088D01*
X215099Y111088D01*
X210199Y111083D01*
X210168Y111083D01*
X205268Y111078D01*
X205237Y111078D01*
X200337Y111073D01*
X200306Y111073D01*
X195406Y111069D01*
X195375Y111069D01*
X195375Y111068D01*
X190475Y111064D01*
X190444Y111064D01*
X190289Y111063D01*
X190284Y111059D01*
X190284Y111058D01*
X190374Y108891D01*
X190374Y63500D01*
X190375Y63498D01*
X190374Y63496D01*
X190394Y63453D01*
X190412Y63409D01*
X190414Y63409D01*
X190415Y63407D01*
X190500Y63374D01*
X206248Y63374D01*
X206253Y63376D01*
G37*
%LPC*%
G36*
X216767Y66016D02*
X216767Y66016D01*
X219452Y67661D01*
X219458Y67669D01*
X219468Y67673D01*
X222135Y69951D01*
X222140Y69960D01*
X222149Y69965D01*
X224427Y72632D01*
X224430Y72641D01*
X224439Y72648D01*
X226271Y75638D01*
X226273Y75648D01*
X226280Y75656D01*
X227623Y78897D01*
X227623Y78906D01*
X227629Y78915D01*
X228448Y82326D01*
X228446Y82336D01*
X228451Y82345D01*
X228726Y85842D01*
X228724Y85847D01*
X228726Y85850D01*
X228726Y85852D01*
X228726Y90424D01*
X228724Y90429D01*
X228726Y90434D01*
X228476Y93613D01*
X228471Y93621D01*
X228473Y93632D01*
X227728Y96733D01*
X227722Y96741D01*
X227722Y96752D01*
X226502Y99697D01*
X226495Y99704D01*
X226493Y99715D01*
X224827Y102434D01*
X224819Y102440D01*
X224815Y102450D01*
X222744Y104874D01*
X222741Y104876D01*
X222741Y104877D01*
X222735Y104879D01*
X222730Y104888D01*
X220306Y106959D01*
X220296Y106962D01*
X220290Y106971D01*
X217571Y108637D01*
X217561Y108638D01*
X217553Y108646D01*
X217497Y108669D01*
X261494Y108743D01*
X261494Y101980D01*
X238252Y101980D01*
X238250Y101979D01*
X238248Y101980D01*
X238205Y101960D01*
X238161Y101942D01*
X238161Y101940D01*
X238159Y101939D01*
X238126Y101854D01*
X238126Y93726D01*
X238127Y93724D01*
X238126Y93722D01*
X238146Y93679D01*
X238164Y93635D01*
X238166Y93635D01*
X238167Y93633D01*
X238252Y93600D01*
X251588Y93600D01*
X251588Y84454D01*
X238252Y84454D01*
X238250Y84453D01*
X238248Y84454D01*
X238205Y84434D01*
X238161Y84416D01*
X238161Y84414D01*
X238159Y84413D01*
X238126Y84328D01*
X238126Y73152D01*
X238127Y73150D01*
X238126Y73148D01*
X238146Y73105D01*
X238164Y73061D01*
X238166Y73061D01*
X238167Y73059D01*
X238252Y73026D01*
X261748Y73026D01*
X261748Y66016D01*
X216767Y66016D01*
G37*
%LPD*%
%LPC*%
G36*
X199770Y72770D02*
X199770Y72770D01*
X199770Y101728D01*
X206750Y101728D01*
X208895Y101540D01*
X210970Y100984D01*
X212916Y100077D01*
X214675Y98845D01*
X216193Y97327D01*
X217425Y95568D01*
X218332Y93622D01*
X218888Y91547D01*
X219076Y89402D01*
X219076Y84842D01*
X218892Y82741D01*
X218348Y80710D01*
X217459Y78803D01*
X216253Y77081D01*
X214765Y75593D01*
X213043Y74387D01*
X211136Y73498D01*
X209105Y72954D01*
X207004Y72770D01*
X199770Y72770D01*
G37*
%LPD*%
D10*
X342900Y165100D03*
X317500Y165100D03*
X292100Y165100D03*
X266700Y165100D03*
X241300Y165100D03*
X215900Y165100D03*
X190500Y165100D03*
X165100Y165100D03*
X139700Y165100D03*
X114300Y165100D03*
X88900Y165100D03*
X63500Y165100D03*
X38100Y165100D03*
X12700Y165100D03*
X342900Y12700D03*
X317500Y12700D03*
X292100Y12700D03*
X266700Y12700D03*
X241300Y12700D03*
X215900Y12700D03*
X190500Y12700D03*
X165100Y12700D03*
X139700Y12700D03*
X114300Y12700D03*
X88900Y12700D03*
X63500Y12700D03*
X38100Y12700D03*
X12700Y12700D03*
X342900Y139700D03*
X342900Y114300D03*
X342900Y88900D03*
X342900Y63500D03*
X342900Y38100D03*
X139700Y139700D03*
X114300Y139700D03*
X88900Y139700D03*
X38100Y139700D03*
D11*
X152400Y67700D03*
X152400Y84700D03*
D12*
X128600Y57150D03*
X128600Y69850D03*
X128600Y82550D03*
X128600Y95250D03*
X74600Y95250D03*
X74600Y82550D03*
X74600Y69850D03*
X74600Y57150D03*
D11*
X50800Y84700D03*
X50800Y67700D03*
D13*
X393700Y59300D03*
X393700Y114300D03*
M02*
