M48
;GenerationSoftware,Autodesk,EAGLE,9.1.1*%
;CreationDate,2019-05-04T06:02:11Z*%
FMAT,2
ICI,OFF
METRIC,TZ,000.000
T11C0.350
T10C0.600
T9C0.743
T8C0.900
T7C0.965
T6C0.991
T5C1.000
T4C1.016
T3C1.600
T2C1.750
T1C3.500
%
G90
M71
T1
X88000Y73000
X88000Y20780
X3000Y20780
X3000Y73000
T2
X54400Y57000
X51000Y57000
X54400Y43530
X51000Y43530
T3
X76454Y72898
X70954Y72898
X87745Y28700
X82245Y28700
X87745Y32900
X82245Y32900
X87745Y37100
X82245Y37100
X87745Y41300
X82245Y41300
X82000Y59000
X82000Y64500
X88254Y59000
X88254Y64500
X82300Y52324
X82300Y48124
X87800Y52324
X87800Y48124
T4
X57785Y40640
X75668Y43397
X75668Y40603
X70448Y41362
X67908Y41362
X65368Y41362
X60579Y40640
X27796Y34218
X27796Y31424
X7050Y21789
X9844Y21789
X13771Y25241
X13771Y28035
X27813Y25400
X27813Y28194
X13796Y34218
X13796Y31424
X41402Y33655
X41402Y30861
X74524Y67492
X69444Y67492
X71984Y67492
T5
X60000Y59080
X60000Y48920
T6
X66380Y53238
X66380Y50698
X74000Y50698
X74000Y53238
X66380Y55778
X74000Y55778
X74000Y58318
X66380Y58318
T7
X62550Y35980
X65090Y35980
X67630Y35980
X70170Y35980
X72710Y35980
X75250Y35980
X77790Y35980
X77790Y33440
X77790Y30900
X77790Y28360
X77790Y25820
X60010Y35980
X77790Y20740
X75250Y20740
X72710Y20740
X70170Y20740
X67630Y20740
X65090Y20740
X62550Y20740
X60010Y20740
X57470Y20740
X54930Y20740
X52390Y20740
X49850Y20740
X47310Y20740
X44770Y20740
X57470Y35980
X54930Y35980
X52390Y35980
X49850Y35980
X47310Y35980
X44770Y35980
X60010Y28360
X62550Y28360
X47310Y33440
X52390Y33440
X54930Y33440
X57470Y33440
X75250Y28360
X75250Y30900
X72710Y28360
X77790Y23280
X60010Y30900
X62550Y30900
X65090Y30900
X70170Y28360
X67630Y28360
X65090Y28360
X72710Y30900
X67630Y30900
X70170Y30900
T8
X25195Y42662
X25195Y47662
X38276Y42708
X11987Y42743
X11987Y47743
X38276Y47708
T9
X30986Y31075
X30986Y33615
X38606Y33615
X38606Y31075
X38606Y28535
X38606Y25995
X30986Y28535
X30986Y25995
X16986Y25995
X16986Y28535
X16986Y31075
X16986Y33615
X24606Y33615
X24606Y31075
X24606Y28535
X24606Y25995
X2986Y25995
X2986Y28535
X2986Y31075
X2986Y33615
X10606Y33615
X10606Y31075
X10606Y28535
X10606Y25995
T10
X60500Y65000
X60500Y67540
X60500Y70080
X60500Y72620
X63040Y72620
X63040Y70080
X63040Y67540
X63040Y65000
X61770Y65000
X61770Y67540
X61770Y70080
X61770Y72620
X64310Y72620
X64310Y70080
X64310Y67540
X64310Y65000
X63040Y66270
X60500Y66270
X61770Y66270
X64310Y66270
X64310Y68810
X64310Y71350
X61770Y71350
X61770Y68810
X63040Y68810
X63040Y71350
X60500Y71350
X60500Y68810
X59230Y72620
X59230Y71350
X59230Y70080
X59230Y68810
X59230Y67540
X59230Y66270
X59230Y65000
X69390Y59920
X71930Y59920
X77010Y62460
X69390Y57380
X64818Y49760
X64818Y52046
X65072Y54840
X65072Y56618
X71422Y53062
X84884Y55094
X35100Y42140
X30020Y42140
X22400Y42140
X14780Y42140
X17320Y42140
X19860Y42140
X27480Y42140
X32560Y42140
X37640Y39600
X40180Y39600
X87424Y55094
X82344Y55094
X84884Y67794
X82344Y67794
X87424Y67794
X84884Y52554
X76248Y51792
X84884Y50014
X86154Y55094
X83614Y55094
X81074Y55094
X80058Y54078
X79042Y53062
X88694Y55094
X88694Y56364
X86154Y56364
X83614Y56364
X82344Y56364
X84884Y56364
X87424Y56364
X40180Y37060
X37640Y37060
X35100Y39600
X32560Y40616
X30020Y40616
X27480Y40616
X24940Y40616
X22400Y40616
X19860Y40616
X17320Y40616
X14780Y40616
X12240Y40616
X9700Y42140
X44244Y30456
X45768Y31726
X45260Y34012
X51864Y24614
X50086Y23852
X53642Y24868
X47292Y23852
T11
X15367Y64135
X16637Y69215
X14097Y69215
X11557Y69215
X11557Y66675
X14097Y66675
X16637Y66675
X11557Y64135
X14097Y64135
X16637Y64135
X14097Y65405
X11557Y65405
X14097Y67945
X11557Y67945
X11557Y70485
X14097Y70485
X16637Y70485
X16637Y67945
X16637Y65405
X15367Y65405
X12827Y67945
X12827Y65405
X10287Y65405
X10287Y67945
X10287Y70485
X12827Y70485
X15367Y70485
X17907Y70485
X15367Y67945
X17907Y67945
X9017Y70485
X9017Y69215
X9017Y67945
X9017Y66675
X9017Y65405
X9017Y64135
X9017Y62865
X10287Y62865
X11557Y62865
X12827Y62865
X14097Y62865
X15367Y62865
X16637Y62865
X5334Y30607
X8001Y30607
X72986Y26213
X65315Y26213
X69240Y26213
X71120Y49276
X19177Y64516
X32766Y64516
X46990Y64643
X49823Y27940
X47117Y39672
X62357Y48514
X72136Y41286
X70896Y34066
X69669Y33118
X67694Y33170
X69540Y39164
X68815Y37798
X68707Y39243
X69723Y37798
X29083Y18923
X67310Y39243
X66451Y39213
X62103Y46736
X61722Y44958
X50927Y31369
X44577Y66675
X44577Y69215
X43307Y66675
X45847Y66675
X45847Y69215
X43307Y69215
X42037Y67945
X39497Y67945
X42037Y70485
X39497Y70485
X40767Y67945
X40767Y70485
X40767Y66675
X40767Y69215
X39497Y66675
X42037Y66675
X42037Y69215
X39497Y69215
X38227Y67945
X38227Y70485
X38227Y66675
X38227Y69215
X12827Y64135
X10287Y64135
X10287Y66675
X12827Y66675
X15367Y66675
X17907Y66675
X17907Y69215
X44704Y32512
X15367Y69215
X12827Y69215
X10287Y69215
X6096Y29972
X22987Y62865
X44577Y70485
X29337Y62865
X26797Y62865
X25527Y62865
X28067Y62865
X24257Y62865
X22987Y65405
X30607Y65405
X29337Y65405
X26797Y65405
X25527Y65405
X28067Y65405
X24257Y65405
X30607Y64135
X29337Y64135
X28067Y64135
X26797Y64135
X25527Y64135
X24257Y64135
X22987Y64135
X22987Y66675
X22987Y67945
X22987Y69215
X22987Y70485
X31877Y67945
X29337Y67945
X31877Y70485
X29337Y70485
X30607Y67945
X30607Y70485
X30607Y66675
X30607Y69215
X29337Y66675
X31877Y66675
X31877Y69215
X29337Y69215
X28067Y67945
X25527Y67945
X28067Y70485
X25527Y70485
X26797Y67945
X26797Y70485
X26797Y66675
X26797Y69215
X25527Y66675
X28067Y66675
X28067Y69215
X25527Y69215
X24257Y67945
X24257Y70485
X24257Y66675
X24257Y69215
X36957Y62865
X36957Y64135
X36957Y65405
X43307Y64135
X44577Y64135
X44577Y62865
X44577Y65405
X43307Y62865
X43307Y65405
X42037Y64135
X39497Y64135
X40767Y64135
X40767Y62865
X40767Y65405
X39497Y62865
X42037Y62865
X42037Y65405
X39497Y65405
X38227Y64135
X38227Y62865
X38227Y65405
X36957Y66675
X36957Y67945
X36957Y69215
X36957Y70485
X45847Y67945
X43307Y67945
X45847Y70485
X43307Y70485
X44577Y67945
X20574Y25908
X21590Y25019
X16129Y23876
X17399Y24130
X18669Y24384
X19431Y23622
X34417Y24384
X35560Y24384
X34417Y25400
X35560Y25400
X29337Y23495
X30353Y22606
X21209Y20955
X19304Y20955
X21590Y25908
X30353Y23495
X20193Y20955
X51523Y27940
X69139Y24574
X65242Y24608
X72949Y24574
X30607Y62865
M30