G04 EAGLE Gerber RS-274X export*
G75*
%MOMM*%
%FSLAX34Y34*%
%LPD*%
%AMOC8*
5,1,8,0,0,1.08239X$1,22.5*%
G01*
%ADD10C,0.203200*%
%ADD11C,0.152400*%
%ADD12C,0.127000*%
%ADD13C,0.025400*%
%ADD14C,0.076200*%


D10*
X365164Y548053D02*
X362201Y548053D01*
X362201Y548052D02*
X362094Y548050D01*
X361987Y548044D01*
X361881Y548035D01*
X361775Y548021D01*
X361669Y548004D01*
X361564Y547983D01*
X361460Y547958D01*
X361357Y547929D01*
X361255Y547897D01*
X361154Y547861D01*
X361055Y547821D01*
X360957Y547778D01*
X360861Y547731D01*
X360766Y547681D01*
X360673Y547628D01*
X360583Y547571D01*
X360494Y547511D01*
X360408Y547448D01*
X360324Y547382D01*
X360242Y547312D01*
X360163Y547240D01*
X360087Y547165D01*
X360013Y547087D01*
X359943Y547007D01*
X359875Y546924D01*
X359810Y546839D01*
X359749Y546752D01*
X359690Y546662D01*
X359635Y546571D01*
X359583Y546477D01*
X359535Y546381D01*
X359490Y546284D01*
X359448Y546186D01*
X359411Y546086D01*
X359376Y545984D01*
X359346Y545882D01*
X359319Y545778D01*
X359296Y545674D01*
X359277Y545568D01*
X359262Y545462D01*
X359250Y545356D01*
X359242Y545249D01*
X359238Y545142D01*
X359238Y545036D01*
X359242Y544929D01*
X359250Y544822D01*
X359262Y544716D01*
X359277Y544610D01*
X359296Y544504D01*
X359319Y544400D01*
X359346Y544296D01*
X359376Y544194D01*
X359411Y544092D01*
X359448Y543992D01*
X359490Y543894D01*
X359535Y543797D01*
X359583Y543701D01*
X359635Y543608D01*
X359690Y543516D01*
X359749Y543426D01*
X359810Y543339D01*
X359875Y543254D01*
X359943Y543171D01*
X360013Y543091D01*
X360087Y543013D01*
X360163Y542938D01*
X360242Y542866D01*
X360324Y542796D01*
X360408Y542730D01*
X360494Y542667D01*
X360583Y542607D01*
X360673Y542550D01*
X360766Y542497D01*
X360861Y542447D01*
X360957Y542400D01*
X361055Y542357D01*
X361154Y542317D01*
X361255Y542281D01*
X361357Y542249D01*
X361460Y542220D01*
X361564Y542195D01*
X361669Y542174D01*
X361775Y542157D01*
X361881Y542143D01*
X361987Y542134D01*
X362094Y542128D01*
X362201Y542126D01*
X365164Y542126D01*
X365164Y552794D01*
X362201Y552794D01*
X362104Y552792D01*
X362008Y552786D01*
X361912Y552776D01*
X361816Y552762D01*
X361721Y552745D01*
X361626Y552723D01*
X361533Y552698D01*
X361441Y552669D01*
X361350Y552636D01*
X361260Y552599D01*
X361172Y552559D01*
X361086Y552515D01*
X361002Y552468D01*
X360919Y552418D01*
X360839Y552364D01*
X360761Y552306D01*
X360685Y552246D01*
X360612Y552183D01*
X360542Y552117D01*
X360474Y552047D01*
X360409Y551976D01*
X360347Y551901D01*
X360289Y551824D01*
X360233Y551745D01*
X360181Y551664D01*
X360132Y551580D01*
X360086Y551495D01*
X360044Y551408D01*
X360006Y551319D01*
X359971Y551229D01*
X359940Y551137D01*
X359913Y551044D01*
X359889Y550951D01*
X359870Y550856D01*
X359854Y550760D01*
X359842Y550664D01*
X359834Y550568D01*
X359830Y550471D01*
X359830Y550375D01*
X359834Y550278D01*
X359842Y550182D01*
X359854Y550086D01*
X359870Y549990D01*
X359889Y549895D01*
X359913Y549802D01*
X359940Y549709D01*
X359971Y549617D01*
X360006Y549527D01*
X360044Y549438D01*
X360086Y549351D01*
X360132Y549266D01*
X360181Y549182D01*
X360233Y549101D01*
X360289Y549022D01*
X360347Y548945D01*
X360409Y548870D01*
X360474Y548799D01*
X360542Y548729D01*
X360612Y548663D01*
X360685Y548600D01*
X360761Y548540D01*
X360839Y548482D01*
X360919Y548428D01*
X361002Y548378D01*
X361086Y548331D01*
X361172Y548287D01*
X361260Y548247D01*
X361350Y548210D01*
X361441Y548177D01*
X361533Y548148D01*
X361626Y548123D01*
X361721Y548101D01*
X361816Y548084D01*
X361912Y548070D01*
X362008Y548060D01*
X362104Y548054D01*
X362201Y548052D01*
X353954Y552794D02*
X353954Y542126D01*
X349213Y542126D01*
X344082Y542126D02*
X344082Y552794D01*
X341119Y552794D01*
X341011Y552792D01*
X340903Y552786D01*
X340795Y552776D01*
X340688Y552762D01*
X340581Y552745D01*
X340475Y552723D01*
X340370Y552698D01*
X340265Y552668D01*
X340162Y552635D01*
X340061Y552598D01*
X339960Y552558D01*
X339861Y552514D01*
X339764Y552466D01*
X339669Y552415D01*
X339575Y552360D01*
X339484Y552302D01*
X339395Y552241D01*
X339308Y552176D01*
X339224Y552109D01*
X339142Y552038D01*
X339062Y551964D01*
X338986Y551888D01*
X338912Y551808D01*
X338842Y551726D01*
X338774Y551642D01*
X338709Y551555D01*
X338648Y551466D01*
X338590Y551375D01*
X338535Y551281D01*
X338484Y551186D01*
X338436Y551089D01*
X338392Y550990D01*
X338352Y550889D01*
X338315Y550788D01*
X338282Y550685D01*
X338252Y550580D01*
X338227Y550475D01*
X338205Y550369D01*
X338188Y550262D01*
X338174Y550155D01*
X338164Y550047D01*
X338158Y549939D01*
X338156Y549831D01*
X338155Y549831D02*
X338155Y545089D01*
X338156Y545089D02*
X338158Y544983D01*
X338164Y544878D01*
X338173Y544772D01*
X338186Y544667D01*
X338203Y544563D01*
X338224Y544459D01*
X338248Y544356D01*
X338276Y544254D01*
X338308Y544153D01*
X338343Y544054D01*
X338382Y543955D01*
X338424Y543858D01*
X338469Y543763D01*
X338518Y543669D01*
X338571Y543577D01*
X338626Y543487D01*
X338685Y543399D01*
X338747Y543313D01*
X338812Y543230D01*
X338880Y543149D01*
X338950Y543070D01*
X339024Y542994D01*
X339100Y542920D01*
X339179Y542850D01*
X339260Y542782D01*
X339343Y542717D01*
X339429Y542655D01*
X339517Y542596D01*
X339607Y542541D01*
X339699Y542488D01*
X339793Y542439D01*
X339888Y542394D01*
X339985Y542352D01*
X340084Y542313D01*
X340183Y542278D01*
X340284Y542246D01*
X340386Y542218D01*
X340489Y542194D01*
X340593Y542173D01*
X340697Y542156D01*
X340802Y542143D01*
X340908Y542134D01*
X341013Y542128D01*
X341119Y542126D01*
X344082Y542126D01*
X329950Y542126D02*
X327580Y542126D01*
X329950Y542126D02*
X330045Y542128D01*
X330141Y542134D01*
X330236Y542143D01*
X330330Y542157D01*
X330424Y542174D01*
X330517Y542195D01*
X330610Y542220D01*
X330701Y542248D01*
X330791Y542280D01*
X330879Y542316D01*
X330966Y542355D01*
X331052Y542398D01*
X331136Y542444D01*
X331217Y542493D01*
X331297Y542546D01*
X331374Y542602D01*
X331450Y542660D01*
X331522Y542722D01*
X331592Y542787D01*
X331660Y542855D01*
X331725Y542925D01*
X331787Y542997D01*
X331845Y543073D01*
X331901Y543150D01*
X331954Y543230D01*
X332003Y543312D01*
X332049Y543395D01*
X332092Y543481D01*
X332131Y543568D01*
X332167Y543656D01*
X332199Y543746D01*
X332227Y543837D01*
X332252Y543930D01*
X332273Y544023D01*
X332290Y544117D01*
X332304Y544211D01*
X332313Y544306D01*
X332319Y544402D01*
X332321Y544497D01*
X332321Y550423D01*
X332319Y550518D01*
X332313Y550614D01*
X332304Y550709D01*
X332290Y550803D01*
X332273Y550897D01*
X332252Y550990D01*
X332227Y551083D01*
X332199Y551174D01*
X332167Y551264D01*
X332131Y551352D01*
X332092Y551439D01*
X332049Y551525D01*
X332003Y551608D01*
X331954Y551690D01*
X331901Y551770D01*
X331845Y551847D01*
X331787Y551923D01*
X331725Y551995D01*
X331660Y552065D01*
X331592Y552133D01*
X331522Y552198D01*
X331450Y552260D01*
X331374Y552318D01*
X331297Y552374D01*
X331217Y552427D01*
X331136Y552476D01*
X331052Y552522D01*
X330966Y552565D01*
X330879Y552604D01*
X330791Y552640D01*
X330701Y552672D01*
X330610Y552700D01*
X330517Y552725D01*
X330424Y552746D01*
X330330Y552763D01*
X330236Y552777D01*
X330141Y552786D01*
X330046Y552792D01*
X329950Y552794D01*
X327580Y552794D01*
X314329Y542126D02*
X311959Y542126D01*
X314329Y542126D02*
X314424Y542128D01*
X314520Y542134D01*
X314615Y542143D01*
X314709Y542157D01*
X314803Y542174D01*
X314896Y542195D01*
X314989Y542220D01*
X315080Y542248D01*
X315170Y542280D01*
X315258Y542316D01*
X315345Y542355D01*
X315431Y542398D01*
X315515Y542444D01*
X315596Y542493D01*
X315676Y542546D01*
X315753Y542602D01*
X315829Y542660D01*
X315901Y542722D01*
X315971Y542787D01*
X316039Y542855D01*
X316104Y542925D01*
X316166Y542997D01*
X316224Y543073D01*
X316280Y543150D01*
X316333Y543230D01*
X316382Y543312D01*
X316428Y543395D01*
X316471Y543481D01*
X316510Y543568D01*
X316546Y543656D01*
X316578Y543746D01*
X316606Y543837D01*
X316631Y543930D01*
X316652Y544023D01*
X316669Y544117D01*
X316683Y544211D01*
X316692Y544306D01*
X316698Y544402D01*
X316700Y544497D01*
X316700Y550423D01*
X316698Y550518D01*
X316692Y550614D01*
X316683Y550709D01*
X316669Y550803D01*
X316652Y550897D01*
X316631Y550990D01*
X316606Y551083D01*
X316578Y551174D01*
X316546Y551264D01*
X316510Y551352D01*
X316471Y551439D01*
X316428Y551525D01*
X316382Y551608D01*
X316333Y551690D01*
X316280Y551770D01*
X316224Y551847D01*
X316166Y551923D01*
X316104Y551995D01*
X316039Y552065D01*
X315971Y552133D01*
X315901Y552198D01*
X315829Y552260D01*
X315753Y552318D01*
X315676Y552374D01*
X315596Y552427D01*
X315515Y552476D01*
X315431Y552522D01*
X315345Y552565D01*
X315258Y552604D01*
X315170Y552640D01*
X315080Y552672D01*
X314989Y552700D01*
X314896Y552725D01*
X314803Y552746D01*
X314709Y552763D01*
X314615Y552777D01*
X314520Y552786D01*
X314425Y552792D01*
X314329Y552794D01*
X311959Y552794D01*
X307294Y546867D02*
X307294Y544497D01*
X307295Y546867D02*
X307293Y546964D01*
X307287Y547060D01*
X307277Y547156D01*
X307263Y547252D01*
X307246Y547347D01*
X307224Y547442D01*
X307199Y547535D01*
X307170Y547627D01*
X307137Y547718D01*
X307100Y547808D01*
X307060Y547896D01*
X307016Y547982D01*
X306969Y548066D01*
X306919Y548149D01*
X306865Y548229D01*
X306807Y548307D01*
X306747Y548383D01*
X306684Y548456D01*
X306618Y548526D01*
X306548Y548594D01*
X306477Y548659D01*
X306402Y548721D01*
X306325Y548779D01*
X306246Y548835D01*
X306165Y548887D01*
X306081Y548936D01*
X305996Y548982D01*
X305909Y549024D01*
X305820Y549062D01*
X305730Y549097D01*
X305638Y549128D01*
X305545Y549155D01*
X305452Y549179D01*
X305357Y549198D01*
X305261Y549214D01*
X305165Y549226D01*
X305069Y549234D01*
X304972Y549238D01*
X304876Y549238D01*
X304779Y549234D01*
X304683Y549226D01*
X304587Y549214D01*
X304491Y549198D01*
X304396Y549179D01*
X304303Y549155D01*
X304210Y549128D01*
X304118Y549097D01*
X304028Y549062D01*
X303939Y549024D01*
X303852Y548982D01*
X303767Y548936D01*
X303683Y548887D01*
X303602Y548835D01*
X303523Y548779D01*
X303446Y548721D01*
X303371Y548659D01*
X303300Y548594D01*
X303230Y548526D01*
X303164Y548456D01*
X303101Y548383D01*
X303041Y548307D01*
X302983Y548229D01*
X302929Y548149D01*
X302879Y548066D01*
X302832Y547982D01*
X302788Y547896D01*
X302748Y547808D01*
X302711Y547718D01*
X302678Y547627D01*
X302649Y547535D01*
X302624Y547442D01*
X302602Y547347D01*
X302585Y547252D01*
X302571Y547156D01*
X302561Y547060D01*
X302555Y546964D01*
X302553Y546867D01*
X302553Y544497D01*
X302555Y544400D01*
X302561Y544304D01*
X302571Y544208D01*
X302585Y544112D01*
X302602Y544017D01*
X302624Y543922D01*
X302649Y543829D01*
X302678Y543737D01*
X302711Y543646D01*
X302748Y543556D01*
X302788Y543468D01*
X302832Y543382D01*
X302879Y543298D01*
X302929Y543215D01*
X302983Y543135D01*
X303041Y543057D01*
X303101Y542981D01*
X303164Y542908D01*
X303230Y542838D01*
X303300Y542770D01*
X303371Y542705D01*
X303446Y542643D01*
X303523Y542585D01*
X303602Y542529D01*
X303683Y542477D01*
X303767Y542428D01*
X303852Y542382D01*
X303939Y542340D01*
X304028Y542302D01*
X304118Y542267D01*
X304210Y542236D01*
X304303Y542209D01*
X304396Y542185D01*
X304491Y542166D01*
X304587Y542150D01*
X304683Y542138D01*
X304779Y542130D01*
X304876Y542126D01*
X304972Y542126D01*
X305069Y542130D01*
X305165Y542138D01*
X305261Y542150D01*
X305357Y542166D01*
X305452Y542185D01*
X305545Y542209D01*
X305638Y542236D01*
X305730Y542267D01*
X305820Y542302D01*
X305909Y542340D01*
X305996Y542382D01*
X306081Y542428D01*
X306165Y542477D01*
X306246Y542529D01*
X306325Y542585D01*
X306402Y542643D01*
X306477Y542705D01*
X306548Y542770D01*
X306618Y542838D01*
X306684Y542908D01*
X306747Y542981D01*
X306807Y543057D01*
X306865Y543135D01*
X306919Y543215D01*
X306969Y543298D01*
X307016Y543382D01*
X307060Y543468D01*
X307100Y543556D01*
X307137Y543646D01*
X307170Y543737D01*
X307199Y543829D01*
X307224Y543922D01*
X307246Y544017D01*
X307263Y544112D01*
X307277Y544208D01*
X307287Y544304D01*
X307293Y544400D01*
X307295Y544497D01*
X297007Y542126D02*
X297007Y549238D01*
X294044Y549238D01*
X293962Y549236D01*
X293880Y549230D01*
X293798Y549221D01*
X293717Y549208D01*
X293637Y549191D01*
X293557Y549170D01*
X293479Y549146D01*
X293402Y549118D01*
X293326Y549087D01*
X293251Y549052D01*
X293179Y549013D01*
X293108Y548972D01*
X293039Y548927D01*
X292973Y548879D01*
X292908Y548828D01*
X292846Y548774D01*
X292787Y548717D01*
X292730Y548658D01*
X292676Y548596D01*
X292625Y548531D01*
X292577Y548465D01*
X292532Y548396D01*
X292491Y548325D01*
X292452Y548253D01*
X292417Y548178D01*
X292386Y548102D01*
X292358Y548025D01*
X292334Y547947D01*
X292313Y547867D01*
X292296Y547787D01*
X292283Y547706D01*
X292274Y547624D01*
X292268Y547542D01*
X292266Y547460D01*
X292266Y542126D01*
X287790Y549238D02*
X284234Y549238D01*
X286605Y552794D02*
X286605Y543904D01*
X286603Y543822D01*
X286597Y543740D01*
X286588Y543658D01*
X286575Y543577D01*
X286558Y543497D01*
X286537Y543417D01*
X286513Y543339D01*
X286485Y543262D01*
X286454Y543186D01*
X286419Y543111D01*
X286380Y543039D01*
X286339Y542968D01*
X286294Y542899D01*
X286246Y542833D01*
X286195Y542768D01*
X286141Y542706D01*
X286084Y542647D01*
X286025Y542590D01*
X285963Y542536D01*
X285898Y542485D01*
X285832Y542437D01*
X285763Y542392D01*
X285692Y542351D01*
X285620Y542312D01*
X285545Y542277D01*
X285469Y542246D01*
X285392Y542218D01*
X285314Y542194D01*
X285234Y542173D01*
X285154Y542156D01*
X285073Y542143D01*
X284991Y542134D01*
X284909Y542128D01*
X284827Y542126D01*
X284234Y542126D01*
X279001Y542126D02*
X279001Y549238D01*
X275445Y549238D01*
X275445Y548053D01*
X271480Y546867D02*
X271480Y544497D01*
X271481Y546867D02*
X271479Y546964D01*
X271473Y547060D01*
X271463Y547156D01*
X271449Y547252D01*
X271432Y547347D01*
X271410Y547442D01*
X271385Y547535D01*
X271356Y547627D01*
X271323Y547718D01*
X271286Y547808D01*
X271246Y547896D01*
X271202Y547982D01*
X271155Y548066D01*
X271105Y548149D01*
X271051Y548229D01*
X270993Y548307D01*
X270933Y548383D01*
X270870Y548456D01*
X270804Y548526D01*
X270734Y548594D01*
X270663Y548659D01*
X270588Y548721D01*
X270511Y548779D01*
X270432Y548835D01*
X270351Y548887D01*
X270267Y548936D01*
X270182Y548982D01*
X270095Y549024D01*
X270006Y549062D01*
X269916Y549097D01*
X269824Y549128D01*
X269731Y549155D01*
X269638Y549179D01*
X269543Y549198D01*
X269447Y549214D01*
X269351Y549226D01*
X269255Y549234D01*
X269158Y549238D01*
X269062Y549238D01*
X268965Y549234D01*
X268869Y549226D01*
X268773Y549214D01*
X268677Y549198D01*
X268582Y549179D01*
X268489Y549155D01*
X268396Y549128D01*
X268304Y549097D01*
X268214Y549062D01*
X268125Y549024D01*
X268038Y548982D01*
X267953Y548936D01*
X267869Y548887D01*
X267788Y548835D01*
X267709Y548779D01*
X267632Y548721D01*
X267557Y548659D01*
X267486Y548594D01*
X267416Y548526D01*
X267350Y548456D01*
X267287Y548383D01*
X267227Y548307D01*
X267169Y548229D01*
X267115Y548149D01*
X267065Y548066D01*
X267018Y547982D01*
X266974Y547896D01*
X266934Y547808D01*
X266897Y547718D01*
X266864Y547627D01*
X266835Y547535D01*
X266810Y547442D01*
X266788Y547347D01*
X266771Y547252D01*
X266757Y547156D01*
X266747Y547060D01*
X266741Y546964D01*
X266739Y546867D01*
X266739Y544497D01*
X266741Y544400D01*
X266747Y544304D01*
X266757Y544208D01*
X266771Y544112D01*
X266788Y544017D01*
X266810Y543922D01*
X266835Y543829D01*
X266864Y543737D01*
X266897Y543646D01*
X266934Y543556D01*
X266974Y543468D01*
X267018Y543382D01*
X267065Y543298D01*
X267115Y543215D01*
X267169Y543135D01*
X267227Y543057D01*
X267287Y542981D01*
X267350Y542908D01*
X267416Y542838D01*
X267486Y542770D01*
X267557Y542705D01*
X267632Y542643D01*
X267709Y542585D01*
X267788Y542529D01*
X267869Y542477D01*
X267953Y542428D01*
X268038Y542382D01*
X268125Y542340D01*
X268214Y542302D01*
X268304Y542267D01*
X268396Y542236D01*
X268489Y542209D01*
X268582Y542185D01*
X268677Y542166D01*
X268773Y542150D01*
X268869Y542138D01*
X268965Y542130D01*
X269062Y542126D01*
X269158Y542126D01*
X269255Y542130D01*
X269351Y542138D01*
X269447Y542150D01*
X269543Y542166D01*
X269638Y542185D01*
X269731Y542209D01*
X269824Y542236D01*
X269916Y542267D01*
X270006Y542302D01*
X270095Y542340D01*
X270182Y542382D01*
X270267Y542428D01*
X270351Y542477D01*
X270432Y542529D01*
X270511Y542585D01*
X270588Y542643D01*
X270663Y542705D01*
X270734Y542770D01*
X270804Y542838D01*
X270870Y542908D01*
X270933Y542981D01*
X270993Y543057D01*
X271051Y543135D01*
X271105Y543215D01*
X271155Y543298D01*
X271202Y543382D01*
X271246Y543468D01*
X271286Y543556D01*
X271323Y543646D01*
X271356Y543737D01*
X271385Y543829D01*
X271410Y543922D01*
X271432Y544017D01*
X271449Y544112D01*
X271463Y544208D01*
X271473Y544304D01*
X271479Y544400D01*
X271481Y544497D01*
X261541Y543904D02*
X261541Y552794D01*
X261541Y543904D02*
X261539Y543822D01*
X261533Y543740D01*
X261524Y543658D01*
X261511Y543577D01*
X261494Y543497D01*
X261473Y543417D01*
X261449Y543339D01*
X261421Y543262D01*
X261390Y543186D01*
X261355Y543111D01*
X261316Y543039D01*
X261275Y542968D01*
X261230Y542899D01*
X261182Y542833D01*
X261131Y542768D01*
X261077Y542706D01*
X261020Y542647D01*
X260961Y542590D01*
X260899Y542536D01*
X260834Y542485D01*
X260768Y542437D01*
X260699Y542392D01*
X260628Y542351D01*
X260556Y542312D01*
X260481Y542277D01*
X260405Y542246D01*
X260328Y542218D01*
X260250Y542194D01*
X260170Y542173D01*
X260090Y542156D01*
X260009Y542143D01*
X259927Y542134D01*
X259845Y542128D01*
X259763Y542126D01*
X255445Y543904D02*
X255445Y552794D01*
X255445Y543904D02*
X255443Y543822D01*
X255437Y543740D01*
X255428Y543658D01*
X255415Y543577D01*
X255398Y543497D01*
X255377Y543417D01*
X255353Y543339D01*
X255325Y543262D01*
X255294Y543186D01*
X255259Y543111D01*
X255220Y543039D01*
X255179Y542968D01*
X255134Y542899D01*
X255086Y542833D01*
X255035Y542768D01*
X254981Y542706D01*
X254924Y542647D01*
X254865Y542590D01*
X254803Y542536D01*
X254738Y542485D01*
X254672Y542437D01*
X254603Y542392D01*
X254532Y542351D01*
X254460Y542312D01*
X254385Y542277D01*
X254309Y542246D01*
X254232Y542218D01*
X254154Y542194D01*
X254074Y542173D01*
X253994Y542156D01*
X253913Y542143D01*
X253831Y542134D01*
X253749Y542128D01*
X253667Y542126D01*
X247605Y542126D02*
X244641Y542126D01*
X247605Y542126D02*
X247687Y542128D01*
X247769Y542134D01*
X247851Y542143D01*
X247932Y542156D01*
X248012Y542173D01*
X248092Y542194D01*
X248170Y542218D01*
X248247Y542246D01*
X248323Y542277D01*
X248398Y542312D01*
X248470Y542351D01*
X248541Y542392D01*
X248610Y542437D01*
X248676Y542485D01*
X248741Y542536D01*
X248803Y542590D01*
X248862Y542647D01*
X248919Y542706D01*
X248973Y542768D01*
X249024Y542833D01*
X249072Y542899D01*
X249117Y542968D01*
X249158Y543039D01*
X249197Y543111D01*
X249232Y543186D01*
X249263Y543262D01*
X249291Y543339D01*
X249315Y543417D01*
X249336Y543497D01*
X249353Y543577D01*
X249366Y543658D01*
X249375Y543740D01*
X249381Y543822D01*
X249383Y543904D01*
X249383Y546867D01*
X249381Y546964D01*
X249375Y547060D01*
X249365Y547156D01*
X249351Y547252D01*
X249334Y547347D01*
X249312Y547442D01*
X249287Y547535D01*
X249258Y547627D01*
X249225Y547718D01*
X249188Y547808D01*
X249148Y547896D01*
X249104Y547982D01*
X249057Y548066D01*
X249007Y548149D01*
X248953Y548229D01*
X248895Y548307D01*
X248835Y548383D01*
X248772Y548456D01*
X248706Y548526D01*
X248636Y548594D01*
X248565Y548659D01*
X248490Y548721D01*
X248413Y548779D01*
X248334Y548835D01*
X248253Y548887D01*
X248169Y548936D01*
X248084Y548982D01*
X247997Y549024D01*
X247908Y549062D01*
X247818Y549097D01*
X247726Y549128D01*
X247633Y549155D01*
X247540Y549179D01*
X247445Y549198D01*
X247349Y549214D01*
X247253Y549226D01*
X247157Y549234D01*
X247060Y549238D01*
X246964Y549238D01*
X246867Y549234D01*
X246771Y549226D01*
X246675Y549214D01*
X246579Y549198D01*
X246484Y549179D01*
X246391Y549155D01*
X246298Y549128D01*
X246206Y549097D01*
X246116Y549062D01*
X246027Y549024D01*
X245940Y548982D01*
X245855Y548936D01*
X245771Y548887D01*
X245690Y548835D01*
X245611Y548779D01*
X245534Y548721D01*
X245459Y548659D01*
X245388Y548594D01*
X245318Y548526D01*
X245252Y548456D01*
X245189Y548383D01*
X245129Y548307D01*
X245071Y548229D01*
X245017Y548149D01*
X244967Y548066D01*
X244920Y547982D01*
X244876Y547896D01*
X244836Y547808D01*
X244799Y547718D01*
X244766Y547627D01*
X244737Y547535D01*
X244712Y547442D01*
X244690Y547347D01*
X244673Y547252D01*
X244659Y547156D01*
X244649Y547060D01*
X244643Y546964D01*
X244641Y546867D01*
X244641Y545682D01*
X249383Y545682D01*
X238996Y542126D02*
X238996Y549238D01*
X235440Y549238D01*
X235440Y548053D01*
X221951Y552794D02*
X221849Y552792D01*
X221747Y552786D01*
X221645Y552776D01*
X221544Y552763D01*
X221443Y552745D01*
X221343Y552724D01*
X221244Y552699D01*
X221146Y552670D01*
X221049Y552637D01*
X220954Y552601D01*
X220860Y552561D01*
X220768Y552517D01*
X220677Y552470D01*
X220588Y552419D01*
X220501Y552366D01*
X220417Y552308D01*
X220334Y552248D01*
X220254Y552185D01*
X220177Y552118D01*
X220102Y552049D01*
X220029Y551976D01*
X219960Y551901D01*
X219893Y551824D01*
X219830Y551744D01*
X219770Y551661D01*
X219712Y551577D01*
X219659Y551490D01*
X219608Y551401D01*
X219561Y551310D01*
X219517Y551218D01*
X219477Y551124D01*
X219441Y551028D01*
X219408Y550932D01*
X219379Y550834D01*
X219354Y550735D01*
X219333Y550635D01*
X219315Y550534D01*
X219302Y550433D01*
X219292Y550331D01*
X219286Y550229D01*
X219284Y550127D01*
X221951Y552794D02*
X222067Y552792D01*
X222184Y552786D01*
X222300Y552776D01*
X222415Y552762D01*
X222530Y552745D01*
X222645Y552723D01*
X222758Y552697D01*
X222871Y552668D01*
X222983Y552635D01*
X223093Y552598D01*
X223202Y552557D01*
X223310Y552513D01*
X223416Y552465D01*
X223520Y552413D01*
X223623Y552358D01*
X223724Y552300D01*
X223822Y552238D01*
X223919Y552173D01*
X224013Y552104D01*
X224105Y552032D01*
X224194Y551958D01*
X224281Y551880D01*
X224365Y551799D01*
X224446Y551716D01*
X224524Y551630D01*
X224600Y551541D01*
X224672Y551450D01*
X224741Y551356D01*
X224807Y551260D01*
X224870Y551162D01*
X224929Y551062D01*
X224985Y550960D01*
X225037Y550856D01*
X225086Y550750D01*
X225131Y550642D01*
X225173Y550534D01*
X225210Y550423D01*
X220172Y548052D02*
X220097Y548126D01*
X220025Y548203D01*
X219956Y548283D01*
X219889Y548365D01*
X219826Y548449D01*
X219766Y548536D01*
X219709Y548624D01*
X219655Y548715D01*
X219605Y548808D01*
X219558Y548902D01*
X219515Y548998D01*
X219475Y549096D01*
X219439Y549195D01*
X219406Y549295D01*
X219378Y549397D01*
X219353Y549499D01*
X219331Y549603D01*
X219314Y549707D01*
X219300Y549811D01*
X219291Y549916D01*
X219285Y550022D01*
X219283Y550127D01*
X220173Y548053D02*
X225210Y542126D01*
X219284Y542126D01*
X214542Y542126D02*
X214542Y542719D01*
X213950Y542719D01*
X213950Y542126D01*
X214542Y542126D01*
X209208Y550423D02*
X206245Y552794D01*
X206245Y542126D01*
X209208Y542126D02*
X203282Y542126D01*
X365164Y533744D02*
X365164Y523076D01*
X365164Y533744D02*
X362201Y533744D01*
X362093Y533742D01*
X361985Y533736D01*
X361877Y533726D01*
X361770Y533712D01*
X361663Y533695D01*
X361557Y533673D01*
X361452Y533648D01*
X361347Y533618D01*
X361244Y533585D01*
X361143Y533548D01*
X361042Y533508D01*
X360943Y533464D01*
X360846Y533416D01*
X360751Y533365D01*
X360657Y533310D01*
X360566Y533252D01*
X360477Y533191D01*
X360390Y533126D01*
X360306Y533059D01*
X360224Y532988D01*
X360144Y532914D01*
X360068Y532838D01*
X359994Y532758D01*
X359924Y532676D01*
X359856Y532592D01*
X359791Y532505D01*
X359730Y532416D01*
X359672Y532325D01*
X359617Y532231D01*
X359566Y532136D01*
X359518Y532039D01*
X359474Y531940D01*
X359434Y531839D01*
X359397Y531738D01*
X359364Y531635D01*
X359334Y531530D01*
X359309Y531425D01*
X359287Y531319D01*
X359270Y531212D01*
X359256Y531105D01*
X359246Y530997D01*
X359240Y530889D01*
X359238Y530781D01*
X359237Y530781D02*
X359237Y526039D01*
X359238Y526039D02*
X359240Y525933D01*
X359246Y525828D01*
X359255Y525722D01*
X359268Y525617D01*
X359285Y525513D01*
X359306Y525409D01*
X359330Y525306D01*
X359358Y525204D01*
X359390Y525103D01*
X359425Y525004D01*
X359464Y524905D01*
X359506Y524808D01*
X359551Y524713D01*
X359600Y524619D01*
X359653Y524527D01*
X359708Y524437D01*
X359767Y524349D01*
X359829Y524263D01*
X359894Y524180D01*
X359962Y524099D01*
X360032Y524020D01*
X360106Y523944D01*
X360182Y523870D01*
X360261Y523800D01*
X360342Y523732D01*
X360425Y523667D01*
X360511Y523605D01*
X360599Y523546D01*
X360689Y523491D01*
X360781Y523438D01*
X360875Y523389D01*
X360970Y523344D01*
X361067Y523302D01*
X361166Y523263D01*
X361265Y523228D01*
X361366Y523196D01*
X361468Y523168D01*
X361571Y523144D01*
X361675Y523123D01*
X361779Y523106D01*
X361884Y523093D01*
X361990Y523084D01*
X362095Y523078D01*
X362201Y523076D01*
X365164Y523076D01*
X351744Y523076D02*
X348781Y523076D01*
X351744Y523076D02*
X351826Y523078D01*
X351908Y523084D01*
X351990Y523093D01*
X352071Y523106D01*
X352151Y523123D01*
X352231Y523144D01*
X352309Y523168D01*
X352386Y523196D01*
X352462Y523227D01*
X352537Y523262D01*
X352609Y523301D01*
X352680Y523342D01*
X352749Y523387D01*
X352815Y523435D01*
X352880Y523486D01*
X352942Y523540D01*
X353001Y523597D01*
X353058Y523656D01*
X353112Y523718D01*
X353163Y523783D01*
X353211Y523849D01*
X353256Y523918D01*
X353297Y523989D01*
X353336Y524061D01*
X353371Y524136D01*
X353402Y524212D01*
X353430Y524289D01*
X353454Y524367D01*
X353475Y524447D01*
X353492Y524527D01*
X353505Y524608D01*
X353514Y524690D01*
X353520Y524772D01*
X353522Y524854D01*
X353522Y527817D01*
X353523Y527817D02*
X353521Y527914D01*
X353515Y528010D01*
X353505Y528106D01*
X353491Y528202D01*
X353474Y528297D01*
X353452Y528392D01*
X353427Y528485D01*
X353398Y528577D01*
X353365Y528668D01*
X353328Y528758D01*
X353288Y528846D01*
X353244Y528932D01*
X353197Y529016D01*
X353147Y529099D01*
X353093Y529179D01*
X353035Y529257D01*
X352975Y529333D01*
X352912Y529406D01*
X352846Y529476D01*
X352776Y529544D01*
X352705Y529609D01*
X352630Y529671D01*
X352553Y529729D01*
X352474Y529785D01*
X352393Y529837D01*
X352309Y529886D01*
X352224Y529932D01*
X352137Y529974D01*
X352048Y530012D01*
X351958Y530047D01*
X351866Y530078D01*
X351773Y530105D01*
X351680Y530129D01*
X351585Y530148D01*
X351489Y530164D01*
X351393Y530176D01*
X351297Y530184D01*
X351200Y530188D01*
X351104Y530188D01*
X351007Y530184D01*
X350911Y530176D01*
X350815Y530164D01*
X350719Y530148D01*
X350624Y530129D01*
X350531Y530105D01*
X350438Y530078D01*
X350346Y530047D01*
X350256Y530012D01*
X350167Y529974D01*
X350080Y529932D01*
X349995Y529886D01*
X349911Y529837D01*
X349830Y529785D01*
X349751Y529729D01*
X349674Y529671D01*
X349599Y529609D01*
X349528Y529544D01*
X349458Y529476D01*
X349392Y529406D01*
X349329Y529333D01*
X349269Y529257D01*
X349211Y529179D01*
X349157Y529099D01*
X349107Y529016D01*
X349060Y528932D01*
X349016Y528846D01*
X348976Y528758D01*
X348939Y528668D01*
X348906Y528577D01*
X348877Y528485D01*
X348852Y528392D01*
X348830Y528297D01*
X348813Y528202D01*
X348799Y528106D01*
X348789Y528010D01*
X348783Y527914D01*
X348781Y527817D01*
X348781Y526632D01*
X353522Y526632D01*
X342727Y527225D02*
X339764Y526039D01*
X342728Y527224D02*
X342799Y527255D01*
X342869Y527289D01*
X342937Y527326D01*
X343002Y527367D01*
X343066Y527412D01*
X343127Y527459D01*
X343186Y527510D01*
X343243Y527563D01*
X343296Y527619D01*
X343347Y527678D01*
X343394Y527739D01*
X343439Y527803D01*
X343480Y527868D01*
X343518Y527936D01*
X343552Y528006D01*
X343583Y528077D01*
X343610Y528149D01*
X343633Y528223D01*
X343653Y528298D01*
X343669Y528374D01*
X343681Y528451D01*
X343689Y528528D01*
X343693Y528605D01*
X343694Y528683D01*
X343690Y528760D01*
X343683Y528838D01*
X343671Y528914D01*
X343656Y528990D01*
X343637Y529066D01*
X343614Y529140D01*
X343588Y529213D01*
X343558Y529284D01*
X343524Y529354D01*
X343487Y529422D01*
X343446Y529488D01*
X343402Y529552D01*
X343355Y529614D01*
X343305Y529673D01*
X343252Y529729D01*
X343196Y529783D01*
X343138Y529834D01*
X343077Y529882D01*
X343014Y529927D01*
X342948Y529969D01*
X342881Y530007D01*
X342811Y530042D01*
X342740Y530073D01*
X342668Y530101D01*
X342594Y530124D01*
X342519Y530145D01*
X342444Y530161D01*
X342367Y530174D01*
X342290Y530182D01*
X342213Y530187D01*
X342135Y530188D01*
X341973Y530184D01*
X341811Y530176D01*
X341650Y530164D01*
X341489Y530148D01*
X341328Y530128D01*
X341168Y530105D01*
X341009Y530077D01*
X340850Y530046D01*
X340692Y530011D01*
X340535Y529972D01*
X340379Y529929D01*
X340224Y529883D01*
X340070Y529833D01*
X339917Y529779D01*
X339766Y529721D01*
X339616Y529660D01*
X339468Y529596D01*
X339764Y526040D02*
X339693Y526009D01*
X339623Y525975D01*
X339555Y525938D01*
X339490Y525897D01*
X339426Y525852D01*
X339365Y525805D01*
X339306Y525754D01*
X339249Y525701D01*
X339196Y525645D01*
X339145Y525586D01*
X339098Y525525D01*
X339053Y525461D01*
X339012Y525396D01*
X338974Y525328D01*
X338940Y525258D01*
X338909Y525187D01*
X338882Y525115D01*
X338859Y525041D01*
X338839Y524966D01*
X338823Y524890D01*
X338811Y524813D01*
X338803Y524736D01*
X338799Y524659D01*
X338798Y524581D01*
X338802Y524504D01*
X338809Y524426D01*
X338821Y524350D01*
X338836Y524274D01*
X338855Y524198D01*
X338878Y524124D01*
X338904Y524051D01*
X338934Y523980D01*
X338968Y523910D01*
X339005Y523842D01*
X339046Y523776D01*
X339090Y523712D01*
X339137Y523650D01*
X339187Y523591D01*
X339240Y523535D01*
X339296Y523481D01*
X339354Y523430D01*
X339415Y523382D01*
X339478Y523337D01*
X339544Y523295D01*
X339611Y523257D01*
X339681Y523222D01*
X339751Y523191D01*
X339824Y523163D01*
X339898Y523140D01*
X339973Y523119D01*
X340048Y523103D01*
X340125Y523090D01*
X340202Y523082D01*
X340279Y523077D01*
X340357Y523076D01*
X340594Y523082D01*
X340832Y523094D01*
X341069Y523111D01*
X341305Y523135D01*
X341541Y523163D01*
X341777Y523197D01*
X342011Y523237D01*
X342244Y523282D01*
X342477Y523333D01*
X342708Y523389D01*
X342937Y523451D01*
X343165Y523518D01*
X343392Y523591D01*
X343616Y523669D01*
X334007Y523076D02*
X334007Y530188D01*
X334303Y533151D02*
X334303Y533744D01*
X333710Y533744D01*
X333710Y533151D01*
X334303Y533151D01*
X327449Y523076D02*
X324485Y523076D01*
X327449Y523076D02*
X327531Y523078D01*
X327613Y523084D01*
X327695Y523093D01*
X327776Y523106D01*
X327856Y523123D01*
X327936Y523144D01*
X328014Y523168D01*
X328091Y523196D01*
X328167Y523227D01*
X328242Y523262D01*
X328314Y523301D01*
X328385Y523342D01*
X328454Y523387D01*
X328520Y523435D01*
X328585Y523486D01*
X328647Y523540D01*
X328706Y523597D01*
X328763Y523656D01*
X328817Y523718D01*
X328868Y523783D01*
X328916Y523849D01*
X328961Y523918D01*
X329002Y523989D01*
X329041Y524061D01*
X329076Y524136D01*
X329107Y524212D01*
X329135Y524289D01*
X329159Y524367D01*
X329180Y524447D01*
X329197Y524527D01*
X329210Y524608D01*
X329219Y524690D01*
X329225Y524772D01*
X329227Y524854D01*
X329227Y528410D01*
X329225Y528492D01*
X329219Y528574D01*
X329210Y528656D01*
X329197Y528737D01*
X329180Y528817D01*
X329159Y528897D01*
X329135Y528975D01*
X329107Y529052D01*
X329076Y529128D01*
X329041Y529203D01*
X329002Y529275D01*
X328961Y529346D01*
X328916Y529415D01*
X328868Y529481D01*
X328817Y529546D01*
X328763Y529608D01*
X328706Y529667D01*
X328647Y529724D01*
X328585Y529778D01*
X328520Y529829D01*
X328454Y529877D01*
X328385Y529922D01*
X328314Y529963D01*
X328242Y530002D01*
X328167Y530037D01*
X328091Y530068D01*
X328014Y530096D01*
X327936Y530120D01*
X327856Y530141D01*
X327776Y530158D01*
X327695Y530171D01*
X327613Y530180D01*
X327531Y530186D01*
X327449Y530188D01*
X324485Y530188D01*
X324485Y521298D01*
X324487Y521216D01*
X324493Y521134D01*
X324502Y521052D01*
X324515Y520971D01*
X324532Y520891D01*
X324553Y520811D01*
X324577Y520733D01*
X324605Y520656D01*
X324636Y520580D01*
X324671Y520505D01*
X324710Y520433D01*
X324751Y520362D01*
X324796Y520293D01*
X324844Y520227D01*
X324895Y520162D01*
X324949Y520100D01*
X325006Y520041D01*
X325065Y519984D01*
X325127Y519930D01*
X325192Y519879D01*
X325258Y519831D01*
X325327Y519786D01*
X325398Y519745D01*
X325470Y519706D01*
X325545Y519671D01*
X325621Y519640D01*
X325698Y519612D01*
X325776Y519588D01*
X325856Y519567D01*
X325936Y519550D01*
X326017Y519537D01*
X326099Y519528D01*
X326181Y519522D01*
X326263Y519520D01*
X328634Y519520D01*
X318470Y523076D02*
X318470Y530188D01*
X315507Y530188D01*
X315425Y530186D01*
X315343Y530180D01*
X315261Y530171D01*
X315180Y530158D01*
X315100Y530141D01*
X315020Y530120D01*
X314942Y530096D01*
X314865Y530068D01*
X314789Y530037D01*
X314714Y530002D01*
X314642Y529963D01*
X314571Y529922D01*
X314502Y529877D01*
X314436Y529829D01*
X314371Y529778D01*
X314309Y529724D01*
X314250Y529667D01*
X314193Y529608D01*
X314139Y529546D01*
X314088Y529481D01*
X314040Y529415D01*
X313995Y529346D01*
X313954Y529275D01*
X313915Y529203D01*
X313880Y529128D01*
X313849Y529052D01*
X313821Y528975D01*
X313797Y528897D01*
X313776Y528817D01*
X313759Y528737D01*
X313746Y528656D01*
X313737Y528574D01*
X313731Y528492D01*
X313729Y528410D01*
X313729Y523076D01*
X306405Y523076D02*
X303442Y523076D01*
X306405Y523076D02*
X306487Y523078D01*
X306569Y523084D01*
X306651Y523093D01*
X306732Y523106D01*
X306812Y523123D01*
X306892Y523144D01*
X306970Y523168D01*
X307047Y523196D01*
X307123Y523227D01*
X307198Y523262D01*
X307270Y523301D01*
X307341Y523342D01*
X307410Y523387D01*
X307476Y523435D01*
X307541Y523486D01*
X307603Y523540D01*
X307662Y523597D01*
X307719Y523656D01*
X307773Y523718D01*
X307824Y523783D01*
X307872Y523849D01*
X307917Y523918D01*
X307958Y523989D01*
X307997Y524061D01*
X308032Y524136D01*
X308063Y524212D01*
X308091Y524289D01*
X308115Y524367D01*
X308136Y524447D01*
X308153Y524527D01*
X308166Y524608D01*
X308175Y524690D01*
X308181Y524772D01*
X308183Y524854D01*
X308183Y527817D01*
X308184Y527817D02*
X308182Y527914D01*
X308176Y528010D01*
X308166Y528106D01*
X308152Y528202D01*
X308135Y528297D01*
X308113Y528392D01*
X308088Y528485D01*
X308059Y528577D01*
X308026Y528668D01*
X307989Y528758D01*
X307949Y528846D01*
X307905Y528932D01*
X307858Y529016D01*
X307808Y529099D01*
X307754Y529179D01*
X307696Y529257D01*
X307636Y529333D01*
X307573Y529406D01*
X307507Y529476D01*
X307437Y529544D01*
X307366Y529609D01*
X307291Y529671D01*
X307214Y529729D01*
X307135Y529785D01*
X307054Y529837D01*
X306970Y529886D01*
X306885Y529932D01*
X306798Y529974D01*
X306709Y530012D01*
X306619Y530047D01*
X306527Y530078D01*
X306434Y530105D01*
X306341Y530129D01*
X306246Y530148D01*
X306150Y530164D01*
X306054Y530176D01*
X305958Y530184D01*
X305861Y530188D01*
X305765Y530188D01*
X305668Y530184D01*
X305572Y530176D01*
X305476Y530164D01*
X305380Y530148D01*
X305285Y530129D01*
X305192Y530105D01*
X305099Y530078D01*
X305007Y530047D01*
X304917Y530012D01*
X304828Y529974D01*
X304741Y529932D01*
X304656Y529886D01*
X304572Y529837D01*
X304491Y529785D01*
X304412Y529729D01*
X304335Y529671D01*
X304260Y529609D01*
X304189Y529544D01*
X304119Y529476D01*
X304053Y529406D01*
X303990Y529333D01*
X303930Y529257D01*
X303872Y529179D01*
X303818Y529099D01*
X303768Y529016D01*
X303721Y528932D01*
X303677Y528846D01*
X303637Y528758D01*
X303600Y528668D01*
X303567Y528577D01*
X303538Y528485D01*
X303513Y528392D01*
X303491Y528297D01*
X303474Y528202D01*
X303460Y528106D01*
X303450Y528010D01*
X303444Y527914D01*
X303442Y527817D01*
X303442Y526632D01*
X308183Y526632D01*
X293624Y523076D02*
X293624Y533744D01*
X293624Y523076D02*
X296588Y523076D01*
X296670Y523078D01*
X296752Y523084D01*
X296834Y523093D01*
X296915Y523106D01*
X296995Y523123D01*
X297075Y523144D01*
X297153Y523168D01*
X297230Y523196D01*
X297306Y523227D01*
X297381Y523262D01*
X297453Y523301D01*
X297524Y523342D01*
X297593Y523387D01*
X297659Y523435D01*
X297724Y523486D01*
X297786Y523540D01*
X297845Y523597D01*
X297902Y523656D01*
X297956Y523718D01*
X298007Y523783D01*
X298055Y523849D01*
X298100Y523918D01*
X298141Y523989D01*
X298180Y524061D01*
X298215Y524136D01*
X298246Y524212D01*
X298274Y524289D01*
X298298Y524367D01*
X298319Y524447D01*
X298336Y524527D01*
X298349Y524608D01*
X298358Y524690D01*
X298364Y524772D01*
X298366Y524854D01*
X298366Y528410D01*
X298364Y528492D01*
X298358Y528574D01*
X298349Y528656D01*
X298336Y528737D01*
X298319Y528817D01*
X298298Y528897D01*
X298274Y528975D01*
X298246Y529052D01*
X298215Y529128D01*
X298180Y529203D01*
X298141Y529275D01*
X298100Y529346D01*
X298055Y529415D01*
X298007Y529481D01*
X297956Y529546D01*
X297902Y529608D01*
X297845Y529667D01*
X297786Y529724D01*
X297724Y529778D01*
X297659Y529829D01*
X297593Y529877D01*
X297524Y529922D01*
X297453Y529963D01*
X297381Y530002D01*
X297306Y530037D01*
X297230Y530068D01*
X297153Y530096D01*
X297075Y530120D01*
X296995Y530141D01*
X296915Y530158D01*
X296834Y530171D01*
X296752Y530180D01*
X296670Y530186D01*
X296588Y530188D01*
X293624Y530188D01*
X281425Y533744D02*
X281425Y523076D01*
X278462Y523076D01*
X278380Y523078D01*
X278298Y523084D01*
X278216Y523093D01*
X278135Y523106D01*
X278055Y523123D01*
X277975Y523144D01*
X277897Y523168D01*
X277820Y523196D01*
X277744Y523227D01*
X277669Y523262D01*
X277597Y523301D01*
X277526Y523342D01*
X277457Y523387D01*
X277391Y523435D01*
X277326Y523486D01*
X277264Y523540D01*
X277205Y523597D01*
X277148Y523656D01*
X277094Y523718D01*
X277043Y523783D01*
X276995Y523849D01*
X276950Y523918D01*
X276909Y523989D01*
X276870Y524061D01*
X276835Y524136D01*
X276804Y524212D01*
X276776Y524289D01*
X276752Y524367D01*
X276731Y524447D01*
X276714Y524527D01*
X276701Y524608D01*
X276692Y524690D01*
X276686Y524772D01*
X276684Y524854D01*
X276684Y528410D01*
X276686Y528492D01*
X276692Y528574D01*
X276701Y528656D01*
X276714Y528737D01*
X276731Y528817D01*
X276752Y528897D01*
X276776Y528975D01*
X276804Y529052D01*
X276835Y529128D01*
X276870Y529203D01*
X276909Y529275D01*
X276950Y529346D01*
X276995Y529415D01*
X277043Y529481D01*
X277094Y529546D01*
X277148Y529608D01*
X277205Y529667D01*
X277264Y529724D01*
X277326Y529778D01*
X277391Y529829D01*
X277457Y529877D01*
X277526Y529922D01*
X277597Y529963D01*
X277669Y530002D01*
X277744Y530037D01*
X277820Y530068D01*
X277897Y530096D01*
X277975Y530120D01*
X278055Y530141D01*
X278135Y530158D01*
X278216Y530171D01*
X278298Y530180D01*
X278380Y530186D01*
X278462Y530188D01*
X281425Y530188D01*
X271988Y519520D02*
X270803Y519520D01*
X267247Y530188D01*
X271988Y530188D02*
X269618Y523076D01*
X251669Y529003D02*
X249891Y529003D01*
X249891Y523076D01*
X253447Y523076D01*
X253542Y523078D01*
X253638Y523084D01*
X253733Y523093D01*
X253827Y523107D01*
X253921Y523124D01*
X254014Y523145D01*
X254107Y523170D01*
X254198Y523198D01*
X254288Y523230D01*
X254376Y523266D01*
X254463Y523305D01*
X254549Y523348D01*
X254633Y523394D01*
X254714Y523443D01*
X254794Y523496D01*
X254871Y523552D01*
X254947Y523610D01*
X255019Y523672D01*
X255089Y523737D01*
X255157Y523805D01*
X255222Y523875D01*
X255284Y523947D01*
X255342Y524023D01*
X255398Y524100D01*
X255451Y524180D01*
X255500Y524262D01*
X255546Y524345D01*
X255589Y524431D01*
X255628Y524518D01*
X255664Y524606D01*
X255696Y524696D01*
X255724Y524787D01*
X255749Y524880D01*
X255770Y524973D01*
X255787Y525067D01*
X255801Y525161D01*
X255810Y525256D01*
X255816Y525352D01*
X255818Y525447D01*
X255817Y525447D02*
X255817Y531373D01*
X255815Y531468D01*
X255809Y531564D01*
X255800Y531659D01*
X255786Y531753D01*
X255769Y531847D01*
X255748Y531940D01*
X255723Y532033D01*
X255695Y532124D01*
X255663Y532214D01*
X255627Y532302D01*
X255588Y532389D01*
X255545Y532475D01*
X255499Y532558D01*
X255450Y532640D01*
X255397Y532720D01*
X255341Y532797D01*
X255283Y532873D01*
X255221Y532945D01*
X255156Y533015D01*
X255088Y533083D01*
X255018Y533148D01*
X254946Y533210D01*
X254870Y533268D01*
X254793Y533324D01*
X254713Y533377D01*
X254632Y533426D01*
X254548Y533472D01*
X254462Y533515D01*
X254375Y533554D01*
X254287Y533590D01*
X254197Y533622D01*
X254106Y533650D01*
X254013Y533675D01*
X253920Y533696D01*
X253826Y533713D01*
X253732Y533727D01*
X253637Y533736D01*
X253542Y533742D01*
X253446Y533744D01*
X253447Y533744D02*
X249891Y533744D01*
X243625Y533744D02*
X243625Y523076D01*
X243625Y533744D02*
X240662Y533744D01*
X240554Y533742D01*
X240446Y533736D01*
X240338Y533726D01*
X240231Y533712D01*
X240124Y533695D01*
X240018Y533673D01*
X239913Y533648D01*
X239808Y533618D01*
X239705Y533585D01*
X239604Y533548D01*
X239503Y533508D01*
X239404Y533464D01*
X239307Y533416D01*
X239212Y533365D01*
X239118Y533310D01*
X239027Y533252D01*
X238938Y533191D01*
X238851Y533126D01*
X238767Y533059D01*
X238685Y532988D01*
X238605Y532914D01*
X238529Y532838D01*
X238455Y532758D01*
X238385Y532676D01*
X238317Y532592D01*
X238252Y532505D01*
X238191Y532416D01*
X238133Y532325D01*
X238078Y532231D01*
X238027Y532136D01*
X237979Y532039D01*
X237935Y531940D01*
X237895Y531839D01*
X237858Y531738D01*
X237825Y531635D01*
X237795Y531530D01*
X237770Y531425D01*
X237748Y531319D01*
X237731Y531212D01*
X237717Y531105D01*
X237707Y530997D01*
X237701Y530889D01*
X237699Y530781D01*
X237699Y526039D01*
X237701Y525933D01*
X237707Y525828D01*
X237716Y525722D01*
X237729Y525617D01*
X237746Y525513D01*
X237767Y525409D01*
X237791Y525306D01*
X237819Y525204D01*
X237851Y525103D01*
X237886Y525004D01*
X237925Y524905D01*
X237967Y524808D01*
X238012Y524713D01*
X238061Y524619D01*
X238114Y524527D01*
X238169Y524437D01*
X238228Y524349D01*
X238290Y524263D01*
X238355Y524180D01*
X238423Y524099D01*
X238493Y524020D01*
X238567Y523944D01*
X238643Y523870D01*
X238722Y523800D01*
X238803Y523732D01*
X238886Y523667D01*
X238972Y523605D01*
X239060Y523546D01*
X239150Y523491D01*
X239242Y523438D01*
X239336Y523389D01*
X239431Y523344D01*
X239528Y523302D01*
X239627Y523263D01*
X239726Y523228D01*
X239827Y523196D01*
X239929Y523168D01*
X240032Y523144D01*
X240136Y523123D01*
X240240Y523106D01*
X240345Y523093D01*
X240451Y523084D01*
X240556Y523078D01*
X240662Y523076D01*
X243625Y523076D01*
X229493Y523076D02*
X227123Y523076D01*
X229493Y523076D02*
X229588Y523078D01*
X229684Y523084D01*
X229779Y523093D01*
X229873Y523107D01*
X229967Y523124D01*
X230060Y523145D01*
X230153Y523170D01*
X230244Y523198D01*
X230334Y523230D01*
X230422Y523266D01*
X230509Y523305D01*
X230595Y523348D01*
X230679Y523394D01*
X230760Y523443D01*
X230840Y523496D01*
X230917Y523552D01*
X230993Y523610D01*
X231065Y523672D01*
X231135Y523737D01*
X231203Y523805D01*
X231268Y523875D01*
X231330Y523947D01*
X231388Y524023D01*
X231444Y524100D01*
X231497Y524180D01*
X231546Y524262D01*
X231592Y524345D01*
X231635Y524431D01*
X231674Y524518D01*
X231710Y524606D01*
X231742Y524696D01*
X231770Y524787D01*
X231795Y524880D01*
X231816Y524973D01*
X231833Y525067D01*
X231847Y525161D01*
X231856Y525256D01*
X231862Y525352D01*
X231864Y525447D01*
X231864Y531373D01*
X231862Y531468D01*
X231856Y531564D01*
X231847Y531659D01*
X231833Y531753D01*
X231816Y531847D01*
X231795Y531940D01*
X231770Y532033D01*
X231742Y532124D01*
X231710Y532214D01*
X231674Y532302D01*
X231635Y532389D01*
X231592Y532475D01*
X231546Y532558D01*
X231497Y532640D01*
X231444Y532720D01*
X231388Y532797D01*
X231330Y532873D01*
X231268Y532945D01*
X231203Y533015D01*
X231135Y533083D01*
X231065Y533148D01*
X230993Y533210D01*
X230917Y533268D01*
X230840Y533324D01*
X230760Y533377D01*
X230679Y533426D01*
X230595Y533472D01*
X230509Y533515D01*
X230422Y533554D01*
X230334Y533590D01*
X230244Y533622D01*
X230153Y533650D01*
X230060Y533675D01*
X229967Y533696D01*
X229873Y533713D01*
X229779Y533727D01*
X229684Y533736D01*
X229589Y533742D01*
X229493Y533744D01*
X227123Y533744D01*
X223116Y523076D02*
X222523Y523076D01*
X223116Y523076D02*
X223116Y523669D01*
X222523Y523669D01*
X222523Y523076D01*
X223412Y520705D01*
X211071Y523076D02*
X211071Y533744D01*
X207515Y527817D01*
X203959Y533744D01*
X203959Y523076D01*
X196089Y527225D02*
X193422Y527225D01*
X196089Y527224D02*
X196178Y527222D01*
X196267Y527216D01*
X196356Y527207D01*
X196444Y527193D01*
X196532Y527176D01*
X196619Y527155D01*
X196704Y527131D01*
X196789Y527102D01*
X196872Y527070D01*
X196954Y527035D01*
X197035Y526996D01*
X197113Y526954D01*
X197190Y526908D01*
X197264Y526859D01*
X197337Y526807D01*
X197407Y526751D01*
X197475Y526693D01*
X197540Y526632D01*
X197602Y526568D01*
X197662Y526502D01*
X197718Y526433D01*
X197772Y526362D01*
X197823Y526288D01*
X197870Y526213D01*
X197914Y526135D01*
X197955Y526056D01*
X197992Y525975D01*
X198026Y525892D01*
X198056Y525808D01*
X198082Y525723D01*
X198105Y525636D01*
X198124Y525549D01*
X198140Y525461D01*
X198151Y525373D01*
X198159Y525284D01*
X198163Y525195D01*
X198163Y525105D01*
X198159Y525016D01*
X198151Y524927D01*
X198140Y524839D01*
X198124Y524751D01*
X198105Y524664D01*
X198082Y524577D01*
X198056Y524492D01*
X198026Y524408D01*
X197992Y524325D01*
X197955Y524244D01*
X197914Y524165D01*
X197870Y524087D01*
X197823Y524012D01*
X197772Y523938D01*
X197718Y523867D01*
X197662Y523798D01*
X197602Y523732D01*
X197540Y523668D01*
X197475Y523607D01*
X197407Y523549D01*
X197337Y523493D01*
X197264Y523441D01*
X197190Y523392D01*
X197113Y523346D01*
X197035Y523304D01*
X196954Y523265D01*
X196872Y523230D01*
X196789Y523198D01*
X196704Y523169D01*
X196619Y523145D01*
X196532Y523124D01*
X196444Y523107D01*
X196356Y523093D01*
X196267Y523084D01*
X196178Y523078D01*
X196089Y523076D01*
X193422Y523076D01*
X193422Y528410D01*
X193424Y528492D01*
X193430Y528574D01*
X193439Y528656D01*
X193452Y528737D01*
X193469Y528817D01*
X193490Y528897D01*
X193514Y528975D01*
X193542Y529052D01*
X193573Y529128D01*
X193608Y529203D01*
X193647Y529275D01*
X193688Y529346D01*
X193733Y529415D01*
X193781Y529481D01*
X193832Y529546D01*
X193886Y529608D01*
X193943Y529667D01*
X194002Y529724D01*
X194064Y529778D01*
X194129Y529829D01*
X194195Y529877D01*
X194264Y529922D01*
X194335Y529963D01*
X194407Y530002D01*
X194482Y530037D01*
X194558Y530068D01*
X194635Y530096D01*
X194713Y530120D01*
X194793Y530141D01*
X194873Y530158D01*
X194954Y530171D01*
X195036Y530180D01*
X195118Y530186D01*
X195200Y530188D01*
X197570Y530188D01*
X188169Y519520D02*
X186983Y519520D01*
X183427Y530188D01*
X188169Y530188D02*
X185798Y523076D01*
X169119Y533744D02*
X169017Y533742D01*
X168915Y533736D01*
X168813Y533726D01*
X168712Y533713D01*
X168611Y533695D01*
X168511Y533674D01*
X168412Y533649D01*
X168314Y533620D01*
X168217Y533587D01*
X168122Y533551D01*
X168028Y533511D01*
X167936Y533467D01*
X167845Y533420D01*
X167756Y533369D01*
X167669Y533316D01*
X167585Y533258D01*
X167502Y533198D01*
X167422Y533135D01*
X167345Y533068D01*
X167270Y532999D01*
X167197Y532926D01*
X167128Y532851D01*
X167061Y532774D01*
X166998Y532694D01*
X166938Y532611D01*
X166880Y532527D01*
X166827Y532440D01*
X166776Y532351D01*
X166729Y532260D01*
X166685Y532168D01*
X166645Y532074D01*
X166609Y531978D01*
X166576Y531882D01*
X166547Y531784D01*
X166522Y531685D01*
X166501Y531585D01*
X166483Y531484D01*
X166470Y531383D01*
X166460Y531281D01*
X166454Y531179D01*
X166452Y531077D01*
X169119Y533744D02*
X169235Y533742D01*
X169352Y533736D01*
X169468Y533726D01*
X169583Y533712D01*
X169698Y533695D01*
X169813Y533673D01*
X169926Y533647D01*
X170039Y533618D01*
X170151Y533585D01*
X170261Y533548D01*
X170370Y533507D01*
X170478Y533463D01*
X170584Y533415D01*
X170688Y533363D01*
X170791Y533308D01*
X170892Y533250D01*
X170990Y533188D01*
X171087Y533123D01*
X171181Y533054D01*
X171273Y532982D01*
X171362Y532908D01*
X171449Y532830D01*
X171533Y532749D01*
X171614Y532666D01*
X171692Y532580D01*
X171768Y532491D01*
X171840Y532400D01*
X171909Y532306D01*
X171975Y532210D01*
X172038Y532112D01*
X172097Y532012D01*
X172153Y531910D01*
X172205Y531806D01*
X172254Y531700D01*
X172299Y531592D01*
X172341Y531484D01*
X172378Y531373D01*
X167340Y529002D02*
X167265Y529076D01*
X167193Y529153D01*
X167124Y529233D01*
X167057Y529315D01*
X166994Y529399D01*
X166934Y529486D01*
X166877Y529574D01*
X166823Y529665D01*
X166773Y529758D01*
X166726Y529852D01*
X166683Y529948D01*
X166643Y530046D01*
X166607Y530145D01*
X166574Y530245D01*
X166546Y530347D01*
X166521Y530449D01*
X166499Y530553D01*
X166482Y530657D01*
X166468Y530761D01*
X166459Y530866D01*
X166453Y530972D01*
X166451Y531077D01*
X167341Y529003D02*
X172378Y523076D01*
X166452Y523076D01*
X160948Y528410D02*
X160945Y528620D01*
X160938Y528830D01*
X160925Y529039D01*
X160908Y529248D01*
X160885Y529457D01*
X160858Y529665D01*
X160826Y529872D01*
X160788Y530079D01*
X160746Y530284D01*
X160699Y530489D01*
X160647Y530692D01*
X160590Y530894D01*
X160528Y531095D01*
X160462Y531294D01*
X160390Y531491D01*
X160314Y531687D01*
X160234Y531881D01*
X160149Y532073D01*
X160059Y532262D01*
X160028Y532347D01*
X159994Y532431D01*
X159956Y532513D01*
X159914Y532594D01*
X159869Y532673D01*
X159821Y532750D01*
X159770Y532825D01*
X159716Y532897D01*
X159659Y532968D01*
X159599Y533036D01*
X159536Y533101D01*
X159471Y533164D01*
X159403Y533224D01*
X159332Y533281D01*
X159260Y533335D01*
X159185Y533387D01*
X159108Y533435D01*
X159029Y533480D01*
X158948Y533521D01*
X158866Y533559D01*
X158782Y533594D01*
X158697Y533625D01*
X158611Y533653D01*
X158524Y533677D01*
X158435Y533697D01*
X158346Y533714D01*
X158256Y533727D01*
X158166Y533737D01*
X158076Y533742D01*
X157985Y533744D01*
X157894Y533742D01*
X157804Y533737D01*
X157714Y533727D01*
X157624Y533714D01*
X157535Y533697D01*
X157446Y533677D01*
X157359Y533653D01*
X157273Y533625D01*
X157188Y533594D01*
X157104Y533559D01*
X157022Y533521D01*
X156941Y533480D01*
X156862Y533435D01*
X156785Y533387D01*
X156710Y533336D01*
X156638Y533281D01*
X156567Y533224D01*
X156499Y533164D01*
X156434Y533101D01*
X156371Y533036D01*
X156311Y532968D01*
X156254Y532897D01*
X156200Y532825D01*
X156149Y532750D01*
X156101Y532673D01*
X156056Y532594D01*
X156014Y532513D01*
X155976Y532431D01*
X155942Y532347D01*
X155911Y532262D01*
X155821Y532073D01*
X155736Y531881D01*
X155656Y531687D01*
X155580Y531491D01*
X155508Y531294D01*
X155442Y531095D01*
X155380Y530894D01*
X155323Y530692D01*
X155271Y530489D01*
X155224Y530284D01*
X155182Y530079D01*
X155144Y529872D01*
X155112Y529665D01*
X155085Y529457D01*
X155062Y529248D01*
X155045Y529039D01*
X155032Y528830D01*
X155025Y528620D01*
X155022Y528410D01*
X160948Y528410D02*
X160945Y528200D01*
X160938Y527990D01*
X160925Y527781D01*
X160908Y527572D01*
X160885Y527363D01*
X160858Y527155D01*
X160826Y526948D01*
X160788Y526741D01*
X160746Y526536D01*
X160699Y526331D01*
X160647Y526128D01*
X160590Y525926D01*
X160528Y525725D01*
X160462Y525526D01*
X160390Y525329D01*
X160314Y525133D01*
X160234Y524939D01*
X160149Y524748D01*
X160059Y524558D01*
X160028Y524473D01*
X159994Y524389D01*
X159956Y524307D01*
X159914Y524226D01*
X159869Y524147D01*
X159821Y524070D01*
X159770Y523995D01*
X159716Y523923D01*
X159659Y523852D01*
X159599Y523784D01*
X159536Y523719D01*
X159471Y523656D01*
X159403Y523596D01*
X159332Y523539D01*
X159260Y523484D01*
X159185Y523433D01*
X159108Y523385D01*
X159029Y523340D01*
X158948Y523299D01*
X158866Y523261D01*
X158782Y523226D01*
X158697Y523195D01*
X158611Y523167D01*
X158524Y523143D01*
X158435Y523123D01*
X158346Y523106D01*
X158256Y523093D01*
X158166Y523083D01*
X158076Y523078D01*
X157985Y523076D01*
X155911Y524558D02*
X155821Y524748D01*
X155736Y524939D01*
X155656Y525133D01*
X155580Y525329D01*
X155508Y525526D01*
X155442Y525725D01*
X155380Y525926D01*
X155323Y526128D01*
X155271Y526331D01*
X155224Y526536D01*
X155182Y526741D01*
X155144Y526948D01*
X155112Y527155D01*
X155085Y527363D01*
X155062Y527572D01*
X155045Y527781D01*
X155032Y527990D01*
X155025Y528200D01*
X155022Y528410D01*
X155911Y524558D02*
X155942Y524473D01*
X155976Y524389D01*
X156015Y524307D01*
X156056Y524226D01*
X156101Y524147D01*
X156149Y524070D01*
X156200Y523995D01*
X156254Y523923D01*
X156311Y523852D01*
X156371Y523784D01*
X156434Y523719D01*
X156499Y523656D01*
X156567Y523596D01*
X156638Y523539D01*
X156710Y523484D01*
X156785Y523433D01*
X156862Y523385D01*
X156941Y523340D01*
X157022Y523299D01*
X157104Y523261D01*
X157188Y523226D01*
X157273Y523195D01*
X157359Y523167D01*
X157446Y523143D01*
X157535Y523123D01*
X157624Y523106D01*
X157714Y523093D01*
X157804Y523083D01*
X157894Y523078D01*
X157985Y523076D01*
X160356Y525447D02*
X155614Y531373D01*
X149518Y531373D02*
X146555Y533744D01*
X146555Y523076D01*
X149518Y523076D02*
X143592Y523076D01*
X135718Y527817D02*
X132162Y527817D01*
X135718Y527817D02*
X135813Y527819D01*
X135909Y527825D01*
X136004Y527834D01*
X136098Y527848D01*
X136192Y527865D01*
X136285Y527886D01*
X136378Y527911D01*
X136469Y527939D01*
X136559Y527971D01*
X136647Y528007D01*
X136734Y528046D01*
X136820Y528089D01*
X136904Y528135D01*
X136985Y528184D01*
X137065Y528237D01*
X137142Y528293D01*
X137218Y528351D01*
X137290Y528413D01*
X137360Y528478D01*
X137428Y528546D01*
X137493Y528616D01*
X137555Y528688D01*
X137613Y528764D01*
X137669Y528841D01*
X137722Y528921D01*
X137771Y529003D01*
X137817Y529086D01*
X137860Y529172D01*
X137899Y529259D01*
X137935Y529347D01*
X137967Y529437D01*
X137995Y529528D01*
X138020Y529621D01*
X138041Y529714D01*
X138058Y529808D01*
X138072Y529902D01*
X138081Y529997D01*
X138087Y530093D01*
X138089Y530188D01*
X138088Y530188D02*
X138088Y530781D01*
X138086Y530888D01*
X138080Y530995D01*
X138071Y531101D01*
X138057Y531207D01*
X138040Y531313D01*
X138019Y531418D01*
X137994Y531522D01*
X137965Y531625D01*
X137933Y531727D01*
X137897Y531828D01*
X137857Y531927D01*
X137814Y532025D01*
X137767Y532121D01*
X137717Y532216D01*
X137664Y532309D01*
X137607Y532399D01*
X137547Y532488D01*
X137484Y532574D01*
X137418Y532658D01*
X137348Y532740D01*
X137276Y532819D01*
X137201Y532895D01*
X137123Y532969D01*
X137043Y533039D01*
X136960Y533107D01*
X136875Y533172D01*
X136788Y533233D01*
X136698Y533292D01*
X136607Y533347D01*
X136513Y533399D01*
X136417Y533447D01*
X136320Y533492D01*
X136222Y533534D01*
X136122Y533571D01*
X136020Y533606D01*
X135918Y533636D01*
X135814Y533663D01*
X135710Y533686D01*
X135604Y533705D01*
X135498Y533720D01*
X135392Y533732D01*
X135285Y533740D01*
X135178Y533744D01*
X135072Y533744D01*
X134965Y533740D01*
X134858Y533732D01*
X134752Y533720D01*
X134646Y533705D01*
X134540Y533686D01*
X134436Y533663D01*
X134332Y533636D01*
X134230Y533606D01*
X134128Y533571D01*
X134028Y533534D01*
X133930Y533492D01*
X133833Y533447D01*
X133737Y533399D01*
X133644Y533347D01*
X133552Y533292D01*
X133462Y533233D01*
X133375Y533172D01*
X133290Y533107D01*
X133207Y533039D01*
X133127Y532969D01*
X133049Y532895D01*
X132974Y532819D01*
X132902Y532740D01*
X132832Y532658D01*
X132766Y532574D01*
X132703Y532488D01*
X132643Y532399D01*
X132586Y532309D01*
X132533Y532216D01*
X132483Y532121D01*
X132436Y532025D01*
X132393Y531927D01*
X132353Y531828D01*
X132317Y531727D01*
X132285Y531625D01*
X132256Y531522D01*
X132231Y531418D01*
X132210Y531313D01*
X132193Y531207D01*
X132179Y531101D01*
X132170Y530995D01*
X132164Y530888D01*
X132162Y530781D01*
X132162Y527817D01*
X132164Y527682D01*
X132170Y527546D01*
X132179Y527411D01*
X132193Y527277D01*
X132210Y527142D01*
X132231Y527009D01*
X132256Y526875D01*
X132285Y526743D01*
X132318Y526612D01*
X132354Y526481D01*
X132394Y526352D01*
X132438Y526224D01*
X132485Y526097D01*
X132536Y525971D01*
X132590Y525848D01*
X132648Y525725D01*
X132710Y525605D01*
X132775Y525486D01*
X132843Y525369D01*
X132915Y525254D01*
X132989Y525141D01*
X133067Y525030D01*
X133149Y524922D01*
X133233Y524816D01*
X133320Y524712D01*
X133410Y524611D01*
X133503Y524513D01*
X133599Y524417D01*
X133697Y524324D01*
X133798Y524234D01*
X133902Y524147D01*
X134008Y524063D01*
X134116Y523981D01*
X134227Y523903D01*
X134340Y523829D01*
X134455Y523757D01*
X134572Y523689D01*
X134691Y523624D01*
X134811Y523562D01*
X134934Y523504D01*
X135057Y523450D01*
X135183Y523399D01*
X135310Y523352D01*
X135438Y523308D01*
X135567Y523268D01*
X135698Y523232D01*
X135829Y523199D01*
X135962Y523170D01*
X136095Y523145D01*
X136228Y523124D01*
X136363Y523107D01*
X136497Y523093D01*
X136632Y523084D01*
X136768Y523078D01*
X136903Y523076D01*
X365164Y514694D02*
X365164Y504026D01*
X365164Y514694D02*
X362201Y514694D01*
X362093Y514692D01*
X361985Y514686D01*
X361877Y514676D01*
X361770Y514662D01*
X361663Y514645D01*
X361557Y514623D01*
X361452Y514598D01*
X361347Y514568D01*
X361244Y514535D01*
X361143Y514498D01*
X361042Y514458D01*
X360943Y514414D01*
X360846Y514366D01*
X360751Y514315D01*
X360657Y514260D01*
X360566Y514202D01*
X360477Y514141D01*
X360390Y514076D01*
X360306Y514009D01*
X360224Y513938D01*
X360144Y513864D01*
X360068Y513788D01*
X359994Y513708D01*
X359924Y513626D01*
X359856Y513542D01*
X359791Y513455D01*
X359730Y513366D01*
X359672Y513275D01*
X359617Y513181D01*
X359566Y513086D01*
X359518Y512989D01*
X359474Y512890D01*
X359434Y512789D01*
X359397Y512688D01*
X359364Y512585D01*
X359334Y512480D01*
X359309Y512375D01*
X359287Y512269D01*
X359270Y512162D01*
X359256Y512055D01*
X359246Y511947D01*
X359240Y511839D01*
X359238Y511731D01*
X359237Y511731D02*
X359237Y506989D01*
X359238Y506989D02*
X359240Y506883D01*
X359246Y506778D01*
X359255Y506672D01*
X359268Y506567D01*
X359285Y506463D01*
X359306Y506359D01*
X359330Y506256D01*
X359358Y506154D01*
X359390Y506053D01*
X359425Y505954D01*
X359464Y505855D01*
X359506Y505758D01*
X359551Y505663D01*
X359600Y505569D01*
X359653Y505477D01*
X359708Y505387D01*
X359767Y505299D01*
X359829Y505213D01*
X359894Y505130D01*
X359962Y505049D01*
X360032Y504970D01*
X360106Y504894D01*
X360182Y504820D01*
X360261Y504750D01*
X360342Y504682D01*
X360425Y504617D01*
X360511Y504555D01*
X360599Y504496D01*
X360689Y504441D01*
X360781Y504388D01*
X360875Y504339D01*
X360970Y504294D01*
X361067Y504252D01*
X361166Y504213D01*
X361265Y504178D01*
X361366Y504146D01*
X361468Y504118D01*
X361571Y504094D01*
X361675Y504073D01*
X361779Y504056D01*
X361884Y504043D01*
X361990Y504034D01*
X362095Y504028D01*
X362201Y504026D01*
X365164Y504026D01*
X352938Y504026D02*
X348197Y504026D01*
X352938Y504026D02*
X352938Y514694D01*
X348197Y514694D01*
X349382Y509953D02*
X352938Y509953D01*
X344040Y514694D02*
X340484Y504026D01*
X336928Y514694D01*
X332844Y504026D02*
X332251Y504026D01*
X332844Y504026D02*
X332844Y504619D01*
X332251Y504619D01*
X332251Y504026D01*
X333140Y501655D01*
X318174Y504026D02*
X318079Y504028D01*
X317983Y504034D01*
X317888Y504043D01*
X317794Y504057D01*
X317700Y504074D01*
X317607Y504095D01*
X317514Y504120D01*
X317423Y504148D01*
X317333Y504180D01*
X317245Y504216D01*
X317158Y504255D01*
X317072Y504298D01*
X316989Y504344D01*
X316907Y504393D01*
X316827Y504446D01*
X316750Y504502D01*
X316674Y504560D01*
X316602Y504622D01*
X316532Y504687D01*
X316464Y504755D01*
X316399Y504825D01*
X316337Y504897D01*
X316279Y504973D01*
X316223Y505050D01*
X316170Y505130D01*
X316121Y505212D01*
X316075Y505295D01*
X316032Y505381D01*
X315993Y505468D01*
X315957Y505556D01*
X315925Y505646D01*
X315897Y505737D01*
X315872Y505830D01*
X315851Y505923D01*
X315834Y506017D01*
X315820Y506111D01*
X315811Y506206D01*
X315805Y506302D01*
X315803Y506397D01*
X318174Y504026D02*
X318310Y504028D01*
X318447Y504033D01*
X318583Y504043D01*
X318718Y504056D01*
X318854Y504072D01*
X318988Y504093D01*
X319123Y504117D01*
X319256Y504144D01*
X319389Y504176D01*
X319521Y504210D01*
X319652Y504249D01*
X319781Y504291D01*
X319910Y504336D01*
X320037Y504385D01*
X320163Y504438D01*
X320287Y504494D01*
X320410Y504553D01*
X320531Y504615D01*
X320651Y504681D01*
X320768Y504750D01*
X320884Y504823D01*
X320998Y504898D01*
X321109Y504976D01*
X321218Y505058D01*
X321326Y505142D01*
X321430Y505229D01*
X321533Y505319D01*
X321633Y505412D01*
X321730Y505508D01*
X321434Y512323D02*
X321432Y512418D01*
X321426Y512514D01*
X321417Y512609D01*
X321403Y512703D01*
X321386Y512797D01*
X321365Y512890D01*
X321340Y512983D01*
X321312Y513074D01*
X321280Y513164D01*
X321244Y513252D01*
X321205Y513339D01*
X321162Y513425D01*
X321116Y513509D01*
X321067Y513590D01*
X321014Y513670D01*
X320958Y513747D01*
X320900Y513823D01*
X320838Y513895D01*
X320773Y513965D01*
X320705Y514033D01*
X320635Y514098D01*
X320563Y514160D01*
X320487Y514218D01*
X320410Y514274D01*
X320330Y514327D01*
X320249Y514376D01*
X320165Y514422D01*
X320079Y514465D01*
X319992Y514504D01*
X319904Y514540D01*
X319814Y514572D01*
X319723Y514600D01*
X319630Y514625D01*
X319537Y514646D01*
X319443Y514663D01*
X319349Y514677D01*
X319254Y514686D01*
X319158Y514692D01*
X319063Y514694D01*
X318933Y514692D01*
X318803Y514686D01*
X318673Y514677D01*
X318544Y514664D01*
X318415Y514647D01*
X318287Y514626D01*
X318159Y514601D01*
X318032Y514573D01*
X317906Y514541D01*
X317781Y514505D01*
X317657Y514466D01*
X317535Y514423D01*
X317413Y514377D01*
X317293Y514326D01*
X317175Y514273D01*
X317058Y514216D01*
X316943Y514156D01*
X316829Y514092D01*
X316718Y514025D01*
X316608Y513955D01*
X316501Y513881D01*
X316396Y513805D01*
X320249Y510248D02*
X320330Y510299D01*
X320410Y510353D01*
X320488Y510409D01*
X320563Y510469D01*
X320636Y510532D01*
X320706Y510598D01*
X320773Y510666D01*
X320838Y510737D01*
X320900Y510811D01*
X320959Y510887D01*
X321015Y510965D01*
X321067Y511046D01*
X321117Y511128D01*
X321163Y511213D01*
X321205Y511299D01*
X321245Y511387D01*
X321280Y511476D01*
X321312Y511567D01*
X321341Y511659D01*
X321365Y511752D01*
X321386Y511845D01*
X321403Y511940D01*
X321417Y512035D01*
X321426Y512131D01*
X321432Y512227D01*
X321434Y512323D01*
X316989Y508472D02*
X316907Y508421D01*
X316827Y508367D01*
X316749Y508311D01*
X316674Y508251D01*
X316601Y508188D01*
X316531Y508122D01*
X316464Y508054D01*
X316399Y507983D01*
X316337Y507909D01*
X316278Y507833D01*
X316222Y507755D01*
X316170Y507674D01*
X316120Y507592D01*
X316074Y507507D01*
X316032Y507421D01*
X315992Y507333D01*
X315957Y507244D01*
X315925Y507153D01*
X315896Y507061D01*
X315872Y506968D01*
X315851Y506875D01*
X315834Y506780D01*
X315820Y506685D01*
X315811Y506589D01*
X315805Y506493D01*
X315803Y506397D01*
X316989Y508471D02*
X320248Y510249D01*
X310469Y514694D02*
X310469Y504026D01*
X310469Y511138D02*
X307506Y511138D01*
X307424Y511136D01*
X307342Y511130D01*
X307260Y511121D01*
X307179Y511108D01*
X307099Y511091D01*
X307019Y511070D01*
X306941Y511046D01*
X306864Y511018D01*
X306788Y510987D01*
X306713Y510952D01*
X306641Y510913D01*
X306570Y510872D01*
X306501Y510827D01*
X306435Y510779D01*
X306370Y510728D01*
X306308Y510674D01*
X306249Y510617D01*
X306192Y510558D01*
X306138Y510496D01*
X306087Y510431D01*
X306039Y510365D01*
X305994Y510296D01*
X305953Y510225D01*
X305914Y510153D01*
X305879Y510078D01*
X305848Y510002D01*
X305820Y509925D01*
X305796Y509847D01*
X305775Y509767D01*
X305758Y509687D01*
X305745Y509606D01*
X305736Y509524D01*
X305730Y509442D01*
X305728Y509360D01*
X305728Y504026D01*
X298404Y504026D02*
X295441Y504026D01*
X298404Y504026D02*
X298486Y504028D01*
X298568Y504034D01*
X298650Y504043D01*
X298731Y504056D01*
X298811Y504073D01*
X298891Y504094D01*
X298969Y504118D01*
X299046Y504146D01*
X299122Y504177D01*
X299197Y504212D01*
X299269Y504251D01*
X299340Y504292D01*
X299409Y504337D01*
X299475Y504385D01*
X299540Y504436D01*
X299602Y504490D01*
X299661Y504547D01*
X299718Y504606D01*
X299772Y504668D01*
X299823Y504733D01*
X299871Y504799D01*
X299916Y504868D01*
X299957Y504939D01*
X299996Y505011D01*
X300031Y505086D01*
X300062Y505162D01*
X300090Y505239D01*
X300114Y505317D01*
X300135Y505397D01*
X300152Y505477D01*
X300165Y505558D01*
X300174Y505640D01*
X300180Y505722D01*
X300182Y505804D01*
X300182Y508767D01*
X300183Y508767D02*
X300181Y508864D01*
X300175Y508960D01*
X300165Y509056D01*
X300151Y509152D01*
X300134Y509247D01*
X300112Y509342D01*
X300087Y509435D01*
X300058Y509527D01*
X300025Y509618D01*
X299988Y509708D01*
X299948Y509796D01*
X299904Y509882D01*
X299857Y509966D01*
X299807Y510049D01*
X299753Y510129D01*
X299695Y510207D01*
X299635Y510283D01*
X299572Y510356D01*
X299506Y510426D01*
X299436Y510494D01*
X299365Y510559D01*
X299290Y510621D01*
X299213Y510679D01*
X299134Y510735D01*
X299053Y510787D01*
X298969Y510836D01*
X298884Y510882D01*
X298797Y510924D01*
X298708Y510962D01*
X298618Y510997D01*
X298526Y511028D01*
X298433Y511055D01*
X298340Y511079D01*
X298245Y511098D01*
X298149Y511114D01*
X298053Y511126D01*
X297957Y511134D01*
X297860Y511138D01*
X297764Y511138D01*
X297667Y511134D01*
X297571Y511126D01*
X297475Y511114D01*
X297379Y511098D01*
X297284Y511079D01*
X297191Y511055D01*
X297098Y511028D01*
X297006Y510997D01*
X296916Y510962D01*
X296827Y510924D01*
X296740Y510882D01*
X296655Y510836D01*
X296571Y510787D01*
X296490Y510735D01*
X296411Y510679D01*
X296334Y510621D01*
X296259Y510559D01*
X296188Y510494D01*
X296118Y510426D01*
X296052Y510356D01*
X295989Y510283D01*
X295929Y510207D01*
X295871Y510129D01*
X295817Y510049D01*
X295767Y509966D01*
X295720Y509882D01*
X295676Y509796D01*
X295636Y509708D01*
X295599Y509618D01*
X295566Y509527D01*
X295537Y509435D01*
X295512Y509342D01*
X295490Y509247D01*
X295473Y509152D01*
X295459Y509056D01*
X295449Y508960D01*
X295443Y508864D01*
X295441Y508767D01*
X295441Y507582D01*
X300182Y507582D01*
X290243Y505804D02*
X290243Y514694D01*
X290243Y505804D02*
X290241Y505722D01*
X290235Y505640D01*
X290226Y505558D01*
X290213Y505477D01*
X290196Y505397D01*
X290175Y505317D01*
X290151Y505239D01*
X290123Y505162D01*
X290092Y505086D01*
X290057Y505011D01*
X290018Y504939D01*
X289977Y504868D01*
X289932Y504799D01*
X289884Y504733D01*
X289833Y504668D01*
X289779Y504606D01*
X289722Y504547D01*
X289663Y504490D01*
X289601Y504436D01*
X289536Y504385D01*
X289470Y504337D01*
X289401Y504292D01*
X289330Y504251D01*
X289258Y504212D01*
X289183Y504177D01*
X289107Y504146D01*
X289030Y504118D01*
X288952Y504094D01*
X288872Y504073D01*
X288792Y504056D01*
X288711Y504043D01*
X288629Y504034D01*
X288547Y504028D01*
X288465Y504026D01*
X284147Y505804D02*
X284147Y514694D01*
X284147Y505804D02*
X284145Y505722D01*
X284139Y505640D01*
X284130Y505558D01*
X284117Y505477D01*
X284100Y505397D01*
X284079Y505317D01*
X284055Y505239D01*
X284027Y505162D01*
X283996Y505086D01*
X283961Y505011D01*
X283922Y504939D01*
X283881Y504868D01*
X283836Y504799D01*
X283788Y504733D01*
X283737Y504668D01*
X283683Y504606D01*
X283626Y504547D01*
X283567Y504490D01*
X283505Y504436D01*
X283440Y504385D01*
X283374Y504337D01*
X283305Y504292D01*
X283234Y504251D01*
X283162Y504212D01*
X283087Y504177D01*
X283011Y504146D01*
X282934Y504118D01*
X282856Y504094D01*
X282776Y504073D01*
X282696Y504056D01*
X282615Y504043D01*
X282533Y504034D01*
X282451Y504028D01*
X282369Y504026D01*
X271404Y504026D02*
X266663Y504026D01*
X271404Y504026D02*
X271404Y514694D01*
X266663Y514694D01*
X267848Y509953D02*
X271404Y509953D01*
X260285Y504026D02*
X257914Y504026D01*
X260285Y504026D02*
X260367Y504028D01*
X260449Y504034D01*
X260531Y504043D01*
X260612Y504056D01*
X260692Y504073D01*
X260772Y504094D01*
X260850Y504118D01*
X260927Y504146D01*
X261003Y504177D01*
X261078Y504212D01*
X261150Y504251D01*
X261221Y504292D01*
X261290Y504337D01*
X261356Y504385D01*
X261421Y504436D01*
X261483Y504490D01*
X261542Y504547D01*
X261599Y504606D01*
X261653Y504668D01*
X261704Y504733D01*
X261752Y504799D01*
X261797Y504868D01*
X261838Y504939D01*
X261877Y505011D01*
X261912Y505086D01*
X261943Y505162D01*
X261971Y505239D01*
X261995Y505317D01*
X262016Y505397D01*
X262033Y505477D01*
X262046Y505558D01*
X262055Y505640D01*
X262061Y505722D01*
X262063Y505804D01*
X262063Y509360D01*
X262061Y509442D01*
X262055Y509524D01*
X262046Y509606D01*
X262033Y509687D01*
X262016Y509767D01*
X261995Y509847D01*
X261971Y509925D01*
X261943Y510002D01*
X261912Y510078D01*
X261877Y510153D01*
X261838Y510225D01*
X261797Y510296D01*
X261752Y510365D01*
X261704Y510431D01*
X261653Y510496D01*
X261599Y510558D01*
X261542Y510617D01*
X261483Y510674D01*
X261421Y510728D01*
X261356Y510779D01*
X261290Y510827D01*
X261221Y510872D01*
X261150Y510913D01*
X261078Y510952D01*
X261003Y510987D01*
X260927Y511018D01*
X260850Y511046D01*
X260772Y511070D01*
X260692Y511091D01*
X260612Y511108D01*
X260531Y511121D01*
X260449Y511130D01*
X260367Y511136D01*
X260285Y511138D01*
X257914Y511138D01*
X253320Y508767D02*
X253320Y506397D01*
X253320Y508767D02*
X253318Y508864D01*
X253312Y508960D01*
X253302Y509056D01*
X253288Y509152D01*
X253271Y509247D01*
X253249Y509342D01*
X253224Y509435D01*
X253195Y509527D01*
X253162Y509618D01*
X253125Y509708D01*
X253085Y509796D01*
X253041Y509882D01*
X252994Y509966D01*
X252944Y510049D01*
X252890Y510129D01*
X252832Y510207D01*
X252772Y510283D01*
X252709Y510356D01*
X252643Y510426D01*
X252573Y510494D01*
X252502Y510559D01*
X252427Y510621D01*
X252350Y510679D01*
X252271Y510735D01*
X252190Y510787D01*
X252106Y510836D01*
X252021Y510882D01*
X251934Y510924D01*
X251845Y510962D01*
X251755Y510997D01*
X251663Y511028D01*
X251570Y511055D01*
X251477Y511079D01*
X251382Y511098D01*
X251286Y511114D01*
X251190Y511126D01*
X251094Y511134D01*
X250997Y511138D01*
X250901Y511138D01*
X250804Y511134D01*
X250708Y511126D01*
X250612Y511114D01*
X250516Y511098D01*
X250421Y511079D01*
X250328Y511055D01*
X250235Y511028D01*
X250143Y510997D01*
X250053Y510962D01*
X249964Y510924D01*
X249877Y510882D01*
X249792Y510836D01*
X249708Y510787D01*
X249627Y510735D01*
X249548Y510679D01*
X249471Y510621D01*
X249396Y510559D01*
X249325Y510494D01*
X249255Y510426D01*
X249189Y510356D01*
X249126Y510283D01*
X249066Y510207D01*
X249008Y510129D01*
X248954Y510049D01*
X248904Y509966D01*
X248857Y509882D01*
X248813Y509796D01*
X248773Y509708D01*
X248736Y509618D01*
X248703Y509527D01*
X248674Y509435D01*
X248649Y509342D01*
X248627Y509247D01*
X248610Y509152D01*
X248596Y509056D01*
X248586Y508960D01*
X248580Y508864D01*
X248578Y508767D01*
X248578Y506397D01*
X248580Y506300D01*
X248586Y506204D01*
X248596Y506108D01*
X248610Y506012D01*
X248627Y505917D01*
X248649Y505822D01*
X248674Y505729D01*
X248703Y505637D01*
X248736Y505546D01*
X248773Y505456D01*
X248813Y505368D01*
X248857Y505282D01*
X248904Y505198D01*
X248954Y505115D01*
X249008Y505035D01*
X249066Y504957D01*
X249126Y504881D01*
X249189Y504808D01*
X249255Y504738D01*
X249325Y504670D01*
X249396Y504605D01*
X249471Y504543D01*
X249548Y504485D01*
X249627Y504429D01*
X249708Y504377D01*
X249792Y504328D01*
X249877Y504282D01*
X249964Y504240D01*
X250053Y504202D01*
X250143Y504167D01*
X250235Y504136D01*
X250328Y504109D01*
X250421Y504085D01*
X250516Y504066D01*
X250612Y504050D01*
X250708Y504038D01*
X250804Y504030D01*
X250901Y504026D01*
X250997Y504026D01*
X251094Y504030D01*
X251190Y504038D01*
X251286Y504050D01*
X251382Y504066D01*
X251477Y504085D01*
X251570Y504109D01*
X251663Y504136D01*
X251755Y504167D01*
X251845Y504202D01*
X251934Y504240D01*
X252021Y504282D01*
X252106Y504328D01*
X252190Y504377D01*
X252271Y504429D01*
X252350Y504485D01*
X252427Y504543D01*
X252502Y504605D01*
X252573Y504670D01*
X252643Y504738D01*
X252709Y504808D01*
X252772Y504881D01*
X252832Y504957D01*
X252890Y505035D01*
X252944Y505115D01*
X252994Y505198D01*
X253041Y505282D01*
X253085Y505368D01*
X253125Y505456D01*
X253162Y505546D01*
X253195Y505637D01*
X253224Y505729D01*
X253249Y505822D01*
X253271Y505917D01*
X253288Y506012D01*
X253302Y506108D01*
X253312Y506204D01*
X253318Y506300D01*
X253320Y506397D01*
X243075Y508175D02*
X235963Y508175D01*
X229740Y504026D02*
X229740Y514694D01*
X226184Y508767D01*
X222628Y514694D01*
X222628Y504026D01*
X214758Y508175D02*
X212091Y508175D01*
X214758Y508174D02*
X214847Y508172D01*
X214936Y508166D01*
X215025Y508157D01*
X215113Y508143D01*
X215201Y508126D01*
X215288Y508105D01*
X215373Y508081D01*
X215458Y508052D01*
X215541Y508020D01*
X215623Y507985D01*
X215704Y507946D01*
X215782Y507904D01*
X215859Y507858D01*
X215933Y507809D01*
X216006Y507757D01*
X216076Y507701D01*
X216144Y507643D01*
X216209Y507582D01*
X216271Y507518D01*
X216331Y507452D01*
X216387Y507383D01*
X216441Y507312D01*
X216492Y507238D01*
X216539Y507163D01*
X216583Y507085D01*
X216624Y507006D01*
X216661Y506925D01*
X216695Y506842D01*
X216725Y506758D01*
X216751Y506673D01*
X216774Y506586D01*
X216793Y506499D01*
X216809Y506411D01*
X216820Y506323D01*
X216828Y506234D01*
X216832Y506145D01*
X216832Y506055D01*
X216828Y505966D01*
X216820Y505877D01*
X216809Y505789D01*
X216793Y505701D01*
X216774Y505614D01*
X216751Y505527D01*
X216725Y505442D01*
X216695Y505358D01*
X216661Y505275D01*
X216624Y505194D01*
X216583Y505115D01*
X216539Y505037D01*
X216492Y504962D01*
X216441Y504888D01*
X216387Y504817D01*
X216331Y504748D01*
X216271Y504682D01*
X216209Y504618D01*
X216144Y504557D01*
X216076Y504499D01*
X216006Y504443D01*
X215933Y504391D01*
X215859Y504342D01*
X215782Y504296D01*
X215704Y504254D01*
X215623Y504215D01*
X215541Y504180D01*
X215458Y504148D01*
X215373Y504119D01*
X215288Y504095D01*
X215201Y504074D01*
X215113Y504057D01*
X215025Y504043D01*
X214936Y504034D01*
X214847Y504028D01*
X214758Y504026D01*
X212091Y504026D01*
X212091Y509360D01*
X212093Y509442D01*
X212099Y509524D01*
X212108Y509606D01*
X212121Y509687D01*
X212138Y509767D01*
X212159Y509847D01*
X212183Y509925D01*
X212211Y510002D01*
X212242Y510078D01*
X212277Y510153D01*
X212316Y510225D01*
X212357Y510296D01*
X212402Y510365D01*
X212450Y510431D01*
X212501Y510496D01*
X212555Y510558D01*
X212612Y510617D01*
X212671Y510674D01*
X212733Y510728D01*
X212798Y510779D01*
X212864Y510827D01*
X212933Y510872D01*
X213004Y510913D01*
X213076Y510952D01*
X213151Y510987D01*
X213227Y511018D01*
X213304Y511046D01*
X213382Y511070D01*
X213462Y511091D01*
X213542Y511108D01*
X213623Y511121D01*
X213705Y511130D01*
X213787Y511136D01*
X213869Y511138D01*
X216239Y511138D01*
X205976Y511138D02*
X205976Y504026D01*
X205976Y511138D02*
X202420Y511138D01*
X202420Y509953D01*
X196470Y508175D02*
X193803Y508175D01*
X196470Y508174D02*
X196559Y508172D01*
X196648Y508166D01*
X196737Y508157D01*
X196825Y508143D01*
X196913Y508126D01*
X197000Y508105D01*
X197085Y508081D01*
X197170Y508052D01*
X197253Y508020D01*
X197335Y507985D01*
X197416Y507946D01*
X197494Y507904D01*
X197571Y507858D01*
X197645Y507809D01*
X197718Y507757D01*
X197788Y507701D01*
X197856Y507643D01*
X197921Y507582D01*
X197983Y507518D01*
X198043Y507452D01*
X198099Y507383D01*
X198153Y507312D01*
X198204Y507238D01*
X198251Y507163D01*
X198295Y507085D01*
X198336Y507006D01*
X198373Y506925D01*
X198407Y506842D01*
X198437Y506758D01*
X198463Y506673D01*
X198486Y506586D01*
X198505Y506499D01*
X198521Y506411D01*
X198532Y506323D01*
X198540Y506234D01*
X198544Y506145D01*
X198544Y506055D01*
X198540Y505966D01*
X198532Y505877D01*
X198521Y505789D01*
X198505Y505701D01*
X198486Y505614D01*
X198463Y505527D01*
X198437Y505442D01*
X198407Y505358D01*
X198373Y505275D01*
X198336Y505194D01*
X198295Y505115D01*
X198251Y505037D01*
X198204Y504962D01*
X198153Y504888D01*
X198099Y504817D01*
X198043Y504748D01*
X197983Y504682D01*
X197921Y504618D01*
X197856Y504557D01*
X197788Y504499D01*
X197718Y504443D01*
X197645Y504391D01*
X197571Y504342D01*
X197494Y504296D01*
X197416Y504254D01*
X197335Y504215D01*
X197253Y504180D01*
X197170Y504148D01*
X197085Y504119D01*
X197000Y504095D01*
X196913Y504074D01*
X196825Y504057D01*
X196737Y504043D01*
X196648Y504034D01*
X196559Y504028D01*
X196470Y504026D01*
X193803Y504026D01*
X193803Y509360D01*
X193805Y509442D01*
X193811Y509524D01*
X193820Y509606D01*
X193833Y509687D01*
X193850Y509767D01*
X193871Y509847D01*
X193895Y509925D01*
X193923Y510002D01*
X193954Y510078D01*
X193989Y510153D01*
X194028Y510225D01*
X194069Y510296D01*
X194114Y510365D01*
X194162Y510431D01*
X194213Y510496D01*
X194267Y510558D01*
X194324Y510617D01*
X194383Y510674D01*
X194445Y510728D01*
X194510Y510779D01*
X194576Y510827D01*
X194645Y510872D01*
X194716Y510913D01*
X194788Y510952D01*
X194863Y510987D01*
X194939Y511018D01*
X195016Y511046D01*
X195094Y511070D01*
X195174Y511091D01*
X195254Y511108D01*
X195335Y511121D01*
X195417Y511130D01*
X195499Y511136D01*
X195581Y511138D01*
X197951Y511138D01*
X189239Y511138D02*
X185683Y511138D01*
X188053Y514694D02*
X188053Y505804D01*
X188051Y505722D01*
X188045Y505640D01*
X188036Y505558D01*
X188023Y505477D01*
X188006Y505397D01*
X187985Y505317D01*
X187961Y505239D01*
X187933Y505162D01*
X187902Y505086D01*
X187867Y505011D01*
X187828Y504939D01*
X187787Y504868D01*
X187742Y504799D01*
X187694Y504733D01*
X187643Y504668D01*
X187589Y504606D01*
X187532Y504547D01*
X187473Y504490D01*
X187411Y504436D01*
X187346Y504385D01*
X187280Y504337D01*
X187211Y504292D01*
X187140Y504251D01*
X187068Y504212D01*
X186993Y504177D01*
X186917Y504146D01*
X186840Y504118D01*
X186762Y504094D01*
X186682Y504073D01*
X186602Y504056D01*
X186521Y504043D01*
X186439Y504034D01*
X186357Y504028D01*
X186275Y504026D01*
X185683Y504026D01*
X180549Y504026D02*
X180549Y514694D01*
X180549Y511138D02*
X177585Y511138D01*
X177503Y511136D01*
X177421Y511130D01*
X177339Y511121D01*
X177258Y511108D01*
X177178Y511091D01*
X177098Y511070D01*
X177020Y511046D01*
X176943Y511018D01*
X176867Y510987D01*
X176792Y510952D01*
X176720Y510913D01*
X176649Y510872D01*
X176580Y510827D01*
X176514Y510779D01*
X176449Y510728D01*
X176387Y510674D01*
X176328Y510617D01*
X176271Y510558D01*
X176217Y510496D01*
X176166Y510431D01*
X176118Y510365D01*
X176073Y510296D01*
X176032Y510225D01*
X175993Y510153D01*
X175958Y510078D01*
X175927Y510002D01*
X175899Y509925D01*
X175875Y509847D01*
X175854Y509767D01*
X175837Y509687D01*
X175824Y509606D01*
X175815Y509524D01*
X175809Y509442D01*
X175807Y509360D01*
X175807Y504026D01*
X170262Y506397D02*
X170262Y508767D01*
X170260Y508864D01*
X170254Y508960D01*
X170244Y509056D01*
X170230Y509152D01*
X170213Y509247D01*
X170191Y509342D01*
X170166Y509435D01*
X170137Y509527D01*
X170104Y509618D01*
X170067Y509708D01*
X170027Y509796D01*
X169983Y509882D01*
X169936Y509966D01*
X169886Y510049D01*
X169832Y510129D01*
X169774Y510207D01*
X169714Y510283D01*
X169651Y510356D01*
X169585Y510426D01*
X169515Y510494D01*
X169444Y510559D01*
X169369Y510621D01*
X169292Y510679D01*
X169213Y510735D01*
X169132Y510787D01*
X169048Y510836D01*
X168963Y510882D01*
X168876Y510924D01*
X168787Y510962D01*
X168697Y510997D01*
X168605Y511028D01*
X168512Y511055D01*
X168419Y511079D01*
X168324Y511098D01*
X168228Y511114D01*
X168132Y511126D01*
X168036Y511134D01*
X167939Y511138D01*
X167843Y511138D01*
X167746Y511134D01*
X167650Y511126D01*
X167554Y511114D01*
X167458Y511098D01*
X167363Y511079D01*
X167270Y511055D01*
X167177Y511028D01*
X167085Y510997D01*
X166995Y510962D01*
X166906Y510924D01*
X166819Y510882D01*
X166734Y510836D01*
X166650Y510787D01*
X166569Y510735D01*
X166490Y510679D01*
X166413Y510621D01*
X166338Y510559D01*
X166267Y510494D01*
X166197Y510426D01*
X166131Y510356D01*
X166068Y510283D01*
X166008Y510207D01*
X165950Y510129D01*
X165896Y510049D01*
X165846Y509966D01*
X165799Y509882D01*
X165755Y509796D01*
X165715Y509708D01*
X165678Y509618D01*
X165645Y509527D01*
X165616Y509435D01*
X165591Y509342D01*
X165569Y509247D01*
X165552Y509152D01*
X165538Y509056D01*
X165528Y508960D01*
X165522Y508864D01*
X165520Y508767D01*
X165520Y506397D01*
X165522Y506300D01*
X165528Y506204D01*
X165538Y506108D01*
X165552Y506012D01*
X165569Y505917D01*
X165591Y505822D01*
X165616Y505729D01*
X165645Y505637D01*
X165678Y505546D01*
X165715Y505456D01*
X165755Y505368D01*
X165799Y505282D01*
X165846Y505198D01*
X165896Y505115D01*
X165950Y505035D01*
X166008Y504957D01*
X166068Y504881D01*
X166131Y504808D01*
X166197Y504738D01*
X166267Y504670D01*
X166338Y504605D01*
X166413Y504543D01*
X166490Y504485D01*
X166569Y504429D01*
X166650Y504377D01*
X166734Y504328D01*
X166819Y504282D01*
X166906Y504240D01*
X166995Y504202D01*
X167085Y504167D01*
X167177Y504136D01*
X167270Y504109D01*
X167363Y504085D01*
X167458Y504066D01*
X167554Y504050D01*
X167650Y504038D01*
X167746Y504030D01*
X167843Y504026D01*
X167939Y504026D01*
X168036Y504030D01*
X168132Y504038D01*
X168228Y504050D01*
X168324Y504066D01*
X168419Y504085D01*
X168512Y504109D01*
X168605Y504136D01*
X168697Y504167D01*
X168787Y504202D01*
X168876Y504240D01*
X168963Y504282D01*
X169048Y504328D01*
X169132Y504377D01*
X169213Y504429D01*
X169292Y504485D01*
X169369Y504543D01*
X169444Y504605D01*
X169515Y504670D01*
X169585Y504738D01*
X169651Y504808D01*
X169714Y504881D01*
X169774Y504957D01*
X169832Y505035D01*
X169886Y505115D01*
X169936Y505198D01*
X169983Y505282D01*
X170027Y505368D01*
X170067Y505456D01*
X170104Y505546D01*
X170137Y505637D01*
X170166Y505729D01*
X170191Y505822D01*
X170213Y505917D01*
X170230Y506012D01*
X170244Y506108D01*
X170254Y506204D01*
X170260Y506300D01*
X170262Y506397D01*
X159975Y504026D02*
X159975Y511138D01*
X157011Y511138D01*
X156929Y511136D01*
X156847Y511130D01*
X156765Y511121D01*
X156684Y511108D01*
X156604Y511091D01*
X156524Y511070D01*
X156446Y511046D01*
X156369Y511018D01*
X156293Y510987D01*
X156218Y510952D01*
X156146Y510913D01*
X156075Y510872D01*
X156006Y510827D01*
X155940Y510779D01*
X155875Y510728D01*
X155813Y510674D01*
X155754Y510617D01*
X155697Y510558D01*
X155643Y510496D01*
X155592Y510431D01*
X155544Y510365D01*
X155499Y510296D01*
X155458Y510225D01*
X155419Y510153D01*
X155384Y510078D01*
X155353Y510002D01*
X155325Y509925D01*
X155301Y509847D01*
X155280Y509767D01*
X155263Y509687D01*
X155250Y509606D01*
X155241Y509524D01*
X155235Y509442D01*
X155233Y509360D01*
X155233Y504026D01*
D11*
X804634Y514652D02*
X804634Y517700D01*
X803110Y516176D02*
X806158Y516176D01*
X802856Y520758D02*
X802856Y522282D01*
X802858Y522343D01*
X802863Y522404D01*
X802873Y522465D01*
X802886Y522525D01*
X802902Y522584D01*
X802922Y522642D01*
X802946Y522699D01*
X802972Y522754D01*
X803003Y522808D01*
X803036Y522859D01*
X803072Y522909D01*
X803112Y522956D01*
X803154Y523000D01*
X803198Y523042D01*
X803245Y523082D01*
X803295Y523118D01*
X803346Y523151D01*
X803400Y523182D01*
X803455Y523208D01*
X803512Y523232D01*
X803570Y523252D01*
X803629Y523268D01*
X803689Y523281D01*
X803750Y523291D01*
X803811Y523296D01*
X803872Y523298D01*
X804380Y523298D01*
X804441Y523296D01*
X804502Y523291D01*
X804563Y523281D01*
X804623Y523268D01*
X804682Y523252D01*
X804740Y523232D01*
X804797Y523208D01*
X804852Y523182D01*
X804906Y523151D01*
X804957Y523118D01*
X805007Y523082D01*
X805054Y523042D01*
X805098Y523000D01*
X805140Y522956D01*
X805180Y522909D01*
X805216Y522859D01*
X805249Y522808D01*
X805280Y522754D01*
X805306Y522699D01*
X805330Y522642D01*
X805350Y522584D01*
X805366Y522525D01*
X805379Y522465D01*
X805389Y522404D01*
X805394Y522343D01*
X805396Y522282D01*
X805396Y520758D01*
X807428Y520758D01*
X807428Y523298D01*
X807428Y525990D02*
X802856Y527514D01*
X807428Y529038D01*
X805396Y477604D02*
X805396Y476842D01*
X805396Y477604D02*
X802856Y477604D01*
X802856Y476080D01*
X802858Y476019D01*
X802863Y475958D01*
X802873Y475897D01*
X802886Y475837D01*
X802902Y475778D01*
X802922Y475720D01*
X802946Y475663D01*
X802972Y475608D01*
X803003Y475554D01*
X803036Y475503D01*
X803072Y475453D01*
X803112Y475406D01*
X803154Y475362D01*
X803198Y475320D01*
X803245Y475280D01*
X803295Y475244D01*
X803346Y475211D01*
X803400Y475180D01*
X803455Y475154D01*
X803512Y475130D01*
X803570Y475110D01*
X803629Y475094D01*
X803689Y475081D01*
X803750Y475071D01*
X803811Y475066D01*
X803872Y475064D01*
X806412Y475064D01*
X806473Y475066D01*
X806534Y475071D01*
X806595Y475081D01*
X806655Y475094D01*
X806714Y475110D01*
X806772Y475130D01*
X806829Y475154D01*
X806884Y475180D01*
X806938Y475211D01*
X806989Y475244D01*
X807039Y475280D01*
X807086Y475320D01*
X807130Y475362D01*
X807172Y475406D01*
X807212Y475453D01*
X807248Y475503D01*
X807281Y475554D01*
X807312Y475608D01*
X807338Y475663D01*
X807362Y475720D01*
X807382Y475778D01*
X807398Y475837D01*
X807411Y475897D01*
X807421Y475958D01*
X807426Y476019D01*
X807428Y476080D01*
X807428Y477604D01*
X807428Y480916D02*
X802856Y480916D01*
X802856Y483456D02*
X807428Y480916D01*
X807428Y483456D02*
X802856Y483456D01*
X802856Y486768D02*
X807428Y486768D01*
X807428Y488038D01*
X807426Y488107D01*
X807421Y488175D01*
X807411Y488243D01*
X807398Y488311D01*
X807382Y488378D01*
X807362Y488444D01*
X807338Y488508D01*
X807311Y488571D01*
X807280Y488633D01*
X807246Y488693D01*
X807209Y488751D01*
X807169Y488807D01*
X807126Y488860D01*
X807080Y488911D01*
X807031Y488960D01*
X806980Y489006D01*
X806927Y489049D01*
X806871Y489089D01*
X806813Y489126D01*
X806753Y489160D01*
X806691Y489191D01*
X806628Y489218D01*
X806564Y489242D01*
X806498Y489262D01*
X806431Y489278D01*
X806363Y489291D01*
X806295Y489301D01*
X806227Y489306D01*
X806158Y489308D01*
X804126Y489308D01*
X804057Y489306D01*
X803989Y489301D01*
X803921Y489291D01*
X803853Y489278D01*
X803786Y489262D01*
X803720Y489242D01*
X803656Y489218D01*
X803593Y489191D01*
X803531Y489160D01*
X803471Y489126D01*
X803413Y489089D01*
X803357Y489049D01*
X803304Y489006D01*
X803253Y488960D01*
X803204Y488911D01*
X803158Y488860D01*
X803115Y488807D01*
X803075Y488751D01*
X803038Y488693D01*
X803004Y488633D01*
X802973Y488571D01*
X802946Y488508D01*
X802922Y488444D01*
X802902Y488378D01*
X802886Y488311D01*
X802873Y488243D01*
X802863Y488175D01*
X802858Y488107D01*
X802856Y488038D01*
X802856Y486768D01*
X855776Y472545D02*
X860348Y472545D01*
X860348Y471275D02*
X860348Y473815D01*
X860348Y476579D02*
X855776Y476579D01*
X858316Y476579D02*
X858316Y479119D01*
X860348Y479119D02*
X855776Y479119D01*
X855776Y482504D02*
X860348Y482504D01*
X860348Y483774D01*
X860346Y483844D01*
X860340Y483914D01*
X860331Y483983D01*
X860317Y484052D01*
X860300Y484120D01*
X860279Y484186D01*
X860255Y484252D01*
X860227Y484316D01*
X860195Y484378D01*
X860160Y484439D01*
X860122Y484498D01*
X860080Y484554D01*
X860036Y484608D01*
X859988Y484660D01*
X859938Y484708D01*
X859885Y484754D01*
X859830Y484797D01*
X859773Y484837D01*
X859713Y484874D01*
X859651Y484907D01*
X859588Y484937D01*
X859523Y484963D01*
X859457Y484986D01*
X859390Y485005D01*
X859321Y485020D01*
X859252Y485032D01*
X859183Y485040D01*
X859113Y485044D01*
X859043Y485044D01*
X858973Y485040D01*
X858904Y485032D01*
X858835Y485020D01*
X858766Y485005D01*
X858699Y484986D01*
X858633Y484963D01*
X858568Y484937D01*
X858505Y484907D01*
X858443Y484874D01*
X858383Y484837D01*
X858326Y484797D01*
X858271Y484754D01*
X858218Y484708D01*
X858168Y484660D01*
X858120Y484608D01*
X858076Y484554D01*
X858034Y484498D01*
X857996Y484439D01*
X857961Y484378D01*
X857929Y484316D01*
X857901Y484252D01*
X857877Y484186D01*
X857856Y484120D01*
X857839Y484052D01*
X857825Y483983D01*
X857816Y483914D01*
X857810Y483844D01*
X857808Y483774D01*
X857808Y482504D01*
X857808Y484028D02*
X855776Y485044D01*
X857046Y487917D02*
X859078Y487917D01*
X859148Y487919D01*
X859218Y487925D01*
X859287Y487934D01*
X859356Y487948D01*
X859424Y487965D01*
X859490Y487986D01*
X859556Y488010D01*
X859620Y488038D01*
X859682Y488070D01*
X859743Y488105D01*
X859802Y488143D01*
X859858Y488185D01*
X859912Y488229D01*
X859964Y488277D01*
X860012Y488327D01*
X860058Y488380D01*
X860101Y488435D01*
X860141Y488492D01*
X860178Y488552D01*
X860211Y488614D01*
X860241Y488677D01*
X860267Y488742D01*
X860290Y488808D01*
X860309Y488875D01*
X860324Y488944D01*
X860336Y489013D01*
X860344Y489082D01*
X860348Y489152D01*
X860348Y489222D01*
X860344Y489292D01*
X860336Y489361D01*
X860324Y489430D01*
X860309Y489499D01*
X860290Y489566D01*
X860267Y489632D01*
X860241Y489697D01*
X860211Y489760D01*
X860178Y489822D01*
X860141Y489882D01*
X860101Y489939D01*
X860058Y489994D01*
X860012Y490047D01*
X859964Y490097D01*
X859912Y490145D01*
X859858Y490189D01*
X859802Y490231D01*
X859743Y490269D01*
X859682Y490304D01*
X859620Y490336D01*
X859556Y490364D01*
X859490Y490388D01*
X859424Y490409D01*
X859356Y490426D01*
X859287Y490440D01*
X859218Y490449D01*
X859148Y490455D01*
X859078Y490457D01*
X857046Y490457D01*
X856976Y490455D01*
X856906Y490449D01*
X856837Y490440D01*
X856768Y490426D01*
X856700Y490409D01*
X856634Y490388D01*
X856568Y490364D01*
X856504Y490336D01*
X856442Y490304D01*
X856381Y490269D01*
X856322Y490231D01*
X856266Y490189D01*
X856212Y490145D01*
X856160Y490097D01*
X856112Y490047D01*
X856066Y489994D01*
X856023Y489939D01*
X855983Y489882D01*
X855946Y489822D01*
X855913Y489760D01*
X855883Y489697D01*
X855857Y489632D01*
X855834Y489566D01*
X855815Y489499D01*
X855800Y489430D01*
X855788Y489361D01*
X855780Y489292D01*
X855776Y489222D01*
X855776Y489152D01*
X855780Y489082D01*
X855788Y489013D01*
X855800Y488944D01*
X855815Y488875D01*
X855834Y488808D01*
X855857Y488742D01*
X855883Y488677D01*
X855913Y488614D01*
X855946Y488552D01*
X855983Y488492D01*
X856023Y488435D01*
X856066Y488380D01*
X856112Y488327D01*
X856160Y488277D01*
X856212Y488229D01*
X856266Y488185D01*
X856322Y488143D01*
X856381Y488105D01*
X856442Y488070D01*
X856504Y488038D01*
X856568Y488010D01*
X856634Y487986D01*
X856700Y487965D01*
X856768Y487948D01*
X856837Y487934D01*
X856906Y487925D01*
X856976Y487919D01*
X857046Y487917D01*
X855776Y494308D02*
X860348Y494308D01*
X860348Y493038D02*
X860348Y495578D01*
X842010Y635827D02*
X842010Y636843D01*
X842010Y635827D02*
X842008Y635766D01*
X842003Y635705D01*
X841993Y635644D01*
X841980Y635584D01*
X841964Y635525D01*
X841944Y635467D01*
X841920Y635410D01*
X841894Y635355D01*
X841863Y635301D01*
X841830Y635250D01*
X841794Y635200D01*
X841754Y635153D01*
X841712Y635109D01*
X841668Y635067D01*
X841621Y635027D01*
X841571Y634991D01*
X841520Y634958D01*
X841466Y634927D01*
X841411Y634901D01*
X841354Y634877D01*
X841296Y634857D01*
X841237Y634841D01*
X841177Y634828D01*
X841116Y634818D01*
X841055Y634813D01*
X840994Y634811D01*
X838454Y634811D01*
X838393Y634813D01*
X838332Y634818D01*
X838271Y634828D01*
X838211Y634841D01*
X838152Y634857D01*
X838094Y634877D01*
X838037Y634901D01*
X837982Y634927D01*
X837928Y634958D01*
X837877Y634991D01*
X837827Y635027D01*
X837780Y635067D01*
X837736Y635109D01*
X837694Y635153D01*
X837654Y635200D01*
X837618Y635250D01*
X837585Y635301D01*
X837554Y635355D01*
X837528Y635410D01*
X837504Y635467D01*
X837484Y635525D01*
X837468Y635584D01*
X837455Y635644D01*
X837445Y635705D01*
X837440Y635766D01*
X837438Y635827D01*
X837438Y636843D01*
X837438Y640686D02*
X842010Y639162D01*
X842010Y642210D02*
X837438Y640686D01*
X840867Y641829D02*
X840867Y639543D01*
X842010Y645085D02*
X837438Y645085D01*
X842010Y647625D01*
X837438Y647625D01*
X837438Y650937D02*
X842010Y650937D01*
X839470Y650937D02*
X839470Y653477D01*
X837438Y653477D02*
X842010Y653477D01*
X865378Y637351D02*
X865378Y636335D01*
X865376Y636274D01*
X865371Y636213D01*
X865361Y636152D01*
X865348Y636092D01*
X865332Y636033D01*
X865312Y635975D01*
X865288Y635918D01*
X865262Y635863D01*
X865231Y635809D01*
X865198Y635758D01*
X865162Y635708D01*
X865122Y635661D01*
X865080Y635617D01*
X865036Y635575D01*
X864989Y635535D01*
X864939Y635499D01*
X864888Y635466D01*
X864834Y635435D01*
X864779Y635409D01*
X864722Y635385D01*
X864664Y635365D01*
X864605Y635349D01*
X864545Y635336D01*
X864484Y635326D01*
X864423Y635321D01*
X864362Y635319D01*
X861822Y635319D01*
X861761Y635321D01*
X861700Y635326D01*
X861639Y635336D01*
X861579Y635349D01*
X861520Y635365D01*
X861462Y635385D01*
X861405Y635409D01*
X861350Y635435D01*
X861296Y635466D01*
X861245Y635499D01*
X861195Y635535D01*
X861148Y635575D01*
X861104Y635617D01*
X861062Y635661D01*
X861022Y635708D01*
X860986Y635758D01*
X860953Y635809D01*
X860922Y635863D01*
X860896Y635918D01*
X860872Y635975D01*
X860852Y636033D01*
X860836Y636092D01*
X860823Y636152D01*
X860813Y636213D01*
X860808Y636274D01*
X860806Y636335D01*
X860806Y637351D01*
X860806Y641194D02*
X865378Y639670D01*
X865378Y642718D02*
X860806Y641194D01*
X864235Y642337D02*
X864235Y640051D01*
X865378Y645593D02*
X860806Y645593D01*
X865378Y648133D01*
X860806Y648133D01*
X860806Y651445D02*
X865378Y651445D01*
X862838Y651445D02*
X862838Y653985D01*
X860806Y653985D02*
X865378Y653985D01*
X842010Y582730D02*
X842010Y581714D01*
X842008Y581653D01*
X842003Y581592D01*
X841993Y581531D01*
X841980Y581471D01*
X841964Y581412D01*
X841944Y581354D01*
X841920Y581297D01*
X841894Y581242D01*
X841863Y581188D01*
X841830Y581137D01*
X841794Y581087D01*
X841754Y581040D01*
X841712Y580996D01*
X841668Y580954D01*
X841621Y580914D01*
X841571Y580878D01*
X841520Y580845D01*
X841466Y580814D01*
X841411Y580788D01*
X841354Y580764D01*
X841296Y580744D01*
X841237Y580728D01*
X841177Y580715D01*
X841116Y580705D01*
X841055Y580700D01*
X840994Y580698D01*
X838454Y580698D01*
X838393Y580700D01*
X838332Y580705D01*
X838271Y580715D01*
X838211Y580728D01*
X838152Y580744D01*
X838094Y580764D01*
X838037Y580788D01*
X837982Y580814D01*
X837928Y580845D01*
X837877Y580878D01*
X837827Y580914D01*
X837780Y580954D01*
X837736Y580996D01*
X837694Y581040D01*
X837654Y581087D01*
X837618Y581137D01*
X837585Y581188D01*
X837554Y581242D01*
X837528Y581297D01*
X837504Y581354D01*
X837484Y581412D01*
X837468Y581471D01*
X837455Y581531D01*
X837445Y581592D01*
X837440Y581653D01*
X837438Y581714D01*
X837438Y582730D01*
X837438Y586573D02*
X842010Y585049D01*
X842010Y588097D02*
X837438Y586573D01*
X840867Y587716D02*
X840867Y585430D01*
X842010Y590972D02*
X837438Y590972D01*
X842010Y593512D01*
X837438Y593512D01*
X837438Y596846D02*
X842010Y596846D01*
X842010Y598878D01*
X864870Y582730D02*
X864870Y581714D01*
X864868Y581653D01*
X864863Y581592D01*
X864853Y581531D01*
X864840Y581471D01*
X864824Y581412D01*
X864804Y581354D01*
X864780Y581297D01*
X864754Y581242D01*
X864723Y581188D01*
X864690Y581137D01*
X864654Y581087D01*
X864614Y581040D01*
X864572Y580996D01*
X864528Y580954D01*
X864481Y580914D01*
X864431Y580878D01*
X864380Y580845D01*
X864326Y580814D01*
X864271Y580788D01*
X864214Y580764D01*
X864156Y580744D01*
X864097Y580728D01*
X864037Y580715D01*
X863976Y580705D01*
X863915Y580700D01*
X863854Y580698D01*
X861314Y580698D01*
X861253Y580700D01*
X861192Y580705D01*
X861131Y580715D01*
X861071Y580728D01*
X861012Y580744D01*
X860954Y580764D01*
X860897Y580788D01*
X860842Y580814D01*
X860788Y580845D01*
X860737Y580878D01*
X860687Y580914D01*
X860640Y580954D01*
X860596Y580996D01*
X860554Y581040D01*
X860514Y581087D01*
X860478Y581137D01*
X860445Y581188D01*
X860414Y581242D01*
X860388Y581297D01*
X860364Y581354D01*
X860344Y581412D01*
X860328Y581471D01*
X860315Y581531D01*
X860305Y581592D01*
X860300Y581653D01*
X860298Y581714D01*
X860298Y582730D01*
X860298Y586573D02*
X864870Y585049D01*
X864870Y588097D02*
X860298Y586573D01*
X863727Y587716D02*
X863727Y585430D01*
X864870Y590972D02*
X860298Y590972D01*
X864870Y593512D01*
X860298Y593512D01*
X860298Y596846D02*
X864870Y596846D01*
X864870Y598878D01*
X717414Y705408D02*
X717340Y705410D01*
X717265Y705416D01*
X717192Y705425D01*
X717118Y705438D01*
X717046Y705455D01*
X716975Y705475D01*
X716904Y705499D01*
X716835Y705527D01*
X716768Y705558D01*
X716702Y705592D01*
X716637Y705630D01*
X716575Y705671D01*
X716515Y705715D01*
X716458Y705762D01*
X716403Y705812D01*
X716350Y705865D01*
X716300Y705920D01*
X716253Y705977D01*
X716209Y706037D01*
X716168Y706099D01*
X716130Y706164D01*
X716096Y706230D01*
X716065Y706297D01*
X716037Y706366D01*
X716013Y706437D01*
X715993Y706508D01*
X715976Y706580D01*
X715963Y706654D01*
X715954Y706727D01*
X715948Y706802D01*
X715946Y706876D01*
X717414Y705408D02*
X717525Y705410D01*
X717636Y705416D01*
X717747Y705426D01*
X717858Y705440D01*
X717967Y705458D01*
X718076Y705480D01*
X718185Y705505D01*
X718292Y705535D01*
X718398Y705568D01*
X718503Y705606D01*
X718606Y705646D01*
X718708Y705691D01*
X718808Y705739D01*
X718907Y705791D01*
X719003Y705846D01*
X719098Y705905D01*
X719190Y705967D01*
X719280Y706033D01*
X719368Y706101D01*
X719453Y706173D01*
X719535Y706248D01*
X719615Y706325D01*
X719432Y710544D02*
X719430Y710618D01*
X719424Y710693D01*
X719415Y710766D01*
X719402Y710840D01*
X719385Y710912D01*
X719365Y710983D01*
X719341Y711054D01*
X719313Y711123D01*
X719282Y711190D01*
X719248Y711256D01*
X719210Y711321D01*
X719169Y711383D01*
X719125Y711443D01*
X719078Y711500D01*
X719028Y711555D01*
X718975Y711608D01*
X718920Y711658D01*
X718863Y711705D01*
X718803Y711749D01*
X718741Y711790D01*
X718676Y711828D01*
X718610Y711862D01*
X718543Y711893D01*
X718474Y711921D01*
X718403Y711945D01*
X718332Y711965D01*
X718260Y711982D01*
X718186Y711995D01*
X718113Y712004D01*
X718038Y712010D01*
X717964Y712012D01*
X717860Y712010D01*
X717756Y712004D01*
X717652Y711994D01*
X717549Y711981D01*
X717446Y711963D01*
X717344Y711941D01*
X717243Y711916D01*
X717143Y711887D01*
X717044Y711854D01*
X716947Y711817D01*
X716851Y711777D01*
X716756Y711733D01*
X716664Y711685D01*
X716573Y711635D01*
X716484Y711580D01*
X716397Y711523D01*
X716313Y711462D01*
X718698Y709259D02*
X718761Y709298D01*
X718821Y709340D01*
X718880Y709385D01*
X718936Y709433D01*
X718989Y709484D01*
X719040Y709537D01*
X719089Y709592D01*
X719134Y709650D01*
X719177Y709710D01*
X719217Y709772D01*
X719253Y709836D01*
X719287Y709902D01*
X719317Y709970D01*
X719344Y710038D01*
X719367Y710108D01*
X719387Y710179D01*
X719403Y710251D01*
X719416Y710324D01*
X719425Y710397D01*
X719430Y710470D01*
X719432Y710544D01*
X716680Y708161D02*
X716617Y708122D01*
X716557Y708080D01*
X716499Y708035D01*
X716442Y707987D01*
X716389Y707936D01*
X716338Y707883D01*
X716289Y707828D01*
X716244Y707770D01*
X716201Y707710D01*
X716161Y707648D01*
X716125Y707584D01*
X716091Y707518D01*
X716061Y707450D01*
X716034Y707382D01*
X716011Y707312D01*
X715991Y707241D01*
X715975Y707169D01*
X715962Y707096D01*
X715953Y707023D01*
X715948Y706950D01*
X715946Y706876D01*
X716680Y708160D02*
X718698Y709260D01*
X712300Y712012D02*
X712300Y705408D01*
X712300Y712012D02*
X710465Y712012D01*
X710380Y712010D01*
X710296Y712004D01*
X710212Y711994D01*
X710128Y711981D01*
X710045Y711963D01*
X709963Y711942D01*
X709882Y711917D01*
X709802Y711888D01*
X709724Y711856D01*
X709648Y711820D01*
X709573Y711780D01*
X709500Y711737D01*
X709429Y711691D01*
X709360Y711642D01*
X709293Y711589D01*
X709229Y711533D01*
X709168Y711475D01*
X709110Y711414D01*
X709054Y711350D01*
X709001Y711283D01*
X708952Y711214D01*
X708906Y711143D01*
X708863Y711070D01*
X708823Y710995D01*
X708787Y710919D01*
X708755Y710841D01*
X708726Y710761D01*
X708701Y710680D01*
X708680Y710598D01*
X708662Y710515D01*
X708649Y710431D01*
X708639Y710347D01*
X708633Y710263D01*
X708631Y710178D01*
X708631Y707242D01*
X708633Y707157D01*
X708639Y707073D01*
X708649Y706989D01*
X708662Y706905D01*
X708680Y706822D01*
X708701Y706740D01*
X708726Y706659D01*
X708755Y706579D01*
X708787Y706501D01*
X708823Y706425D01*
X708863Y706350D01*
X708906Y706277D01*
X708952Y706206D01*
X709001Y706137D01*
X709054Y706070D01*
X709110Y706006D01*
X709168Y705945D01*
X709229Y705887D01*
X709293Y705831D01*
X709360Y705778D01*
X709429Y705729D01*
X709500Y705683D01*
X709573Y705640D01*
X709648Y705600D01*
X709724Y705564D01*
X709802Y705532D01*
X709882Y705503D01*
X709963Y705478D01*
X710045Y705457D01*
X710128Y705439D01*
X710212Y705426D01*
X710296Y705416D01*
X710380Y705410D01*
X710465Y705408D01*
X712300Y705408D01*
X705108Y705408D02*
X702906Y712012D01*
X700705Y705408D01*
X701255Y707059D02*
X704557Y707059D01*
X769286Y706876D02*
X769288Y706802D01*
X769294Y706727D01*
X769303Y706654D01*
X769316Y706580D01*
X769333Y706508D01*
X769353Y706437D01*
X769377Y706366D01*
X769405Y706297D01*
X769436Y706230D01*
X769470Y706164D01*
X769508Y706099D01*
X769549Y706037D01*
X769593Y705977D01*
X769640Y705920D01*
X769690Y705865D01*
X769743Y705812D01*
X769798Y705762D01*
X769855Y705715D01*
X769915Y705671D01*
X769977Y705630D01*
X770042Y705592D01*
X770108Y705558D01*
X770175Y705527D01*
X770244Y705499D01*
X770315Y705475D01*
X770386Y705455D01*
X770458Y705438D01*
X770532Y705425D01*
X770605Y705416D01*
X770680Y705410D01*
X770754Y705408D01*
X770865Y705410D01*
X770976Y705416D01*
X771087Y705426D01*
X771198Y705440D01*
X771307Y705458D01*
X771416Y705480D01*
X771525Y705505D01*
X771632Y705535D01*
X771738Y705568D01*
X771843Y705606D01*
X771946Y705646D01*
X772048Y705691D01*
X772148Y705739D01*
X772247Y705791D01*
X772343Y705846D01*
X772438Y705905D01*
X772530Y705967D01*
X772620Y706033D01*
X772708Y706101D01*
X772793Y706173D01*
X772875Y706248D01*
X772955Y706325D01*
X772772Y710544D02*
X772770Y710618D01*
X772764Y710693D01*
X772755Y710766D01*
X772742Y710840D01*
X772725Y710912D01*
X772705Y710983D01*
X772681Y711054D01*
X772653Y711123D01*
X772622Y711190D01*
X772588Y711256D01*
X772550Y711321D01*
X772509Y711383D01*
X772465Y711443D01*
X772418Y711500D01*
X772368Y711555D01*
X772315Y711608D01*
X772260Y711658D01*
X772203Y711705D01*
X772143Y711749D01*
X772081Y711790D01*
X772016Y711828D01*
X771950Y711862D01*
X771883Y711893D01*
X771814Y711921D01*
X771743Y711945D01*
X771672Y711965D01*
X771600Y711982D01*
X771526Y711995D01*
X771453Y712004D01*
X771378Y712010D01*
X771304Y712012D01*
X771200Y712010D01*
X771096Y712004D01*
X770992Y711994D01*
X770889Y711981D01*
X770786Y711963D01*
X770684Y711941D01*
X770583Y711916D01*
X770483Y711887D01*
X770384Y711854D01*
X770287Y711817D01*
X770191Y711777D01*
X770096Y711733D01*
X770004Y711685D01*
X769913Y711635D01*
X769824Y711580D01*
X769737Y711523D01*
X769653Y711462D01*
X772038Y709259D02*
X772101Y709298D01*
X772161Y709340D01*
X772220Y709385D01*
X772276Y709433D01*
X772329Y709484D01*
X772380Y709537D01*
X772429Y709592D01*
X772474Y709650D01*
X772517Y709710D01*
X772557Y709772D01*
X772593Y709836D01*
X772627Y709902D01*
X772657Y709970D01*
X772684Y710038D01*
X772707Y710108D01*
X772727Y710179D01*
X772743Y710251D01*
X772756Y710324D01*
X772765Y710397D01*
X772770Y710470D01*
X772772Y710544D01*
X770020Y708161D02*
X769957Y708122D01*
X769897Y708080D01*
X769839Y708035D01*
X769782Y707987D01*
X769729Y707936D01*
X769678Y707883D01*
X769629Y707828D01*
X769584Y707770D01*
X769541Y707710D01*
X769501Y707648D01*
X769465Y707584D01*
X769431Y707518D01*
X769401Y707450D01*
X769374Y707382D01*
X769351Y707312D01*
X769331Y707241D01*
X769315Y707169D01*
X769302Y707096D01*
X769293Y707023D01*
X769288Y706950D01*
X769286Y706876D01*
X770020Y708160D02*
X772038Y709260D01*
X764452Y705408D02*
X762984Y705408D01*
X764452Y705408D02*
X764526Y705410D01*
X764601Y705416D01*
X764674Y705425D01*
X764748Y705438D01*
X764820Y705455D01*
X764891Y705475D01*
X764962Y705499D01*
X765031Y705527D01*
X765099Y705558D01*
X765164Y705592D01*
X765229Y705630D01*
X765291Y705671D01*
X765351Y705715D01*
X765408Y705762D01*
X765463Y705812D01*
X765516Y705865D01*
X765566Y705920D01*
X765613Y705977D01*
X765657Y706037D01*
X765698Y706099D01*
X765736Y706164D01*
X765770Y706230D01*
X765801Y706297D01*
X765829Y706366D01*
X765853Y706437D01*
X765873Y706508D01*
X765890Y706581D01*
X765903Y706654D01*
X765912Y706728D01*
X765918Y706802D01*
X765920Y706876D01*
X765919Y706876D02*
X765919Y710544D01*
X765920Y710544D02*
X765918Y710618D01*
X765912Y710693D01*
X765903Y710766D01*
X765890Y710839D01*
X765873Y710912D01*
X765853Y710983D01*
X765829Y711054D01*
X765801Y711123D01*
X765770Y711190D01*
X765736Y711256D01*
X765698Y711321D01*
X765657Y711383D01*
X765613Y711443D01*
X765566Y711500D01*
X765516Y711555D01*
X765463Y711608D01*
X765408Y711658D01*
X765351Y711705D01*
X765291Y711749D01*
X765229Y711790D01*
X765164Y711828D01*
X765099Y711862D01*
X765031Y711893D01*
X764962Y711921D01*
X764892Y711945D01*
X764820Y711965D01*
X764748Y711982D01*
X764674Y711995D01*
X764601Y712004D01*
X764526Y712010D01*
X764452Y712012D01*
X762984Y712012D01*
X759520Y712012D02*
X759520Y705408D01*
X756585Y705408D01*
D12*
X648704Y253873D02*
X648704Y249047D01*
X648704Y253873D02*
X647363Y253873D01*
X647292Y253871D01*
X647220Y253865D01*
X647150Y253856D01*
X647080Y253843D01*
X647010Y253826D01*
X646942Y253805D01*
X646875Y253781D01*
X646809Y253753D01*
X646745Y253722D01*
X646682Y253687D01*
X646622Y253649D01*
X646563Y253608D01*
X646507Y253564D01*
X646453Y253517D01*
X646402Y253468D01*
X646354Y253415D01*
X646308Y253360D01*
X646266Y253303D01*
X646226Y253243D01*
X646190Y253182D01*
X646157Y253118D01*
X646128Y253053D01*
X646102Y252987D01*
X646079Y252919D01*
X646060Y252850D01*
X646045Y252780D01*
X646034Y252710D01*
X646026Y252639D01*
X646022Y252568D01*
X646022Y252496D01*
X646026Y252425D01*
X646034Y252354D01*
X646045Y252284D01*
X646060Y252214D01*
X646079Y252145D01*
X646102Y252077D01*
X646128Y252011D01*
X646157Y251946D01*
X646190Y251882D01*
X646226Y251821D01*
X646266Y251761D01*
X646308Y251704D01*
X646354Y251649D01*
X646402Y251596D01*
X646453Y251547D01*
X646507Y251500D01*
X646563Y251456D01*
X646622Y251415D01*
X646682Y251377D01*
X646745Y251342D01*
X646809Y251311D01*
X646875Y251283D01*
X646942Y251259D01*
X647010Y251238D01*
X647080Y251221D01*
X647150Y251208D01*
X647220Y251199D01*
X647292Y251193D01*
X647363Y251191D01*
X647363Y251192D02*
X648704Y251192D01*
X647095Y251192D02*
X646023Y249047D01*
X643281Y252801D02*
X641941Y253873D01*
X641941Y249047D01*
X643281Y249047D02*
X640600Y249047D01*
X687312Y249047D02*
X687312Y253873D01*
X685971Y253873D01*
X685900Y253871D01*
X685828Y253865D01*
X685758Y253856D01*
X685688Y253843D01*
X685618Y253826D01*
X685550Y253805D01*
X685483Y253781D01*
X685417Y253753D01*
X685353Y253722D01*
X685290Y253687D01*
X685230Y253649D01*
X685171Y253608D01*
X685115Y253564D01*
X685061Y253517D01*
X685010Y253468D01*
X684962Y253415D01*
X684916Y253360D01*
X684874Y253303D01*
X684834Y253243D01*
X684798Y253182D01*
X684765Y253118D01*
X684736Y253053D01*
X684710Y252987D01*
X684687Y252919D01*
X684668Y252850D01*
X684653Y252780D01*
X684642Y252710D01*
X684634Y252639D01*
X684630Y252568D01*
X684630Y252496D01*
X684634Y252425D01*
X684642Y252354D01*
X684653Y252284D01*
X684668Y252214D01*
X684687Y252145D01*
X684710Y252077D01*
X684736Y252011D01*
X684765Y251946D01*
X684798Y251882D01*
X684834Y251821D01*
X684874Y251761D01*
X684916Y251704D01*
X684962Y251649D01*
X685010Y251596D01*
X685061Y251547D01*
X685115Y251500D01*
X685171Y251456D01*
X685230Y251415D01*
X685290Y251377D01*
X685353Y251342D01*
X685417Y251311D01*
X685483Y251283D01*
X685550Y251259D01*
X685618Y251238D01*
X685688Y251221D01*
X685758Y251208D01*
X685828Y251199D01*
X685900Y251193D01*
X685971Y251191D01*
X685971Y251192D02*
X687312Y251192D01*
X685703Y251192D02*
X684631Y249047D01*
X680415Y253873D02*
X680347Y253871D01*
X680280Y253865D01*
X680213Y253856D01*
X680146Y253843D01*
X680081Y253826D01*
X680016Y253805D01*
X679953Y253781D01*
X679891Y253753D01*
X679831Y253722D01*
X679773Y253688D01*
X679717Y253650D01*
X679662Y253610D01*
X679611Y253566D01*
X679562Y253519D01*
X679515Y253470D01*
X679471Y253419D01*
X679431Y253364D01*
X679393Y253308D01*
X679359Y253250D01*
X679328Y253190D01*
X679300Y253128D01*
X679276Y253065D01*
X679255Y253000D01*
X679238Y252935D01*
X679225Y252868D01*
X679216Y252801D01*
X679210Y252734D01*
X679208Y252666D01*
X680415Y253873D02*
X680493Y253871D01*
X680571Y253865D01*
X680648Y253855D01*
X680725Y253842D01*
X680801Y253824D01*
X680876Y253803D01*
X680950Y253778D01*
X681022Y253749D01*
X681093Y253717D01*
X681162Y253681D01*
X681230Y253642D01*
X681295Y253599D01*
X681358Y253553D01*
X681419Y253504D01*
X681477Y253452D01*
X681532Y253397D01*
X681585Y253340D01*
X681634Y253280D01*
X681681Y253217D01*
X681724Y253152D01*
X681764Y253086D01*
X681801Y253017D01*
X681834Y252946D01*
X681864Y252874D01*
X681890Y252800D01*
X679610Y251728D02*
X679561Y251777D01*
X679514Y251829D01*
X679471Y251884D01*
X679430Y251941D01*
X679392Y252000D01*
X679358Y252061D01*
X679327Y252124D01*
X679299Y252188D01*
X679275Y252254D01*
X679255Y252320D01*
X679238Y252388D01*
X679225Y252457D01*
X679216Y252526D01*
X679210Y252596D01*
X679208Y252666D01*
X679610Y251728D02*
X681889Y249047D01*
X679208Y249047D01*
X725412Y249047D02*
X725412Y253873D01*
X724071Y253873D01*
X724000Y253871D01*
X723928Y253865D01*
X723858Y253856D01*
X723788Y253843D01*
X723718Y253826D01*
X723650Y253805D01*
X723583Y253781D01*
X723517Y253753D01*
X723453Y253722D01*
X723390Y253687D01*
X723330Y253649D01*
X723271Y253608D01*
X723215Y253564D01*
X723161Y253517D01*
X723110Y253468D01*
X723062Y253415D01*
X723016Y253360D01*
X722974Y253303D01*
X722934Y253243D01*
X722898Y253182D01*
X722865Y253118D01*
X722836Y253053D01*
X722810Y252987D01*
X722787Y252919D01*
X722768Y252850D01*
X722753Y252780D01*
X722742Y252710D01*
X722734Y252639D01*
X722730Y252568D01*
X722730Y252496D01*
X722734Y252425D01*
X722742Y252354D01*
X722753Y252284D01*
X722768Y252214D01*
X722787Y252145D01*
X722810Y252077D01*
X722836Y252011D01*
X722865Y251946D01*
X722898Y251882D01*
X722934Y251821D01*
X722974Y251761D01*
X723016Y251704D01*
X723062Y251649D01*
X723110Y251596D01*
X723161Y251547D01*
X723215Y251500D01*
X723271Y251456D01*
X723330Y251415D01*
X723390Y251377D01*
X723453Y251342D01*
X723517Y251311D01*
X723583Y251283D01*
X723650Y251259D01*
X723718Y251238D01*
X723788Y251221D01*
X723858Y251208D01*
X723928Y251199D01*
X724000Y251193D01*
X724071Y251191D01*
X724071Y251192D02*
X725412Y251192D01*
X723803Y251192D02*
X722731Y249047D01*
X719989Y249047D02*
X718649Y249047D01*
X718578Y249049D01*
X718506Y249055D01*
X718436Y249064D01*
X718366Y249077D01*
X718296Y249094D01*
X718228Y249115D01*
X718161Y249139D01*
X718095Y249167D01*
X718031Y249198D01*
X717968Y249233D01*
X717908Y249271D01*
X717849Y249312D01*
X717793Y249356D01*
X717739Y249403D01*
X717688Y249452D01*
X717640Y249505D01*
X717594Y249560D01*
X717552Y249617D01*
X717512Y249677D01*
X717476Y249738D01*
X717443Y249802D01*
X717414Y249867D01*
X717388Y249933D01*
X717365Y250001D01*
X717346Y250070D01*
X717331Y250140D01*
X717320Y250210D01*
X717312Y250281D01*
X717308Y250352D01*
X717308Y250424D01*
X717312Y250495D01*
X717320Y250566D01*
X717331Y250636D01*
X717346Y250706D01*
X717365Y250775D01*
X717388Y250843D01*
X717414Y250909D01*
X717443Y250974D01*
X717476Y251038D01*
X717512Y251099D01*
X717552Y251159D01*
X717594Y251216D01*
X717640Y251271D01*
X717688Y251324D01*
X717739Y251373D01*
X717793Y251420D01*
X717849Y251464D01*
X717908Y251505D01*
X717968Y251543D01*
X718031Y251578D01*
X718095Y251609D01*
X718161Y251637D01*
X718228Y251661D01*
X718296Y251682D01*
X718366Y251699D01*
X718436Y251712D01*
X718506Y251721D01*
X718578Y251727D01*
X718649Y251729D01*
X718381Y253873D02*
X719989Y253873D01*
X718381Y253873D02*
X718316Y253871D01*
X718252Y253865D01*
X718188Y253855D01*
X718124Y253842D01*
X718062Y253824D01*
X718001Y253803D01*
X717941Y253779D01*
X717883Y253750D01*
X717826Y253718D01*
X717772Y253683D01*
X717720Y253645D01*
X717670Y253603D01*
X717623Y253559D01*
X717579Y253512D01*
X717537Y253462D01*
X717499Y253410D01*
X717464Y253356D01*
X717432Y253299D01*
X717403Y253241D01*
X717379Y253181D01*
X717358Y253120D01*
X717340Y253058D01*
X717327Y252994D01*
X717317Y252930D01*
X717311Y252866D01*
X717309Y252801D01*
X717311Y252736D01*
X717317Y252672D01*
X717327Y252608D01*
X717340Y252544D01*
X717358Y252482D01*
X717379Y252421D01*
X717403Y252361D01*
X717432Y252303D01*
X717464Y252246D01*
X717499Y252192D01*
X717537Y252140D01*
X717579Y252090D01*
X717623Y252043D01*
X717670Y251999D01*
X717720Y251957D01*
X717772Y251919D01*
X717826Y251884D01*
X717883Y251852D01*
X717941Y251823D01*
X718001Y251799D01*
X718062Y251778D01*
X718124Y251760D01*
X718188Y251747D01*
X718252Y251737D01*
X718316Y251731D01*
X718381Y251729D01*
X718381Y251728D02*
X719453Y251728D01*
X627397Y233168D02*
X622571Y233168D01*
X627397Y233168D02*
X627397Y234509D01*
X627395Y234580D01*
X627389Y234652D01*
X627380Y234722D01*
X627367Y234792D01*
X627350Y234862D01*
X627329Y234930D01*
X627305Y234997D01*
X627277Y235063D01*
X627246Y235127D01*
X627211Y235190D01*
X627173Y235250D01*
X627132Y235309D01*
X627088Y235365D01*
X627041Y235419D01*
X626992Y235470D01*
X626939Y235518D01*
X626884Y235564D01*
X626827Y235606D01*
X626767Y235646D01*
X626706Y235682D01*
X626642Y235715D01*
X626577Y235744D01*
X626511Y235770D01*
X626443Y235793D01*
X626374Y235812D01*
X626304Y235827D01*
X626234Y235838D01*
X626163Y235846D01*
X626092Y235850D01*
X626020Y235850D01*
X625949Y235846D01*
X625878Y235838D01*
X625808Y235827D01*
X625738Y235812D01*
X625669Y235793D01*
X625601Y235770D01*
X625535Y235744D01*
X625470Y235715D01*
X625406Y235682D01*
X625345Y235646D01*
X625285Y235606D01*
X625228Y235564D01*
X625173Y235518D01*
X625120Y235470D01*
X625071Y235419D01*
X625024Y235365D01*
X624980Y235309D01*
X624939Y235250D01*
X624901Y235190D01*
X624866Y235127D01*
X624835Y235063D01*
X624807Y234997D01*
X624783Y234930D01*
X624762Y234862D01*
X624745Y234792D01*
X624732Y234722D01*
X624723Y234652D01*
X624717Y234580D01*
X624715Y234509D01*
X624716Y234509D02*
X624716Y233168D01*
X624716Y234777D02*
X622571Y235849D01*
X623643Y238591D02*
X627397Y239663D01*
X623643Y238591D02*
X623643Y241272D01*
X624716Y240468D02*
X622571Y240468D01*
X661035Y232676D02*
X665861Y232676D01*
X665861Y234017D01*
X665859Y234088D01*
X665853Y234160D01*
X665844Y234230D01*
X665831Y234300D01*
X665814Y234370D01*
X665793Y234438D01*
X665769Y234505D01*
X665741Y234571D01*
X665710Y234635D01*
X665675Y234698D01*
X665637Y234758D01*
X665596Y234817D01*
X665552Y234873D01*
X665505Y234927D01*
X665456Y234978D01*
X665403Y235026D01*
X665348Y235072D01*
X665291Y235114D01*
X665231Y235154D01*
X665170Y235190D01*
X665106Y235223D01*
X665041Y235252D01*
X664975Y235278D01*
X664907Y235301D01*
X664838Y235320D01*
X664768Y235335D01*
X664698Y235346D01*
X664627Y235354D01*
X664556Y235358D01*
X664484Y235358D01*
X664413Y235354D01*
X664342Y235346D01*
X664272Y235335D01*
X664202Y235320D01*
X664133Y235301D01*
X664065Y235278D01*
X663999Y235252D01*
X663934Y235223D01*
X663870Y235190D01*
X663809Y235154D01*
X663749Y235114D01*
X663692Y235072D01*
X663637Y235026D01*
X663584Y234978D01*
X663535Y234927D01*
X663488Y234873D01*
X663444Y234817D01*
X663403Y234758D01*
X663365Y234698D01*
X663330Y234635D01*
X663299Y234571D01*
X663271Y234505D01*
X663247Y234438D01*
X663226Y234370D01*
X663209Y234300D01*
X663196Y234230D01*
X663187Y234160D01*
X663181Y234088D01*
X663179Y234017D01*
X663180Y234017D02*
X663180Y232676D01*
X663180Y234285D02*
X661035Y235357D01*
X661035Y238099D02*
X661035Y239707D01*
X661037Y239772D01*
X661043Y239836D01*
X661053Y239900D01*
X661066Y239964D01*
X661084Y240026D01*
X661105Y240087D01*
X661129Y240147D01*
X661158Y240205D01*
X661190Y240262D01*
X661225Y240316D01*
X661263Y240368D01*
X661305Y240418D01*
X661349Y240465D01*
X661396Y240509D01*
X661446Y240551D01*
X661498Y240589D01*
X661552Y240624D01*
X661609Y240656D01*
X661667Y240685D01*
X661727Y240709D01*
X661788Y240730D01*
X661850Y240748D01*
X661914Y240761D01*
X661978Y240771D01*
X662042Y240777D01*
X662107Y240779D01*
X662107Y240780D02*
X662644Y240780D01*
X662644Y240779D02*
X662709Y240777D01*
X662773Y240771D01*
X662837Y240761D01*
X662901Y240748D01*
X662963Y240730D01*
X663024Y240709D01*
X663084Y240685D01*
X663142Y240656D01*
X663199Y240624D01*
X663253Y240589D01*
X663305Y240551D01*
X663355Y240509D01*
X663402Y240465D01*
X663446Y240418D01*
X663488Y240368D01*
X663526Y240316D01*
X663561Y240262D01*
X663593Y240205D01*
X663622Y240147D01*
X663646Y240087D01*
X663667Y240026D01*
X663685Y239964D01*
X663698Y239900D01*
X663708Y239836D01*
X663714Y239772D01*
X663716Y239707D01*
X663716Y238099D01*
X665861Y238099D01*
X665861Y240780D01*
X699643Y232676D02*
X704469Y232676D01*
X704469Y234017D01*
X704467Y234088D01*
X704461Y234160D01*
X704452Y234230D01*
X704439Y234300D01*
X704422Y234370D01*
X704401Y234438D01*
X704377Y234505D01*
X704349Y234571D01*
X704318Y234635D01*
X704283Y234698D01*
X704245Y234758D01*
X704204Y234817D01*
X704160Y234873D01*
X704113Y234927D01*
X704064Y234978D01*
X704011Y235026D01*
X703956Y235072D01*
X703899Y235114D01*
X703839Y235154D01*
X703778Y235190D01*
X703714Y235223D01*
X703649Y235252D01*
X703583Y235278D01*
X703515Y235301D01*
X703446Y235320D01*
X703376Y235335D01*
X703306Y235346D01*
X703235Y235354D01*
X703164Y235358D01*
X703092Y235358D01*
X703021Y235354D01*
X702950Y235346D01*
X702880Y235335D01*
X702810Y235320D01*
X702741Y235301D01*
X702673Y235278D01*
X702607Y235252D01*
X702542Y235223D01*
X702478Y235190D01*
X702417Y235154D01*
X702357Y235114D01*
X702300Y235072D01*
X702245Y235026D01*
X702192Y234978D01*
X702143Y234927D01*
X702096Y234873D01*
X702052Y234817D01*
X702011Y234758D01*
X701973Y234698D01*
X701938Y234635D01*
X701907Y234571D01*
X701879Y234505D01*
X701855Y234438D01*
X701834Y234370D01*
X701817Y234300D01*
X701804Y234230D01*
X701795Y234160D01*
X701789Y234088D01*
X701787Y234017D01*
X701788Y234017D02*
X701788Y232676D01*
X701788Y234285D02*
X699643Y235357D01*
X702324Y238099D02*
X702324Y239707D01*
X702322Y239772D01*
X702316Y239836D01*
X702306Y239900D01*
X702293Y239964D01*
X702275Y240026D01*
X702254Y240087D01*
X702230Y240147D01*
X702201Y240205D01*
X702169Y240262D01*
X702134Y240316D01*
X702096Y240368D01*
X702054Y240418D01*
X702010Y240465D01*
X701963Y240509D01*
X701913Y240551D01*
X701861Y240589D01*
X701807Y240624D01*
X701750Y240656D01*
X701692Y240685D01*
X701632Y240709D01*
X701571Y240730D01*
X701509Y240748D01*
X701445Y240761D01*
X701381Y240771D01*
X701317Y240777D01*
X701252Y240779D01*
X701252Y240780D02*
X700984Y240780D01*
X700913Y240778D01*
X700841Y240772D01*
X700771Y240763D01*
X700701Y240750D01*
X700631Y240733D01*
X700563Y240712D01*
X700496Y240688D01*
X700430Y240660D01*
X700366Y240629D01*
X700303Y240594D01*
X700243Y240556D01*
X700184Y240515D01*
X700128Y240471D01*
X700074Y240424D01*
X700023Y240375D01*
X699975Y240322D01*
X699929Y240267D01*
X699887Y240210D01*
X699847Y240150D01*
X699811Y240089D01*
X699778Y240025D01*
X699749Y239960D01*
X699723Y239894D01*
X699700Y239826D01*
X699681Y239757D01*
X699666Y239687D01*
X699655Y239617D01*
X699647Y239546D01*
X699643Y239475D01*
X699643Y239403D01*
X699647Y239332D01*
X699655Y239261D01*
X699666Y239191D01*
X699681Y239121D01*
X699700Y239052D01*
X699723Y238984D01*
X699749Y238918D01*
X699778Y238853D01*
X699811Y238789D01*
X699847Y238728D01*
X699887Y238668D01*
X699929Y238611D01*
X699975Y238556D01*
X700023Y238503D01*
X700074Y238454D01*
X700128Y238407D01*
X700184Y238363D01*
X700243Y238322D01*
X700303Y238284D01*
X700366Y238249D01*
X700430Y238218D01*
X700496Y238190D01*
X700563Y238166D01*
X700631Y238145D01*
X700701Y238128D01*
X700771Y238115D01*
X700841Y238106D01*
X700913Y238100D01*
X700984Y238098D01*
X700984Y238099D02*
X702324Y238099D01*
X702415Y238101D01*
X702506Y238107D01*
X702596Y238116D01*
X702687Y238130D01*
X702776Y238147D01*
X702864Y238168D01*
X702952Y238193D01*
X703039Y238222D01*
X703124Y238254D01*
X703208Y238289D01*
X703290Y238329D01*
X703370Y238371D01*
X703449Y238417D01*
X703525Y238467D01*
X703599Y238519D01*
X703672Y238575D01*
X703741Y238634D01*
X703808Y238695D01*
X703873Y238760D01*
X703934Y238827D01*
X703993Y238896D01*
X704049Y238968D01*
X704101Y239043D01*
X704151Y239119D01*
X704197Y239198D01*
X704239Y239278D01*
X704279Y239360D01*
X704314Y239444D01*
X704346Y239529D01*
X704375Y239616D01*
X704400Y239703D01*
X704421Y239792D01*
X704438Y239881D01*
X704452Y239972D01*
X704461Y240062D01*
X704467Y240153D01*
X704469Y240244D01*
D13*
X661441Y233050D02*
X661441Y232204D01*
X661443Y232149D01*
X661448Y232093D01*
X661457Y232039D01*
X661470Y231985D01*
X661486Y231932D01*
X661505Y231880D01*
X661528Y231829D01*
X661554Y231781D01*
X661584Y231733D01*
X661616Y231688D01*
X661651Y231646D01*
X661689Y231605D01*
X661730Y231567D01*
X661772Y231532D01*
X661817Y231500D01*
X661865Y231470D01*
X661913Y231444D01*
X661964Y231421D01*
X662016Y231402D01*
X662069Y231386D01*
X662123Y231373D01*
X662177Y231364D01*
X662233Y231359D01*
X662288Y231357D01*
X664404Y231357D01*
X664462Y231359D01*
X664519Y231365D01*
X664576Y231375D01*
X664633Y231388D01*
X664688Y231406D01*
X664741Y231427D01*
X664794Y231452D01*
X664844Y231480D01*
X664892Y231512D01*
X664939Y231547D01*
X664982Y231585D01*
X665023Y231626D01*
X665061Y231669D01*
X665096Y231716D01*
X665128Y231764D01*
X665156Y231814D01*
X665181Y231867D01*
X665202Y231920D01*
X665220Y231975D01*
X665233Y232032D01*
X665243Y232089D01*
X665249Y232146D01*
X665251Y232204D01*
X665251Y233050D01*
X663558Y234414D02*
X663558Y235684D01*
X663556Y235739D01*
X663551Y235795D01*
X663542Y235849D01*
X663529Y235903D01*
X663513Y235956D01*
X663494Y236008D01*
X663471Y236059D01*
X663445Y236108D01*
X663415Y236155D01*
X663383Y236200D01*
X663348Y236242D01*
X663310Y236283D01*
X663269Y236321D01*
X663227Y236356D01*
X663182Y236388D01*
X663135Y236418D01*
X663086Y236444D01*
X663035Y236467D01*
X662983Y236486D01*
X662930Y236502D01*
X662876Y236515D01*
X662822Y236524D01*
X662766Y236529D01*
X662711Y236531D01*
X662499Y236531D01*
X662435Y236529D01*
X662371Y236523D01*
X662308Y236514D01*
X662246Y236500D01*
X662184Y236483D01*
X662124Y236462D01*
X662065Y236438D01*
X662007Y236410D01*
X661952Y236378D01*
X661898Y236344D01*
X661847Y236306D01*
X661797Y236265D01*
X661751Y236221D01*
X661707Y236175D01*
X661666Y236125D01*
X661628Y236074D01*
X661594Y236020D01*
X661562Y235965D01*
X661534Y235907D01*
X661510Y235848D01*
X661489Y235788D01*
X661472Y235726D01*
X661458Y235664D01*
X661449Y235601D01*
X661443Y235537D01*
X661441Y235473D01*
X661443Y235409D01*
X661449Y235345D01*
X661458Y235282D01*
X661472Y235220D01*
X661489Y235158D01*
X661510Y235098D01*
X661534Y235039D01*
X661562Y234981D01*
X661594Y234926D01*
X661628Y234872D01*
X661666Y234821D01*
X661707Y234771D01*
X661751Y234725D01*
X661797Y234681D01*
X661847Y234640D01*
X661898Y234602D01*
X661952Y234568D01*
X662007Y234536D01*
X662065Y234508D01*
X662124Y234484D01*
X662184Y234463D01*
X662246Y234446D01*
X662308Y234432D01*
X662371Y234423D01*
X662435Y234417D01*
X662499Y234415D01*
X662499Y234414D02*
X663558Y234414D01*
X663558Y234415D02*
X663639Y234417D01*
X663719Y234423D01*
X663799Y234432D01*
X663878Y234446D01*
X663957Y234463D01*
X664035Y234484D01*
X664112Y234508D01*
X664187Y234536D01*
X664261Y234568D01*
X664334Y234603D01*
X664404Y234642D01*
X664473Y234684D01*
X664540Y234729D01*
X664605Y234777D01*
X664667Y234829D01*
X664726Y234883D01*
X664783Y234940D01*
X664837Y234999D01*
X664889Y235061D01*
X664937Y235126D01*
X664982Y235193D01*
X665024Y235261D01*
X665063Y235332D01*
X665098Y235405D01*
X665130Y235479D01*
X665158Y235554D01*
X665182Y235631D01*
X665203Y235709D01*
X665220Y235788D01*
X665234Y235867D01*
X665243Y235947D01*
X665249Y236027D01*
X665251Y236108D01*
D14*
X660044Y222340D02*
X660044Y252820D01*
X644804Y252820D01*
X644804Y222340D01*
X660044Y222340D01*
D13*
X700021Y231696D02*
X700021Y232542D01*
X700021Y231696D02*
X700023Y231641D01*
X700028Y231585D01*
X700037Y231531D01*
X700050Y231477D01*
X700066Y231424D01*
X700085Y231372D01*
X700108Y231321D01*
X700134Y231273D01*
X700164Y231225D01*
X700196Y231180D01*
X700231Y231138D01*
X700269Y231097D01*
X700310Y231059D01*
X700352Y231024D01*
X700397Y230992D01*
X700445Y230962D01*
X700493Y230936D01*
X700544Y230913D01*
X700596Y230894D01*
X700649Y230878D01*
X700703Y230865D01*
X700757Y230856D01*
X700813Y230851D01*
X700868Y230849D01*
X702984Y230849D01*
X703042Y230851D01*
X703099Y230857D01*
X703156Y230867D01*
X703213Y230880D01*
X703268Y230898D01*
X703321Y230919D01*
X703374Y230944D01*
X703424Y230972D01*
X703472Y231004D01*
X703519Y231039D01*
X703562Y231077D01*
X703603Y231118D01*
X703641Y231161D01*
X703676Y231208D01*
X703708Y231256D01*
X703736Y231306D01*
X703761Y231359D01*
X703782Y231412D01*
X703800Y231467D01*
X703813Y231524D01*
X703823Y231581D01*
X703829Y231638D01*
X703831Y231696D01*
X703831Y232542D01*
X703831Y233906D02*
X703408Y233906D01*
X703831Y233906D02*
X703831Y236023D01*
X700021Y234965D01*
D14*
X698624Y221832D02*
X698624Y252312D01*
X683384Y252312D01*
X683384Y221832D01*
X698624Y221832D01*
D13*
X738505Y231860D02*
X738505Y232706D01*
X738505Y231860D02*
X738507Y231805D01*
X738512Y231749D01*
X738521Y231695D01*
X738534Y231641D01*
X738550Y231588D01*
X738569Y231536D01*
X738592Y231485D01*
X738618Y231437D01*
X738648Y231389D01*
X738680Y231344D01*
X738715Y231302D01*
X738753Y231261D01*
X738794Y231223D01*
X738836Y231188D01*
X738881Y231156D01*
X738929Y231126D01*
X738977Y231100D01*
X739028Y231077D01*
X739080Y231058D01*
X739133Y231042D01*
X739187Y231029D01*
X739241Y231020D01*
X739297Y231015D01*
X739352Y231013D01*
X741468Y231013D01*
X741526Y231015D01*
X741583Y231021D01*
X741640Y231031D01*
X741697Y231044D01*
X741752Y231062D01*
X741805Y231083D01*
X741858Y231108D01*
X741908Y231136D01*
X741956Y231168D01*
X742003Y231203D01*
X742046Y231241D01*
X742087Y231282D01*
X742125Y231325D01*
X742160Y231372D01*
X742192Y231420D01*
X742220Y231470D01*
X742245Y231523D01*
X742266Y231576D01*
X742284Y231631D01*
X742297Y231688D01*
X742307Y231745D01*
X742313Y231802D01*
X742315Y231860D01*
X742315Y232706D01*
X739563Y234071D02*
X739627Y234073D01*
X739691Y234079D01*
X739754Y234088D01*
X739816Y234102D01*
X739878Y234119D01*
X739938Y234140D01*
X739997Y234164D01*
X740055Y234192D01*
X740110Y234224D01*
X740164Y234258D01*
X740215Y234296D01*
X740265Y234337D01*
X740311Y234381D01*
X740355Y234427D01*
X740396Y234477D01*
X740434Y234528D01*
X740468Y234582D01*
X740500Y234637D01*
X740528Y234695D01*
X740552Y234754D01*
X740573Y234814D01*
X740590Y234876D01*
X740604Y234938D01*
X740613Y235001D01*
X740619Y235065D01*
X740621Y235129D01*
X740619Y235193D01*
X740613Y235257D01*
X740604Y235320D01*
X740590Y235382D01*
X740573Y235444D01*
X740552Y235504D01*
X740528Y235563D01*
X740500Y235621D01*
X740468Y235676D01*
X740434Y235730D01*
X740396Y235781D01*
X740355Y235831D01*
X740311Y235877D01*
X740265Y235921D01*
X740215Y235962D01*
X740164Y236000D01*
X740110Y236034D01*
X740055Y236066D01*
X739997Y236094D01*
X739938Y236118D01*
X739878Y236139D01*
X739816Y236156D01*
X739754Y236170D01*
X739691Y236179D01*
X739627Y236185D01*
X739563Y236187D01*
X739499Y236185D01*
X739435Y236179D01*
X739372Y236170D01*
X739310Y236156D01*
X739248Y236139D01*
X739188Y236118D01*
X739129Y236094D01*
X739071Y236066D01*
X739016Y236034D01*
X738962Y236000D01*
X738911Y235962D01*
X738861Y235921D01*
X738815Y235877D01*
X738771Y235831D01*
X738730Y235781D01*
X738692Y235730D01*
X738658Y235676D01*
X738626Y235621D01*
X738598Y235563D01*
X738574Y235504D01*
X738553Y235444D01*
X738536Y235382D01*
X738522Y235320D01*
X738513Y235257D01*
X738507Y235193D01*
X738505Y235129D01*
X738507Y235065D01*
X738513Y235001D01*
X738522Y234938D01*
X738536Y234876D01*
X738553Y234814D01*
X738574Y234754D01*
X738598Y234695D01*
X738626Y234637D01*
X738658Y234582D01*
X738692Y234528D01*
X738730Y234477D01*
X738771Y234427D01*
X738815Y234381D01*
X738861Y234337D01*
X738911Y234296D01*
X738962Y234258D01*
X739016Y234224D01*
X739071Y234192D01*
X739129Y234164D01*
X739188Y234140D01*
X739248Y234119D01*
X739310Y234102D01*
X739372Y234088D01*
X739435Y234079D01*
X739499Y234073D01*
X739563Y234071D01*
X741468Y234282D02*
X741525Y234284D01*
X741581Y234290D01*
X741637Y234299D01*
X741692Y234312D01*
X741746Y234329D01*
X741799Y234349D01*
X741850Y234373D01*
X741900Y234400D01*
X741947Y234431D01*
X741993Y234464D01*
X742036Y234501D01*
X742077Y234540D01*
X742115Y234582D01*
X742150Y234627D01*
X742182Y234673D01*
X742211Y234722D01*
X742236Y234772D01*
X742258Y234825D01*
X742277Y234878D01*
X742292Y234933D01*
X742303Y234988D01*
X742311Y235044D01*
X742315Y235101D01*
X742315Y235157D01*
X742311Y235214D01*
X742303Y235270D01*
X742292Y235325D01*
X742277Y235380D01*
X742258Y235433D01*
X742236Y235486D01*
X742211Y235536D01*
X742182Y235585D01*
X742150Y235631D01*
X742115Y235676D01*
X742077Y235718D01*
X742036Y235757D01*
X741993Y235794D01*
X741947Y235827D01*
X741900Y235858D01*
X741850Y235885D01*
X741799Y235909D01*
X741746Y235929D01*
X741692Y235946D01*
X741637Y235959D01*
X741581Y235968D01*
X741525Y235974D01*
X741468Y235976D01*
X741411Y235974D01*
X741355Y235968D01*
X741299Y235959D01*
X741244Y235946D01*
X741190Y235929D01*
X741137Y235909D01*
X741086Y235885D01*
X741036Y235858D01*
X740989Y235827D01*
X740943Y235794D01*
X740900Y235757D01*
X740859Y235718D01*
X740821Y235676D01*
X740786Y235631D01*
X740754Y235585D01*
X740725Y235536D01*
X740700Y235486D01*
X740678Y235433D01*
X740659Y235380D01*
X740644Y235325D01*
X740633Y235270D01*
X740625Y235214D01*
X740621Y235157D01*
X740621Y235101D01*
X740625Y235044D01*
X740633Y234988D01*
X740644Y234933D01*
X740659Y234878D01*
X740678Y234825D01*
X740700Y234772D01*
X740725Y234722D01*
X740754Y234673D01*
X740786Y234627D01*
X740821Y234582D01*
X740859Y234540D01*
X740900Y234501D01*
X740943Y234464D01*
X740989Y234431D01*
X741036Y234400D01*
X741086Y234373D01*
X741137Y234349D01*
X741190Y234329D01*
X741244Y234312D01*
X741299Y234299D01*
X741355Y234290D01*
X741411Y234284D01*
X741468Y234282D01*
D14*
X737108Y221996D02*
X737108Y252476D01*
X721868Y252476D01*
X721868Y221996D01*
X737108Y221996D01*
D13*
X755523Y472910D02*
X759333Y472910D01*
X759333Y473968D01*
X759331Y474032D01*
X759325Y474096D01*
X759316Y474159D01*
X759302Y474221D01*
X759285Y474283D01*
X759264Y474343D01*
X759240Y474402D01*
X759212Y474460D01*
X759180Y474515D01*
X759146Y474569D01*
X759108Y474620D01*
X759067Y474670D01*
X759023Y474716D01*
X758977Y474760D01*
X758927Y474801D01*
X758876Y474839D01*
X758822Y474873D01*
X758767Y474905D01*
X758709Y474933D01*
X758650Y474957D01*
X758590Y474978D01*
X758528Y474995D01*
X758466Y475009D01*
X758403Y475018D01*
X758339Y475024D01*
X758275Y475026D01*
X758211Y475024D01*
X758147Y475018D01*
X758084Y475009D01*
X758022Y474995D01*
X757960Y474978D01*
X757900Y474957D01*
X757841Y474933D01*
X757783Y474905D01*
X757728Y474873D01*
X757674Y474839D01*
X757623Y474801D01*
X757573Y474760D01*
X757527Y474716D01*
X757483Y474670D01*
X757442Y474620D01*
X757404Y474569D01*
X757370Y474515D01*
X757338Y474460D01*
X757310Y474402D01*
X757286Y474343D01*
X757265Y474283D01*
X757248Y474221D01*
X757234Y474159D01*
X757225Y474096D01*
X757219Y474032D01*
X757217Y473968D01*
X757216Y473968D02*
X757216Y472910D01*
X757216Y474180D02*
X755523Y475026D01*
X758910Y476546D02*
X759333Y476546D01*
X759333Y478663D01*
X755523Y477605D01*
D14*
X759460Y485140D02*
X759460Y454660D01*
X774700Y454660D01*
X774700Y485140D01*
X759460Y485140D01*
D13*
X755777Y465370D02*
X755777Y464524D01*
X755779Y464469D01*
X755784Y464413D01*
X755793Y464359D01*
X755806Y464305D01*
X755822Y464252D01*
X755841Y464200D01*
X755864Y464149D01*
X755890Y464101D01*
X755920Y464053D01*
X755952Y464008D01*
X755987Y463966D01*
X756025Y463925D01*
X756066Y463887D01*
X756108Y463852D01*
X756153Y463820D01*
X756201Y463790D01*
X756249Y463764D01*
X756300Y463741D01*
X756352Y463722D01*
X756405Y463706D01*
X756459Y463693D01*
X756513Y463684D01*
X756569Y463679D01*
X756624Y463677D01*
X758740Y463677D01*
X758798Y463679D01*
X758855Y463685D01*
X758912Y463695D01*
X758969Y463708D01*
X759024Y463726D01*
X759077Y463747D01*
X759130Y463772D01*
X759180Y463800D01*
X759228Y463832D01*
X759275Y463867D01*
X759318Y463905D01*
X759359Y463946D01*
X759397Y463989D01*
X759432Y464036D01*
X759464Y464084D01*
X759492Y464134D01*
X759517Y464187D01*
X759538Y464240D01*
X759556Y464295D01*
X759569Y464352D01*
X759579Y464409D01*
X759585Y464466D01*
X759587Y464524D01*
X759587Y465370D01*
X757470Y467581D02*
X757470Y468851D01*
X757470Y467581D02*
X757472Y467526D01*
X757477Y467470D01*
X757486Y467416D01*
X757499Y467362D01*
X757515Y467309D01*
X757534Y467257D01*
X757557Y467206D01*
X757583Y467158D01*
X757613Y467110D01*
X757645Y467065D01*
X757680Y467023D01*
X757718Y466982D01*
X757759Y466944D01*
X757801Y466909D01*
X757846Y466877D01*
X757894Y466847D01*
X757942Y466821D01*
X757993Y466798D01*
X758045Y466779D01*
X758098Y466763D01*
X758152Y466750D01*
X758206Y466741D01*
X758262Y466736D01*
X758317Y466734D01*
X758529Y466734D01*
X758529Y466735D02*
X758593Y466737D01*
X758657Y466743D01*
X758720Y466752D01*
X758782Y466766D01*
X758844Y466783D01*
X758904Y466804D01*
X758963Y466828D01*
X759021Y466856D01*
X759076Y466888D01*
X759130Y466922D01*
X759181Y466960D01*
X759231Y467001D01*
X759277Y467045D01*
X759321Y467091D01*
X759362Y467141D01*
X759400Y467192D01*
X759434Y467246D01*
X759466Y467301D01*
X759494Y467359D01*
X759518Y467418D01*
X759539Y467478D01*
X759556Y467540D01*
X759570Y467602D01*
X759579Y467665D01*
X759585Y467729D01*
X759587Y467793D01*
X759585Y467857D01*
X759579Y467921D01*
X759570Y467984D01*
X759556Y468046D01*
X759539Y468108D01*
X759518Y468168D01*
X759494Y468227D01*
X759466Y468285D01*
X759434Y468340D01*
X759400Y468394D01*
X759362Y468445D01*
X759321Y468495D01*
X759277Y468541D01*
X759231Y468585D01*
X759181Y468626D01*
X759130Y468664D01*
X759076Y468698D01*
X759021Y468730D01*
X758963Y468758D01*
X758904Y468782D01*
X758844Y468803D01*
X758782Y468820D01*
X758720Y468834D01*
X758657Y468843D01*
X758593Y468849D01*
X758529Y468851D01*
X757470Y468851D01*
X757389Y468849D01*
X757309Y468843D01*
X757229Y468834D01*
X757150Y468820D01*
X757071Y468803D01*
X756993Y468782D01*
X756916Y468758D01*
X756841Y468730D01*
X756767Y468698D01*
X756694Y468663D01*
X756624Y468624D01*
X756555Y468582D01*
X756488Y468537D01*
X756423Y468489D01*
X756361Y468437D01*
X756302Y468383D01*
X756245Y468326D01*
X756191Y468267D01*
X756139Y468205D01*
X756091Y468140D01*
X756046Y468073D01*
X756004Y468005D01*
X755965Y467934D01*
X755930Y467861D01*
X755898Y467787D01*
X755870Y467712D01*
X755846Y467635D01*
X755825Y467557D01*
X755808Y467478D01*
X755794Y467399D01*
X755785Y467319D01*
X755779Y467239D01*
X755777Y467158D01*
D14*
X754380Y454660D02*
X754380Y485140D01*
X739140Y485140D01*
X739140Y454660D01*
X754380Y454660D01*
D13*
X370967Y325247D02*
X367157Y325247D01*
X370967Y325247D02*
X370967Y326305D01*
X370965Y326369D01*
X370959Y326433D01*
X370950Y326496D01*
X370936Y326558D01*
X370919Y326620D01*
X370898Y326680D01*
X370874Y326739D01*
X370846Y326797D01*
X370814Y326852D01*
X370780Y326906D01*
X370742Y326957D01*
X370701Y327007D01*
X370657Y327053D01*
X370611Y327097D01*
X370561Y327138D01*
X370510Y327176D01*
X370456Y327210D01*
X370401Y327242D01*
X370343Y327270D01*
X370284Y327294D01*
X370224Y327315D01*
X370162Y327332D01*
X370100Y327346D01*
X370037Y327355D01*
X369973Y327361D01*
X369909Y327363D01*
X369845Y327361D01*
X369781Y327355D01*
X369718Y327346D01*
X369656Y327332D01*
X369594Y327315D01*
X369534Y327294D01*
X369475Y327270D01*
X369417Y327242D01*
X369362Y327210D01*
X369308Y327176D01*
X369257Y327138D01*
X369207Y327097D01*
X369161Y327053D01*
X369117Y327007D01*
X369076Y326957D01*
X369038Y326906D01*
X369004Y326852D01*
X368972Y326797D01*
X368944Y326739D01*
X368920Y326680D01*
X368899Y326620D01*
X368882Y326558D01*
X368868Y326496D01*
X368859Y326433D01*
X368853Y326369D01*
X368851Y326305D01*
X368850Y326305D02*
X368850Y325247D01*
X368850Y326517D02*
X367157Y327364D01*
X368850Y329730D02*
X368850Y331000D01*
X368850Y329730D02*
X368852Y329675D01*
X368857Y329619D01*
X368866Y329565D01*
X368879Y329511D01*
X368895Y329458D01*
X368914Y329406D01*
X368937Y329355D01*
X368963Y329307D01*
X368993Y329259D01*
X369025Y329214D01*
X369060Y329172D01*
X369098Y329131D01*
X369139Y329093D01*
X369181Y329058D01*
X369226Y329026D01*
X369274Y328996D01*
X369322Y328970D01*
X369373Y328947D01*
X369425Y328928D01*
X369478Y328912D01*
X369532Y328899D01*
X369586Y328890D01*
X369642Y328885D01*
X369697Y328883D01*
X369697Y328884D02*
X369909Y328884D01*
X369973Y328886D01*
X370037Y328892D01*
X370100Y328901D01*
X370162Y328915D01*
X370224Y328932D01*
X370284Y328953D01*
X370343Y328977D01*
X370401Y329005D01*
X370456Y329037D01*
X370510Y329071D01*
X370561Y329109D01*
X370611Y329150D01*
X370657Y329194D01*
X370701Y329240D01*
X370742Y329290D01*
X370780Y329341D01*
X370814Y329395D01*
X370846Y329450D01*
X370874Y329508D01*
X370898Y329567D01*
X370919Y329627D01*
X370936Y329689D01*
X370950Y329751D01*
X370959Y329814D01*
X370965Y329878D01*
X370967Y329942D01*
X370965Y330006D01*
X370959Y330070D01*
X370950Y330133D01*
X370936Y330195D01*
X370919Y330257D01*
X370898Y330317D01*
X370874Y330376D01*
X370846Y330434D01*
X370814Y330489D01*
X370780Y330543D01*
X370742Y330594D01*
X370701Y330644D01*
X370657Y330690D01*
X370611Y330734D01*
X370561Y330775D01*
X370510Y330813D01*
X370456Y330847D01*
X370401Y330879D01*
X370343Y330907D01*
X370284Y330931D01*
X370224Y330952D01*
X370162Y330969D01*
X370100Y330983D01*
X370037Y330992D01*
X369973Y330998D01*
X369909Y331000D01*
X368850Y331000D01*
X368769Y330998D01*
X368689Y330992D01*
X368609Y330983D01*
X368530Y330969D01*
X368451Y330952D01*
X368373Y330931D01*
X368296Y330907D01*
X368221Y330879D01*
X368147Y330847D01*
X368074Y330812D01*
X368004Y330773D01*
X367935Y330731D01*
X367868Y330686D01*
X367803Y330638D01*
X367741Y330586D01*
X367682Y330532D01*
X367625Y330475D01*
X367571Y330416D01*
X367519Y330354D01*
X367471Y330289D01*
X367426Y330222D01*
X367384Y330154D01*
X367345Y330083D01*
X367310Y330010D01*
X367278Y329936D01*
X367250Y329861D01*
X367226Y329784D01*
X367205Y329706D01*
X367188Y329627D01*
X367174Y329548D01*
X367165Y329468D01*
X367159Y329388D01*
X367157Y329307D01*
D14*
X367030Y318770D02*
X367030Y349250D01*
X351790Y349250D01*
X351790Y318770D01*
X367030Y318770D01*
D13*
X348107Y325247D02*
X344297Y325247D01*
X348107Y325247D02*
X348107Y326305D01*
X348105Y326369D01*
X348099Y326433D01*
X348090Y326496D01*
X348076Y326558D01*
X348059Y326620D01*
X348038Y326680D01*
X348014Y326739D01*
X347986Y326797D01*
X347954Y326852D01*
X347920Y326906D01*
X347882Y326957D01*
X347841Y327007D01*
X347797Y327053D01*
X347751Y327097D01*
X347701Y327138D01*
X347650Y327176D01*
X347596Y327210D01*
X347541Y327242D01*
X347483Y327270D01*
X347424Y327294D01*
X347364Y327315D01*
X347302Y327332D01*
X347240Y327346D01*
X347177Y327355D01*
X347113Y327361D01*
X347049Y327363D01*
X346985Y327361D01*
X346921Y327355D01*
X346858Y327346D01*
X346796Y327332D01*
X346734Y327315D01*
X346674Y327294D01*
X346615Y327270D01*
X346557Y327242D01*
X346502Y327210D01*
X346448Y327176D01*
X346397Y327138D01*
X346347Y327097D01*
X346301Y327053D01*
X346257Y327007D01*
X346216Y326957D01*
X346178Y326906D01*
X346144Y326852D01*
X346112Y326797D01*
X346084Y326739D01*
X346060Y326680D01*
X346039Y326620D01*
X346022Y326558D01*
X346008Y326496D01*
X345999Y326433D01*
X345993Y326369D01*
X345991Y326305D01*
X345990Y326305D02*
X345990Y325247D01*
X345990Y326517D02*
X344297Y327364D01*
X347260Y328884D02*
X348107Y329942D01*
X344297Y329942D01*
X344297Y328884D02*
X344297Y331000D01*
X346202Y332541D02*
X346312Y332543D01*
X346421Y332549D01*
X346530Y332558D01*
X346639Y332572D01*
X346747Y332589D01*
X346855Y332610D01*
X346961Y332634D01*
X347067Y332663D01*
X347172Y332695D01*
X347276Y332730D01*
X347378Y332769D01*
X347479Y332812D01*
X347578Y332859D01*
X347628Y332879D01*
X347677Y332901D01*
X347725Y332927D01*
X347770Y332956D01*
X347813Y332989D01*
X347854Y333024D01*
X347893Y333062D01*
X347928Y333102D01*
X347961Y333145D01*
X347991Y333190D01*
X348018Y333237D01*
X348041Y333285D01*
X348061Y333335D01*
X348077Y333387D01*
X348090Y333439D01*
X348100Y333492D01*
X348105Y333546D01*
X348107Y333600D01*
X348105Y333654D01*
X348100Y333708D01*
X348090Y333761D01*
X348077Y333813D01*
X348061Y333865D01*
X348041Y333915D01*
X348018Y333963D01*
X347991Y334010D01*
X347961Y334055D01*
X347928Y334098D01*
X347893Y334138D01*
X347854Y334176D01*
X347813Y334211D01*
X347770Y334244D01*
X347725Y334273D01*
X347677Y334299D01*
X347628Y334321D01*
X347578Y334341D01*
X347578Y334340D02*
X347479Y334387D01*
X347378Y334430D01*
X347276Y334469D01*
X347172Y334504D01*
X347067Y334536D01*
X346961Y334565D01*
X346855Y334589D01*
X346747Y334610D01*
X346639Y334627D01*
X346530Y334641D01*
X346421Y334650D01*
X346312Y334656D01*
X346202Y334658D01*
X346202Y332541D02*
X346092Y332543D01*
X345983Y332549D01*
X345874Y332558D01*
X345765Y332572D01*
X345657Y332589D01*
X345549Y332610D01*
X345443Y332634D01*
X345337Y332663D01*
X345232Y332695D01*
X345129Y332730D01*
X345026Y332769D01*
X344925Y332812D01*
X344826Y332859D01*
X344776Y332879D01*
X344727Y332901D01*
X344679Y332927D01*
X344634Y332956D01*
X344591Y332989D01*
X344550Y333024D01*
X344511Y333062D01*
X344476Y333102D01*
X344443Y333145D01*
X344413Y333190D01*
X344386Y333237D01*
X344363Y333285D01*
X344343Y333335D01*
X344327Y333387D01*
X344314Y333439D01*
X344304Y333492D01*
X344299Y333546D01*
X344297Y333600D01*
X344826Y334340D02*
X344925Y334387D01*
X345026Y334430D01*
X345129Y334469D01*
X345232Y334504D01*
X345337Y334536D01*
X345443Y334565D01*
X345549Y334589D01*
X345657Y334610D01*
X345765Y334627D01*
X345874Y334641D01*
X345983Y334650D01*
X346092Y334656D01*
X346202Y334658D01*
X344826Y334341D02*
X344776Y334321D01*
X344727Y334299D01*
X344679Y334273D01*
X344634Y334244D01*
X344591Y334211D01*
X344550Y334176D01*
X344511Y334138D01*
X344476Y334098D01*
X344443Y334055D01*
X344413Y334010D01*
X344386Y333963D01*
X344363Y333915D01*
X344343Y333865D01*
X344327Y333813D01*
X344314Y333761D01*
X344304Y333708D01*
X344299Y333654D01*
X344297Y333600D01*
X345144Y332753D02*
X347260Y334446D01*
D14*
X344170Y349250D02*
X344170Y318770D01*
X344170Y349250D02*
X328930Y349250D01*
X328930Y318770D01*
X344170Y318770D01*
D13*
X228387Y324675D02*
X224577Y324675D01*
X228387Y324675D02*
X228387Y325733D01*
X228385Y325797D01*
X228379Y325861D01*
X228370Y325924D01*
X228356Y325986D01*
X228339Y326048D01*
X228318Y326108D01*
X228294Y326167D01*
X228266Y326225D01*
X228234Y326280D01*
X228200Y326334D01*
X228162Y326385D01*
X228121Y326435D01*
X228077Y326481D01*
X228031Y326525D01*
X227981Y326566D01*
X227930Y326604D01*
X227876Y326638D01*
X227821Y326670D01*
X227763Y326698D01*
X227704Y326722D01*
X227644Y326743D01*
X227582Y326760D01*
X227520Y326774D01*
X227457Y326783D01*
X227393Y326789D01*
X227329Y326791D01*
X227265Y326789D01*
X227201Y326783D01*
X227138Y326774D01*
X227076Y326760D01*
X227014Y326743D01*
X226954Y326722D01*
X226895Y326698D01*
X226837Y326670D01*
X226782Y326638D01*
X226728Y326604D01*
X226677Y326566D01*
X226627Y326525D01*
X226581Y326481D01*
X226537Y326435D01*
X226496Y326385D01*
X226458Y326334D01*
X226424Y326280D01*
X226392Y326225D01*
X226364Y326167D01*
X226340Y326108D01*
X226319Y326048D01*
X226302Y325986D01*
X226288Y325924D01*
X226279Y325861D01*
X226273Y325797D01*
X226271Y325733D01*
X226270Y325733D02*
X226270Y324675D01*
X226270Y325945D02*
X224577Y326792D01*
X227540Y328312D02*
X228387Y329370D01*
X224577Y329370D01*
X224577Y328312D02*
X224577Y330428D01*
X227540Y331969D02*
X228387Y333028D01*
X224577Y333028D01*
X224577Y334086D02*
X224577Y331969D01*
D14*
X224450Y318198D02*
X224450Y348678D01*
X209210Y348678D01*
X209210Y318198D01*
X224450Y318198D01*
D13*
X208719Y324295D02*
X204909Y324295D01*
X208719Y324295D02*
X208719Y325353D01*
X208717Y325417D01*
X208711Y325481D01*
X208702Y325544D01*
X208688Y325606D01*
X208671Y325668D01*
X208650Y325728D01*
X208626Y325787D01*
X208598Y325845D01*
X208566Y325900D01*
X208532Y325954D01*
X208494Y326005D01*
X208453Y326055D01*
X208409Y326101D01*
X208363Y326145D01*
X208313Y326186D01*
X208262Y326224D01*
X208208Y326258D01*
X208153Y326290D01*
X208095Y326318D01*
X208036Y326342D01*
X207976Y326363D01*
X207914Y326380D01*
X207852Y326394D01*
X207789Y326403D01*
X207725Y326409D01*
X207661Y326411D01*
X207597Y326409D01*
X207533Y326403D01*
X207470Y326394D01*
X207408Y326380D01*
X207346Y326363D01*
X207286Y326342D01*
X207227Y326318D01*
X207169Y326290D01*
X207114Y326258D01*
X207060Y326224D01*
X207009Y326186D01*
X206959Y326145D01*
X206913Y326101D01*
X206869Y326055D01*
X206828Y326005D01*
X206790Y325954D01*
X206756Y325900D01*
X206724Y325845D01*
X206696Y325787D01*
X206672Y325728D01*
X206651Y325668D01*
X206634Y325606D01*
X206620Y325544D01*
X206611Y325481D01*
X206605Y325417D01*
X206603Y325353D01*
X206602Y325353D02*
X206602Y324295D01*
X206602Y325565D02*
X204909Y326412D01*
X207872Y327932D02*
X208719Y328990D01*
X204909Y328990D01*
X204909Y327932D02*
X204909Y330048D01*
X207767Y333706D02*
X207827Y333704D01*
X207886Y333698D01*
X207946Y333689D01*
X208004Y333676D01*
X208061Y333659D01*
X208118Y333639D01*
X208173Y333615D01*
X208226Y333588D01*
X208278Y333558D01*
X208327Y333524D01*
X208374Y333487D01*
X208419Y333448D01*
X208462Y333405D01*
X208501Y333360D01*
X208538Y333313D01*
X208572Y333264D01*
X208602Y333212D01*
X208629Y333159D01*
X208653Y333104D01*
X208673Y333047D01*
X208690Y332990D01*
X208703Y332932D01*
X208712Y332872D01*
X208718Y332813D01*
X208720Y332753D01*
X208719Y332753D02*
X208717Y332686D01*
X208712Y332619D01*
X208703Y332553D01*
X208690Y332487D01*
X208674Y332423D01*
X208654Y332359D01*
X208630Y332296D01*
X208604Y332234D01*
X208574Y332175D01*
X208541Y332117D01*
X208504Y332060D01*
X208465Y332006D01*
X208423Y331954D01*
X208378Y331905D01*
X208330Y331858D01*
X208280Y331814D01*
X208227Y331772D01*
X208172Y331734D01*
X208116Y331698D01*
X208057Y331666D01*
X207997Y331637D01*
X207935Y331611D01*
X207872Y331589D01*
X207026Y333389D02*
X207068Y333430D01*
X207113Y333469D01*
X207159Y333506D01*
X207208Y333540D01*
X207258Y333571D01*
X207310Y333598D01*
X207364Y333623D01*
X207419Y333645D01*
X207475Y333664D01*
X207532Y333679D01*
X207590Y333691D01*
X207649Y333699D01*
X207708Y333704D01*
X207767Y333706D01*
X207026Y333388D02*
X204909Y331589D01*
X204909Y333706D01*
D14*
X204782Y348298D02*
X204782Y317818D01*
X204782Y348298D02*
X189542Y348298D01*
X189542Y317818D01*
X204782Y317818D01*
D13*
X89957Y324375D02*
X86147Y324375D01*
X89957Y324375D02*
X89957Y325433D01*
X89955Y325497D01*
X89949Y325561D01*
X89940Y325624D01*
X89926Y325686D01*
X89909Y325748D01*
X89888Y325808D01*
X89864Y325867D01*
X89836Y325925D01*
X89804Y325980D01*
X89770Y326034D01*
X89732Y326085D01*
X89691Y326135D01*
X89647Y326181D01*
X89601Y326225D01*
X89551Y326266D01*
X89500Y326304D01*
X89446Y326338D01*
X89391Y326370D01*
X89333Y326398D01*
X89274Y326422D01*
X89214Y326443D01*
X89152Y326460D01*
X89090Y326474D01*
X89027Y326483D01*
X88963Y326489D01*
X88899Y326491D01*
X88835Y326489D01*
X88771Y326483D01*
X88708Y326474D01*
X88646Y326460D01*
X88584Y326443D01*
X88524Y326422D01*
X88465Y326398D01*
X88407Y326370D01*
X88352Y326338D01*
X88298Y326304D01*
X88247Y326266D01*
X88197Y326225D01*
X88151Y326181D01*
X88107Y326135D01*
X88066Y326085D01*
X88028Y326034D01*
X87994Y325980D01*
X87962Y325925D01*
X87934Y325867D01*
X87910Y325808D01*
X87889Y325748D01*
X87872Y325686D01*
X87858Y325624D01*
X87849Y325561D01*
X87843Y325497D01*
X87841Y325433D01*
X87840Y325433D02*
X87840Y324375D01*
X87840Y325645D02*
X86147Y326492D01*
X89110Y328012D02*
X89957Y329070D01*
X86147Y329070D01*
X86147Y328012D02*
X86147Y330128D01*
X86147Y331669D02*
X86147Y332728D01*
X86149Y332792D01*
X86155Y332856D01*
X86164Y332919D01*
X86178Y332981D01*
X86195Y333043D01*
X86216Y333103D01*
X86240Y333162D01*
X86268Y333220D01*
X86300Y333275D01*
X86334Y333329D01*
X86372Y333380D01*
X86413Y333430D01*
X86457Y333476D01*
X86503Y333520D01*
X86553Y333561D01*
X86604Y333599D01*
X86658Y333633D01*
X86713Y333665D01*
X86771Y333693D01*
X86830Y333717D01*
X86890Y333738D01*
X86952Y333755D01*
X87014Y333769D01*
X87077Y333778D01*
X87141Y333784D01*
X87205Y333786D01*
X87269Y333784D01*
X87333Y333778D01*
X87396Y333769D01*
X87458Y333755D01*
X87520Y333738D01*
X87580Y333717D01*
X87639Y333693D01*
X87697Y333665D01*
X87752Y333633D01*
X87806Y333599D01*
X87857Y333561D01*
X87907Y333520D01*
X87953Y333476D01*
X87997Y333430D01*
X88038Y333380D01*
X88076Y333329D01*
X88110Y333275D01*
X88142Y333220D01*
X88170Y333162D01*
X88194Y333103D01*
X88215Y333043D01*
X88232Y332981D01*
X88246Y332919D01*
X88255Y332856D01*
X88261Y332792D01*
X88263Y332728D01*
X89957Y332939D02*
X89957Y331669D01*
X89957Y332939D02*
X89955Y332996D01*
X89949Y333052D01*
X89940Y333108D01*
X89927Y333163D01*
X89910Y333217D01*
X89890Y333270D01*
X89866Y333321D01*
X89839Y333371D01*
X89808Y333418D01*
X89775Y333464D01*
X89738Y333507D01*
X89699Y333548D01*
X89657Y333586D01*
X89612Y333621D01*
X89566Y333653D01*
X89517Y333682D01*
X89467Y333707D01*
X89414Y333729D01*
X89361Y333748D01*
X89306Y333763D01*
X89251Y333774D01*
X89195Y333782D01*
X89138Y333786D01*
X89082Y333786D01*
X89025Y333782D01*
X88969Y333774D01*
X88914Y333763D01*
X88859Y333748D01*
X88806Y333729D01*
X88753Y333707D01*
X88703Y333682D01*
X88654Y333653D01*
X88608Y333621D01*
X88563Y333586D01*
X88521Y333548D01*
X88482Y333507D01*
X88445Y333464D01*
X88412Y333418D01*
X88381Y333371D01*
X88354Y333321D01*
X88330Y333270D01*
X88310Y333217D01*
X88293Y333163D01*
X88280Y333108D01*
X88271Y333052D01*
X88265Y332996D01*
X88263Y332939D01*
X88264Y332939D02*
X88264Y332093D01*
D14*
X86020Y317898D02*
X86020Y348378D01*
X70780Y348378D01*
X70780Y317898D01*
X86020Y317898D01*
D13*
X67749Y324087D02*
X63939Y324087D01*
X67749Y324087D02*
X67749Y325145D01*
X67747Y325209D01*
X67741Y325273D01*
X67732Y325336D01*
X67718Y325398D01*
X67701Y325460D01*
X67680Y325520D01*
X67656Y325579D01*
X67628Y325637D01*
X67596Y325692D01*
X67562Y325746D01*
X67524Y325797D01*
X67483Y325847D01*
X67439Y325893D01*
X67393Y325937D01*
X67343Y325978D01*
X67292Y326016D01*
X67238Y326050D01*
X67183Y326082D01*
X67125Y326110D01*
X67066Y326134D01*
X67006Y326155D01*
X66944Y326172D01*
X66882Y326186D01*
X66819Y326195D01*
X66755Y326201D01*
X66691Y326203D01*
X66627Y326201D01*
X66563Y326195D01*
X66500Y326186D01*
X66438Y326172D01*
X66376Y326155D01*
X66316Y326134D01*
X66257Y326110D01*
X66199Y326082D01*
X66144Y326050D01*
X66090Y326016D01*
X66039Y325978D01*
X65989Y325937D01*
X65943Y325893D01*
X65899Y325847D01*
X65858Y325797D01*
X65820Y325746D01*
X65786Y325692D01*
X65754Y325637D01*
X65726Y325579D01*
X65702Y325520D01*
X65681Y325460D01*
X65664Y325398D01*
X65650Y325336D01*
X65641Y325273D01*
X65635Y325209D01*
X65633Y325145D01*
X65632Y325145D02*
X65632Y324087D01*
X65632Y325357D02*
X63939Y326204D01*
X66902Y327724D02*
X67749Y328782D01*
X63939Y328782D01*
X63939Y327724D02*
X63939Y329840D01*
X64786Y331381D02*
X67749Y332228D01*
X64786Y331381D02*
X64786Y333498D01*
X65632Y332863D02*
X63939Y332863D01*
D14*
X63812Y348090D02*
X63812Y317610D01*
X63812Y348090D02*
X48572Y348090D01*
X48572Y317610D01*
X63812Y317610D01*
D13*
X775843Y472910D02*
X779653Y472910D01*
X779653Y473968D01*
X779651Y474032D01*
X779645Y474096D01*
X779636Y474159D01*
X779622Y474221D01*
X779605Y474283D01*
X779584Y474343D01*
X779560Y474402D01*
X779532Y474460D01*
X779500Y474515D01*
X779466Y474569D01*
X779428Y474620D01*
X779387Y474670D01*
X779343Y474716D01*
X779297Y474760D01*
X779247Y474801D01*
X779196Y474839D01*
X779142Y474873D01*
X779087Y474905D01*
X779029Y474933D01*
X778970Y474957D01*
X778910Y474978D01*
X778848Y474995D01*
X778786Y475009D01*
X778723Y475018D01*
X778659Y475024D01*
X778595Y475026D01*
X778531Y475024D01*
X778467Y475018D01*
X778404Y475009D01*
X778342Y474995D01*
X778280Y474978D01*
X778220Y474957D01*
X778161Y474933D01*
X778103Y474905D01*
X778048Y474873D01*
X777994Y474839D01*
X777943Y474801D01*
X777893Y474760D01*
X777847Y474716D01*
X777803Y474670D01*
X777762Y474620D01*
X777724Y474569D01*
X777690Y474515D01*
X777658Y474460D01*
X777630Y474402D01*
X777606Y474343D01*
X777585Y474283D01*
X777568Y474221D01*
X777554Y474159D01*
X777545Y474096D01*
X777539Y474032D01*
X777537Y473968D01*
X777536Y473968D02*
X777536Y472910D01*
X777536Y474180D02*
X775843Y475026D01*
X776901Y476547D02*
X776965Y476549D01*
X777029Y476555D01*
X777092Y476564D01*
X777154Y476578D01*
X777216Y476595D01*
X777276Y476616D01*
X777335Y476640D01*
X777393Y476668D01*
X777448Y476700D01*
X777502Y476734D01*
X777553Y476772D01*
X777603Y476813D01*
X777649Y476857D01*
X777693Y476903D01*
X777734Y476953D01*
X777772Y477004D01*
X777806Y477058D01*
X777838Y477113D01*
X777866Y477171D01*
X777890Y477230D01*
X777911Y477290D01*
X777928Y477352D01*
X777942Y477414D01*
X777951Y477477D01*
X777957Y477541D01*
X777959Y477605D01*
X777957Y477669D01*
X777951Y477733D01*
X777942Y477796D01*
X777928Y477858D01*
X777911Y477920D01*
X777890Y477980D01*
X777866Y478039D01*
X777838Y478097D01*
X777806Y478152D01*
X777772Y478206D01*
X777734Y478257D01*
X777693Y478307D01*
X777649Y478353D01*
X777603Y478397D01*
X777553Y478438D01*
X777502Y478476D01*
X777448Y478510D01*
X777393Y478542D01*
X777335Y478570D01*
X777276Y478594D01*
X777216Y478615D01*
X777154Y478632D01*
X777092Y478646D01*
X777029Y478655D01*
X776965Y478661D01*
X776901Y478663D01*
X776837Y478661D01*
X776773Y478655D01*
X776710Y478646D01*
X776648Y478632D01*
X776586Y478615D01*
X776526Y478594D01*
X776467Y478570D01*
X776409Y478542D01*
X776354Y478510D01*
X776300Y478476D01*
X776249Y478438D01*
X776199Y478397D01*
X776153Y478353D01*
X776109Y478307D01*
X776068Y478257D01*
X776030Y478206D01*
X775996Y478152D01*
X775964Y478097D01*
X775936Y478039D01*
X775912Y477980D01*
X775891Y477920D01*
X775874Y477858D01*
X775860Y477796D01*
X775851Y477733D01*
X775845Y477669D01*
X775843Y477605D01*
X775845Y477541D01*
X775851Y477477D01*
X775860Y477414D01*
X775874Y477352D01*
X775891Y477290D01*
X775912Y477230D01*
X775936Y477171D01*
X775964Y477113D01*
X775996Y477058D01*
X776030Y477004D01*
X776068Y476953D01*
X776109Y476903D01*
X776153Y476857D01*
X776199Y476813D01*
X776249Y476772D01*
X776300Y476734D01*
X776354Y476700D01*
X776409Y476668D01*
X776467Y476640D01*
X776526Y476616D01*
X776586Y476595D01*
X776648Y476578D01*
X776710Y476564D01*
X776773Y476555D01*
X776837Y476549D01*
X776901Y476547D01*
X778806Y476758D02*
X778863Y476760D01*
X778919Y476766D01*
X778975Y476775D01*
X779030Y476788D01*
X779084Y476805D01*
X779137Y476825D01*
X779188Y476849D01*
X779238Y476876D01*
X779285Y476907D01*
X779331Y476940D01*
X779374Y476977D01*
X779415Y477016D01*
X779453Y477058D01*
X779488Y477103D01*
X779520Y477149D01*
X779549Y477198D01*
X779574Y477248D01*
X779596Y477301D01*
X779615Y477354D01*
X779630Y477409D01*
X779641Y477464D01*
X779649Y477520D01*
X779653Y477577D01*
X779653Y477633D01*
X779649Y477690D01*
X779641Y477746D01*
X779630Y477801D01*
X779615Y477856D01*
X779596Y477909D01*
X779574Y477962D01*
X779549Y478012D01*
X779520Y478061D01*
X779488Y478107D01*
X779453Y478152D01*
X779415Y478194D01*
X779374Y478233D01*
X779331Y478270D01*
X779285Y478303D01*
X779238Y478334D01*
X779188Y478361D01*
X779137Y478385D01*
X779084Y478405D01*
X779030Y478422D01*
X778975Y478435D01*
X778919Y478444D01*
X778863Y478450D01*
X778806Y478452D01*
X778749Y478450D01*
X778693Y478444D01*
X778637Y478435D01*
X778582Y478422D01*
X778528Y478405D01*
X778475Y478385D01*
X778424Y478361D01*
X778374Y478334D01*
X778327Y478303D01*
X778281Y478270D01*
X778238Y478233D01*
X778197Y478194D01*
X778159Y478152D01*
X778124Y478107D01*
X778092Y478061D01*
X778063Y478012D01*
X778038Y477962D01*
X778016Y477909D01*
X777997Y477856D01*
X777982Y477801D01*
X777971Y477746D01*
X777963Y477690D01*
X777959Y477633D01*
X777959Y477577D01*
X777963Y477520D01*
X777971Y477464D01*
X777982Y477409D01*
X777997Y477354D01*
X778016Y477301D01*
X778038Y477248D01*
X778063Y477198D01*
X778092Y477149D01*
X778124Y477103D01*
X778159Y477058D01*
X778197Y477016D01*
X778238Y476977D01*
X778281Y476940D01*
X778327Y476907D01*
X778374Y476876D01*
X778424Y476849D01*
X778475Y476825D01*
X778528Y476805D01*
X778582Y476788D01*
X778637Y476775D01*
X778693Y476766D01*
X778749Y476760D01*
X778806Y476758D01*
D14*
X779780Y485140D02*
X779780Y454660D01*
X795020Y454660D01*
X795020Y485140D01*
X779780Y485140D01*
D13*
X757173Y546332D02*
X753363Y546332D01*
X757173Y546332D02*
X757173Y547390D01*
X757171Y547454D01*
X757165Y547518D01*
X757156Y547581D01*
X757142Y547643D01*
X757125Y547705D01*
X757104Y547765D01*
X757080Y547824D01*
X757052Y547882D01*
X757020Y547937D01*
X756986Y547991D01*
X756948Y548042D01*
X756907Y548092D01*
X756863Y548138D01*
X756817Y548182D01*
X756767Y548223D01*
X756716Y548261D01*
X756662Y548295D01*
X756607Y548327D01*
X756549Y548355D01*
X756490Y548379D01*
X756430Y548400D01*
X756368Y548417D01*
X756306Y548431D01*
X756243Y548440D01*
X756179Y548446D01*
X756115Y548448D01*
X756051Y548446D01*
X755987Y548440D01*
X755924Y548431D01*
X755862Y548417D01*
X755800Y548400D01*
X755740Y548379D01*
X755681Y548355D01*
X755623Y548327D01*
X755568Y548295D01*
X755514Y548261D01*
X755463Y548223D01*
X755413Y548182D01*
X755367Y548138D01*
X755323Y548092D01*
X755282Y548042D01*
X755244Y547991D01*
X755210Y547937D01*
X755178Y547882D01*
X755150Y547824D01*
X755126Y547765D01*
X755105Y547705D01*
X755088Y547643D01*
X755074Y547581D01*
X755065Y547518D01*
X755059Y547454D01*
X755057Y547390D01*
X755056Y547390D02*
X755056Y546332D01*
X755056Y547602D02*
X753363Y548449D01*
X756326Y549969D02*
X757173Y551027D01*
X753363Y551027D01*
X753363Y549969D02*
X753363Y552085D01*
X753363Y553626D02*
X753363Y554896D01*
X753365Y554951D01*
X753370Y555007D01*
X753379Y555061D01*
X753392Y555115D01*
X753408Y555168D01*
X753427Y555220D01*
X753450Y555271D01*
X753476Y555320D01*
X753506Y555367D01*
X753538Y555412D01*
X753573Y555454D01*
X753611Y555495D01*
X753652Y555533D01*
X753694Y555568D01*
X753739Y555600D01*
X753787Y555630D01*
X753835Y555656D01*
X753886Y555679D01*
X753938Y555698D01*
X753991Y555714D01*
X754045Y555727D01*
X754099Y555736D01*
X754155Y555741D01*
X754210Y555743D01*
X754633Y555743D01*
X754688Y555741D01*
X754744Y555736D01*
X754798Y555727D01*
X754852Y555714D01*
X754905Y555698D01*
X754957Y555679D01*
X755008Y555656D01*
X755057Y555630D01*
X755104Y555600D01*
X755149Y555568D01*
X755191Y555533D01*
X755232Y555495D01*
X755270Y555454D01*
X755305Y555412D01*
X755337Y555367D01*
X755367Y555320D01*
X755393Y555271D01*
X755416Y555220D01*
X755435Y555168D01*
X755451Y555115D01*
X755464Y555061D01*
X755473Y555007D01*
X755478Y554951D01*
X755480Y554896D01*
X755480Y553626D01*
X757173Y553626D01*
X757173Y555743D01*
D14*
X757300Y562220D02*
X757300Y531740D01*
X772540Y531740D01*
X772540Y562220D01*
X757300Y562220D01*
D12*
X675914Y462120D02*
X675916Y462214D01*
X675922Y462308D01*
X675932Y462402D01*
X675946Y462495D01*
X675964Y462588D01*
X675985Y462680D01*
X676011Y462770D01*
X676040Y462860D01*
X676073Y462948D01*
X676110Y463035D01*
X676150Y463120D01*
X676194Y463204D01*
X676242Y463285D01*
X676292Y463365D01*
X676347Y463442D01*
X676404Y463517D01*
X676464Y463589D01*
X676528Y463659D01*
X676594Y463726D01*
X676663Y463790D01*
X676735Y463851D01*
X676809Y463909D01*
X676886Y463964D01*
X676965Y464016D01*
X677046Y464064D01*
X677129Y464109D01*
X677213Y464150D01*
X677300Y464188D01*
X677388Y464222D01*
X677477Y464252D01*
X677567Y464279D01*
X677659Y464301D01*
X677751Y464320D01*
X677845Y464335D01*
X677938Y464346D01*
X678032Y464353D01*
X678126Y464356D01*
X678221Y464355D01*
X678315Y464350D01*
X678409Y464341D01*
X678502Y464328D01*
X678595Y464311D01*
X678687Y464291D01*
X678778Y464266D01*
X678868Y464238D01*
X678956Y464206D01*
X679044Y464170D01*
X679129Y464130D01*
X679213Y464087D01*
X679295Y464041D01*
X679375Y463991D01*
X679453Y463937D01*
X679528Y463881D01*
X679601Y463821D01*
X679672Y463758D01*
X679739Y463693D01*
X679804Y463624D01*
X679866Y463553D01*
X679925Y463480D01*
X679981Y463404D01*
X680033Y463325D01*
X680082Y463245D01*
X680128Y463162D01*
X680170Y463078D01*
X680209Y462992D01*
X680244Y462904D01*
X680275Y462815D01*
X680303Y462725D01*
X680326Y462634D01*
X680346Y462542D01*
X680362Y462449D01*
X680374Y462355D01*
X680382Y462261D01*
X680386Y462167D01*
X680386Y462073D01*
X680382Y461979D01*
X680374Y461885D01*
X680362Y461791D01*
X680346Y461698D01*
X680326Y461606D01*
X680303Y461515D01*
X680275Y461425D01*
X680244Y461336D01*
X680209Y461248D01*
X680170Y461162D01*
X680128Y461078D01*
X680082Y460995D01*
X680033Y460915D01*
X679981Y460836D01*
X679925Y460760D01*
X679866Y460687D01*
X679804Y460616D01*
X679739Y460547D01*
X679672Y460482D01*
X679601Y460419D01*
X679528Y460359D01*
X679453Y460303D01*
X679375Y460249D01*
X679295Y460199D01*
X679213Y460153D01*
X679129Y460110D01*
X679044Y460070D01*
X678956Y460034D01*
X678868Y460002D01*
X678778Y459974D01*
X678687Y459949D01*
X678595Y459929D01*
X678502Y459912D01*
X678409Y459899D01*
X678315Y459890D01*
X678221Y459885D01*
X678126Y459884D01*
X678032Y459887D01*
X677938Y459894D01*
X677845Y459905D01*
X677751Y459920D01*
X677659Y459939D01*
X677567Y459961D01*
X677477Y459988D01*
X677388Y460018D01*
X677300Y460052D01*
X677213Y460090D01*
X677129Y460131D01*
X677046Y460176D01*
X676965Y460224D01*
X676886Y460276D01*
X676809Y460331D01*
X676735Y460389D01*
X676663Y460450D01*
X676594Y460514D01*
X676528Y460581D01*
X676464Y460651D01*
X676404Y460723D01*
X676347Y460798D01*
X676292Y460875D01*
X676242Y460955D01*
X676194Y461036D01*
X676150Y461120D01*
X676110Y461205D01*
X676073Y461292D01*
X676040Y461380D01*
X676011Y461470D01*
X675985Y461560D01*
X675964Y461652D01*
X675946Y461745D01*
X675932Y461838D01*
X675922Y461932D01*
X675916Y462026D01*
X675914Y462120D01*
X658460Y467120D02*
X658460Y437120D01*
X683380Y437120D01*
X683380Y467120D01*
X658460Y467120D01*
D11*
X675422Y470154D02*
X675422Y474726D01*
X675930Y470154D02*
X674914Y470154D01*
X674914Y474726D02*
X675930Y474726D01*
X671319Y470154D02*
X670303Y470154D01*
X671319Y470154D02*
X671380Y470156D01*
X671441Y470161D01*
X671502Y470171D01*
X671562Y470184D01*
X671621Y470200D01*
X671679Y470220D01*
X671736Y470244D01*
X671791Y470270D01*
X671845Y470301D01*
X671896Y470334D01*
X671946Y470370D01*
X671993Y470410D01*
X672037Y470452D01*
X672079Y470496D01*
X672119Y470543D01*
X672155Y470593D01*
X672188Y470644D01*
X672219Y470698D01*
X672245Y470753D01*
X672269Y470810D01*
X672289Y470868D01*
X672305Y470927D01*
X672318Y470987D01*
X672328Y471048D01*
X672333Y471109D01*
X672335Y471170D01*
X672335Y473710D01*
X672333Y473771D01*
X672328Y473832D01*
X672318Y473893D01*
X672305Y473953D01*
X672289Y474012D01*
X672269Y474070D01*
X672245Y474127D01*
X672219Y474182D01*
X672188Y474236D01*
X672155Y474287D01*
X672119Y474337D01*
X672079Y474384D01*
X672037Y474428D01*
X671993Y474470D01*
X671946Y474510D01*
X671896Y474546D01*
X671845Y474579D01*
X671791Y474610D01*
X671736Y474636D01*
X671679Y474660D01*
X671621Y474680D01*
X671562Y474696D01*
X671502Y474709D01*
X671441Y474719D01*
X671380Y474724D01*
X671319Y474726D01*
X670303Y474726D01*
X667730Y474726D02*
X667730Y474218D01*
X667730Y474726D02*
X665190Y474726D01*
X666460Y470154D01*
D13*
X582308Y439293D02*
X582308Y435483D01*
X582308Y439293D02*
X581250Y439293D01*
X581186Y439291D01*
X581122Y439285D01*
X581059Y439276D01*
X580997Y439262D01*
X580935Y439245D01*
X580875Y439224D01*
X580816Y439200D01*
X580758Y439172D01*
X580703Y439140D01*
X580649Y439106D01*
X580598Y439068D01*
X580548Y439027D01*
X580502Y438983D01*
X580458Y438937D01*
X580417Y438887D01*
X580379Y438836D01*
X580345Y438782D01*
X580313Y438727D01*
X580285Y438669D01*
X580261Y438610D01*
X580240Y438550D01*
X580223Y438488D01*
X580209Y438426D01*
X580200Y438363D01*
X580194Y438299D01*
X580192Y438235D01*
X580194Y438171D01*
X580200Y438107D01*
X580209Y438044D01*
X580223Y437982D01*
X580240Y437920D01*
X580261Y437860D01*
X580285Y437801D01*
X580313Y437743D01*
X580345Y437688D01*
X580379Y437634D01*
X580417Y437583D01*
X580458Y437533D01*
X580502Y437487D01*
X580548Y437443D01*
X580598Y437402D01*
X580649Y437364D01*
X580703Y437330D01*
X580758Y437298D01*
X580816Y437270D01*
X580875Y437246D01*
X580935Y437225D01*
X580997Y437208D01*
X581059Y437194D01*
X581122Y437185D01*
X581186Y437179D01*
X581250Y437177D01*
X581250Y437176D02*
X582308Y437176D01*
X581038Y437176D02*
X580191Y435483D01*
X576554Y438341D02*
X576556Y438401D01*
X576562Y438460D01*
X576571Y438520D01*
X576584Y438578D01*
X576601Y438635D01*
X576621Y438692D01*
X576645Y438747D01*
X576672Y438800D01*
X576702Y438852D01*
X576736Y438901D01*
X576773Y438948D01*
X576812Y438993D01*
X576855Y439036D01*
X576900Y439075D01*
X576947Y439112D01*
X576996Y439146D01*
X577048Y439176D01*
X577101Y439203D01*
X577156Y439227D01*
X577213Y439247D01*
X577270Y439264D01*
X577328Y439277D01*
X577388Y439286D01*
X577447Y439292D01*
X577507Y439294D01*
X577507Y439293D02*
X577574Y439291D01*
X577641Y439286D01*
X577707Y439277D01*
X577773Y439264D01*
X577837Y439248D01*
X577901Y439228D01*
X577964Y439204D01*
X578026Y439178D01*
X578085Y439148D01*
X578143Y439115D01*
X578200Y439078D01*
X578254Y439039D01*
X578306Y438997D01*
X578355Y438952D01*
X578402Y438904D01*
X578446Y438854D01*
X578488Y438801D01*
X578526Y438746D01*
X578562Y438690D01*
X578594Y438631D01*
X578623Y438571D01*
X578649Y438509D01*
X578671Y438446D01*
X576872Y437600D02*
X576831Y437642D01*
X576792Y437687D01*
X576755Y437733D01*
X576721Y437782D01*
X576690Y437832D01*
X576663Y437884D01*
X576638Y437938D01*
X576616Y437993D01*
X576597Y438049D01*
X576582Y438106D01*
X576570Y438164D01*
X576562Y438223D01*
X576557Y438282D01*
X576555Y438341D01*
X576872Y437600D02*
X578671Y435483D01*
X576555Y435483D01*
X575014Y435483D02*
X573955Y435483D01*
X573891Y435485D01*
X573827Y435491D01*
X573764Y435500D01*
X573702Y435514D01*
X573640Y435531D01*
X573580Y435552D01*
X573521Y435576D01*
X573463Y435604D01*
X573408Y435636D01*
X573354Y435670D01*
X573303Y435708D01*
X573253Y435749D01*
X573207Y435793D01*
X573163Y435839D01*
X573122Y435889D01*
X573084Y435940D01*
X573050Y435994D01*
X573018Y436049D01*
X572990Y436107D01*
X572966Y436166D01*
X572945Y436226D01*
X572928Y436288D01*
X572914Y436350D01*
X572905Y436413D01*
X572899Y436477D01*
X572897Y436541D01*
X572899Y436605D01*
X572905Y436669D01*
X572914Y436732D01*
X572928Y436794D01*
X572945Y436856D01*
X572966Y436916D01*
X572990Y436975D01*
X573018Y437033D01*
X573050Y437088D01*
X573084Y437142D01*
X573122Y437193D01*
X573163Y437243D01*
X573207Y437289D01*
X573253Y437333D01*
X573303Y437374D01*
X573354Y437412D01*
X573408Y437446D01*
X573463Y437478D01*
X573521Y437506D01*
X573580Y437530D01*
X573640Y437551D01*
X573702Y437568D01*
X573764Y437582D01*
X573827Y437591D01*
X573891Y437597D01*
X573955Y437599D01*
X573744Y439293D02*
X575014Y439293D01*
X573744Y439293D02*
X573687Y439291D01*
X573631Y439285D01*
X573575Y439276D01*
X573520Y439263D01*
X573466Y439246D01*
X573413Y439226D01*
X573362Y439202D01*
X573312Y439175D01*
X573265Y439144D01*
X573219Y439111D01*
X573176Y439074D01*
X573135Y439035D01*
X573097Y438993D01*
X573062Y438948D01*
X573030Y438902D01*
X573001Y438853D01*
X572976Y438803D01*
X572954Y438750D01*
X572935Y438697D01*
X572920Y438642D01*
X572909Y438587D01*
X572901Y438531D01*
X572897Y438474D01*
X572897Y438418D01*
X572901Y438361D01*
X572909Y438305D01*
X572920Y438250D01*
X572935Y438195D01*
X572954Y438142D01*
X572976Y438089D01*
X573001Y438039D01*
X573030Y437990D01*
X573062Y437944D01*
X573097Y437899D01*
X573135Y437857D01*
X573176Y437818D01*
X573219Y437781D01*
X573265Y437748D01*
X573312Y437717D01*
X573362Y437690D01*
X573413Y437666D01*
X573466Y437646D01*
X573520Y437629D01*
X573575Y437616D01*
X573631Y437607D01*
X573687Y437601D01*
X573744Y437599D01*
X573744Y437600D02*
X574590Y437600D01*
D14*
X566420Y439420D02*
X596900Y439420D01*
X596900Y454660D01*
X566420Y454660D01*
X566420Y439420D01*
D13*
X582308Y453263D02*
X582308Y457073D01*
X581250Y457073D01*
X581186Y457071D01*
X581122Y457065D01*
X581059Y457056D01*
X580997Y457042D01*
X580935Y457025D01*
X580875Y457004D01*
X580816Y456980D01*
X580758Y456952D01*
X580703Y456920D01*
X580649Y456886D01*
X580598Y456848D01*
X580548Y456807D01*
X580502Y456763D01*
X580458Y456717D01*
X580417Y456667D01*
X580379Y456616D01*
X580345Y456562D01*
X580313Y456507D01*
X580285Y456449D01*
X580261Y456390D01*
X580240Y456330D01*
X580223Y456268D01*
X580209Y456206D01*
X580200Y456143D01*
X580194Y456079D01*
X580192Y456015D01*
X580194Y455951D01*
X580200Y455887D01*
X580209Y455824D01*
X580223Y455762D01*
X580240Y455700D01*
X580261Y455640D01*
X580285Y455581D01*
X580313Y455523D01*
X580345Y455468D01*
X580379Y455414D01*
X580417Y455363D01*
X580458Y455313D01*
X580502Y455267D01*
X580548Y455223D01*
X580598Y455182D01*
X580649Y455144D01*
X580703Y455110D01*
X580758Y455078D01*
X580816Y455050D01*
X580875Y455026D01*
X580935Y455005D01*
X580997Y454988D01*
X581059Y454974D01*
X581122Y454965D01*
X581186Y454959D01*
X581250Y454957D01*
X581250Y454956D02*
X582308Y454956D01*
X581038Y454956D02*
X580191Y453263D01*
X576554Y456121D02*
X576556Y456181D01*
X576562Y456240D01*
X576571Y456300D01*
X576584Y456358D01*
X576601Y456415D01*
X576621Y456472D01*
X576645Y456527D01*
X576672Y456580D01*
X576702Y456632D01*
X576736Y456681D01*
X576773Y456728D01*
X576812Y456773D01*
X576855Y456816D01*
X576900Y456855D01*
X576947Y456892D01*
X576996Y456926D01*
X577048Y456956D01*
X577101Y456983D01*
X577156Y457007D01*
X577213Y457027D01*
X577270Y457044D01*
X577328Y457057D01*
X577388Y457066D01*
X577447Y457072D01*
X577507Y457074D01*
X577507Y457073D02*
X577574Y457071D01*
X577641Y457066D01*
X577707Y457057D01*
X577773Y457044D01*
X577837Y457028D01*
X577901Y457008D01*
X577964Y456984D01*
X578026Y456958D01*
X578085Y456928D01*
X578143Y456895D01*
X578200Y456858D01*
X578254Y456819D01*
X578306Y456777D01*
X578355Y456732D01*
X578402Y456684D01*
X578446Y456634D01*
X578488Y456581D01*
X578526Y456526D01*
X578562Y456470D01*
X578594Y456411D01*
X578623Y456351D01*
X578649Y456289D01*
X578671Y456226D01*
X576872Y455380D02*
X576831Y455422D01*
X576792Y455467D01*
X576755Y455513D01*
X576721Y455562D01*
X576690Y455612D01*
X576663Y455664D01*
X576638Y455718D01*
X576616Y455773D01*
X576597Y455829D01*
X576582Y455886D01*
X576570Y455944D01*
X576562Y456003D01*
X576557Y456062D01*
X576555Y456121D01*
X576872Y455380D02*
X578671Y453263D01*
X576555Y453263D01*
X575014Y454110D02*
X574167Y457073D01*
X575014Y454110D02*
X572897Y454110D01*
X573532Y454956D02*
X573532Y453263D01*
D14*
X566420Y457200D02*
X596900Y457200D01*
X596900Y472440D01*
X566420Y472440D01*
X566420Y457200D01*
D13*
X626830Y438277D02*
X627676Y438277D01*
X627731Y438279D01*
X627787Y438284D01*
X627841Y438293D01*
X627895Y438306D01*
X627948Y438322D01*
X628000Y438341D01*
X628051Y438364D01*
X628100Y438390D01*
X628147Y438420D01*
X628192Y438452D01*
X628234Y438487D01*
X628275Y438525D01*
X628313Y438566D01*
X628348Y438608D01*
X628380Y438653D01*
X628410Y438701D01*
X628436Y438749D01*
X628459Y438800D01*
X628478Y438852D01*
X628494Y438905D01*
X628507Y438959D01*
X628516Y439013D01*
X628521Y439069D01*
X628523Y439124D01*
X628523Y441240D01*
X628521Y441298D01*
X628515Y441355D01*
X628505Y441412D01*
X628492Y441469D01*
X628474Y441524D01*
X628453Y441577D01*
X628428Y441630D01*
X628400Y441680D01*
X628368Y441728D01*
X628333Y441775D01*
X628295Y441818D01*
X628254Y441859D01*
X628211Y441897D01*
X628164Y441932D01*
X628116Y441964D01*
X628066Y441992D01*
X628013Y442017D01*
X627960Y442038D01*
X627905Y442056D01*
X627848Y442069D01*
X627791Y442079D01*
X627734Y442085D01*
X627676Y442087D01*
X626830Y442087D01*
X625466Y441240D02*
X624407Y442087D01*
X624407Y438277D01*
X623349Y438277D02*
X625466Y438277D01*
X621808Y439335D02*
X621806Y439399D01*
X621800Y439463D01*
X621791Y439526D01*
X621777Y439588D01*
X621760Y439650D01*
X621739Y439710D01*
X621715Y439769D01*
X621687Y439827D01*
X621655Y439882D01*
X621621Y439936D01*
X621583Y439987D01*
X621542Y440037D01*
X621498Y440083D01*
X621452Y440127D01*
X621402Y440168D01*
X621351Y440206D01*
X621297Y440240D01*
X621242Y440272D01*
X621184Y440300D01*
X621125Y440324D01*
X621065Y440345D01*
X621003Y440362D01*
X620941Y440376D01*
X620878Y440385D01*
X620814Y440391D01*
X620750Y440393D01*
X620686Y440391D01*
X620622Y440385D01*
X620559Y440376D01*
X620497Y440362D01*
X620435Y440345D01*
X620375Y440324D01*
X620316Y440300D01*
X620258Y440272D01*
X620203Y440240D01*
X620149Y440206D01*
X620098Y440168D01*
X620048Y440127D01*
X620002Y440083D01*
X619958Y440037D01*
X619917Y439987D01*
X619879Y439936D01*
X619845Y439882D01*
X619813Y439827D01*
X619785Y439769D01*
X619761Y439710D01*
X619740Y439650D01*
X619723Y439588D01*
X619709Y439526D01*
X619700Y439463D01*
X619694Y439399D01*
X619692Y439335D01*
X619694Y439271D01*
X619700Y439207D01*
X619709Y439144D01*
X619723Y439082D01*
X619740Y439020D01*
X619761Y438960D01*
X619785Y438901D01*
X619813Y438843D01*
X619845Y438788D01*
X619879Y438734D01*
X619917Y438683D01*
X619958Y438633D01*
X620002Y438587D01*
X620048Y438543D01*
X620098Y438502D01*
X620149Y438464D01*
X620203Y438430D01*
X620258Y438398D01*
X620316Y438370D01*
X620375Y438346D01*
X620435Y438325D01*
X620497Y438308D01*
X620559Y438294D01*
X620622Y438285D01*
X620686Y438279D01*
X620750Y438277D01*
X620814Y438279D01*
X620878Y438285D01*
X620941Y438294D01*
X621003Y438308D01*
X621065Y438325D01*
X621125Y438346D01*
X621184Y438370D01*
X621242Y438398D01*
X621297Y438430D01*
X621351Y438464D01*
X621402Y438502D01*
X621452Y438543D01*
X621498Y438587D01*
X621542Y438633D01*
X621583Y438683D01*
X621621Y438734D01*
X621655Y438788D01*
X621687Y438843D01*
X621715Y438901D01*
X621739Y438960D01*
X621760Y439020D01*
X621777Y439082D01*
X621791Y439144D01*
X621800Y439207D01*
X621806Y439271D01*
X621808Y439335D01*
X621597Y441240D02*
X621595Y441297D01*
X621589Y441353D01*
X621580Y441409D01*
X621567Y441464D01*
X621550Y441518D01*
X621530Y441571D01*
X621506Y441622D01*
X621479Y441672D01*
X621448Y441719D01*
X621415Y441765D01*
X621378Y441808D01*
X621339Y441849D01*
X621297Y441887D01*
X621252Y441922D01*
X621206Y441954D01*
X621157Y441983D01*
X621107Y442008D01*
X621054Y442030D01*
X621001Y442049D01*
X620946Y442064D01*
X620891Y442075D01*
X620835Y442083D01*
X620778Y442087D01*
X620722Y442087D01*
X620665Y442083D01*
X620609Y442075D01*
X620554Y442064D01*
X620499Y442049D01*
X620446Y442030D01*
X620393Y442008D01*
X620343Y441983D01*
X620294Y441954D01*
X620248Y441922D01*
X620203Y441887D01*
X620161Y441849D01*
X620122Y441808D01*
X620085Y441765D01*
X620052Y441719D01*
X620021Y441672D01*
X619994Y441622D01*
X619970Y441571D01*
X619950Y441518D01*
X619933Y441464D01*
X619920Y441409D01*
X619911Y441353D01*
X619905Y441297D01*
X619903Y441240D01*
X619905Y441183D01*
X619911Y441127D01*
X619920Y441071D01*
X619933Y441016D01*
X619950Y440962D01*
X619970Y440909D01*
X619994Y440858D01*
X620021Y440808D01*
X620052Y440761D01*
X620085Y440715D01*
X620122Y440672D01*
X620161Y440631D01*
X620203Y440593D01*
X620248Y440558D01*
X620294Y440526D01*
X620343Y440497D01*
X620393Y440472D01*
X620446Y440450D01*
X620499Y440431D01*
X620554Y440416D01*
X620609Y440405D01*
X620665Y440397D01*
X620722Y440393D01*
X620778Y440393D01*
X620835Y440397D01*
X620891Y440405D01*
X620946Y440416D01*
X621001Y440431D01*
X621054Y440450D01*
X621107Y440472D01*
X621157Y440497D01*
X621206Y440526D01*
X621252Y440558D01*
X621297Y440593D01*
X621339Y440631D01*
X621378Y440672D01*
X621415Y440715D01*
X621448Y440761D01*
X621479Y440808D01*
X621506Y440858D01*
X621530Y440909D01*
X621550Y440962D01*
X621567Y441016D01*
X621580Y441071D01*
X621589Y441127D01*
X621595Y441183D01*
X621597Y441240D01*
D14*
X607060Y436880D02*
X637540Y436880D01*
X607060Y436880D02*
X607060Y421640D01*
X637540Y421640D01*
X637540Y436880D01*
D13*
X616077Y451824D02*
X616077Y452670D01*
X616077Y451824D02*
X616079Y451769D01*
X616084Y451713D01*
X616093Y451659D01*
X616106Y451605D01*
X616122Y451552D01*
X616141Y451500D01*
X616164Y451449D01*
X616190Y451401D01*
X616220Y451353D01*
X616252Y451308D01*
X616287Y451266D01*
X616325Y451225D01*
X616366Y451187D01*
X616408Y451152D01*
X616453Y451120D01*
X616501Y451090D01*
X616549Y451064D01*
X616600Y451041D01*
X616652Y451022D01*
X616705Y451006D01*
X616759Y450993D01*
X616813Y450984D01*
X616869Y450979D01*
X616924Y450977D01*
X619040Y450977D01*
X619098Y450979D01*
X619155Y450985D01*
X619212Y450995D01*
X619269Y451008D01*
X619324Y451026D01*
X619377Y451047D01*
X619430Y451072D01*
X619480Y451100D01*
X619528Y451132D01*
X619575Y451167D01*
X619618Y451205D01*
X619659Y451246D01*
X619697Y451289D01*
X619732Y451336D01*
X619764Y451384D01*
X619792Y451434D01*
X619817Y451487D01*
X619838Y451540D01*
X619856Y451595D01*
X619869Y451652D01*
X619879Y451709D01*
X619885Y451766D01*
X619887Y451824D01*
X619887Y452670D01*
X619040Y454034D02*
X619887Y455093D01*
X616077Y455093D01*
X616077Y456151D02*
X616077Y454034D01*
X617770Y458539D02*
X617770Y459809D01*
X617770Y458539D02*
X617772Y458484D01*
X617777Y458428D01*
X617786Y458374D01*
X617799Y458320D01*
X617815Y458267D01*
X617834Y458215D01*
X617857Y458164D01*
X617883Y458116D01*
X617913Y458068D01*
X617945Y458023D01*
X617980Y457981D01*
X618018Y457940D01*
X618059Y457902D01*
X618101Y457867D01*
X618146Y457835D01*
X618194Y457805D01*
X618242Y457779D01*
X618293Y457756D01*
X618345Y457737D01*
X618398Y457721D01*
X618452Y457708D01*
X618506Y457699D01*
X618562Y457694D01*
X618617Y457692D01*
X618829Y457692D01*
X618893Y457694D01*
X618957Y457700D01*
X619020Y457709D01*
X619082Y457723D01*
X619144Y457740D01*
X619204Y457761D01*
X619263Y457785D01*
X619321Y457813D01*
X619376Y457845D01*
X619430Y457879D01*
X619481Y457917D01*
X619531Y457958D01*
X619577Y458002D01*
X619621Y458048D01*
X619662Y458098D01*
X619700Y458149D01*
X619734Y458203D01*
X619766Y458258D01*
X619794Y458316D01*
X619818Y458375D01*
X619839Y458435D01*
X619856Y458497D01*
X619870Y458559D01*
X619879Y458622D01*
X619885Y458686D01*
X619887Y458750D01*
X619885Y458814D01*
X619879Y458878D01*
X619870Y458941D01*
X619856Y459003D01*
X619839Y459065D01*
X619818Y459125D01*
X619794Y459184D01*
X619766Y459242D01*
X619734Y459297D01*
X619700Y459351D01*
X619662Y459402D01*
X619621Y459452D01*
X619577Y459498D01*
X619531Y459542D01*
X619481Y459583D01*
X619430Y459621D01*
X619376Y459655D01*
X619321Y459687D01*
X619263Y459715D01*
X619204Y459739D01*
X619144Y459760D01*
X619082Y459777D01*
X619020Y459791D01*
X618957Y459800D01*
X618893Y459806D01*
X618829Y459808D01*
X618829Y459809D02*
X617770Y459809D01*
X617770Y459808D02*
X617689Y459806D01*
X617609Y459800D01*
X617529Y459791D01*
X617450Y459777D01*
X617371Y459760D01*
X617293Y459739D01*
X617216Y459715D01*
X617141Y459687D01*
X617067Y459655D01*
X616994Y459620D01*
X616924Y459581D01*
X616855Y459539D01*
X616788Y459494D01*
X616723Y459446D01*
X616661Y459394D01*
X616602Y459340D01*
X616545Y459283D01*
X616491Y459224D01*
X616439Y459162D01*
X616391Y459097D01*
X616346Y459030D01*
X616304Y458962D01*
X616265Y458891D01*
X616230Y458818D01*
X616198Y458744D01*
X616170Y458669D01*
X616146Y458592D01*
X616125Y458514D01*
X616108Y458435D01*
X616094Y458356D01*
X616085Y458276D01*
X616079Y458196D01*
X616077Y458115D01*
D14*
X614680Y472440D02*
X614680Y441960D01*
X614680Y472440D02*
X599440Y472440D01*
X599440Y441960D01*
X614680Y441960D01*
D13*
X512106Y288417D02*
X511260Y288417D01*
X512106Y288417D02*
X512161Y288419D01*
X512217Y288424D01*
X512271Y288433D01*
X512325Y288446D01*
X512378Y288462D01*
X512430Y288481D01*
X512481Y288504D01*
X512530Y288530D01*
X512577Y288560D01*
X512622Y288592D01*
X512664Y288627D01*
X512705Y288665D01*
X512743Y288706D01*
X512778Y288748D01*
X512810Y288793D01*
X512840Y288841D01*
X512866Y288889D01*
X512889Y288940D01*
X512908Y288992D01*
X512924Y289045D01*
X512937Y289099D01*
X512946Y289153D01*
X512951Y289209D01*
X512953Y289264D01*
X512953Y291380D01*
X512951Y291438D01*
X512945Y291495D01*
X512935Y291552D01*
X512922Y291609D01*
X512904Y291664D01*
X512883Y291717D01*
X512858Y291770D01*
X512830Y291820D01*
X512798Y291868D01*
X512763Y291915D01*
X512725Y291958D01*
X512684Y291999D01*
X512641Y292037D01*
X512594Y292072D01*
X512546Y292104D01*
X512496Y292132D01*
X512443Y292157D01*
X512390Y292178D01*
X512335Y292196D01*
X512278Y292209D01*
X512221Y292219D01*
X512164Y292225D01*
X512106Y292227D01*
X511260Y292227D01*
X508731Y292228D02*
X508671Y292226D01*
X508612Y292220D01*
X508552Y292211D01*
X508494Y292198D01*
X508437Y292181D01*
X508380Y292161D01*
X508325Y292137D01*
X508272Y292110D01*
X508220Y292080D01*
X508171Y292046D01*
X508124Y292009D01*
X508079Y291970D01*
X508036Y291927D01*
X507997Y291882D01*
X507960Y291835D01*
X507926Y291786D01*
X507896Y291734D01*
X507869Y291681D01*
X507845Y291626D01*
X507825Y291569D01*
X507808Y291512D01*
X507795Y291454D01*
X507786Y291394D01*
X507780Y291335D01*
X507778Y291275D01*
X508731Y292227D02*
X508798Y292225D01*
X508865Y292220D01*
X508931Y292211D01*
X508997Y292198D01*
X509061Y292182D01*
X509125Y292162D01*
X509188Y292138D01*
X509250Y292112D01*
X509309Y292082D01*
X509367Y292049D01*
X509424Y292012D01*
X509478Y291973D01*
X509530Y291931D01*
X509579Y291886D01*
X509626Y291838D01*
X509670Y291788D01*
X509712Y291735D01*
X509750Y291680D01*
X509786Y291624D01*
X509818Y291565D01*
X509847Y291505D01*
X509873Y291443D01*
X509895Y291380D01*
X508096Y290534D02*
X508055Y290576D01*
X508016Y290621D01*
X507979Y290667D01*
X507945Y290716D01*
X507914Y290766D01*
X507887Y290818D01*
X507862Y290872D01*
X507840Y290927D01*
X507821Y290983D01*
X507806Y291040D01*
X507794Y291098D01*
X507786Y291157D01*
X507781Y291216D01*
X507779Y291275D01*
X508096Y290534D02*
X509896Y288417D01*
X507779Y288417D01*
X506238Y291380D02*
X505180Y292227D01*
X505180Y288417D01*
X506238Y288417D02*
X504121Y288417D01*
D14*
X491490Y287020D02*
X521970Y287020D01*
X491490Y287020D02*
X491490Y271780D01*
X521970Y271780D01*
X521970Y287020D01*
D10*
X535290Y297560D02*
X535290Y303560D01*
X543290Y303560D01*
X535290Y281560D02*
X535290Y275560D01*
X543290Y275560D01*
D13*
X542163Y283198D02*
X539411Y283198D01*
X539411Y283199D02*
X539347Y283201D01*
X539283Y283207D01*
X539220Y283216D01*
X539158Y283230D01*
X539096Y283247D01*
X539036Y283268D01*
X538977Y283292D01*
X538919Y283320D01*
X538864Y283352D01*
X538810Y283386D01*
X538759Y283424D01*
X538709Y283465D01*
X538663Y283509D01*
X538619Y283555D01*
X538578Y283605D01*
X538540Y283656D01*
X538506Y283710D01*
X538474Y283765D01*
X538446Y283823D01*
X538422Y283882D01*
X538401Y283942D01*
X538384Y284004D01*
X538370Y284066D01*
X538361Y284129D01*
X538355Y284193D01*
X538353Y284257D01*
X538355Y284321D01*
X538361Y284385D01*
X538370Y284448D01*
X538384Y284510D01*
X538401Y284572D01*
X538422Y284632D01*
X538446Y284691D01*
X538474Y284749D01*
X538506Y284804D01*
X538540Y284858D01*
X538578Y284909D01*
X538619Y284959D01*
X538663Y285005D01*
X538709Y285049D01*
X538759Y285090D01*
X538810Y285128D01*
X538864Y285162D01*
X538919Y285194D01*
X538977Y285222D01*
X539036Y285246D01*
X539096Y285267D01*
X539158Y285284D01*
X539220Y285298D01*
X539283Y285307D01*
X539347Y285313D01*
X539411Y285315D01*
X542163Y285315D01*
X542163Y287792D02*
X538353Y287792D01*
X540258Y287792D02*
X540576Y287263D01*
X540603Y287222D01*
X540633Y287182D01*
X540666Y287146D01*
X540702Y287112D01*
X540741Y287081D01*
X540781Y287053D01*
X540824Y287029D01*
X540869Y287007D01*
X540915Y286990D01*
X540962Y286976D01*
X541010Y286965D01*
X541059Y286959D01*
X541108Y286956D01*
X541158Y286957D01*
X541207Y286962D01*
X541255Y286971D01*
X541303Y286984D01*
X541350Y287000D01*
X541395Y287020D01*
X541438Y287043D01*
X541480Y287070D01*
X541519Y287100D01*
X541556Y287132D01*
X541590Y287168D01*
X541621Y287206D01*
X541650Y287246D01*
X541675Y287289D01*
X541696Y287333D01*
X541714Y287379D01*
X541729Y287426D01*
X541740Y287474D01*
X541740Y287475D02*
X541752Y287554D01*
X541761Y287634D01*
X541766Y287715D01*
X541767Y287795D01*
X541764Y287876D01*
X541757Y287956D01*
X541747Y288036D01*
X541732Y288116D01*
X541714Y288194D01*
X541692Y288272D01*
X541666Y288348D01*
X541637Y288423D01*
X541604Y288497D01*
X541568Y288569D01*
X541528Y288639D01*
X540258Y287792D02*
X539941Y288321D01*
X539940Y288321D02*
X539913Y288362D01*
X539883Y288401D01*
X539850Y288438D01*
X539814Y288472D01*
X539775Y288503D01*
X539735Y288531D01*
X539692Y288555D01*
X539647Y288577D01*
X539601Y288594D01*
X539554Y288608D01*
X539506Y288619D01*
X539457Y288625D01*
X539408Y288628D01*
X539358Y288627D01*
X539309Y288622D01*
X539261Y288613D01*
X539213Y288600D01*
X539166Y288584D01*
X539121Y288564D01*
X539078Y288541D01*
X539036Y288514D01*
X538997Y288484D01*
X538960Y288452D01*
X538926Y288416D01*
X538895Y288378D01*
X538866Y288338D01*
X538841Y288295D01*
X538820Y288251D01*
X538802Y288205D01*
X538787Y288158D01*
X538776Y288110D01*
X538776Y288109D02*
X538764Y288030D01*
X538755Y287950D01*
X538750Y287869D01*
X538749Y287789D01*
X538752Y287708D01*
X538759Y287628D01*
X538769Y287548D01*
X538784Y287468D01*
X538802Y287390D01*
X538824Y287312D01*
X538850Y287236D01*
X538879Y287161D01*
X538912Y287087D01*
X538948Y287015D01*
X538988Y286945D01*
X541316Y290148D02*
X542163Y291206D01*
X538353Y291206D01*
X538353Y290148D02*
X538353Y292264D01*
X538353Y293805D02*
X538353Y295075D01*
X538355Y295130D01*
X538360Y295186D01*
X538369Y295240D01*
X538382Y295294D01*
X538398Y295347D01*
X538417Y295399D01*
X538440Y295450D01*
X538466Y295499D01*
X538496Y295546D01*
X538528Y295591D01*
X538563Y295633D01*
X538601Y295674D01*
X538642Y295712D01*
X538684Y295747D01*
X538729Y295779D01*
X538777Y295809D01*
X538825Y295835D01*
X538876Y295858D01*
X538928Y295877D01*
X538981Y295893D01*
X539035Y295906D01*
X539089Y295915D01*
X539145Y295920D01*
X539200Y295922D01*
X539623Y295922D01*
X539678Y295920D01*
X539734Y295915D01*
X539788Y295906D01*
X539842Y295893D01*
X539895Y295877D01*
X539947Y295858D01*
X539998Y295835D01*
X540047Y295809D01*
X540094Y295779D01*
X540139Y295747D01*
X540181Y295712D01*
X540222Y295674D01*
X540260Y295633D01*
X540295Y295591D01*
X540327Y295546D01*
X540357Y295499D01*
X540383Y295450D01*
X540406Y295399D01*
X540425Y295347D01*
X540441Y295294D01*
X540454Y295240D01*
X540463Y295186D01*
X540468Y295130D01*
X540470Y295075D01*
X540470Y293805D01*
X542163Y293805D01*
X542163Y295922D01*
X515493Y306197D02*
X515493Y310007D01*
X514435Y310007D01*
X514371Y310005D01*
X514307Y309999D01*
X514244Y309990D01*
X514182Y309976D01*
X514120Y309959D01*
X514060Y309938D01*
X514001Y309914D01*
X513943Y309886D01*
X513888Y309854D01*
X513834Y309820D01*
X513783Y309782D01*
X513733Y309741D01*
X513687Y309697D01*
X513643Y309651D01*
X513602Y309601D01*
X513564Y309550D01*
X513530Y309496D01*
X513498Y309441D01*
X513470Y309383D01*
X513446Y309324D01*
X513425Y309264D01*
X513408Y309202D01*
X513394Y309140D01*
X513385Y309077D01*
X513379Y309013D01*
X513377Y308949D01*
X513379Y308885D01*
X513385Y308821D01*
X513394Y308758D01*
X513408Y308696D01*
X513425Y308634D01*
X513446Y308574D01*
X513470Y308515D01*
X513498Y308457D01*
X513530Y308402D01*
X513564Y308348D01*
X513602Y308297D01*
X513643Y308247D01*
X513687Y308201D01*
X513733Y308157D01*
X513783Y308116D01*
X513834Y308078D01*
X513888Y308044D01*
X513943Y308012D01*
X514001Y307984D01*
X514060Y307960D01*
X514120Y307939D01*
X514182Y307922D01*
X514244Y307908D01*
X514307Y307899D01*
X514371Y307893D01*
X514435Y307891D01*
X514435Y307890D02*
X515493Y307890D01*
X514223Y307890D02*
X513376Y306197D01*
X509739Y309055D02*
X509741Y309115D01*
X509747Y309174D01*
X509756Y309234D01*
X509769Y309292D01*
X509786Y309349D01*
X509806Y309406D01*
X509830Y309461D01*
X509857Y309514D01*
X509887Y309566D01*
X509921Y309615D01*
X509958Y309662D01*
X509997Y309707D01*
X510040Y309750D01*
X510085Y309789D01*
X510132Y309826D01*
X510181Y309860D01*
X510233Y309890D01*
X510286Y309917D01*
X510341Y309941D01*
X510398Y309961D01*
X510455Y309978D01*
X510513Y309991D01*
X510573Y310000D01*
X510632Y310006D01*
X510692Y310008D01*
X510692Y310007D02*
X510759Y310005D01*
X510826Y310000D01*
X510892Y309991D01*
X510958Y309978D01*
X511022Y309962D01*
X511086Y309942D01*
X511149Y309918D01*
X511211Y309892D01*
X511270Y309862D01*
X511328Y309829D01*
X511385Y309792D01*
X511439Y309753D01*
X511491Y309711D01*
X511540Y309666D01*
X511587Y309618D01*
X511631Y309568D01*
X511673Y309515D01*
X511711Y309460D01*
X511747Y309404D01*
X511779Y309345D01*
X511808Y309285D01*
X511834Y309223D01*
X511856Y309160D01*
X510057Y308314D02*
X510016Y308356D01*
X509977Y308401D01*
X509940Y308447D01*
X509906Y308496D01*
X509875Y308546D01*
X509848Y308598D01*
X509823Y308652D01*
X509801Y308707D01*
X509782Y308763D01*
X509767Y308820D01*
X509755Y308878D01*
X509747Y308937D01*
X509742Y308996D01*
X509740Y309055D01*
X510057Y308314D02*
X511856Y306197D01*
X509740Y306197D01*
X508199Y306197D02*
X506929Y306197D01*
X506874Y306199D01*
X506818Y306204D01*
X506764Y306213D01*
X506710Y306226D01*
X506657Y306242D01*
X506605Y306261D01*
X506554Y306284D01*
X506506Y306310D01*
X506458Y306340D01*
X506413Y306372D01*
X506371Y306407D01*
X506330Y306445D01*
X506292Y306486D01*
X506257Y306528D01*
X506225Y306573D01*
X506195Y306621D01*
X506169Y306669D01*
X506146Y306720D01*
X506127Y306772D01*
X506111Y306825D01*
X506098Y306879D01*
X506089Y306933D01*
X506084Y306989D01*
X506082Y307044D01*
X506082Y307467D01*
X506084Y307522D01*
X506089Y307578D01*
X506098Y307632D01*
X506111Y307686D01*
X506127Y307739D01*
X506146Y307791D01*
X506169Y307842D01*
X506195Y307891D01*
X506225Y307938D01*
X506257Y307983D01*
X506292Y308025D01*
X506330Y308066D01*
X506371Y308104D01*
X506413Y308139D01*
X506458Y308171D01*
X506506Y308201D01*
X506554Y308227D01*
X506605Y308250D01*
X506657Y308269D01*
X506710Y308285D01*
X506764Y308298D01*
X506818Y308307D01*
X506874Y308312D01*
X506929Y308314D01*
X508199Y308314D01*
X508199Y310007D01*
X506082Y310007D01*
D14*
X491490Y306070D02*
X521970Y306070D01*
X491490Y306070D02*
X491490Y290830D01*
X521970Y290830D01*
X521970Y306070D01*
M02*
