G04 EAGLE Gerber RS-274X export*
G75*
%MOMM*%
%FSLAX34Y34*%
%LPD*%
%AMOC8*
5,1,8,0,0,1.08239X$1,22.5*%
G01*
%ADD10R,8.000000X3.000000*%
%ADD11R,0.800000X3.000000*%
%ADD12R,7.500000X7.650000*%
%ADD13R,1.100000X1.000000*%
%ADD14R,1.000000X1.100000*%
%ADD15R,1.500000X0.300000*%
%ADD16R,0.900000X0.800000*%


D10*
X130670Y587550D03*
D11*
X178670Y587550D03*
D12*
X136670Y671100D03*
D10*
X270670Y587550D03*
D11*
X318670Y587550D03*
D12*
X276670Y671100D03*
D10*
X410670Y587550D03*
D11*
X458670Y587550D03*
D12*
X416670Y671100D03*
D13*
X636152Y262128D03*
X653152Y262128D03*
X674760Y262128D03*
X691760Y262128D03*
X712860Y262128D03*
X729860Y262128D03*
D14*
X635652Y245720D03*
X635652Y228720D03*
X674116Y245228D03*
X674116Y228228D03*
X712724Y245228D03*
X712724Y228228D03*
X652424Y229080D03*
X652424Y246080D03*
X691004Y228572D03*
X691004Y245572D03*
X729488Y228736D03*
X729488Y245736D03*
X767080Y478400D03*
X767080Y461400D03*
X746760Y461400D03*
X746760Y478400D03*
X359410Y325510D03*
X359410Y342510D03*
X336550Y325510D03*
X336550Y342510D03*
X216830Y324938D03*
X216830Y341938D03*
X197162Y324558D03*
X197162Y341558D03*
X78400Y324638D03*
X78400Y341638D03*
X56192Y324350D03*
X56192Y341350D03*
X787400Y478400D03*
X787400Y461400D03*
X764920Y555480D03*
X764920Y538480D03*
D15*
X693420Y462120D03*
X693420Y457120D03*
X693420Y452120D03*
X693420Y447120D03*
X693420Y442120D03*
X648420Y442120D03*
X648420Y447120D03*
X648420Y452120D03*
X648420Y457120D03*
X648420Y462120D03*
D13*
X573160Y447040D03*
X590160Y447040D03*
X573160Y464820D03*
X590160Y464820D03*
X630800Y429260D03*
X613800Y429260D03*
D14*
X607060Y448700D03*
X607060Y465700D03*
D13*
X515230Y279400D03*
X498230Y279400D03*
D16*
X552290Y299060D03*
X552290Y280060D03*
X531290Y289560D03*
D13*
X515230Y298450D03*
X498230Y298450D03*
M02*
