G04 EAGLE Gerber RS-274X export*
G75*
%MOMM*%
%FSLAX34Y34*%
%LPD*%
%AMOC8*
5,1,8,0,0,1.08239X$1,22.5*%
G01*
%ADD10C,1.470400*%
%ADD11R,8.127000X3.127000*%
%ADD12R,0.927000X3.127000*%
%ADD13R,7.627000X7.777000*%
%ADD14C,2.108200*%
%ADD15C,2.057400*%
%ADD16R,2.057400X2.057400*%
%ADD17R,1.227000X1.127000*%
%ADD18R,1.127000X1.227000*%
%ADD19P,2.978737X8X292.500000*%
%ADD20C,1.651000*%
%ADD21C,3.627000*%
%ADD22C,1.574800*%
%ADD23C,2.527000*%
%ADD24R,2.527000X2.527000*%
%ADD25R,1.625600X1.625600*%
%ADD26C,1.625600*%
%ADD27R,1.627000X0.427000*%
%ADD28R,1.027000X0.927000*%

G36*
X503936Y490602D02*
X503936Y490602D01*
X503938Y490603D01*
X503940Y490602D01*
X503983Y490622D01*
X504027Y490640D01*
X504027Y490642D01*
X504029Y490643D01*
X504062Y490728D01*
X504062Y501904D01*
X504061Y501906D01*
X504062Y501908D01*
X504042Y501951D01*
X504024Y501995D01*
X504022Y501995D01*
X504021Y501997D01*
X503936Y502030D01*
X490600Y502030D01*
X490600Y511176D01*
X503936Y511176D01*
X503938Y511177D01*
X503940Y511176D01*
X503983Y511196D01*
X504027Y511214D01*
X504027Y511216D01*
X504029Y511217D01*
X504062Y511302D01*
X504062Y519430D01*
X504061Y519432D01*
X504062Y519434D01*
X504042Y519477D01*
X504024Y519521D01*
X504022Y519521D01*
X504021Y519523D01*
X503936Y519556D01*
X480694Y519556D01*
X480694Y528574D01*
X480693Y528576D01*
X480694Y528578D01*
X480674Y528621D01*
X480656Y528665D01*
X480654Y528665D01*
X480653Y528667D01*
X480568Y528700D01*
X471929Y528700D01*
X471927Y528699D01*
X471925Y528700D01*
X471882Y528680D01*
X471839Y528662D01*
X471838Y528660D01*
X471836Y528659D01*
X471803Y528574D01*
X471806Y492125D01*
X444601Y528649D01*
X444590Y528656D01*
X444585Y528667D01*
X444543Y528684D01*
X444516Y528699D01*
X444508Y528697D01*
X444500Y528700D01*
X432054Y528700D01*
X432014Y528683D01*
X431972Y528670D01*
X431969Y528664D01*
X431963Y528662D01*
X431948Y528621D01*
X431928Y528582D01*
X431930Y528576D01*
X431928Y528570D01*
X431940Y528543D01*
X431955Y528495D01*
X469547Y481505D01*
X469557Y481500D01*
X469561Y481491D01*
X469608Y481473D01*
X469634Y481458D01*
X469640Y481460D01*
X469646Y481458D01*
X480314Y481458D01*
X480316Y481459D01*
X480318Y481458D01*
X480361Y481478D01*
X480398Y481493D01*
X534083Y481096D01*
X535930Y480950D01*
X535935Y480952D01*
X535940Y480950D01*
X551688Y480950D01*
X551690Y480951D01*
X551692Y480950D01*
X551735Y480970D01*
X551779Y480988D01*
X551779Y480990D01*
X551781Y480991D01*
X551814Y481076D01*
X551814Y526467D01*
X551814Y526473D01*
X551815Y526473D01*
X551814Y526473D01*
X551820Y526607D01*
X551821Y526632D01*
X551827Y526766D01*
X551833Y526925D01*
X551840Y527084D01*
X551846Y527243D01*
X551852Y527377D01*
X551853Y527402D01*
X551859Y527536D01*
X551865Y527695D01*
X551872Y527854D01*
X551878Y528013D01*
X551884Y528147D01*
X551885Y528172D01*
X551891Y528306D01*
X551892Y528331D01*
X551897Y528465D01*
X551904Y528624D01*
X551904Y528634D01*
X551900Y528639D01*
X551899Y528639D01*
X551745Y528640D01*
X551715Y528640D01*
X546853Y528644D01*
X546853Y528645D01*
X546822Y528645D01*
X541961Y528649D01*
X541930Y528649D01*
X537068Y528654D01*
X537038Y528654D01*
X532176Y528659D01*
X532145Y528659D01*
X527284Y528664D01*
X527253Y528664D01*
X522391Y528669D01*
X522361Y528669D01*
X517499Y528674D01*
X517468Y528674D01*
X512607Y528679D01*
X512576Y528679D01*
X507714Y528684D01*
X507684Y528684D01*
X502822Y528689D01*
X502791Y528689D01*
X497930Y528694D01*
X497899Y528694D01*
X493037Y528699D01*
X493007Y528699D01*
X488145Y528704D01*
X488114Y528704D01*
X483253Y528709D01*
X483222Y528709D01*
X480822Y528712D01*
X480817Y528707D01*
X480817Y526324D01*
X480821Y526319D01*
X480822Y526320D01*
X480822Y526319D01*
X524692Y526246D01*
X524635Y526222D01*
X524628Y526215D01*
X524617Y526213D01*
X521898Y524547D01*
X521893Y524539D01*
X521882Y524535D01*
X519458Y522464D01*
X519453Y522456D01*
X519444Y522450D01*
X517373Y520026D01*
X517370Y520016D01*
X517361Y520010D01*
X515695Y517291D01*
X515694Y517281D01*
X515686Y517273D01*
X514466Y514328D01*
X514466Y514318D01*
X514460Y514309D01*
X513715Y511208D01*
X513717Y511199D01*
X513712Y511189D01*
X513462Y508010D01*
X513464Y508005D01*
X513462Y508000D01*
X513462Y503428D01*
X513464Y503423D01*
X513462Y503418D01*
X513737Y499921D01*
X513742Y499913D01*
X513740Y499902D01*
X514559Y496491D01*
X514565Y496483D01*
X514565Y496473D01*
X515908Y493232D01*
X515915Y493225D01*
X515917Y493214D01*
X517749Y490224D01*
X517757Y490218D01*
X517761Y490208D01*
X520039Y487541D01*
X520048Y487536D01*
X520053Y487527D01*
X522720Y485249D01*
X522729Y485246D01*
X522736Y485237D01*
X525421Y483592D01*
X480440Y483592D01*
X480440Y490602D01*
X503936Y490602D01*
G37*
%LPC*%
G36*
X535184Y490346D02*
X535184Y490346D01*
X533083Y490530D01*
X531052Y491074D01*
X529145Y491963D01*
X527423Y493169D01*
X525935Y494657D01*
X524729Y496379D01*
X523840Y498286D01*
X523296Y500317D01*
X523112Y502418D01*
X523112Y506978D01*
X523300Y509123D01*
X523856Y511198D01*
X524763Y513144D01*
X525995Y514903D01*
X527513Y516421D01*
X529272Y517653D01*
X531219Y518560D01*
X533293Y519116D01*
X535438Y519304D01*
X542418Y519304D01*
X542418Y490346D01*
X535184Y490346D01*
G37*
%LPD*%
G36*
X579610Y396359D02*
X579610Y396359D01*
X579653Y396371D01*
X579719Y396380D01*
X581336Y396834D01*
X581377Y396853D01*
X581405Y396862D01*
X581415Y396864D01*
X581419Y396866D01*
X581440Y396873D01*
X582954Y397601D01*
X582990Y397627D01*
X583049Y397657D01*
X584414Y398638D01*
X584445Y398670D01*
X584498Y398710D01*
X585672Y399912D01*
X585697Y399949D01*
X585742Y399997D01*
X586689Y401385D01*
X586707Y401426D01*
X586743Y401482D01*
X587435Y403013D01*
X587446Y403056D01*
X587472Y403117D01*
X587887Y404746D01*
X587890Y404790D01*
X587905Y404855D01*
X588031Y406530D01*
X588027Y406577D01*
X588029Y406649D01*
X587824Y408485D01*
X587810Y408531D01*
X587798Y408606D01*
X587238Y410367D01*
X587215Y410409D01*
X587189Y410481D01*
X586296Y412098D01*
X586266Y412136D01*
X586226Y412201D01*
X585035Y413613D01*
X584998Y413644D01*
X584946Y413700D01*
X583502Y414853D01*
X583460Y414876D01*
X583398Y414920D01*
X581757Y415769D01*
X581711Y415784D01*
X581642Y415815D01*
X579867Y416328D01*
X579819Y416333D01*
X579744Y416351D01*
X577904Y416507D01*
X577860Y416503D01*
X577795Y416507D01*
X575964Y416347D01*
X575918Y416334D01*
X575842Y416324D01*
X574078Y415810D01*
X574034Y415789D01*
X573962Y415764D01*
X572332Y414915D01*
X572294Y414886D01*
X572228Y414847D01*
X570795Y413697D01*
X570763Y413661D01*
X570706Y413610D01*
X569525Y412202D01*
X569501Y412161D01*
X569455Y412100D01*
X569245Y411718D01*
X568571Y410488D01*
X568556Y410443D01*
X568522Y410374D01*
X567970Y408621D01*
X567964Y408574D01*
X567944Y408500D01*
X567745Y406673D01*
X567748Y406627D01*
X567742Y406558D01*
X567865Y404882D01*
X567876Y404839D01*
X567882Y404773D01*
X568294Y403143D01*
X568312Y403103D01*
X568330Y403039D01*
X569018Y401506D01*
X569043Y401469D01*
X569072Y401409D01*
X570016Y400019D01*
X570047Y399987D01*
X570085Y399933D01*
X571256Y398727D01*
X571293Y398701D01*
X571340Y398655D01*
X572702Y397671D01*
X572743Y397652D01*
X572797Y397615D01*
X574310Y396882D01*
X574353Y396870D01*
X574364Y396865D01*
X574391Y396852D01*
X574396Y396851D01*
X574413Y396843D01*
X576030Y396385D01*
X576075Y396380D01*
X576139Y396364D01*
X577811Y396193D01*
X577859Y396197D01*
X577938Y396193D01*
X579610Y396359D01*
G37*
G36*
X607601Y396359D02*
X607601Y396359D01*
X607644Y396371D01*
X607710Y396380D01*
X609327Y396834D01*
X609368Y396853D01*
X609396Y396862D01*
X609406Y396864D01*
X609410Y396866D01*
X609431Y396873D01*
X610945Y397601D01*
X610981Y397627D01*
X611040Y397657D01*
X612405Y398638D01*
X612436Y398670D01*
X612489Y398710D01*
X613663Y399912D01*
X613688Y399949D01*
X613733Y399997D01*
X614680Y401385D01*
X614698Y401426D01*
X614734Y401482D01*
X615426Y403013D01*
X615437Y403056D01*
X615463Y403117D01*
X615878Y404746D01*
X615881Y404790D01*
X615896Y404855D01*
X616022Y406530D01*
X616018Y406577D01*
X616020Y406649D01*
X615815Y408485D01*
X615801Y408531D01*
X615789Y408606D01*
X615229Y410367D01*
X615206Y410409D01*
X615180Y410481D01*
X614287Y412098D01*
X614257Y412136D01*
X614217Y412201D01*
X613026Y413613D01*
X612989Y413644D01*
X612937Y413700D01*
X611493Y414853D01*
X611451Y414876D01*
X611389Y414920D01*
X609748Y415769D01*
X609702Y415784D01*
X609633Y415815D01*
X607858Y416328D01*
X607810Y416333D01*
X607735Y416351D01*
X605895Y416507D01*
X605851Y416503D01*
X605786Y416507D01*
X603955Y416347D01*
X603909Y416334D01*
X603833Y416324D01*
X602069Y415810D01*
X602025Y415789D01*
X601953Y415764D01*
X600323Y414915D01*
X600285Y414886D01*
X600219Y414847D01*
X598786Y413697D01*
X598754Y413661D01*
X598697Y413610D01*
X597516Y412202D01*
X597492Y412161D01*
X597446Y412100D01*
X597236Y411718D01*
X596562Y410488D01*
X596547Y410443D01*
X596513Y410374D01*
X595961Y408621D01*
X595955Y408574D01*
X595935Y408500D01*
X595736Y406673D01*
X595739Y406627D01*
X595733Y406558D01*
X595856Y404882D01*
X595867Y404839D01*
X595873Y404773D01*
X596285Y403143D01*
X596303Y403103D01*
X596321Y403039D01*
X597009Y401506D01*
X597034Y401469D01*
X597063Y401409D01*
X598007Y400019D01*
X598038Y399987D01*
X598076Y399933D01*
X599247Y398727D01*
X599284Y398701D01*
X599331Y398655D01*
X600693Y397671D01*
X600734Y397652D01*
X600788Y397615D01*
X602301Y396882D01*
X602344Y396870D01*
X602355Y396865D01*
X602382Y396852D01*
X602387Y396851D01*
X602404Y396843D01*
X604021Y396385D01*
X604066Y396380D01*
X604130Y396364D01*
X605802Y396193D01*
X605850Y396197D01*
X605929Y396193D01*
X607601Y396359D01*
G37*
G36*
X756857Y423793D02*
X756857Y423793D01*
X756929Y423791D01*
X758765Y423996D01*
X758811Y424010D01*
X758886Y424022D01*
X760647Y424582D01*
X760689Y424605D01*
X760761Y424631D01*
X762378Y425524D01*
X762416Y425554D01*
X762481Y425594D01*
X763893Y426785D01*
X763924Y426822D01*
X763980Y426874D01*
X765133Y428318D01*
X765156Y428360D01*
X765200Y428422D01*
X766049Y430063D01*
X766064Y430109D01*
X766095Y430178D01*
X766608Y431953D01*
X766613Y432001D01*
X766631Y432076D01*
X766787Y433916D01*
X766783Y433960D01*
X766787Y434025D01*
X766627Y435856D01*
X766614Y435902D01*
X766604Y435978D01*
X766090Y437742D01*
X766069Y437786D01*
X766044Y437858D01*
X765195Y439488D01*
X765166Y439526D01*
X765127Y439592D01*
X763977Y441025D01*
X763941Y441057D01*
X763890Y441114D01*
X762482Y442295D01*
X762441Y442319D01*
X762380Y442365D01*
X760768Y443249D01*
X760723Y443264D01*
X760654Y443298D01*
X758901Y443850D01*
X758854Y443856D01*
X758780Y443876D01*
X756953Y444076D01*
X756907Y444072D01*
X756838Y444078D01*
X755162Y443955D01*
X755119Y443944D01*
X755053Y443938D01*
X753423Y443527D01*
X753383Y443508D01*
X753319Y443490D01*
X751786Y442802D01*
X751749Y442777D01*
X751689Y442748D01*
X750299Y441804D01*
X750267Y441773D01*
X750213Y441735D01*
X749007Y440564D01*
X748981Y440528D01*
X748935Y440480D01*
X747951Y439118D01*
X747932Y439077D01*
X747895Y439023D01*
X747162Y437510D01*
X747150Y437467D01*
X747123Y437407D01*
X746665Y435790D01*
X746660Y435745D01*
X746644Y435681D01*
X746473Y434009D01*
X746477Y433961D01*
X746473Y433882D01*
X746639Y432210D01*
X746651Y432167D01*
X746660Y432102D01*
X747114Y430484D01*
X747133Y430443D01*
X747153Y430380D01*
X747881Y428866D01*
X747907Y428830D01*
X747937Y428771D01*
X748918Y427406D01*
X748950Y427375D01*
X748990Y427322D01*
X750192Y426148D01*
X750229Y426123D01*
X750277Y426078D01*
X751665Y425131D01*
X751706Y425113D01*
X751762Y425077D01*
X753293Y424385D01*
X753336Y424374D01*
X753397Y424348D01*
X755026Y423933D01*
X755070Y423930D01*
X755135Y423915D01*
X756810Y423789D01*
X756857Y423793D01*
G37*
G36*
X756857Y395802D02*
X756857Y395802D01*
X756929Y395800D01*
X758765Y396005D01*
X758811Y396019D01*
X758886Y396031D01*
X760647Y396591D01*
X760689Y396614D01*
X760761Y396640D01*
X762378Y397533D01*
X762416Y397563D01*
X762481Y397603D01*
X763893Y398794D01*
X763924Y398831D01*
X763980Y398883D01*
X765133Y400327D01*
X765156Y400369D01*
X765200Y400431D01*
X766049Y402072D01*
X766064Y402118D01*
X766095Y402187D01*
X766608Y403962D01*
X766613Y404010D01*
X766631Y404085D01*
X766787Y405925D01*
X766783Y405969D01*
X766787Y406034D01*
X766627Y407865D01*
X766614Y407911D01*
X766604Y407987D01*
X766090Y409751D01*
X766069Y409795D01*
X766044Y409867D01*
X765195Y411497D01*
X765166Y411535D01*
X765127Y411601D01*
X763977Y413034D01*
X763941Y413066D01*
X763890Y413123D01*
X762482Y414304D01*
X762441Y414328D01*
X762380Y414374D01*
X760768Y415258D01*
X760723Y415273D01*
X760654Y415307D01*
X758901Y415859D01*
X758854Y415865D01*
X758780Y415885D01*
X756953Y416085D01*
X756907Y416081D01*
X756838Y416087D01*
X755162Y415964D01*
X755119Y415953D01*
X755053Y415947D01*
X753423Y415536D01*
X753383Y415517D01*
X753319Y415499D01*
X751786Y414811D01*
X751749Y414786D01*
X751689Y414757D01*
X750299Y413813D01*
X750267Y413782D01*
X750213Y413744D01*
X749007Y412573D01*
X748981Y412537D01*
X748935Y412489D01*
X747951Y411127D01*
X747932Y411086D01*
X747895Y411032D01*
X747162Y409519D01*
X747150Y409476D01*
X747123Y409416D01*
X746665Y407799D01*
X746660Y407754D01*
X746644Y407690D01*
X746473Y406018D01*
X746477Y405970D01*
X746473Y405891D01*
X746639Y404219D01*
X746651Y404176D01*
X746660Y404111D01*
X747114Y402493D01*
X747133Y402452D01*
X747153Y402389D01*
X747881Y400875D01*
X747907Y400839D01*
X747937Y400780D01*
X748918Y399415D01*
X748950Y399384D01*
X748990Y399331D01*
X750192Y398157D01*
X750229Y398132D01*
X750277Y398087D01*
X751665Y397140D01*
X751706Y397122D01*
X751762Y397086D01*
X753293Y396394D01*
X753336Y396383D01*
X753397Y396357D01*
X755026Y395942D01*
X755070Y395939D01*
X755135Y395924D01*
X756810Y395798D01*
X756857Y395802D01*
G37*
G36*
X278139Y331999D02*
X278139Y331999D01*
X278211Y331997D01*
X280047Y332202D01*
X280093Y332216D01*
X280168Y332228D01*
X281929Y332788D01*
X281971Y332811D01*
X282043Y332837D01*
X283660Y333730D01*
X283698Y333760D01*
X283763Y333800D01*
X285175Y334991D01*
X285206Y335028D01*
X285262Y335080D01*
X286415Y336524D01*
X286438Y336566D01*
X286482Y336628D01*
X287331Y338269D01*
X287346Y338315D01*
X287377Y338384D01*
X287890Y340159D01*
X287895Y340207D01*
X287913Y340282D01*
X288069Y342122D01*
X288065Y342166D01*
X288069Y342231D01*
X287909Y344062D01*
X287896Y344108D01*
X287886Y344184D01*
X287372Y345948D01*
X287351Y345992D01*
X287326Y346064D01*
X286477Y347694D01*
X286448Y347732D01*
X286409Y347798D01*
X285259Y349231D01*
X285223Y349263D01*
X285172Y349320D01*
X283764Y350501D01*
X283723Y350525D01*
X283662Y350571D01*
X282050Y351455D01*
X282005Y351470D01*
X281936Y351504D01*
X280183Y352056D01*
X280136Y352062D01*
X280062Y352082D01*
X278235Y352282D01*
X278189Y352278D01*
X278120Y352284D01*
X276444Y352161D01*
X276401Y352150D01*
X276335Y352144D01*
X274705Y351733D01*
X274665Y351714D01*
X274601Y351696D01*
X273068Y351008D01*
X273031Y350983D01*
X272971Y350954D01*
X271581Y350010D01*
X271549Y349979D01*
X271495Y349941D01*
X270289Y348770D01*
X270263Y348734D01*
X270217Y348686D01*
X269233Y347324D01*
X269214Y347283D01*
X269177Y347229D01*
X268444Y345716D01*
X268432Y345673D01*
X268405Y345613D01*
X267947Y343996D01*
X267942Y343951D01*
X267926Y343887D01*
X267755Y342215D01*
X267759Y342167D01*
X267755Y342088D01*
X267921Y340416D01*
X267933Y340373D01*
X267942Y340308D01*
X268396Y338690D01*
X268415Y338649D01*
X268435Y338586D01*
X269163Y337072D01*
X269189Y337036D01*
X269219Y336977D01*
X270200Y335612D01*
X270232Y335581D01*
X270272Y335528D01*
X271474Y334354D01*
X271511Y334329D01*
X271559Y334284D01*
X272947Y333337D01*
X272988Y333319D01*
X273044Y333283D01*
X274575Y332591D01*
X274618Y332580D01*
X274679Y332554D01*
X276308Y332139D01*
X276352Y332136D01*
X276417Y332121D01*
X278092Y331995D01*
X278139Y331999D01*
G37*
G36*
X138139Y331999D02*
X138139Y331999D01*
X138211Y331997D01*
X140047Y332202D01*
X140093Y332216D01*
X140168Y332228D01*
X141929Y332788D01*
X141971Y332811D01*
X142043Y332837D01*
X143660Y333730D01*
X143698Y333760D01*
X143763Y333800D01*
X145175Y334991D01*
X145206Y335028D01*
X145262Y335080D01*
X146415Y336524D01*
X146438Y336566D01*
X146482Y336628D01*
X147331Y338269D01*
X147346Y338315D01*
X147377Y338384D01*
X147890Y340159D01*
X147895Y340207D01*
X147913Y340282D01*
X148069Y342122D01*
X148065Y342166D01*
X148069Y342231D01*
X147909Y344062D01*
X147896Y344108D01*
X147886Y344184D01*
X147372Y345948D01*
X147351Y345992D01*
X147326Y346064D01*
X146477Y347694D01*
X146448Y347732D01*
X146409Y347798D01*
X145259Y349231D01*
X145223Y349263D01*
X145172Y349320D01*
X143764Y350501D01*
X143723Y350525D01*
X143662Y350571D01*
X142050Y351455D01*
X142005Y351470D01*
X141936Y351504D01*
X140183Y352056D01*
X140136Y352062D01*
X140062Y352082D01*
X138235Y352282D01*
X138189Y352278D01*
X138120Y352284D01*
X136444Y352161D01*
X136401Y352150D01*
X136335Y352144D01*
X134705Y351733D01*
X134665Y351714D01*
X134601Y351696D01*
X133068Y351008D01*
X133031Y350983D01*
X132971Y350954D01*
X131581Y350010D01*
X131549Y349979D01*
X131495Y349941D01*
X130289Y348770D01*
X130263Y348734D01*
X130217Y348686D01*
X129233Y347324D01*
X129214Y347283D01*
X129177Y347229D01*
X128444Y345716D01*
X128432Y345673D01*
X128405Y345613D01*
X127947Y343996D01*
X127942Y343951D01*
X127926Y343887D01*
X127755Y342215D01*
X127759Y342167D01*
X127755Y342088D01*
X127921Y340416D01*
X127933Y340373D01*
X127942Y340308D01*
X128396Y338690D01*
X128415Y338649D01*
X128435Y338586D01*
X129163Y337072D01*
X129189Y337036D01*
X129219Y336977D01*
X130200Y335612D01*
X130232Y335581D01*
X130272Y335528D01*
X131474Y334354D01*
X131511Y334329D01*
X131559Y334284D01*
X132947Y333337D01*
X132988Y333319D01*
X133044Y333283D01*
X134575Y332591D01*
X134618Y332580D01*
X134679Y332554D01*
X136308Y332139D01*
X136352Y332136D01*
X136417Y332121D01*
X138092Y331995D01*
X138139Y331999D01*
G37*
G36*
X414197Y326373D02*
X414197Y326373D01*
X414269Y326371D01*
X416105Y326576D01*
X416151Y326590D01*
X416226Y326602D01*
X417987Y327162D01*
X418029Y327185D01*
X418101Y327211D01*
X419718Y328104D01*
X419756Y328134D01*
X419821Y328174D01*
X421233Y329365D01*
X421264Y329402D01*
X421320Y329454D01*
X422473Y330898D01*
X422496Y330940D01*
X422540Y331002D01*
X423389Y332643D01*
X423404Y332689D01*
X423435Y332758D01*
X423948Y334533D01*
X423953Y334581D01*
X423971Y334656D01*
X424127Y336496D01*
X424123Y336540D01*
X424127Y336605D01*
X423967Y338436D01*
X423954Y338482D01*
X423944Y338558D01*
X423430Y340322D01*
X423409Y340366D01*
X423384Y340438D01*
X422535Y342068D01*
X422506Y342106D01*
X422467Y342172D01*
X421317Y343605D01*
X421281Y343637D01*
X421230Y343694D01*
X419822Y344875D01*
X419781Y344899D01*
X419720Y344945D01*
X418108Y345829D01*
X418063Y345844D01*
X417994Y345878D01*
X416241Y346430D01*
X416194Y346436D01*
X416120Y346456D01*
X414293Y346656D01*
X414247Y346652D01*
X414178Y346658D01*
X412502Y346535D01*
X412459Y346524D01*
X412393Y346518D01*
X410763Y346107D01*
X410723Y346088D01*
X410659Y346070D01*
X409126Y345382D01*
X409089Y345357D01*
X409029Y345328D01*
X407639Y344384D01*
X407607Y344353D01*
X407553Y344315D01*
X406347Y343144D01*
X406321Y343108D01*
X406275Y343060D01*
X405291Y341698D01*
X405272Y341657D01*
X405235Y341603D01*
X404502Y340090D01*
X404490Y340047D01*
X404463Y339987D01*
X404005Y338370D01*
X404000Y338325D01*
X403984Y338261D01*
X403813Y336589D01*
X403817Y336541D01*
X403813Y336462D01*
X403979Y334790D01*
X403991Y334747D01*
X404000Y334682D01*
X404454Y333064D01*
X404473Y333023D01*
X404493Y332960D01*
X405221Y331446D01*
X405247Y331410D01*
X405277Y331351D01*
X406258Y329986D01*
X406290Y329955D01*
X406330Y329902D01*
X407532Y328728D01*
X407569Y328703D01*
X407617Y328658D01*
X409005Y327711D01*
X409046Y327693D01*
X409102Y327657D01*
X410633Y326965D01*
X410676Y326954D01*
X410737Y326928D01*
X412366Y326513D01*
X412410Y326510D01*
X412475Y326495D01*
X414150Y326369D01*
X414197Y326373D01*
G37*
G36*
X278139Y304008D02*
X278139Y304008D01*
X278211Y304006D01*
X280047Y304211D01*
X280093Y304225D01*
X280168Y304237D01*
X281929Y304797D01*
X281971Y304820D01*
X282043Y304846D01*
X283660Y305739D01*
X283698Y305769D01*
X283763Y305809D01*
X285175Y307000D01*
X285206Y307037D01*
X285262Y307089D01*
X286415Y308533D01*
X286438Y308575D01*
X286482Y308637D01*
X287331Y310278D01*
X287346Y310324D01*
X287377Y310393D01*
X287890Y312168D01*
X287895Y312216D01*
X287913Y312291D01*
X288069Y314131D01*
X288065Y314175D01*
X288069Y314240D01*
X287909Y316071D01*
X287896Y316117D01*
X287886Y316193D01*
X287372Y317957D01*
X287351Y318001D01*
X287326Y318073D01*
X286477Y319703D01*
X286448Y319741D01*
X286409Y319807D01*
X285259Y321240D01*
X285223Y321272D01*
X285172Y321329D01*
X283764Y322510D01*
X283723Y322534D01*
X283662Y322580D01*
X282050Y323464D01*
X282005Y323479D01*
X281936Y323513D01*
X280183Y324065D01*
X280136Y324071D01*
X280062Y324091D01*
X278235Y324291D01*
X278189Y324287D01*
X278120Y324293D01*
X276444Y324170D01*
X276401Y324159D01*
X276335Y324153D01*
X274705Y323742D01*
X274665Y323723D01*
X274601Y323705D01*
X273068Y323017D01*
X273031Y322992D01*
X272971Y322963D01*
X271581Y322019D01*
X271549Y321988D01*
X271495Y321950D01*
X270289Y320779D01*
X270263Y320743D01*
X270217Y320695D01*
X269233Y319333D01*
X269214Y319292D01*
X269177Y319238D01*
X268444Y317725D01*
X268432Y317682D01*
X268405Y317622D01*
X267947Y316005D01*
X267942Y315960D01*
X267926Y315896D01*
X267755Y314224D01*
X267759Y314176D01*
X267755Y314097D01*
X267921Y312425D01*
X267933Y312382D01*
X267942Y312317D01*
X268396Y310699D01*
X268415Y310658D01*
X268435Y310595D01*
X269163Y309081D01*
X269189Y309045D01*
X269219Y308986D01*
X270200Y307621D01*
X270232Y307590D01*
X270272Y307537D01*
X271474Y306363D01*
X271511Y306338D01*
X271559Y306293D01*
X272947Y305346D01*
X272988Y305328D01*
X273044Y305292D01*
X274575Y304600D01*
X274618Y304589D01*
X274679Y304563D01*
X276308Y304148D01*
X276352Y304145D01*
X276417Y304130D01*
X278092Y304004D01*
X278139Y304008D01*
G37*
G36*
X138139Y304008D02*
X138139Y304008D01*
X138211Y304006D01*
X140047Y304211D01*
X140093Y304225D01*
X140168Y304237D01*
X141929Y304797D01*
X141971Y304820D01*
X142043Y304846D01*
X143660Y305739D01*
X143698Y305769D01*
X143763Y305809D01*
X145175Y307000D01*
X145206Y307037D01*
X145262Y307089D01*
X146415Y308533D01*
X146438Y308575D01*
X146482Y308637D01*
X147331Y310278D01*
X147346Y310324D01*
X147377Y310393D01*
X147890Y312168D01*
X147895Y312216D01*
X147913Y312291D01*
X148069Y314131D01*
X148065Y314175D01*
X148069Y314240D01*
X147909Y316071D01*
X147896Y316117D01*
X147886Y316193D01*
X147372Y317957D01*
X147351Y318001D01*
X147326Y318073D01*
X146477Y319703D01*
X146448Y319741D01*
X146409Y319807D01*
X145259Y321240D01*
X145223Y321272D01*
X145172Y321329D01*
X143764Y322510D01*
X143723Y322534D01*
X143662Y322580D01*
X142050Y323464D01*
X142005Y323479D01*
X141936Y323513D01*
X140183Y324065D01*
X140136Y324071D01*
X140062Y324091D01*
X138235Y324291D01*
X138189Y324287D01*
X138120Y324293D01*
X136444Y324170D01*
X136401Y324159D01*
X136335Y324153D01*
X134705Y323742D01*
X134665Y323723D01*
X134601Y323705D01*
X133068Y323017D01*
X133031Y322992D01*
X132971Y322963D01*
X131581Y322019D01*
X131549Y321988D01*
X131495Y321950D01*
X130289Y320779D01*
X130263Y320743D01*
X130217Y320695D01*
X129233Y319333D01*
X129214Y319292D01*
X129177Y319238D01*
X128444Y317725D01*
X128432Y317682D01*
X128405Y317622D01*
X127947Y316005D01*
X127942Y315960D01*
X127926Y315896D01*
X127755Y314224D01*
X127759Y314176D01*
X127755Y314097D01*
X127921Y312425D01*
X127933Y312382D01*
X127942Y312317D01*
X128396Y310699D01*
X128415Y310658D01*
X128435Y310595D01*
X129163Y309081D01*
X129189Y309045D01*
X129219Y308986D01*
X130200Y307621D01*
X130232Y307590D01*
X130272Y307537D01*
X131474Y306363D01*
X131511Y306338D01*
X131559Y306293D01*
X132947Y305346D01*
X132988Y305328D01*
X133044Y305292D01*
X134575Y304600D01*
X134618Y304589D01*
X134679Y304563D01*
X136308Y304148D01*
X136352Y304145D01*
X136417Y304130D01*
X138092Y304004D01*
X138139Y304008D01*
G37*
G36*
X414197Y298382D02*
X414197Y298382D01*
X414269Y298380D01*
X416105Y298585D01*
X416151Y298599D01*
X416226Y298611D01*
X417987Y299171D01*
X418029Y299194D01*
X418101Y299220D01*
X419718Y300113D01*
X419756Y300143D01*
X419821Y300183D01*
X421233Y301374D01*
X421264Y301411D01*
X421320Y301463D01*
X422473Y302907D01*
X422496Y302949D01*
X422540Y303011D01*
X423389Y304652D01*
X423404Y304698D01*
X423435Y304767D01*
X423948Y306542D01*
X423953Y306590D01*
X423971Y306665D01*
X424127Y308505D01*
X424123Y308549D01*
X424127Y308614D01*
X423967Y310445D01*
X423954Y310491D01*
X423944Y310567D01*
X423430Y312331D01*
X423409Y312375D01*
X423384Y312447D01*
X422535Y314077D01*
X422506Y314115D01*
X422467Y314181D01*
X421317Y315614D01*
X421281Y315646D01*
X421230Y315703D01*
X419822Y316884D01*
X419781Y316908D01*
X419720Y316954D01*
X418108Y317838D01*
X418063Y317853D01*
X417994Y317887D01*
X416241Y318439D01*
X416194Y318445D01*
X416120Y318465D01*
X414293Y318665D01*
X414247Y318661D01*
X414178Y318667D01*
X412502Y318544D01*
X412459Y318533D01*
X412393Y318527D01*
X410763Y318116D01*
X410723Y318097D01*
X410659Y318079D01*
X409126Y317391D01*
X409089Y317366D01*
X409029Y317337D01*
X407639Y316393D01*
X407607Y316362D01*
X407553Y316324D01*
X406347Y315153D01*
X406321Y315117D01*
X406275Y315069D01*
X405291Y313707D01*
X405272Y313666D01*
X405235Y313612D01*
X404502Y312099D01*
X404490Y312056D01*
X404463Y311996D01*
X404005Y310379D01*
X404000Y310334D01*
X403984Y310270D01*
X403813Y308598D01*
X403817Y308550D01*
X403813Y308471D01*
X403979Y306799D01*
X403991Y306756D01*
X404000Y306691D01*
X404454Y305073D01*
X404473Y305032D01*
X404493Y304969D01*
X405221Y303455D01*
X405247Y303419D01*
X405277Y303360D01*
X406258Y301995D01*
X406290Y301964D01*
X406330Y301911D01*
X407532Y300737D01*
X407569Y300712D01*
X407617Y300667D01*
X409005Y299720D01*
X409046Y299702D01*
X409102Y299666D01*
X410633Y298974D01*
X410676Y298963D01*
X410737Y298937D01*
X412366Y298522D01*
X412410Y298519D01*
X412475Y298504D01*
X414150Y298378D01*
X414197Y298382D01*
G37*
G36*
X278307Y271763D02*
X278307Y271763D01*
X278379Y271761D01*
X280215Y271966D01*
X280261Y271980D01*
X280336Y271992D01*
X282097Y272552D01*
X282139Y272575D01*
X282211Y272601D01*
X283828Y273494D01*
X283866Y273524D01*
X283931Y273564D01*
X285343Y274755D01*
X285374Y274792D01*
X285430Y274844D01*
X286583Y276288D01*
X286606Y276330D01*
X286650Y276392D01*
X287499Y278033D01*
X287514Y278079D01*
X287545Y278148D01*
X288058Y279923D01*
X288063Y279971D01*
X288081Y280046D01*
X288237Y281886D01*
X288233Y281930D01*
X288237Y281995D01*
X288077Y283826D01*
X288064Y283872D01*
X288054Y283948D01*
X287540Y285712D01*
X287519Y285756D01*
X287494Y285828D01*
X286645Y287458D01*
X286616Y287496D01*
X286577Y287562D01*
X285427Y288995D01*
X285391Y289027D01*
X285340Y289084D01*
X283932Y290265D01*
X283891Y290289D01*
X283830Y290335D01*
X282218Y291219D01*
X282173Y291234D01*
X282104Y291268D01*
X280351Y291820D01*
X280304Y291826D01*
X280230Y291846D01*
X278403Y292046D01*
X278357Y292042D01*
X278288Y292048D01*
X276612Y291925D01*
X276569Y291914D01*
X276503Y291908D01*
X274873Y291497D01*
X274833Y291478D01*
X274769Y291460D01*
X273236Y290772D01*
X273199Y290747D01*
X273139Y290718D01*
X271749Y289774D01*
X271717Y289743D01*
X271663Y289705D01*
X270457Y288534D01*
X270431Y288498D01*
X270385Y288450D01*
X269401Y287088D01*
X269382Y287047D01*
X269345Y286993D01*
X268612Y285480D01*
X268600Y285437D01*
X268573Y285377D01*
X268115Y283760D01*
X268110Y283715D01*
X268094Y283651D01*
X267923Y281979D01*
X267927Y281931D01*
X267923Y281852D01*
X268089Y280180D01*
X268101Y280137D01*
X268110Y280072D01*
X268564Y278454D01*
X268583Y278413D01*
X268603Y278350D01*
X269331Y276836D01*
X269357Y276800D01*
X269387Y276741D01*
X270368Y275376D01*
X270400Y275345D01*
X270440Y275292D01*
X271642Y274118D01*
X271679Y274093D01*
X271727Y274048D01*
X273115Y273101D01*
X273156Y273083D01*
X273212Y273047D01*
X274743Y272355D01*
X274786Y272344D01*
X274847Y272318D01*
X276476Y271903D01*
X276520Y271900D01*
X276585Y271885D01*
X278260Y271759D01*
X278307Y271763D01*
G37*
G36*
X137891Y270175D02*
X137891Y270175D01*
X137963Y270173D01*
X139799Y270378D01*
X139845Y270392D01*
X139920Y270404D01*
X141681Y270964D01*
X141723Y270987D01*
X141795Y271013D01*
X143412Y271906D01*
X143450Y271936D01*
X143515Y271976D01*
X144927Y273167D01*
X144958Y273204D01*
X145014Y273256D01*
X146167Y274700D01*
X146190Y274742D01*
X146234Y274804D01*
X147083Y276445D01*
X147098Y276491D01*
X147129Y276560D01*
X147642Y278335D01*
X147647Y278383D01*
X147665Y278458D01*
X147821Y280298D01*
X147817Y280342D01*
X147821Y280407D01*
X147661Y282238D01*
X147648Y282284D01*
X147638Y282360D01*
X147124Y284124D01*
X147103Y284168D01*
X147078Y284240D01*
X146229Y285870D01*
X146200Y285908D01*
X146161Y285974D01*
X145011Y287407D01*
X144975Y287439D01*
X144924Y287496D01*
X143516Y288677D01*
X143475Y288701D01*
X143414Y288747D01*
X141802Y289631D01*
X141757Y289646D01*
X141688Y289680D01*
X139935Y290232D01*
X139888Y290238D01*
X139814Y290258D01*
X137987Y290458D01*
X137941Y290454D01*
X137872Y290460D01*
X136196Y290337D01*
X136153Y290326D01*
X136087Y290320D01*
X134457Y289909D01*
X134417Y289890D01*
X134353Y289872D01*
X132820Y289184D01*
X132783Y289159D01*
X132723Y289130D01*
X131333Y288186D01*
X131301Y288155D01*
X131247Y288117D01*
X130041Y286946D01*
X130015Y286910D01*
X129969Y286862D01*
X128985Y285500D01*
X128966Y285459D01*
X128929Y285405D01*
X128196Y283892D01*
X128184Y283849D01*
X128157Y283789D01*
X127699Y282172D01*
X127694Y282127D01*
X127678Y282063D01*
X127507Y280391D01*
X127511Y280343D01*
X127507Y280264D01*
X127673Y278592D01*
X127685Y278549D01*
X127694Y278484D01*
X128148Y276866D01*
X128167Y276825D01*
X128187Y276762D01*
X128915Y275248D01*
X128941Y275212D01*
X128971Y275153D01*
X129952Y273788D01*
X129984Y273757D01*
X130024Y273704D01*
X131226Y272530D01*
X131263Y272505D01*
X131311Y272460D01*
X132699Y271513D01*
X132740Y271495D01*
X132796Y271459D01*
X134327Y270767D01*
X134370Y270756D01*
X134431Y270730D01*
X136060Y270315D01*
X136104Y270312D01*
X136169Y270297D01*
X137844Y270171D01*
X137891Y270175D01*
G37*
G36*
X278307Y243772D02*
X278307Y243772D01*
X278379Y243770D01*
X280215Y243975D01*
X280261Y243989D01*
X280336Y244001D01*
X282097Y244561D01*
X282139Y244584D01*
X282211Y244610D01*
X283828Y245503D01*
X283866Y245533D01*
X283931Y245573D01*
X285343Y246764D01*
X285374Y246801D01*
X285430Y246853D01*
X286583Y248297D01*
X286606Y248339D01*
X286650Y248401D01*
X287499Y250042D01*
X287514Y250088D01*
X287545Y250157D01*
X288058Y251932D01*
X288063Y251980D01*
X288081Y252055D01*
X288237Y253895D01*
X288233Y253939D01*
X288237Y254004D01*
X288077Y255835D01*
X288064Y255881D01*
X288054Y255957D01*
X287540Y257721D01*
X287519Y257765D01*
X287494Y257837D01*
X286645Y259467D01*
X286616Y259505D01*
X286577Y259571D01*
X285427Y261004D01*
X285391Y261036D01*
X285340Y261093D01*
X283932Y262274D01*
X283891Y262298D01*
X283830Y262344D01*
X282218Y263228D01*
X282173Y263243D01*
X282104Y263277D01*
X280351Y263829D01*
X280304Y263835D01*
X280230Y263855D01*
X278403Y264055D01*
X278357Y264051D01*
X278288Y264057D01*
X276612Y263934D01*
X276569Y263923D01*
X276503Y263917D01*
X274873Y263506D01*
X274833Y263487D01*
X274769Y263469D01*
X273236Y262781D01*
X273199Y262756D01*
X273139Y262727D01*
X271749Y261783D01*
X271717Y261752D01*
X271663Y261714D01*
X270457Y260543D01*
X270431Y260507D01*
X270385Y260459D01*
X269401Y259097D01*
X269382Y259056D01*
X269345Y259002D01*
X268612Y257489D01*
X268600Y257446D01*
X268573Y257386D01*
X268115Y255769D01*
X268110Y255724D01*
X268094Y255660D01*
X267923Y253988D01*
X267927Y253940D01*
X267923Y253861D01*
X268089Y252189D01*
X268101Y252146D01*
X268110Y252081D01*
X268564Y250463D01*
X268583Y250422D01*
X268603Y250359D01*
X269331Y248845D01*
X269357Y248809D01*
X269387Y248750D01*
X270368Y247385D01*
X270400Y247354D01*
X270440Y247301D01*
X271642Y246127D01*
X271679Y246102D01*
X271727Y246057D01*
X273115Y245110D01*
X273156Y245092D01*
X273212Y245056D01*
X274743Y244364D01*
X274786Y244353D01*
X274847Y244327D01*
X276476Y243912D01*
X276520Y243909D01*
X276585Y243894D01*
X278260Y243768D01*
X278307Y243772D01*
G37*
G36*
X137891Y242184D02*
X137891Y242184D01*
X137963Y242182D01*
X139799Y242387D01*
X139845Y242401D01*
X139920Y242413D01*
X141681Y242973D01*
X141723Y242996D01*
X141795Y243022D01*
X143412Y243915D01*
X143450Y243945D01*
X143515Y243985D01*
X144927Y245176D01*
X144958Y245213D01*
X145014Y245265D01*
X146167Y246709D01*
X146190Y246751D01*
X146234Y246813D01*
X147083Y248454D01*
X147098Y248500D01*
X147129Y248569D01*
X147642Y250344D01*
X147647Y250392D01*
X147665Y250467D01*
X147821Y252307D01*
X147817Y252351D01*
X147821Y252416D01*
X147661Y254247D01*
X147648Y254293D01*
X147638Y254369D01*
X147124Y256133D01*
X147103Y256177D01*
X147078Y256249D01*
X146229Y257879D01*
X146200Y257917D01*
X146161Y257983D01*
X145011Y259416D01*
X144975Y259448D01*
X144924Y259505D01*
X143516Y260686D01*
X143475Y260710D01*
X143414Y260756D01*
X141802Y261640D01*
X141757Y261655D01*
X141688Y261689D01*
X139935Y262241D01*
X139888Y262247D01*
X139814Y262267D01*
X137987Y262467D01*
X137941Y262463D01*
X137872Y262469D01*
X136196Y262346D01*
X136153Y262335D01*
X136087Y262329D01*
X134457Y261918D01*
X134417Y261899D01*
X134353Y261881D01*
X132820Y261193D01*
X132783Y261168D01*
X132723Y261139D01*
X131333Y260195D01*
X131301Y260164D01*
X131247Y260126D01*
X130041Y258955D01*
X130015Y258919D01*
X129969Y258871D01*
X128985Y257509D01*
X128966Y257468D01*
X128929Y257414D01*
X128196Y255901D01*
X128184Y255858D01*
X128157Y255798D01*
X127699Y254181D01*
X127694Y254136D01*
X127678Y254072D01*
X127507Y252400D01*
X127511Y252352D01*
X127507Y252273D01*
X127673Y250601D01*
X127685Y250558D01*
X127694Y250493D01*
X128148Y248875D01*
X128167Y248834D01*
X128187Y248771D01*
X128915Y247257D01*
X128941Y247221D01*
X128971Y247162D01*
X129952Y245797D01*
X129984Y245766D01*
X130024Y245713D01*
X131226Y244539D01*
X131263Y244514D01*
X131311Y244469D01*
X132699Y243522D01*
X132740Y243504D01*
X132796Y243468D01*
X134327Y242776D01*
X134370Y242765D01*
X134431Y242739D01*
X136060Y242324D01*
X136104Y242321D01*
X136169Y242306D01*
X137844Y242180D01*
X137891Y242184D01*
G37*
G36*
X98432Y207783D02*
X98432Y207783D01*
X98497Y207779D01*
X100328Y207939D01*
X100374Y207952D01*
X100450Y207962D01*
X102214Y208476D01*
X102258Y208497D01*
X102330Y208522D01*
X103960Y209371D01*
X103998Y209400D01*
X104064Y209439D01*
X105497Y210589D01*
X105529Y210625D01*
X105586Y210676D01*
X106767Y212084D01*
X106791Y212125D01*
X106837Y212186D01*
X107382Y213179D01*
X107721Y213798D01*
X107736Y213843D01*
X107770Y213912D01*
X108322Y215665D01*
X108328Y215712D01*
X108348Y215786D01*
X108548Y217613D01*
X108544Y217659D01*
X108550Y217728D01*
X108427Y219404D01*
X108416Y219447D01*
X108410Y219513D01*
X107999Y221143D01*
X107980Y221183D01*
X107962Y221247D01*
X107274Y222780D01*
X107249Y222817D01*
X107220Y222877D01*
X106276Y224267D01*
X106245Y224299D01*
X106207Y224353D01*
X105036Y225559D01*
X105000Y225585D01*
X104952Y225631D01*
X103590Y226615D01*
X103549Y226634D01*
X103495Y226671D01*
X101982Y227404D01*
X101939Y227416D01*
X101879Y227443D01*
X100262Y227901D01*
X100217Y227906D01*
X100153Y227922D01*
X98481Y228093D01*
X98433Y228089D01*
X98354Y228093D01*
X96682Y227927D01*
X96639Y227915D01*
X96574Y227906D01*
X94956Y227452D01*
X94915Y227433D01*
X94852Y227413D01*
X93338Y226685D01*
X93302Y226659D01*
X93243Y226629D01*
X91878Y225648D01*
X91847Y225616D01*
X91794Y225576D01*
X90620Y224374D01*
X90595Y224337D01*
X90550Y224289D01*
X89603Y222901D01*
X89585Y222860D01*
X89549Y222804D01*
X88857Y221273D01*
X88846Y221230D01*
X88820Y221169D01*
X88405Y219540D01*
X88402Y219496D01*
X88387Y219431D01*
X88261Y217756D01*
X88265Y217709D01*
X88263Y217637D01*
X88468Y215802D01*
X88482Y215755D01*
X88494Y215680D01*
X89054Y213919D01*
X89077Y213877D01*
X89103Y213805D01*
X89996Y212188D01*
X90026Y212150D01*
X90066Y212085D01*
X91257Y210673D01*
X91294Y210642D01*
X91346Y210586D01*
X92790Y209433D01*
X92832Y209411D01*
X92894Y209366D01*
X94535Y208517D01*
X94581Y208503D01*
X94650Y208471D01*
X96425Y207958D01*
X96473Y207953D01*
X96548Y207936D01*
X98388Y207779D01*
X98432Y207783D01*
G37*
G36*
X70441Y207783D02*
X70441Y207783D01*
X70506Y207779D01*
X72337Y207939D01*
X72383Y207952D01*
X72459Y207962D01*
X74223Y208476D01*
X74267Y208497D01*
X74339Y208522D01*
X75969Y209371D01*
X76007Y209400D01*
X76073Y209439D01*
X77506Y210589D01*
X77538Y210625D01*
X77595Y210676D01*
X78776Y212084D01*
X78800Y212125D01*
X78846Y212186D01*
X79391Y213179D01*
X79730Y213798D01*
X79745Y213843D01*
X79779Y213912D01*
X80331Y215665D01*
X80337Y215712D01*
X80357Y215786D01*
X80557Y217613D01*
X80553Y217659D01*
X80559Y217728D01*
X80436Y219404D01*
X80425Y219447D01*
X80419Y219513D01*
X80008Y221143D01*
X79989Y221183D01*
X79971Y221247D01*
X79283Y222780D01*
X79258Y222817D01*
X79229Y222877D01*
X78285Y224267D01*
X78254Y224299D01*
X78216Y224353D01*
X77045Y225559D01*
X77009Y225585D01*
X76961Y225631D01*
X75599Y226615D01*
X75558Y226634D01*
X75504Y226671D01*
X73991Y227404D01*
X73948Y227416D01*
X73888Y227443D01*
X72271Y227901D01*
X72226Y227906D01*
X72162Y227922D01*
X70490Y228093D01*
X70442Y228089D01*
X70363Y228093D01*
X68691Y227927D01*
X68648Y227915D01*
X68583Y227906D01*
X66965Y227452D01*
X66924Y227433D01*
X66861Y227413D01*
X65347Y226685D01*
X65311Y226659D01*
X65252Y226629D01*
X63887Y225648D01*
X63856Y225616D01*
X63803Y225576D01*
X62629Y224374D01*
X62604Y224337D01*
X62559Y224289D01*
X61612Y222901D01*
X61594Y222860D01*
X61558Y222804D01*
X60866Y221273D01*
X60855Y221230D01*
X60829Y221169D01*
X60414Y219540D01*
X60411Y219496D01*
X60396Y219431D01*
X60270Y217756D01*
X60274Y217709D01*
X60272Y217637D01*
X60477Y215802D01*
X60491Y215755D01*
X60503Y215680D01*
X61063Y213919D01*
X61086Y213877D01*
X61112Y213805D01*
X62005Y212188D01*
X62035Y212150D01*
X62075Y212085D01*
X63266Y210673D01*
X63303Y210642D01*
X63355Y210586D01*
X64799Y209433D01*
X64841Y209411D01*
X64903Y209366D01*
X66544Y208517D01*
X66590Y208503D01*
X66659Y208471D01*
X68434Y207958D01*
X68482Y207953D01*
X68557Y207936D01*
X70397Y207779D01*
X70441Y207783D01*
G37*
D10*
X106062Y259946D03*
X106062Y285346D03*
X106062Y310746D03*
X106062Y336146D03*
X29862Y336146D03*
X29862Y310746D03*
X29862Y285346D03*
X29862Y259946D03*
X246062Y259946D03*
X246062Y285346D03*
X246062Y310746D03*
X246062Y336146D03*
X169862Y336146D03*
X169862Y310746D03*
X169862Y285346D03*
X169862Y259946D03*
X386062Y259946D03*
X386062Y285346D03*
X386062Y310746D03*
X386062Y336146D03*
X309862Y336146D03*
X309862Y310746D03*
X309862Y285346D03*
X309862Y259946D03*
D11*
X130670Y587550D03*
D12*
X178670Y587550D03*
D13*
X136670Y671100D03*
D11*
X270670Y587550D03*
D12*
X318670Y587550D03*
D13*
X276670Y671100D03*
D11*
X410670Y587550D03*
D12*
X458670Y587550D03*
D13*
X416670Y671100D03*
D14*
X600000Y590800D03*
X600000Y489200D03*
D15*
X251950Y426620D03*
D16*
X251950Y476620D03*
D15*
X382760Y427080D03*
D16*
X382760Y477080D03*
D17*
X636152Y262128D03*
X653152Y262128D03*
X674760Y262128D03*
X691760Y262128D03*
X712860Y262128D03*
X729860Y262128D03*
D18*
X635652Y245720D03*
X635652Y228720D03*
X674116Y245228D03*
X674116Y228228D03*
X712724Y245228D03*
X712724Y228228D03*
X652424Y229080D03*
X652424Y246080D03*
X691004Y228572D03*
X691004Y245572D03*
X729488Y228736D03*
X729488Y245736D03*
D19*
X544000Y570000D03*
X510000Y570000D03*
X544000Y435300D03*
X510000Y435300D03*
D20*
X694440Y667300D02*
X694440Y682540D01*
X719840Y682540D02*
X719840Y667300D01*
X745240Y667300D02*
X745240Y682540D01*
D18*
X767080Y478400D03*
X767080Y461400D03*
X746760Y461400D03*
X746760Y478400D03*
X359410Y325510D03*
X359410Y342510D03*
X336550Y325510D03*
X336550Y342510D03*
X216830Y324938D03*
X216830Y341938D03*
X197162Y324558D03*
X197162Y341558D03*
X78400Y324638D03*
X78400Y341638D03*
X56192Y324350D03*
X56192Y341350D03*
D15*
X119870Y427430D03*
D16*
X119870Y477430D03*
D21*
X880000Y730000D03*
X880000Y207800D03*
X30000Y207800D03*
X30000Y730000D03*
D22*
X447700Y207400D03*
X473100Y207400D03*
X498500Y207400D03*
X523900Y207400D03*
X549300Y207400D03*
X574700Y207400D03*
X600100Y207400D03*
X625500Y207400D03*
X650900Y207400D03*
X676300Y207400D03*
X701700Y207400D03*
X727100Y207400D03*
X752500Y207400D03*
X777900Y207400D03*
X777900Y232800D03*
X777900Y258200D03*
X777900Y283600D03*
X777900Y309000D03*
X777900Y334400D03*
X777900Y359800D03*
X752500Y359800D03*
X727100Y359800D03*
X701700Y359800D03*
X676300Y359800D03*
X650900Y359800D03*
X625500Y359800D03*
X600100Y359800D03*
X574700Y359800D03*
X549300Y359800D03*
X523900Y359800D03*
X498500Y359800D03*
X473100Y359800D03*
X447700Y359800D03*
X473100Y334400D03*
X523900Y334400D03*
X549300Y334400D03*
X574700Y334400D03*
X752500Y283600D03*
X752500Y309000D03*
X727100Y283600D03*
X701700Y283600D03*
X676300Y283600D03*
X650900Y283600D03*
X727100Y309000D03*
X701700Y309000D03*
X676300Y309000D03*
X650900Y309000D03*
X625500Y309000D03*
X600100Y309000D03*
X625500Y283600D03*
X600100Y283600D03*
D20*
X653680Y406000D02*
X653680Y421240D01*
X679080Y421240D02*
X679080Y406000D01*
X704480Y406000D02*
X704480Y421240D01*
D18*
X787400Y478400D03*
X787400Y461400D03*
D23*
X823000Y523240D03*
X823000Y481240D03*
X878000Y481240D03*
D24*
X878000Y523240D03*
D25*
X663800Y583180D03*
D26*
X663800Y557780D03*
X663800Y532380D03*
X663800Y506980D03*
X740000Y506980D03*
X740000Y532380D03*
X740000Y557780D03*
X740000Y583180D03*
D23*
X882540Y645000D03*
X882540Y590000D03*
D18*
X764920Y555480D03*
X764920Y538480D03*
D23*
X820000Y645000D03*
X820000Y590000D03*
X822452Y413004D03*
D24*
X877452Y413004D03*
D23*
X822452Y371004D03*
X877452Y371004D03*
X822452Y329004D03*
X877452Y329004D03*
X822452Y287004D03*
X877452Y287004D03*
D27*
X693420Y462120D03*
X693420Y457120D03*
X693420Y452120D03*
X693420Y447120D03*
X693420Y442120D03*
X648420Y442120D03*
X648420Y447120D03*
X648420Y452120D03*
X648420Y457120D03*
X648420Y462120D03*
D17*
X573160Y447040D03*
X590160Y447040D03*
X573160Y464820D03*
X590160Y464820D03*
X630800Y429260D03*
X613800Y429260D03*
D18*
X607060Y448700D03*
X607060Y465700D03*
D23*
X709540Y728980D03*
X764540Y728980D03*
D17*
X515230Y279400D03*
X498230Y279400D03*
D28*
X552290Y299060D03*
X552290Y280060D03*
X531290Y289560D03*
D17*
X515230Y298450D03*
X498230Y298450D03*
M02*
