G04 EAGLE Gerber RS-274X export*
G75*
%MOMM*%
%FSLAX34Y34*%
%LPD*%
%AMOC8*
5,1,8,0,0,1.08239X$1,22.5*%
G01*
%ADD10R,8.000000X3.000000*%
%ADD11R,0.800000X3.000000*%
%ADD12R,7.500000X7.650000*%
%ADD13R,5.080000X10.160000*%
%ADD14R,10.160000X5.080000*%
%ADD15R,1.000000X1.100000*%
%ADD16R,3.200000X1.800000*%
%ADD17R,1.600000X0.350000*%


D10*
X130670Y644550D03*
D11*
X178670Y644550D03*
D12*
X136670Y561000D03*
D13*
X530000Y690000D03*
X620000Y690000D03*
D10*
X270670Y644550D03*
D11*
X318670Y644550D03*
D12*
X276670Y561000D03*
D10*
X410670Y644550D03*
D11*
X458670Y644550D03*
D12*
X416670Y561000D03*
D14*
X136670Y700950D03*
X276670Y700950D03*
X416670Y700950D03*
D15*
X328930Y209940D03*
X328930Y226940D03*
X354330Y226940D03*
X354330Y209940D03*
X227330Y209940D03*
X227330Y226940D03*
X252730Y226940D03*
X252730Y209940D03*
X125730Y209940D03*
X125730Y226940D03*
X151130Y226940D03*
X151130Y209940D03*
X379730Y226940D03*
X379730Y209940D03*
X278130Y226940D03*
X278130Y209940D03*
X176530Y226940D03*
X176530Y209940D03*
D16*
X469900Y431740D03*
X469900Y487740D03*
D17*
X480000Y298900D03*
X480000Y292400D03*
X480000Y285900D03*
X480000Y279400D03*
X480000Y272900D03*
X480000Y266400D03*
X480000Y259900D03*
X536000Y259900D03*
X536000Y266400D03*
X536000Y272900D03*
X536000Y279400D03*
X536000Y285900D03*
X536000Y292400D03*
X536000Y298900D03*
M02*
