M48
;GenerationSoftware,Autodesk,EAGLE,9.1.1*%
;CreationDate,2018-11-07T06:59:33Z*%
FMAT,2
ICI,OFF
METRIC,TZ,000.000
T7C0.350
T6C0.400
T5C0.600
T4C0.900
T3C0.965
T2C1.600
T1C3.500
%
G90
M71
T1
X4000Y4000
X81000Y4000
X4000Y61000
X81000Y61000
T2
X80500Y55000
X80500Y50800
X75000Y50800
X80500Y31000
X75000Y38800
X75000Y43000
X80500Y10400
X75000Y10400
X80500Y14600
X75000Y14600
X80500Y18800
X75000Y18800
X80500Y23000
X75000Y23000
X75000Y31000
X80500Y43000
X80500Y38800
X75000Y55000
T3
X64041Y62338
X66581Y62338
X61501Y62338
X58961Y62338
X56421Y62338
X53881Y62338
X51341Y62338
X51341Y59798
X51341Y57258
X51341Y54718
X66581Y59798
X51341Y49638
X51341Y47098
X51341Y44558
X51341Y42018
X51341Y39478
X51341Y36938
X51341Y34398
X51341Y31858
X51341Y29318
X53881Y31858
X53881Y36938
X53881Y39478
X53881Y42018
X66581Y57258
X66581Y54718
X66581Y52178
X66581Y49638
X66581Y47098
X66581Y44558
X66581Y42018
X66581Y39478
X66581Y36938
X66581Y34398
X66581Y31858
X66581Y29318
X51341Y52178
T4
X16000Y4460
X30000Y9540
X30000Y4460
X22000Y59540
X22000Y54460
X36000Y59540
X36000Y54460
X16000Y9540
T5
X14000Y41000
X12500Y41000
X14000Y45500
X3500Y44000
X6000Y44000
X6000Y46500
X3500Y46500
X3500Y41500
X6000Y41500
X11000Y41000
X9500Y41000
X9500Y42500
X29000Y46500
X29000Y48000
X29000Y45000
X29000Y43500
X29000Y42000
X27500Y48000
X9500Y44000
X9500Y45500
X6500Y34500
X6500Y32000
X6500Y29500
X3500Y29500
X3500Y32000
X14000Y42500
X3500Y34500
X11000Y42500
X14000Y44000
X11000Y44000
X59000Y42000
X61500Y50000
X56500Y53000
X27500Y23500
X29000Y23500
X30500Y23500
X31500Y22500
X33500Y18500
X31000Y15500
X29500Y15500
X28000Y15500
X27500Y35500
X29000Y35500
X30500Y35000
X32000Y34000
X33500Y34000
X35000Y34000
X33500Y47500
X33500Y46000
X33500Y44500
X30500Y29000
X32000Y29000
X33500Y29000
X56000Y28500
X56000Y27000
X56000Y25500
X56000Y24000
X56000Y22500
X64500Y8500
X83000Y7500
X69500Y10900
X74000Y3500
X78300Y14200
X70500Y18000
X72000Y25500
X78500Y32500
X74000Y34500
X64000Y47500
X72000Y41000
X71000Y54000
X79500Y46000
X46000Y53500
X46000Y48500
X46000Y44000
X49500Y6000
X58000Y9000
X58000Y7500
X12500Y42500
X12500Y44000
X14000Y29000
X14000Y33500
X14000Y32000
X14000Y30500
X12500Y29000
X12500Y30500
X12500Y32000
X12500Y33500
X11000Y33500
X11000Y32000
X11000Y30500
X11000Y29000
X9500Y29000
X9500Y30500
X9500Y32000
X9500Y33500
X6000Y22500
X3500Y22500
X3500Y17500
X6000Y17500
X6000Y20000
X3500Y20000
X14000Y21500
X14000Y20000
X14000Y18500
X14000Y17000
X12500Y17000
X12500Y18500
X12500Y20000
X12500Y21500
X11000Y21500
X11000Y20000
X11000Y18500
X11000Y17000
X9500Y17000
X9500Y18500
X9500Y20000
X12500Y45500
X11000Y45500
X9500Y21500
X63000Y43500
T6
X67700Y16400
X13700Y36600
X23700Y37100
X24800Y37200
X13400Y48600
X24600Y38900
X25500Y39600
X68000Y53500
X66100Y25200
X59400Y16000
X50000Y13000
X58000Y57000
X57000Y55500
X25200Y24500
X23700Y24400
X42100Y27700
X39900Y25700
X39000Y37000
X38000Y39000
X25600Y25400
X24500Y27200
X55000Y48600
X56500Y48000
X58000Y46000
X70300Y46700
X25600Y37800
X30100Y32800
X46400Y31900
X41500Y31700
X30100Y31100
X42100Y30800
X46200Y30700
X26500Y39900
X43300Y19100
X41200Y20800
X26000Y27500
X38800Y16700
X36200Y17000
X30000Y17000
X64100Y24400
X59000Y25700
X55500Y19500
X55500Y17500
X55500Y15500
X55500Y13500
X58000Y13500
X58000Y15500
X63800Y16100
X69000Y57500
X83000Y21500
X83000Y23500
X70000Y56500
X58000Y17500
X83600Y20100
X81600Y25700
X82600Y25400
X71000Y56000
X68800Y42200
X68900Y43300
X58000Y19500
X53700Y52700
X41500Y45000
X61200Y40700
X59400Y45100
X58400Y47800
X81600Y36800
X71300Y38200
X54900Y30100
X54000Y1500
X39200Y14200
X42000Y12500
X43400Y16100
X41100Y19600
X43000Y20500
X44000Y24500
X46200Y26500
X36800Y21000
X30300Y19000
X46500Y28000
X36500Y22000
X30300Y20700
X67200Y23300
X64000Y26000
X13700Y24900
X64100Y27100
T7
X58000Y43500
X56632Y33474
X69100Y44700
X58868Y6100
X68500Y15100
X65500Y38200
X58132Y35500
X65500Y56000
X64000Y29000
X57932Y38000
X67400Y26000
X66603Y26597
X63500Y55000
X61500Y55000
X65000Y51632
X65462Y28432
X71132Y28000
X72500Y15000
X58000Y37000
X68453Y45453
X71332Y33200
X67232Y33200
X71400Y30700
X67300Y30500
X67368Y35700
X71300Y35700
X78500Y21100
X59000Y21500
X62520Y52980
M30