G04 EAGLE Gerber RS-274X export*
G75*
%MOMM*%
%FSLAX34Y34*%
%LPD*%
%AMOC8*
5,1,8,0,0,1.08239X$1,22.5*%
G01*
%ADD10R,1.652400X0.362400*%
%ADD11R,4.152400X7.152400*%
%ADD12R,1.252400X1.152400*%
%ADD13R,1.152400X1.252400*%
%ADD14R,1.952400X1.852400*%
%ADD15R,1.952400X4.152400*%
%ADD16R,1.352400X0.952400*%
%ADD17C,1.600200*%
%ADD18R,1.752400X1.952400*%
%ADD19R,1.930400X3.327400*%
%ADD20R,0.952400X1.052400*%
%ADD21R,3.152400X8.152400*%
%ADD22R,3.152400X0.952400*%
%ADD23R,7.802400X7.652400*%
%ADD24C,2.082800*%
%ADD25R,2.082800X2.082800*%
%ADD26R,1.552400X1.352400*%
%ADD27C,2.552400*%
%ADD28R,2.552400X2.552400*%
%ADD29C,3.652400*%
%ADD30R,5.232400X10.312400*%
%ADD31R,10.312400X5.232400*%


D10*
X608340Y97800D03*
X608340Y102800D03*
X608340Y107800D03*
X608340Y112800D03*
X608340Y117800D03*
X608340Y122800D03*
X608340Y127800D03*
X608340Y132800D03*
X608340Y137800D03*
X608340Y142800D03*
X608340Y147800D03*
X608340Y152800D03*
X608340Y157800D03*
X608340Y162800D03*
X608340Y167800D03*
X608340Y172800D03*
X608340Y177800D03*
X608340Y182800D03*
X608340Y187800D03*
X608340Y192800D03*
X608340Y197800D03*
X608340Y202800D03*
X608340Y207800D03*
X608340Y212800D03*
X608340Y217800D03*
X608340Y222800D03*
X608340Y227800D03*
X608340Y232800D03*
X528340Y232800D03*
X528340Y227800D03*
X528340Y222800D03*
X528340Y217800D03*
X528340Y212800D03*
X528340Y207800D03*
X528340Y202800D03*
X528340Y197800D03*
X528340Y192800D03*
X528340Y187800D03*
X528340Y182800D03*
X528340Y177800D03*
X528340Y172800D03*
X528340Y167800D03*
X528340Y162800D03*
X528340Y157800D03*
X528340Y152800D03*
X528340Y147800D03*
X528340Y142800D03*
X528340Y137800D03*
X528340Y132800D03*
X528340Y127800D03*
X528340Y122800D03*
X528340Y117800D03*
X528340Y112800D03*
X528340Y107800D03*
X528340Y102800D03*
X528340Y97800D03*
D11*
X568340Y165300D03*
D12*
X561500Y55000D03*
X578500Y55000D03*
D13*
X440000Y238500D03*
X440000Y221500D03*
X410000Y188500D03*
X410000Y171500D03*
D12*
X398500Y142000D03*
X415500Y142000D03*
D14*
X399500Y85000D03*
X440500Y85000D03*
D15*
X395000Y40000D03*
X445000Y40000D03*
D13*
X415000Y456500D03*
X415000Y473500D03*
X570000Y21500D03*
X570000Y38500D03*
D12*
X488500Y85000D03*
X471500Y85000D03*
X608500Y250000D03*
X591500Y250000D03*
X670500Y164000D03*
X653500Y164000D03*
X653500Y147000D03*
X670500Y147000D03*
D13*
X630000Y21500D03*
X630000Y38500D03*
X670000Y21500D03*
X670000Y38500D03*
X650000Y21500D03*
X650000Y38500D03*
X690000Y38500D03*
X690000Y21500D03*
X590000Y38500D03*
X590000Y21500D03*
X610000Y21500D03*
X610000Y38500D03*
X640000Y216500D03*
X640000Y233500D03*
D12*
X626500Y390000D03*
X643500Y390000D03*
X626500Y407000D03*
X643500Y407000D03*
X626500Y374000D03*
X643500Y374000D03*
D13*
X310000Y189500D03*
X310000Y206500D03*
D12*
X351500Y255000D03*
X368500Y255000D03*
X351500Y235000D03*
X368500Y235000D03*
X321500Y370000D03*
X338500Y370000D03*
X321500Y355000D03*
X338500Y355000D03*
X321500Y405000D03*
X338500Y405000D03*
X321500Y390000D03*
X338500Y390000D03*
X473500Y575000D03*
X456500Y575000D03*
X456500Y595000D03*
X473500Y595000D03*
D16*
X481000Y21000D03*
X481000Y39000D03*
D17*
X665810Y293180D03*
X665810Y318580D03*
X665810Y343980D03*
X665810Y369380D03*
X665810Y394780D03*
X665810Y420180D03*
X665810Y445580D03*
X665810Y470980D03*
X665810Y496380D03*
X665810Y521780D03*
X665810Y547180D03*
X665810Y572580D03*
X665810Y597980D03*
X665810Y623380D03*
X640410Y623380D03*
X615010Y623380D03*
X589610Y623380D03*
X564210Y623380D03*
X538810Y623380D03*
X513410Y623380D03*
X513410Y597980D03*
X513410Y572580D03*
X513410Y547180D03*
X513410Y521780D03*
X513410Y496380D03*
X513410Y470980D03*
X513410Y445580D03*
X513410Y420180D03*
X513410Y394780D03*
X513410Y369380D03*
X513410Y343980D03*
X513410Y318580D03*
X513410Y293180D03*
X538810Y318580D03*
X538810Y369380D03*
X538810Y394780D03*
X538810Y420180D03*
D18*
X256000Y345000D03*
X284000Y345000D03*
X256000Y465000D03*
X284000Y465000D03*
X256000Y415000D03*
X284000Y415000D03*
X256000Y225000D03*
X284000Y225000D03*
X256000Y320000D03*
X284000Y320000D03*
X256000Y175000D03*
X284000Y175000D03*
X536000Y255000D03*
X564000Y255000D03*
X256000Y440000D03*
X284000Y440000D03*
X256000Y295000D03*
X284000Y295000D03*
X256000Y200000D03*
X284000Y200000D03*
D19*
X388020Y465000D03*
X321980Y465000D03*
D12*
X626500Y354000D03*
X643500Y354000D03*
X626500Y320000D03*
X643500Y320000D03*
X626500Y337000D03*
X643500Y337000D03*
D13*
X545000Y571500D03*
X545000Y588500D03*
X565000Y588500D03*
X565000Y571500D03*
D16*
X500000Y21000D03*
X500000Y39000D03*
D13*
X549000Y491500D03*
X549000Y508500D03*
X565000Y491500D03*
X565000Y508500D03*
D20*
X539500Y40000D03*
X520500Y40000D03*
X530000Y19000D03*
D21*
X115000Y194000D03*
D22*
X115000Y242000D03*
D23*
X198550Y200000D03*
D21*
X115000Y314000D03*
D22*
X115000Y362000D03*
D23*
X198550Y320000D03*
D21*
X115000Y434000D03*
D22*
X115000Y482000D03*
D23*
X198550Y440000D03*
D13*
X306209Y311155D03*
X306209Y328155D03*
D24*
X220000Y595400D03*
D25*
X220000Y544600D03*
D24*
X360000Y595400D03*
D25*
X360000Y544600D03*
D24*
X160000Y44600D03*
D25*
X160000Y95400D03*
D26*
X455000Y415000D03*
X455000Y385000D03*
X710000Y590000D03*
X710000Y620000D03*
X745000Y590000D03*
X745000Y620000D03*
D13*
X480000Y408500D03*
X480000Y391500D03*
X625000Y588500D03*
X625000Y571500D03*
X605000Y588500D03*
X605000Y571500D03*
D27*
X750000Y230000D03*
D28*
X805000Y230000D03*
D27*
X750000Y188000D03*
X805000Y188000D03*
X750000Y146000D03*
X805000Y146000D03*
X750000Y104000D03*
X805000Y104000D03*
X750000Y430000D03*
X750000Y388000D03*
X805000Y388000D03*
D28*
X805000Y430000D03*
D27*
X750000Y550000D03*
X750000Y508000D03*
X805000Y508000D03*
D28*
X805000Y550000D03*
D29*
X40000Y40000D03*
X810000Y40000D03*
X40000Y610000D03*
X810000Y610000D03*
D13*
X710000Y38500D03*
X710000Y21500D03*
D30*
X50000Y200000D03*
X50000Y320000D03*
X50000Y440000D03*
D31*
X80000Y540000D03*
D24*
X300000Y44600D03*
D25*
X300000Y95400D03*
D18*
X551000Y75000D03*
X579000Y75000D03*
X536000Y285000D03*
X564000Y285000D03*
D27*
X805000Y310000D03*
X750000Y310000D03*
M02*
