G75*
%MOIN*%
%OFA0B0*%
%FSLAX25Y25*%
%IPPOS*%
%LPD*%
%AMOC8*
5,1,8,0,0,1.08239X$1,22.5*
%
%ADD10C,0.00000*%
D10*
X0001250Y0009124D02*
X0001250Y0300463D01*
X0001252Y0300653D01*
X0001259Y0300843D01*
X0001271Y0301033D01*
X0001287Y0301223D01*
X0001307Y0301412D01*
X0001333Y0301601D01*
X0001362Y0301789D01*
X0001397Y0301976D01*
X0001436Y0302162D01*
X0001479Y0302347D01*
X0001527Y0302532D01*
X0001579Y0302715D01*
X0001635Y0302896D01*
X0001696Y0303076D01*
X0001762Y0303255D01*
X0001831Y0303432D01*
X0001905Y0303608D01*
X0001983Y0303781D01*
X0002066Y0303953D01*
X0002152Y0304122D01*
X0002242Y0304290D01*
X0002337Y0304455D01*
X0002435Y0304618D01*
X0002538Y0304778D01*
X0002644Y0304936D01*
X0002754Y0305091D01*
X0002867Y0305244D01*
X0002985Y0305394D01*
X0003106Y0305540D01*
X0003230Y0305684D01*
X0003358Y0305825D01*
X0003489Y0305963D01*
X0003624Y0306098D01*
X0003762Y0306229D01*
X0003903Y0306357D01*
X0004047Y0306481D01*
X0004193Y0306602D01*
X0004343Y0306720D01*
X0004496Y0306833D01*
X0004651Y0306943D01*
X0004809Y0307049D01*
X0004969Y0307152D01*
X0005132Y0307250D01*
X0005297Y0307345D01*
X0005465Y0307435D01*
X0005634Y0307521D01*
X0005806Y0307604D01*
X0005979Y0307682D01*
X0006155Y0307756D01*
X0006332Y0307825D01*
X0006511Y0307891D01*
X0006691Y0307952D01*
X0006872Y0308008D01*
X0007055Y0308060D01*
X0007240Y0308108D01*
X0007425Y0308151D01*
X0007611Y0308190D01*
X0007798Y0308225D01*
X0007986Y0308254D01*
X0008175Y0308280D01*
X0008364Y0308300D01*
X0008554Y0308316D01*
X0008744Y0308328D01*
X0008934Y0308335D01*
X0009124Y0308337D01*
X0351644Y0308337D01*
X0351834Y0308335D01*
X0352024Y0308328D01*
X0352214Y0308316D01*
X0352404Y0308300D01*
X0352593Y0308280D01*
X0352782Y0308254D01*
X0352970Y0308225D01*
X0353157Y0308190D01*
X0353343Y0308151D01*
X0353528Y0308108D01*
X0353713Y0308060D01*
X0353896Y0308008D01*
X0354077Y0307952D01*
X0354257Y0307891D01*
X0354436Y0307825D01*
X0354613Y0307756D01*
X0354789Y0307682D01*
X0354962Y0307604D01*
X0355134Y0307521D01*
X0355303Y0307435D01*
X0355471Y0307345D01*
X0355636Y0307250D01*
X0355799Y0307152D01*
X0355959Y0307049D01*
X0356117Y0306943D01*
X0356272Y0306833D01*
X0356425Y0306720D01*
X0356575Y0306602D01*
X0356721Y0306481D01*
X0356865Y0306357D01*
X0357006Y0306229D01*
X0357144Y0306098D01*
X0357279Y0305963D01*
X0357410Y0305825D01*
X0357538Y0305684D01*
X0357662Y0305540D01*
X0357783Y0305394D01*
X0357901Y0305244D01*
X0358014Y0305091D01*
X0358124Y0304936D01*
X0358230Y0304778D01*
X0358333Y0304618D01*
X0358431Y0304455D01*
X0358526Y0304290D01*
X0358616Y0304122D01*
X0358702Y0303953D01*
X0358785Y0303781D01*
X0358863Y0303608D01*
X0358937Y0303432D01*
X0359006Y0303255D01*
X0359072Y0303076D01*
X0359133Y0302896D01*
X0359189Y0302715D01*
X0359241Y0302532D01*
X0359289Y0302347D01*
X0359332Y0302162D01*
X0359371Y0301976D01*
X0359406Y0301789D01*
X0359435Y0301601D01*
X0359461Y0301412D01*
X0359481Y0301223D01*
X0359497Y0301033D01*
X0359509Y0300843D01*
X0359516Y0300653D01*
X0359518Y0300463D01*
X0359518Y0009124D01*
X0359516Y0008934D01*
X0359509Y0008744D01*
X0359497Y0008554D01*
X0359481Y0008364D01*
X0359461Y0008175D01*
X0359435Y0007986D01*
X0359406Y0007798D01*
X0359371Y0007611D01*
X0359332Y0007425D01*
X0359289Y0007240D01*
X0359241Y0007055D01*
X0359189Y0006872D01*
X0359133Y0006691D01*
X0359072Y0006511D01*
X0359006Y0006332D01*
X0358937Y0006155D01*
X0358863Y0005979D01*
X0358785Y0005806D01*
X0358702Y0005634D01*
X0358616Y0005465D01*
X0358526Y0005297D01*
X0358431Y0005132D01*
X0358333Y0004969D01*
X0358230Y0004809D01*
X0358124Y0004651D01*
X0358014Y0004496D01*
X0357901Y0004343D01*
X0357783Y0004193D01*
X0357662Y0004047D01*
X0357538Y0003903D01*
X0357410Y0003762D01*
X0357279Y0003624D01*
X0357144Y0003489D01*
X0357006Y0003358D01*
X0356865Y0003230D01*
X0356721Y0003106D01*
X0356575Y0002985D01*
X0356425Y0002867D01*
X0356272Y0002754D01*
X0356117Y0002644D01*
X0355959Y0002538D01*
X0355799Y0002435D01*
X0355636Y0002337D01*
X0355471Y0002242D01*
X0355303Y0002152D01*
X0355134Y0002066D01*
X0354962Y0001983D01*
X0354789Y0001905D01*
X0354613Y0001831D01*
X0354436Y0001762D01*
X0354257Y0001696D01*
X0354077Y0001635D01*
X0353896Y0001579D01*
X0353713Y0001527D01*
X0353528Y0001479D01*
X0353343Y0001436D01*
X0353157Y0001397D01*
X0352970Y0001362D01*
X0352782Y0001333D01*
X0352593Y0001307D01*
X0352404Y0001287D01*
X0352214Y0001271D01*
X0352024Y0001259D01*
X0351834Y0001252D01*
X0351644Y0001250D01*
X0009124Y0001250D01*
X0008934Y0001252D01*
X0008744Y0001259D01*
X0008554Y0001271D01*
X0008364Y0001287D01*
X0008175Y0001307D01*
X0007986Y0001333D01*
X0007798Y0001362D01*
X0007611Y0001397D01*
X0007425Y0001436D01*
X0007240Y0001479D01*
X0007055Y0001527D01*
X0006872Y0001579D01*
X0006691Y0001635D01*
X0006511Y0001696D01*
X0006332Y0001762D01*
X0006155Y0001831D01*
X0005979Y0001905D01*
X0005806Y0001983D01*
X0005634Y0002066D01*
X0005465Y0002152D01*
X0005297Y0002242D01*
X0005132Y0002337D01*
X0004969Y0002435D01*
X0004809Y0002538D01*
X0004651Y0002644D01*
X0004496Y0002754D01*
X0004343Y0002867D01*
X0004193Y0002985D01*
X0004047Y0003106D01*
X0003903Y0003230D01*
X0003762Y0003358D01*
X0003624Y0003489D01*
X0003489Y0003624D01*
X0003358Y0003762D01*
X0003230Y0003903D01*
X0003106Y0004047D01*
X0002985Y0004193D01*
X0002867Y0004343D01*
X0002754Y0004496D01*
X0002644Y0004651D01*
X0002538Y0004809D01*
X0002435Y0004969D01*
X0002337Y0005132D01*
X0002242Y0005297D01*
X0002152Y0005465D01*
X0002066Y0005634D01*
X0001983Y0005806D01*
X0001905Y0005979D01*
X0001831Y0006155D01*
X0001762Y0006332D01*
X0001696Y0006511D01*
X0001635Y0006691D01*
X0001579Y0006872D01*
X0001527Y0007055D01*
X0001479Y0007240D01*
X0001436Y0007425D01*
X0001397Y0007611D01*
X0001362Y0007798D01*
X0001333Y0007986D01*
X0001307Y0008175D01*
X0001287Y0008364D01*
X0001271Y0008554D01*
X0001259Y0008744D01*
X0001252Y0008934D01*
X0001250Y0009124D01*
X0006171Y0013061D02*
X0006173Y0013230D01*
X0006179Y0013399D01*
X0006190Y0013568D01*
X0006204Y0013736D01*
X0006223Y0013904D01*
X0006246Y0014072D01*
X0006272Y0014239D01*
X0006303Y0014405D01*
X0006338Y0014571D01*
X0006377Y0014735D01*
X0006421Y0014899D01*
X0006468Y0015061D01*
X0006519Y0015222D01*
X0006574Y0015382D01*
X0006633Y0015541D01*
X0006695Y0015698D01*
X0006762Y0015853D01*
X0006833Y0016007D01*
X0006907Y0016159D01*
X0006985Y0016309D01*
X0007066Y0016457D01*
X0007151Y0016603D01*
X0007240Y0016747D01*
X0007332Y0016889D01*
X0007428Y0017028D01*
X0007527Y0017165D01*
X0007629Y0017300D01*
X0007735Y0017432D01*
X0007844Y0017561D01*
X0007956Y0017688D01*
X0008071Y0017812D01*
X0008189Y0017933D01*
X0008310Y0018051D01*
X0008434Y0018166D01*
X0008561Y0018278D01*
X0008690Y0018387D01*
X0008822Y0018493D01*
X0008957Y0018595D01*
X0009094Y0018694D01*
X0009233Y0018790D01*
X0009375Y0018882D01*
X0009519Y0018971D01*
X0009665Y0019056D01*
X0009813Y0019137D01*
X0009963Y0019215D01*
X0010115Y0019289D01*
X0010269Y0019360D01*
X0010424Y0019427D01*
X0010581Y0019489D01*
X0010740Y0019548D01*
X0010900Y0019603D01*
X0011061Y0019654D01*
X0011223Y0019701D01*
X0011387Y0019745D01*
X0011551Y0019784D01*
X0011717Y0019819D01*
X0011883Y0019850D01*
X0012050Y0019876D01*
X0012218Y0019899D01*
X0012386Y0019918D01*
X0012554Y0019932D01*
X0012723Y0019943D01*
X0012892Y0019949D01*
X0013061Y0019951D01*
X0013230Y0019949D01*
X0013399Y0019943D01*
X0013568Y0019932D01*
X0013736Y0019918D01*
X0013904Y0019899D01*
X0014072Y0019876D01*
X0014239Y0019850D01*
X0014405Y0019819D01*
X0014571Y0019784D01*
X0014735Y0019745D01*
X0014899Y0019701D01*
X0015061Y0019654D01*
X0015222Y0019603D01*
X0015382Y0019548D01*
X0015541Y0019489D01*
X0015698Y0019427D01*
X0015853Y0019360D01*
X0016007Y0019289D01*
X0016159Y0019215D01*
X0016309Y0019137D01*
X0016457Y0019056D01*
X0016603Y0018971D01*
X0016747Y0018882D01*
X0016889Y0018790D01*
X0017028Y0018694D01*
X0017165Y0018595D01*
X0017300Y0018493D01*
X0017432Y0018387D01*
X0017561Y0018278D01*
X0017688Y0018166D01*
X0017812Y0018051D01*
X0017933Y0017933D01*
X0018051Y0017812D01*
X0018166Y0017688D01*
X0018278Y0017561D01*
X0018387Y0017432D01*
X0018493Y0017300D01*
X0018595Y0017165D01*
X0018694Y0017028D01*
X0018790Y0016889D01*
X0018882Y0016747D01*
X0018971Y0016603D01*
X0019056Y0016457D01*
X0019137Y0016309D01*
X0019215Y0016159D01*
X0019289Y0016007D01*
X0019360Y0015853D01*
X0019427Y0015698D01*
X0019489Y0015541D01*
X0019548Y0015382D01*
X0019603Y0015222D01*
X0019654Y0015061D01*
X0019701Y0014899D01*
X0019745Y0014735D01*
X0019784Y0014571D01*
X0019819Y0014405D01*
X0019850Y0014239D01*
X0019876Y0014072D01*
X0019899Y0013904D01*
X0019918Y0013736D01*
X0019932Y0013568D01*
X0019943Y0013399D01*
X0019949Y0013230D01*
X0019951Y0013061D01*
X0019949Y0012892D01*
X0019943Y0012723D01*
X0019932Y0012554D01*
X0019918Y0012386D01*
X0019899Y0012218D01*
X0019876Y0012050D01*
X0019850Y0011883D01*
X0019819Y0011717D01*
X0019784Y0011551D01*
X0019745Y0011387D01*
X0019701Y0011223D01*
X0019654Y0011061D01*
X0019603Y0010900D01*
X0019548Y0010740D01*
X0019489Y0010581D01*
X0019427Y0010424D01*
X0019360Y0010269D01*
X0019289Y0010115D01*
X0019215Y0009963D01*
X0019137Y0009813D01*
X0019056Y0009665D01*
X0018971Y0009519D01*
X0018882Y0009375D01*
X0018790Y0009233D01*
X0018694Y0009094D01*
X0018595Y0008957D01*
X0018493Y0008822D01*
X0018387Y0008690D01*
X0018278Y0008561D01*
X0018166Y0008434D01*
X0018051Y0008310D01*
X0017933Y0008189D01*
X0017812Y0008071D01*
X0017688Y0007956D01*
X0017561Y0007844D01*
X0017432Y0007735D01*
X0017300Y0007629D01*
X0017165Y0007527D01*
X0017028Y0007428D01*
X0016889Y0007332D01*
X0016747Y0007240D01*
X0016603Y0007151D01*
X0016457Y0007066D01*
X0016309Y0006985D01*
X0016159Y0006907D01*
X0016007Y0006833D01*
X0015853Y0006762D01*
X0015698Y0006695D01*
X0015541Y0006633D01*
X0015382Y0006574D01*
X0015222Y0006519D01*
X0015061Y0006468D01*
X0014899Y0006421D01*
X0014735Y0006377D01*
X0014571Y0006338D01*
X0014405Y0006303D01*
X0014239Y0006272D01*
X0014072Y0006246D01*
X0013904Y0006223D01*
X0013736Y0006204D01*
X0013568Y0006190D01*
X0013399Y0006179D01*
X0013230Y0006173D01*
X0013061Y0006171D01*
X0012892Y0006173D01*
X0012723Y0006179D01*
X0012554Y0006190D01*
X0012386Y0006204D01*
X0012218Y0006223D01*
X0012050Y0006246D01*
X0011883Y0006272D01*
X0011717Y0006303D01*
X0011551Y0006338D01*
X0011387Y0006377D01*
X0011223Y0006421D01*
X0011061Y0006468D01*
X0010900Y0006519D01*
X0010740Y0006574D01*
X0010581Y0006633D01*
X0010424Y0006695D01*
X0010269Y0006762D01*
X0010115Y0006833D01*
X0009963Y0006907D01*
X0009813Y0006985D01*
X0009665Y0007066D01*
X0009519Y0007151D01*
X0009375Y0007240D01*
X0009233Y0007332D01*
X0009094Y0007428D01*
X0008957Y0007527D01*
X0008822Y0007629D01*
X0008690Y0007735D01*
X0008561Y0007844D01*
X0008434Y0007956D01*
X0008310Y0008071D01*
X0008189Y0008189D01*
X0008071Y0008310D01*
X0007956Y0008434D01*
X0007844Y0008561D01*
X0007735Y0008690D01*
X0007629Y0008822D01*
X0007527Y0008957D01*
X0007428Y0009094D01*
X0007332Y0009233D01*
X0007240Y0009375D01*
X0007151Y0009519D01*
X0007066Y0009665D01*
X0006985Y0009813D01*
X0006907Y0009963D01*
X0006833Y0010115D01*
X0006762Y0010269D01*
X0006695Y0010424D01*
X0006633Y0010581D01*
X0006574Y0010740D01*
X0006519Y0010900D01*
X0006468Y0011061D01*
X0006421Y0011223D01*
X0006377Y0011387D01*
X0006338Y0011551D01*
X0006303Y0011717D01*
X0006272Y0011883D01*
X0006246Y0012050D01*
X0006223Y0012218D01*
X0006204Y0012386D01*
X0006190Y0012554D01*
X0006179Y0012723D01*
X0006173Y0012892D01*
X0006171Y0013061D01*
X0006171Y0296526D02*
X0006173Y0296695D01*
X0006179Y0296864D01*
X0006190Y0297033D01*
X0006204Y0297201D01*
X0006223Y0297369D01*
X0006246Y0297537D01*
X0006272Y0297704D01*
X0006303Y0297870D01*
X0006338Y0298036D01*
X0006377Y0298200D01*
X0006421Y0298364D01*
X0006468Y0298526D01*
X0006519Y0298687D01*
X0006574Y0298847D01*
X0006633Y0299006D01*
X0006695Y0299163D01*
X0006762Y0299318D01*
X0006833Y0299472D01*
X0006907Y0299624D01*
X0006985Y0299774D01*
X0007066Y0299922D01*
X0007151Y0300068D01*
X0007240Y0300212D01*
X0007332Y0300354D01*
X0007428Y0300493D01*
X0007527Y0300630D01*
X0007629Y0300765D01*
X0007735Y0300897D01*
X0007844Y0301026D01*
X0007956Y0301153D01*
X0008071Y0301277D01*
X0008189Y0301398D01*
X0008310Y0301516D01*
X0008434Y0301631D01*
X0008561Y0301743D01*
X0008690Y0301852D01*
X0008822Y0301958D01*
X0008957Y0302060D01*
X0009094Y0302159D01*
X0009233Y0302255D01*
X0009375Y0302347D01*
X0009519Y0302436D01*
X0009665Y0302521D01*
X0009813Y0302602D01*
X0009963Y0302680D01*
X0010115Y0302754D01*
X0010269Y0302825D01*
X0010424Y0302892D01*
X0010581Y0302954D01*
X0010740Y0303013D01*
X0010900Y0303068D01*
X0011061Y0303119D01*
X0011223Y0303166D01*
X0011387Y0303210D01*
X0011551Y0303249D01*
X0011717Y0303284D01*
X0011883Y0303315D01*
X0012050Y0303341D01*
X0012218Y0303364D01*
X0012386Y0303383D01*
X0012554Y0303397D01*
X0012723Y0303408D01*
X0012892Y0303414D01*
X0013061Y0303416D01*
X0013230Y0303414D01*
X0013399Y0303408D01*
X0013568Y0303397D01*
X0013736Y0303383D01*
X0013904Y0303364D01*
X0014072Y0303341D01*
X0014239Y0303315D01*
X0014405Y0303284D01*
X0014571Y0303249D01*
X0014735Y0303210D01*
X0014899Y0303166D01*
X0015061Y0303119D01*
X0015222Y0303068D01*
X0015382Y0303013D01*
X0015541Y0302954D01*
X0015698Y0302892D01*
X0015853Y0302825D01*
X0016007Y0302754D01*
X0016159Y0302680D01*
X0016309Y0302602D01*
X0016457Y0302521D01*
X0016603Y0302436D01*
X0016747Y0302347D01*
X0016889Y0302255D01*
X0017028Y0302159D01*
X0017165Y0302060D01*
X0017300Y0301958D01*
X0017432Y0301852D01*
X0017561Y0301743D01*
X0017688Y0301631D01*
X0017812Y0301516D01*
X0017933Y0301398D01*
X0018051Y0301277D01*
X0018166Y0301153D01*
X0018278Y0301026D01*
X0018387Y0300897D01*
X0018493Y0300765D01*
X0018595Y0300630D01*
X0018694Y0300493D01*
X0018790Y0300354D01*
X0018882Y0300212D01*
X0018971Y0300068D01*
X0019056Y0299922D01*
X0019137Y0299774D01*
X0019215Y0299624D01*
X0019289Y0299472D01*
X0019360Y0299318D01*
X0019427Y0299163D01*
X0019489Y0299006D01*
X0019548Y0298847D01*
X0019603Y0298687D01*
X0019654Y0298526D01*
X0019701Y0298364D01*
X0019745Y0298200D01*
X0019784Y0298036D01*
X0019819Y0297870D01*
X0019850Y0297704D01*
X0019876Y0297537D01*
X0019899Y0297369D01*
X0019918Y0297201D01*
X0019932Y0297033D01*
X0019943Y0296864D01*
X0019949Y0296695D01*
X0019951Y0296526D01*
X0019949Y0296357D01*
X0019943Y0296188D01*
X0019932Y0296019D01*
X0019918Y0295851D01*
X0019899Y0295683D01*
X0019876Y0295515D01*
X0019850Y0295348D01*
X0019819Y0295182D01*
X0019784Y0295016D01*
X0019745Y0294852D01*
X0019701Y0294688D01*
X0019654Y0294526D01*
X0019603Y0294365D01*
X0019548Y0294205D01*
X0019489Y0294046D01*
X0019427Y0293889D01*
X0019360Y0293734D01*
X0019289Y0293580D01*
X0019215Y0293428D01*
X0019137Y0293278D01*
X0019056Y0293130D01*
X0018971Y0292984D01*
X0018882Y0292840D01*
X0018790Y0292698D01*
X0018694Y0292559D01*
X0018595Y0292422D01*
X0018493Y0292287D01*
X0018387Y0292155D01*
X0018278Y0292026D01*
X0018166Y0291899D01*
X0018051Y0291775D01*
X0017933Y0291654D01*
X0017812Y0291536D01*
X0017688Y0291421D01*
X0017561Y0291309D01*
X0017432Y0291200D01*
X0017300Y0291094D01*
X0017165Y0290992D01*
X0017028Y0290893D01*
X0016889Y0290797D01*
X0016747Y0290705D01*
X0016603Y0290616D01*
X0016457Y0290531D01*
X0016309Y0290450D01*
X0016159Y0290372D01*
X0016007Y0290298D01*
X0015853Y0290227D01*
X0015698Y0290160D01*
X0015541Y0290098D01*
X0015382Y0290039D01*
X0015222Y0289984D01*
X0015061Y0289933D01*
X0014899Y0289886D01*
X0014735Y0289842D01*
X0014571Y0289803D01*
X0014405Y0289768D01*
X0014239Y0289737D01*
X0014072Y0289711D01*
X0013904Y0289688D01*
X0013736Y0289669D01*
X0013568Y0289655D01*
X0013399Y0289644D01*
X0013230Y0289638D01*
X0013061Y0289636D01*
X0012892Y0289638D01*
X0012723Y0289644D01*
X0012554Y0289655D01*
X0012386Y0289669D01*
X0012218Y0289688D01*
X0012050Y0289711D01*
X0011883Y0289737D01*
X0011717Y0289768D01*
X0011551Y0289803D01*
X0011387Y0289842D01*
X0011223Y0289886D01*
X0011061Y0289933D01*
X0010900Y0289984D01*
X0010740Y0290039D01*
X0010581Y0290098D01*
X0010424Y0290160D01*
X0010269Y0290227D01*
X0010115Y0290298D01*
X0009963Y0290372D01*
X0009813Y0290450D01*
X0009665Y0290531D01*
X0009519Y0290616D01*
X0009375Y0290705D01*
X0009233Y0290797D01*
X0009094Y0290893D01*
X0008957Y0290992D01*
X0008822Y0291094D01*
X0008690Y0291200D01*
X0008561Y0291309D01*
X0008434Y0291421D01*
X0008310Y0291536D01*
X0008189Y0291654D01*
X0008071Y0291775D01*
X0007956Y0291899D01*
X0007844Y0292026D01*
X0007735Y0292155D01*
X0007629Y0292287D01*
X0007527Y0292422D01*
X0007428Y0292559D01*
X0007332Y0292698D01*
X0007240Y0292840D01*
X0007151Y0292984D01*
X0007066Y0293130D01*
X0006985Y0293278D01*
X0006907Y0293428D01*
X0006833Y0293580D01*
X0006762Y0293734D01*
X0006695Y0293889D01*
X0006633Y0294046D01*
X0006574Y0294205D01*
X0006519Y0294365D01*
X0006468Y0294526D01*
X0006421Y0294688D01*
X0006377Y0294852D01*
X0006338Y0295016D01*
X0006303Y0295182D01*
X0006272Y0295348D01*
X0006246Y0295515D01*
X0006223Y0295683D01*
X0006204Y0295851D01*
X0006190Y0296019D01*
X0006179Y0296188D01*
X0006173Y0296357D01*
X0006171Y0296526D01*
X0340817Y0296526D02*
X0340819Y0296695D01*
X0340825Y0296864D01*
X0340836Y0297033D01*
X0340850Y0297201D01*
X0340869Y0297369D01*
X0340892Y0297537D01*
X0340918Y0297704D01*
X0340949Y0297870D01*
X0340984Y0298036D01*
X0341023Y0298200D01*
X0341067Y0298364D01*
X0341114Y0298526D01*
X0341165Y0298687D01*
X0341220Y0298847D01*
X0341279Y0299006D01*
X0341341Y0299163D01*
X0341408Y0299318D01*
X0341479Y0299472D01*
X0341553Y0299624D01*
X0341631Y0299774D01*
X0341712Y0299922D01*
X0341797Y0300068D01*
X0341886Y0300212D01*
X0341978Y0300354D01*
X0342074Y0300493D01*
X0342173Y0300630D01*
X0342275Y0300765D01*
X0342381Y0300897D01*
X0342490Y0301026D01*
X0342602Y0301153D01*
X0342717Y0301277D01*
X0342835Y0301398D01*
X0342956Y0301516D01*
X0343080Y0301631D01*
X0343207Y0301743D01*
X0343336Y0301852D01*
X0343468Y0301958D01*
X0343603Y0302060D01*
X0343740Y0302159D01*
X0343879Y0302255D01*
X0344021Y0302347D01*
X0344165Y0302436D01*
X0344311Y0302521D01*
X0344459Y0302602D01*
X0344609Y0302680D01*
X0344761Y0302754D01*
X0344915Y0302825D01*
X0345070Y0302892D01*
X0345227Y0302954D01*
X0345386Y0303013D01*
X0345546Y0303068D01*
X0345707Y0303119D01*
X0345869Y0303166D01*
X0346033Y0303210D01*
X0346197Y0303249D01*
X0346363Y0303284D01*
X0346529Y0303315D01*
X0346696Y0303341D01*
X0346864Y0303364D01*
X0347032Y0303383D01*
X0347200Y0303397D01*
X0347369Y0303408D01*
X0347538Y0303414D01*
X0347707Y0303416D01*
X0347876Y0303414D01*
X0348045Y0303408D01*
X0348214Y0303397D01*
X0348382Y0303383D01*
X0348550Y0303364D01*
X0348718Y0303341D01*
X0348885Y0303315D01*
X0349051Y0303284D01*
X0349217Y0303249D01*
X0349381Y0303210D01*
X0349545Y0303166D01*
X0349707Y0303119D01*
X0349868Y0303068D01*
X0350028Y0303013D01*
X0350187Y0302954D01*
X0350344Y0302892D01*
X0350499Y0302825D01*
X0350653Y0302754D01*
X0350805Y0302680D01*
X0350955Y0302602D01*
X0351103Y0302521D01*
X0351249Y0302436D01*
X0351393Y0302347D01*
X0351535Y0302255D01*
X0351674Y0302159D01*
X0351811Y0302060D01*
X0351946Y0301958D01*
X0352078Y0301852D01*
X0352207Y0301743D01*
X0352334Y0301631D01*
X0352458Y0301516D01*
X0352579Y0301398D01*
X0352697Y0301277D01*
X0352812Y0301153D01*
X0352924Y0301026D01*
X0353033Y0300897D01*
X0353139Y0300765D01*
X0353241Y0300630D01*
X0353340Y0300493D01*
X0353436Y0300354D01*
X0353528Y0300212D01*
X0353617Y0300068D01*
X0353702Y0299922D01*
X0353783Y0299774D01*
X0353861Y0299624D01*
X0353935Y0299472D01*
X0354006Y0299318D01*
X0354073Y0299163D01*
X0354135Y0299006D01*
X0354194Y0298847D01*
X0354249Y0298687D01*
X0354300Y0298526D01*
X0354347Y0298364D01*
X0354391Y0298200D01*
X0354430Y0298036D01*
X0354465Y0297870D01*
X0354496Y0297704D01*
X0354522Y0297537D01*
X0354545Y0297369D01*
X0354564Y0297201D01*
X0354578Y0297033D01*
X0354589Y0296864D01*
X0354595Y0296695D01*
X0354597Y0296526D01*
X0354595Y0296357D01*
X0354589Y0296188D01*
X0354578Y0296019D01*
X0354564Y0295851D01*
X0354545Y0295683D01*
X0354522Y0295515D01*
X0354496Y0295348D01*
X0354465Y0295182D01*
X0354430Y0295016D01*
X0354391Y0294852D01*
X0354347Y0294688D01*
X0354300Y0294526D01*
X0354249Y0294365D01*
X0354194Y0294205D01*
X0354135Y0294046D01*
X0354073Y0293889D01*
X0354006Y0293734D01*
X0353935Y0293580D01*
X0353861Y0293428D01*
X0353783Y0293278D01*
X0353702Y0293130D01*
X0353617Y0292984D01*
X0353528Y0292840D01*
X0353436Y0292698D01*
X0353340Y0292559D01*
X0353241Y0292422D01*
X0353139Y0292287D01*
X0353033Y0292155D01*
X0352924Y0292026D01*
X0352812Y0291899D01*
X0352697Y0291775D01*
X0352579Y0291654D01*
X0352458Y0291536D01*
X0352334Y0291421D01*
X0352207Y0291309D01*
X0352078Y0291200D01*
X0351946Y0291094D01*
X0351811Y0290992D01*
X0351674Y0290893D01*
X0351535Y0290797D01*
X0351393Y0290705D01*
X0351249Y0290616D01*
X0351103Y0290531D01*
X0350955Y0290450D01*
X0350805Y0290372D01*
X0350653Y0290298D01*
X0350499Y0290227D01*
X0350344Y0290160D01*
X0350187Y0290098D01*
X0350028Y0290039D01*
X0349868Y0289984D01*
X0349707Y0289933D01*
X0349545Y0289886D01*
X0349381Y0289842D01*
X0349217Y0289803D01*
X0349051Y0289768D01*
X0348885Y0289737D01*
X0348718Y0289711D01*
X0348550Y0289688D01*
X0348382Y0289669D01*
X0348214Y0289655D01*
X0348045Y0289644D01*
X0347876Y0289638D01*
X0347707Y0289636D01*
X0347538Y0289638D01*
X0347369Y0289644D01*
X0347200Y0289655D01*
X0347032Y0289669D01*
X0346864Y0289688D01*
X0346696Y0289711D01*
X0346529Y0289737D01*
X0346363Y0289768D01*
X0346197Y0289803D01*
X0346033Y0289842D01*
X0345869Y0289886D01*
X0345707Y0289933D01*
X0345546Y0289984D01*
X0345386Y0290039D01*
X0345227Y0290098D01*
X0345070Y0290160D01*
X0344915Y0290227D01*
X0344761Y0290298D01*
X0344609Y0290372D01*
X0344459Y0290450D01*
X0344311Y0290531D01*
X0344165Y0290616D01*
X0344021Y0290705D01*
X0343879Y0290797D01*
X0343740Y0290893D01*
X0343603Y0290992D01*
X0343468Y0291094D01*
X0343336Y0291200D01*
X0343207Y0291309D01*
X0343080Y0291421D01*
X0342956Y0291536D01*
X0342835Y0291654D01*
X0342717Y0291775D01*
X0342602Y0291899D01*
X0342490Y0292026D01*
X0342381Y0292155D01*
X0342275Y0292287D01*
X0342173Y0292422D01*
X0342074Y0292559D01*
X0341978Y0292698D01*
X0341886Y0292840D01*
X0341797Y0292984D01*
X0341712Y0293130D01*
X0341631Y0293278D01*
X0341553Y0293428D01*
X0341479Y0293580D01*
X0341408Y0293734D01*
X0341341Y0293889D01*
X0341279Y0294046D01*
X0341220Y0294205D01*
X0341165Y0294365D01*
X0341114Y0294526D01*
X0341067Y0294688D01*
X0341023Y0294852D01*
X0340984Y0295016D01*
X0340949Y0295182D01*
X0340918Y0295348D01*
X0340892Y0295515D01*
X0340869Y0295683D01*
X0340850Y0295851D01*
X0340836Y0296019D01*
X0340825Y0296188D01*
X0340819Y0296357D01*
X0340817Y0296526D01*
X0340817Y0013061D02*
X0340819Y0013230D01*
X0340825Y0013399D01*
X0340836Y0013568D01*
X0340850Y0013736D01*
X0340869Y0013904D01*
X0340892Y0014072D01*
X0340918Y0014239D01*
X0340949Y0014405D01*
X0340984Y0014571D01*
X0341023Y0014735D01*
X0341067Y0014899D01*
X0341114Y0015061D01*
X0341165Y0015222D01*
X0341220Y0015382D01*
X0341279Y0015541D01*
X0341341Y0015698D01*
X0341408Y0015853D01*
X0341479Y0016007D01*
X0341553Y0016159D01*
X0341631Y0016309D01*
X0341712Y0016457D01*
X0341797Y0016603D01*
X0341886Y0016747D01*
X0341978Y0016889D01*
X0342074Y0017028D01*
X0342173Y0017165D01*
X0342275Y0017300D01*
X0342381Y0017432D01*
X0342490Y0017561D01*
X0342602Y0017688D01*
X0342717Y0017812D01*
X0342835Y0017933D01*
X0342956Y0018051D01*
X0343080Y0018166D01*
X0343207Y0018278D01*
X0343336Y0018387D01*
X0343468Y0018493D01*
X0343603Y0018595D01*
X0343740Y0018694D01*
X0343879Y0018790D01*
X0344021Y0018882D01*
X0344165Y0018971D01*
X0344311Y0019056D01*
X0344459Y0019137D01*
X0344609Y0019215D01*
X0344761Y0019289D01*
X0344915Y0019360D01*
X0345070Y0019427D01*
X0345227Y0019489D01*
X0345386Y0019548D01*
X0345546Y0019603D01*
X0345707Y0019654D01*
X0345869Y0019701D01*
X0346033Y0019745D01*
X0346197Y0019784D01*
X0346363Y0019819D01*
X0346529Y0019850D01*
X0346696Y0019876D01*
X0346864Y0019899D01*
X0347032Y0019918D01*
X0347200Y0019932D01*
X0347369Y0019943D01*
X0347538Y0019949D01*
X0347707Y0019951D01*
X0347876Y0019949D01*
X0348045Y0019943D01*
X0348214Y0019932D01*
X0348382Y0019918D01*
X0348550Y0019899D01*
X0348718Y0019876D01*
X0348885Y0019850D01*
X0349051Y0019819D01*
X0349217Y0019784D01*
X0349381Y0019745D01*
X0349545Y0019701D01*
X0349707Y0019654D01*
X0349868Y0019603D01*
X0350028Y0019548D01*
X0350187Y0019489D01*
X0350344Y0019427D01*
X0350499Y0019360D01*
X0350653Y0019289D01*
X0350805Y0019215D01*
X0350955Y0019137D01*
X0351103Y0019056D01*
X0351249Y0018971D01*
X0351393Y0018882D01*
X0351535Y0018790D01*
X0351674Y0018694D01*
X0351811Y0018595D01*
X0351946Y0018493D01*
X0352078Y0018387D01*
X0352207Y0018278D01*
X0352334Y0018166D01*
X0352458Y0018051D01*
X0352579Y0017933D01*
X0352697Y0017812D01*
X0352812Y0017688D01*
X0352924Y0017561D01*
X0353033Y0017432D01*
X0353139Y0017300D01*
X0353241Y0017165D01*
X0353340Y0017028D01*
X0353436Y0016889D01*
X0353528Y0016747D01*
X0353617Y0016603D01*
X0353702Y0016457D01*
X0353783Y0016309D01*
X0353861Y0016159D01*
X0353935Y0016007D01*
X0354006Y0015853D01*
X0354073Y0015698D01*
X0354135Y0015541D01*
X0354194Y0015382D01*
X0354249Y0015222D01*
X0354300Y0015061D01*
X0354347Y0014899D01*
X0354391Y0014735D01*
X0354430Y0014571D01*
X0354465Y0014405D01*
X0354496Y0014239D01*
X0354522Y0014072D01*
X0354545Y0013904D01*
X0354564Y0013736D01*
X0354578Y0013568D01*
X0354589Y0013399D01*
X0354595Y0013230D01*
X0354597Y0013061D01*
X0354595Y0012892D01*
X0354589Y0012723D01*
X0354578Y0012554D01*
X0354564Y0012386D01*
X0354545Y0012218D01*
X0354522Y0012050D01*
X0354496Y0011883D01*
X0354465Y0011717D01*
X0354430Y0011551D01*
X0354391Y0011387D01*
X0354347Y0011223D01*
X0354300Y0011061D01*
X0354249Y0010900D01*
X0354194Y0010740D01*
X0354135Y0010581D01*
X0354073Y0010424D01*
X0354006Y0010269D01*
X0353935Y0010115D01*
X0353861Y0009963D01*
X0353783Y0009813D01*
X0353702Y0009665D01*
X0353617Y0009519D01*
X0353528Y0009375D01*
X0353436Y0009233D01*
X0353340Y0009094D01*
X0353241Y0008957D01*
X0353139Y0008822D01*
X0353033Y0008690D01*
X0352924Y0008561D01*
X0352812Y0008434D01*
X0352697Y0008310D01*
X0352579Y0008189D01*
X0352458Y0008071D01*
X0352334Y0007956D01*
X0352207Y0007844D01*
X0352078Y0007735D01*
X0351946Y0007629D01*
X0351811Y0007527D01*
X0351674Y0007428D01*
X0351535Y0007332D01*
X0351393Y0007240D01*
X0351249Y0007151D01*
X0351103Y0007066D01*
X0350955Y0006985D01*
X0350805Y0006907D01*
X0350653Y0006833D01*
X0350499Y0006762D01*
X0350344Y0006695D01*
X0350187Y0006633D01*
X0350028Y0006574D01*
X0349868Y0006519D01*
X0349707Y0006468D01*
X0349545Y0006421D01*
X0349381Y0006377D01*
X0349217Y0006338D01*
X0349051Y0006303D01*
X0348885Y0006272D01*
X0348718Y0006246D01*
X0348550Y0006223D01*
X0348382Y0006204D01*
X0348214Y0006190D01*
X0348045Y0006179D01*
X0347876Y0006173D01*
X0347707Y0006171D01*
X0347538Y0006173D01*
X0347369Y0006179D01*
X0347200Y0006190D01*
X0347032Y0006204D01*
X0346864Y0006223D01*
X0346696Y0006246D01*
X0346529Y0006272D01*
X0346363Y0006303D01*
X0346197Y0006338D01*
X0346033Y0006377D01*
X0345869Y0006421D01*
X0345707Y0006468D01*
X0345546Y0006519D01*
X0345386Y0006574D01*
X0345227Y0006633D01*
X0345070Y0006695D01*
X0344915Y0006762D01*
X0344761Y0006833D01*
X0344609Y0006907D01*
X0344459Y0006985D01*
X0344311Y0007066D01*
X0344165Y0007151D01*
X0344021Y0007240D01*
X0343879Y0007332D01*
X0343740Y0007428D01*
X0343603Y0007527D01*
X0343468Y0007629D01*
X0343336Y0007735D01*
X0343207Y0007844D01*
X0343080Y0007956D01*
X0342956Y0008071D01*
X0342835Y0008189D01*
X0342717Y0008310D01*
X0342602Y0008434D01*
X0342490Y0008561D01*
X0342381Y0008690D01*
X0342275Y0008822D01*
X0342173Y0008957D01*
X0342074Y0009094D01*
X0341978Y0009233D01*
X0341886Y0009375D01*
X0341797Y0009519D01*
X0341712Y0009665D01*
X0341631Y0009813D01*
X0341553Y0009963D01*
X0341479Y0010115D01*
X0341408Y0010269D01*
X0341341Y0010424D01*
X0341279Y0010581D01*
X0341220Y0010740D01*
X0341165Y0010900D01*
X0341114Y0011061D01*
X0341067Y0011223D01*
X0341023Y0011387D01*
X0340984Y0011551D01*
X0340949Y0011717D01*
X0340918Y0011883D01*
X0340892Y0012050D01*
X0340869Y0012218D01*
X0340850Y0012386D01*
X0340836Y0012554D01*
X0340825Y0012723D01*
X0340819Y0012892D01*
X0340817Y0013061D01*
M02*
