G75*
%MOIN*%
%OFA0B0*%
%FSLAX25Y25*%
%IPPOS*%
%LPD*%
%AMOC8*
5,1,8,0,0,1.08239X$1,22.5*
%
%ADD10R,0.20500X0.40500*%
%ADD11R,0.05224X0.02665*%
%ADD12R,0.13098X0.07587*%
%ADD13R,0.29500X0.16500*%
%ADD14R,0.15500X0.19000*%
%ADD15R,0.21500X0.22500*%
%ADD16C,0.10500*%
%ADD17R,0.07587X0.13098*%
%ADD18R,0.04437X0.04831*%
%ADD19R,0.04831X0.04437*%
%ADD20R,0.01681X0.06406*%
%ADD21R,0.02165X0.06102*%
%ADD22C,0.06500*%
%ADD23R,0.02862X0.03256*%
%ADD24C,0.09949*%
%ADD25C,0.14280*%
%ADD26C,0.16155*%
%ADD27R,0.02862X0.09161*%
%ADD28R,0.03453X0.05618*%
%ADD29R,0.19398X0.19004*%
%ADD30R,0.05618X0.03453*%
%ADD31R,0.19004X0.19398*%
%ADD32R,0.03650X0.02862*%
%ADD33R,0.06799X0.06406*%
%ADD34R,0.05224X0.05224*%
%ADD35OC8,0.10835*%
%ADD36R,0.40500X0.20500*%
%ADD37C,0.01331*%
%ADD38C,0.06406*%
%ADD39C,0.05224*%
%ADD40C,0.00100*%
%ADD41C,0.00000*%
%ADD42C,0.00001*%
%ADD43R,0.05028X0.06209*%
%ADD44R,0.18807X0.16839*%
%ADD45R,0.13492X0.09949*%
%ADD46R,0.09949X0.13492*%
%ADD47C,0.08100*%
%ADD48R,0.03256X0.04043*%
%ADD49C,0.07900*%
%ADD50R,0.07000X0.07000*%
%ADD51C,0.07000*%
D10*
X0019715Y0220738D03*
X0343770Y0187274D03*
X0343770Y0260108D03*
D11*
X0043770Y0152628D03*
X0043770Y0148888D03*
X0043770Y0145148D03*
X0033533Y0145148D03*
X0033533Y0152628D03*
D12*
X0048494Y0200856D03*
X0048494Y0222904D03*
D13*
X0095738Y0240880D03*
X0288652Y0240880D03*
D14*
X0309152Y0176630D03*
X0268152Y0176630D03*
X0116238Y0176630D03*
X0075238Y0176630D03*
D15*
X0172195Y0162824D03*
X0212195Y0162824D03*
D16*
X0261093Y0141998D03*
X0261093Y0112470D03*
X0098691Y0125266D03*
X0069163Y0125266D03*
D17*
X0303711Y0157254D03*
X0325758Y0157254D03*
D18*
X0325069Y0137470D03*
X0325069Y0130778D03*
X0332943Y0130778D03*
X0332943Y0137470D03*
X0214833Y0120738D03*
X0214833Y0114045D03*
X0161191Y0088750D03*
X0161191Y0082057D03*
X0042589Y0169163D03*
X0042589Y0175856D03*
X0034715Y0175856D03*
X0034715Y0169163D03*
X0026841Y0169163D03*
X0026841Y0175856D03*
X0018967Y0175856D03*
X0018967Y0169163D03*
X0011093Y0169163D03*
X0011093Y0175856D03*
X0025856Y0152234D03*
X0025856Y0145541D03*
X0021919Y0134518D03*
X0021919Y0127825D03*
X0030778Y0127825D03*
X0030778Y0134518D03*
X0039636Y0134518D03*
X0039636Y0127825D03*
X0012077Y0127825D03*
X0012077Y0134518D03*
D19*
X0014596Y0113140D03*
X0021289Y0113140D03*
X0021289Y0106093D03*
X0014596Y0106093D03*
X0014596Y0099045D03*
X0021289Y0099045D03*
X0021289Y0091998D03*
X0014596Y0091998D03*
X0035305Y0160699D03*
X0041998Y0160699D03*
X0175817Y0146250D03*
X0182510Y0146250D03*
X0198927Y0146801D03*
X0205620Y0146801D03*
X0193573Y0099675D03*
X0186880Y0099675D03*
X0303494Y0012746D03*
X0310187Y0012746D03*
X0316526Y0012746D03*
X0323219Y0012746D03*
X0325659Y0116407D03*
X0332352Y0116407D03*
X0332352Y0124297D03*
X0325659Y0124297D03*
X0286093Y0262077D03*
X0279400Y0262077D03*
D20*
X0339833Y0136093D03*
X0341801Y0136093D03*
X0343770Y0136093D03*
X0345738Y0136093D03*
X0347707Y0136093D03*
X0347707Y0118376D03*
X0345738Y0118376D03*
X0343770Y0118376D03*
X0341801Y0118376D03*
X0339833Y0118376D03*
D21*
X0017884Y0144163D03*
X0015325Y0144163D03*
X0012766Y0144163D03*
X0010207Y0144163D03*
X0010207Y0161486D03*
X0012766Y0161486D03*
X0015325Y0161486D03*
X0017884Y0161486D03*
D22*
X0083770Y0291951D02*
X0083770Y0297951D01*
X0093770Y0297951D02*
X0093770Y0291951D01*
X0103770Y0291951D02*
X0103770Y0297951D01*
X0266841Y0278620D02*
X0266841Y0272620D01*
X0276841Y0272620D02*
X0276841Y0278620D01*
X0286841Y0278620D02*
X0286841Y0272620D01*
D23*
X0285541Y0255187D03*
X0279911Y0255187D03*
D24*
X0233533Y0272904D03*
X0233533Y0294557D03*
X0202037Y0294557D03*
X0202037Y0272904D03*
X0170541Y0272904D03*
X0170541Y0294557D03*
X0139045Y0294557D03*
X0139045Y0272904D03*
X0044557Y0068179D03*
X0022904Y0068179D03*
X0022904Y0036683D03*
X0044557Y0036683D03*
D25*
X0013061Y0013061D03*
X0013061Y0296526D03*
X0347707Y0296526D03*
X0347707Y0013061D03*
D26*
X0013061Y0013061D03*
X0013061Y0296526D03*
X0347707Y0296526D03*
X0347707Y0013061D03*
D27*
X0207746Y0112904D03*
X0202746Y0112904D03*
X0197746Y0112904D03*
X0192746Y0112904D03*
X0187746Y0112904D03*
X0182746Y0112904D03*
X0177746Y0112904D03*
X0177746Y0133376D03*
X0182746Y0133376D03*
X0187746Y0133376D03*
X0192746Y0133376D03*
X0197746Y0133376D03*
X0202746Y0133376D03*
X0207746Y0133376D03*
D28*
X0168199Y0126388D03*
X0163199Y0126388D03*
X0158199Y0126388D03*
X0153199Y0126388D03*
X0146545Y0126545D03*
X0141545Y0126545D03*
X0136545Y0126545D03*
X0131545Y0126545D03*
X0131545Y0104301D03*
X0136545Y0104301D03*
X0141545Y0104301D03*
X0146545Y0104301D03*
X0153199Y0104144D03*
X0158199Y0104144D03*
X0163199Y0104144D03*
X0168199Y0104144D03*
D29*
X0160699Y0118120D03*
X0139045Y0118278D03*
D30*
X0130876Y0155167D03*
X0130876Y0160167D03*
X0130876Y0165167D03*
X0130876Y0170167D03*
X0153120Y0170167D03*
X0153120Y0165167D03*
X0153120Y0160167D03*
X0153120Y0155167D03*
D31*
X0139144Y0162667D03*
D32*
X0187274Y0153691D03*
X0197116Y0153691D03*
D33*
X0190226Y0080187D03*
D34*
X0186289Y0089439D03*
X0194163Y0089439D03*
D35*
X0336880Y0163770D03*
X0350266Y0163770D03*
X0350266Y0216801D03*
X0336880Y0216801D03*
X0026447Y0198219D03*
X0013061Y0198219D03*
X0013061Y0251250D03*
X0026447Y0251250D03*
D36*
X0046526Y0293573D03*
D37*
X0035980Y0114693D02*
X0035980Y0111587D01*
X0032874Y0111587D01*
X0032874Y0114693D01*
X0035980Y0114693D01*
X0035980Y0112917D02*
X0032874Y0112917D01*
X0032874Y0114247D02*
X0035980Y0114247D01*
X0035980Y0107646D02*
X0035980Y0104540D01*
X0032874Y0104540D01*
X0032874Y0107646D01*
X0035980Y0107646D01*
X0035980Y0105870D02*
X0032874Y0105870D01*
X0032874Y0107200D02*
X0035980Y0107200D01*
X0029075Y0107646D02*
X0029075Y0104540D01*
X0025969Y0104540D01*
X0025969Y0107646D01*
X0029075Y0107646D01*
X0029075Y0105870D02*
X0025969Y0105870D01*
X0025969Y0107200D02*
X0029075Y0107200D01*
X0029075Y0111587D02*
X0029075Y0114693D01*
X0029075Y0111587D02*
X0025969Y0111587D01*
X0025969Y0114693D01*
X0029075Y0114693D01*
X0029075Y0112917D02*
X0025969Y0112917D01*
X0025969Y0114247D02*
X0029075Y0114247D01*
X0029075Y0100520D02*
X0029075Y0097414D01*
X0025969Y0097414D01*
X0025969Y0100520D01*
X0029075Y0100520D01*
X0029075Y0098744D02*
X0025969Y0098744D01*
X0025969Y0100074D02*
X0029075Y0100074D01*
X0035980Y0100520D02*
X0035980Y0097414D01*
X0032874Y0097414D01*
X0032874Y0100520D01*
X0035980Y0100520D01*
X0035980Y0098744D02*
X0032874Y0098744D01*
X0032874Y0100074D02*
X0035980Y0100074D01*
X0035980Y0093551D02*
X0035980Y0090445D01*
X0032874Y0090445D01*
X0032874Y0093551D01*
X0035980Y0093551D01*
X0035980Y0091775D02*
X0032874Y0091775D01*
X0032874Y0093105D02*
X0035980Y0093105D01*
X0029075Y0093551D02*
X0029075Y0090445D01*
X0025969Y0090445D01*
X0025969Y0093551D01*
X0029075Y0093551D01*
X0029075Y0091775D02*
X0025969Y0091775D01*
X0025969Y0093105D02*
X0029075Y0093105D01*
D38*
X0150856Y0047707D03*
X0150856Y0017785D03*
D39*
X0102628Y0037667D03*
X0102628Y0047667D03*
X0102628Y0057667D03*
X0102628Y0067667D03*
X0072628Y0067667D03*
X0072628Y0057667D03*
X0072628Y0047667D03*
X0072628Y0037667D03*
D40*
X0071726Y0024976D02*
X0068326Y0024976D01*
X0068326Y0021476D01*
X0071126Y0021476D01*
X0071977Y0021402D01*
X0072802Y0021181D01*
X0073576Y0020820D01*
X0074276Y0020330D01*
X0074880Y0019726D01*
X0075370Y0019026D01*
X0075731Y0018252D01*
X0075952Y0017427D01*
X0076026Y0016576D01*
X0076026Y0014776D01*
X0075953Y0013943D01*
X0075737Y0013135D01*
X0075383Y0012376D01*
X0074903Y0011691D01*
X0074312Y0011099D01*
X0073626Y0010619D01*
X0072868Y0010266D01*
X0072060Y0010049D01*
X0071226Y0009976D01*
X0068326Y0009976D01*
X0068326Y0006376D01*
X0070926Y0006376D01*
X0072303Y0006485D01*
X0073646Y0006807D01*
X0074921Y0007335D01*
X0076099Y0008057D01*
X0077149Y0008954D01*
X0078046Y0010004D01*
X0078767Y0011181D01*
X0079296Y0012457D01*
X0079618Y0013800D01*
X0079726Y0015176D01*
X0079726Y0016976D01*
X0079628Y0018228D01*
X0079335Y0019448D01*
X0078854Y0020608D01*
X0078198Y0021679D01*
X0077383Y0022633D01*
X0076429Y0023448D01*
X0075358Y0024104D01*
X0074198Y0024585D01*
X0072978Y0024878D01*
X0071726Y0024976D01*
X0072789Y0024893D02*
X0068326Y0024893D01*
X0064726Y0024893D01*
X0064726Y0024976D02*
X0068326Y0024976D01*
X0068326Y0006376D01*
X0064726Y0006376D01*
X0064726Y0024976D01*
X0064726Y0024794D02*
X0068326Y0024794D01*
X0073326Y0024794D01*
X0073736Y0024696D02*
X0068326Y0024696D01*
X0064726Y0024696D01*
X0064726Y0024597D02*
X0068326Y0024597D01*
X0074147Y0024597D01*
X0074406Y0024499D02*
X0068326Y0024499D01*
X0064726Y0024499D01*
X0064726Y0024400D02*
X0068326Y0024400D01*
X0074644Y0024400D01*
X0074882Y0024302D02*
X0068326Y0024302D01*
X0064726Y0024302D01*
X0064726Y0024203D02*
X0068326Y0024203D01*
X0075120Y0024203D01*
X0075358Y0024105D02*
X0068326Y0024105D01*
X0064726Y0024105D01*
X0064726Y0024006D02*
X0068326Y0024006D01*
X0075519Y0024006D01*
X0075679Y0023908D02*
X0068326Y0023908D01*
X0064726Y0023908D01*
X0064726Y0023809D02*
X0068326Y0023809D01*
X0075840Y0023809D01*
X0076001Y0023711D02*
X0068326Y0023711D01*
X0064726Y0023711D01*
X0064726Y0023612D02*
X0068326Y0023612D01*
X0076162Y0023612D01*
X0076322Y0023514D02*
X0068326Y0023514D01*
X0064726Y0023514D01*
X0064726Y0023415D02*
X0068326Y0023415D01*
X0076468Y0023415D01*
X0076583Y0023317D02*
X0068326Y0023317D01*
X0064726Y0023317D01*
X0064726Y0023218D02*
X0068326Y0023218D01*
X0076698Y0023218D01*
X0076814Y0023120D02*
X0068326Y0023120D01*
X0064726Y0023120D01*
X0064726Y0023021D02*
X0068326Y0023021D01*
X0076929Y0023021D01*
X0077044Y0022922D02*
X0068326Y0022922D01*
X0064726Y0022922D01*
X0064726Y0022824D02*
X0068326Y0022824D01*
X0077160Y0022824D01*
X0077275Y0022725D02*
X0068326Y0022725D01*
X0064726Y0022725D01*
X0064726Y0022627D02*
X0068326Y0022627D01*
X0077388Y0022627D01*
X0077473Y0022528D02*
X0068326Y0022528D01*
X0064726Y0022528D01*
X0064726Y0022430D02*
X0068326Y0022430D01*
X0077557Y0022430D01*
X0077641Y0022331D02*
X0068326Y0022331D01*
X0064726Y0022331D01*
X0064726Y0022233D02*
X0068326Y0022233D01*
X0077725Y0022233D01*
X0077809Y0022134D02*
X0068326Y0022134D01*
X0064726Y0022134D01*
X0064726Y0022036D02*
X0068326Y0022036D01*
X0077893Y0022036D01*
X0077977Y0021937D02*
X0068326Y0021937D01*
X0064726Y0021937D01*
X0064726Y0021839D02*
X0068326Y0021839D01*
X0078061Y0021839D01*
X0078146Y0021740D02*
X0068326Y0021740D01*
X0064726Y0021740D01*
X0064726Y0021642D02*
X0068326Y0021642D01*
X0078221Y0021642D01*
X0078281Y0021543D02*
X0068326Y0021543D01*
X0064726Y0021543D01*
X0064726Y0021445D02*
X0068326Y0021445D01*
X0068326Y0021346D02*
X0064726Y0021346D01*
X0064726Y0021248D02*
X0068326Y0021248D01*
X0068326Y0021149D02*
X0064726Y0021149D01*
X0064726Y0021051D02*
X0068326Y0021051D01*
X0068326Y0020952D02*
X0064726Y0020952D01*
X0064726Y0020854D02*
X0068326Y0020854D01*
X0068326Y0020755D02*
X0064726Y0020755D01*
X0064726Y0020657D02*
X0068326Y0020657D01*
X0068326Y0020558D02*
X0064726Y0020558D01*
X0064726Y0020460D02*
X0068326Y0020460D01*
X0068326Y0020361D02*
X0064726Y0020361D01*
X0064726Y0020263D02*
X0068326Y0020263D01*
X0068326Y0020164D02*
X0064726Y0020164D01*
X0064726Y0020066D02*
X0068326Y0020066D01*
X0068326Y0019967D02*
X0064726Y0019967D01*
X0064726Y0019869D02*
X0068326Y0019869D01*
X0068326Y0019770D02*
X0064726Y0019770D01*
X0064726Y0019672D02*
X0068326Y0019672D01*
X0068326Y0019573D02*
X0064726Y0019573D01*
X0064726Y0019475D02*
X0068326Y0019475D01*
X0068326Y0019376D02*
X0064726Y0019376D01*
X0064726Y0019278D02*
X0068326Y0019278D01*
X0068326Y0019179D02*
X0064726Y0019179D01*
X0064726Y0019081D02*
X0068326Y0019081D01*
X0068326Y0018982D02*
X0064726Y0018982D01*
X0064726Y0018884D02*
X0068326Y0018884D01*
X0068326Y0018785D02*
X0064726Y0018785D01*
X0064726Y0018687D02*
X0068326Y0018687D01*
X0068326Y0018588D02*
X0064726Y0018588D01*
X0064726Y0018489D02*
X0068326Y0018489D01*
X0068326Y0018391D02*
X0064726Y0018391D01*
X0064726Y0018292D02*
X0068326Y0018292D01*
X0068326Y0018194D02*
X0064726Y0018194D01*
X0064726Y0018095D02*
X0068326Y0018095D01*
X0068326Y0017997D02*
X0064726Y0017997D01*
X0064726Y0017898D02*
X0068326Y0017898D01*
X0068326Y0017800D02*
X0064726Y0017800D01*
X0064726Y0017701D02*
X0068326Y0017701D01*
X0068326Y0017603D02*
X0064726Y0017603D01*
X0064726Y0017504D02*
X0068326Y0017504D01*
X0068326Y0017406D02*
X0064726Y0017406D01*
X0064726Y0017307D02*
X0068326Y0017307D01*
X0068326Y0017209D02*
X0064726Y0017209D01*
X0064726Y0017110D02*
X0068326Y0017110D01*
X0068326Y0017012D02*
X0064726Y0017012D01*
X0064726Y0016913D02*
X0068326Y0016913D01*
X0068326Y0016815D02*
X0064726Y0016815D01*
X0064726Y0016716D02*
X0068326Y0016716D01*
X0068326Y0016618D02*
X0064726Y0016618D01*
X0064726Y0016519D02*
X0068326Y0016519D01*
X0068326Y0016421D02*
X0064726Y0016421D01*
X0064726Y0016322D02*
X0068326Y0016322D01*
X0068326Y0016224D02*
X0064726Y0016224D01*
X0064726Y0016125D02*
X0068326Y0016125D01*
X0068326Y0016027D02*
X0064726Y0016027D01*
X0064726Y0015928D02*
X0068326Y0015928D01*
X0068326Y0015830D02*
X0064726Y0015830D01*
X0064726Y0015731D02*
X0068326Y0015731D01*
X0068326Y0015633D02*
X0064726Y0015633D01*
X0064726Y0015534D02*
X0068326Y0015534D01*
X0068326Y0015436D02*
X0064726Y0015436D01*
X0064726Y0015337D02*
X0068326Y0015337D01*
X0068326Y0015239D02*
X0064726Y0015239D01*
X0064726Y0015140D02*
X0068326Y0015140D01*
X0068326Y0015042D02*
X0064726Y0015042D01*
X0064726Y0014943D02*
X0068326Y0014943D01*
X0068326Y0014845D02*
X0064726Y0014845D01*
X0064726Y0014746D02*
X0068326Y0014746D01*
X0068326Y0014648D02*
X0064726Y0014648D01*
X0064726Y0014549D02*
X0068326Y0014549D01*
X0068326Y0014451D02*
X0064726Y0014451D01*
X0064726Y0014352D02*
X0068326Y0014352D01*
X0068326Y0014253D02*
X0064726Y0014253D01*
X0064726Y0014155D02*
X0068326Y0014155D01*
X0068326Y0014056D02*
X0064726Y0014056D01*
X0064726Y0013958D02*
X0068326Y0013958D01*
X0068326Y0013859D02*
X0064726Y0013859D01*
X0064726Y0013761D02*
X0068326Y0013761D01*
X0068326Y0013662D02*
X0064726Y0013662D01*
X0064726Y0013564D02*
X0068326Y0013564D01*
X0068326Y0013465D02*
X0064726Y0013465D01*
X0064726Y0013367D02*
X0068326Y0013367D01*
X0068326Y0013268D02*
X0064726Y0013268D01*
X0064726Y0013170D02*
X0068326Y0013170D01*
X0068326Y0013071D02*
X0064726Y0013071D01*
X0064726Y0012973D02*
X0068326Y0012973D01*
X0068326Y0012874D02*
X0064726Y0012874D01*
X0064726Y0012776D02*
X0068326Y0012776D01*
X0068326Y0012677D02*
X0064726Y0012677D01*
X0064726Y0012579D02*
X0068326Y0012579D01*
X0068326Y0012480D02*
X0064726Y0012480D01*
X0064726Y0012382D02*
X0068326Y0012382D01*
X0068326Y0012283D02*
X0064726Y0012283D01*
X0064726Y0012185D02*
X0068326Y0012185D01*
X0068326Y0012086D02*
X0064726Y0012086D01*
X0064726Y0011988D02*
X0068326Y0011988D01*
X0068326Y0011889D02*
X0064726Y0011889D01*
X0064726Y0011791D02*
X0068326Y0011791D01*
X0068326Y0011692D02*
X0064726Y0011692D01*
X0064726Y0011594D02*
X0068326Y0011594D01*
X0068326Y0011495D02*
X0064726Y0011495D01*
X0064726Y0011397D02*
X0068326Y0011397D01*
X0068326Y0011298D02*
X0064726Y0011298D01*
X0064726Y0011200D02*
X0068326Y0011200D01*
X0068326Y0011101D02*
X0064726Y0011101D01*
X0064726Y0011003D02*
X0068326Y0011003D01*
X0068326Y0010904D02*
X0064726Y0010904D01*
X0064726Y0010806D02*
X0068326Y0010806D01*
X0068326Y0010707D02*
X0064726Y0010707D01*
X0064726Y0010609D02*
X0068326Y0010609D01*
X0068326Y0010510D02*
X0064726Y0010510D01*
X0064726Y0010412D02*
X0068326Y0010412D01*
X0068326Y0010313D02*
X0064726Y0010313D01*
X0064726Y0010215D02*
X0068326Y0010215D01*
X0068326Y0010116D02*
X0064726Y0010116D01*
X0064726Y0010018D02*
X0068326Y0010018D01*
X0068326Y0009919D02*
X0077973Y0009919D01*
X0078054Y0010018D02*
X0071697Y0010018D01*
X0072309Y0010116D02*
X0078114Y0010116D01*
X0078175Y0010215D02*
X0072677Y0010215D01*
X0072969Y0010313D02*
X0078235Y0010313D01*
X0078295Y0010412D02*
X0073180Y0010412D01*
X0073392Y0010510D02*
X0078356Y0010510D01*
X0078416Y0010609D02*
X0073603Y0010609D01*
X0073751Y0010707D02*
X0078477Y0010707D01*
X0078537Y0010806D02*
X0073892Y0010806D01*
X0074033Y0010904D02*
X0078597Y0010904D01*
X0078658Y0011003D02*
X0074174Y0011003D01*
X0074313Y0011101D02*
X0078718Y0011101D01*
X0078775Y0011200D02*
X0074412Y0011200D01*
X0074510Y0011298D02*
X0078816Y0011298D01*
X0078856Y0011397D02*
X0074609Y0011397D01*
X0074707Y0011495D02*
X0078897Y0011495D01*
X0078938Y0011594D02*
X0074806Y0011594D01*
X0074904Y0011692D02*
X0078979Y0011692D01*
X0079020Y0011791D02*
X0074973Y0011791D01*
X0075042Y0011889D02*
X0079060Y0011889D01*
X0079101Y0011988D02*
X0075111Y0011988D01*
X0075180Y0012086D02*
X0079142Y0012086D01*
X0079183Y0012185D02*
X0075249Y0012185D01*
X0075318Y0012283D02*
X0079224Y0012283D01*
X0079264Y0012382D02*
X0075386Y0012382D01*
X0075432Y0012480D02*
X0079301Y0012480D01*
X0079325Y0012579D02*
X0075478Y0012579D01*
X0075524Y0012677D02*
X0079348Y0012677D01*
X0079372Y0012776D02*
X0075569Y0012776D01*
X0075615Y0012874D02*
X0079396Y0012874D01*
X0079419Y0012973D02*
X0075661Y0012973D01*
X0075707Y0013071D02*
X0079443Y0013071D01*
X0079467Y0013170D02*
X0075746Y0013170D01*
X0075773Y0013268D02*
X0079490Y0013268D01*
X0079514Y0013367D02*
X0075799Y0013367D01*
X0075825Y0013465D02*
X0079538Y0013465D01*
X0079561Y0013564D02*
X0075852Y0013564D01*
X0075878Y0013662D02*
X0079585Y0013662D01*
X0079609Y0013761D02*
X0075905Y0013761D01*
X0075931Y0013859D02*
X0079623Y0013859D01*
X0079630Y0013958D02*
X0075955Y0013958D01*
X0075963Y0014056D02*
X0079638Y0014056D01*
X0079646Y0014155D02*
X0075972Y0014155D01*
X0075980Y0014253D02*
X0079654Y0014253D01*
X0079661Y0014352D02*
X0075989Y0014352D01*
X0075998Y0014451D02*
X0079669Y0014451D01*
X0079677Y0014549D02*
X0076006Y0014549D01*
X0076015Y0014648D02*
X0079685Y0014648D01*
X0079692Y0014746D02*
X0076024Y0014746D01*
X0076026Y0014845D02*
X0079700Y0014845D01*
X0079708Y0014943D02*
X0076026Y0014943D01*
X0076026Y0015042D02*
X0079716Y0015042D01*
X0079723Y0015140D02*
X0076026Y0015140D01*
X0076026Y0015239D02*
X0079726Y0015239D01*
X0079726Y0015337D02*
X0076026Y0015337D01*
X0076026Y0015436D02*
X0079726Y0015436D01*
X0079726Y0015534D02*
X0076026Y0015534D01*
X0076026Y0015633D02*
X0079726Y0015633D01*
X0079726Y0015731D02*
X0076026Y0015731D01*
X0076026Y0015830D02*
X0079726Y0015830D01*
X0079726Y0015928D02*
X0076026Y0015928D01*
X0076026Y0016027D02*
X0079726Y0016027D01*
X0079726Y0016125D02*
X0076026Y0016125D01*
X0076026Y0016224D02*
X0079726Y0016224D01*
X0079726Y0016322D02*
X0076026Y0016322D01*
X0076026Y0016421D02*
X0079726Y0016421D01*
X0079726Y0016519D02*
X0076026Y0016519D01*
X0076023Y0016618D02*
X0079726Y0016618D01*
X0079726Y0016716D02*
X0076014Y0016716D01*
X0076005Y0016815D02*
X0079726Y0016815D01*
X0079726Y0016913D02*
X0075997Y0016913D01*
X0075988Y0017012D02*
X0079723Y0017012D01*
X0079716Y0017110D02*
X0075980Y0017110D01*
X0075971Y0017209D02*
X0079708Y0017209D01*
X0079700Y0017307D02*
X0075962Y0017307D01*
X0075954Y0017406D02*
X0079692Y0017406D01*
X0079685Y0017504D02*
X0075931Y0017504D01*
X0075905Y0017603D02*
X0079677Y0017603D01*
X0079669Y0017701D02*
X0075878Y0017701D01*
X0075852Y0017800D02*
X0079661Y0017800D01*
X0079654Y0017898D02*
X0075826Y0017898D01*
X0075799Y0017997D02*
X0079646Y0017997D01*
X0079638Y0018095D02*
X0075773Y0018095D01*
X0075746Y0018194D02*
X0079630Y0018194D01*
X0079612Y0018292D02*
X0075712Y0018292D01*
X0075666Y0018391D02*
X0079589Y0018391D01*
X0079565Y0018489D02*
X0075620Y0018489D01*
X0075574Y0018588D02*
X0079541Y0018588D01*
X0079518Y0018687D02*
X0075528Y0018687D01*
X0075482Y0018785D02*
X0079494Y0018785D01*
X0079470Y0018884D02*
X0075436Y0018884D01*
X0075390Y0018982D02*
X0079447Y0018982D01*
X0079423Y0019081D02*
X0075332Y0019081D01*
X0075263Y0019179D02*
X0079399Y0019179D01*
X0079376Y0019278D02*
X0075194Y0019278D01*
X0075125Y0019376D02*
X0079352Y0019376D01*
X0079324Y0019475D02*
X0075056Y0019475D01*
X0074987Y0019573D02*
X0079283Y0019573D01*
X0079242Y0019672D02*
X0074918Y0019672D01*
X0074836Y0019770D02*
X0079201Y0019770D01*
X0079161Y0019869D02*
X0074737Y0019869D01*
X0074639Y0019967D02*
X0079120Y0019967D01*
X0079079Y0020066D02*
X0074540Y0020066D01*
X0074442Y0020164D02*
X0079038Y0020164D01*
X0078997Y0020263D02*
X0074343Y0020263D01*
X0074231Y0020361D02*
X0078957Y0020361D01*
X0078916Y0020460D02*
X0074091Y0020460D01*
X0073950Y0020558D02*
X0078875Y0020558D01*
X0078825Y0020657D02*
X0073809Y0020657D01*
X0073669Y0020755D02*
X0078764Y0020755D01*
X0078704Y0020854D02*
X0073504Y0020854D01*
X0073292Y0020952D02*
X0078643Y0020952D01*
X0078583Y0021051D02*
X0073081Y0021051D01*
X0072870Y0021149D02*
X0078523Y0021149D01*
X0078462Y0021248D02*
X0072552Y0021248D01*
X0072184Y0021346D02*
X0078402Y0021346D01*
X0078342Y0021445D02*
X0071486Y0021445D01*
X0068326Y0009919D02*
X0064726Y0009919D01*
X0064726Y0009820D02*
X0068326Y0009820D01*
X0077889Y0009820D01*
X0077805Y0009722D02*
X0068326Y0009722D01*
X0064726Y0009722D01*
X0064726Y0009623D02*
X0068326Y0009623D01*
X0077721Y0009623D01*
X0077637Y0009525D02*
X0068326Y0009525D01*
X0064726Y0009525D01*
X0064726Y0009426D02*
X0068326Y0009426D01*
X0077552Y0009426D01*
X0077468Y0009328D02*
X0068326Y0009328D01*
X0064726Y0009328D01*
X0064726Y0009229D02*
X0068326Y0009229D01*
X0077384Y0009229D01*
X0077300Y0009131D02*
X0068326Y0009131D01*
X0064726Y0009131D01*
X0064726Y0009032D02*
X0068326Y0009032D01*
X0077216Y0009032D01*
X0077125Y0008934D02*
X0068326Y0008934D01*
X0064726Y0008934D01*
X0064726Y0008835D02*
X0068326Y0008835D01*
X0077010Y0008835D01*
X0076895Y0008737D02*
X0068326Y0008737D01*
X0064726Y0008737D01*
X0064726Y0008638D02*
X0068326Y0008638D01*
X0076779Y0008638D01*
X0076664Y0008540D02*
X0068326Y0008540D01*
X0064726Y0008540D01*
X0064726Y0008441D02*
X0068326Y0008441D01*
X0076549Y0008441D01*
X0076433Y0008343D02*
X0068326Y0008343D01*
X0064726Y0008343D01*
X0064726Y0008244D02*
X0068326Y0008244D01*
X0076318Y0008244D01*
X0076203Y0008146D02*
X0068326Y0008146D01*
X0064726Y0008146D01*
X0064726Y0008047D02*
X0068326Y0008047D01*
X0076083Y0008047D01*
X0075922Y0007949D02*
X0068326Y0007949D01*
X0064726Y0007949D01*
X0064726Y0007850D02*
X0068326Y0007850D01*
X0075761Y0007850D01*
X0075601Y0007752D02*
X0068326Y0007752D01*
X0064726Y0007752D01*
X0064726Y0007653D02*
X0068326Y0007653D01*
X0075440Y0007653D01*
X0075279Y0007555D02*
X0068326Y0007555D01*
X0064726Y0007555D01*
X0064726Y0007456D02*
X0068326Y0007456D01*
X0075118Y0007456D01*
X0074958Y0007358D02*
X0068326Y0007358D01*
X0064726Y0007358D01*
X0064726Y0007259D02*
X0068326Y0007259D01*
X0074737Y0007259D01*
X0074499Y0007161D02*
X0068326Y0007161D01*
X0064726Y0007161D01*
X0064726Y0007062D02*
X0068326Y0007062D01*
X0074262Y0007062D01*
X0074024Y0006964D02*
X0068326Y0006964D01*
X0064726Y0006964D01*
X0064726Y0006865D02*
X0068326Y0006865D01*
X0073786Y0006865D01*
X0073477Y0006767D02*
X0068326Y0006767D01*
X0064726Y0006767D01*
X0064726Y0006668D02*
X0068326Y0006668D01*
X0073067Y0006668D01*
X0072657Y0006570D02*
X0068326Y0006570D01*
X0064726Y0006570D01*
X0064726Y0006471D02*
X0068326Y0006471D01*
X0072130Y0006471D01*
X0083526Y0010176D02*
X0083526Y0014576D01*
X0088826Y0014576D01*
X0088826Y0018276D01*
X0083526Y0018276D01*
X0083526Y0021476D01*
X0092726Y0021476D01*
X0092726Y0025076D01*
X0096127Y0025076D01*
X0096126Y0010576D01*
X0106926Y0025076D01*
X0111826Y0025076D01*
X0097026Y0006576D01*
X0092826Y0006576D01*
X0092826Y0010176D01*
X0083526Y0010176D01*
X0083526Y0010215D02*
X0099937Y0010215D01*
X0100016Y0010313D02*
X0083526Y0010313D01*
X0083526Y0010412D02*
X0100094Y0010412D01*
X0100173Y0010510D02*
X0083526Y0010510D01*
X0083526Y0010609D02*
X0096126Y0010609D01*
X0096150Y0010609D02*
X0100252Y0010609D01*
X0100331Y0010707D02*
X0096224Y0010707D01*
X0096126Y0010707D02*
X0083526Y0010707D01*
X0083526Y0010806D02*
X0096126Y0010806D01*
X0096126Y0010904D02*
X0083526Y0010904D01*
X0083526Y0011003D02*
X0096126Y0011003D01*
X0096126Y0011101D02*
X0083526Y0011101D01*
X0083526Y0011200D02*
X0096126Y0011200D01*
X0096126Y0011298D02*
X0083526Y0011298D01*
X0083526Y0011397D02*
X0096126Y0011397D01*
X0096126Y0011495D02*
X0083526Y0011495D01*
X0083526Y0011594D02*
X0096126Y0011594D01*
X0096126Y0011692D02*
X0083526Y0011692D01*
X0083526Y0011791D02*
X0096126Y0011791D01*
X0096126Y0011889D02*
X0083526Y0011889D01*
X0083526Y0011988D02*
X0096126Y0011988D01*
X0096126Y0012086D02*
X0083526Y0012086D01*
X0083526Y0012185D02*
X0096126Y0012185D01*
X0096126Y0012283D02*
X0083526Y0012283D01*
X0083526Y0012382D02*
X0096126Y0012382D01*
X0096126Y0012480D02*
X0083526Y0012480D01*
X0083526Y0012579D02*
X0096126Y0012579D01*
X0096126Y0012677D02*
X0083526Y0012677D01*
X0083526Y0012776D02*
X0096126Y0012776D01*
X0096126Y0012874D02*
X0083526Y0012874D01*
X0083526Y0012973D02*
X0096126Y0012973D01*
X0096126Y0013071D02*
X0083526Y0013071D01*
X0083526Y0013170D02*
X0096126Y0013170D01*
X0096126Y0013268D02*
X0083526Y0013268D01*
X0083526Y0013367D02*
X0096126Y0013367D01*
X0096126Y0013465D02*
X0083526Y0013465D01*
X0083526Y0013564D02*
X0096126Y0013564D01*
X0096126Y0013662D02*
X0083526Y0013662D01*
X0083526Y0013761D02*
X0096126Y0013761D01*
X0096126Y0013859D02*
X0083526Y0013859D01*
X0083526Y0013958D02*
X0096126Y0013958D01*
X0096127Y0014056D02*
X0083526Y0014056D01*
X0083526Y0014155D02*
X0096127Y0014155D01*
X0096127Y0014253D02*
X0083526Y0014253D01*
X0083526Y0014352D02*
X0096127Y0014352D01*
X0096127Y0014451D02*
X0083526Y0014451D01*
X0083526Y0014549D02*
X0096127Y0014549D01*
X0096127Y0014648D02*
X0088826Y0014648D01*
X0088826Y0014746D02*
X0096127Y0014746D01*
X0096127Y0014845D02*
X0088826Y0014845D01*
X0088826Y0014943D02*
X0096127Y0014943D01*
X0096127Y0015042D02*
X0088826Y0015042D01*
X0088826Y0015140D02*
X0096127Y0015140D01*
X0096127Y0015239D02*
X0088826Y0015239D01*
X0088826Y0015337D02*
X0096127Y0015337D01*
X0096127Y0015436D02*
X0088826Y0015436D01*
X0088826Y0015534D02*
X0096127Y0015534D01*
X0096127Y0015633D02*
X0088826Y0015633D01*
X0088826Y0015731D02*
X0096127Y0015731D01*
X0096127Y0015830D02*
X0088826Y0015830D01*
X0088826Y0015928D02*
X0096127Y0015928D01*
X0096127Y0016027D02*
X0088826Y0016027D01*
X0088826Y0016125D02*
X0096127Y0016125D01*
X0096127Y0016224D02*
X0088826Y0016224D01*
X0088826Y0016322D02*
X0096127Y0016322D01*
X0096127Y0016421D02*
X0088826Y0016421D01*
X0088826Y0016519D02*
X0096127Y0016519D01*
X0096127Y0016618D02*
X0088826Y0016618D01*
X0088826Y0016716D02*
X0096127Y0016716D01*
X0096127Y0016815D02*
X0088826Y0016815D01*
X0088826Y0016913D02*
X0096127Y0016913D01*
X0096127Y0017012D02*
X0088826Y0017012D01*
X0088826Y0017110D02*
X0096127Y0017110D01*
X0096127Y0017209D02*
X0088826Y0017209D01*
X0088826Y0017307D02*
X0096127Y0017307D01*
X0096127Y0017406D02*
X0088826Y0017406D01*
X0088826Y0017504D02*
X0096127Y0017504D01*
X0096127Y0017603D02*
X0088826Y0017603D01*
X0088826Y0017701D02*
X0096127Y0017701D01*
X0096127Y0017800D02*
X0088826Y0017800D01*
X0088826Y0017898D02*
X0096127Y0017898D01*
X0096127Y0017997D02*
X0088826Y0017997D01*
X0088826Y0018095D02*
X0096127Y0018095D01*
X0096127Y0018194D02*
X0088826Y0018194D01*
X0092726Y0021543D02*
X0096127Y0021543D01*
X0096127Y0021445D02*
X0083526Y0021445D01*
X0083526Y0021346D02*
X0096127Y0021346D01*
X0096127Y0021248D02*
X0083526Y0021248D01*
X0083526Y0021149D02*
X0096127Y0021149D01*
X0096127Y0021051D02*
X0083526Y0021051D01*
X0083526Y0020952D02*
X0096127Y0020952D01*
X0096127Y0020854D02*
X0083526Y0020854D01*
X0083526Y0020755D02*
X0096127Y0020755D01*
X0096127Y0020657D02*
X0083526Y0020657D01*
X0083526Y0020558D02*
X0096127Y0020558D01*
X0096127Y0020460D02*
X0083526Y0020460D01*
X0083526Y0020361D02*
X0096127Y0020361D01*
X0096127Y0020263D02*
X0083526Y0020263D01*
X0083526Y0020164D02*
X0096127Y0020164D01*
X0096127Y0020066D02*
X0083526Y0020066D01*
X0083526Y0019967D02*
X0096127Y0019967D01*
X0096127Y0019869D02*
X0083526Y0019869D01*
X0083526Y0019770D02*
X0096127Y0019770D01*
X0096127Y0019672D02*
X0083526Y0019672D01*
X0083526Y0019573D02*
X0096127Y0019573D01*
X0096127Y0019475D02*
X0083526Y0019475D01*
X0083526Y0019376D02*
X0096127Y0019376D01*
X0096127Y0019278D02*
X0083526Y0019278D01*
X0083526Y0019179D02*
X0096127Y0019179D01*
X0096127Y0019081D02*
X0083526Y0019081D01*
X0083526Y0018982D02*
X0096127Y0018982D01*
X0096127Y0018884D02*
X0083526Y0018884D01*
X0083526Y0018785D02*
X0096127Y0018785D01*
X0096127Y0018687D02*
X0083526Y0018687D01*
X0083526Y0018588D02*
X0096127Y0018588D01*
X0096127Y0018489D02*
X0083526Y0018489D01*
X0083526Y0018391D02*
X0096127Y0018391D01*
X0096127Y0018292D02*
X0083526Y0018292D01*
X0092726Y0021642D02*
X0096127Y0021642D01*
X0096127Y0021740D02*
X0092726Y0021740D01*
X0092726Y0021839D02*
X0096127Y0021839D01*
X0096127Y0021937D02*
X0092726Y0021937D01*
X0092726Y0022036D02*
X0096127Y0022036D01*
X0096127Y0022134D02*
X0092726Y0022134D01*
X0092726Y0022233D02*
X0096127Y0022233D01*
X0096127Y0022331D02*
X0092726Y0022331D01*
X0092726Y0022430D02*
X0096127Y0022430D01*
X0096127Y0022528D02*
X0092726Y0022528D01*
X0092726Y0022627D02*
X0096127Y0022627D01*
X0096127Y0022725D02*
X0092726Y0022725D01*
X0092726Y0022824D02*
X0096127Y0022824D01*
X0096127Y0022922D02*
X0092726Y0022922D01*
X0092726Y0023021D02*
X0096127Y0023021D01*
X0096127Y0023120D02*
X0092726Y0023120D01*
X0092726Y0023218D02*
X0096127Y0023218D01*
X0096127Y0023317D02*
X0092726Y0023317D01*
X0092726Y0023415D02*
X0096127Y0023415D01*
X0096127Y0023514D02*
X0092726Y0023514D01*
X0092726Y0023612D02*
X0096127Y0023612D01*
X0096127Y0023711D02*
X0092726Y0023711D01*
X0092726Y0023809D02*
X0096127Y0023809D01*
X0096127Y0023908D02*
X0092726Y0023908D01*
X0092726Y0024006D02*
X0096127Y0024006D01*
X0096127Y0024105D02*
X0092726Y0024105D01*
X0092726Y0024203D02*
X0096127Y0024203D01*
X0096127Y0024302D02*
X0092726Y0024302D01*
X0092726Y0024400D02*
X0096127Y0024400D01*
X0096127Y0024499D02*
X0092726Y0024499D01*
X0092726Y0024597D02*
X0096127Y0024597D01*
X0096127Y0024696D02*
X0092726Y0024696D01*
X0092726Y0024794D02*
X0096127Y0024794D01*
X0096127Y0024893D02*
X0092726Y0024893D01*
X0092726Y0024991D02*
X0096127Y0024991D01*
X0103047Y0019869D02*
X0107660Y0019869D01*
X0107739Y0019967D02*
X0103121Y0019967D01*
X0103194Y0020066D02*
X0107818Y0020066D01*
X0107897Y0020164D02*
X0103268Y0020164D01*
X0103341Y0020263D02*
X0107975Y0020263D01*
X0108054Y0020361D02*
X0103414Y0020361D01*
X0103488Y0020460D02*
X0108133Y0020460D01*
X0108212Y0020558D02*
X0103561Y0020558D01*
X0103634Y0020657D02*
X0108291Y0020657D01*
X0108369Y0020755D02*
X0103708Y0020755D01*
X0103781Y0020854D02*
X0108448Y0020854D01*
X0108527Y0020952D02*
X0103855Y0020952D01*
X0103928Y0021051D02*
X0108606Y0021051D01*
X0108685Y0021149D02*
X0104001Y0021149D01*
X0104075Y0021248D02*
X0108763Y0021248D01*
X0108842Y0021346D02*
X0104148Y0021346D01*
X0104221Y0021445D02*
X0108921Y0021445D01*
X0109000Y0021543D02*
X0104295Y0021543D01*
X0104368Y0021642D02*
X0109079Y0021642D01*
X0109157Y0021740D02*
X0104441Y0021740D01*
X0104515Y0021839D02*
X0109236Y0021839D01*
X0109315Y0021937D02*
X0104588Y0021937D01*
X0104662Y0022036D02*
X0109394Y0022036D01*
X0109473Y0022134D02*
X0104735Y0022134D01*
X0104808Y0022233D02*
X0109552Y0022233D01*
X0109630Y0022331D02*
X0104882Y0022331D01*
X0104955Y0022430D02*
X0109709Y0022430D01*
X0109788Y0022528D02*
X0105028Y0022528D01*
X0105102Y0022627D02*
X0109867Y0022627D01*
X0109946Y0022725D02*
X0105175Y0022725D01*
X0105249Y0022824D02*
X0110024Y0022824D01*
X0110103Y0022922D02*
X0105322Y0022922D01*
X0105395Y0023021D02*
X0110182Y0023021D01*
X0110261Y0023120D02*
X0105469Y0023120D01*
X0105542Y0023218D02*
X0110340Y0023218D01*
X0110418Y0023317D02*
X0105615Y0023317D01*
X0105689Y0023415D02*
X0110497Y0023415D01*
X0110576Y0023514D02*
X0105762Y0023514D01*
X0105836Y0023612D02*
X0110655Y0023612D01*
X0110734Y0023711D02*
X0105909Y0023711D01*
X0105982Y0023809D02*
X0110812Y0023809D01*
X0110891Y0023908D02*
X0106056Y0023908D01*
X0106129Y0024006D02*
X0110970Y0024006D01*
X0111049Y0024105D02*
X0106202Y0024105D01*
X0106276Y0024203D02*
X0111128Y0024203D01*
X0111206Y0024302D02*
X0106349Y0024302D01*
X0106423Y0024400D02*
X0111285Y0024400D01*
X0111364Y0024499D02*
X0106496Y0024499D01*
X0106569Y0024597D02*
X0111443Y0024597D01*
X0111522Y0024696D02*
X0106643Y0024696D01*
X0106716Y0024794D02*
X0111601Y0024794D01*
X0111679Y0024893D02*
X0106789Y0024893D01*
X0106863Y0024991D02*
X0111758Y0024991D01*
X0107581Y0019770D02*
X0102974Y0019770D01*
X0102901Y0019672D02*
X0107502Y0019672D01*
X0107424Y0019573D02*
X0102827Y0019573D01*
X0102754Y0019475D02*
X0107345Y0019475D01*
X0107266Y0019376D02*
X0102681Y0019376D01*
X0102607Y0019278D02*
X0107187Y0019278D01*
X0107108Y0019179D02*
X0102534Y0019179D01*
X0102460Y0019081D02*
X0107030Y0019081D01*
X0106951Y0018982D02*
X0102387Y0018982D01*
X0102314Y0018884D02*
X0106872Y0018884D01*
X0106793Y0018785D02*
X0102240Y0018785D01*
X0102167Y0018687D02*
X0106714Y0018687D01*
X0106636Y0018588D02*
X0102094Y0018588D01*
X0102020Y0018489D02*
X0106557Y0018489D01*
X0106478Y0018391D02*
X0101947Y0018391D01*
X0101873Y0018292D02*
X0106399Y0018292D01*
X0106320Y0018194D02*
X0101800Y0018194D01*
X0101727Y0018095D02*
X0106242Y0018095D01*
X0106163Y0017997D02*
X0101653Y0017997D01*
X0101580Y0017898D02*
X0106084Y0017898D01*
X0106005Y0017800D02*
X0101507Y0017800D01*
X0101433Y0017701D02*
X0105926Y0017701D01*
X0105847Y0017603D02*
X0101360Y0017603D01*
X0101286Y0017504D02*
X0105769Y0017504D01*
X0105690Y0017406D02*
X0101213Y0017406D01*
X0101140Y0017307D02*
X0105611Y0017307D01*
X0105532Y0017209D02*
X0101066Y0017209D01*
X0100993Y0017110D02*
X0105453Y0017110D01*
X0105375Y0017012D02*
X0100920Y0017012D01*
X0100846Y0016913D02*
X0105296Y0016913D01*
X0105217Y0016815D02*
X0100773Y0016815D01*
X0100699Y0016716D02*
X0105138Y0016716D01*
X0105059Y0016618D02*
X0100626Y0016618D01*
X0100553Y0016519D02*
X0104981Y0016519D01*
X0104902Y0016421D02*
X0100479Y0016421D01*
X0100406Y0016322D02*
X0104823Y0016322D01*
X0104744Y0016224D02*
X0100333Y0016224D01*
X0100259Y0016125D02*
X0104665Y0016125D01*
X0104587Y0016027D02*
X0100186Y0016027D01*
X0100112Y0015928D02*
X0104508Y0015928D01*
X0104429Y0015830D02*
X0100039Y0015830D01*
X0099966Y0015731D02*
X0104350Y0015731D01*
X0104271Y0015633D02*
X0099892Y0015633D01*
X0099819Y0015534D02*
X0104192Y0015534D01*
X0104114Y0015436D02*
X0099746Y0015436D01*
X0099672Y0015337D02*
X0104035Y0015337D01*
X0103956Y0015239D02*
X0099599Y0015239D01*
X0099525Y0015140D02*
X0103877Y0015140D01*
X0103798Y0015042D02*
X0099452Y0015042D01*
X0099379Y0014943D02*
X0103720Y0014943D01*
X0103641Y0014845D02*
X0099305Y0014845D01*
X0099232Y0014746D02*
X0103562Y0014746D01*
X0103483Y0014648D02*
X0099159Y0014648D01*
X0099085Y0014549D02*
X0103404Y0014549D01*
X0103326Y0014451D02*
X0099012Y0014451D01*
X0098938Y0014352D02*
X0103247Y0014352D01*
X0103168Y0014253D02*
X0098865Y0014253D01*
X0098792Y0014155D02*
X0103089Y0014155D01*
X0103010Y0014056D02*
X0098718Y0014056D01*
X0098645Y0013958D02*
X0102932Y0013958D01*
X0102853Y0013859D02*
X0098572Y0013859D01*
X0098498Y0013761D02*
X0102774Y0013761D01*
X0102695Y0013662D02*
X0098425Y0013662D01*
X0098351Y0013564D02*
X0102616Y0013564D01*
X0102537Y0013465D02*
X0098278Y0013465D01*
X0098205Y0013367D02*
X0102459Y0013367D01*
X0102380Y0013268D02*
X0098131Y0013268D01*
X0098058Y0013170D02*
X0102301Y0013170D01*
X0102222Y0013071D02*
X0097985Y0013071D01*
X0097911Y0012973D02*
X0102143Y0012973D01*
X0102065Y0012874D02*
X0097838Y0012874D01*
X0097764Y0012776D02*
X0101986Y0012776D01*
X0101907Y0012677D02*
X0097691Y0012677D01*
X0097618Y0012579D02*
X0101828Y0012579D01*
X0101749Y0012480D02*
X0097544Y0012480D01*
X0097471Y0012382D02*
X0101671Y0012382D01*
X0101592Y0012283D02*
X0097398Y0012283D01*
X0097324Y0012185D02*
X0101513Y0012185D01*
X0101434Y0012086D02*
X0097251Y0012086D01*
X0097177Y0011988D02*
X0101355Y0011988D01*
X0101277Y0011889D02*
X0097104Y0011889D01*
X0097031Y0011791D02*
X0101198Y0011791D01*
X0101119Y0011692D02*
X0096957Y0011692D01*
X0096884Y0011594D02*
X0101040Y0011594D01*
X0100961Y0011495D02*
X0096811Y0011495D01*
X0096737Y0011397D02*
X0100883Y0011397D01*
X0100804Y0011298D02*
X0096664Y0011298D01*
X0096590Y0011200D02*
X0100725Y0011200D01*
X0100646Y0011101D02*
X0096517Y0011101D01*
X0096444Y0011003D02*
X0100567Y0011003D01*
X0100488Y0010904D02*
X0096370Y0010904D01*
X0096297Y0010806D02*
X0100410Y0010806D01*
X0099858Y0010116D02*
X0092826Y0010116D01*
X0092826Y0010018D02*
X0099779Y0010018D01*
X0099700Y0009919D02*
X0092826Y0009919D01*
X0092826Y0009820D02*
X0099622Y0009820D01*
X0099543Y0009722D02*
X0092826Y0009722D01*
X0092826Y0009623D02*
X0099464Y0009623D01*
X0099385Y0009525D02*
X0092826Y0009525D01*
X0092826Y0009426D02*
X0099306Y0009426D01*
X0099228Y0009328D02*
X0092826Y0009328D01*
X0092826Y0009229D02*
X0099149Y0009229D01*
X0099070Y0009131D02*
X0092826Y0009131D01*
X0092826Y0009032D02*
X0098991Y0009032D01*
X0098912Y0008934D02*
X0092826Y0008934D01*
X0092826Y0008835D02*
X0098833Y0008835D01*
X0098755Y0008737D02*
X0092826Y0008737D01*
X0092826Y0008638D02*
X0098676Y0008638D01*
X0098597Y0008540D02*
X0092826Y0008540D01*
X0092826Y0008441D02*
X0098518Y0008441D01*
X0098439Y0008343D02*
X0092826Y0008343D01*
X0092826Y0008244D02*
X0098361Y0008244D01*
X0098282Y0008146D02*
X0092826Y0008146D01*
X0092826Y0008047D02*
X0098203Y0008047D01*
X0098124Y0007949D02*
X0092826Y0007949D01*
X0092826Y0007850D02*
X0098045Y0007850D01*
X0097967Y0007752D02*
X0092826Y0007752D01*
X0092826Y0007653D02*
X0097888Y0007653D01*
X0097809Y0007555D02*
X0092826Y0007555D01*
X0092826Y0007456D02*
X0097730Y0007456D01*
X0097651Y0007358D02*
X0092826Y0007358D01*
X0092826Y0007259D02*
X0097573Y0007259D01*
X0097494Y0007161D02*
X0092826Y0007161D01*
X0092826Y0007062D02*
X0097415Y0007062D01*
X0097336Y0006964D02*
X0092826Y0006964D01*
X0092826Y0006865D02*
X0097257Y0006865D01*
X0097178Y0006767D02*
X0092826Y0006767D01*
X0092826Y0006668D02*
X0097100Y0006668D01*
D41*
X0092873Y0006543D02*
X0092875Y0007365D01*
X0064807Y0007365D01*
X0064726Y0006335D01*
X0092873Y0006543D01*
X0092848Y0024191D02*
X0092848Y0025129D01*
X0064643Y0025100D01*
X0064683Y0024144D01*
X0092848Y0024191D01*
D42*
X0064681Y0024191D01*
X0064681Y0024192D02*
X0092848Y0024192D01*
X0092848Y0024193D02*
X0064681Y0024193D01*
X0064681Y0024194D02*
X0092848Y0024194D01*
X0092848Y0024195D02*
X0064681Y0024195D01*
X0064681Y0024196D02*
X0092848Y0024196D01*
X0092848Y0024197D02*
X0064681Y0024197D01*
X0064681Y0024198D02*
X0092848Y0024198D01*
X0092848Y0024199D02*
X0064680Y0024199D01*
X0064680Y0024200D02*
X0092848Y0024200D01*
X0092848Y0024201D02*
X0064680Y0024201D01*
X0064680Y0024202D02*
X0092848Y0024202D01*
X0092848Y0024203D02*
X0064680Y0024203D01*
X0064680Y0024204D02*
X0092848Y0024204D01*
X0092848Y0024205D02*
X0064680Y0024205D01*
X0064680Y0024206D02*
X0092848Y0024206D01*
X0092848Y0024207D02*
X0064680Y0024207D01*
X0064680Y0024208D02*
X0092848Y0024208D01*
X0092848Y0024209D02*
X0064680Y0024209D01*
X0064680Y0024210D02*
X0092848Y0024210D01*
X0092848Y0024211D02*
X0064680Y0024211D01*
X0064680Y0024212D02*
X0092848Y0024212D01*
X0092848Y0024213D02*
X0064680Y0024213D01*
X0064680Y0024214D02*
X0092848Y0024214D01*
X0092848Y0024215D02*
X0064680Y0024215D01*
X0064680Y0024216D02*
X0092848Y0024216D01*
X0092848Y0024217D02*
X0064680Y0024217D01*
X0064680Y0024218D02*
X0092848Y0024218D01*
X0092848Y0024219D02*
X0064680Y0024219D01*
X0092848Y0024219D01*
X0092848Y0024220D02*
X0064680Y0024220D01*
X0064680Y0024221D02*
X0092848Y0024221D01*
X0092848Y0024222D02*
X0064679Y0024222D01*
X0064679Y0024223D02*
X0092848Y0024223D01*
X0092848Y0024224D02*
X0064679Y0024224D01*
X0064679Y0024225D02*
X0092848Y0024225D01*
X0092848Y0024226D02*
X0064679Y0024226D01*
X0064679Y0024227D02*
X0092848Y0024227D01*
X0092848Y0024228D02*
X0064679Y0024228D01*
X0064679Y0024229D02*
X0092848Y0024229D01*
X0092848Y0024230D02*
X0064679Y0024230D01*
X0064679Y0024231D02*
X0092848Y0024231D01*
X0092848Y0024232D02*
X0064679Y0024232D01*
X0064679Y0024233D02*
X0092848Y0024233D01*
X0092848Y0024234D02*
X0064679Y0024234D01*
X0064679Y0024235D02*
X0092848Y0024235D01*
X0092848Y0024236D02*
X0064679Y0024236D01*
X0064679Y0024237D02*
X0092848Y0024237D01*
X0092848Y0024238D02*
X0064679Y0024238D01*
X0064679Y0024239D02*
X0092848Y0024239D01*
X0092848Y0024240D02*
X0064679Y0024240D01*
X0064679Y0024241D02*
X0092848Y0024241D01*
X0092848Y0024242D02*
X0064679Y0024242D01*
X0064679Y0024243D02*
X0092848Y0024243D01*
X0092848Y0024244D02*
X0064679Y0024244D01*
X0064679Y0024245D02*
X0092848Y0024245D01*
X0092848Y0024246D02*
X0064679Y0024246D01*
X0064678Y0024247D02*
X0092848Y0024247D01*
X0092848Y0024248D02*
X0064678Y0024248D01*
X0064678Y0024249D02*
X0092848Y0024249D01*
X0092848Y0024250D02*
X0064678Y0024250D01*
X0064678Y0024251D02*
X0092848Y0024251D01*
X0092848Y0024252D02*
X0064678Y0024252D01*
X0064678Y0024253D02*
X0092848Y0024253D01*
X0092848Y0024254D02*
X0064678Y0024254D01*
X0064678Y0024255D02*
X0092848Y0024255D01*
X0092848Y0024256D02*
X0064678Y0024256D01*
X0064678Y0024257D02*
X0092848Y0024257D01*
X0092848Y0024258D02*
X0064678Y0024258D01*
X0064678Y0024259D02*
X0092848Y0024259D01*
X0092848Y0024260D02*
X0064678Y0024260D01*
X0064678Y0024261D02*
X0092848Y0024261D01*
X0092848Y0024262D02*
X0064678Y0024262D01*
X0064678Y0024263D02*
X0092848Y0024263D01*
X0092848Y0024264D02*
X0064678Y0024264D01*
X0064678Y0024265D02*
X0092848Y0024265D01*
X0092848Y0024266D02*
X0064678Y0024266D01*
X0064678Y0024267D02*
X0092848Y0024267D01*
X0092848Y0024268D02*
X0064678Y0024268D01*
X0064678Y0024269D02*
X0092848Y0024269D01*
X0092848Y0024270D02*
X0064678Y0024270D01*
X0064677Y0024271D02*
X0092848Y0024271D01*
X0092848Y0024272D02*
X0064677Y0024272D01*
X0064677Y0024273D02*
X0092848Y0024273D01*
X0092848Y0024274D02*
X0064677Y0024274D01*
X0064677Y0024275D02*
X0092848Y0024275D01*
X0092848Y0024276D02*
X0064677Y0024276D01*
X0064677Y0024277D02*
X0092848Y0024277D01*
X0092848Y0024278D02*
X0064677Y0024278D01*
X0064677Y0024279D02*
X0092848Y0024279D01*
X0092848Y0024280D02*
X0064677Y0024280D01*
X0064677Y0024281D02*
X0092848Y0024281D01*
X0064677Y0024281D01*
X0064677Y0024282D02*
X0092848Y0024282D01*
X0092848Y0024283D02*
X0064677Y0024283D01*
X0064677Y0024284D02*
X0092848Y0024284D01*
X0092848Y0024285D02*
X0064677Y0024285D01*
X0064677Y0024286D02*
X0092848Y0024286D01*
X0092848Y0024287D02*
X0064677Y0024287D01*
X0064677Y0024288D02*
X0092848Y0024288D01*
X0092848Y0024289D02*
X0064677Y0024289D01*
X0064677Y0024290D02*
X0092848Y0024290D01*
X0092848Y0024291D02*
X0064677Y0024291D01*
X0064677Y0024292D02*
X0092848Y0024292D01*
X0092848Y0024293D02*
X0064677Y0024293D01*
X0064677Y0024294D02*
X0092848Y0024294D01*
X0092848Y0024295D02*
X0064676Y0024295D01*
X0064676Y0024296D02*
X0092848Y0024296D01*
X0092848Y0024297D02*
X0064676Y0024297D01*
X0064676Y0024298D02*
X0092848Y0024298D01*
X0092848Y0024299D02*
X0064676Y0024299D01*
X0064676Y0024300D02*
X0092848Y0024300D01*
X0092848Y0024301D02*
X0064676Y0024301D01*
X0064676Y0024302D02*
X0092848Y0024302D01*
X0092848Y0024303D02*
X0064676Y0024303D01*
X0064676Y0024304D02*
X0092848Y0024304D01*
X0092848Y0024305D02*
X0064676Y0024305D01*
X0064676Y0024306D02*
X0092848Y0024306D01*
X0092848Y0024307D02*
X0064676Y0024307D01*
X0064676Y0024308D02*
X0092848Y0024308D01*
X0092848Y0024309D02*
X0064676Y0024309D01*
X0064676Y0024310D02*
X0092848Y0024310D01*
X0092848Y0024311D02*
X0064676Y0024311D01*
X0064676Y0024312D02*
X0092848Y0024312D01*
X0092848Y0024313D02*
X0064676Y0024313D01*
X0064676Y0024314D02*
X0092848Y0024314D01*
X0092848Y0024315D02*
X0064676Y0024315D01*
X0064676Y0024316D02*
X0092848Y0024316D01*
X0092848Y0024317D02*
X0064676Y0024317D01*
X0064676Y0024318D02*
X0092848Y0024318D01*
X0092848Y0024319D02*
X0064675Y0024319D01*
X0064675Y0024320D02*
X0092848Y0024320D01*
X0092848Y0024321D02*
X0064675Y0024321D01*
X0064675Y0024322D02*
X0092848Y0024322D01*
X0092848Y0024323D02*
X0064675Y0024323D01*
X0064675Y0024324D02*
X0092848Y0024324D01*
X0092848Y0024325D02*
X0064675Y0024325D01*
X0064675Y0024326D02*
X0092848Y0024326D01*
X0092848Y0024327D02*
X0064675Y0024327D01*
X0064675Y0024328D02*
X0092848Y0024328D01*
X0092848Y0024329D02*
X0064675Y0024329D01*
X0064675Y0024330D02*
X0092848Y0024330D01*
X0092848Y0024331D02*
X0064675Y0024331D01*
X0064675Y0024332D02*
X0092848Y0024332D01*
X0092848Y0024333D02*
X0064675Y0024333D01*
X0064675Y0024334D02*
X0092848Y0024334D01*
X0092848Y0024335D02*
X0064675Y0024335D01*
X0064675Y0024336D02*
X0092848Y0024336D01*
X0092848Y0024337D02*
X0064675Y0024337D01*
X0064675Y0024338D02*
X0092848Y0024338D01*
X0092848Y0024339D02*
X0064675Y0024339D01*
X0064675Y0024340D02*
X0092848Y0024340D01*
X0092848Y0024341D02*
X0064675Y0024341D01*
X0064675Y0024342D02*
X0092848Y0024342D01*
X0092848Y0024343D02*
X0064675Y0024343D01*
X0064674Y0024344D02*
X0092848Y0024344D01*
X0064674Y0024344D01*
X0064674Y0024345D02*
X0092848Y0024345D01*
X0092848Y0024346D02*
X0064674Y0024346D01*
X0064674Y0024347D02*
X0092848Y0024347D01*
X0092848Y0024348D02*
X0064674Y0024348D01*
X0064674Y0024349D02*
X0092848Y0024349D01*
X0092848Y0024350D02*
X0064674Y0024350D01*
X0064674Y0024351D02*
X0092848Y0024351D01*
X0092848Y0024352D02*
X0064674Y0024352D01*
X0064674Y0024353D02*
X0092848Y0024353D01*
X0092848Y0024354D02*
X0064674Y0024354D01*
X0064674Y0024355D02*
X0092848Y0024355D01*
X0092848Y0024356D02*
X0064674Y0024356D01*
X0064674Y0024357D02*
X0092848Y0024357D01*
X0092848Y0024358D02*
X0064674Y0024358D01*
X0064674Y0024359D02*
X0092848Y0024359D01*
X0092848Y0024360D02*
X0064674Y0024360D01*
X0064674Y0024361D02*
X0092848Y0024361D01*
X0092848Y0024362D02*
X0064674Y0024362D01*
X0064674Y0024363D02*
X0092848Y0024363D01*
X0092848Y0024364D02*
X0064674Y0024364D01*
X0064674Y0024365D02*
X0092848Y0024365D01*
X0092848Y0024366D02*
X0064674Y0024366D01*
X0064673Y0024367D02*
X0092848Y0024367D01*
X0092848Y0024368D02*
X0064673Y0024368D01*
X0064673Y0024369D02*
X0092848Y0024369D01*
X0092848Y0024370D02*
X0064673Y0024370D01*
X0064673Y0024371D02*
X0092848Y0024371D01*
X0092848Y0024372D02*
X0064673Y0024372D01*
X0064673Y0024373D02*
X0092848Y0024373D01*
X0092848Y0024374D02*
X0064673Y0024374D01*
X0064673Y0024375D02*
X0092848Y0024375D01*
X0092848Y0024376D02*
X0064673Y0024376D01*
X0064673Y0024377D02*
X0092848Y0024377D01*
X0092848Y0024378D02*
X0064673Y0024378D01*
X0064673Y0024379D02*
X0092848Y0024379D01*
X0092848Y0024380D02*
X0064673Y0024380D01*
X0064673Y0024381D02*
X0092848Y0024381D01*
X0092848Y0024382D02*
X0064673Y0024382D01*
X0064673Y0024383D02*
X0092848Y0024383D01*
X0092848Y0024384D02*
X0064673Y0024384D01*
X0064673Y0024385D02*
X0092848Y0024385D01*
X0092848Y0024386D02*
X0064673Y0024386D01*
X0064673Y0024387D02*
X0092848Y0024387D01*
X0092848Y0024388D02*
X0064673Y0024388D01*
X0064673Y0024389D02*
X0092848Y0024389D01*
X0092848Y0024390D02*
X0064673Y0024390D01*
X0064673Y0024391D02*
X0092848Y0024391D01*
X0092848Y0024392D02*
X0064672Y0024392D01*
X0064672Y0024393D02*
X0092848Y0024393D01*
X0092848Y0024394D02*
X0064672Y0024394D01*
X0064672Y0024395D02*
X0092848Y0024395D01*
X0092848Y0024396D02*
X0064672Y0024396D01*
X0064672Y0024397D02*
X0092848Y0024397D01*
X0092848Y0024398D02*
X0064672Y0024398D01*
X0064672Y0024399D02*
X0092848Y0024399D01*
X0092848Y0024400D02*
X0064672Y0024400D01*
X0064672Y0024401D02*
X0092848Y0024401D01*
X0092848Y0024402D02*
X0064672Y0024402D01*
X0064672Y0024403D02*
X0092848Y0024403D01*
X0092848Y0024404D02*
X0064672Y0024404D01*
X0064672Y0024405D02*
X0092848Y0024405D01*
X0092848Y0024406D02*
X0064672Y0024406D01*
X0092848Y0024406D01*
X0092848Y0024407D02*
X0064672Y0024407D01*
X0064672Y0024408D02*
X0092848Y0024408D01*
X0092848Y0024409D02*
X0064672Y0024409D01*
X0064672Y0024410D02*
X0092848Y0024410D01*
X0092848Y0024411D02*
X0064672Y0024411D01*
X0064672Y0024412D02*
X0092848Y0024412D01*
X0092848Y0024413D02*
X0064672Y0024413D01*
X0064672Y0024414D02*
X0092848Y0024414D01*
X0092848Y0024415D02*
X0064671Y0024415D01*
X0064671Y0024416D02*
X0092848Y0024416D01*
X0092848Y0024417D02*
X0064671Y0024417D01*
X0064671Y0024418D02*
X0092848Y0024418D01*
X0092848Y0024419D02*
X0064671Y0024419D01*
X0064671Y0024420D02*
X0092848Y0024420D01*
X0092848Y0024421D02*
X0064671Y0024421D01*
X0064671Y0024422D02*
X0092848Y0024422D01*
X0092848Y0024423D02*
X0064671Y0024423D01*
X0064671Y0024424D02*
X0092848Y0024424D01*
X0092848Y0024425D02*
X0064671Y0024425D01*
X0064671Y0024426D02*
X0092848Y0024426D01*
X0092848Y0024427D02*
X0064671Y0024427D01*
X0064671Y0024428D02*
X0092848Y0024428D01*
X0092848Y0024429D02*
X0064671Y0024429D01*
X0064671Y0024430D02*
X0092848Y0024430D01*
X0092848Y0024431D02*
X0064671Y0024431D01*
X0064671Y0024432D02*
X0092848Y0024432D01*
X0092848Y0024433D02*
X0064671Y0024433D01*
X0064671Y0024434D02*
X0092848Y0024434D01*
X0092848Y0024435D02*
X0064671Y0024435D01*
X0064671Y0024436D02*
X0092848Y0024436D01*
X0092848Y0024437D02*
X0064671Y0024437D01*
X0064671Y0024438D02*
X0092848Y0024438D01*
X0092848Y0024439D02*
X0064671Y0024439D01*
X0064670Y0024440D02*
X0092848Y0024440D01*
X0092848Y0024441D02*
X0064670Y0024441D01*
X0064670Y0024442D02*
X0092848Y0024442D01*
X0092848Y0024443D02*
X0064670Y0024443D01*
X0064670Y0024444D02*
X0092848Y0024444D01*
X0092848Y0024445D02*
X0064670Y0024445D01*
X0064670Y0024446D02*
X0092848Y0024446D01*
X0092848Y0024447D02*
X0064670Y0024447D01*
X0064670Y0024448D02*
X0092848Y0024448D01*
X0092848Y0024449D02*
X0064670Y0024449D01*
X0064670Y0024450D02*
X0092848Y0024450D01*
X0092848Y0024451D02*
X0064670Y0024451D01*
X0064670Y0024452D02*
X0092848Y0024452D01*
X0092848Y0024453D02*
X0064670Y0024453D01*
X0064670Y0024454D02*
X0092848Y0024454D01*
X0092848Y0024455D02*
X0064670Y0024455D01*
X0064670Y0024456D02*
X0092848Y0024456D01*
X0092848Y0024457D02*
X0064670Y0024457D01*
X0064670Y0024458D02*
X0092848Y0024458D01*
X0092848Y0024459D02*
X0064670Y0024459D01*
X0064670Y0024460D02*
X0092848Y0024460D01*
X0092848Y0024461D02*
X0064670Y0024461D01*
X0064670Y0024462D02*
X0092848Y0024462D01*
X0092848Y0024463D02*
X0064670Y0024463D01*
X0064669Y0024464D02*
X0092848Y0024464D01*
X0092848Y0024465D02*
X0064669Y0024465D01*
X0064669Y0024466D02*
X0092848Y0024466D01*
X0092848Y0024467D02*
X0064669Y0024467D01*
X0064669Y0024468D02*
X0092848Y0024468D01*
X0092848Y0024469D02*
X0064669Y0024469D01*
X0092848Y0024469D01*
X0092848Y0024470D02*
X0064669Y0024470D01*
X0064669Y0024471D02*
X0092848Y0024471D01*
X0092848Y0024472D02*
X0064669Y0024472D01*
X0064669Y0024473D02*
X0092848Y0024473D01*
X0092848Y0024474D02*
X0064669Y0024474D01*
X0064669Y0024475D02*
X0092848Y0024475D01*
X0092848Y0024476D02*
X0064669Y0024476D01*
X0064669Y0024477D02*
X0092848Y0024477D01*
X0092848Y0024478D02*
X0064669Y0024478D01*
X0064669Y0024479D02*
X0092848Y0024479D01*
X0092848Y0024480D02*
X0064669Y0024480D01*
X0064669Y0024481D02*
X0092848Y0024481D01*
X0092848Y0024482D02*
X0064669Y0024482D01*
X0064669Y0024483D02*
X0092848Y0024483D01*
X0092848Y0024484D02*
X0064669Y0024484D01*
X0064669Y0024485D02*
X0092848Y0024485D01*
X0092848Y0024486D02*
X0064669Y0024486D01*
X0064669Y0024487D02*
X0092848Y0024487D01*
X0092848Y0024488D02*
X0064668Y0024488D01*
X0064668Y0024489D02*
X0092848Y0024489D01*
X0092848Y0024490D02*
X0064668Y0024490D01*
X0064668Y0024491D02*
X0092848Y0024491D01*
X0092848Y0024492D02*
X0064668Y0024492D01*
X0064668Y0024493D02*
X0092848Y0024493D01*
X0092848Y0024494D02*
X0064668Y0024494D01*
X0064668Y0024495D02*
X0092848Y0024495D01*
X0092848Y0024496D02*
X0064668Y0024496D01*
X0064668Y0024497D02*
X0092848Y0024497D01*
X0092848Y0024498D02*
X0064668Y0024498D01*
X0064668Y0024499D02*
X0092848Y0024499D01*
X0092848Y0024500D02*
X0064668Y0024500D01*
X0064668Y0024501D02*
X0092848Y0024501D01*
X0092848Y0024502D02*
X0064668Y0024502D01*
X0064668Y0024503D02*
X0092848Y0024503D01*
X0092848Y0024504D02*
X0064668Y0024504D01*
X0064668Y0024505D02*
X0092848Y0024505D01*
X0092848Y0024506D02*
X0064668Y0024506D01*
X0064668Y0024507D02*
X0092848Y0024507D01*
X0092848Y0024508D02*
X0064668Y0024508D01*
X0064668Y0024509D02*
X0092848Y0024509D01*
X0092848Y0024510D02*
X0064668Y0024510D01*
X0064668Y0024511D02*
X0092848Y0024511D01*
X0092848Y0024512D02*
X0064667Y0024512D01*
X0064667Y0024513D02*
X0092848Y0024513D01*
X0092848Y0024514D02*
X0064667Y0024514D01*
X0064667Y0024515D02*
X0092848Y0024515D01*
X0092848Y0024516D02*
X0064667Y0024516D01*
X0064667Y0024517D02*
X0092848Y0024517D01*
X0092848Y0024518D02*
X0064667Y0024518D01*
X0064667Y0024519D02*
X0092848Y0024519D01*
X0092848Y0024520D02*
X0064667Y0024520D01*
X0064667Y0024521D02*
X0092848Y0024521D01*
X0092848Y0024522D02*
X0064667Y0024522D01*
X0064667Y0024523D02*
X0092848Y0024523D01*
X0092848Y0024524D02*
X0064667Y0024524D01*
X0064667Y0024525D02*
X0092848Y0024525D01*
X0092848Y0024526D02*
X0064667Y0024526D01*
X0064667Y0024527D02*
X0092848Y0024527D01*
X0092848Y0024528D02*
X0064667Y0024528D01*
X0064667Y0024529D02*
X0092848Y0024529D01*
X0092848Y0024530D02*
X0064667Y0024530D01*
X0064667Y0024531D02*
X0092848Y0024531D01*
X0064667Y0024531D01*
X0064667Y0024532D02*
X0092848Y0024532D01*
X0092848Y0024533D02*
X0064667Y0024533D01*
X0064667Y0024534D02*
X0092848Y0024534D01*
X0092848Y0024535D02*
X0064667Y0024535D01*
X0064666Y0024536D02*
X0092848Y0024536D01*
X0092848Y0024537D02*
X0064666Y0024537D01*
X0064666Y0024538D02*
X0092848Y0024538D01*
X0092848Y0024539D02*
X0064666Y0024539D01*
X0064666Y0024540D02*
X0092848Y0024540D01*
X0092848Y0024541D02*
X0064666Y0024541D01*
X0064666Y0024542D02*
X0092848Y0024542D01*
X0092848Y0024543D02*
X0064666Y0024543D01*
X0064666Y0024544D02*
X0092848Y0024544D01*
X0092848Y0024545D02*
X0064666Y0024545D01*
X0064666Y0024546D02*
X0092848Y0024546D01*
X0092848Y0024547D02*
X0064666Y0024547D01*
X0064666Y0024548D02*
X0092848Y0024548D01*
X0092848Y0024549D02*
X0064666Y0024549D01*
X0064666Y0024550D02*
X0092848Y0024550D01*
X0092848Y0024551D02*
X0064666Y0024551D01*
X0064666Y0024552D02*
X0092848Y0024552D01*
X0092848Y0024553D02*
X0064666Y0024553D01*
X0064666Y0024554D02*
X0092848Y0024554D01*
X0092848Y0024555D02*
X0064666Y0024555D01*
X0064666Y0024556D02*
X0092848Y0024556D01*
X0092848Y0024557D02*
X0064666Y0024557D01*
X0064666Y0024558D02*
X0092848Y0024558D01*
X0092848Y0024559D02*
X0064666Y0024559D01*
X0064665Y0024560D02*
X0092848Y0024560D01*
X0092848Y0024561D02*
X0064665Y0024561D01*
X0064665Y0024562D02*
X0092848Y0024562D01*
X0092848Y0024563D02*
X0064665Y0024563D01*
X0064665Y0024564D02*
X0092848Y0024564D01*
X0092848Y0024565D02*
X0064665Y0024565D01*
X0064665Y0024566D02*
X0092848Y0024566D01*
X0092848Y0024567D02*
X0064665Y0024567D01*
X0064665Y0024568D02*
X0092848Y0024568D01*
X0092848Y0024569D02*
X0064665Y0024569D01*
X0064665Y0024570D02*
X0092848Y0024570D01*
X0092848Y0024571D02*
X0064665Y0024571D01*
X0064665Y0024572D02*
X0092848Y0024572D01*
X0092848Y0024573D02*
X0064665Y0024573D01*
X0064665Y0024574D02*
X0092848Y0024574D01*
X0092848Y0024575D02*
X0064665Y0024575D01*
X0064665Y0024576D02*
X0092848Y0024576D01*
X0092848Y0024577D02*
X0064665Y0024577D01*
X0064665Y0024578D02*
X0092848Y0024578D01*
X0092848Y0024579D02*
X0064665Y0024579D01*
X0064665Y0024580D02*
X0092848Y0024580D01*
X0092848Y0024581D02*
X0064665Y0024581D01*
X0064665Y0024582D02*
X0092848Y0024582D01*
X0092848Y0024583D02*
X0064665Y0024583D01*
X0064665Y0024584D02*
X0092848Y0024584D01*
X0092848Y0024585D02*
X0064664Y0024585D01*
X0064664Y0024586D02*
X0092848Y0024586D01*
X0092848Y0024587D02*
X0064664Y0024587D01*
X0064664Y0024588D02*
X0092848Y0024588D01*
X0092848Y0024589D02*
X0064664Y0024589D01*
X0064664Y0024590D02*
X0092848Y0024590D01*
X0092848Y0024591D02*
X0064664Y0024591D01*
X0064664Y0024592D02*
X0092848Y0024592D01*
X0092848Y0024593D02*
X0064664Y0024593D01*
X0064664Y0024594D02*
X0092848Y0024594D01*
X0064664Y0024594D01*
X0064664Y0024595D02*
X0092848Y0024595D01*
X0092848Y0024596D02*
X0064664Y0024596D01*
X0064664Y0024597D02*
X0092848Y0024597D01*
X0092848Y0024598D02*
X0064664Y0024598D01*
X0064664Y0024599D02*
X0092848Y0024599D01*
X0092848Y0024600D02*
X0064664Y0024600D01*
X0064664Y0024601D02*
X0092848Y0024601D01*
X0092848Y0024602D02*
X0064664Y0024602D01*
X0064664Y0024603D02*
X0092848Y0024603D01*
X0092848Y0024604D02*
X0064664Y0024604D01*
X0064664Y0024605D02*
X0092848Y0024605D01*
X0092848Y0024606D02*
X0064664Y0024606D01*
X0064664Y0024607D02*
X0092848Y0024607D01*
X0092848Y0024608D02*
X0064663Y0024608D01*
X0064663Y0024609D02*
X0092848Y0024609D01*
X0092848Y0024610D02*
X0064663Y0024610D01*
X0064663Y0024611D02*
X0092848Y0024611D01*
X0092848Y0024612D02*
X0064663Y0024612D01*
X0064663Y0024613D02*
X0092848Y0024613D01*
X0092848Y0024614D02*
X0064663Y0024614D01*
X0064663Y0024615D02*
X0092848Y0024615D01*
X0092848Y0024616D02*
X0064663Y0024616D01*
X0064663Y0024617D02*
X0092848Y0024617D01*
X0092848Y0024618D02*
X0064663Y0024618D01*
X0064663Y0024619D02*
X0092848Y0024619D01*
X0092848Y0024620D02*
X0064663Y0024620D01*
X0064663Y0024621D02*
X0092848Y0024621D01*
X0092848Y0024622D02*
X0064663Y0024622D01*
X0064663Y0024623D02*
X0092848Y0024623D01*
X0092848Y0024624D02*
X0064663Y0024624D01*
X0064663Y0024625D02*
X0092848Y0024625D01*
X0092848Y0024626D02*
X0064663Y0024626D01*
X0064663Y0024627D02*
X0092848Y0024627D01*
X0092848Y0024628D02*
X0064663Y0024628D01*
X0064663Y0024629D02*
X0092848Y0024629D01*
X0092848Y0024630D02*
X0064663Y0024630D01*
X0064663Y0024631D02*
X0092848Y0024631D01*
X0092848Y0024632D02*
X0064663Y0024632D01*
X0064662Y0024633D02*
X0092848Y0024633D01*
X0092848Y0024634D02*
X0064662Y0024634D01*
X0064662Y0024635D02*
X0092848Y0024635D01*
X0092848Y0024636D02*
X0064662Y0024636D01*
X0064662Y0024637D02*
X0092848Y0024637D01*
X0092848Y0024638D02*
X0064662Y0024638D01*
X0064662Y0024639D02*
X0092848Y0024639D01*
X0092848Y0024640D02*
X0064662Y0024640D01*
X0064662Y0024641D02*
X0092848Y0024641D01*
X0092848Y0024642D02*
X0064662Y0024642D01*
X0064662Y0024643D02*
X0092848Y0024643D01*
X0092848Y0024644D02*
X0064662Y0024644D01*
X0064662Y0024645D02*
X0092848Y0024645D01*
X0092848Y0024646D02*
X0064662Y0024646D01*
X0064662Y0024647D02*
X0092848Y0024647D01*
X0092848Y0024648D02*
X0064662Y0024648D01*
X0064662Y0024649D02*
X0092848Y0024649D01*
X0092848Y0024650D02*
X0064662Y0024650D01*
X0064662Y0024651D02*
X0092848Y0024651D01*
X0092848Y0024652D02*
X0064662Y0024652D01*
X0064662Y0024653D02*
X0092848Y0024653D01*
X0092848Y0024654D02*
X0064662Y0024654D01*
X0064662Y0024655D02*
X0092848Y0024655D01*
X0092848Y0024656D02*
X0064662Y0024656D01*
X0064661Y0024656D02*
X0092848Y0024656D01*
X0092848Y0024657D02*
X0064661Y0024657D01*
X0064661Y0024658D02*
X0092848Y0024658D01*
X0092848Y0024659D02*
X0064661Y0024659D01*
X0064661Y0024660D02*
X0092848Y0024660D01*
X0092848Y0024661D02*
X0064661Y0024661D01*
X0064661Y0024662D02*
X0092848Y0024662D01*
X0092848Y0024663D02*
X0064661Y0024663D01*
X0064661Y0024664D02*
X0092848Y0024664D01*
X0092848Y0024665D02*
X0064661Y0024665D01*
X0064661Y0024666D02*
X0092848Y0024666D01*
X0092848Y0024667D02*
X0064661Y0024667D01*
X0064661Y0024668D02*
X0092848Y0024668D01*
X0092848Y0024669D02*
X0064661Y0024669D01*
X0064661Y0024670D02*
X0092848Y0024670D01*
X0092848Y0024671D02*
X0064661Y0024671D01*
X0064661Y0024672D02*
X0092848Y0024672D01*
X0092848Y0024673D02*
X0064661Y0024673D01*
X0064661Y0024674D02*
X0092848Y0024674D01*
X0092848Y0024675D02*
X0064661Y0024675D01*
X0064661Y0024676D02*
X0092848Y0024676D01*
X0092848Y0024677D02*
X0064661Y0024677D01*
X0064661Y0024678D02*
X0092848Y0024678D01*
X0092848Y0024679D02*
X0064661Y0024679D01*
X0064661Y0024680D02*
X0092848Y0024680D01*
X0092848Y0024681D02*
X0064660Y0024681D01*
X0064660Y0024682D02*
X0092848Y0024682D01*
X0092848Y0024683D02*
X0064660Y0024683D01*
X0064660Y0024684D02*
X0092848Y0024684D01*
X0092848Y0024685D02*
X0064660Y0024685D01*
X0064660Y0024686D02*
X0092848Y0024686D01*
X0092848Y0024687D02*
X0064660Y0024687D01*
X0064660Y0024688D02*
X0092848Y0024688D01*
X0092848Y0024689D02*
X0064660Y0024689D01*
X0064660Y0024690D02*
X0092848Y0024690D01*
X0092848Y0024691D02*
X0064660Y0024691D01*
X0064660Y0024692D02*
X0092848Y0024692D01*
X0092848Y0024693D02*
X0064660Y0024693D01*
X0064660Y0024694D02*
X0092848Y0024694D01*
X0092848Y0024695D02*
X0064660Y0024695D01*
X0064660Y0024696D02*
X0092848Y0024696D01*
X0092848Y0024697D02*
X0064660Y0024697D01*
X0064660Y0024698D02*
X0092848Y0024698D01*
X0092848Y0024699D02*
X0064660Y0024699D01*
X0064660Y0024700D02*
X0092848Y0024700D01*
X0092848Y0024701D02*
X0064660Y0024701D01*
X0064660Y0024702D02*
X0092848Y0024702D01*
X0092848Y0024703D02*
X0064660Y0024703D01*
X0064660Y0024704D02*
X0092848Y0024704D01*
X0092848Y0024705D02*
X0064659Y0024705D01*
X0064659Y0024706D02*
X0092848Y0024706D01*
X0092848Y0024707D02*
X0064659Y0024707D01*
X0064659Y0024708D02*
X0092848Y0024708D01*
X0092848Y0024709D02*
X0064659Y0024709D01*
X0064659Y0024710D02*
X0092848Y0024710D01*
X0092848Y0024711D02*
X0064659Y0024711D01*
X0064659Y0024712D02*
X0092848Y0024712D01*
X0092848Y0024713D02*
X0064659Y0024713D01*
X0064659Y0024714D02*
X0092848Y0024714D01*
X0092848Y0024715D02*
X0064659Y0024715D01*
X0064659Y0024716D02*
X0092848Y0024716D01*
X0092848Y0024717D02*
X0064659Y0024717D01*
X0064659Y0024718D02*
X0092848Y0024718D01*
X0092848Y0024719D02*
X0064659Y0024719D01*
X0092848Y0024719D01*
X0092848Y0024720D02*
X0064659Y0024720D01*
X0064659Y0024721D02*
X0092848Y0024721D01*
X0092848Y0024722D02*
X0064659Y0024722D01*
X0064659Y0024723D02*
X0092848Y0024723D01*
X0092848Y0024724D02*
X0064659Y0024724D01*
X0064659Y0024725D02*
X0092848Y0024725D01*
X0092848Y0024726D02*
X0064659Y0024726D01*
X0064659Y0024727D02*
X0092848Y0024727D01*
X0092848Y0024728D02*
X0064659Y0024728D01*
X0064658Y0024729D02*
X0092848Y0024729D01*
X0092848Y0024730D02*
X0064658Y0024730D01*
X0064658Y0024731D02*
X0092848Y0024731D01*
X0092848Y0024732D02*
X0064658Y0024732D01*
X0064658Y0024733D02*
X0092848Y0024733D01*
X0092848Y0024734D02*
X0064658Y0024734D01*
X0064658Y0024735D02*
X0092848Y0024735D01*
X0092848Y0024736D02*
X0064658Y0024736D01*
X0064658Y0024737D02*
X0092848Y0024737D01*
X0092848Y0024738D02*
X0064658Y0024738D01*
X0064658Y0024739D02*
X0092848Y0024739D01*
X0092848Y0024740D02*
X0064658Y0024740D01*
X0064658Y0024741D02*
X0092848Y0024741D01*
X0092848Y0024742D02*
X0064658Y0024742D01*
X0064658Y0024743D02*
X0092848Y0024743D01*
X0092848Y0024744D02*
X0064658Y0024744D01*
X0064658Y0024745D02*
X0092848Y0024745D01*
X0092848Y0024746D02*
X0064658Y0024746D01*
X0064658Y0024747D02*
X0092848Y0024747D01*
X0092848Y0024748D02*
X0064658Y0024748D01*
X0064658Y0024749D02*
X0092848Y0024749D01*
X0092848Y0024750D02*
X0064658Y0024750D01*
X0064658Y0024751D02*
X0092848Y0024751D01*
X0092848Y0024752D02*
X0064658Y0024752D01*
X0064657Y0024753D02*
X0092848Y0024753D01*
X0092848Y0024754D02*
X0064657Y0024754D01*
X0064657Y0024755D02*
X0092848Y0024755D01*
X0092848Y0024756D02*
X0064657Y0024756D01*
X0064657Y0024757D02*
X0092848Y0024757D01*
X0092848Y0024758D02*
X0064657Y0024758D01*
X0064657Y0024759D02*
X0092848Y0024759D01*
X0092848Y0024760D02*
X0064657Y0024760D01*
X0064657Y0024761D02*
X0092848Y0024761D01*
X0092848Y0024762D02*
X0064657Y0024762D01*
X0064657Y0024763D02*
X0092848Y0024763D01*
X0092848Y0024764D02*
X0064657Y0024764D01*
X0064657Y0024765D02*
X0092848Y0024765D01*
X0092848Y0024766D02*
X0064657Y0024766D01*
X0064657Y0024767D02*
X0092848Y0024767D01*
X0092848Y0024768D02*
X0064657Y0024768D01*
X0064657Y0024769D02*
X0092848Y0024769D01*
X0092848Y0024770D02*
X0064657Y0024770D01*
X0064657Y0024771D02*
X0092848Y0024771D01*
X0092848Y0024772D02*
X0064657Y0024772D01*
X0064657Y0024773D02*
X0092848Y0024773D01*
X0092848Y0024774D02*
X0064657Y0024774D01*
X0064657Y0024775D02*
X0092848Y0024775D01*
X0092848Y0024776D02*
X0064657Y0024776D01*
X0064657Y0024777D02*
X0092848Y0024777D01*
X0092848Y0024778D02*
X0064656Y0024778D01*
X0064656Y0024779D02*
X0092848Y0024779D01*
X0092848Y0024780D02*
X0064656Y0024780D01*
X0064656Y0024781D02*
X0092848Y0024781D01*
X0064656Y0024781D01*
X0064656Y0024782D02*
X0092848Y0024782D01*
X0092848Y0024783D02*
X0064656Y0024783D01*
X0064656Y0024784D02*
X0092848Y0024784D01*
X0092848Y0024785D02*
X0064656Y0024785D01*
X0064656Y0024786D02*
X0092848Y0024786D01*
X0092848Y0024787D02*
X0064656Y0024787D01*
X0064656Y0024788D02*
X0092848Y0024788D01*
X0092848Y0024789D02*
X0064656Y0024789D01*
X0064656Y0024790D02*
X0092848Y0024790D01*
X0092848Y0024791D02*
X0064656Y0024791D01*
X0064656Y0024792D02*
X0092848Y0024792D01*
X0092848Y0024793D02*
X0064656Y0024793D01*
X0064656Y0024794D02*
X0092848Y0024794D01*
X0092848Y0024795D02*
X0064656Y0024795D01*
X0064656Y0024796D02*
X0092848Y0024796D01*
X0092848Y0024797D02*
X0064656Y0024797D01*
X0064656Y0024798D02*
X0092848Y0024798D01*
X0092848Y0024799D02*
X0064656Y0024799D01*
X0064656Y0024800D02*
X0092848Y0024800D01*
X0092848Y0024801D02*
X0064655Y0024801D01*
X0064655Y0024802D02*
X0092848Y0024802D01*
X0092848Y0024803D02*
X0064655Y0024803D01*
X0064655Y0024804D02*
X0092848Y0024804D01*
X0092848Y0024805D02*
X0064655Y0024805D01*
X0064655Y0024806D02*
X0092848Y0024806D01*
X0092848Y0024807D02*
X0064655Y0024807D01*
X0064655Y0024808D02*
X0092848Y0024808D01*
X0092848Y0024809D02*
X0064655Y0024809D01*
X0064655Y0024810D02*
X0092848Y0024810D01*
X0092848Y0024811D02*
X0064655Y0024811D01*
X0064655Y0024812D02*
X0092848Y0024812D01*
X0092848Y0024813D02*
X0064655Y0024813D01*
X0064655Y0024814D02*
X0092848Y0024814D01*
X0092848Y0024815D02*
X0064655Y0024815D01*
X0064655Y0024816D02*
X0092848Y0024816D01*
X0092848Y0024817D02*
X0064655Y0024817D01*
X0064655Y0024818D02*
X0092848Y0024818D01*
X0092848Y0024819D02*
X0064655Y0024819D01*
X0064655Y0024820D02*
X0092848Y0024820D01*
X0092848Y0024821D02*
X0064655Y0024821D01*
X0064655Y0024822D02*
X0092848Y0024822D01*
X0092848Y0024823D02*
X0064655Y0024823D01*
X0064655Y0024824D02*
X0092848Y0024824D01*
X0092848Y0024825D02*
X0064655Y0024825D01*
X0064654Y0024826D02*
X0092848Y0024826D01*
X0092848Y0024827D02*
X0064654Y0024827D01*
X0064654Y0024828D02*
X0092848Y0024828D01*
X0092848Y0024829D02*
X0064654Y0024829D01*
X0064654Y0024830D02*
X0092848Y0024830D01*
X0092848Y0024831D02*
X0064654Y0024831D01*
X0064654Y0024832D02*
X0092848Y0024832D01*
X0092848Y0024833D02*
X0064654Y0024833D01*
X0064654Y0024834D02*
X0092848Y0024834D01*
X0092848Y0024835D02*
X0064654Y0024835D01*
X0064654Y0024836D02*
X0092848Y0024836D01*
X0092848Y0024837D02*
X0064654Y0024837D01*
X0064654Y0024838D02*
X0092848Y0024838D01*
X0092848Y0024839D02*
X0064654Y0024839D01*
X0064654Y0024840D02*
X0092848Y0024840D01*
X0092848Y0024841D02*
X0064654Y0024841D01*
X0064654Y0024842D02*
X0092848Y0024842D01*
X0092848Y0024843D02*
X0064654Y0024843D01*
X0064654Y0024844D02*
X0092848Y0024844D01*
X0064654Y0024844D01*
X0064654Y0024845D02*
X0092848Y0024845D01*
X0092848Y0024846D02*
X0064654Y0024846D01*
X0064654Y0024847D02*
X0092848Y0024847D01*
X0092848Y0024848D02*
X0064654Y0024848D01*
X0064653Y0024849D02*
X0092848Y0024849D01*
X0092848Y0024850D02*
X0064653Y0024850D01*
X0064653Y0024851D02*
X0092848Y0024851D01*
X0092848Y0024852D02*
X0064653Y0024852D01*
X0064653Y0024853D02*
X0092848Y0024853D01*
X0092848Y0024854D02*
X0064653Y0024854D01*
X0064653Y0024855D02*
X0092848Y0024855D01*
X0092848Y0024856D02*
X0064653Y0024856D01*
X0064653Y0024857D02*
X0092848Y0024857D01*
X0092848Y0024858D02*
X0064653Y0024858D01*
X0064653Y0024859D02*
X0092848Y0024859D01*
X0092848Y0024860D02*
X0064653Y0024860D01*
X0064653Y0024861D02*
X0092848Y0024861D01*
X0092848Y0024862D02*
X0064653Y0024862D01*
X0064653Y0024863D02*
X0092848Y0024863D01*
X0092848Y0024864D02*
X0064653Y0024864D01*
X0064653Y0024865D02*
X0092848Y0024865D01*
X0092848Y0024866D02*
X0064653Y0024866D01*
X0064653Y0024867D02*
X0092848Y0024867D01*
X0092848Y0024868D02*
X0064653Y0024868D01*
X0064653Y0024869D02*
X0092848Y0024869D01*
X0092848Y0024870D02*
X0064653Y0024870D01*
X0064653Y0024871D02*
X0092848Y0024871D01*
X0092848Y0024872D02*
X0064653Y0024872D01*
X0064653Y0024873D02*
X0092848Y0024873D01*
X0092848Y0024874D02*
X0064652Y0024874D01*
X0064652Y0024875D02*
X0092848Y0024875D01*
X0092848Y0024876D02*
X0064652Y0024876D01*
X0064652Y0024877D02*
X0092848Y0024877D01*
X0092848Y0024878D02*
X0064652Y0024878D01*
X0064652Y0024879D02*
X0092848Y0024879D01*
X0092848Y0024880D02*
X0064652Y0024880D01*
X0064652Y0024881D02*
X0092848Y0024881D01*
X0092848Y0024882D02*
X0064652Y0024882D01*
X0064652Y0024883D02*
X0092848Y0024883D01*
X0092848Y0024884D02*
X0064652Y0024884D01*
X0064652Y0024885D02*
X0092848Y0024885D01*
X0092848Y0024886D02*
X0064652Y0024886D01*
X0064652Y0024887D02*
X0092848Y0024887D01*
X0092848Y0024888D02*
X0064652Y0024888D01*
X0064652Y0024889D02*
X0092848Y0024889D01*
X0092848Y0024890D02*
X0064652Y0024890D01*
X0064652Y0024891D02*
X0092848Y0024891D01*
X0092848Y0024892D02*
X0064652Y0024892D01*
X0064652Y0024893D02*
X0092848Y0024893D01*
X0092848Y0024894D02*
X0064652Y0024894D01*
X0064652Y0024895D02*
X0092848Y0024895D01*
X0092848Y0024896D02*
X0064652Y0024896D01*
X0064652Y0024897D02*
X0092848Y0024897D01*
X0092848Y0024898D02*
X0064651Y0024898D01*
X0064651Y0024899D02*
X0092848Y0024899D01*
X0092848Y0024900D02*
X0064651Y0024900D01*
X0064651Y0024901D02*
X0092848Y0024901D01*
X0092848Y0024902D02*
X0064651Y0024902D01*
X0064651Y0024903D02*
X0092848Y0024903D01*
X0092848Y0024904D02*
X0064651Y0024904D01*
X0064651Y0024905D02*
X0092848Y0024905D01*
X0092848Y0024906D02*
X0064651Y0024906D01*
X0092848Y0024906D01*
X0092848Y0024907D02*
X0064651Y0024907D01*
X0064651Y0024908D02*
X0092848Y0024908D01*
X0092848Y0024909D02*
X0064651Y0024909D01*
X0064651Y0024910D02*
X0092848Y0024910D01*
X0092848Y0024911D02*
X0064651Y0024911D01*
X0064651Y0024912D02*
X0092848Y0024912D01*
X0092848Y0024913D02*
X0064651Y0024913D01*
X0064651Y0024914D02*
X0092848Y0024914D01*
X0092848Y0024915D02*
X0064651Y0024915D01*
X0064651Y0024916D02*
X0092848Y0024916D01*
X0092848Y0024917D02*
X0064651Y0024917D01*
X0064651Y0024918D02*
X0092848Y0024918D01*
X0092848Y0024919D02*
X0064651Y0024919D01*
X0064651Y0024920D02*
X0092848Y0024920D01*
X0092848Y0024921D02*
X0064651Y0024921D01*
X0064650Y0024922D02*
X0092848Y0024922D01*
X0092848Y0024923D02*
X0064650Y0024923D01*
X0064650Y0024924D02*
X0092848Y0024924D01*
X0092848Y0024925D02*
X0064650Y0024925D01*
X0064650Y0024926D02*
X0092848Y0024926D01*
X0092848Y0024927D02*
X0064650Y0024927D01*
X0064650Y0024928D02*
X0092848Y0024928D01*
X0092848Y0024929D02*
X0064650Y0024929D01*
X0064650Y0024930D02*
X0092848Y0024930D01*
X0092848Y0024931D02*
X0064650Y0024931D01*
X0064650Y0024932D02*
X0092848Y0024932D01*
X0092848Y0024933D02*
X0064650Y0024933D01*
X0064650Y0024934D02*
X0092848Y0024934D01*
X0092848Y0024935D02*
X0064650Y0024935D01*
X0064650Y0024936D02*
X0092848Y0024936D01*
X0092848Y0024937D02*
X0064650Y0024937D01*
X0064650Y0024938D02*
X0092848Y0024938D01*
X0092848Y0024939D02*
X0064650Y0024939D01*
X0064650Y0024940D02*
X0092848Y0024940D01*
X0092848Y0024941D02*
X0064650Y0024941D01*
X0064650Y0024942D02*
X0092848Y0024942D01*
X0092848Y0024943D02*
X0064650Y0024943D01*
X0064650Y0024944D02*
X0092848Y0024944D01*
X0092848Y0024945D02*
X0064650Y0024945D01*
X0064649Y0024946D02*
X0092848Y0024946D01*
X0092848Y0024947D02*
X0064649Y0024947D01*
X0064649Y0024948D02*
X0092848Y0024948D01*
X0092848Y0024949D02*
X0064649Y0024949D01*
X0064649Y0024950D02*
X0092848Y0024950D01*
X0092848Y0024951D02*
X0064649Y0024951D01*
X0064649Y0024952D02*
X0092848Y0024952D01*
X0092848Y0024953D02*
X0064649Y0024953D01*
X0064649Y0024954D02*
X0092848Y0024954D01*
X0092848Y0024955D02*
X0064649Y0024955D01*
X0064649Y0024956D02*
X0092848Y0024956D01*
X0092848Y0024957D02*
X0064649Y0024957D01*
X0064649Y0024958D02*
X0092848Y0024958D01*
X0092848Y0024959D02*
X0064649Y0024959D01*
X0064649Y0024960D02*
X0092848Y0024960D01*
X0092848Y0024961D02*
X0064649Y0024961D01*
X0064649Y0024962D02*
X0092848Y0024962D01*
X0092848Y0024963D02*
X0064649Y0024963D01*
X0064649Y0024964D02*
X0092848Y0024964D01*
X0092848Y0024965D02*
X0064649Y0024965D01*
X0064649Y0024966D02*
X0092848Y0024966D01*
X0092848Y0024967D02*
X0064649Y0024967D01*
X0064649Y0024968D02*
X0092848Y0024968D01*
X0092848Y0024969D02*
X0064649Y0024969D01*
X0092848Y0024969D01*
X0092848Y0024970D02*
X0064648Y0024970D01*
X0064648Y0024971D02*
X0092848Y0024971D01*
X0092848Y0024972D02*
X0064648Y0024972D01*
X0064648Y0024973D02*
X0092848Y0024973D01*
X0092848Y0024974D02*
X0064648Y0024974D01*
X0064648Y0024975D02*
X0092848Y0024975D01*
X0092848Y0024976D02*
X0064648Y0024976D01*
X0064648Y0024977D02*
X0092848Y0024977D01*
X0092848Y0024978D02*
X0064648Y0024978D01*
X0064648Y0024979D02*
X0092848Y0024979D01*
X0092848Y0024980D02*
X0064648Y0024980D01*
X0064648Y0024981D02*
X0092848Y0024981D01*
X0092848Y0024982D02*
X0064648Y0024982D01*
X0064648Y0024983D02*
X0092848Y0024983D01*
X0092848Y0024984D02*
X0064648Y0024984D01*
X0064648Y0024985D02*
X0092848Y0024985D01*
X0092848Y0024986D02*
X0064648Y0024986D01*
X0064648Y0024987D02*
X0092848Y0024987D01*
X0092848Y0024988D02*
X0064648Y0024988D01*
X0064648Y0024989D02*
X0092848Y0024989D01*
X0092848Y0024990D02*
X0064648Y0024990D01*
X0064648Y0024991D02*
X0092848Y0024991D01*
X0092848Y0024992D02*
X0064648Y0024992D01*
X0064648Y0024993D02*
X0092848Y0024993D01*
X0092848Y0024994D02*
X0064647Y0024994D01*
X0064647Y0024995D02*
X0092848Y0024995D01*
X0092848Y0024996D02*
X0064647Y0024996D01*
X0064647Y0024997D02*
X0092848Y0024997D01*
X0092848Y0024998D02*
X0064647Y0024998D01*
X0064647Y0024999D02*
X0092848Y0024999D01*
X0092848Y0025000D02*
X0064647Y0025000D01*
X0064647Y0025001D02*
X0092848Y0025001D01*
X0092848Y0025002D02*
X0064647Y0025002D01*
X0064647Y0025003D02*
X0092848Y0025003D01*
X0092848Y0025004D02*
X0064647Y0025004D01*
X0064647Y0025005D02*
X0092848Y0025005D01*
X0092848Y0025006D02*
X0064647Y0025006D01*
X0064647Y0025007D02*
X0092848Y0025007D01*
X0092848Y0025008D02*
X0064647Y0025008D01*
X0064647Y0025009D02*
X0092848Y0025009D01*
X0092848Y0025010D02*
X0064647Y0025010D01*
X0064647Y0025011D02*
X0092848Y0025011D01*
X0092848Y0025012D02*
X0064647Y0025012D01*
X0064647Y0025013D02*
X0092848Y0025013D01*
X0092848Y0025014D02*
X0064647Y0025014D01*
X0064647Y0025015D02*
X0092848Y0025015D01*
X0092848Y0025016D02*
X0064647Y0025016D01*
X0064647Y0025017D02*
X0092848Y0025017D01*
X0092848Y0025018D02*
X0064647Y0025018D01*
X0064646Y0025019D02*
X0092848Y0025019D01*
X0092848Y0025020D02*
X0064646Y0025020D01*
X0064646Y0025021D02*
X0092848Y0025021D01*
X0092848Y0025022D02*
X0064646Y0025022D01*
X0064646Y0025023D02*
X0092848Y0025023D01*
X0092848Y0025024D02*
X0064646Y0025024D01*
X0064646Y0025025D02*
X0092848Y0025025D01*
X0092848Y0025026D02*
X0064646Y0025026D01*
X0064646Y0025027D02*
X0092848Y0025027D01*
X0092848Y0025028D02*
X0064646Y0025028D01*
X0064646Y0025029D02*
X0092848Y0025029D01*
X0092848Y0025030D02*
X0064646Y0025030D01*
X0064646Y0025031D02*
X0092848Y0025031D01*
X0064646Y0025031D01*
X0064646Y0025032D02*
X0092848Y0025032D01*
X0092848Y0025033D02*
X0064646Y0025033D01*
X0064646Y0025034D02*
X0092848Y0025034D01*
X0092848Y0025035D02*
X0064646Y0025035D01*
X0064646Y0025036D02*
X0092848Y0025036D01*
X0092848Y0025037D02*
X0064646Y0025037D01*
X0064646Y0025038D02*
X0092848Y0025038D01*
X0092848Y0025039D02*
X0064646Y0025039D01*
X0064646Y0025040D02*
X0092848Y0025040D01*
X0092848Y0025041D02*
X0064646Y0025041D01*
X0064645Y0025042D02*
X0092848Y0025042D01*
X0092848Y0025043D02*
X0064645Y0025043D01*
X0064645Y0025044D02*
X0092848Y0025044D01*
X0092848Y0025045D02*
X0064645Y0025045D01*
X0064645Y0025046D02*
X0092848Y0025046D01*
X0092848Y0025047D02*
X0064645Y0025047D01*
X0064645Y0025048D02*
X0092848Y0025048D01*
X0092848Y0025049D02*
X0064645Y0025049D01*
X0064645Y0025050D02*
X0092848Y0025050D01*
X0092848Y0025051D02*
X0064645Y0025051D01*
X0064645Y0025052D02*
X0092848Y0025052D01*
X0092848Y0025053D02*
X0064645Y0025053D01*
X0064645Y0025054D02*
X0092848Y0025054D01*
X0092848Y0025055D02*
X0064645Y0025055D01*
X0064645Y0025056D02*
X0092848Y0025056D01*
X0092848Y0025057D02*
X0064645Y0025057D01*
X0064645Y0025058D02*
X0092848Y0025058D01*
X0092848Y0025059D02*
X0064645Y0025059D01*
X0064645Y0025060D02*
X0092848Y0025060D01*
X0092848Y0025061D02*
X0064645Y0025061D01*
X0064645Y0025062D02*
X0092848Y0025062D01*
X0092848Y0025063D02*
X0064645Y0025063D01*
X0064645Y0025064D02*
X0092848Y0025064D01*
X0092848Y0025065D02*
X0064645Y0025065D01*
X0064645Y0025066D02*
X0092848Y0025066D01*
X0092848Y0025067D02*
X0064644Y0025067D01*
X0064644Y0025068D02*
X0092848Y0025068D01*
X0092848Y0025069D02*
X0064644Y0025069D01*
X0064644Y0025070D02*
X0092848Y0025070D01*
X0092848Y0025071D02*
X0064644Y0025071D01*
X0064644Y0025072D02*
X0092848Y0025072D01*
X0092848Y0025073D02*
X0064644Y0025073D01*
X0064644Y0025074D02*
X0092848Y0025074D01*
X0092848Y0025075D02*
X0064644Y0025075D01*
X0064644Y0025076D02*
X0092848Y0025076D01*
X0092848Y0025077D02*
X0064644Y0025077D01*
X0064644Y0025078D02*
X0092848Y0025078D01*
X0092848Y0025079D02*
X0064644Y0025079D01*
X0064644Y0025080D02*
X0092848Y0025080D01*
X0092848Y0025081D02*
X0064644Y0025081D01*
X0064644Y0025082D02*
X0092848Y0025082D01*
X0092848Y0025083D02*
X0064644Y0025083D01*
X0064644Y0025084D02*
X0092848Y0025084D01*
X0092848Y0025085D02*
X0064644Y0025085D01*
X0064644Y0025086D02*
X0092848Y0025086D01*
X0092848Y0025087D02*
X0064644Y0025087D01*
X0064644Y0025088D02*
X0092848Y0025088D01*
X0092848Y0025089D02*
X0064644Y0025089D01*
X0064644Y0025090D02*
X0092848Y0025090D01*
X0092848Y0025091D02*
X0064643Y0025091D01*
X0064643Y0025092D02*
X0092848Y0025092D01*
X0092848Y0025093D02*
X0064643Y0025093D01*
X0064643Y0025094D02*
X0092848Y0025094D01*
X0064643Y0025094D01*
X0064643Y0025095D02*
X0092848Y0025095D01*
X0092848Y0025096D02*
X0064643Y0025096D01*
X0064643Y0025097D02*
X0092848Y0025097D01*
X0092848Y0025098D02*
X0064643Y0025098D01*
X0064643Y0025099D02*
X0092848Y0025099D01*
X0092848Y0025100D02*
X0064936Y0025100D01*
X0064681Y0024190D02*
X0092443Y0024190D01*
X0091853Y0024189D02*
X0064681Y0024189D01*
X0064681Y0024188D02*
X0091264Y0024188D01*
X0090675Y0024187D02*
X0064681Y0024187D01*
X0064681Y0024186D02*
X0090086Y0024186D01*
X0089496Y0024185D02*
X0064681Y0024185D01*
X0064681Y0024184D02*
X0088907Y0024184D01*
X0088318Y0024183D02*
X0064681Y0024183D01*
X0064681Y0024182D02*
X0087729Y0024182D01*
X0087140Y0024181D02*
X0064681Y0024181D01*
X0064681Y0024180D02*
X0086550Y0024180D01*
X0085961Y0024179D02*
X0064681Y0024179D01*
X0064681Y0024178D02*
X0085372Y0024178D01*
X0084783Y0024177D02*
X0064681Y0024177D01*
X0064681Y0024176D02*
X0084193Y0024176D01*
X0083604Y0024175D02*
X0064681Y0024175D01*
X0064681Y0024174D02*
X0083015Y0024174D01*
X0082426Y0024173D02*
X0064682Y0024173D01*
X0064682Y0024172D02*
X0081837Y0024172D01*
X0081247Y0024171D02*
X0064682Y0024171D01*
X0064682Y0024170D02*
X0080658Y0024170D01*
X0080069Y0024169D02*
X0064682Y0024169D01*
X0064682Y0024168D02*
X0079480Y0024168D01*
X0078890Y0024167D02*
X0064682Y0024167D01*
X0064682Y0024166D02*
X0078301Y0024166D01*
X0077712Y0024165D02*
X0064682Y0024165D01*
X0064682Y0024164D02*
X0077123Y0024164D01*
X0076534Y0024163D02*
X0064682Y0024163D01*
X0064682Y0024162D02*
X0075944Y0024162D01*
X0075355Y0024161D02*
X0064682Y0024161D01*
X0064682Y0024160D02*
X0074766Y0024160D01*
X0074177Y0024159D02*
X0064682Y0024159D01*
X0064682Y0024158D02*
X0073587Y0024158D01*
X0072998Y0024157D02*
X0064682Y0024157D01*
X0064682Y0024156D02*
X0072409Y0024156D01*
X0071820Y0024156D02*
X0064682Y0024156D01*
X0064682Y0024155D02*
X0071231Y0024155D01*
X0070641Y0024154D02*
X0064682Y0024154D01*
X0064682Y0024153D02*
X0070052Y0024153D01*
X0069463Y0024152D02*
X0064682Y0024152D01*
X0064682Y0024151D02*
X0068874Y0024151D01*
X0068284Y0024150D02*
X0064683Y0024150D01*
X0064683Y0024149D02*
X0067695Y0024149D01*
X0067106Y0024148D02*
X0064683Y0024148D01*
X0064683Y0024147D02*
X0066517Y0024147D01*
X0065927Y0024146D02*
X0064683Y0024146D01*
X0064683Y0024145D02*
X0065338Y0024145D01*
X0064749Y0024144D02*
X0064683Y0024144D01*
X0065913Y0025101D02*
X0092848Y0025101D01*
X0092848Y0025102D02*
X0066890Y0025102D01*
X0067867Y0025103D02*
X0092848Y0025103D01*
X0092848Y0025104D02*
X0068843Y0025104D01*
X0069820Y0025105D02*
X0092848Y0025105D01*
X0092848Y0025106D02*
X0070797Y0025106D01*
X0071774Y0025107D02*
X0092848Y0025107D01*
X0092848Y0025108D02*
X0072750Y0025108D01*
X0073727Y0025109D02*
X0092848Y0025109D01*
X0092848Y0025110D02*
X0074704Y0025110D01*
X0075681Y0025111D02*
X0092848Y0025111D01*
X0092848Y0025112D02*
X0076658Y0025112D01*
X0077634Y0025113D02*
X0092848Y0025113D01*
X0092848Y0025114D02*
X0078611Y0025114D01*
X0079588Y0025115D02*
X0092848Y0025115D01*
X0092848Y0025116D02*
X0080565Y0025116D01*
X0081542Y0025117D02*
X0092848Y0025117D01*
X0092848Y0025118D02*
X0082518Y0025118D01*
X0083495Y0025119D02*
X0092848Y0025119D01*
X0092848Y0025120D02*
X0084472Y0025120D01*
X0085449Y0025121D02*
X0092848Y0025121D01*
X0092848Y0025122D02*
X0086426Y0025122D01*
X0087402Y0025123D02*
X0092848Y0025123D01*
X0092848Y0025124D02*
X0088379Y0025124D01*
X0089356Y0025125D02*
X0092848Y0025125D01*
X0092848Y0025126D02*
X0090333Y0025126D01*
X0091309Y0025127D02*
X0092848Y0025127D01*
X0092848Y0025128D02*
X0092286Y0025128D01*
X0092875Y0007364D02*
X0064807Y0007364D01*
X0064807Y0007363D02*
X0092875Y0007363D01*
X0092875Y0007362D02*
X0064807Y0007362D01*
X0064807Y0007361D02*
X0092875Y0007361D01*
X0092875Y0007360D02*
X0064807Y0007360D01*
X0064807Y0007359D02*
X0092875Y0007359D01*
X0092875Y0007358D02*
X0064807Y0007358D01*
X0064807Y0007357D02*
X0092875Y0007357D01*
X0092875Y0007356D02*
X0064807Y0007356D01*
X0064807Y0007355D02*
X0092875Y0007355D01*
X0092875Y0007354D02*
X0064807Y0007354D01*
X0064807Y0007353D02*
X0092875Y0007353D01*
X0092875Y0007352D02*
X0064806Y0007352D01*
X0064806Y0007351D02*
X0092875Y0007351D01*
X0092875Y0007350D02*
X0064806Y0007350D01*
X0064806Y0007349D02*
X0092875Y0007349D01*
X0092875Y0007348D02*
X0064806Y0007348D01*
X0064806Y0007347D02*
X0092875Y0007347D01*
X0092875Y0007346D02*
X0064806Y0007346D01*
X0064806Y0007345D02*
X0092875Y0007345D01*
X0092875Y0007344D02*
X0064806Y0007344D01*
X0092875Y0007344D01*
X0092875Y0007343D02*
X0064806Y0007343D01*
X0064806Y0007342D02*
X0092875Y0007342D01*
X0092875Y0007341D02*
X0064806Y0007341D01*
X0064805Y0007340D02*
X0092875Y0007340D01*
X0092875Y0007339D02*
X0064805Y0007339D01*
X0064805Y0007338D02*
X0092875Y0007338D01*
X0092875Y0007337D02*
X0064805Y0007337D01*
X0064805Y0007336D02*
X0092875Y0007336D01*
X0092875Y0007335D02*
X0064805Y0007335D01*
X0064805Y0007334D02*
X0092875Y0007334D01*
X0092875Y0007333D02*
X0064805Y0007333D01*
X0064805Y0007332D02*
X0092875Y0007332D01*
X0092875Y0007331D02*
X0064805Y0007331D01*
X0064805Y0007330D02*
X0092875Y0007330D01*
X0092875Y0007329D02*
X0064805Y0007329D01*
X0064805Y0007328D02*
X0092875Y0007328D01*
X0092875Y0007327D02*
X0064804Y0007327D01*
X0064804Y0007326D02*
X0092875Y0007326D01*
X0092875Y0007325D02*
X0064804Y0007325D01*
X0064804Y0007324D02*
X0092875Y0007324D01*
X0092875Y0007323D02*
X0064804Y0007323D01*
X0064804Y0007322D02*
X0092875Y0007322D01*
X0092875Y0007321D02*
X0064804Y0007321D01*
X0064804Y0007320D02*
X0092875Y0007320D01*
X0092875Y0007319D02*
X0064804Y0007319D01*
X0064804Y0007318D02*
X0092875Y0007318D01*
X0092875Y0007317D02*
X0064804Y0007317D01*
X0064804Y0007316D02*
X0092875Y0007316D01*
X0092875Y0007315D02*
X0064804Y0007315D01*
X0064803Y0007314D02*
X0092875Y0007314D01*
X0092875Y0007313D02*
X0064803Y0007313D01*
X0064803Y0007312D02*
X0092875Y0007312D01*
X0092875Y0007311D02*
X0064803Y0007311D01*
X0064803Y0007310D02*
X0092875Y0007310D01*
X0092875Y0007309D02*
X0064803Y0007309D01*
X0064803Y0007308D02*
X0092875Y0007308D01*
X0092875Y0007307D02*
X0064803Y0007307D01*
X0064803Y0007306D02*
X0092875Y0007306D01*
X0092875Y0007305D02*
X0064803Y0007305D01*
X0064803Y0007304D02*
X0092875Y0007304D01*
X0092875Y0007303D02*
X0064803Y0007303D01*
X0064803Y0007302D02*
X0092875Y0007302D01*
X0092875Y0007301D02*
X0064802Y0007301D01*
X0064802Y0007300D02*
X0092875Y0007300D01*
X0092875Y0007299D02*
X0064802Y0007299D01*
X0064802Y0007298D02*
X0092875Y0007298D01*
X0092875Y0007297D02*
X0064802Y0007297D01*
X0064802Y0007296D02*
X0092875Y0007296D01*
X0092875Y0007295D02*
X0064802Y0007295D01*
X0064802Y0007294D02*
X0092875Y0007294D01*
X0092875Y0007293D02*
X0064802Y0007293D01*
X0064802Y0007292D02*
X0092875Y0007292D01*
X0092875Y0007291D02*
X0064802Y0007291D01*
X0064802Y0007290D02*
X0092875Y0007290D01*
X0092875Y0007289D02*
X0064802Y0007289D01*
X0064801Y0007288D02*
X0092875Y0007288D01*
X0092875Y0007287D02*
X0064801Y0007287D01*
X0064801Y0007286D02*
X0092875Y0007286D01*
X0092875Y0007285D02*
X0064801Y0007285D01*
X0064801Y0007284D02*
X0092875Y0007284D01*
X0092875Y0007283D02*
X0064801Y0007283D01*
X0064801Y0007282D02*
X0092875Y0007282D01*
X0092875Y0007281D02*
X0064801Y0007281D01*
X0092875Y0007281D01*
X0092875Y0007280D02*
X0064801Y0007280D01*
X0064801Y0007279D02*
X0092875Y0007279D01*
X0092875Y0007278D02*
X0064801Y0007278D01*
X0064800Y0007277D02*
X0092875Y0007277D01*
X0092875Y0007276D02*
X0064800Y0007276D01*
X0064800Y0007275D02*
X0092875Y0007275D01*
X0092875Y0007274D02*
X0064800Y0007274D01*
X0064800Y0007273D02*
X0092875Y0007273D01*
X0092875Y0007272D02*
X0064800Y0007272D01*
X0064800Y0007271D02*
X0092875Y0007271D01*
X0092875Y0007270D02*
X0064800Y0007270D01*
X0064800Y0007269D02*
X0092875Y0007269D01*
X0092875Y0007268D02*
X0064800Y0007268D01*
X0064800Y0007267D02*
X0092875Y0007267D01*
X0092875Y0007266D02*
X0064800Y0007266D01*
X0064800Y0007265D02*
X0092875Y0007265D01*
X0092875Y0007264D02*
X0064799Y0007264D01*
X0064799Y0007263D02*
X0092875Y0007263D01*
X0092875Y0007262D02*
X0064799Y0007262D01*
X0064799Y0007261D02*
X0092875Y0007261D01*
X0092875Y0007260D02*
X0064799Y0007260D01*
X0064799Y0007259D02*
X0092875Y0007259D01*
X0092875Y0007258D02*
X0064799Y0007258D01*
X0064799Y0007257D02*
X0092875Y0007257D01*
X0092875Y0007256D02*
X0064799Y0007256D01*
X0064799Y0007255D02*
X0092875Y0007255D01*
X0092875Y0007254D02*
X0064799Y0007254D01*
X0064799Y0007253D02*
X0092875Y0007253D01*
X0092875Y0007252D02*
X0064799Y0007252D01*
X0064798Y0007251D02*
X0092875Y0007251D01*
X0092875Y0007250D02*
X0064798Y0007250D01*
X0064798Y0007249D02*
X0092875Y0007249D01*
X0092875Y0007248D02*
X0064798Y0007248D01*
X0064798Y0007247D02*
X0092875Y0007247D01*
X0092875Y0007246D02*
X0064798Y0007246D01*
X0064798Y0007245D02*
X0092875Y0007245D01*
X0092875Y0007244D02*
X0064798Y0007244D01*
X0064798Y0007243D02*
X0092875Y0007243D01*
X0092875Y0007242D02*
X0064798Y0007242D01*
X0064798Y0007241D02*
X0092875Y0007241D01*
X0092875Y0007240D02*
X0064798Y0007240D01*
X0064798Y0007239D02*
X0092875Y0007239D01*
X0092875Y0007238D02*
X0064797Y0007238D01*
X0064797Y0007237D02*
X0092875Y0007237D01*
X0092875Y0007236D02*
X0064797Y0007236D01*
X0064797Y0007235D02*
X0092875Y0007235D01*
X0092875Y0007234D02*
X0064797Y0007234D01*
X0064797Y0007233D02*
X0092875Y0007233D01*
X0092875Y0007232D02*
X0064797Y0007232D01*
X0064797Y0007231D02*
X0092875Y0007231D01*
X0092875Y0007230D02*
X0064797Y0007230D01*
X0064797Y0007229D02*
X0092875Y0007229D01*
X0092875Y0007228D02*
X0064797Y0007228D01*
X0064797Y0007227D02*
X0092875Y0007227D01*
X0092875Y0007226D02*
X0064797Y0007226D01*
X0064796Y0007225D02*
X0092875Y0007225D01*
X0092875Y0007224D02*
X0064796Y0007224D01*
X0064796Y0007223D02*
X0092875Y0007223D01*
X0092875Y0007222D02*
X0064796Y0007222D01*
X0064796Y0007221D02*
X0092875Y0007221D01*
X0092875Y0007220D02*
X0064796Y0007220D01*
X0064796Y0007219D02*
X0092875Y0007219D01*
X0064796Y0007219D01*
X0064796Y0007218D02*
X0092875Y0007218D01*
X0092875Y0007217D02*
X0064796Y0007217D01*
X0064796Y0007216D02*
X0092875Y0007216D01*
X0092875Y0007215D02*
X0064796Y0007215D01*
X0064796Y0007214D02*
X0092875Y0007214D01*
X0092875Y0007213D02*
X0064795Y0007213D01*
X0064795Y0007212D02*
X0092875Y0007212D01*
X0092875Y0007211D02*
X0064795Y0007211D01*
X0064795Y0007210D02*
X0092875Y0007210D01*
X0092875Y0007209D02*
X0064795Y0007209D01*
X0064795Y0007208D02*
X0092875Y0007208D01*
X0092875Y0007207D02*
X0064795Y0007207D01*
X0064795Y0007206D02*
X0092875Y0007206D01*
X0092875Y0007205D02*
X0064795Y0007205D01*
X0064795Y0007204D02*
X0092875Y0007204D01*
X0092875Y0007203D02*
X0064795Y0007203D01*
X0064795Y0007202D02*
X0092875Y0007202D01*
X0092875Y0007201D02*
X0064795Y0007201D01*
X0064794Y0007200D02*
X0092875Y0007200D01*
X0092875Y0007199D02*
X0064794Y0007199D01*
X0064794Y0007198D02*
X0092875Y0007198D01*
X0092875Y0007197D02*
X0064794Y0007197D01*
X0064794Y0007196D02*
X0092875Y0007196D01*
X0092875Y0007195D02*
X0064794Y0007195D01*
X0064794Y0007194D02*
X0092875Y0007194D01*
X0092875Y0007193D02*
X0064794Y0007193D01*
X0064794Y0007192D02*
X0092875Y0007192D01*
X0092875Y0007191D02*
X0064794Y0007191D01*
X0064794Y0007190D02*
X0092875Y0007190D01*
X0092875Y0007189D02*
X0064794Y0007189D01*
X0064794Y0007188D02*
X0092875Y0007188D01*
X0092875Y0007187D02*
X0064793Y0007187D01*
X0064793Y0007186D02*
X0092875Y0007186D01*
X0092875Y0007185D02*
X0064793Y0007185D01*
X0064793Y0007184D02*
X0092875Y0007184D01*
X0092875Y0007183D02*
X0064793Y0007183D01*
X0064793Y0007182D02*
X0092875Y0007182D01*
X0092875Y0007181D02*
X0064793Y0007181D01*
X0064793Y0007180D02*
X0092875Y0007180D01*
X0092875Y0007179D02*
X0064793Y0007179D01*
X0064793Y0007178D02*
X0092875Y0007178D01*
X0092875Y0007177D02*
X0064793Y0007177D01*
X0064793Y0007176D02*
X0092875Y0007176D01*
X0092875Y0007175D02*
X0064792Y0007175D01*
X0064792Y0007174D02*
X0092875Y0007174D01*
X0092875Y0007173D02*
X0064792Y0007173D01*
X0064792Y0007172D02*
X0092875Y0007172D01*
X0092875Y0007171D02*
X0064792Y0007171D01*
X0064792Y0007170D02*
X0092875Y0007170D01*
X0092875Y0007169D02*
X0064792Y0007169D01*
X0064792Y0007168D02*
X0092875Y0007168D01*
X0092875Y0007167D02*
X0064792Y0007167D01*
X0064792Y0007166D02*
X0092875Y0007166D01*
X0092875Y0007165D02*
X0064792Y0007165D01*
X0064792Y0007164D02*
X0092875Y0007164D01*
X0092875Y0007163D02*
X0064792Y0007163D01*
X0064791Y0007162D02*
X0092875Y0007162D01*
X0092875Y0007161D02*
X0064791Y0007161D01*
X0064791Y0007160D02*
X0092875Y0007160D01*
X0092875Y0007159D02*
X0064791Y0007159D01*
X0064791Y0007158D02*
X0092875Y0007158D01*
X0092875Y0007157D02*
X0064791Y0007157D01*
X0064791Y0007156D02*
X0092875Y0007156D01*
X0064791Y0007156D01*
X0064791Y0007155D02*
X0092875Y0007155D01*
X0092875Y0007154D02*
X0064791Y0007154D01*
X0064791Y0007153D02*
X0092875Y0007153D01*
X0092875Y0007152D02*
X0064791Y0007152D01*
X0064791Y0007151D02*
X0092875Y0007151D01*
X0092875Y0007150D02*
X0064790Y0007150D01*
X0064790Y0007149D02*
X0092875Y0007149D01*
X0092875Y0007148D02*
X0064790Y0007148D01*
X0064790Y0007147D02*
X0092875Y0007147D01*
X0092875Y0007146D02*
X0064790Y0007146D01*
X0064790Y0007145D02*
X0092875Y0007145D01*
X0092875Y0007144D02*
X0064790Y0007144D01*
X0064790Y0007143D02*
X0092875Y0007143D01*
X0092875Y0007142D02*
X0064790Y0007142D01*
X0064790Y0007141D02*
X0092875Y0007141D01*
X0092875Y0007140D02*
X0064790Y0007140D01*
X0064790Y0007139D02*
X0092875Y0007139D01*
X0092875Y0007138D02*
X0064790Y0007138D01*
X0064789Y0007137D02*
X0092875Y0007137D01*
X0092875Y0007136D02*
X0064789Y0007136D01*
X0064789Y0007135D02*
X0092875Y0007135D01*
X0092875Y0007134D02*
X0064789Y0007134D01*
X0064789Y0007133D02*
X0092875Y0007133D01*
X0092875Y0007132D02*
X0064789Y0007132D01*
X0064789Y0007131D02*
X0092875Y0007131D01*
X0092875Y0007130D02*
X0064789Y0007130D01*
X0064789Y0007129D02*
X0092875Y0007129D01*
X0092875Y0007128D02*
X0064789Y0007128D01*
X0064789Y0007127D02*
X0092875Y0007127D01*
X0092875Y0007126D02*
X0064789Y0007126D01*
X0064789Y0007125D02*
X0092875Y0007125D01*
X0092875Y0007124D02*
X0064788Y0007124D01*
X0064788Y0007123D02*
X0092875Y0007123D01*
X0092875Y0007122D02*
X0064788Y0007122D01*
X0064788Y0007121D02*
X0092875Y0007121D01*
X0092875Y0007120D02*
X0064788Y0007120D01*
X0064788Y0007119D02*
X0092875Y0007119D01*
X0092875Y0007118D02*
X0064788Y0007118D01*
X0064788Y0007117D02*
X0092875Y0007117D01*
X0092875Y0007116D02*
X0064788Y0007116D01*
X0064788Y0007115D02*
X0092875Y0007115D01*
X0092875Y0007114D02*
X0064788Y0007114D01*
X0064788Y0007113D02*
X0092875Y0007113D01*
X0092875Y0007112D02*
X0064788Y0007112D01*
X0064787Y0007111D02*
X0092875Y0007111D01*
X0092875Y0007110D02*
X0064787Y0007110D01*
X0064787Y0007109D02*
X0092875Y0007109D01*
X0092875Y0007108D02*
X0064787Y0007108D01*
X0064787Y0007107D02*
X0092875Y0007107D01*
X0092875Y0007106D02*
X0064787Y0007106D01*
X0064787Y0007105D02*
X0092875Y0007105D01*
X0092875Y0007104D02*
X0064787Y0007104D01*
X0064787Y0007103D02*
X0092875Y0007103D01*
X0092875Y0007102D02*
X0064787Y0007102D01*
X0064787Y0007101D02*
X0092875Y0007101D01*
X0092875Y0007100D02*
X0064787Y0007100D01*
X0064787Y0007099D02*
X0092875Y0007099D01*
X0092875Y0007098D02*
X0064786Y0007098D01*
X0064786Y0007097D02*
X0092875Y0007097D01*
X0092875Y0007096D02*
X0064786Y0007096D01*
X0064786Y0007095D02*
X0092875Y0007095D01*
X0092875Y0007094D02*
X0064786Y0007094D01*
X0092875Y0007094D01*
X0092875Y0007093D02*
X0064786Y0007093D01*
X0064786Y0007092D02*
X0092875Y0007092D01*
X0092875Y0007091D02*
X0064786Y0007091D01*
X0064786Y0007090D02*
X0092875Y0007090D01*
X0092875Y0007089D02*
X0064786Y0007089D01*
X0064786Y0007088D02*
X0092875Y0007088D01*
X0092875Y0007087D02*
X0064786Y0007087D01*
X0064785Y0007086D02*
X0092875Y0007086D01*
X0092875Y0007085D02*
X0064785Y0007085D01*
X0064785Y0007084D02*
X0092875Y0007084D01*
X0092875Y0007083D02*
X0064785Y0007083D01*
X0064785Y0007082D02*
X0092875Y0007082D01*
X0092875Y0007081D02*
X0064785Y0007081D01*
X0064785Y0007080D02*
X0092875Y0007080D01*
X0092875Y0007079D02*
X0064785Y0007079D01*
X0064785Y0007078D02*
X0092875Y0007078D01*
X0092875Y0007077D02*
X0064785Y0007077D01*
X0064785Y0007076D02*
X0092875Y0007076D01*
X0092875Y0007075D02*
X0064785Y0007075D01*
X0064785Y0007074D02*
X0092875Y0007074D01*
X0092875Y0007073D02*
X0064784Y0007073D01*
X0064784Y0007072D02*
X0092875Y0007072D01*
X0092875Y0007071D02*
X0064784Y0007071D01*
X0064784Y0007070D02*
X0092875Y0007070D01*
X0092875Y0007069D02*
X0064784Y0007069D01*
X0064784Y0007068D02*
X0092875Y0007068D01*
X0092875Y0007067D02*
X0064784Y0007067D01*
X0064784Y0007066D02*
X0092875Y0007066D01*
X0092875Y0007065D02*
X0064784Y0007065D01*
X0064784Y0007064D02*
X0092875Y0007064D01*
X0092875Y0007063D02*
X0064784Y0007063D01*
X0064784Y0007062D02*
X0092875Y0007062D01*
X0092875Y0007061D02*
X0064784Y0007061D01*
X0064783Y0007060D02*
X0092875Y0007060D01*
X0092875Y0007059D02*
X0064783Y0007059D01*
X0064783Y0007058D02*
X0092875Y0007058D01*
X0092875Y0007057D02*
X0064783Y0007057D01*
X0064783Y0007056D02*
X0092875Y0007056D01*
X0092875Y0007055D02*
X0064783Y0007055D01*
X0064783Y0007054D02*
X0092875Y0007054D01*
X0092875Y0007053D02*
X0064783Y0007053D01*
X0064783Y0007052D02*
X0092875Y0007052D01*
X0092875Y0007051D02*
X0064783Y0007051D01*
X0064783Y0007050D02*
X0092875Y0007050D01*
X0092875Y0007049D02*
X0064783Y0007049D01*
X0064782Y0007048D02*
X0092875Y0007048D01*
X0092875Y0007047D02*
X0064782Y0007047D01*
X0064782Y0007046D02*
X0092875Y0007046D01*
X0092875Y0007045D02*
X0064782Y0007045D01*
X0064782Y0007044D02*
X0092875Y0007044D01*
X0092875Y0007043D02*
X0064782Y0007043D01*
X0064782Y0007042D02*
X0092875Y0007042D01*
X0092875Y0007041D02*
X0064782Y0007041D01*
X0064782Y0007040D02*
X0092875Y0007040D01*
X0092875Y0007039D02*
X0064782Y0007039D01*
X0064782Y0007038D02*
X0092875Y0007038D01*
X0092875Y0007037D02*
X0064782Y0007037D01*
X0064782Y0007036D02*
X0092875Y0007036D01*
X0092875Y0007035D02*
X0064781Y0007035D01*
X0064781Y0007034D02*
X0092875Y0007034D01*
X0092875Y0007033D02*
X0064781Y0007033D01*
X0064781Y0007032D02*
X0092875Y0007032D01*
X0092875Y0007031D02*
X0064781Y0007031D01*
X0092875Y0007031D01*
X0092875Y0007030D02*
X0064781Y0007030D01*
X0064781Y0007029D02*
X0092875Y0007029D01*
X0092875Y0007028D02*
X0064781Y0007028D01*
X0064781Y0007027D02*
X0092875Y0007027D01*
X0092875Y0007026D02*
X0064781Y0007026D01*
X0064781Y0007025D02*
X0092875Y0007025D01*
X0092875Y0007024D02*
X0064781Y0007024D01*
X0064780Y0007023D02*
X0092875Y0007023D01*
X0092875Y0007022D02*
X0064780Y0007022D01*
X0064780Y0007021D02*
X0092875Y0007021D01*
X0092875Y0007020D02*
X0064780Y0007020D01*
X0064780Y0007019D02*
X0092875Y0007019D01*
X0092875Y0007018D02*
X0064780Y0007018D01*
X0064780Y0007017D02*
X0092875Y0007017D01*
X0092875Y0007016D02*
X0064780Y0007016D01*
X0064780Y0007015D02*
X0092875Y0007015D01*
X0092875Y0007014D02*
X0064780Y0007014D01*
X0064780Y0007013D02*
X0092875Y0007013D01*
X0092875Y0007012D02*
X0064780Y0007012D01*
X0064780Y0007011D02*
X0092875Y0007011D01*
X0092875Y0007010D02*
X0064779Y0007010D01*
X0064779Y0007009D02*
X0092875Y0007009D01*
X0092875Y0007008D02*
X0064779Y0007008D01*
X0064779Y0007007D02*
X0092875Y0007007D01*
X0092875Y0007006D02*
X0064779Y0007006D01*
X0064779Y0007005D02*
X0092875Y0007005D01*
X0092875Y0007004D02*
X0064779Y0007004D01*
X0064779Y0007003D02*
X0092875Y0007003D01*
X0092875Y0007002D02*
X0064779Y0007002D01*
X0064779Y0007001D02*
X0092875Y0007001D01*
X0092875Y0007000D02*
X0064779Y0007000D01*
X0064779Y0006999D02*
X0092875Y0006999D01*
X0092875Y0006998D02*
X0064779Y0006998D01*
X0064778Y0006997D02*
X0092875Y0006997D01*
X0092875Y0006996D02*
X0064778Y0006996D01*
X0064778Y0006995D02*
X0092875Y0006995D01*
X0092875Y0006994D02*
X0064778Y0006994D01*
X0064778Y0006993D02*
X0092875Y0006993D01*
X0092875Y0006992D02*
X0064778Y0006992D01*
X0064778Y0006991D02*
X0092875Y0006991D01*
X0092875Y0006990D02*
X0064778Y0006990D01*
X0064778Y0006989D02*
X0092875Y0006989D01*
X0092875Y0006988D02*
X0064778Y0006988D01*
X0064778Y0006987D02*
X0092875Y0006987D01*
X0092875Y0006986D02*
X0064778Y0006986D01*
X0064778Y0006985D02*
X0092875Y0006985D01*
X0092875Y0006984D02*
X0064777Y0006984D01*
X0064777Y0006983D02*
X0092875Y0006983D01*
X0092875Y0006982D02*
X0064777Y0006982D01*
X0064777Y0006981D02*
X0092875Y0006981D01*
X0092875Y0006980D02*
X0064777Y0006980D01*
X0064777Y0006979D02*
X0092875Y0006979D01*
X0092875Y0006978D02*
X0064777Y0006978D01*
X0064777Y0006977D02*
X0092874Y0006977D01*
X0092874Y0006976D02*
X0064777Y0006976D01*
X0064777Y0006975D02*
X0092874Y0006975D01*
X0092874Y0006974D02*
X0064777Y0006974D01*
X0064777Y0006973D02*
X0092874Y0006973D01*
X0092874Y0006972D02*
X0064777Y0006972D01*
X0064776Y0006971D02*
X0092874Y0006971D01*
X0092874Y0006970D02*
X0064776Y0006970D01*
X0064776Y0006969D02*
X0092874Y0006969D01*
X0064776Y0006969D01*
X0064776Y0006968D02*
X0092874Y0006968D01*
X0092874Y0006967D02*
X0064776Y0006967D01*
X0064776Y0006966D02*
X0092874Y0006966D01*
X0092874Y0006965D02*
X0064776Y0006965D01*
X0064776Y0006964D02*
X0092874Y0006964D01*
X0092874Y0006963D02*
X0064776Y0006963D01*
X0064776Y0006962D02*
X0092874Y0006962D01*
X0092874Y0006961D02*
X0064776Y0006961D01*
X0064776Y0006960D02*
X0092874Y0006960D01*
X0092874Y0006959D02*
X0064775Y0006959D01*
X0064775Y0006958D02*
X0092874Y0006958D01*
X0092874Y0006957D02*
X0064775Y0006957D01*
X0064775Y0006956D02*
X0092874Y0006956D01*
X0092874Y0006955D02*
X0064775Y0006955D01*
X0064775Y0006954D02*
X0092874Y0006954D01*
X0092874Y0006953D02*
X0064775Y0006953D01*
X0064775Y0006952D02*
X0092874Y0006952D01*
X0092874Y0006951D02*
X0064775Y0006951D01*
X0064775Y0006950D02*
X0092874Y0006950D01*
X0092874Y0006949D02*
X0064775Y0006949D01*
X0064775Y0006948D02*
X0092874Y0006948D01*
X0092874Y0006947D02*
X0064774Y0006947D01*
X0064774Y0006946D02*
X0092874Y0006946D01*
X0092874Y0006945D02*
X0064774Y0006945D01*
X0064774Y0006944D02*
X0092874Y0006944D01*
X0092874Y0006943D02*
X0064774Y0006943D01*
X0064774Y0006942D02*
X0092874Y0006942D01*
X0092874Y0006941D02*
X0064774Y0006941D01*
X0064774Y0006940D02*
X0092874Y0006940D01*
X0092874Y0006939D02*
X0064774Y0006939D01*
X0064774Y0006938D02*
X0092874Y0006938D01*
X0092874Y0006937D02*
X0064774Y0006937D01*
X0064774Y0006936D02*
X0092874Y0006936D01*
X0092874Y0006935D02*
X0064774Y0006935D01*
X0064773Y0006934D02*
X0092874Y0006934D01*
X0092874Y0006933D02*
X0064773Y0006933D01*
X0064773Y0006932D02*
X0092874Y0006932D01*
X0092874Y0006931D02*
X0064773Y0006931D01*
X0064773Y0006930D02*
X0092874Y0006930D01*
X0092874Y0006929D02*
X0064773Y0006929D01*
X0064773Y0006928D02*
X0092874Y0006928D01*
X0092874Y0006927D02*
X0064773Y0006927D01*
X0064773Y0006926D02*
X0092874Y0006926D01*
X0092874Y0006925D02*
X0064773Y0006925D01*
X0064773Y0006924D02*
X0092874Y0006924D01*
X0092874Y0006923D02*
X0064773Y0006923D01*
X0064773Y0006922D02*
X0092874Y0006922D01*
X0092874Y0006921D02*
X0064772Y0006921D01*
X0064772Y0006920D02*
X0092874Y0006920D01*
X0092874Y0006919D02*
X0064772Y0006919D01*
X0064772Y0006918D02*
X0092874Y0006918D01*
X0092874Y0006917D02*
X0064772Y0006917D01*
X0064772Y0006916D02*
X0092874Y0006916D01*
X0092874Y0006915D02*
X0064772Y0006915D01*
X0064772Y0006914D02*
X0092874Y0006914D01*
X0092874Y0006913D02*
X0064772Y0006913D01*
X0064772Y0006912D02*
X0092874Y0006912D01*
X0092874Y0006911D02*
X0064772Y0006911D01*
X0064772Y0006910D02*
X0092874Y0006910D01*
X0092874Y0006909D02*
X0064772Y0006909D01*
X0064771Y0006908D02*
X0092874Y0006908D01*
X0092874Y0006907D02*
X0064771Y0006907D01*
X0064771Y0006906D02*
X0092874Y0006906D01*
X0064771Y0006906D01*
X0064771Y0006905D02*
X0092874Y0006905D01*
X0092874Y0006904D02*
X0064771Y0006904D01*
X0064771Y0006903D02*
X0092874Y0006903D01*
X0092874Y0006902D02*
X0064771Y0006902D01*
X0064771Y0006901D02*
X0092874Y0006901D01*
X0092874Y0006900D02*
X0064771Y0006900D01*
X0064771Y0006899D02*
X0092874Y0006899D01*
X0092874Y0006898D02*
X0064771Y0006898D01*
X0064771Y0006897D02*
X0092874Y0006897D01*
X0092874Y0006896D02*
X0064770Y0006896D01*
X0064770Y0006895D02*
X0092874Y0006895D01*
X0092874Y0006894D02*
X0064770Y0006894D01*
X0064770Y0006893D02*
X0092874Y0006893D01*
X0092874Y0006892D02*
X0064770Y0006892D01*
X0064770Y0006891D02*
X0092874Y0006891D01*
X0092874Y0006890D02*
X0064770Y0006890D01*
X0064770Y0006889D02*
X0092874Y0006889D01*
X0092874Y0006888D02*
X0064770Y0006888D01*
X0064770Y0006887D02*
X0092874Y0006887D01*
X0092874Y0006886D02*
X0064770Y0006886D01*
X0064770Y0006885D02*
X0092874Y0006885D01*
X0092874Y0006884D02*
X0064770Y0006884D01*
X0064769Y0006883D02*
X0092874Y0006883D01*
X0092874Y0006882D02*
X0064769Y0006882D01*
X0064769Y0006881D02*
X0092874Y0006881D01*
X0092874Y0006880D02*
X0064769Y0006880D01*
X0064769Y0006879D02*
X0092874Y0006879D01*
X0092874Y0006878D02*
X0064769Y0006878D01*
X0064769Y0006877D02*
X0092874Y0006877D01*
X0092874Y0006876D02*
X0064769Y0006876D01*
X0064769Y0006875D02*
X0092874Y0006875D01*
X0092874Y0006874D02*
X0064769Y0006874D01*
X0064769Y0006873D02*
X0092874Y0006873D01*
X0092874Y0006872D02*
X0064769Y0006872D01*
X0064769Y0006871D02*
X0092874Y0006871D01*
X0092874Y0006870D02*
X0064768Y0006870D01*
X0064768Y0006869D02*
X0092874Y0006869D01*
X0092874Y0006868D02*
X0064768Y0006868D01*
X0064768Y0006867D02*
X0092874Y0006867D01*
X0092874Y0006866D02*
X0064768Y0006866D01*
X0064768Y0006865D02*
X0092874Y0006865D01*
X0092874Y0006864D02*
X0064768Y0006864D01*
X0064768Y0006863D02*
X0092874Y0006863D01*
X0092874Y0006862D02*
X0064768Y0006862D01*
X0064768Y0006861D02*
X0092874Y0006861D01*
X0092874Y0006860D02*
X0064768Y0006860D01*
X0064768Y0006859D02*
X0092874Y0006859D01*
X0092874Y0006858D02*
X0064768Y0006858D01*
X0064767Y0006857D02*
X0092874Y0006857D01*
X0092874Y0006856D02*
X0064767Y0006856D01*
X0064767Y0006855D02*
X0092874Y0006855D01*
X0092874Y0006854D02*
X0064767Y0006854D01*
X0064767Y0006853D02*
X0092874Y0006853D01*
X0092874Y0006852D02*
X0064767Y0006852D01*
X0064767Y0006851D02*
X0092874Y0006851D01*
X0092874Y0006850D02*
X0064767Y0006850D01*
X0064767Y0006849D02*
X0092874Y0006849D01*
X0092874Y0006848D02*
X0064767Y0006848D01*
X0064767Y0006847D02*
X0092874Y0006847D01*
X0092874Y0006846D02*
X0064767Y0006846D01*
X0064766Y0006845D02*
X0092874Y0006845D01*
X0092874Y0006844D02*
X0064766Y0006844D01*
X0092874Y0006844D01*
X0092874Y0006843D02*
X0064766Y0006843D01*
X0064766Y0006842D02*
X0092874Y0006842D01*
X0092874Y0006841D02*
X0064766Y0006841D01*
X0064766Y0006840D02*
X0092874Y0006840D01*
X0092874Y0006839D02*
X0064766Y0006839D01*
X0064766Y0006838D02*
X0092874Y0006838D01*
X0092874Y0006837D02*
X0064766Y0006837D01*
X0064766Y0006836D02*
X0092874Y0006836D01*
X0092874Y0006835D02*
X0064766Y0006835D01*
X0064766Y0006834D02*
X0092874Y0006834D01*
X0092874Y0006833D02*
X0064765Y0006833D01*
X0064765Y0006832D02*
X0092874Y0006832D01*
X0092874Y0006831D02*
X0064765Y0006831D01*
X0064765Y0006830D02*
X0092874Y0006830D01*
X0092874Y0006829D02*
X0064765Y0006829D01*
X0064765Y0006828D02*
X0092874Y0006828D01*
X0092874Y0006827D02*
X0064765Y0006827D01*
X0064765Y0006826D02*
X0092874Y0006826D01*
X0092874Y0006825D02*
X0064765Y0006825D01*
X0064765Y0006824D02*
X0092874Y0006824D01*
X0092874Y0006823D02*
X0064765Y0006823D01*
X0064765Y0006822D02*
X0092874Y0006822D01*
X0092874Y0006821D02*
X0064765Y0006821D01*
X0064764Y0006820D02*
X0092874Y0006820D01*
X0092874Y0006819D02*
X0064764Y0006819D01*
X0064764Y0006818D02*
X0092874Y0006818D01*
X0092874Y0006817D02*
X0064764Y0006817D01*
X0064764Y0006816D02*
X0092874Y0006816D01*
X0092874Y0006815D02*
X0064764Y0006815D01*
X0064764Y0006814D02*
X0092874Y0006814D01*
X0092874Y0006813D02*
X0064764Y0006813D01*
X0064764Y0006812D02*
X0092874Y0006812D01*
X0092874Y0006811D02*
X0064764Y0006811D01*
X0064764Y0006810D02*
X0092874Y0006810D01*
X0092874Y0006809D02*
X0064764Y0006809D01*
X0064764Y0006808D02*
X0092874Y0006808D01*
X0092874Y0006807D02*
X0064763Y0006807D01*
X0064763Y0006806D02*
X0092874Y0006806D01*
X0092874Y0006805D02*
X0064763Y0006805D01*
X0064763Y0006804D02*
X0092874Y0006804D01*
X0092874Y0006803D02*
X0064763Y0006803D01*
X0064763Y0006802D02*
X0092874Y0006802D01*
X0092874Y0006801D02*
X0064763Y0006801D01*
X0064763Y0006800D02*
X0092874Y0006800D01*
X0092874Y0006799D02*
X0064763Y0006799D01*
X0064763Y0006798D02*
X0092874Y0006798D01*
X0092874Y0006797D02*
X0064763Y0006797D01*
X0064763Y0006796D02*
X0092874Y0006796D01*
X0092874Y0006795D02*
X0064763Y0006795D01*
X0064762Y0006794D02*
X0092874Y0006794D01*
X0092874Y0006793D02*
X0064762Y0006793D01*
X0064762Y0006792D02*
X0092874Y0006792D01*
X0092874Y0006791D02*
X0064762Y0006791D01*
X0064762Y0006790D02*
X0092874Y0006790D01*
X0092874Y0006789D02*
X0064762Y0006789D01*
X0064762Y0006788D02*
X0092874Y0006788D01*
X0092874Y0006787D02*
X0064762Y0006787D01*
X0064762Y0006786D02*
X0092874Y0006786D01*
X0092874Y0006785D02*
X0064762Y0006785D01*
X0064762Y0006784D02*
X0092874Y0006784D01*
X0092874Y0006783D02*
X0064762Y0006783D01*
X0064762Y0006782D02*
X0092874Y0006782D01*
X0092874Y0006781D02*
X0064761Y0006781D01*
X0092874Y0006781D01*
X0092874Y0006780D02*
X0064761Y0006780D01*
X0064761Y0006779D02*
X0092874Y0006779D01*
X0092874Y0006778D02*
X0064761Y0006778D01*
X0064761Y0006777D02*
X0092874Y0006777D01*
X0092874Y0006776D02*
X0064761Y0006776D01*
X0064761Y0006775D02*
X0092874Y0006775D01*
X0092874Y0006774D02*
X0064761Y0006774D01*
X0064761Y0006773D02*
X0092874Y0006773D01*
X0092874Y0006772D02*
X0064761Y0006772D01*
X0064761Y0006771D02*
X0092874Y0006771D01*
X0092874Y0006770D02*
X0064761Y0006770D01*
X0064760Y0006769D02*
X0092874Y0006769D01*
X0092874Y0006768D02*
X0064760Y0006768D01*
X0064760Y0006767D02*
X0092874Y0006767D01*
X0092874Y0006766D02*
X0064760Y0006766D01*
X0064760Y0006765D02*
X0092874Y0006765D01*
X0092874Y0006764D02*
X0064760Y0006764D01*
X0064760Y0006763D02*
X0092874Y0006763D01*
X0092874Y0006762D02*
X0064760Y0006762D01*
X0064760Y0006761D02*
X0092874Y0006761D01*
X0092874Y0006760D02*
X0064760Y0006760D01*
X0064760Y0006759D02*
X0092874Y0006759D01*
X0092874Y0006758D02*
X0064760Y0006758D01*
X0064760Y0006757D02*
X0092874Y0006757D01*
X0092874Y0006756D02*
X0064759Y0006756D01*
X0064759Y0006755D02*
X0092874Y0006755D01*
X0092874Y0006754D02*
X0064759Y0006754D01*
X0064759Y0006753D02*
X0092874Y0006753D01*
X0092874Y0006752D02*
X0064759Y0006752D01*
X0064759Y0006751D02*
X0092874Y0006751D01*
X0092874Y0006750D02*
X0064759Y0006750D01*
X0064759Y0006749D02*
X0092874Y0006749D01*
X0092874Y0006748D02*
X0064759Y0006748D01*
X0064759Y0006747D02*
X0092874Y0006747D01*
X0092874Y0006746D02*
X0064759Y0006746D01*
X0064759Y0006745D02*
X0092874Y0006745D01*
X0092874Y0006744D02*
X0064759Y0006744D01*
X0064758Y0006743D02*
X0092874Y0006743D01*
X0092874Y0006742D02*
X0064758Y0006742D01*
X0064758Y0006741D02*
X0092874Y0006741D01*
X0092874Y0006740D02*
X0064758Y0006740D01*
X0064758Y0006739D02*
X0092874Y0006739D01*
X0092874Y0006738D02*
X0064758Y0006738D01*
X0064758Y0006737D02*
X0092874Y0006737D01*
X0092874Y0006736D02*
X0064758Y0006736D01*
X0064758Y0006735D02*
X0092874Y0006735D01*
X0092874Y0006734D02*
X0064758Y0006734D01*
X0064758Y0006733D02*
X0092874Y0006733D01*
X0092874Y0006732D02*
X0064758Y0006732D01*
X0064758Y0006731D02*
X0092874Y0006731D01*
X0092874Y0006730D02*
X0064757Y0006730D01*
X0064757Y0006729D02*
X0092874Y0006729D01*
X0092874Y0006728D02*
X0064757Y0006728D01*
X0064757Y0006727D02*
X0092874Y0006727D01*
X0092874Y0006726D02*
X0064757Y0006726D01*
X0064757Y0006725D02*
X0092874Y0006725D01*
X0092874Y0006724D02*
X0064757Y0006724D01*
X0064757Y0006723D02*
X0092874Y0006723D01*
X0092874Y0006722D02*
X0064757Y0006722D01*
X0064757Y0006721D02*
X0092874Y0006721D01*
X0092874Y0006720D02*
X0064757Y0006720D01*
X0064757Y0006719D02*
X0092874Y0006719D01*
X0064756Y0006719D01*
X0064756Y0006718D02*
X0092874Y0006718D01*
X0092874Y0006717D02*
X0064756Y0006717D01*
X0064756Y0006716D02*
X0092874Y0006716D01*
X0092874Y0006715D02*
X0064756Y0006715D01*
X0064756Y0006714D02*
X0092874Y0006714D01*
X0092874Y0006713D02*
X0064756Y0006713D01*
X0064756Y0006712D02*
X0092874Y0006712D01*
X0092874Y0006711D02*
X0064756Y0006711D01*
X0064756Y0006710D02*
X0092874Y0006710D01*
X0092874Y0006709D02*
X0064756Y0006709D01*
X0064756Y0006708D02*
X0092874Y0006708D01*
X0092874Y0006707D02*
X0064756Y0006707D01*
X0064755Y0006706D02*
X0092874Y0006706D01*
X0092874Y0006705D02*
X0064755Y0006705D01*
X0064755Y0006704D02*
X0092874Y0006704D01*
X0092874Y0006703D02*
X0064755Y0006703D01*
X0064755Y0006702D02*
X0092874Y0006702D01*
X0092874Y0006701D02*
X0064755Y0006701D01*
X0064755Y0006700D02*
X0092874Y0006700D01*
X0092874Y0006699D02*
X0064755Y0006699D01*
X0064755Y0006698D02*
X0092874Y0006698D01*
X0092874Y0006697D02*
X0064755Y0006697D01*
X0064755Y0006696D02*
X0092874Y0006696D01*
X0092874Y0006695D02*
X0064755Y0006695D01*
X0064755Y0006694D02*
X0092874Y0006694D01*
X0092874Y0006693D02*
X0064754Y0006693D01*
X0064754Y0006692D02*
X0092874Y0006692D01*
X0092874Y0006691D02*
X0064754Y0006691D01*
X0064754Y0006690D02*
X0092874Y0006690D01*
X0092874Y0006689D02*
X0064754Y0006689D01*
X0064754Y0006688D02*
X0092874Y0006688D01*
X0092874Y0006687D02*
X0064754Y0006687D01*
X0064754Y0006686D02*
X0092874Y0006686D01*
X0092874Y0006685D02*
X0064754Y0006685D01*
X0064754Y0006684D02*
X0092874Y0006684D01*
X0092874Y0006683D02*
X0064754Y0006683D01*
X0064754Y0006682D02*
X0092874Y0006682D01*
X0092874Y0006681D02*
X0064754Y0006681D01*
X0064753Y0006680D02*
X0092874Y0006680D01*
X0092874Y0006679D02*
X0064753Y0006679D01*
X0064753Y0006678D02*
X0092874Y0006678D01*
X0092874Y0006677D02*
X0064753Y0006677D01*
X0064753Y0006676D02*
X0092874Y0006676D01*
X0092874Y0006675D02*
X0064753Y0006675D01*
X0064753Y0006674D02*
X0092874Y0006674D01*
X0092874Y0006673D02*
X0064753Y0006673D01*
X0064753Y0006672D02*
X0092874Y0006672D01*
X0092874Y0006671D02*
X0064753Y0006671D01*
X0064753Y0006670D02*
X0092874Y0006670D01*
X0092874Y0006669D02*
X0064753Y0006669D01*
X0064753Y0006668D02*
X0092874Y0006668D01*
X0092874Y0006667D02*
X0064752Y0006667D01*
X0064752Y0006666D02*
X0092874Y0006666D01*
X0092874Y0006665D02*
X0064752Y0006665D01*
X0064752Y0006664D02*
X0092874Y0006664D01*
X0092874Y0006663D02*
X0064752Y0006663D01*
X0064752Y0006662D02*
X0092874Y0006662D01*
X0092874Y0006661D02*
X0064752Y0006661D01*
X0064752Y0006660D02*
X0092874Y0006660D01*
X0092874Y0006659D02*
X0064752Y0006659D01*
X0064752Y0006658D02*
X0092874Y0006658D01*
X0092874Y0006657D02*
X0064752Y0006657D01*
X0064752Y0006656D02*
X0092874Y0006656D01*
X0064752Y0006656D01*
X0064751Y0006655D02*
X0092874Y0006655D01*
X0092874Y0006654D02*
X0064751Y0006654D01*
X0064751Y0006653D02*
X0092874Y0006653D01*
X0092874Y0006652D02*
X0064751Y0006652D01*
X0064751Y0006651D02*
X0092874Y0006651D01*
X0092874Y0006650D02*
X0064751Y0006650D01*
X0064751Y0006649D02*
X0092874Y0006649D01*
X0092874Y0006648D02*
X0064751Y0006648D01*
X0064751Y0006647D02*
X0092874Y0006647D01*
X0092874Y0006646D02*
X0064751Y0006646D01*
X0064751Y0006645D02*
X0092874Y0006645D01*
X0092874Y0006644D02*
X0064751Y0006644D01*
X0064751Y0006643D02*
X0092874Y0006643D01*
X0092874Y0006642D02*
X0064750Y0006642D01*
X0064750Y0006641D02*
X0092874Y0006641D01*
X0092874Y0006640D02*
X0064750Y0006640D01*
X0064750Y0006639D02*
X0092874Y0006639D01*
X0092874Y0006638D02*
X0064750Y0006638D01*
X0064750Y0006637D02*
X0092874Y0006637D01*
X0092874Y0006636D02*
X0064750Y0006636D01*
X0064750Y0006635D02*
X0092874Y0006635D01*
X0092874Y0006634D02*
X0064750Y0006634D01*
X0064750Y0006633D02*
X0092874Y0006633D01*
X0092874Y0006632D02*
X0064750Y0006632D01*
X0064750Y0006631D02*
X0092874Y0006631D01*
X0092874Y0006630D02*
X0064750Y0006630D01*
X0064749Y0006629D02*
X0092874Y0006629D01*
X0092874Y0006628D02*
X0064749Y0006628D01*
X0064749Y0006627D02*
X0092874Y0006627D01*
X0092874Y0006626D02*
X0064749Y0006626D01*
X0064749Y0006625D02*
X0092874Y0006625D01*
X0092874Y0006624D02*
X0064749Y0006624D01*
X0064749Y0006623D02*
X0092874Y0006623D01*
X0092874Y0006622D02*
X0064749Y0006622D01*
X0064749Y0006621D02*
X0092874Y0006621D01*
X0092874Y0006620D02*
X0064749Y0006620D01*
X0064749Y0006619D02*
X0092874Y0006619D01*
X0092874Y0006618D02*
X0064749Y0006618D01*
X0064748Y0006617D02*
X0092874Y0006617D01*
X0092874Y0006616D02*
X0064748Y0006616D01*
X0064748Y0006615D02*
X0092874Y0006615D01*
X0092874Y0006614D02*
X0064748Y0006614D01*
X0064748Y0006613D02*
X0092874Y0006613D01*
X0092874Y0006612D02*
X0064748Y0006612D01*
X0064748Y0006611D02*
X0092874Y0006611D01*
X0092874Y0006610D02*
X0064748Y0006610D01*
X0064748Y0006609D02*
X0092874Y0006609D01*
X0092874Y0006608D02*
X0064748Y0006608D01*
X0064748Y0006607D02*
X0092874Y0006607D01*
X0092874Y0006606D02*
X0064748Y0006606D01*
X0064748Y0006605D02*
X0092874Y0006605D01*
X0092874Y0006604D02*
X0064747Y0006604D01*
X0064747Y0006603D02*
X0092874Y0006603D01*
X0092874Y0006602D02*
X0064747Y0006602D01*
X0064747Y0006601D02*
X0092874Y0006601D01*
X0092874Y0006600D02*
X0064747Y0006600D01*
X0064747Y0006599D02*
X0092874Y0006599D01*
X0092874Y0006598D02*
X0064747Y0006598D01*
X0064747Y0006597D02*
X0092874Y0006597D01*
X0092874Y0006596D02*
X0064747Y0006596D01*
X0064747Y0006595D02*
X0092874Y0006595D01*
X0092874Y0006594D02*
X0064747Y0006594D01*
X0092874Y0006594D01*
X0092874Y0006593D02*
X0064747Y0006593D01*
X0064746Y0006592D02*
X0092874Y0006592D01*
X0092874Y0006591D02*
X0064746Y0006591D01*
X0064746Y0006590D02*
X0092874Y0006590D01*
X0092874Y0006589D02*
X0064746Y0006589D01*
X0064746Y0006588D02*
X0092874Y0006588D01*
X0092874Y0006587D02*
X0064746Y0006587D01*
X0064746Y0006586D02*
X0092874Y0006586D01*
X0092874Y0006585D02*
X0064746Y0006585D01*
X0064746Y0006584D02*
X0092874Y0006584D01*
X0092874Y0006583D02*
X0064746Y0006583D01*
X0064746Y0006582D02*
X0092874Y0006582D01*
X0092874Y0006581D02*
X0064746Y0006581D01*
X0064746Y0006580D02*
X0092874Y0006580D01*
X0092874Y0006579D02*
X0064745Y0006579D01*
X0064745Y0006578D02*
X0092874Y0006578D01*
X0092874Y0006577D02*
X0064745Y0006577D01*
X0064745Y0006576D02*
X0092874Y0006576D01*
X0092874Y0006575D02*
X0064745Y0006575D01*
X0064745Y0006574D02*
X0092874Y0006574D01*
X0092874Y0006573D02*
X0064745Y0006573D01*
X0064745Y0006572D02*
X0092874Y0006572D01*
X0092874Y0006571D02*
X0064745Y0006571D01*
X0064745Y0006570D02*
X0092874Y0006570D01*
X0092874Y0006569D02*
X0064745Y0006569D01*
X0064745Y0006568D02*
X0092874Y0006568D01*
X0092874Y0006567D02*
X0064745Y0006567D01*
X0064744Y0006566D02*
X0092874Y0006566D01*
X0092874Y0006565D02*
X0064744Y0006565D01*
X0064744Y0006564D02*
X0092874Y0006564D01*
X0092874Y0006563D02*
X0064744Y0006563D01*
X0064744Y0006562D02*
X0092874Y0006562D01*
X0092874Y0006561D02*
X0064744Y0006561D01*
X0064744Y0006560D02*
X0092874Y0006560D01*
X0092874Y0006559D02*
X0064744Y0006559D01*
X0064744Y0006558D02*
X0092874Y0006558D01*
X0092874Y0006557D02*
X0064744Y0006557D01*
X0064744Y0006556D02*
X0092874Y0006556D01*
X0092874Y0006555D02*
X0064744Y0006555D01*
X0064744Y0006554D02*
X0092874Y0006554D01*
X0092874Y0006553D02*
X0064743Y0006553D01*
X0064743Y0006552D02*
X0092874Y0006552D01*
X0092874Y0006551D02*
X0064743Y0006551D01*
X0064743Y0006550D02*
X0092874Y0006550D01*
X0092874Y0006549D02*
X0064743Y0006549D01*
X0064743Y0006548D02*
X0092874Y0006548D01*
X0092874Y0006547D02*
X0064743Y0006547D01*
X0064743Y0006546D02*
X0092874Y0006546D01*
X0092874Y0006545D02*
X0064743Y0006545D01*
X0064743Y0006544D02*
X0092874Y0006544D01*
X0092874Y0006543D02*
X0064743Y0006543D01*
X0064743Y0006542D02*
X0092764Y0006542D01*
X0092631Y0006541D02*
X0064743Y0006541D01*
X0064742Y0006540D02*
X0092498Y0006540D01*
X0092365Y0006539D02*
X0064742Y0006539D01*
X0064742Y0006538D02*
X0092232Y0006538D01*
X0092100Y0006537D02*
X0064742Y0006537D01*
X0064742Y0006536D02*
X0091967Y0006536D01*
X0091834Y0006535D02*
X0064742Y0006535D01*
X0064742Y0006534D02*
X0091701Y0006534D01*
X0091568Y0006533D02*
X0064742Y0006533D01*
X0064742Y0006532D02*
X0091435Y0006532D01*
X0091302Y0006531D02*
X0064742Y0006531D01*
X0091169Y0006531D01*
X0091037Y0006530D02*
X0064742Y0006530D01*
X0064742Y0006529D02*
X0090904Y0006529D01*
X0090771Y0006528D02*
X0064741Y0006528D01*
X0064741Y0006527D02*
X0090638Y0006527D01*
X0090505Y0006526D02*
X0064741Y0006526D01*
X0064741Y0006525D02*
X0090372Y0006525D01*
X0090239Y0006524D02*
X0064741Y0006524D01*
X0064741Y0006523D02*
X0090106Y0006523D01*
X0089974Y0006522D02*
X0064741Y0006522D01*
X0064741Y0006521D02*
X0089841Y0006521D01*
X0089708Y0006520D02*
X0064741Y0006520D01*
X0064741Y0006519D02*
X0089575Y0006519D01*
X0089442Y0006518D02*
X0064741Y0006518D01*
X0064741Y0006517D02*
X0089309Y0006517D01*
X0089176Y0006516D02*
X0064741Y0006516D01*
X0064740Y0006515D02*
X0089043Y0006515D01*
X0088911Y0006514D02*
X0064740Y0006514D01*
X0064740Y0006513D02*
X0088778Y0006513D01*
X0088645Y0006512D02*
X0064740Y0006512D01*
X0064740Y0006511D02*
X0088512Y0006511D01*
X0088379Y0006510D02*
X0064740Y0006510D01*
X0064740Y0006509D02*
X0088246Y0006509D01*
X0088113Y0006508D02*
X0064740Y0006508D01*
X0064740Y0006507D02*
X0087980Y0006507D01*
X0087848Y0006506D02*
X0064740Y0006506D01*
X0064740Y0006505D02*
X0087715Y0006505D01*
X0087582Y0006504D02*
X0064740Y0006504D01*
X0064739Y0006503D02*
X0087449Y0006503D01*
X0087316Y0006502D02*
X0064739Y0006502D01*
X0064739Y0006501D02*
X0087183Y0006501D01*
X0087050Y0006500D02*
X0064739Y0006500D01*
X0064739Y0006499D02*
X0086918Y0006499D01*
X0086785Y0006498D02*
X0064739Y0006498D01*
X0064739Y0006497D02*
X0086652Y0006497D01*
X0086519Y0006496D02*
X0064739Y0006496D01*
X0064739Y0006495D02*
X0086386Y0006495D01*
X0086253Y0006494D02*
X0064739Y0006494D01*
X0064739Y0006493D02*
X0086120Y0006493D01*
X0085987Y0006492D02*
X0064739Y0006492D01*
X0064739Y0006491D02*
X0085855Y0006491D01*
X0085722Y0006490D02*
X0064738Y0006490D01*
X0064738Y0006489D02*
X0085589Y0006489D01*
X0085456Y0006488D02*
X0064738Y0006488D01*
X0064738Y0006487D02*
X0085323Y0006487D01*
X0085190Y0006486D02*
X0064738Y0006486D01*
X0064738Y0006485D02*
X0085057Y0006485D01*
X0084924Y0006484D02*
X0064738Y0006484D01*
X0064738Y0006483D02*
X0084792Y0006483D01*
X0084659Y0006482D02*
X0064738Y0006482D01*
X0064738Y0006481D02*
X0084526Y0006481D01*
X0084393Y0006480D02*
X0064738Y0006480D01*
X0064738Y0006479D02*
X0084260Y0006479D01*
X0084127Y0006478D02*
X0064738Y0006478D01*
X0064737Y0006477D02*
X0083994Y0006477D01*
X0083861Y0006476D02*
X0064737Y0006476D01*
X0064737Y0006475D02*
X0083729Y0006475D01*
X0083596Y0006474D02*
X0064737Y0006474D01*
X0064737Y0006473D02*
X0083463Y0006473D01*
X0083330Y0006472D02*
X0064737Y0006472D01*
X0064737Y0006471D02*
X0083197Y0006471D01*
X0083064Y0006470D02*
X0064737Y0006470D01*
X0064737Y0006469D02*
X0082931Y0006469D01*
X0082798Y0006469D02*
X0064737Y0006469D01*
X0064737Y0006468D02*
X0082666Y0006468D01*
X0082533Y0006467D02*
X0064737Y0006467D01*
X0064737Y0006466D02*
X0082400Y0006466D01*
X0082267Y0006465D02*
X0064736Y0006465D01*
X0064736Y0006464D02*
X0082134Y0006464D01*
X0082001Y0006463D02*
X0064736Y0006463D01*
X0064736Y0006462D02*
X0081868Y0006462D01*
X0081736Y0006461D02*
X0064736Y0006461D01*
X0064736Y0006460D02*
X0081603Y0006460D01*
X0081470Y0006459D02*
X0064736Y0006459D01*
X0064736Y0006458D02*
X0081337Y0006458D01*
X0081204Y0006457D02*
X0064736Y0006457D01*
X0064736Y0006456D02*
X0081071Y0006456D01*
X0080938Y0006455D02*
X0064736Y0006455D01*
X0064736Y0006454D02*
X0080805Y0006454D01*
X0080673Y0006453D02*
X0064736Y0006453D01*
X0064735Y0006452D02*
X0080540Y0006452D01*
X0080407Y0006451D02*
X0064735Y0006451D01*
X0064735Y0006450D02*
X0080274Y0006450D01*
X0080141Y0006449D02*
X0064735Y0006449D01*
X0064735Y0006448D02*
X0080008Y0006448D01*
X0079875Y0006447D02*
X0064735Y0006447D01*
X0064735Y0006446D02*
X0079742Y0006446D01*
X0079610Y0006445D02*
X0064735Y0006445D01*
X0064735Y0006444D02*
X0079477Y0006444D01*
X0079344Y0006443D02*
X0064735Y0006443D01*
X0064735Y0006442D02*
X0079211Y0006442D01*
X0079078Y0006441D02*
X0064735Y0006441D01*
X0064735Y0006440D02*
X0078945Y0006440D01*
X0078812Y0006439D02*
X0064734Y0006439D01*
X0064734Y0006438D02*
X0078679Y0006438D01*
X0078547Y0006437D02*
X0064734Y0006437D01*
X0064734Y0006436D02*
X0078414Y0006436D01*
X0078281Y0006435D02*
X0064734Y0006435D01*
X0064734Y0006434D02*
X0078148Y0006434D01*
X0078015Y0006433D02*
X0064734Y0006433D01*
X0064734Y0006432D02*
X0077882Y0006432D01*
X0077749Y0006431D02*
X0064734Y0006431D01*
X0064734Y0006430D02*
X0077616Y0006430D01*
X0077484Y0006429D02*
X0064734Y0006429D01*
X0064734Y0006428D02*
X0077351Y0006428D01*
X0077218Y0006427D02*
X0064734Y0006427D01*
X0064733Y0006426D02*
X0077085Y0006426D01*
X0076952Y0006425D02*
X0064733Y0006425D01*
X0064733Y0006424D02*
X0076819Y0006424D01*
X0076686Y0006423D02*
X0064733Y0006423D01*
X0064733Y0006422D02*
X0076554Y0006422D01*
X0076421Y0006421D02*
X0064733Y0006421D01*
X0064733Y0006420D02*
X0076288Y0006420D01*
X0076155Y0006419D02*
X0064733Y0006419D01*
X0064733Y0006418D02*
X0076022Y0006418D01*
X0075889Y0006417D02*
X0064733Y0006417D01*
X0064733Y0006416D02*
X0075756Y0006416D01*
X0075623Y0006415D02*
X0064733Y0006415D01*
X0064733Y0006414D02*
X0075491Y0006414D01*
X0075358Y0006413D02*
X0064732Y0006413D01*
X0064732Y0006412D02*
X0075225Y0006412D01*
X0075092Y0006411D02*
X0064732Y0006411D01*
X0064732Y0006410D02*
X0074959Y0006410D01*
X0074826Y0006409D02*
X0064732Y0006409D01*
X0064732Y0006408D02*
X0074693Y0006408D01*
X0074560Y0006407D02*
X0064732Y0006407D01*
X0064732Y0006406D02*
X0074428Y0006406D01*
X0074295Y0006406D02*
X0064732Y0006406D01*
X0064732Y0006405D02*
X0074162Y0006405D01*
X0074029Y0006404D02*
X0064732Y0006404D01*
X0064732Y0006403D02*
X0073896Y0006403D01*
X0073763Y0006402D02*
X0064732Y0006402D01*
X0064731Y0006401D02*
X0073630Y0006401D01*
X0073497Y0006400D02*
X0064731Y0006400D01*
X0064731Y0006399D02*
X0073365Y0006399D01*
X0073232Y0006398D02*
X0064731Y0006398D01*
X0064731Y0006397D02*
X0073099Y0006397D01*
X0072966Y0006396D02*
X0064731Y0006396D01*
X0064731Y0006395D02*
X0072833Y0006395D01*
X0072700Y0006394D02*
X0064731Y0006394D01*
X0064731Y0006393D02*
X0072567Y0006393D01*
X0072434Y0006392D02*
X0064731Y0006392D01*
X0064731Y0006391D02*
X0072302Y0006391D01*
X0072169Y0006390D02*
X0064731Y0006390D01*
X0064730Y0006389D02*
X0072036Y0006389D01*
X0071903Y0006388D02*
X0064730Y0006388D01*
X0064730Y0006387D02*
X0071770Y0006387D01*
X0071637Y0006386D02*
X0064730Y0006386D01*
X0064730Y0006385D02*
X0071504Y0006385D01*
X0071371Y0006384D02*
X0064730Y0006384D01*
X0064730Y0006383D02*
X0071239Y0006383D01*
X0071106Y0006382D02*
X0064730Y0006382D01*
X0064730Y0006381D02*
X0070973Y0006381D01*
X0070840Y0006380D02*
X0064730Y0006380D01*
X0064730Y0006379D02*
X0070707Y0006379D01*
X0070574Y0006378D02*
X0064730Y0006378D01*
X0064730Y0006377D02*
X0070441Y0006377D01*
X0070309Y0006376D02*
X0064729Y0006376D01*
X0064729Y0006375D02*
X0070176Y0006375D01*
X0070043Y0006374D02*
X0064729Y0006374D01*
X0064729Y0006373D02*
X0069910Y0006373D01*
X0069777Y0006372D02*
X0064729Y0006372D01*
X0064729Y0006371D02*
X0069644Y0006371D01*
X0069511Y0006370D02*
X0064729Y0006370D01*
X0064729Y0006369D02*
X0069378Y0006369D01*
X0069246Y0006368D02*
X0064729Y0006368D01*
X0064729Y0006367D02*
X0069113Y0006367D01*
X0068980Y0006366D02*
X0064729Y0006366D01*
X0064729Y0006365D02*
X0068847Y0006365D01*
X0068714Y0006364D02*
X0064729Y0006364D01*
X0064728Y0006363D02*
X0068581Y0006363D01*
X0068448Y0006362D02*
X0064728Y0006362D01*
X0064728Y0006361D02*
X0068315Y0006361D01*
X0068183Y0006360D02*
X0064728Y0006360D01*
X0064728Y0006359D02*
X0068050Y0006359D01*
X0067917Y0006358D02*
X0064728Y0006358D01*
X0064728Y0006357D02*
X0067784Y0006357D01*
X0067651Y0006356D02*
X0064728Y0006356D01*
X0064728Y0006355D02*
X0067518Y0006355D01*
X0067385Y0006354D02*
X0064728Y0006354D01*
X0064728Y0006353D02*
X0067252Y0006353D01*
X0067120Y0006352D02*
X0064728Y0006352D01*
X0064728Y0006351D02*
X0066987Y0006351D01*
X0066854Y0006350D02*
X0064727Y0006350D01*
X0064727Y0006349D02*
X0066721Y0006349D01*
X0066588Y0006348D02*
X0064727Y0006348D01*
X0064727Y0006347D02*
X0066455Y0006347D01*
X0066322Y0006346D02*
X0064727Y0006346D01*
X0064727Y0006345D02*
X0066189Y0006345D01*
X0066057Y0006344D02*
X0064727Y0006344D01*
X0065924Y0006344D01*
X0065791Y0006343D02*
X0064727Y0006343D01*
X0064727Y0006342D02*
X0065658Y0006342D01*
X0065525Y0006341D02*
X0064727Y0006341D01*
X0064727Y0006340D02*
X0065392Y0006340D01*
X0065259Y0006339D02*
X0064727Y0006339D01*
X0064726Y0006338D02*
X0065127Y0006338D01*
X0064994Y0006337D02*
X0064726Y0006337D01*
X0064726Y0006336D02*
X0064861Y0006336D01*
X0064728Y0006335D02*
X0064726Y0006335D01*
D43*
X0153809Y0139104D03*
X0153809Y0146860D03*
D44*
X0139045Y0142982D03*
D45*
X0131171Y0087864D03*
X0131171Y0064242D03*
X0316211Y0272904D03*
X0316211Y0296526D03*
D46*
X0064242Y0249281D03*
X0040620Y0249281D03*
D47*
X0203967Y0082431D03*
X0213967Y0082431D03*
X0223967Y0082431D03*
X0233967Y0082431D03*
X0243967Y0082431D03*
X0253967Y0082431D03*
X0263967Y0082431D03*
X0273967Y0082431D03*
X0283967Y0082431D03*
X0293967Y0082431D03*
X0303967Y0082431D03*
X0313967Y0082431D03*
X0323967Y0082431D03*
X0333967Y0082431D03*
X0323967Y0032431D03*
X0323967Y0022431D03*
X0313967Y0022431D03*
X0303967Y0022431D03*
X0303967Y0032431D03*
X0293967Y0032431D03*
X0293967Y0022431D03*
X0283967Y0022431D03*
X0283967Y0032431D03*
X0273967Y0032431D03*
X0263967Y0032431D03*
X0263967Y0022431D03*
X0273967Y0022431D03*
X0253967Y0022431D03*
X0253967Y0032431D03*
X0243967Y0032431D03*
X0243967Y0022431D03*
X0233967Y0022431D03*
X0223967Y0022431D03*
X0223967Y0032431D03*
X0233967Y0032431D03*
X0213967Y0032431D03*
X0213967Y0022431D03*
X0203967Y0022431D03*
X0203967Y0032431D03*
X0203967Y0042431D03*
X0203967Y0052431D03*
X0203967Y0062431D03*
X0203967Y0072431D03*
X0213967Y0072431D03*
X0223967Y0072431D03*
X0233967Y0072431D03*
X0243967Y0072431D03*
X0253967Y0072431D03*
X0263967Y0072431D03*
X0273967Y0072431D03*
X0333967Y0022431D03*
D48*
X0174478Y0089045D03*
X0169360Y0089045D03*
D49*
X0217785Y0052931D03*
X0227785Y0051931D03*
X0237785Y0052931D03*
X0247785Y0051931D03*
X0257785Y0052931D03*
X0267785Y0051931D03*
X0277785Y0052931D03*
X0287785Y0051931D03*
X0297785Y0052931D03*
X0307785Y0051931D03*
X0265679Y0257156D03*
X0255679Y0257156D03*
X0089006Y0258140D03*
X0079006Y0258140D03*
D50*
X0128297Y0250266D03*
D51*
X0118297Y0250266D03*
M02*
