G75*
%MOIN*%
%OFA0B0*%
%FSLAX25Y25*%
%IPPOS*%
%LPD*%
%AMOC8*
5,1,8,0,0,1.08239X$1,22.5*
%
%ADD10C,0.00400*%
%ADD11C,0.00600*%
%ADD12C,0.00300*%
%ADD13C,0.00100*%
%ADD14C,0.00800*%
%ADD15C,0.00500*%
%ADD16C,0.00197*%
%ADD17C,0.00200*%
%ADD18R,0.02362X0.04331*%
%ADD19C,0.01000*%
%ADD20R,0.01600X0.02800*%
D10*
X0008312Y0031722D02*
X0007544Y0032489D01*
X0007544Y0034024D01*
X0008312Y0034791D01*
X0011381Y0034791D01*
X0012148Y0034024D01*
X0012148Y0032489D01*
X0011381Y0031722D01*
X0011381Y0036326D02*
X0010614Y0036326D01*
X0007544Y0039395D01*
X0007544Y0036326D01*
X0011381Y0036326D02*
X0012148Y0037093D01*
X0012148Y0038628D01*
X0011381Y0039395D01*
X0012148Y0040930D02*
X0012148Y0042464D01*
X0012148Y0041697D02*
X0007544Y0041697D01*
X0007544Y0042464D02*
X0007544Y0040930D01*
X0007544Y0054010D02*
X0007544Y0057079D01*
X0010614Y0054010D01*
X0011381Y0054010D01*
X0012148Y0054777D01*
X0012148Y0056312D01*
X0011381Y0057079D01*
X0007544Y0058614D02*
X0007544Y0061683D01*
X0012148Y0061683D01*
X0010614Y0063218D02*
X0007544Y0063218D01*
X0009846Y0063218D02*
X0009846Y0066287D01*
X0010614Y0066287D02*
X0012148Y0064752D01*
X0010614Y0063218D01*
X0010614Y0066287D02*
X0007544Y0066287D01*
X0007544Y0067822D02*
X0007544Y0069356D01*
X0007544Y0068589D02*
X0012148Y0068589D01*
X0012148Y0069356D02*
X0012148Y0067822D01*
X0011381Y0070891D02*
X0009846Y0070891D01*
X0009079Y0071658D01*
X0009079Y0073960D01*
X0009079Y0072426D02*
X0007544Y0070891D01*
X0007544Y0073960D02*
X0012148Y0073960D01*
X0012148Y0071658D01*
X0011381Y0070891D01*
X0012148Y0075495D02*
X0012148Y0078564D01*
X0007544Y0078564D01*
X0007544Y0075495D01*
X0009846Y0077030D02*
X0009846Y0078564D01*
X0009079Y0080099D02*
X0008312Y0080099D01*
X0007544Y0080866D01*
X0007544Y0082401D01*
X0008312Y0083168D01*
X0009846Y0082401D02*
X0009846Y0080866D01*
X0009079Y0080099D01*
X0011381Y0080099D02*
X0012148Y0080866D01*
X0012148Y0082401D01*
X0011381Y0083168D01*
X0010614Y0083168D01*
X0009846Y0082401D01*
X0029955Y0065181D02*
X0033024Y0065181D01*
X0031490Y0066716D02*
X0031490Y0063646D01*
X0034455Y0070181D02*
X0037524Y0070181D01*
X0037524Y0038685D02*
X0034455Y0038685D01*
X0031490Y0035220D02*
X0031490Y0032150D01*
X0029955Y0033685D02*
X0033024Y0033685D01*
X0122371Y0078857D02*
X0125441Y0078857D01*
X0126975Y0078857D02*
X0126975Y0075788D01*
X0128510Y0074253D01*
X0130044Y0075788D01*
X0130044Y0078857D01*
X0131579Y0078090D02*
X0131579Y0077322D01*
X0132346Y0076555D01*
X0133881Y0076555D01*
X0134648Y0075788D01*
X0134648Y0075020D01*
X0133881Y0074253D01*
X0132346Y0074253D01*
X0131579Y0075020D01*
X0131579Y0078090D02*
X0132346Y0078857D01*
X0133881Y0078857D01*
X0134648Y0078090D01*
X0136183Y0078090D02*
X0136950Y0078857D01*
X0138485Y0078857D01*
X0139252Y0078090D01*
X0139252Y0077322D01*
X0136183Y0074253D01*
X0139252Y0074253D01*
X0123906Y0074253D02*
X0123906Y0078857D01*
X0156487Y0050050D02*
X0158022Y0050050D01*
X0157254Y0050050D02*
X0157254Y0045446D01*
X0156487Y0045446D02*
X0158022Y0045446D01*
X0073727Y0113931D02*
X0069123Y0113931D01*
X0096425Y0135466D02*
X0096425Y0138535D01*
X0094891Y0137000D02*
X0097960Y0137000D01*
X0099007Y0209580D02*
X0098240Y0210347D01*
X0101309Y0213417D01*
X0101309Y0210347D01*
X0100542Y0209580D01*
X0099007Y0209580D01*
X0098240Y0210347D02*
X0098240Y0213417D01*
X0099007Y0214184D01*
X0100542Y0214184D01*
X0101309Y0213417D01*
X0102844Y0212649D02*
X0105913Y0209580D01*
X0107448Y0209580D02*
X0110517Y0212649D01*
X0107448Y0212649D02*
X0110517Y0209580D01*
X0105913Y0212649D02*
X0102844Y0209580D01*
X0096705Y0209580D02*
X0093636Y0209580D01*
X0096705Y0212649D01*
X0096705Y0213417D01*
X0095938Y0214184D01*
X0094404Y0214184D01*
X0093636Y0213417D01*
X0092102Y0213417D02*
X0092102Y0211882D01*
X0091334Y0211115D01*
X0089032Y0211115D01*
X0090567Y0211115D02*
X0092102Y0209580D01*
X0089032Y0209580D02*
X0089032Y0214184D01*
X0091334Y0214184D01*
X0092102Y0213417D01*
X0087498Y0214184D02*
X0084428Y0214184D01*
X0084428Y0209580D01*
X0087498Y0209580D01*
X0085963Y0211882D02*
X0084428Y0211882D01*
X0082894Y0211115D02*
X0082894Y0210347D01*
X0082126Y0209580D01*
X0080592Y0209580D01*
X0079824Y0210347D01*
X0080592Y0211882D02*
X0082126Y0211882D01*
X0082894Y0211115D01*
X0082894Y0213417D02*
X0082126Y0214184D01*
X0080592Y0214184D01*
X0079824Y0213417D01*
X0079824Y0212649D01*
X0080592Y0211882D01*
X0068611Y0222847D02*
X0067844Y0222080D01*
X0066309Y0222080D01*
X0065542Y0222847D01*
X0064007Y0222080D02*
X0060938Y0222080D01*
X0060938Y0226684D01*
X0065542Y0225917D02*
X0066309Y0226684D01*
X0067844Y0226684D01*
X0068611Y0225917D01*
X0068611Y0225149D01*
X0067844Y0224382D01*
X0068611Y0223615D01*
X0068611Y0222847D01*
X0067844Y0224382D02*
X0067077Y0224382D01*
X0049627Y0240481D02*
X0049627Y0243551D01*
X0049627Y0245085D02*
X0052696Y0245085D01*
X0054231Y0246620D01*
X0052696Y0248155D01*
X0049627Y0248155D01*
X0050395Y0249689D02*
X0051162Y0249689D01*
X0051929Y0250457D01*
X0051929Y0251991D01*
X0052696Y0252759D01*
X0053464Y0252759D01*
X0054231Y0251991D01*
X0054231Y0250457D01*
X0053464Y0249689D01*
X0050395Y0249689D02*
X0049627Y0250457D01*
X0049627Y0251991D01*
X0050395Y0252759D01*
X0050395Y0254293D02*
X0049627Y0255061D01*
X0049627Y0256595D01*
X0050395Y0257363D01*
X0051162Y0257363D01*
X0051929Y0256595D01*
X0052696Y0257363D01*
X0053464Y0257363D01*
X0054231Y0256595D01*
X0054231Y0255061D01*
X0053464Y0254293D01*
X0051929Y0255828D02*
X0051929Y0256595D01*
X0054231Y0242016D02*
X0049627Y0242016D01*
X0049178Y0276505D02*
X0049945Y0277272D01*
X0049945Y0280342D01*
X0049178Y0281109D01*
X0047643Y0281109D01*
X0046876Y0280342D01*
X0046876Y0277272D01*
X0047643Y0276505D01*
X0049178Y0276505D01*
X0045341Y0276505D02*
X0045341Y0280342D01*
X0044574Y0281109D01*
X0043039Y0281109D01*
X0042272Y0280342D01*
X0042272Y0276505D01*
X0040737Y0276505D02*
X0037668Y0276505D01*
X0039203Y0276505D02*
X0039203Y0281109D01*
X0031530Y0278807D02*
X0028460Y0278807D01*
X0029995Y0277272D02*
X0029995Y0280342D01*
X0056084Y0280342D02*
X0056851Y0281109D01*
X0058386Y0281109D01*
X0059153Y0280342D01*
X0059153Y0277272D01*
X0058386Y0276505D01*
X0056851Y0276505D01*
X0056084Y0277272D01*
X0060688Y0277272D02*
X0061455Y0276505D01*
X0062990Y0276505D01*
X0063757Y0277272D01*
X0063757Y0278040D01*
X0062990Y0278807D01*
X0061455Y0278807D01*
X0060688Y0279574D01*
X0060688Y0280342D01*
X0061455Y0281109D01*
X0062990Y0281109D01*
X0063757Y0280342D01*
X0095555Y0274755D02*
X0098624Y0274755D01*
X0098624Y0273987D01*
X0095555Y0270918D01*
X0095555Y0270151D01*
X0100159Y0270918D02*
X0100159Y0271685D01*
X0100926Y0272453D01*
X0102461Y0272453D01*
X0103228Y0271685D01*
X0103228Y0270918D01*
X0102461Y0270151D01*
X0100926Y0270151D01*
X0100159Y0270918D01*
X0100926Y0272453D02*
X0100159Y0273220D01*
X0100159Y0273987D01*
X0100926Y0274755D01*
X0102461Y0274755D01*
X0103228Y0273987D01*
X0103228Y0273220D01*
X0102461Y0272453D01*
X0104763Y0273220D02*
X0106297Y0274755D01*
X0106297Y0270151D01*
X0104763Y0270151D02*
X0107832Y0270151D01*
X0109366Y0270151D02*
X0112436Y0273220D01*
X0112436Y0273987D01*
X0111668Y0274755D01*
X0110134Y0274755D01*
X0109366Y0273987D01*
X0109366Y0270151D02*
X0112436Y0270151D01*
X0109390Y0259943D02*
X0109390Y0257541D01*
X0108189Y0256340D01*
X0106988Y0257541D01*
X0106988Y0259943D01*
X0105707Y0259342D02*
X0105106Y0259943D01*
X0103905Y0259943D01*
X0103304Y0259342D01*
X0105707Y0259342D02*
X0105707Y0258742D01*
X0103304Y0256340D01*
X0105707Y0256340D01*
X0102023Y0256340D02*
X0099621Y0256340D01*
X0100822Y0256340D02*
X0100822Y0259943D01*
X0099621Y0258742D01*
X0098340Y0259342D02*
X0097740Y0259943D01*
X0096539Y0259943D01*
X0095938Y0259342D01*
X0095938Y0258742D01*
X0096539Y0258141D01*
X0097740Y0258141D01*
X0098340Y0257541D01*
X0098340Y0256940D01*
X0097740Y0256340D01*
X0096539Y0256340D01*
X0095938Y0256940D01*
X0134509Y0284836D02*
X0137578Y0284836D01*
X0136043Y0283302D02*
X0136043Y0286371D01*
X0141043Y0281871D02*
X0141043Y0278802D01*
X0166005Y0284836D02*
X0169074Y0284836D01*
X0167539Y0283302D02*
X0167539Y0286371D01*
X0172539Y0281871D02*
X0172539Y0278802D01*
X0197501Y0284836D02*
X0200570Y0284836D01*
X0199035Y0283302D02*
X0199035Y0286371D01*
X0204035Y0281871D02*
X0204035Y0278802D01*
X0228997Y0284836D02*
X0232066Y0284836D01*
X0230532Y0283302D02*
X0230532Y0286371D01*
X0235532Y0281871D02*
X0235532Y0278802D01*
X0257041Y0295820D02*
X0257041Y0296587D01*
X0260110Y0299657D01*
X0260110Y0300424D01*
X0257041Y0300424D01*
X0261644Y0299657D02*
X0261644Y0298889D01*
X0262412Y0298122D01*
X0263946Y0298122D01*
X0264714Y0297355D01*
X0264714Y0296587D01*
X0263946Y0295820D01*
X0262412Y0295820D01*
X0261644Y0296587D01*
X0261644Y0297355D01*
X0262412Y0298122D01*
X0263946Y0298122D02*
X0264714Y0298889D01*
X0264714Y0299657D01*
X0263946Y0300424D01*
X0262412Y0300424D01*
X0261644Y0299657D01*
X0266248Y0300424D02*
X0266248Y0295820D01*
X0269318Y0295820D01*
X0270852Y0296587D02*
X0271620Y0295820D01*
X0273154Y0295820D01*
X0273922Y0296587D01*
X0273922Y0297355D01*
X0273154Y0298122D01*
X0272387Y0298122D01*
X0273154Y0298122D02*
X0273922Y0298889D01*
X0273922Y0299657D01*
X0273154Y0300424D01*
X0271620Y0300424D01*
X0270852Y0299657D01*
X0269318Y0300424D02*
X0266248Y0300424D01*
X0266248Y0298122D02*
X0267783Y0298122D01*
X0275456Y0296587D02*
X0276224Y0296587D01*
X0276224Y0295820D01*
X0275456Y0295820D01*
X0275456Y0296587D01*
X0277758Y0296587D02*
X0278526Y0295820D01*
X0280060Y0295820D01*
X0280827Y0296587D01*
X0280827Y0297355D01*
X0280060Y0298122D01*
X0279293Y0298122D01*
X0280060Y0298122D02*
X0280827Y0298889D01*
X0280827Y0299657D01*
X0280060Y0300424D01*
X0278526Y0300424D01*
X0277758Y0299657D01*
X0306995Y0286518D02*
X0310064Y0286518D01*
X0308530Y0286518D02*
X0308530Y0281915D01*
X0311599Y0283449D02*
X0311599Y0286518D01*
X0311599Y0283449D02*
X0313133Y0281915D01*
X0314668Y0283449D01*
X0314668Y0286518D01*
X0316203Y0285751D02*
X0316203Y0284984D01*
X0316970Y0284217D01*
X0318505Y0284217D01*
X0319272Y0283449D01*
X0319272Y0282682D01*
X0318505Y0281915D01*
X0316970Y0281915D01*
X0316203Y0282682D01*
X0316203Y0285751D02*
X0316970Y0286518D01*
X0318505Y0286518D01*
X0319272Y0285751D01*
X0320807Y0284984D02*
X0322341Y0286518D01*
X0322341Y0281915D01*
X0320807Y0281915D02*
X0323876Y0281915D01*
X0328185Y0272159D02*
X0328185Y0269090D01*
X0326650Y0270625D02*
X0329720Y0270625D01*
X0330487Y0262952D02*
X0325883Y0262952D01*
X0325883Y0259882D02*
X0330487Y0262952D01*
X0330487Y0259882D02*
X0325883Y0259882D01*
X0325883Y0258348D02*
X0325883Y0256813D01*
X0325883Y0257580D02*
X0330487Y0257580D01*
X0330487Y0256813D02*
X0330487Y0258348D01*
X0329720Y0250674D02*
X0330487Y0249907D01*
X0330487Y0248372D01*
X0329720Y0247605D01*
X0326650Y0247605D01*
X0325883Y0248372D01*
X0325883Y0249907D01*
X0326650Y0250674D01*
X0325883Y0246070D02*
X0325883Y0243001D01*
X0330487Y0243001D01*
X0328185Y0243001D02*
X0328185Y0244536D01*
X0294223Y0213417D02*
X0293455Y0214184D01*
X0291921Y0214184D01*
X0291154Y0213417D01*
X0291154Y0210347D01*
X0294223Y0213417D01*
X0294223Y0210347D01*
X0293455Y0209580D01*
X0291921Y0209580D01*
X0291154Y0210347D01*
X0289619Y0209580D02*
X0286550Y0209580D01*
X0289619Y0212649D01*
X0289619Y0213417D01*
X0288852Y0214184D01*
X0287317Y0214184D01*
X0286550Y0213417D01*
X0285015Y0213417D02*
X0285015Y0211882D01*
X0284248Y0211115D01*
X0281946Y0211115D01*
X0283480Y0211115D02*
X0285015Y0209580D01*
X0281946Y0209580D02*
X0281946Y0214184D01*
X0284248Y0214184D01*
X0285015Y0213417D01*
X0280411Y0214184D02*
X0277342Y0214184D01*
X0277342Y0209580D01*
X0280411Y0209580D01*
X0278876Y0211882D02*
X0277342Y0211882D01*
X0275807Y0211115D02*
X0275807Y0210347D01*
X0275040Y0209580D01*
X0273505Y0209580D01*
X0272738Y0210347D01*
X0273505Y0211882D02*
X0275040Y0211882D01*
X0275807Y0211115D01*
X0275807Y0213417D02*
X0275040Y0214184D01*
X0273505Y0214184D01*
X0272738Y0213417D01*
X0272738Y0212649D01*
X0273505Y0211882D01*
X0261525Y0222080D02*
X0258455Y0222080D01*
X0256921Y0222080D02*
X0253852Y0222080D01*
X0253852Y0226684D01*
X0258455Y0225149D02*
X0259990Y0226684D01*
X0259990Y0222080D01*
X0259922Y0244870D02*
X0258721Y0244870D01*
X0258121Y0245471D01*
X0256839Y0245471D02*
X0256239Y0244870D01*
X0255038Y0244870D01*
X0254437Y0245471D01*
X0255038Y0246672D02*
X0256239Y0246672D01*
X0256839Y0246071D01*
X0256839Y0245471D01*
X0255038Y0246672D02*
X0254437Y0247273D01*
X0254437Y0247873D01*
X0255038Y0248474D01*
X0256239Y0248474D01*
X0256839Y0247873D01*
X0258121Y0247873D02*
X0258721Y0248474D01*
X0259922Y0248474D01*
X0260523Y0247873D01*
X0260523Y0247273D01*
X0259922Y0246672D01*
X0260523Y0246071D01*
X0260523Y0245471D01*
X0259922Y0244870D01*
X0259922Y0246672D02*
X0259322Y0246672D01*
X0261804Y0246071D02*
X0261804Y0248474D01*
X0264206Y0248474D02*
X0264206Y0246071D01*
X0263005Y0244870D01*
X0261804Y0246071D01*
X0295757Y0212649D02*
X0298827Y0209580D01*
X0300361Y0209580D02*
X0303431Y0212649D01*
X0303431Y0209580D02*
X0300361Y0212649D01*
X0298827Y0212649D02*
X0295757Y0209580D01*
X0248223Y0141271D02*
X0248223Y0138202D01*
X0246689Y0139736D02*
X0249758Y0139736D01*
X0271293Y0117038D02*
X0271293Y0112434D01*
X0342390Y0074570D02*
X0342390Y0072835D01*
X0343258Y0071968D01*
X0342390Y0074570D02*
X0343258Y0075437D01*
X0344125Y0075437D01*
X0347595Y0071968D01*
X0347595Y0075437D01*
X0347595Y0070257D02*
X0347595Y0069389D01*
X0346727Y0069389D01*
X0346727Y0070257D01*
X0347595Y0070257D01*
X0346727Y0067703D02*
X0345860Y0067703D01*
X0344993Y0066835D01*
X0344993Y0065968D01*
X0344993Y0066835D02*
X0344125Y0067703D01*
X0343258Y0067703D01*
X0342390Y0066835D01*
X0342390Y0065100D01*
X0343258Y0064233D01*
X0346727Y0064233D02*
X0347595Y0065100D01*
X0347595Y0066835D01*
X0346727Y0067703D01*
X0343258Y0057390D02*
X0342390Y0057390D01*
X0343258Y0057390D02*
X0344993Y0055655D01*
X0347595Y0055655D01*
X0344993Y0055655D02*
X0343258Y0053920D01*
X0342390Y0053920D01*
X0343258Y0052233D02*
X0342390Y0051366D01*
X0342390Y0049631D01*
X0343258Y0048764D01*
X0344125Y0048764D01*
X0344993Y0049631D01*
X0344993Y0051366D01*
X0345860Y0052233D01*
X0346727Y0052233D01*
X0347595Y0051366D01*
X0347595Y0049631D01*
X0346727Y0048764D01*
X0347595Y0047077D02*
X0342390Y0047077D01*
X0342390Y0043607D02*
X0347595Y0047077D01*
X0347595Y0043607D02*
X0342390Y0043607D01*
X0342390Y0041921D02*
X0342390Y0038451D01*
X0347595Y0038451D01*
X0347595Y0041921D01*
X0344993Y0040186D02*
X0344993Y0038451D01*
X0347595Y0036764D02*
X0347595Y0033295D01*
X0342390Y0033295D01*
X0342390Y0036764D01*
X0344993Y0035029D02*
X0344993Y0033295D01*
X0342390Y0031608D02*
X0342390Y0028138D01*
X0342390Y0029873D02*
X0347595Y0029873D01*
X0195541Y0151526D02*
X0188848Y0151526D01*
X0188848Y0155856D02*
X0195541Y0155856D01*
X0150068Y0249524D02*
X0146999Y0249524D01*
X0150068Y0252593D01*
X0150068Y0253360D01*
X0149301Y0254128D01*
X0147766Y0254128D01*
X0146999Y0253360D01*
X0145464Y0249524D02*
X0142395Y0249524D01*
X0142395Y0254128D01*
D11*
X0025800Y0004936D02*
X0023665Y0004936D01*
X0024732Y0004936D02*
X0024732Y0011341D01*
X0023665Y0011341D02*
X0025800Y0011341D01*
X0027962Y0010274D02*
X0029029Y0011341D01*
X0031164Y0011341D01*
X0032232Y0010274D01*
X0032232Y0009206D01*
X0027962Y0004936D01*
X0032232Y0004936D01*
X0034407Y0006003D02*
X0035475Y0004936D01*
X0037610Y0004936D01*
X0038677Y0006003D01*
X0034407Y0006003D02*
X0034407Y0010274D01*
X0035475Y0011341D01*
X0037610Y0011341D01*
X0038677Y0010274D01*
X0042695Y0205581D02*
X0042695Y0218278D01*
X0054293Y0218278D02*
X0054293Y0205581D01*
X0166713Y0210874D02*
X0169916Y0210874D01*
X0170983Y0211941D01*
X0170983Y0216212D01*
X0169916Y0217279D01*
X0166713Y0217279D01*
X0166713Y0210874D01*
X0173158Y0210874D02*
X0177429Y0210874D01*
X0175294Y0210874D02*
X0175294Y0217279D01*
X0173158Y0215144D01*
X0171527Y0221374D02*
X0169392Y0221374D01*
X0168324Y0222441D01*
X0168324Y0226712D01*
X0169392Y0227779D01*
X0171527Y0227779D01*
X0172595Y0226712D01*
X0174770Y0224576D02*
X0174770Y0222441D01*
X0175837Y0221374D01*
X0177972Y0221374D01*
X0179040Y0222441D01*
X0179040Y0224576D01*
X0177972Y0225644D01*
X0175837Y0225644D01*
X0174770Y0224576D01*
X0172595Y0222441D02*
X0171527Y0221374D01*
X0179604Y0217279D02*
X0183874Y0217279D01*
X0183874Y0216212D01*
X0179604Y0211941D01*
X0179604Y0210874D01*
X0186049Y0211941D02*
X0186049Y0213009D01*
X0187117Y0214076D01*
X0189252Y0214076D01*
X0190320Y0213009D01*
X0190320Y0211941D01*
X0189252Y0210874D01*
X0187117Y0210874D01*
X0186049Y0211941D01*
X0187117Y0214076D02*
X0186049Y0215144D01*
X0186049Y0216212D01*
X0187117Y0217279D01*
X0189252Y0217279D01*
X0190320Y0216212D01*
X0190320Y0215144D01*
X0189252Y0214076D01*
X0192495Y0211941D02*
X0192495Y0210874D01*
X0192495Y0211941D02*
X0196765Y0216212D01*
X0196765Y0217279D01*
X0192495Y0217279D01*
X0194080Y0221374D02*
X0190877Y0221374D01*
X0189809Y0222441D01*
X0189809Y0224576D01*
X0190877Y0225644D01*
X0194080Y0225644D01*
X0196255Y0225644D02*
X0196255Y0221374D01*
X0196255Y0223509D02*
X0198390Y0225644D01*
X0199457Y0225644D01*
X0202694Y0225644D02*
X0204829Y0225644D01*
X0205896Y0224576D01*
X0205896Y0221374D01*
X0202694Y0221374D01*
X0201626Y0222441D01*
X0202694Y0223509D01*
X0205896Y0223509D01*
X0208071Y0224576D02*
X0210207Y0224576D01*
X0209139Y0226712D02*
X0209139Y0221374D01*
X0207521Y0217279D02*
X0209656Y0215144D01*
X0209656Y0210874D01*
X0211831Y0210874D02*
X0216102Y0210874D01*
X0211831Y0210874D02*
X0211831Y0217279D01*
X0209656Y0214076D02*
X0205386Y0214076D01*
X0205386Y0215144D02*
X0207521Y0217279D01*
X0205386Y0215144D02*
X0205386Y0210874D01*
X0203211Y0214076D02*
X0198940Y0214076D01*
X0187647Y0221374D02*
X0185512Y0221374D01*
X0186580Y0221374D02*
X0186580Y0227779D01*
X0185512Y0227779D01*
X0182283Y0227779D02*
X0182283Y0228847D01*
X0182283Y0225644D02*
X0182283Y0221374D01*
X0183350Y0221374D02*
X0181215Y0221374D01*
X0181215Y0225644D02*
X0182283Y0225644D01*
X0209139Y0226712D02*
X0210207Y0227779D01*
X0212368Y0225644D02*
X0214504Y0225644D01*
X0213436Y0226712D02*
X0213436Y0222441D01*
X0214504Y0221374D01*
X0308337Y0163053D02*
X0321033Y0163053D01*
X0321033Y0151455D02*
X0308337Y0151455D01*
D12*
X0322069Y0140124D02*
X0328069Y0140124D01*
X0328069Y0128124D01*
X0322069Y0128124D01*
X0322069Y0140124D01*
X0329943Y0140124D02*
X0335943Y0140124D01*
X0335943Y0128124D01*
X0329943Y0128124D01*
X0329943Y0140124D01*
X0335006Y0127297D02*
X0323006Y0127297D01*
X0323006Y0121297D01*
X0335006Y0121297D01*
X0335006Y0127297D01*
X0335006Y0119407D02*
X0323006Y0119407D01*
X0323006Y0113407D01*
X0335006Y0113407D01*
X0335006Y0119407D01*
X0263443Y0120269D02*
X0263443Y0121503D01*
X0262825Y0122120D01*
X0263443Y0123335D02*
X0263443Y0125804D01*
X0263443Y0124569D02*
X0259739Y0124569D01*
X0260974Y0123335D01*
X0260357Y0122120D02*
X0259739Y0121503D01*
X0259739Y0120269D01*
X0260357Y0119652D01*
X0262825Y0119652D01*
X0263443Y0120269D01*
X0261591Y0127018D02*
X0261591Y0129487D01*
X0260974Y0130701D02*
X0259739Y0131935D01*
X0263443Y0131935D01*
X0263443Y0130701D02*
X0263443Y0133170D01*
X0217833Y0123392D02*
X0217833Y0111392D01*
X0211833Y0111392D01*
X0211833Y0123392D01*
X0217833Y0123392D01*
X0202210Y0123354D02*
X0200275Y0123354D01*
X0201726Y0124805D01*
X0201726Y0121902D01*
X0199264Y0122386D02*
X0198780Y0121902D01*
X0197812Y0121902D01*
X0197329Y0122386D01*
X0196317Y0122386D02*
X0195833Y0121902D01*
X0194866Y0121902D01*
X0194382Y0122386D01*
X0194382Y0122870D01*
X0194866Y0123354D01*
X0195833Y0123354D01*
X0196317Y0122870D01*
X0196317Y0122386D01*
X0195833Y0123354D02*
X0196317Y0123837D01*
X0196317Y0124321D01*
X0195833Y0124805D01*
X0194866Y0124805D01*
X0194382Y0124321D01*
X0194382Y0123837D01*
X0194866Y0123354D01*
X0193371Y0121902D02*
X0191436Y0121902D01*
X0192403Y0121902D02*
X0192403Y0124805D01*
X0191436Y0123837D01*
X0190424Y0123837D02*
X0188489Y0121902D01*
X0190424Y0121902D01*
X0190424Y0123837D02*
X0190424Y0124321D01*
X0189940Y0124805D01*
X0188973Y0124805D01*
X0188489Y0124321D01*
X0187478Y0124321D02*
X0187478Y0123354D01*
X0186994Y0122870D01*
X0185543Y0122870D01*
X0186510Y0122870D02*
X0187478Y0121902D01*
X0185543Y0121902D02*
X0185543Y0124805D01*
X0186994Y0124805D01*
X0187478Y0124321D01*
X0184546Y0124805D02*
X0183578Y0124805D01*
X0184062Y0124805D02*
X0184062Y0121902D01*
X0183578Y0121902D02*
X0184546Y0121902D01*
X0197329Y0124321D02*
X0197812Y0124805D01*
X0198780Y0124805D01*
X0199264Y0124321D01*
X0199264Y0123837D01*
X0198780Y0123354D01*
X0199264Y0122870D01*
X0199264Y0122386D01*
X0198780Y0123354D02*
X0198296Y0123354D01*
X0179618Y0105378D02*
X0179134Y0105862D01*
X0178167Y0105862D01*
X0177683Y0105378D01*
X0179618Y0105378D02*
X0179618Y0104894D01*
X0177683Y0102959D01*
X0179618Y0102959D01*
X0176671Y0102959D02*
X0174736Y0102959D01*
X0174736Y0105862D01*
X0173725Y0105378D02*
X0173725Y0103443D01*
X0173241Y0102959D01*
X0172273Y0102959D01*
X0171790Y0103443D01*
X0171790Y0105378D01*
X0172273Y0105862D01*
X0173241Y0105862D01*
X0173725Y0105378D01*
X0172757Y0103927D02*
X0173725Y0102959D01*
X0184226Y0102675D02*
X0184226Y0096675D01*
X0196226Y0096675D01*
X0196226Y0102675D01*
X0184226Y0102675D01*
X0164191Y0091404D02*
X0164191Y0079404D01*
X0158191Y0079404D01*
X0158191Y0091404D01*
X0164191Y0091404D01*
X0127357Y0102531D02*
X0125422Y0102531D01*
X0126389Y0102531D02*
X0126389Y0105433D01*
X0125422Y0104466D01*
X0124410Y0102531D02*
X0122475Y0102531D01*
X0122475Y0105433D01*
X0121464Y0104949D02*
X0120980Y0105433D01*
X0120013Y0105433D01*
X0119529Y0104949D01*
X0119529Y0103014D01*
X0120013Y0102531D01*
X0120980Y0102531D01*
X0121464Y0103014D01*
X0121464Y0104949D01*
X0120496Y0103498D02*
X0121464Y0102531D01*
X0089863Y0122916D02*
X0087394Y0122916D01*
X0088628Y0122916D02*
X0088628Y0126619D01*
X0087394Y0125385D01*
X0086180Y0124767D02*
X0083711Y0124767D01*
X0082496Y0125385D02*
X0080028Y0122916D01*
X0082496Y0122916D01*
X0082496Y0125385D02*
X0082496Y0126002D01*
X0081879Y0126619D01*
X0080645Y0126619D01*
X0080028Y0126002D01*
X0078813Y0126002D02*
X0078196Y0126619D01*
X0076962Y0126619D01*
X0076345Y0126002D01*
X0076345Y0123533D01*
X0076962Y0122916D01*
X0078196Y0122916D01*
X0078813Y0123533D01*
X0042636Y0125171D02*
X0036636Y0125171D01*
X0036636Y0137171D01*
X0042636Y0137171D01*
X0042636Y0125171D01*
X0033778Y0125171D02*
X0027778Y0125171D01*
X0027778Y0137171D01*
X0033778Y0137171D01*
X0033778Y0125171D01*
X0024919Y0125171D02*
X0018919Y0125171D01*
X0018919Y0137171D01*
X0024919Y0137171D01*
X0024919Y0125171D01*
X0015077Y0125171D02*
X0009077Y0125171D01*
X0009077Y0137171D01*
X0015077Y0137171D01*
X0015077Y0125171D01*
X0011943Y0116140D02*
X0023943Y0116140D01*
X0023943Y0110140D01*
X0011943Y0110140D01*
X0011943Y0116140D01*
X0011943Y0109093D02*
X0023943Y0109093D01*
X0023943Y0103093D01*
X0011943Y0103093D01*
X0011943Y0109093D01*
X0011943Y0102045D02*
X0023943Y0102045D01*
X0023943Y0096045D01*
X0011943Y0096045D01*
X0011943Y0102045D01*
X0011943Y0094998D02*
X0023943Y0094998D01*
X0023943Y0088998D01*
X0011943Y0088998D01*
X0011943Y0094998D01*
X0020812Y0083777D02*
X0022747Y0080875D01*
X0023759Y0080875D02*
X0025694Y0080875D01*
X0024726Y0080875D02*
X0024726Y0083777D01*
X0022747Y0083777D02*
X0020812Y0080875D01*
X0038583Y0092441D02*
X0040034Y0090990D01*
X0040034Y0092925D01*
X0041485Y0092441D02*
X0038583Y0092441D01*
X0039066Y0097880D02*
X0038583Y0098363D01*
X0038583Y0099331D01*
X0039066Y0099814D01*
X0039550Y0099814D01*
X0040034Y0099331D01*
X0040518Y0099814D01*
X0041001Y0099814D01*
X0041485Y0099331D01*
X0041485Y0098363D01*
X0041001Y0097880D01*
X0040034Y0098847D02*
X0040034Y0099331D01*
X0039066Y0104769D02*
X0038583Y0105253D01*
X0038583Y0106220D01*
X0039066Y0106704D01*
X0039550Y0106704D01*
X0041485Y0104769D01*
X0041485Y0106704D01*
X0041485Y0111659D02*
X0041485Y0113594D01*
X0041485Y0112627D02*
X0038583Y0112627D01*
X0039550Y0111659D01*
X0042466Y0083777D02*
X0044401Y0080875D01*
X0045412Y0081358D02*
X0045412Y0082326D01*
X0045896Y0082810D01*
X0047347Y0082810D01*
X0046380Y0082810D02*
X0045412Y0083777D01*
X0044401Y0083777D02*
X0042466Y0080875D01*
X0045412Y0081358D02*
X0045896Y0080875D01*
X0047347Y0080875D01*
X0047347Y0083777D01*
X0040652Y0143888D02*
X0040652Y0153888D01*
X0044652Y0157699D02*
X0044652Y0163699D01*
X0032652Y0163699D01*
X0032652Y0157699D01*
X0044652Y0157699D01*
X0045589Y0166510D02*
X0039589Y0166510D01*
X0039589Y0178510D01*
X0045589Y0178510D01*
X0045589Y0166510D01*
X0037715Y0166510D02*
X0031715Y0166510D01*
X0031715Y0178510D01*
X0037715Y0178510D01*
X0037715Y0166510D01*
X0029841Y0166510D02*
X0023841Y0166510D01*
X0023841Y0178510D01*
X0029841Y0178510D01*
X0029841Y0166510D01*
X0021967Y0166510D02*
X0015967Y0166510D01*
X0015967Y0178510D01*
X0021967Y0178510D01*
X0021967Y0166510D01*
X0014093Y0166510D02*
X0008093Y0166510D01*
X0008093Y0178510D01*
X0014093Y0178510D01*
X0014093Y0166510D01*
X0022856Y0154888D02*
X0028856Y0154888D01*
X0028856Y0142888D01*
X0022856Y0142888D01*
X0022856Y0154888D01*
X0032268Y0204630D02*
X0034203Y0204630D01*
X0034687Y0205114D01*
X0034687Y0206565D01*
X0031784Y0206565D01*
X0031784Y0205114D01*
X0032268Y0204630D01*
X0031784Y0207577D02*
X0031784Y0209512D01*
X0034687Y0209512D01*
X0034687Y0207577D01*
X0033235Y0208544D02*
X0033235Y0209512D01*
X0032752Y0210523D02*
X0032268Y0210523D01*
X0031784Y0211007D01*
X0031784Y0211974D01*
X0032268Y0212458D01*
X0032268Y0213470D02*
X0034687Y0213470D01*
X0034203Y0212458D02*
X0033719Y0212458D01*
X0033235Y0211974D01*
X0033235Y0211007D01*
X0032752Y0210523D01*
X0034203Y0210523D02*
X0034687Y0211007D01*
X0034687Y0211974D01*
X0034203Y0212458D01*
X0032268Y0213470D02*
X0031784Y0213953D01*
X0031784Y0214921D01*
X0032268Y0215405D01*
X0034687Y0215405D01*
X0034687Y0216416D02*
X0034687Y0218351D01*
X0031784Y0218351D01*
X0031784Y0219363D02*
X0034687Y0219363D01*
X0033235Y0218351D02*
X0033235Y0217384D01*
X0031784Y0219363D02*
X0034687Y0221298D01*
X0031784Y0221298D01*
X0032268Y0222309D02*
X0034687Y0222309D01*
X0034687Y0224244D02*
X0032268Y0224244D01*
X0031784Y0223760D01*
X0031784Y0222793D01*
X0032268Y0222309D01*
X0032752Y0228202D02*
X0034687Y0228202D01*
X0034687Y0230137D02*
X0032752Y0230137D01*
X0031784Y0229170D01*
X0032752Y0228202D01*
X0032268Y0231149D02*
X0031784Y0231633D01*
X0031784Y0232600D01*
X0032268Y0233084D01*
X0034203Y0231149D01*
X0032268Y0231149D01*
X0032268Y0233084D02*
X0034203Y0233084D01*
X0034687Y0232600D01*
X0034687Y0231633D01*
X0034203Y0231149D01*
X0034203Y0234095D02*
X0033719Y0234095D01*
X0033235Y0234579D01*
X0032752Y0234095D01*
X0032268Y0234095D01*
X0031784Y0234579D01*
X0031784Y0235547D01*
X0032268Y0236030D01*
X0033235Y0235063D02*
X0033235Y0234579D01*
X0034203Y0234095D02*
X0034687Y0234579D01*
X0034687Y0235547D01*
X0034203Y0236030D01*
X0123198Y0160809D02*
X0126100Y0160809D01*
X0124649Y0160809D02*
X0124649Y0158874D01*
X0125616Y0157863D02*
X0126100Y0157379D01*
X0126100Y0156411D01*
X0125616Y0155928D01*
X0123681Y0155928D01*
X0123198Y0156411D01*
X0123198Y0157379D01*
X0123681Y0157863D01*
X0125616Y0157863D01*
X0126100Y0157863D02*
X0125133Y0156895D01*
X0126100Y0158874D02*
X0123198Y0158874D01*
X0125414Y0146541D02*
X0126381Y0146541D01*
X0126865Y0146057D01*
X0126865Y0144606D01*
X0126865Y0145573D02*
X0127832Y0146541D01*
X0127832Y0144606D02*
X0124930Y0144606D01*
X0124930Y0146057D01*
X0125414Y0146541D01*
X0125414Y0143594D02*
X0125897Y0143594D01*
X0126381Y0143110D01*
X0126381Y0141659D01*
X0127832Y0141659D02*
X0124930Y0141659D01*
X0124930Y0143110D01*
X0125414Y0143594D01*
X0126381Y0143110D02*
X0126865Y0143594D01*
X0127349Y0143594D01*
X0127832Y0143110D01*
X0127832Y0141659D01*
X0127832Y0140647D02*
X0124930Y0140647D01*
X0125897Y0139680D01*
X0124930Y0138713D01*
X0127832Y0138713D01*
X0173163Y0143250D02*
X0173163Y0149250D01*
X0185163Y0149250D01*
X0185163Y0143250D01*
X0173163Y0143250D01*
X0196274Y0143801D02*
X0196274Y0149801D01*
X0208274Y0149801D01*
X0208274Y0143801D01*
X0196274Y0143801D01*
X0276746Y0259077D02*
X0276746Y0265077D01*
X0288746Y0265077D01*
X0288746Y0259077D01*
X0276746Y0259077D01*
X0044221Y0023740D02*
X0044221Y0020838D01*
X0046156Y0020838D01*
X0043210Y0021322D02*
X0042726Y0020838D01*
X0041758Y0020838D01*
X0041275Y0021322D01*
X0041275Y0023257D01*
X0041758Y0023740D01*
X0042726Y0023740D01*
X0043210Y0023257D01*
X0040263Y0023257D02*
X0039779Y0023740D01*
X0038812Y0023740D01*
X0038328Y0023257D01*
X0038328Y0022773D01*
X0038812Y0022289D01*
X0039779Y0022289D01*
X0040263Y0021805D01*
X0040263Y0021322D01*
X0039779Y0020838D01*
X0038812Y0020838D01*
X0038328Y0021322D01*
X0027929Y0020838D02*
X0027929Y0022773D01*
X0026961Y0023740D01*
X0025994Y0022773D01*
X0025994Y0020838D01*
X0024982Y0021322D02*
X0024982Y0023257D01*
X0024499Y0023740D01*
X0023047Y0023740D01*
X0023047Y0020838D01*
X0024499Y0020838D01*
X0024982Y0021322D01*
X0025994Y0022289D02*
X0027929Y0022289D01*
X0022036Y0021805D02*
X0022036Y0021322D01*
X0021552Y0020838D01*
X0020585Y0020838D01*
X0020101Y0021322D01*
X0020585Y0022289D02*
X0021552Y0022289D01*
X0022036Y0021805D01*
X0022036Y0023257D02*
X0021552Y0023740D01*
X0020585Y0023740D01*
X0020101Y0023257D01*
X0020101Y0022773D01*
X0020585Y0022289D01*
X0300841Y0015746D02*
X0300841Y0009746D01*
X0312841Y0009746D01*
X0312841Y0015746D01*
X0300841Y0015746D01*
X0313872Y0015746D02*
X0313872Y0009746D01*
X0325872Y0009746D01*
X0325872Y0015746D01*
X0313872Y0015746D01*
D13*
X0342218Y0123347D02*
X0342218Y0123848D01*
X0342218Y0123597D02*
X0343720Y0123597D01*
X0343720Y0123347D02*
X0343720Y0123848D01*
X0343720Y0124329D02*
X0342218Y0124329D01*
X0343720Y0125330D01*
X0342218Y0125330D01*
X0342719Y0125803D02*
X0342218Y0126303D01*
X0342719Y0126804D01*
X0343720Y0126804D01*
X0343720Y0127276D02*
X0342719Y0128277D01*
X0342469Y0128277D01*
X0342218Y0128027D01*
X0342218Y0127526D01*
X0342469Y0127276D01*
X0342969Y0126804D02*
X0342969Y0125803D01*
X0342719Y0125803D02*
X0343720Y0125803D01*
X0343720Y0127276D02*
X0343720Y0128277D01*
X0343720Y0128749D02*
X0342719Y0129750D01*
X0342469Y0129750D01*
X0342218Y0129500D01*
X0342218Y0128999D01*
X0342469Y0128749D01*
X0343720Y0128749D02*
X0343720Y0129750D01*
X0343469Y0130222D02*
X0343720Y0130473D01*
X0343720Y0130973D01*
X0343469Y0131223D01*
X0343219Y0131223D01*
X0342969Y0130973D01*
X0342969Y0130222D01*
X0343469Y0130222D01*
X0342969Y0130222D02*
X0342469Y0130723D01*
X0342218Y0131223D01*
X0285286Y0251070D02*
X0285286Y0252571D01*
X0284535Y0251821D01*
X0285536Y0251821D01*
X0284063Y0251570D02*
X0284063Y0251320D01*
X0283813Y0251070D01*
X0283312Y0251070D01*
X0283062Y0251320D01*
X0282590Y0251570D02*
X0282590Y0252571D01*
X0283062Y0252321D02*
X0283062Y0252071D01*
X0283312Y0251821D01*
X0283813Y0251821D01*
X0284063Y0251570D01*
X0284063Y0252321D02*
X0283813Y0252571D01*
X0283312Y0252571D01*
X0283062Y0252321D01*
X0282590Y0251570D02*
X0282089Y0251070D01*
X0281589Y0251570D01*
X0281589Y0252571D01*
X0281116Y0252571D02*
X0280116Y0252571D01*
X0280616Y0252571D02*
X0280616Y0251070D01*
X0039403Y0153012D02*
X0039403Y0152512D01*
X0039403Y0152762D02*
X0037902Y0152762D01*
X0037902Y0153012D02*
X0037902Y0152512D01*
X0037902Y0152030D02*
X0039403Y0152030D01*
X0037902Y0151029D01*
X0039403Y0151029D01*
X0038902Y0150557D02*
X0039403Y0150056D01*
X0038902Y0149556D01*
X0037902Y0149556D01*
X0037902Y0149083D02*
X0037902Y0148082D01*
X0037902Y0148583D02*
X0039403Y0148583D01*
X0038902Y0149083D01*
X0038652Y0149556D02*
X0038652Y0150557D01*
X0038902Y0150557D02*
X0037902Y0150557D01*
X0038152Y0147610D02*
X0037902Y0147360D01*
X0037902Y0146859D01*
X0038152Y0146609D01*
X0038402Y0146609D01*
X0038652Y0146859D01*
X0038652Y0147610D01*
X0038152Y0147610D01*
X0038652Y0147610D02*
X0039153Y0147110D01*
X0039403Y0146609D01*
X0039153Y0146137D02*
X0038902Y0146137D01*
X0038652Y0145887D01*
X0038652Y0145386D01*
X0038402Y0145136D01*
X0038152Y0145136D01*
X0037902Y0145386D01*
X0037902Y0145887D01*
X0038152Y0146137D01*
X0038402Y0146137D01*
X0038652Y0145887D01*
X0038652Y0145386D02*
X0038902Y0145136D01*
X0039153Y0145136D01*
X0039403Y0145386D01*
X0039403Y0145887D01*
X0039153Y0146137D01*
X0014797Y0149078D02*
X0014797Y0149578D01*
X0014546Y0149828D01*
X0014546Y0150301D02*
X0013545Y0151302D01*
X0013295Y0151302D01*
X0013295Y0151774D02*
X0013295Y0152775D01*
X0014296Y0151774D01*
X0014546Y0151774D01*
X0014797Y0152024D01*
X0014797Y0152525D01*
X0014546Y0152775D01*
X0014797Y0153247D02*
X0013796Y0153247D01*
X0013295Y0153748D01*
X0013796Y0154248D01*
X0014797Y0154248D01*
X0014797Y0155721D02*
X0013295Y0155721D01*
X0013295Y0154720D01*
X0013295Y0156694D02*
X0014797Y0156694D01*
X0014797Y0156194D02*
X0014797Y0157195D01*
X0014797Y0151302D02*
X0014797Y0150301D01*
X0014546Y0150301D01*
X0014797Y0149078D02*
X0014546Y0148827D01*
X0014296Y0148827D01*
X0013295Y0149828D01*
X0013295Y0148827D01*
D14*
X0035461Y0147831D02*
X0035461Y0149944D01*
X0036961Y0154488D02*
X0040342Y0154488D01*
X0040342Y0143288D02*
X0036961Y0143288D01*
X0030305Y0114951D02*
X0030305Y0113140D01*
X0031526Y0114060D01*
X0030305Y0113140D02*
X0030305Y0111329D01*
X0031526Y0112280D02*
X0030366Y0113040D01*
X0030305Y0107904D02*
X0030305Y0106093D01*
X0031526Y0107013D01*
X0030305Y0106093D02*
X0030305Y0104281D01*
X0031526Y0105233D02*
X0030366Y0105993D01*
X0030305Y0100778D02*
X0030305Y0098967D01*
X0031526Y0099887D01*
X0030305Y0098967D02*
X0030305Y0097156D01*
X0031526Y0098107D02*
X0030366Y0098867D01*
X0030305Y0093809D02*
X0030305Y0091998D01*
X0031526Y0092919D01*
X0030305Y0091998D02*
X0030305Y0090187D01*
X0031526Y0091138D02*
X0030366Y0091898D01*
X0139045Y0016998D02*
X0146919Y0016998D01*
X0142982Y0013061D02*
X0142982Y0020935D01*
X0127234Y0032746D02*
X0127241Y0033326D01*
X0127262Y0033905D01*
X0127298Y0034484D01*
X0127348Y0035061D01*
X0127412Y0035638D01*
X0127490Y0036212D01*
X0127582Y0036784D01*
X0127688Y0037354D01*
X0127808Y0037922D01*
X0127942Y0038486D01*
X0128090Y0039046D01*
X0128251Y0039603D01*
X0128426Y0040156D01*
X0128615Y0040704D01*
X0128817Y0041247D01*
X0129032Y0041786D01*
X0129261Y0042319D01*
X0129502Y0042846D01*
X0129756Y0043367D01*
X0130023Y0043881D01*
X0130303Y0044389D01*
X0130595Y0044890D01*
X0130899Y0045384D01*
X0131215Y0045870D01*
X0131543Y0046348D01*
X0131883Y0046818D01*
X0132234Y0047279D01*
X0132596Y0047732D01*
X0132969Y0048175D01*
X0133353Y0048610D01*
X0133748Y0049034D01*
X0134153Y0049449D01*
X0134568Y0049854D01*
X0134992Y0050249D01*
X0135427Y0050633D01*
X0135870Y0051006D01*
X0136323Y0051368D01*
X0136784Y0051719D01*
X0137254Y0052059D01*
X0137732Y0052387D01*
X0138218Y0052703D01*
X0138712Y0053007D01*
X0139213Y0053299D01*
X0139721Y0053579D01*
X0140235Y0053846D01*
X0140756Y0054100D01*
X0141283Y0054341D01*
X0141816Y0054570D01*
X0142355Y0054785D01*
X0142898Y0054987D01*
X0143446Y0055176D01*
X0143999Y0055351D01*
X0144556Y0055512D01*
X0145116Y0055660D01*
X0145680Y0055794D01*
X0146248Y0055914D01*
X0146818Y0056020D01*
X0147390Y0056112D01*
X0147964Y0056190D01*
X0148541Y0056254D01*
X0149118Y0056304D01*
X0149697Y0056340D01*
X0150276Y0056361D01*
X0150856Y0056368D01*
X0151436Y0056361D01*
X0152015Y0056340D01*
X0152594Y0056304D01*
X0153171Y0056254D01*
X0153748Y0056190D01*
X0154322Y0056112D01*
X0154894Y0056020D01*
X0155464Y0055914D01*
X0156032Y0055794D01*
X0156596Y0055660D01*
X0157156Y0055512D01*
X0157713Y0055351D01*
X0158266Y0055176D01*
X0158814Y0054987D01*
X0159357Y0054785D01*
X0159896Y0054570D01*
X0160429Y0054341D01*
X0160956Y0054100D01*
X0161477Y0053846D01*
X0161991Y0053579D01*
X0162499Y0053299D01*
X0163000Y0053007D01*
X0163494Y0052703D01*
X0163980Y0052387D01*
X0164458Y0052059D01*
X0164928Y0051719D01*
X0165389Y0051368D01*
X0165842Y0051006D01*
X0166285Y0050633D01*
X0166720Y0050249D01*
X0167144Y0049854D01*
X0167559Y0049449D01*
X0167964Y0049034D01*
X0168359Y0048610D01*
X0168743Y0048175D01*
X0169116Y0047732D01*
X0169478Y0047279D01*
X0169829Y0046818D01*
X0170169Y0046348D01*
X0170497Y0045870D01*
X0170813Y0045384D01*
X0171117Y0044890D01*
X0171409Y0044389D01*
X0171689Y0043881D01*
X0171956Y0043367D01*
X0172210Y0042846D01*
X0172451Y0042319D01*
X0172680Y0041786D01*
X0172895Y0041247D01*
X0173097Y0040704D01*
X0173286Y0040156D01*
X0173461Y0039603D01*
X0173622Y0039046D01*
X0173770Y0038486D01*
X0173904Y0037922D01*
X0174024Y0037354D01*
X0174130Y0036784D01*
X0174222Y0036212D01*
X0174300Y0035638D01*
X0174364Y0035061D01*
X0174414Y0034484D01*
X0174450Y0033905D01*
X0174471Y0033326D01*
X0174478Y0032746D01*
X0174471Y0032166D01*
X0174450Y0031587D01*
X0174414Y0031008D01*
X0174364Y0030431D01*
X0174300Y0029854D01*
X0174222Y0029280D01*
X0174130Y0028708D01*
X0174024Y0028138D01*
X0173904Y0027570D01*
X0173770Y0027006D01*
X0173622Y0026446D01*
X0173461Y0025889D01*
X0173286Y0025336D01*
X0173097Y0024788D01*
X0172895Y0024245D01*
X0172680Y0023706D01*
X0172451Y0023173D01*
X0172210Y0022646D01*
X0171956Y0022125D01*
X0171689Y0021611D01*
X0171409Y0021103D01*
X0171117Y0020602D01*
X0170813Y0020108D01*
X0170497Y0019622D01*
X0170169Y0019144D01*
X0169829Y0018674D01*
X0169478Y0018213D01*
X0169116Y0017760D01*
X0168743Y0017317D01*
X0168359Y0016882D01*
X0167964Y0016458D01*
X0167559Y0016043D01*
X0167144Y0015638D01*
X0166720Y0015243D01*
X0166285Y0014859D01*
X0165842Y0014486D01*
X0165389Y0014124D01*
X0164928Y0013773D01*
X0164458Y0013433D01*
X0163980Y0013105D01*
X0163494Y0012789D01*
X0163000Y0012485D01*
X0162499Y0012193D01*
X0161991Y0011913D01*
X0161477Y0011646D01*
X0160956Y0011392D01*
X0160429Y0011151D01*
X0159896Y0010922D01*
X0159357Y0010707D01*
X0158814Y0010505D01*
X0158266Y0010316D01*
X0157713Y0010141D01*
X0157156Y0009980D01*
X0156596Y0009832D01*
X0156032Y0009698D01*
X0155464Y0009578D01*
X0154894Y0009472D01*
X0154322Y0009380D01*
X0153748Y0009302D01*
X0153171Y0009238D01*
X0152594Y0009188D01*
X0152015Y0009152D01*
X0151436Y0009131D01*
X0150856Y0009124D01*
X0150276Y0009131D01*
X0149697Y0009152D01*
X0149118Y0009188D01*
X0148541Y0009238D01*
X0147964Y0009302D01*
X0147390Y0009380D01*
X0146818Y0009472D01*
X0146248Y0009578D01*
X0145680Y0009698D01*
X0145116Y0009832D01*
X0144556Y0009980D01*
X0143999Y0010141D01*
X0143446Y0010316D01*
X0142898Y0010505D01*
X0142355Y0010707D01*
X0141816Y0010922D01*
X0141283Y0011151D01*
X0140756Y0011392D01*
X0140235Y0011646D01*
X0139721Y0011913D01*
X0139213Y0012193D01*
X0138712Y0012485D01*
X0138218Y0012789D01*
X0137732Y0013105D01*
X0137254Y0013433D01*
X0136784Y0013773D01*
X0136323Y0014124D01*
X0135870Y0014486D01*
X0135427Y0014859D01*
X0134992Y0015243D01*
X0134568Y0015638D01*
X0134153Y0016043D01*
X0133748Y0016458D01*
X0133353Y0016882D01*
X0132969Y0017317D01*
X0132596Y0017760D01*
X0132234Y0018213D01*
X0131883Y0018674D01*
X0131543Y0019144D01*
X0131215Y0019622D01*
X0130899Y0020108D01*
X0130595Y0020602D01*
X0130303Y0021103D01*
X0130023Y0021611D01*
X0129756Y0022125D01*
X0129502Y0022646D01*
X0129261Y0023173D01*
X0129032Y0023706D01*
X0128817Y0024245D01*
X0128615Y0024788D01*
X0128426Y0025336D01*
X0128251Y0025889D01*
X0128090Y0026446D01*
X0127942Y0027006D01*
X0127808Y0027570D01*
X0127688Y0028138D01*
X0127582Y0028708D01*
X0127490Y0029280D01*
X0127412Y0029854D01*
X0127348Y0030431D01*
X0127298Y0031008D01*
X0127262Y0031587D01*
X0127241Y0032166D01*
X0127234Y0032746D01*
X0212785Y0049931D02*
X0215285Y0047431D01*
X0220285Y0047431D01*
X0222785Y0049931D01*
X0225285Y0047431D01*
X0230285Y0047431D01*
X0232785Y0049931D01*
X0235285Y0047431D01*
X0240285Y0047431D01*
X0242785Y0049931D01*
X0245285Y0047431D01*
X0250285Y0047431D01*
X0252785Y0049931D01*
X0255285Y0047431D01*
X0260285Y0047431D01*
X0262785Y0049931D01*
X0265285Y0047431D01*
X0270285Y0047431D01*
X0272785Y0049931D01*
X0275285Y0047431D01*
X0280285Y0047431D01*
X0282785Y0049931D01*
X0285285Y0047431D01*
X0290285Y0047431D01*
X0292785Y0049931D01*
X0295285Y0047431D01*
X0300285Y0047431D01*
X0302785Y0049931D01*
X0305285Y0047431D01*
X0310285Y0047431D01*
X0312785Y0049931D01*
X0312785Y0054931D01*
X0310285Y0057431D01*
X0305285Y0057431D01*
X0302785Y0054931D01*
X0300285Y0057431D01*
X0295285Y0057431D01*
X0292785Y0054931D01*
X0290285Y0057431D01*
X0285285Y0057431D01*
X0282785Y0054931D01*
X0280285Y0057431D01*
X0275285Y0057431D01*
X0272785Y0054931D01*
X0270285Y0057431D01*
X0265285Y0057431D01*
X0262785Y0054931D01*
X0260285Y0057431D01*
X0255285Y0057431D01*
X0252785Y0054931D01*
X0250285Y0057431D01*
X0245285Y0057431D01*
X0242785Y0054931D01*
X0240285Y0057431D01*
X0235285Y0057431D01*
X0232785Y0054931D01*
X0230285Y0057431D01*
X0225285Y0057431D01*
X0222785Y0054931D01*
X0220285Y0057431D01*
X0215285Y0057431D01*
X0212785Y0054931D01*
X0212785Y0049931D01*
X0209695Y0115659D02*
X0209695Y0117628D01*
X0209695Y0130620D01*
X0175797Y0130620D02*
X0175797Y0117628D01*
X0175797Y0115659D01*
X0113454Y0250266D02*
X0113457Y0250508D01*
X0113466Y0250749D01*
X0113481Y0250990D01*
X0113501Y0251231D01*
X0113528Y0251471D01*
X0113561Y0251710D01*
X0113599Y0251949D01*
X0113643Y0252186D01*
X0113693Y0252423D01*
X0113749Y0252658D01*
X0113811Y0252891D01*
X0113878Y0253123D01*
X0113951Y0253354D01*
X0114029Y0253582D01*
X0114114Y0253808D01*
X0114203Y0254033D01*
X0114298Y0254255D01*
X0114399Y0254474D01*
X0114505Y0254692D01*
X0114616Y0254906D01*
X0114733Y0255118D01*
X0114854Y0255326D01*
X0114981Y0255532D01*
X0115113Y0255734D01*
X0115250Y0255934D01*
X0115391Y0256129D01*
X0115537Y0256322D01*
X0115688Y0256510D01*
X0115844Y0256695D01*
X0116004Y0256876D01*
X0116168Y0257053D01*
X0116337Y0257226D01*
X0116510Y0257395D01*
X0116687Y0257559D01*
X0116868Y0257719D01*
X0117053Y0257875D01*
X0117241Y0258026D01*
X0117434Y0258172D01*
X0117629Y0258313D01*
X0117829Y0258450D01*
X0118031Y0258582D01*
X0118237Y0258709D01*
X0118445Y0258830D01*
X0118657Y0258947D01*
X0118871Y0259058D01*
X0119089Y0259164D01*
X0119308Y0259265D01*
X0119530Y0259360D01*
X0119755Y0259449D01*
X0119981Y0259534D01*
X0120209Y0259612D01*
X0120440Y0259685D01*
X0120672Y0259752D01*
X0120905Y0259814D01*
X0121140Y0259870D01*
X0121377Y0259920D01*
X0121614Y0259964D01*
X0121853Y0260002D01*
X0122092Y0260035D01*
X0122332Y0260062D01*
X0122573Y0260082D01*
X0122814Y0260097D01*
X0123055Y0260106D01*
X0123297Y0260109D01*
X0123539Y0260106D01*
X0123780Y0260097D01*
X0124021Y0260082D01*
X0124262Y0260062D01*
X0124502Y0260035D01*
X0124741Y0260002D01*
X0124980Y0259964D01*
X0125217Y0259920D01*
X0125454Y0259870D01*
X0125689Y0259814D01*
X0125922Y0259752D01*
X0126154Y0259685D01*
X0126385Y0259612D01*
X0126613Y0259534D01*
X0126839Y0259449D01*
X0127064Y0259360D01*
X0127286Y0259265D01*
X0127505Y0259164D01*
X0127723Y0259058D01*
X0127937Y0258947D01*
X0128149Y0258830D01*
X0128357Y0258709D01*
X0128563Y0258582D01*
X0128765Y0258450D01*
X0128965Y0258313D01*
X0129160Y0258172D01*
X0129353Y0258026D01*
X0129541Y0257875D01*
X0129726Y0257719D01*
X0129907Y0257559D01*
X0130084Y0257395D01*
X0130257Y0257226D01*
X0130426Y0257053D01*
X0130590Y0256876D01*
X0130750Y0256695D01*
X0130906Y0256510D01*
X0131057Y0256322D01*
X0131203Y0256129D01*
X0131344Y0255934D01*
X0131481Y0255734D01*
X0131613Y0255532D01*
X0131740Y0255326D01*
X0131861Y0255118D01*
X0131978Y0254906D01*
X0132089Y0254692D01*
X0132195Y0254474D01*
X0132296Y0254255D01*
X0132391Y0254033D01*
X0132480Y0253808D01*
X0132565Y0253582D01*
X0132643Y0253354D01*
X0132716Y0253123D01*
X0132783Y0252891D01*
X0132845Y0252658D01*
X0132901Y0252423D01*
X0132951Y0252186D01*
X0132995Y0251949D01*
X0133033Y0251710D01*
X0133066Y0251471D01*
X0133093Y0251231D01*
X0133113Y0250990D01*
X0133128Y0250749D01*
X0133137Y0250508D01*
X0133140Y0250266D01*
X0133137Y0250024D01*
X0133128Y0249783D01*
X0133113Y0249542D01*
X0133093Y0249301D01*
X0133066Y0249061D01*
X0133033Y0248822D01*
X0132995Y0248583D01*
X0132951Y0248346D01*
X0132901Y0248109D01*
X0132845Y0247874D01*
X0132783Y0247641D01*
X0132716Y0247409D01*
X0132643Y0247178D01*
X0132565Y0246950D01*
X0132480Y0246724D01*
X0132391Y0246499D01*
X0132296Y0246277D01*
X0132195Y0246058D01*
X0132089Y0245840D01*
X0131978Y0245626D01*
X0131861Y0245414D01*
X0131740Y0245206D01*
X0131613Y0245000D01*
X0131481Y0244798D01*
X0131344Y0244598D01*
X0131203Y0244403D01*
X0131057Y0244210D01*
X0130906Y0244022D01*
X0130750Y0243837D01*
X0130590Y0243656D01*
X0130426Y0243479D01*
X0130257Y0243306D01*
X0130084Y0243137D01*
X0129907Y0242973D01*
X0129726Y0242813D01*
X0129541Y0242657D01*
X0129353Y0242506D01*
X0129160Y0242360D01*
X0128965Y0242219D01*
X0128765Y0242082D01*
X0128563Y0241950D01*
X0128357Y0241823D01*
X0128149Y0241702D01*
X0127937Y0241585D01*
X0127723Y0241474D01*
X0127505Y0241368D01*
X0127286Y0241267D01*
X0127064Y0241172D01*
X0126839Y0241083D01*
X0126613Y0240998D01*
X0126385Y0240920D01*
X0126154Y0240847D01*
X0125922Y0240780D01*
X0125689Y0240718D01*
X0125454Y0240662D01*
X0125217Y0240612D01*
X0124980Y0240568D01*
X0124741Y0240530D01*
X0124502Y0240497D01*
X0124262Y0240470D01*
X0124021Y0240450D01*
X0123780Y0240435D01*
X0123539Y0240426D01*
X0123297Y0240423D01*
X0123055Y0240426D01*
X0122814Y0240435D01*
X0122573Y0240450D01*
X0122332Y0240470D01*
X0122092Y0240497D01*
X0121853Y0240530D01*
X0121614Y0240568D01*
X0121377Y0240612D01*
X0121140Y0240662D01*
X0120905Y0240718D01*
X0120672Y0240780D01*
X0120440Y0240847D01*
X0120209Y0240920D01*
X0119981Y0240998D01*
X0119755Y0241083D01*
X0119530Y0241172D01*
X0119308Y0241267D01*
X0119089Y0241368D01*
X0118871Y0241474D01*
X0118657Y0241585D01*
X0118445Y0241702D01*
X0118237Y0241823D01*
X0118031Y0241950D01*
X0117829Y0242082D01*
X0117629Y0242219D01*
X0117434Y0242360D01*
X0117241Y0242506D01*
X0117053Y0242657D01*
X0116868Y0242813D01*
X0116687Y0242973D01*
X0116510Y0243137D01*
X0116337Y0243306D01*
X0116168Y0243479D01*
X0116004Y0243656D01*
X0115844Y0243837D01*
X0115688Y0244022D01*
X0115537Y0244210D01*
X0115391Y0244403D01*
X0115250Y0244598D01*
X0115113Y0244798D01*
X0114981Y0245000D01*
X0114854Y0245206D01*
X0114733Y0245414D01*
X0114616Y0245626D01*
X0114505Y0245840D01*
X0114399Y0246058D01*
X0114298Y0246277D01*
X0114203Y0246499D01*
X0114114Y0246724D01*
X0114029Y0246950D01*
X0113951Y0247178D01*
X0113878Y0247409D01*
X0113811Y0247641D01*
X0113749Y0247874D01*
X0113693Y0248109D01*
X0113643Y0248346D01*
X0113599Y0248583D01*
X0113561Y0248822D01*
X0113528Y0249061D01*
X0113501Y0249301D01*
X0113481Y0249542D01*
X0113466Y0249783D01*
X0113457Y0250024D01*
X0113454Y0250266D01*
X0116297Y0255766D02*
X0120297Y0255766D01*
D15*
X0128415Y0264537D02*
X0149675Y0264537D01*
X0149675Y0302923D01*
X0128415Y0302923D01*
X0128415Y0264537D01*
X0137195Y0257824D02*
X0158695Y0257824D01*
X0172195Y0244324D01*
X0212195Y0244324D01*
X0225695Y0257824D01*
X0247195Y0257824D01*
X0247195Y0180824D01*
X0225695Y0180824D01*
X0212195Y0194324D01*
X0172195Y0194324D01*
X0158695Y0180824D01*
X0137195Y0180824D01*
X0137195Y0257824D01*
X0116470Y0268051D02*
X0071070Y0268051D01*
X0071070Y0303451D01*
X0116470Y0303451D01*
X0116470Y0268051D01*
X0110738Y0230130D02*
X0133488Y0230130D01*
X0133488Y0193630D01*
X0110738Y0193630D01*
X0110738Y0196880D01*
X0080738Y0196880D01*
X0080738Y0193630D01*
X0057988Y0193630D01*
X0057988Y0230130D01*
X0080738Y0230130D01*
X0080738Y0226880D01*
X0110738Y0226880D01*
X0110738Y0230130D01*
X0076053Y0211880D02*
X0076059Y0212363D01*
X0076077Y0212846D01*
X0076106Y0213328D01*
X0076148Y0213809D01*
X0076201Y0214290D01*
X0076266Y0214768D01*
X0076343Y0215245D01*
X0076431Y0215720D01*
X0076531Y0216193D01*
X0076643Y0216663D01*
X0076766Y0217130D01*
X0076901Y0217594D01*
X0077047Y0218055D01*
X0077204Y0218512D01*
X0077372Y0218965D01*
X0077551Y0219413D01*
X0077742Y0219857D01*
X0077943Y0220296D01*
X0078155Y0220731D01*
X0078377Y0221159D01*
X0078610Y0221583D01*
X0078854Y0222000D01*
X0079107Y0222411D01*
X0079371Y0222816D01*
X0079644Y0223215D01*
X0079927Y0223606D01*
X0080219Y0223991D01*
X0080521Y0224368D01*
X0080832Y0224738D01*
X0081152Y0225100D01*
X0081481Y0225454D01*
X0081819Y0225799D01*
X0082164Y0226137D01*
X0082518Y0226466D01*
X0082880Y0226786D01*
X0083250Y0227097D01*
X0083627Y0227399D01*
X0084012Y0227691D01*
X0084403Y0227974D01*
X0084802Y0228247D01*
X0085207Y0228511D01*
X0085618Y0228764D01*
X0086035Y0229008D01*
X0086459Y0229241D01*
X0086887Y0229463D01*
X0087322Y0229675D01*
X0087761Y0229876D01*
X0088205Y0230067D01*
X0088653Y0230246D01*
X0089106Y0230414D01*
X0089563Y0230571D01*
X0090024Y0230717D01*
X0090488Y0230852D01*
X0090955Y0230975D01*
X0091425Y0231087D01*
X0091898Y0231187D01*
X0092373Y0231275D01*
X0092850Y0231352D01*
X0093328Y0231417D01*
X0093809Y0231470D01*
X0094290Y0231512D01*
X0094772Y0231541D01*
X0095255Y0231559D01*
X0095738Y0231565D01*
X0096221Y0231559D01*
X0096704Y0231541D01*
X0097186Y0231512D01*
X0097667Y0231470D01*
X0098148Y0231417D01*
X0098626Y0231352D01*
X0099103Y0231275D01*
X0099578Y0231187D01*
X0100051Y0231087D01*
X0100521Y0230975D01*
X0100988Y0230852D01*
X0101452Y0230717D01*
X0101913Y0230571D01*
X0102370Y0230414D01*
X0102823Y0230246D01*
X0103271Y0230067D01*
X0103715Y0229876D01*
X0104154Y0229675D01*
X0104589Y0229463D01*
X0105017Y0229241D01*
X0105441Y0229008D01*
X0105858Y0228764D01*
X0106269Y0228511D01*
X0106674Y0228247D01*
X0107073Y0227974D01*
X0107464Y0227691D01*
X0107849Y0227399D01*
X0108226Y0227097D01*
X0108596Y0226786D01*
X0108958Y0226466D01*
X0109312Y0226137D01*
X0109657Y0225799D01*
X0109995Y0225454D01*
X0110324Y0225100D01*
X0110644Y0224738D01*
X0110955Y0224368D01*
X0111257Y0223991D01*
X0111549Y0223606D01*
X0111832Y0223215D01*
X0112105Y0222816D01*
X0112369Y0222411D01*
X0112622Y0222000D01*
X0112866Y0221583D01*
X0113099Y0221159D01*
X0113321Y0220731D01*
X0113533Y0220296D01*
X0113734Y0219857D01*
X0113925Y0219413D01*
X0114104Y0218965D01*
X0114272Y0218512D01*
X0114429Y0218055D01*
X0114575Y0217594D01*
X0114710Y0217130D01*
X0114833Y0216663D01*
X0114945Y0216193D01*
X0115045Y0215720D01*
X0115133Y0215245D01*
X0115210Y0214768D01*
X0115275Y0214290D01*
X0115328Y0213809D01*
X0115370Y0213328D01*
X0115399Y0212846D01*
X0115417Y0212363D01*
X0115423Y0211880D01*
X0115417Y0211397D01*
X0115399Y0210914D01*
X0115370Y0210432D01*
X0115328Y0209951D01*
X0115275Y0209470D01*
X0115210Y0208992D01*
X0115133Y0208515D01*
X0115045Y0208040D01*
X0114945Y0207567D01*
X0114833Y0207097D01*
X0114710Y0206630D01*
X0114575Y0206166D01*
X0114429Y0205705D01*
X0114272Y0205248D01*
X0114104Y0204795D01*
X0113925Y0204347D01*
X0113734Y0203903D01*
X0113533Y0203464D01*
X0113321Y0203029D01*
X0113099Y0202601D01*
X0112866Y0202177D01*
X0112622Y0201760D01*
X0112369Y0201349D01*
X0112105Y0200944D01*
X0111832Y0200545D01*
X0111549Y0200154D01*
X0111257Y0199769D01*
X0110955Y0199392D01*
X0110644Y0199022D01*
X0110324Y0198660D01*
X0109995Y0198306D01*
X0109657Y0197961D01*
X0109312Y0197623D01*
X0108958Y0197294D01*
X0108596Y0196974D01*
X0108226Y0196663D01*
X0107849Y0196361D01*
X0107464Y0196069D01*
X0107073Y0195786D01*
X0106674Y0195513D01*
X0106269Y0195249D01*
X0105858Y0194996D01*
X0105441Y0194752D01*
X0105017Y0194519D01*
X0104589Y0194297D01*
X0104154Y0194085D01*
X0103715Y0193884D01*
X0103271Y0193693D01*
X0102823Y0193514D01*
X0102370Y0193346D01*
X0101913Y0193189D01*
X0101452Y0193043D01*
X0100988Y0192908D01*
X0100521Y0192785D01*
X0100051Y0192673D01*
X0099578Y0192573D01*
X0099103Y0192485D01*
X0098626Y0192408D01*
X0098148Y0192343D01*
X0097667Y0192290D01*
X0097186Y0192248D01*
X0096704Y0192219D01*
X0096221Y0192201D01*
X0095738Y0192195D01*
X0095255Y0192201D01*
X0094772Y0192219D01*
X0094290Y0192248D01*
X0093809Y0192290D01*
X0093328Y0192343D01*
X0092850Y0192408D01*
X0092373Y0192485D01*
X0091898Y0192573D01*
X0091425Y0192673D01*
X0090955Y0192785D01*
X0090488Y0192908D01*
X0090024Y0193043D01*
X0089563Y0193189D01*
X0089106Y0193346D01*
X0088653Y0193514D01*
X0088205Y0193693D01*
X0087761Y0193884D01*
X0087322Y0194085D01*
X0086887Y0194297D01*
X0086459Y0194519D01*
X0086035Y0194752D01*
X0085618Y0194996D01*
X0085207Y0195249D01*
X0084802Y0195513D01*
X0084403Y0195786D01*
X0084012Y0196069D01*
X0083627Y0196361D01*
X0083250Y0196663D01*
X0082880Y0196974D01*
X0082518Y0197294D01*
X0082164Y0197623D01*
X0081819Y0197961D01*
X0081481Y0198306D01*
X0081152Y0198660D01*
X0080832Y0199022D01*
X0080521Y0199392D01*
X0080219Y0199769D01*
X0079927Y0200154D01*
X0079644Y0200545D01*
X0079371Y0200944D01*
X0079107Y0201349D01*
X0078854Y0201760D01*
X0078610Y0202177D01*
X0078377Y0202601D01*
X0078155Y0203029D01*
X0077943Y0203464D01*
X0077742Y0203903D01*
X0077551Y0204347D01*
X0077372Y0204795D01*
X0077204Y0205248D01*
X0077047Y0205705D01*
X0076901Y0206166D01*
X0076766Y0206630D01*
X0076643Y0207097D01*
X0076531Y0207567D01*
X0076431Y0208040D01*
X0076343Y0208515D01*
X0076266Y0208992D01*
X0076201Y0209470D01*
X0076148Y0209951D01*
X0076106Y0210432D01*
X0076077Y0210914D01*
X0076059Y0211397D01*
X0076053Y0211880D01*
X0066211Y0237470D02*
X0038652Y0237470D01*
X0038652Y0261093D02*
X0066211Y0261093D01*
X0159911Y0264537D02*
X0181171Y0264537D01*
X0181171Y0302923D01*
X0159911Y0302923D01*
X0159911Y0264537D01*
X0191407Y0264537D02*
X0212667Y0264537D01*
X0212667Y0302923D01*
X0191407Y0302923D01*
X0191407Y0264537D01*
X0222904Y0264537D02*
X0244163Y0264537D01*
X0244163Y0302923D01*
X0222904Y0302923D01*
X0222904Y0264537D01*
X0254141Y0267120D02*
X0254141Y0302520D01*
X0299541Y0302520D01*
X0299541Y0267120D01*
X0254141Y0267120D01*
X0250902Y0230130D02*
X0250902Y0193630D01*
X0273652Y0193630D01*
X0273652Y0196880D01*
X0303652Y0196880D01*
X0303652Y0193630D01*
X0326402Y0193630D01*
X0326402Y0230130D01*
X0303652Y0230130D01*
X0303652Y0226880D01*
X0273652Y0226880D01*
X0273652Y0230130D01*
X0250902Y0230130D01*
X0268967Y0211880D02*
X0268973Y0212363D01*
X0268991Y0212846D01*
X0269020Y0213328D01*
X0269062Y0213809D01*
X0269115Y0214290D01*
X0269180Y0214768D01*
X0269257Y0215245D01*
X0269345Y0215720D01*
X0269445Y0216193D01*
X0269557Y0216663D01*
X0269680Y0217130D01*
X0269815Y0217594D01*
X0269961Y0218055D01*
X0270118Y0218512D01*
X0270286Y0218965D01*
X0270465Y0219413D01*
X0270656Y0219857D01*
X0270857Y0220296D01*
X0271069Y0220731D01*
X0271291Y0221159D01*
X0271524Y0221583D01*
X0271768Y0222000D01*
X0272021Y0222411D01*
X0272285Y0222816D01*
X0272558Y0223215D01*
X0272841Y0223606D01*
X0273133Y0223991D01*
X0273435Y0224368D01*
X0273746Y0224738D01*
X0274066Y0225100D01*
X0274395Y0225454D01*
X0274733Y0225799D01*
X0275078Y0226137D01*
X0275432Y0226466D01*
X0275794Y0226786D01*
X0276164Y0227097D01*
X0276541Y0227399D01*
X0276926Y0227691D01*
X0277317Y0227974D01*
X0277716Y0228247D01*
X0278121Y0228511D01*
X0278532Y0228764D01*
X0278949Y0229008D01*
X0279373Y0229241D01*
X0279801Y0229463D01*
X0280236Y0229675D01*
X0280675Y0229876D01*
X0281119Y0230067D01*
X0281567Y0230246D01*
X0282020Y0230414D01*
X0282477Y0230571D01*
X0282938Y0230717D01*
X0283402Y0230852D01*
X0283869Y0230975D01*
X0284339Y0231087D01*
X0284812Y0231187D01*
X0285287Y0231275D01*
X0285764Y0231352D01*
X0286242Y0231417D01*
X0286723Y0231470D01*
X0287204Y0231512D01*
X0287686Y0231541D01*
X0288169Y0231559D01*
X0288652Y0231565D01*
X0289135Y0231559D01*
X0289618Y0231541D01*
X0290100Y0231512D01*
X0290581Y0231470D01*
X0291062Y0231417D01*
X0291540Y0231352D01*
X0292017Y0231275D01*
X0292492Y0231187D01*
X0292965Y0231087D01*
X0293435Y0230975D01*
X0293902Y0230852D01*
X0294366Y0230717D01*
X0294827Y0230571D01*
X0295284Y0230414D01*
X0295737Y0230246D01*
X0296185Y0230067D01*
X0296629Y0229876D01*
X0297068Y0229675D01*
X0297503Y0229463D01*
X0297931Y0229241D01*
X0298355Y0229008D01*
X0298772Y0228764D01*
X0299183Y0228511D01*
X0299588Y0228247D01*
X0299987Y0227974D01*
X0300378Y0227691D01*
X0300763Y0227399D01*
X0301140Y0227097D01*
X0301510Y0226786D01*
X0301872Y0226466D01*
X0302226Y0226137D01*
X0302571Y0225799D01*
X0302909Y0225454D01*
X0303238Y0225100D01*
X0303558Y0224738D01*
X0303869Y0224368D01*
X0304171Y0223991D01*
X0304463Y0223606D01*
X0304746Y0223215D01*
X0305019Y0222816D01*
X0305283Y0222411D01*
X0305536Y0222000D01*
X0305780Y0221583D01*
X0306013Y0221159D01*
X0306235Y0220731D01*
X0306447Y0220296D01*
X0306648Y0219857D01*
X0306839Y0219413D01*
X0307018Y0218965D01*
X0307186Y0218512D01*
X0307343Y0218055D01*
X0307489Y0217594D01*
X0307624Y0217130D01*
X0307747Y0216663D01*
X0307859Y0216193D01*
X0307959Y0215720D01*
X0308047Y0215245D01*
X0308124Y0214768D01*
X0308189Y0214290D01*
X0308242Y0213809D01*
X0308284Y0213328D01*
X0308313Y0212846D01*
X0308331Y0212363D01*
X0308337Y0211880D01*
X0308331Y0211397D01*
X0308313Y0210914D01*
X0308284Y0210432D01*
X0308242Y0209951D01*
X0308189Y0209470D01*
X0308124Y0208992D01*
X0308047Y0208515D01*
X0307959Y0208040D01*
X0307859Y0207567D01*
X0307747Y0207097D01*
X0307624Y0206630D01*
X0307489Y0206166D01*
X0307343Y0205705D01*
X0307186Y0205248D01*
X0307018Y0204795D01*
X0306839Y0204347D01*
X0306648Y0203903D01*
X0306447Y0203464D01*
X0306235Y0203029D01*
X0306013Y0202601D01*
X0305780Y0202177D01*
X0305536Y0201760D01*
X0305283Y0201349D01*
X0305019Y0200944D01*
X0304746Y0200545D01*
X0304463Y0200154D01*
X0304171Y0199769D01*
X0303869Y0199392D01*
X0303558Y0199022D01*
X0303238Y0198660D01*
X0302909Y0198306D01*
X0302571Y0197961D01*
X0302226Y0197623D01*
X0301872Y0197294D01*
X0301510Y0196974D01*
X0301140Y0196663D01*
X0300763Y0196361D01*
X0300378Y0196069D01*
X0299987Y0195786D01*
X0299588Y0195513D01*
X0299183Y0195249D01*
X0298772Y0194996D01*
X0298355Y0194752D01*
X0297931Y0194519D01*
X0297503Y0194297D01*
X0297068Y0194085D01*
X0296629Y0193884D01*
X0296185Y0193693D01*
X0295737Y0193514D01*
X0295284Y0193346D01*
X0294827Y0193189D01*
X0294366Y0193043D01*
X0293902Y0192908D01*
X0293435Y0192785D01*
X0292965Y0192673D01*
X0292492Y0192573D01*
X0292017Y0192485D01*
X0291540Y0192408D01*
X0291062Y0192343D01*
X0290581Y0192290D01*
X0290100Y0192248D01*
X0289618Y0192219D01*
X0289135Y0192201D01*
X0288652Y0192195D01*
X0288169Y0192201D01*
X0287686Y0192219D01*
X0287204Y0192248D01*
X0286723Y0192290D01*
X0286242Y0192343D01*
X0285764Y0192408D01*
X0285287Y0192485D01*
X0284812Y0192573D01*
X0284339Y0192673D01*
X0283869Y0192785D01*
X0283402Y0192908D01*
X0282938Y0193043D01*
X0282477Y0193189D01*
X0282020Y0193346D01*
X0281567Y0193514D01*
X0281119Y0193693D01*
X0280675Y0193884D01*
X0280236Y0194085D01*
X0279801Y0194297D01*
X0279373Y0194519D01*
X0278949Y0194752D01*
X0278532Y0194996D01*
X0278121Y0195249D01*
X0277716Y0195513D01*
X0277317Y0195786D01*
X0276926Y0196069D01*
X0276541Y0196361D01*
X0276164Y0196663D01*
X0275794Y0196974D01*
X0275432Y0197294D01*
X0275078Y0197623D01*
X0274733Y0197961D01*
X0274395Y0198306D01*
X0274066Y0198660D01*
X0273746Y0199022D01*
X0273435Y0199392D01*
X0273133Y0199769D01*
X0272841Y0200154D01*
X0272558Y0200545D01*
X0272285Y0200944D01*
X0272021Y0201349D01*
X0271768Y0201760D01*
X0271524Y0202177D01*
X0271291Y0202601D01*
X0271069Y0203029D01*
X0270857Y0203464D01*
X0270656Y0203903D01*
X0270465Y0204347D01*
X0270286Y0204795D01*
X0270118Y0205248D01*
X0269961Y0205705D01*
X0269815Y0206166D01*
X0269680Y0206630D01*
X0269557Y0207097D01*
X0269445Y0207567D01*
X0269345Y0208040D01*
X0269257Y0208515D01*
X0269180Y0208992D01*
X0269115Y0209470D01*
X0269062Y0209951D01*
X0269020Y0210432D01*
X0268991Y0210914D01*
X0268973Y0211397D01*
X0268967Y0211880D01*
X0304400Y0270935D02*
X0304400Y0298494D01*
X0328022Y0298494D02*
X0328022Y0270935D01*
X0154116Y0219324D02*
X0154127Y0220259D01*
X0154162Y0221192D01*
X0154219Y0222125D01*
X0154299Y0223056D01*
X0154402Y0223985D01*
X0154528Y0224911D01*
X0154677Y0225834D01*
X0154848Y0226753D01*
X0155041Y0227667D01*
X0155257Y0228576D01*
X0155495Y0229480D01*
X0155756Y0230378D01*
X0156038Y0231269D01*
X0156342Y0232152D01*
X0156668Y0233028D01*
X0157015Y0233896D01*
X0157383Y0234755D01*
X0157772Y0235605D01*
X0158182Y0236445D01*
X0158612Y0237274D01*
X0159063Y0238093D01*
X0159534Y0238901D01*
X0160024Y0239696D01*
X0160533Y0240480D01*
X0161062Y0241250D01*
X0161610Y0242008D01*
X0162176Y0242751D01*
X0162760Y0243481D01*
X0163361Y0244196D01*
X0163980Y0244896D01*
X0164616Y0245581D01*
X0165269Y0246250D01*
X0165938Y0246903D01*
X0166623Y0247539D01*
X0167323Y0248158D01*
X0168038Y0248759D01*
X0168768Y0249343D01*
X0169511Y0249909D01*
X0170269Y0250457D01*
X0171039Y0250986D01*
X0171823Y0251495D01*
X0172618Y0251985D01*
X0173426Y0252456D01*
X0174245Y0252907D01*
X0175074Y0253337D01*
X0175914Y0253747D01*
X0176764Y0254136D01*
X0177623Y0254504D01*
X0178491Y0254851D01*
X0179367Y0255177D01*
X0180250Y0255481D01*
X0181141Y0255763D01*
X0182039Y0256024D01*
X0182943Y0256262D01*
X0183852Y0256478D01*
X0184766Y0256671D01*
X0185685Y0256842D01*
X0186608Y0256991D01*
X0187534Y0257117D01*
X0188463Y0257220D01*
X0189394Y0257300D01*
X0190327Y0257357D01*
X0191260Y0257392D01*
X0192195Y0257403D01*
X0193130Y0257392D01*
X0194063Y0257357D01*
X0194996Y0257300D01*
X0195927Y0257220D01*
X0196856Y0257117D01*
X0197782Y0256991D01*
X0198705Y0256842D01*
X0199624Y0256671D01*
X0200538Y0256478D01*
X0201447Y0256262D01*
X0202351Y0256024D01*
X0203249Y0255763D01*
X0204140Y0255481D01*
X0205023Y0255177D01*
X0205899Y0254851D01*
X0206767Y0254504D01*
X0207626Y0254136D01*
X0208476Y0253747D01*
X0209316Y0253337D01*
X0210145Y0252907D01*
X0210964Y0252456D01*
X0211772Y0251985D01*
X0212567Y0251495D01*
X0213351Y0250986D01*
X0214121Y0250457D01*
X0214879Y0249909D01*
X0215622Y0249343D01*
X0216352Y0248759D01*
X0217067Y0248158D01*
X0217767Y0247539D01*
X0218452Y0246903D01*
X0219121Y0246250D01*
X0219774Y0245581D01*
X0220410Y0244896D01*
X0221029Y0244196D01*
X0221630Y0243481D01*
X0222214Y0242751D01*
X0222780Y0242008D01*
X0223328Y0241250D01*
X0223857Y0240480D01*
X0224366Y0239696D01*
X0224856Y0238901D01*
X0225327Y0238093D01*
X0225778Y0237274D01*
X0226208Y0236445D01*
X0226618Y0235605D01*
X0227007Y0234755D01*
X0227375Y0233896D01*
X0227722Y0233028D01*
X0228048Y0232152D01*
X0228352Y0231269D01*
X0228634Y0230378D01*
X0228895Y0229480D01*
X0229133Y0228576D01*
X0229349Y0227667D01*
X0229542Y0226753D01*
X0229713Y0225834D01*
X0229862Y0224911D01*
X0229988Y0223985D01*
X0230091Y0223056D01*
X0230171Y0222125D01*
X0230228Y0221192D01*
X0230263Y0220259D01*
X0230274Y0219324D01*
X0230263Y0218389D01*
X0230228Y0217456D01*
X0230171Y0216523D01*
X0230091Y0215592D01*
X0229988Y0214663D01*
X0229862Y0213737D01*
X0229713Y0212814D01*
X0229542Y0211895D01*
X0229349Y0210981D01*
X0229133Y0210072D01*
X0228895Y0209168D01*
X0228634Y0208270D01*
X0228352Y0207379D01*
X0228048Y0206496D01*
X0227722Y0205620D01*
X0227375Y0204752D01*
X0227007Y0203893D01*
X0226618Y0203043D01*
X0226208Y0202203D01*
X0225778Y0201374D01*
X0225327Y0200555D01*
X0224856Y0199747D01*
X0224366Y0198952D01*
X0223857Y0198168D01*
X0223328Y0197398D01*
X0222780Y0196640D01*
X0222214Y0195897D01*
X0221630Y0195167D01*
X0221029Y0194452D01*
X0220410Y0193752D01*
X0219774Y0193067D01*
X0219121Y0192398D01*
X0218452Y0191745D01*
X0217767Y0191109D01*
X0217067Y0190490D01*
X0216352Y0189889D01*
X0215622Y0189305D01*
X0214879Y0188739D01*
X0214121Y0188191D01*
X0213351Y0187662D01*
X0212567Y0187153D01*
X0211772Y0186663D01*
X0210964Y0186192D01*
X0210145Y0185741D01*
X0209316Y0185311D01*
X0208476Y0184901D01*
X0207626Y0184512D01*
X0206767Y0184144D01*
X0205899Y0183797D01*
X0205023Y0183471D01*
X0204140Y0183167D01*
X0203249Y0182885D01*
X0202351Y0182624D01*
X0201447Y0182386D01*
X0200538Y0182170D01*
X0199624Y0181977D01*
X0198705Y0181806D01*
X0197782Y0181657D01*
X0196856Y0181531D01*
X0195927Y0181428D01*
X0194996Y0181348D01*
X0194063Y0181291D01*
X0193130Y0181256D01*
X0192195Y0181245D01*
X0191260Y0181256D01*
X0190327Y0181291D01*
X0189394Y0181348D01*
X0188463Y0181428D01*
X0187534Y0181531D01*
X0186608Y0181657D01*
X0185685Y0181806D01*
X0184766Y0181977D01*
X0183852Y0182170D01*
X0182943Y0182386D01*
X0182039Y0182624D01*
X0181141Y0182885D01*
X0180250Y0183167D01*
X0179367Y0183471D01*
X0178491Y0183797D01*
X0177623Y0184144D01*
X0176764Y0184512D01*
X0175914Y0184901D01*
X0175074Y0185311D01*
X0174245Y0185741D01*
X0173426Y0186192D01*
X0172618Y0186663D01*
X0171823Y0187153D01*
X0171039Y0187662D01*
X0170269Y0188191D01*
X0169511Y0188739D01*
X0168768Y0189305D01*
X0168038Y0189889D01*
X0167323Y0190490D01*
X0166623Y0191109D01*
X0165938Y0191745D01*
X0165269Y0192398D01*
X0164616Y0193067D01*
X0163980Y0193752D01*
X0163361Y0194452D01*
X0162760Y0195167D01*
X0162176Y0195897D01*
X0161610Y0196640D01*
X0161062Y0197398D01*
X0160533Y0198168D01*
X0160024Y0198952D01*
X0159534Y0199747D01*
X0159063Y0200555D01*
X0158612Y0201374D01*
X0158182Y0202203D01*
X0157772Y0203043D01*
X0157383Y0203893D01*
X0157015Y0204752D01*
X0156668Y0205620D01*
X0156342Y0206496D01*
X0156038Y0207379D01*
X0155756Y0208270D01*
X0155495Y0209168D01*
X0155257Y0210072D01*
X0155041Y0210981D01*
X0154848Y0211895D01*
X0154677Y0212814D01*
X0154528Y0213737D01*
X0154402Y0214663D01*
X0154299Y0215592D01*
X0154219Y0216523D01*
X0154162Y0217456D01*
X0154127Y0218389D01*
X0154116Y0219324D01*
X0047510Y0125266D02*
X0047521Y0126160D01*
X0047554Y0127053D01*
X0047609Y0127945D01*
X0047685Y0128835D01*
X0047784Y0129724D01*
X0047904Y0130609D01*
X0048046Y0131492D01*
X0048210Y0132371D01*
X0048395Y0133245D01*
X0048601Y0134115D01*
X0048829Y0134979D01*
X0049078Y0135837D01*
X0049348Y0136689D01*
X0049639Y0137535D01*
X0049950Y0138372D01*
X0050282Y0139202D01*
X0050634Y0140024D01*
X0051006Y0140836D01*
X0051398Y0141639D01*
X0051810Y0142433D01*
X0052241Y0143216D01*
X0052691Y0143988D01*
X0053160Y0144749D01*
X0053647Y0145498D01*
X0054153Y0146235D01*
X0054677Y0146960D01*
X0055218Y0147671D01*
X0055776Y0148369D01*
X0056352Y0149053D01*
X0056944Y0149722D01*
X0057552Y0150377D01*
X0058176Y0151017D01*
X0058816Y0151641D01*
X0059471Y0152249D01*
X0060140Y0152841D01*
X0060824Y0153417D01*
X0061522Y0153975D01*
X0062233Y0154516D01*
X0062958Y0155040D01*
X0063695Y0155546D01*
X0064444Y0156033D01*
X0065205Y0156502D01*
X0065977Y0156952D01*
X0066760Y0157383D01*
X0067554Y0157795D01*
X0068357Y0158187D01*
X0069169Y0158559D01*
X0069991Y0158911D01*
X0070821Y0159243D01*
X0071658Y0159554D01*
X0072504Y0159845D01*
X0073356Y0160115D01*
X0074214Y0160364D01*
X0075078Y0160592D01*
X0075948Y0160798D01*
X0076822Y0160983D01*
X0077701Y0161147D01*
X0078584Y0161289D01*
X0079469Y0161409D01*
X0080358Y0161508D01*
X0081248Y0161584D01*
X0082140Y0161639D01*
X0083033Y0161672D01*
X0083927Y0161683D01*
X0084821Y0161672D01*
X0085714Y0161639D01*
X0086606Y0161584D01*
X0087496Y0161508D01*
X0088385Y0161409D01*
X0089270Y0161289D01*
X0090153Y0161147D01*
X0091032Y0160983D01*
X0091906Y0160798D01*
X0092776Y0160592D01*
X0093640Y0160364D01*
X0094498Y0160115D01*
X0095350Y0159845D01*
X0096196Y0159554D01*
X0097033Y0159243D01*
X0097863Y0158911D01*
X0098685Y0158559D01*
X0099497Y0158187D01*
X0100300Y0157795D01*
X0101094Y0157383D01*
X0101877Y0156952D01*
X0102649Y0156502D01*
X0103410Y0156033D01*
X0104159Y0155546D01*
X0104896Y0155040D01*
X0105621Y0154516D01*
X0106332Y0153975D01*
X0107030Y0153417D01*
X0107714Y0152841D01*
X0108383Y0152249D01*
X0109038Y0151641D01*
X0109678Y0151017D01*
X0110302Y0150377D01*
X0110910Y0149722D01*
X0111502Y0149053D01*
X0112078Y0148369D01*
X0112636Y0147671D01*
X0113177Y0146960D01*
X0113701Y0146235D01*
X0114207Y0145498D01*
X0114694Y0144749D01*
X0115163Y0143988D01*
X0115613Y0143216D01*
X0116044Y0142433D01*
X0116456Y0141639D01*
X0116848Y0140836D01*
X0117220Y0140024D01*
X0117572Y0139202D01*
X0117904Y0138372D01*
X0118215Y0137535D01*
X0118506Y0136689D01*
X0118776Y0135837D01*
X0119025Y0134979D01*
X0119253Y0134115D01*
X0119459Y0133245D01*
X0119644Y0132371D01*
X0119808Y0131492D01*
X0119950Y0130609D01*
X0120070Y0129724D01*
X0120169Y0128835D01*
X0120245Y0127945D01*
X0120300Y0127053D01*
X0120333Y0126160D01*
X0120344Y0125266D01*
X0120333Y0124372D01*
X0120300Y0123479D01*
X0120245Y0122587D01*
X0120169Y0121697D01*
X0120070Y0120808D01*
X0119950Y0119923D01*
X0119808Y0119040D01*
X0119644Y0118161D01*
X0119459Y0117287D01*
X0119253Y0116417D01*
X0119025Y0115553D01*
X0118776Y0114695D01*
X0118506Y0113843D01*
X0118215Y0112997D01*
X0117904Y0112160D01*
X0117572Y0111330D01*
X0117220Y0110508D01*
X0116848Y0109696D01*
X0116456Y0108893D01*
X0116044Y0108099D01*
X0115613Y0107316D01*
X0115163Y0106544D01*
X0114694Y0105783D01*
X0114207Y0105034D01*
X0113701Y0104297D01*
X0113177Y0103572D01*
X0112636Y0102861D01*
X0112078Y0102163D01*
X0111502Y0101479D01*
X0110910Y0100810D01*
X0110302Y0100155D01*
X0109678Y0099515D01*
X0109038Y0098891D01*
X0108383Y0098283D01*
X0107714Y0097691D01*
X0107030Y0097115D01*
X0106332Y0096557D01*
X0105621Y0096016D01*
X0104896Y0095492D01*
X0104159Y0094986D01*
X0103410Y0094499D01*
X0102649Y0094030D01*
X0101877Y0093580D01*
X0101094Y0093149D01*
X0100300Y0092737D01*
X0099497Y0092345D01*
X0098685Y0091973D01*
X0097863Y0091621D01*
X0097033Y0091289D01*
X0096196Y0090978D01*
X0095350Y0090687D01*
X0094498Y0090417D01*
X0093640Y0090168D01*
X0092776Y0089940D01*
X0091906Y0089734D01*
X0091032Y0089549D01*
X0090153Y0089385D01*
X0089270Y0089243D01*
X0088385Y0089123D01*
X0087496Y0089024D01*
X0086606Y0088948D01*
X0085714Y0088893D01*
X0084821Y0088860D01*
X0083927Y0088849D01*
X0083033Y0088860D01*
X0082140Y0088893D01*
X0081248Y0088948D01*
X0080358Y0089024D01*
X0079469Y0089123D01*
X0078584Y0089243D01*
X0077701Y0089385D01*
X0076822Y0089549D01*
X0075948Y0089734D01*
X0075078Y0089940D01*
X0074214Y0090168D01*
X0073356Y0090417D01*
X0072504Y0090687D01*
X0071658Y0090978D01*
X0070821Y0091289D01*
X0069991Y0091621D01*
X0069169Y0091973D01*
X0068357Y0092345D01*
X0067554Y0092737D01*
X0066760Y0093149D01*
X0065977Y0093580D01*
X0065205Y0094030D01*
X0064444Y0094499D01*
X0063695Y0094986D01*
X0062958Y0095492D01*
X0062233Y0096016D01*
X0061522Y0096557D01*
X0060824Y0097115D01*
X0060140Y0097691D01*
X0059471Y0098283D01*
X0058816Y0098891D01*
X0058176Y0099515D01*
X0057552Y0100155D01*
X0056944Y0100810D01*
X0056352Y0101479D01*
X0055776Y0102163D01*
X0055218Y0102861D01*
X0054677Y0103572D01*
X0054153Y0104297D01*
X0053647Y0105034D01*
X0053160Y0105783D01*
X0052691Y0106544D01*
X0052241Y0107316D01*
X0051810Y0108099D01*
X0051398Y0108893D01*
X0051006Y0109696D01*
X0050634Y0110508D01*
X0050282Y0111330D01*
X0049950Y0112160D01*
X0049639Y0112997D01*
X0049348Y0113843D01*
X0049078Y0114695D01*
X0048829Y0115553D01*
X0048601Y0116417D01*
X0048395Y0117287D01*
X0048210Y0118161D01*
X0048046Y0119040D01*
X0047904Y0119923D01*
X0047784Y0120808D01*
X0047685Y0121697D01*
X0047609Y0122587D01*
X0047554Y0123479D01*
X0047521Y0124372D01*
X0047510Y0125266D01*
X0018045Y0156325D02*
X0018047Y0156369D01*
X0018053Y0156413D01*
X0018063Y0156456D01*
X0018076Y0156498D01*
X0018093Y0156539D01*
X0018114Y0156578D01*
X0018138Y0156615D01*
X0018165Y0156650D01*
X0018195Y0156682D01*
X0018228Y0156712D01*
X0018264Y0156738D01*
X0018301Y0156762D01*
X0018341Y0156781D01*
X0018382Y0156798D01*
X0018425Y0156810D01*
X0018468Y0156819D01*
X0018512Y0156824D01*
X0018556Y0156825D01*
X0018600Y0156822D01*
X0018644Y0156815D01*
X0018687Y0156804D01*
X0018729Y0156790D01*
X0018769Y0156772D01*
X0018808Y0156750D01*
X0018844Y0156726D01*
X0018878Y0156698D01*
X0018910Y0156667D01*
X0018939Y0156633D01*
X0018965Y0156597D01*
X0018987Y0156559D01*
X0019006Y0156519D01*
X0019021Y0156477D01*
X0019033Y0156435D01*
X0019041Y0156391D01*
X0019045Y0156347D01*
X0019045Y0156303D01*
X0019041Y0156259D01*
X0019033Y0156215D01*
X0019021Y0156173D01*
X0019006Y0156131D01*
X0018987Y0156091D01*
X0018965Y0156053D01*
X0018939Y0156017D01*
X0018910Y0155983D01*
X0018878Y0155952D01*
X0018844Y0155924D01*
X0018808Y0155900D01*
X0018769Y0155878D01*
X0018729Y0155860D01*
X0018687Y0155846D01*
X0018644Y0155835D01*
X0018600Y0155828D01*
X0018556Y0155825D01*
X0018512Y0155826D01*
X0018468Y0155831D01*
X0018425Y0155840D01*
X0018382Y0155852D01*
X0018341Y0155869D01*
X0018301Y0155888D01*
X0018264Y0155912D01*
X0018228Y0155938D01*
X0018195Y0155968D01*
X0018165Y0156000D01*
X0018138Y0156035D01*
X0018114Y0156072D01*
X0018093Y0156111D01*
X0018076Y0156152D01*
X0018063Y0156194D01*
X0018053Y0156237D01*
X0018047Y0156281D01*
X0018045Y0156325D01*
X0014537Y0078809D02*
X0014537Y0057549D01*
X0052923Y0057549D01*
X0052923Y0078809D01*
X0014537Y0078809D01*
X0014537Y0047313D02*
X0014537Y0026053D01*
X0052923Y0026053D01*
X0052923Y0047313D01*
X0014537Y0047313D01*
X0067195Y0027825D02*
X0067195Y0077037D01*
X0106565Y0077037D01*
X0106565Y0027825D01*
X0067195Y0027825D01*
X0119360Y0062274D02*
X0119360Y0089833D01*
X0142982Y0089833D02*
X0142982Y0062274D01*
X0184321Y0078809D02*
X0184321Y0085896D01*
X0184321Y0078809D02*
X0186289Y0078809D01*
X0194163Y0078809D02*
X0196132Y0078809D01*
X0196132Y0085896D01*
X0198967Y0087431D02*
X0338967Y0087431D01*
X0338967Y0017431D01*
X0198967Y0017431D01*
X0198967Y0087431D01*
X0196132Y0093770D02*
X0184321Y0093770D01*
X0177628Y0120140D02*
X0177630Y0120206D01*
X0177636Y0120272D01*
X0177646Y0120338D01*
X0177659Y0120403D01*
X0177677Y0120467D01*
X0177698Y0120529D01*
X0177723Y0120591D01*
X0177751Y0120651D01*
X0177783Y0120709D01*
X0177819Y0120765D01*
X0177857Y0120818D01*
X0177899Y0120870D01*
X0177944Y0120919D01*
X0177991Y0120965D01*
X0178042Y0121008D01*
X0178094Y0121048D01*
X0178149Y0121085D01*
X0178206Y0121119D01*
X0178265Y0121149D01*
X0178326Y0121176D01*
X0178388Y0121199D01*
X0178451Y0121218D01*
X0178516Y0121234D01*
X0178581Y0121246D01*
X0178647Y0121254D01*
X0178713Y0121258D01*
X0178779Y0121258D01*
X0178845Y0121254D01*
X0178911Y0121246D01*
X0178976Y0121234D01*
X0179041Y0121218D01*
X0179104Y0121199D01*
X0179166Y0121176D01*
X0179227Y0121149D01*
X0179286Y0121119D01*
X0179343Y0121085D01*
X0179398Y0121048D01*
X0179450Y0121008D01*
X0179501Y0120965D01*
X0179548Y0120919D01*
X0179593Y0120870D01*
X0179635Y0120818D01*
X0179673Y0120765D01*
X0179709Y0120709D01*
X0179741Y0120651D01*
X0179769Y0120591D01*
X0179794Y0120529D01*
X0179815Y0120467D01*
X0179833Y0120403D01*
X0179846Y0120338D01*
X0179856Y0120272D01*
X0179862Y0120206D01*
X0179864Y0120140D01*
X0179862Y0120074D01*
X0179856Y0120008D01*
X0179846Y0119942D01*
X0179833Y0119877D01*
X0179815Y0119813D01*
X0179794Y0119751D01*
X0179769Y0119689D01*
X0179741Y0119629D01*
X0179709Y0119571D01*
X0179673Y0119515D01*
X0179635Y0119462D01*
X0179593Y0119410D01*
X0179548Y0119361D01*
X0179501Y0119315D01*
X0179450Y0119272D01*
X0179398Y0119232D01*
X0179343Y0119195D01*
X0179286Y0119161D01*
X0179227Y0119131D01*
X0179166Y0119104D01*
X0179104Y0119081D01*
X0179041Y0119062D01*
X0178976Y0119046D01*
X0178911Y0119034D01*
X0178845Y0119026D01*
X0178779Y0119022D01*
X0178713Y0119022D01*
X0178647Y0119026D01*
X0178581Y0119034D01*
X0178516Y0119046D01*
X0178451Y0119062D01*
X0178388Y0119081D01*
X0178326Y0119104D01*
X0178265Y0119131D01*
X0178206Y0119161D01*
X0178149Y0119195D01*
X0178094Y0119232D01*
X0178042Y0119272D01*
X0177991Y0119315D01*
X0177944Y0119361D01*
X0177899Y0119410D01*
X0177857Y0119462D01*
X0177819Y0119515D01*
X0177783Y0119571D01*
X0177751Y0119629D01*
X0177723Y0119689D01*
X0177698Y0119751D01*
X0177677Y0119813D01*
X0177659Y0119877D01*
X0177646Y0119942D01*
X0177636Y0120008D01*
X0177630Y0120074D01*
X0177628Y0120140D01*
X0224676Y0127234D02*
X0224687Y0128128D01*
X0224720Y0129021D01*
X0224775Y0129913D01*
X0224851Y0130803D01*
X0224950Y0131692D01*
X0225070Y0132577D01*
X0225212Y0133460D01*
X0225376Y0134339D01*
X0225561Y0135213D01*
X0225767Y0136083D01*
X0225995Y0136947D01*
X0226244Y0137805D01*
X0226514Y0138657D01*
X0226805Y0139503D01*
X0227116Y0140340D01*
X0227448Y0141170D01*
X0227800Y0141992D01*
X0228172Y0142804D01*
X0228564Y0143607D01*
X0228976Y0144401D01*
X0229407Y0145184D01*
X0229857Y0145956D01*
X0230326Y0146717D01*
X0230813Y0147466D01*
X0231319Y0148203D01*
X0231843Y0148928D01*
X0232384Y0149639D01*
X0232942Y0150337D01*
X0233518Y0151021D01*
X0234110Y0151690D01*
X0234718Y0152345D01*
X0235342Y0152985D01*
X0235982Y0153609D01*
X0236637Y0154217D01*
X0237306Y0154809D01*
X0237990Y0155385D01*
X0238688Y0155943D01*
X0239399Y0156484D01*
X0240124Y0157008D01*
X0240861Y0157514D01*
X0241610Y0158001D01*
X0242371Y0158470D01*
X0243143Y0158920D01*
X0243926Y0159351D01*
X0244720Y0159763D01*
X0245523Y0160155D01*
X0246335Y0160527D01*
X0247157Y0160879D01*
X0247987Y0161211D01*
X0248824Y0161522D01*
X0249670Y0161813D01*
X0250522Y0162083D01*
X0251380Y0162332D01*
X0252244Y0162560D01*
X0253114Y0162766D01*
X0253988Y0162951D01*
X0254867Y0163115D01*
X0255750Y0163257D01*
X0256635Y0163377D01*
X0257524Y0163476D01*
X0258414Y0163552D01*
X0259306Y0163607D01*
X0260199Y0163640D01*
X0261093Y0163651D01*
X0261987Y0163640D01*
X0262880Y0163607D01*
X0263772Y0163552D01*
X0264662Y0163476D01*
X0265551Y0163377D01*
X0266436Y0163257D01*
X0267319Y0163115D01*
X0268198Y0162951D01*
X0269072Y0162766D01*
X0269942Y0162560D01*
X0270806Y0162332D01*
X0271664Y0162083D01*
X0272516Y0161813D01*
X0273362Y0161522D01*
X0274199Y0161211D01*
X0275029Y0160879D01*
X0275851Y0160527D01*
X0276663Y0160155D01*
X0277466Y0159763D01*
X0278260Y0159351D01*
X0279043Y0158920D01*
X0279815Y0158470D01*
X0280576Y0158001D01*
X0281325Y0157514D01*
X0282062Y0157008D01*
X0282787Y0156484D01*
X0283498Y0155943D01*
X0284196Y0155385D01*
X0284880Y0154809D01*
X0285549Y0154217D01*
X0286204Y0153609D01*
X0286844Y0152985D01*
X0287468Y0152345D01*
X0288076Y0151690D01*
X0288668Y0151021D01*
X0289244Y0150337D01*
X0289802Y0149639D01*
X0290343Y0148928D01*
X0290867Y0148203D01*
X0291373Y0147466D01*
X0291860Y0146717D01*
X0292329Y0145956D01*
X0292779Y0145184D01*
X0293210Y0144401D01*
X0293622Y0143607D01*
X0294014Y0142804D01*
X0294386Y0141992D01*
X0294738Y0141170D01*
X0295070Y0140340D01*
X0295381Y0139503D01*
X0295672Y0138657D01*
X0295942Y0137805D01*
X0296191Y0136947D01*
X0296419Y0136083D01*
X0296625Y0135213D01*
X0296810Y0134339D01*
X0296974Y0133460D01*
X0297116Y0132577D01*
X0297236Y0131692D01*
X0297335Y0130803D01*
X0297411Y0129913D01*
X0297466Y0129021D01*
X0297499Y0128128D01*
X0297510Y0127234D01*
X0297499Y0126340D01*
X0297466Y0125447D01*
X0297411Y0124555D01*
X0297335Y0123665D01*
X0297236Y0122776D01*
X0297116Y0121891D01*
X0296974Y0121008D01*
X0296810Y0120129D01*
X0296625Y0119255D01*
X0296419Y0118385D01*
X0296191Y0117521D01*
X0295942Y0116663D01*
X0295672Y0115811D01*
X0295381Y0114965D01*
X0295070Y0114128D01*
X0294738Y0113298D01*
X0294386Y0112476D01*
X0294014Y0111664D01*
X0293622Y0110861D01*
X0293210Y0110067D01*
X0292779Y0109284D01*
X0292329Y0108512D01*
X0291860Y0107751D01*
X0291373Y0107002D01*
X0290867Y0106265D01*
X0290343Y0105540D01*
X0289802Y0104829D01*
X0289244Y0104131D01*
X0288668Y0103447D01*
X0288076Y0102778D01*
X0287468Y0102123D01*
X0286844Y0101483D01*
X0286204Y0100859D01*
X0285549Y0100251D01*
X0284880Y0099659D01*
X0284196Y0099083D01*
X0283498Y0098525D01*
X0282787Y0097984D01*
X0282062Y0097460D01*
X0281325Y0096954D01*
X0280576Y0096467D01*
X0279815Y0095998D01*
X0279043Y0095548D01*
X0278260Y0095117D01*
X0277466Y0094705D01*
X0276663Y0094313D01*
X0275851Y0093941D01*
X0275029Y0093589D01*
X0274199Y0093257D01*
X0273362Y0092946D01*
X0272516Y0092655D01*
X0271664Y0092385D01*
X0270806Y0092136D01*
X0269942Y0091908D01*
X0269072Y0091702D01*
X0268198Y0091517D01*
X0267319Y0091353D01*
X0266436Y0091211D01*
X0265551Y0091091D01*
X0264662Y0090992D01*
X0263772Y0090916D01*
X0262880Y0090861D01*
X0261987Y0090828D01*
X0261093Y0090817D01*
X0260199Y0090828D01*
X0259306Y0090861D01*
X0258414Y0090916D01*
X0257524Y0090992D01*
X0256635Y0091091D01*
X0255750Y0091211D01*
X0254867Y0091353D01*
X0253988Y0091517D01*
X0253114Y0091702D01*
X0252244Y0091908D01*
X0251380Y0092136D01*
X0250522Y0092385D01*
X0249670Y0092655D01*
X0248824Y0092946D01*
X0247987Y0093257D01*
X0247157Y0093589D01*
X0246335Y0093941D01*
X0245523Y0094313D01*
X0244720Y0094705D01*
X0243926Y0095117D01*
X0243143Y0095548D01*
X0242371Y0095998D01*
X0241610Y0096467D01*
X0240861Y0096954D01*
X0240124Y0097460D01*
X0239399Y0097984D01*
X0238688Y0098525D01*
X0237990Y0099083D01*
X0237306Y0099659D01*
X0236637Y0100251D01*
X0235982Y0100859D01*
X0235342Y0101483D01*
X0234718Y0102123D01*
X0234110Y0102778D01*
X0233518Y0103447D01*
X0232942Y0104131D01*
X0232384Y0104829D01*
X0231843Y0105540D01*
X0231319Y0106265D01*
X0230813Y0107002D01*
X0230326Y0107751D01*
X0229857Y0108512D01*
X0229407Y0109284D01*
X0228976Y0110067D01*
X0228564Y0110861D01*
X0228172Y0111664D01*
X0227800Y0112476D01*
X0227448Y0113298D01*
X0227116Y0114128D01*
X0226805Y0114965D01*
X0226514Y0115811D01*
X0226244Y0116663D01*
X0225995Y0117521D01*
X0225767Y0118385D01*
X0225561Y0119255D01*
X0225376Y0120129D01*
X0225212Y0121008D01*
X0225070Y0121891D01*
X0224950Y0122776D01*
X0224851Y0123665D01*
X0224775Y0124555D01*
X0224720Y0125447D01*
X0224687Y0126340D01*
X0224676Y0127234D01*
X0337864Y0122329D02*
X0337864Y0132140D01*
X0349675Y0132140D01*
X0349675Y0122329D01*
X0337864Y0122329D01*
X0346827Y0130081D02*
X0346829Y0130140D01*
X0346835Y0130198D01*
X0346845Y0130256D01*
X0346858Y0130313D01*
X0346876Y0130370D01*
X0346897Y0130425D01*
X0346922Y0130478D01*
X0346950Y0130529D01*
X0346981Y0130579D01*
X0347016Y0130626D01*
X0347054Y0130671D01*
X0347095Y0130714D01*
X0347139Y0130753D01*
X0347185Y0130789D01*
X0347233Y0130823D01*
X0347284Y0130853D01*
X0347337Y0130879D01*
X0347391Y0130902D01*
X0347446Y0130921D01*
X0347503Y0130937D01*
X0347561Y0130949D01*
X0347619Y0130957D01*
X0347678Y0130961D01*
X0347736Y0130961D01*
X0347795Y0130957D01*
X0347853Y0130949D01*
X0347911Y0130937D01*
X0347968Y0130921D01*
X0348023Y0130902D01*
X0348077Y0130879D01*
X0348130Y0130853D01*
X0348181Y0130823D01*
X0348229Y0130789D01*
X0348275Y0130753D01*
X0348319Y0130714D01*
X0348360Y0130671D01*
X0348398Y0130626D01*
X0348433Y0130579D01*
X0348464Y0130529D01*
X0348492Y0130478D01*
X0348517Y0130425D01*
X0348538Y0130370D01*
X0348556Y0130313D01*
X0348569Y0130256D01*
X0348579Y0130198D01*
X0348585Y0130140D01*
X0348587Y0130081D01*
X0348585Y0130022D01*
X0348579Y0129964D01*
X0348569Y0129906D01*
X0348556Y0129849D01*
X0348538Y0129792D01*
X0348517Y0129737D01*
X0348492Y0129684D01*
X0348464Y0129633D01*
X0348433Y0129583D01*
X0348398Y0129536D01*
X0348360Y0129491D01*
X0348319Y0129448D01*
X0348275Y0129409D01*
X0348229Y0129373D01*
X0348181Y0129339D01*
X0348130Y0129309D01*
X0348077Y0129283D01*
X0348023Y0129260D01*
X0347968Y0129241D01*
X0347911Y0129225D01*
X0347853Y0129213D01*
X0347795Y0129205D01*
X0347736Y0129201D01*
X0347678Y0129201D01*
X0347619Y0129205D01*
X0347561Y0129213D01*
X0347503Y0129225D01*
X0347446Y0129241D01*
X0347391Y0129260D01*
X0347337Y0129283D01*
X0347284Y0129309D01*
X0347233Y0129339D01*
X0347185Y0129373D01*
X0347139Y0129409D01*
X0347095Y0129448D01*
X0347054Y0129491D01*
X0347016Y0129536D01*
X0346981Y0129583D01*
X0346950Y0129633D01*
X0346922Y0129684D01*
X0346897Y0129737D01*
X0346876Y0129792D01*
X0346858Y0129849D01*
X0346845Y0129906D01*
X0346835Y0129964D01*
X0346829Y0130022D01*
X0346827Y0130081D01*
D16*
X0019951Y0147919D02*
X0008140Y0147919D01*
X0008140Y0157730D01*
X0019951Y0157730D01*
X0019951Y0147919D01*
D17*
X0134288Y0039996D02*
X0134288Y0039629D01*
X0135022Y0038895D01*
X0135756Y0038895D02*
X0134288Y0038895D01*
X0134655Y0038153D02*
X0135022Y0038153D01*
X0135022Y0036686D01*
X0134655Y0036686D02*
X0134288Y0037053D01*
X0134288Y0037787D01*
X0134655Y0038153D01*
X0135756Y0037787D02*
X0135756Y0037053D01*
X0135389Y0036686D01*
X0134655Y0036686D01*
X0134288Y0035944D02*
X0135756Y0034476D01*
X0135756Y0035944D01*
X0134288Y0035944D02*
X0134288Y0034476D01*
X0134288Y0033734D02*
X0135756Y0032266D01*
X0135756Y0033734D01*
X0134288Y0033734D02*
X0134288Y0032266D01*
X0134288Y0031524D02*
X0135756Y0031524D01*
X0135756Y0030423D01*
X0135389Y0030056D01*
X0134288Y0030056D01*
X0134655Y0029314D02*
X0134288Y0028947D01*
X0134288Y0027846D01*
X0133554Y0027846D02*
X0135756Y0027846D01*
X0135756Y0028947D01*
X0135389Y0029314D01*
X0134655Y0029314D01*
X0096986Y0030367D02*
X0096986Y0032569D01*
X0096986Y0031468D02*
X0095518Y0031468D01*
X0094776Y0030734D02*
X0094409Y0030367D01*
X0093675Y0030367D01*
X0093308Y0030734D01*
X0093308Y0032202D01*
X0093675Y0032569D01*
X0094409Y0032569D01*
X0094776Y0032202D01*
X0095518Y0032569D02*
X0095518Y0030367D01*
X0092566Y0032569D02*
X0091098Y0032569D01*
X0091832Y0032569D02*
X0091832Y0030367D01*
X0090359Y0030367D02*
X0089625Y0030367D01*
X0089992Y0030367D02*
X0089992Y0032569D01*
X0089625Y0032569D02*
X0090359Y0032569D01*
X0088883Y0032569D02*
X0088883Y0030367D01*
X0088149Y0031101D01*
X0087415Y0030367D01*
X0087415Y0032569D01*
X0086673Y0032202D02*
X0086306Y0032569D01*
X0085572Y0032569D01*
X0085205Y0032202D01*
X0085205Y0031835D01*
X0085572Y0031468D01*
X0086306Y0031468D01*
X0086673Y0031101D01*
X0086673Y0030734D01*
X0086306Y0030367D01*
X0085572Y0030367D01*
X0085205Y0030734D01*
X0082253Y0031468D02*
X0081886Y0031101D01*
X0080785Y0031101D01*
X0080785Y0030367D02*
X0080785Y0032569D01*
X0081886Y0032569D01*
X0082253Y0032202D01*
X0082253Y0031468D01*
X0080046Y0030367D02*
X0079312Y0030367D01*
X0079679Y0030367D02*
X0079679Y0032569D01*
X0079312Y0032569D02*
X0080046Y0032569D01*
X0078570Y0032202D02*
X0078570Y0030734D01*
X0078203Y0030367D01*
X0077102Y0030367D01*
X0077102Y0032569D01*
X0078203Y0032569D01*
X0078570Y0032202D01*
X0187012Y0073596D02*
X0187012Y0075798D01*
X0188112Y0075798D01*
X0188479Y0075431D01*
X0188479Y0074697D01*
X0188112Y0074330D01*
X0187012Y0074330D01*
X0189221Y0073963D02*
X0189588Y0073596D01*
X0190322Y0073596D01*
X0190689Y0073963D01*
X0190689Y0075431D01*
X0190322Y0075798D01*
X0189588Y0075798D01*
X0189221Y0075431D01*
X0189221Y0073963D01*
X0191431Y0075798D02*
X0192899Y0075798D01*
X0192165Y0075798D02*
X0192165Y0073596D01*
X0219232Y0264448D02*
X0219232Y0265916D01*
X0219232Y0265182D02*
X0221433Y0265182D01*
X0221433Y0266658D02*
X0219232Y0266658D01*
X0220333Y0266658D02*
X0220333Y0268126D01*
X0220333Y0268868D02*
X0220333Y0269602D01*
X0221433Y0268868D02*
X0221433Y0270336D01*
X0221433Y0271078D02*
X0219232Y0271078D01*
X0219232Y0272179D01*
X0219599Y0272546D01*
X0220333Y0272546D01*
X0220700Y0272179D01*
X0220700Y0271078D01*
X0220700Y0271812D02*
X0221433Y0272546D01*
X0221433Y0273288D02*
X0219232Y0273288D01*
X0219966Y0274022D01*
X0219232Y0274756D01*
X0221433Y0274756D01*
X0221433Y0275498D02*
X0221433Y0276232D01*
X0221433Y0275865D02*
X0219232Y0275865D01*
X0219232Y0275498D02*
X0219232Y0276232D01*
X0219599Y0276971D02*
X0219966Y0276971D01*
X0220333Y0277338D01*
X0220333Y0278072D01*
X0220700Y0278439D01*
X0221066Y0278439D01*
X0221433Y0278072D01*
X0221433Y0277338D01*
X0221066Y0276971D01*
X0219599Y0276971D02*
X0219232Y0277338D01*
X0219232Y0278072D01*
X0219599Y0278439D01*
X0219232Y0279181D02*
X0219232Y0280649D01*
X0219232Y0279915D02*
X0221433Y0279915D01*
X0221066Y0281391D02*
X0221433Y0281758D01*
X0221433Y0282492D01*
X0221066Y0282859D01*
X0219599Y0282859D01*
X0219232Y0282492D01*
X0219232Y0281758D01*
X0219599Y0281391D01*
X0221066Y0281391D01*
X0220700Y0283601D02*
X0220700Y0284702D01*
X0220333Y0285069D01*
X0219599Y0285069D01*
X0219232Y0284702D01*
X0219232Y0283601D01*
X0221433Y0283601D01*
X0220700Y0284335D02*
X0221433Y0285069D01*
X0219232Y0270336D02*
X0219232Y0268868D01*
X0221433Y0268868D01*
X0221433Y0268126D02*
X0219232Y0268126D01*
X0189937Y0279689D02*
X0187736Y0279689D01*
X0187736Y0281157D01*
X0188469Y0281899D02*
X0187736Y0282633D01*
X0188469Y0283367D01*
X0189937Y0283367D01*
X0189937Y0284108D02*
X0187736Y0284108D01*
X0189937Y0285576D01*
X0187736Y0285576D01*
X0188836Y0283367D02*
X0188836Y0281899D01*
X0188469Y0281899D02*
X0189937Y0281899D01*
X0188836Y0280423D02*
X0188836Y0279689D01*
X0158441Y0279685D02*
X0158074Y0280052D01*
X0157340Y0280052D01*
X0157340Y0279318D01*
X0156606Y0280052D02*
X0156239Y0279685D01*
X0156239Y0278951D01*
X0156606Y0278584D01*
X0158074Y0278584D01*
X0158441Y0278951D01*
X0158441Y0279685D01*
X0158441Y0280794D02*
X0158441Y0282262D01*
X0157707Y0283004D02*
X0158441Y0283737D01*
X0157707Y0284471D01*
X0156239Y0284471D01*
X0156973Y0285213D02*
X0156239Y0285947D01*
X0156973Y0286681D01*
X0158441Y0286681D01*
X0158441Y0287423D02*
X0158441Y0288891D01*
X0157707Y0289633D02*
X0158441Y0290367D01*
X0157707Y0291101D01*
X0156239Y0291101D01*
X0156239Y0291843D02*
X0158441Y0291843D01*
X0158441Y0293311D01*
X0157340Y0292577D02*
X0157340Y0291843D01*
X0156239Y0291843D02*
X0156239Y0293311D01*
X0156239Y0289633D02*
X0157707Y0289633D01*
X0158441Y0287423D02*
X0156239Y0287423D01*
X0157340Y0286681D02*
X0157340Y0285213D01*
X0156973Y0285213D02*
X0158441Y0285213D01*
X0157707Y0283004D02*
X0156239Y0283004D01*
X0156239Y0282262D02*
X0156239Y0280794D01*
X0158441Y0280794D01*
X0157340Y0280794D02*
X0157340Y0281528D01*
X0157340Y0277842D02*
X0157707Y0277475D01*
X0157707Y0276374D01*
X0157707Y0277108D02*
X0158441Y0277842D01*
X0157340Y0277842D02*
X0156606Y0277842D01*
X0156239Y0277475D01*
X0156239Y0276374D01*
X0158441Y0276374D01*
X0158074Y0275632D02*
X0156239Y0275632D01*
X0156239Y0274164D02*
X0158074Y0274164D01*
X0158441Y0274531D01*
X0158441Y0275265D01*
X0158074Y0275632D01*
X0157340Y0273422D02*
X0157707Y0273055D01*
X0157707Y0271954D01*
X0158441Y0271954D02*
X0156239Y0271954D01*
X0156239Y0273055D01*
X0156606Y0273422D01*
X0157340Y0273422D01*
X0126945Y0273426D02*
X0126945Y0274160D01*
X0126578Y0274527D01*
X0124743Y0274527D01*
X0124743Y0275269D02*
X0124743Y0276370D01*
X0125110Y0276737D01*
X0125844Y0276737D01*
X0126211Y0276370D01*
X0126211Y0275269D01*
X0126945Y0275269D02*
X0124743Y0275269D01*
X0124743Y0277479D02*
X0124743Y0278580D01*
X0125110Y0278947D01*
X0125844Y0278947D01*
X0126211Y0278580D01*
X0126211Y0277479D01*
X0126945Y0277479D02*
X0124743Y0277479D01*
X0124743Y0279689D02*
X0126945Y0279689D01*
X0126945Y0281157D01*
X0126945Y0282633D02*
X0125844Y0282633D01*
X0125110Y0283366D01*
X0124743Y0283366D01*
X0124743Y0284108D02*
X0126211Y0284108D01*
X0126945Y0284842D01*
X0126211Y0285576D01*
X0124743Y0285576D01*
X0125477Y0286318D02*
X0124743Y0287052D01*
X0125477Y0287786D01*
X0126945Y0287786D01*
X0126945Y0288528D02*
X0124743Y0288528D01*
X0125844Y0287786D02*
X0125844Y0286318D01*
X0125477Y0286318D02*
X0126945Y0286318D01*
X0126945Y0288528D02*
X0126945Y0289996D01*
X0126211Y0290738D02*
X0126945Y0291472D01*
X0126211Y0292206D01*
X0124743Y0292206D01*
X0124743Y0292948D02*
X0126945Y0292948D01*
X0126945Y0294416D01*
X0125844Y0293682D02*
X0125844Y0292948D01*
X0124743Y0292948D02*
X0124743Y0294416D01*
X0124743Y0290738D02*
X0126211Y0290738D01*
X0125844Y0282633D02*
X0125110Y0281899D01*
X0124743Y0281899D01*
X0126945Y0273426D02*
X0126578Y0273059D01*
X0124743Y0273059D01*
X0125110Y0272317D02*
X0124743Y0271950D01*
X0124743Y0271216D01*
X0125110Y0270849D01*
X0125477Y0270849D01*
X0125844Y0271216D01*
X0125844Y0271950D01*
X0126211Y0272317D01*
X0126578Y0272317D01*
X0126945Y0271950D01*
X0126945Y0271216D01*
X0126578Y0270849D01*
X0105070Y0278945D02*
X0104336Y0279679D01*
X0102869Y0279679D01*
X0103236Y0280421D02*
X0104703Y0280421D01*
X0105070Y0280788D01*
X0105070Y0281522D01*
X0104703Y0281889D01*
X0103236Y0281889D01*
X0102869Y0281522D01*
X0102869Y0280788D01*
X0103236Y0280421D01*
X0102869Y0278211D02*
X0104336Y0278211D01*
X0105070Y0278945D01*
X0104703Y0282631D02*
X0102869Y0282631D01*
X0102869Y0284099D02*
X0104703Y0284099D01*
X0105070Y0283732D01*
X0105070Y0282998D01*
X0104703Y0282631D01*
X0102869Y0284841D02*
X0102869Y0286309D01*
X0102869Y0285575D02*
X0105070Y0285575D01*
X0095070Y0285942D02*
X0094703Y0286309D01*
X0093236Y0286309D01*
X0092869Y0285942D01*
X0092869Y0284841D01*
X0095070Y0284841D01*
X0095070Y0285942D01*
X0095070Y0284099D02*
X0092869Y0284099D01*
X0092869Y0282631D02*
X0095070Y0284099D01*
X0095070Y0282631D02*
X0092869Y0282631D01*
X0093236Y0281889D02*
X0092869Y0281522D01*
X0092869Y0280788D01*
X0093236Y0280421D01*
X0094703Y0280421D01*
X0095070Y0280788D01*
X0095070Y0281522D01*
X0094703Y0281889D01*
X0093969Y0281889D01*
X0093969Y0281155D01*
X0085070Y0281892D02*
X0084336Y0281158D01*
X0082869Y0281158D01*
X0082869Y0282626D02*
X0084336Y0282626D01*
X0085070Y0281892D01*
X0085070Y0283368D02*
X0085070Y0284102D01*
X0085070Y0283735D02*
X0082869Y0283735D01*
X0082869Y0283368D02*
X0082869Y0284102D01*
X0082869Y0284841D02*
X0085070Y0286309D01*
X0082869Y0286309D01*
X0082869Y0284841D02*
X0085070Y0284841D01*
X0265539Y0285188D02*
X0267007Y0285188D01*
X0267741Y0284454D01*
X0267007Y0283720D01*
X0265539Y0283720D01*
X0265539Y0285930D02*
X0265539Y0286664D01*
X0265539Y0286297D02*
X0267741Y0286297D01*
X0267741Y0285930D02*
X0267741Y0286664D01*
X0267741Y0287403D02*
X0265539Y0287403D01*
X0267741Y0288871D01*
X0265539Y0288871D01*
X0275539Y0289241D02*
X0275539Y0288140D01*
X0277741Y0288140D01*
X0277741Y0289241D01*
X0277374Y0289608D01*
X0275906Y0289608D01*
X0275539Y0289241D01*
X0275539Y0287398D02*
X0277741Y0287398D01*
X0275539Y0285930D01*
X0277741Y0285930D01*
X0277374Y0285188D02*
X0276640Y0285188D01*
X0276640Y0284454D01*
X0277374Y0283720D02*
X0277741Y0284087D01*
X0277741Y0284821D01*
X0277374Y0285188D01*
X0277374Y0283720D02*
X0275906Y0283720D01*
X0275539Y0284087D01*
X0275539Y0284821D01*
X0275906Y0285188D01*
X0285539Y0285188D02*
X0287007Y0285188D01*
X0287741Y0284454D01*
X0287007Y0283720D01*
X0285539Y0283720D01*
X0285906Y0285930D02*
X0287374Y0285930D01*
X0287741Y0286297D01*
X0287741Y0287031D01*
X0287374Y0287398D01*
X0285906Y0287398D01*
X0285539Y0287031D01*
X0285539Y0286297D01*
X0285906Y0285930D01*
X0285539Y0288140D02*
X0287374Y0288140D01*
X0287741Y0288507D01*
X0287741Y0289241D01*
X0287374Y0289608D01*
X0285539Y0289608D01*
X0285539Y0290350D02*
X0285539Y0291818D01*
X0285539Y0291084D02*
X0287741Y0291084D01*
D18*
X0190817Y0153691D03*
D19*
X0141171Y0081053D02*
X0121171Y0081053D01*
X0047431Y0239281D02*
X0047431Y0259281D01*
X0306211Y0279715D02*
X0326211Y0279715D01*
D20*
X0171919Y0089045D03*
M02*
