G75*
%MOIN*%
%OFA0B0*%
%FSLAX25Y25*%
%IPPOS*%
%LPD*%
%AMOC8*
5,1,8,0,0,1.08239X$1,22.5*
%
%ADD10C,0.00400*%
%ADD11C,0.00300*%
%ADD12C,0.00800*%
%ADD13C,0.00100*%
%ADD14C,0.00600*%
D10*
X0072549Y0209363D02*
X0072549Y0211966D01*
X0073416Y0212833D01*
X0076018Y0212833D01*
X0076018Y0209363D01*
X0077705Y0211098D02*
X0081175Y0211098D01*
X0081175Y0210231D02*
X0081175Y0211966D01*
X0080307Y0212833D01*
X0078572Y0212833D01*
X0077705Y0211966D01*
X0077705Y0211098D01*
X0078572Y0209363D02*
X0080307Y0209363D01*
X0081175Y0210231D01*
X0082861Y0209363D02*
X0082861Y0211966D01*
X0083729Y0212833D01*
X0085464Y0212833D01*
X0086331Y0211966D01*
X0088018Y0213700D02*
X0088885Y0214568D01*
X0090620Y0214568D01*
X0091487Y0213700D01*
X0091487Y0210231D01*
X0090620Y0209363D01*
X0088885Y0209363D01*
X0088018Y0210231D01*
X0086331Y0209363D02*
X0086331Y0214568D01*
X0098331Y0212833D02*
X0098331Y0208496D01*
X0099198Y0207629D01*
X0100065Y0207629D01*
X0100933Y0209363D02*
X0098331Y0209363D01*
X0100933Y0209363D02*
X0101800Y0210231D01*
X0101800Y0212833D01*
X0103495Y0212833D02*
X0104362Y0212833D01*
X0106097Y0211098D01*
X0106097Y0209363D02*
X0106097Y0212833D01*
X0107792Y0212833D02*
X0108659Y0212833D01*
X0110394Y0211098D01*
X0112081Y0211098D02*
X0115551Y0211098D01*
X0115551Y0210231D02*
X0115551Y0211966D01*
X0114683Y0212833D01*
X0112948Y0212833D01*
X0112081Y0211966D01*
X0112081Y0211098D01*
X0112948Y0209363D02*
X0114683Y0209363D01*
X0115551Y0210231D01*
X0117237Y0210231D02*
X0117237Y0211966D01*
X0118972Y0211966D01*
X0117237Y0213700D02*
X0118105Y0214568D01*
X0119840Y0214568D01*
X0120707Y0213700D01*
X0120707Y0210231D01*
X0119840Y0209363D01*
X0118105Y0209363D01*
X0117237Y0210231D01*
X0110394Y0209363D02*
X0110394Y0212833D01*
X0124972Y0218631D02*
X0125839Y0217763D01*
X0127574Y0217763D01*
X0128442Y0218631D01*
X0124972Y0222100D01*
X0124972Y0218631D01*
X0124972Y0222100D02*
X0125839Y0222968D01*
X0127574Y0222968D01*
X0128442Y0222100D01*
X0128442Y0218631D01*
X0130152Y0218631D02*
X0130152Y0217763D01*
X0131020Y0217763D01*
X0131020Y0218631D01*
X0130152Y0218631D01*
X0132707Y0218631D02*
X0133574Y0217763D01*
X0135309Y0217763D01*
X0136176Y0218631D01*
X0134441Y0220366D02*
X0133574Y0220366D01*
X0132707Y0219498D01*
X0132707Y0218631D01*
X0133574Y0220366D02*
X0132707Y0221233D01*
X0132707Y0222100D01*
X0133574Y0222968D01*
X0135309Y0222968D01*
X0136176Y0222100D01*
X0137863Y0221233D02*
X0139598Y0217763D01*
X0141333Y0221233D01*
X0142168Y0226163D02*
X0143903Y0226163D01*
X0144770Y0227031D01*
X0144770Y0228766D01*
X0143903Y0229633D01*
X0142168Y0229633D01*
X0141301Y0228766D01*
X0141301Y0227898D01*
X0144770Y0227898D01*
X0146473Y0226163D02*
X0148208Y0226163D01*
X0147340Y0226163D02*
X0147340Y0231368D01*
X0148208Y0231368D01*
X0149895Y0229633D02*
X0152497Y0229633D01*
X0153364Y0228766D01*
X0153364Y0227031D01*
X0152497Y0226163D01*
X0149895Y0226163D01*
X0155067Y0226163D02*
X0156802Y0226163D01*
X0155934Y0226163D02*
X0155934Y0229633D01*
X0156802Y0229633D01*
X0158489Y0228766D02*
X0158489Y0226163D01*
X0158489Y0228766D02*
X0159356Y0229633D01*
X0161091Y0229633D01*
X0161958Y0228766D01*
X0163645Y0228766D02*
X0164512Y0229633D01*
X0166247Y0229633D01*
X0167115Y0228766D01*
X0167115Y0227031D01*
X0166247Y0226163D01*
X0164512Y0226163D01*
X0163645Y0227898D02*
X0167115Y0227898D01*
X0168801Y0227898D02*
X0168801Y0231368D01*
X0168801Y0227898D02*
X0170536Y0226163D01*
X0172271Y0227898D01*
X0172271Y0231368D01*
X0179114Y0229633D02*
X0181716Y0229633D01*
X0182584Y0228766D01*
X0182584Y0227031D01*
X0181716Y0226163D01*
X0179114Y0226163D01*
X0178263Y0221233D02*
X0177395Y0220366D01*
X0177395Y0217763D01*
X0174841Y0218631D02*
X0174841Y0222100D01*
X0175709Y0221233D02*
X0173974Y0221233D01*
X0172271Y0221233D02*
X0172271Y0217763D01*
X0173974Y0217763D02*
X0174841Y0218631D01*
X0172271Y0219498D02*
X0170536Y0221233D01*
X0169669Y0221233D01*
X0167974Y0220366D02*
X0167974Y0218631D01*
X0167107Y0217763D01*
X0165372Y0217763D01*
X0164504Y0218631D01*
X0164504Y0220366D01*
X0165372Y0221233D01*
X0167107Y0221233D01*
X0167974Y0220366D01*
X0162818Y0222968D02*
X0161950Y0222968D01*
X0161950Y0217763D01*
X0161083Y0217763D02*
X0162818Y0217763D01*
X0163645Y0214568D02*
X0167115Y0209363D01*
X0168801Y0209363D02*
X0172271Y0209363D01*
X0173958Y0209363D02*
X0177427Y0209363D01*
X0173958Y0212833D01*
X0173958Y0213700D01*
X0174825Y0214568D01*
X0176560Y0214568D01*
X0177427Y0213700D01*
X0179114Y0214568D02*
X0182584Y0209363D01*
X0184271Y0210231D02*
X0184271Y0211966D01*
X0185138Y0212833D01*
X0186005Y0212833D01*
X0187740Y0211966D01*
X0187740Y0214568D01*
X0184271Y0214568D01*
X0183419Y0217763D02*
X0182552Y0218631D01*
X0182552Y0220366D01*
X0183419Y0221233D01*
X0185154Y0221233D01*
X0186021Y0220366D01*
X0186021Y0218631D01*
X0185154Y0217763D01*
X0183419Y0217763D01*
X0180865Y0217763D02*
X0180865Y0221233D01*
X0178263Y0221233D01*
X0184287Y0226163D02*
X0186021Y0226163D01*
X0185154Y0226163D02*
X0185154Y0229633D01*
X0186021Y0229633D01*
X0187716Y0229633D02*
X0188584Y0229633D01*
X0190318Y0227898D01*
X0190318Y0226163D02*
X0190318Y0229633D01*
X0192021Y0229633D02*
X0193756Y0229633D01*
X0192889Y0230500D02*
X0192889Y0227031D01*
X0192021Y0226163D01*
X0195443Y0226163D02*
X0198045Y0226163D01*
X0198912Y0227031D01*
X0198912Y0228766D01*
X0198045Y0229633D01*
X0195443Y0229633D01*
X0200599Y0228766D02*
X0200599Y0227898D01*
X0204069Y0227898D01*
X0204069Y0227031D02*
X0204069Y0228766D01*
X0203201Y0229633D01*
X0201467Y0229633D01*
X0200599Y0228766D01*
X0201467Y0226163D02*
X0203201Y0226163D01*
X0204069Y0227031D01*
X0205772Y0226163D02*
X0207506Y0226163D01*
X0206639Y0226163D02*
X0206639Y0231368D01*
X0207506Y0231368D01*
X0209193Y0231368D02*
X0212663Y0231368D01*
X0212663Y0226163D01*
X0209193Y0226163D01*
X0210928Y0228766D02*
X0212663Y0228766D01*
X0212655Y0222968D02*
X0213522Y0222100D01*
X0213522Y0218631D01*
X0212655Y0217763D01*
X0210920Y0217763D01*
X0210053Y0218631D01*
X0208366Y0218631D02*
X0208366Y0220366D01*
X0207498Y0221233D01*
X0205764Y0221233D01*
X0204896Y0220366D01*
X0204896Y0219498D01*
X0208366Y0219498D01*
X0208366Y0218631D02*
X0207498Y0217763D01*
X0205764Y0217763D01*
X0203209Y0217763D02*
X0201475Y0217763D01*
X0202342Y0217763D02*
X0202342Y0222968D01*
X0203209Y0222968D01*
X0199772Y0222968D02*
X0198904Y0222968D01*
X0198904Y0217763D01*
X0198037Y0217763D02*
X0199772Y0217763D01*
X0199740Y0214568D02*
X0199740Y0209363D01*
X0202342Y0209363D01*
X0203209Y0210231D01*
X0203209Y0211966D01*
X0202342Y0212833D01*
X0199740Y0212833D01*
X0204896Y0211966D02*
X0204896Y0211098D01*
X0208366Y0211098D01*
X0208366Y0210231D02*
X0208366Y0211966D01*
X0207498Y0212833D01*
X0205764Y0212833D01*
X0204896Y0211966D01*
X0205764Y0209363D02*
X0207498Y0209363D01*
X0208366Y0210231D01*
X0210053Y0209363D02*
X0210053Y0211966D01*
X0210920Y0212833D01*
X0213522Y0212833D01*
X0213522Y0209363D01*
X0215209Y0209363D02*
X0217811Y0209363D01*
X0218679Y0210231D01*
X0218679Y0211966D01*
X0217811Y0212833D01*
X0215209Y0212833D01*
X0215209Y0208496D01*
X0216076Y0207629D01*
X0216944Y0207629D01*
X0220381Y0209363D02*
X0222116Y0209363D01*
X0221249Y0209363D02*
X0221249Y0212833D01*
X0222116Y0212833D01*
X0223803Y0212833D02*
X0226405Y0212833D01*
X0227273Y0211966D01*
X0226405Y0211098D01*
X0224670Y0211098D01*
X0223803Y0210231D01*
X0224670Y0209363D01*
X0227273Y0209363D01*
X0228959Y0211098D02*
X0232429Y0211098D01*
X0232429Y0210231D02*
X0232429Y0211966D01*
X0231562Y0212833D01*
X0229827Y0212833D01*
X0228959Y0211966D01*
X0228959Y0211098D01*
X0229827Y0209363D02*
X0231562Y0209363D01*
X0232429Y0210231D01*
X0234116Y0210231D02*
X0234116Y0213700D01*
X0234983Y0214568D01*
X0237585Y0214568D01*
X0237585Y0209363D01*
X0234983Y0209363D01*
X0234116Y0210231D01*
X0231562Y0217763D02*
X0228959Y0217763D01*
X0228959Y0221233D01*
X0227273Y0220366D02*
X0227273Y0218631D01*
X0226405Y0217763D01*
X0224670Y0217763D01*
X0223803Y0219498D02*
X0227273Y0219498D01*
X0227273Y0220366D02*
X0226405Y0221233D01*
X0224670Y0221233D01*
X0223803Y0220366D01*
X0223803Y0219498D01*
X0222116Y0217763D02*
X0220381Y0217763D01*
X0221249Y0217763D02*
X0221249Y0222968D01*
X0222116Y0222968D01*
X0222108Y0226163D02*
X0222976Y0227031D01*
X0222976Y0228766D01*
X0222108Y0229633D01*
X0220373Y0229633D01*
X0219506Y0228766D01*
X0219506Y0227898D01*
X0222976Y0227898D01*
X0222108Y0226163D02*
X0220373Y0226163D01*
X0224670Y0226163D02*
X0227273Y0227898D01*
X0224670Y0229633D01*
X0227273Y0231368D02*
X0227273Y0226163D01*
X0228959Y0226163D02*
X0228959Y0229633D01*
X0228959Y0226163D02*
X0231562Y0226163D01*
X0232429Y0227031D01*
X0232429Y0229633D01*
X0234116Y0230500D02*
X0234983Y0231368D01*
X0237585Y0231368D01*
X0237585Y0226163D01*
X0234983Y0226163D01*
X0234116Y0227031D01*
X0234116Y0230500D01*
X0234116Y0222968D02*
X0237585Y0222968D01*
X0237585Y0217763D01*
X0237585Y0220366D02*
X0235851Y0220366D01*
X0232429Y0221233D02*
X0232429Y0218631D01*
X0231562Y0217763D01*
X0221249Y0215435D02*
X0221249Y0214568D01*
X0212655Y0222968D02*
X0210920Y0222968D01*
X0210053Y0222100D01*
X0192897Y0213700D02*
X0192897Y0210231D01*
X0189427Y0213700D01*
X0189427Y0210231D01*
X0190294Y0209363D01*
X0192029Y0209363D01*
X0192897Y0210231D01*
X0187740Y0210231D02*
X0186873Y0209363D01*
X0185138Y0209363D01*
X0184271Y0210231D01*
X0189427Y0213700D02*
X0190294Y0214568D01*
X0192029Y0214568D01*
X0192897Y0213700D01*
X0190310Y0217763D02*
X0188576Y0217763D01*
X0187708Y0218631D01*
X0190310Y0217763D02*
X0191178Y0218631D01*
X0191178Y0222100D01*
X0190310Y0222968D01*
X0188576Y0222968D01*
X0187708Y0222100D01*
X0185154Y0231368D02*
X0185154Y0232235D01*
X0163645Y0228766D02*
X0163645Y0227898D01*
X0161958Y0226163D02*
X0161958Y0231368D01*
X0155934Y0231368D02*
X0155934Y0232235D01*
X0158513Y0222968D02*
X0158513Y0217763D01*
X0159380Y0217763D02*
X0157645Y0217763D01*
X0155942Y0218631D02*
X0155942Y0220366D01*
X0155075Y0221233D01*
X0153340Y0221233D01*
X0152473Y0220366D01*
X0152473Y0219498D01*
X0155942Y0219498D01*
X0155942Y0218631D02*
X0155075Y0217763D01*
X0153340Y0217763D01*
X0150786Y0217763D02*
X0150786Y0221233D01*
X0149051Y0221233D02*
X0148184Y0221233D01*
X0149051Y0221233D02*
X0150786Y0219498D01*
X0149911Y0214568D02*
X0149911Y0209363D01*
X0151645Y0209363D02*
X0148176Y0209363D01*
X0146489Y0210231D02*
X0146489Y0211098D01*
X0145622Y0211966D01*
X0143887Y0211966D01*
X0143019Y0211098D01*
X0143019Y0210231D01*
X0143887Y0209363D01*
X0145622Y0209363D01*
X0146489Y0210231D01*
X0145622Y0211966D02*
X0146489Y0212833D01*
X0146489Y0213700D01*
X0145622Y0214568D01*
X0143887Y0214568D01*
X0143019Y0213700D01*
X0143019Y0212833D01*
X0143887Y0211966D01*
X0149911Y0214568D02*
X0151645Y0212833D01*
X0153332Y0213700D02*
X0153332Y0210231D01*
X0154200Y0209363D01*
X0155934Y0209363D01*
X0156802Y0210231D01*
X0153332Y0213700D01*
X0154200Y0214568D01*
X0155934Y0214568D01*
X0156802Y0213700D01*
X0156802Y0210231D01*
X0158489Y0209363D02*
X0161958Y0209363D01*
X0158489Y0212833D01*
X0158489Y0213700D01*
X0159356Y0214568D01*
X0161091Y0214568D01*
X0161958Y0213700D01*
X0170536Y0214568D02*
X0170536Y0209363D01*
X0172271Y0212833D02*
X0170536Y0214568D01*
X0159380Y0222968D02*
X0158513Y0222968D01*
X0139614Y0226163D02*
X0137012Y0226163D01*
X0136144Y0227031D01*
X0137012Y0227898D01*
X0138746Y0227898D01*
X0139614Y0228766D01*
X0138746Y0229633D01*
X0136144Y0229633D01*
X0129301Y0228766D02*
X0125831Y0228766D01*
X0118988Y0229633D02*
X0118121Y0228766D01*
X0116386Y0228766D01*
X0115519Y0227898D01*
X0115519Y0227031D01*
X0116386Y0226163D01*
X0118121Y0226163D01*
X0118988Y0227031D01*
X0118988Y0229633D02*
X0118988Y0230500D01*
X0118121Y0231368D01*
X0116386Y0231368D01*
X0115519Y0230500D01*
X0113832Y0231368D02*
X0113832Y0226163D01*
X0110362Y0226163D01*
X0108675Y0226163D02*
X0108675Y0231368D01*
X0106941Y0229633D01*
X0105206Y0231368D01*
X0105206Y0226163D01*
X0110362Y0231368D02*
X0113832Y0231368D01*
X0113832Y0228766D02*
X0112097Y0228766D01*
X0127550Y0212833D02*
X0127550Y0208496D01*
X0128418Y0207629D01*
X0129285Y0207629D01*
X0130152Y0209363D02*
X0127550Y0209363D01*
X0130152Y0209363D02*
X0131020Y0210231D01*
X0131020Y0212833D01*
X0132707Y0211966D02*
X0133574Y0212833D01*
X0136176Y0212833D01*
X0136176Y0214568D02*
X0136176Y0209363D01*
X0133574Y0209363D01*
X0132707Y0210231D01*
X0132707Y0211966D01*
X0069070Y0276017D02*
X0067535Y0276017D01*
X0066768Y0276784D01*
X0066768Y0277552D01*
X0067535Y0278319D01*
X0069070Y0278319D01*
X0069837Y0279086D01*
X0069837Y0279854D01*
X0069070Y0280621D01*
X0067535Y0280621D01*
X0066768Y0279854D01*
X0065233Y0279854D02*
X0065233Y0276784D01*
X0064466Y0276017D01*
X0062932Y0276017D01*
X0062164Y0276784D01*
X0062164Y0279854D02*
X0062932Y0280621D01*
X0064466Y0280621D01*
X0065233Y0279854D01*
X0069070Y0276017D02*
X0069837Y0276784D01*
X0056026Y0276784D02*
X0055258Y0276017D01*
X0053724Y0276017D01*
X0052956Y0276784D01*
X0052956Y0279854D01*
X0053724Y0280621D01*
X0055258Y0280621D01*
X0056026Y0279854D01*
X0056026Y0276784D01*
X0051422Y0276784D02*
X0051422Y0280621D01*
X0048352Y0280621D02*
X0048352Y0276784D01*
X0049120Y0276017D01*
X0050654Y0276017D01*
X0051422Y0276784D01*
X0046818Y0280621D02*
X0043748Y0280621D01*
X0045283Y0280621D02*
X0045283Y0276017D01*
X0037610Y0276784D02*
X0036843Y0276017D01*
X0035308Y0276017D01*
X0034541Y0276784D01*
X0034541Y0278319D01*
X0036075Y0278319D01*
X0034541Y0279854D02*
X0035308Y0280621D01*
X0036843Y0280621D01*
X0037610Y0279854D01*
X0037610Y0276784D01*
X0033006Y0276017D02*
X0033006Y0280621D01*
X0029937Y0276017D01*
X0029937Y0280621D01*
X0028402Y0280621D02*
X0028402Y0276017D01*
X0026100Y0276017D01*
X0025333Y0276784D01*
X0025333Y0279854D01*
X0026100Y0280621D01*
X0028402Y0280621D01*
X0325694Y0277134D02*
X0325694Y0274065D01*
X0326461Y0272530D02*
X0329531Y0272530D01*
X0330298Y0271763D01*
X0330298Y0270228D01*
X0329531Y0269461D01*
X0326461Y0269461D02*
X0325694Y0270228D01*
X0325694Y0271763D01*
X0326461Y0272530D01*
X0327996Y0275600D02*
X0327996Y0277134D01*
X0330298Y0277134D02*
X0325694Y0277134D01*
X0325694Y0263322D02*
X0325694Y0261788D01*
X0325694Y0262555D02*
X0330298Y0262555D01*
X0330298Y0263322D02*
X0330298Y0261788D01*
X0330298Y0260253D02*
X0325694Y0260253D01*
X0330298Y0257184D01*
X0325694Y0257184D01*
X0326461Y0251045D02*
X0329531Y0251045D01*
X0330298Y0250278D01*
X0330298Y0248743D01*
X0329531Y0247976D01*
X0327996Y0247976D01*
X0327996Y0249511D01*
X0326461Y0251045D02*
X0325694Y0250278D01*
X0325694Y0248743D01*
X0326461Y0247976D01*
X0325694Y0246441D02*
X0330298Y0243372D01*
X0325694Y0243372D01*
X0325694Y0241837D02*
X0325694Y0239536D01*
X0326461Y0238768D01*
X0329531Y0238768D01*
X0330298Y0239536D01*
X0330298Y0241837D01*
X0325694Y0241837D01*
X0325694Y0246441D02*
X0330298Y0246441D01*
D11*
X0031856Y0043526D02*
X0019856Y0043526D01*
X0019856Y0049526D01*
X0031856Y0049526D01*
X0031856Y0043526D01*
X0041510Y0043526D02*
X0053510Y0043526D01*
X0053510Y0049526D01*
X0041510Y0049526D01*
X0041510Y0043526D01*
X0041510Y0055337D02*
X0053510Y0055337D01*
X0053510Y0061337D01*
X0041510Y0061337D01*
X0041510Y0055337D01*
X0031856Y0055337D02*
X0031856Y0061337D01*
X0019856Y0061337D01*
X0019856Y0055337D01*
X0031856Y0055337D01*
X0085801Y0054352D02*
X0097801Y0054352D01*
X0097801Y0060352D01*
X0085801Y0060352D01*
X0085801Y0054352D01*
X0085801Y0050510D02*
X0085801Y0044510D01*
X0097801Y0044510D01*
X0097801Y0050510D01*
X0085801Y0050510D01*
X0085801Y0040667D02*
X0085801Y0034667D01*
X0097801Y0034667D01*
X0097801Y0040667D01*
X0085801Y0040667D01*
X0085801Y0064195D02*
X0097801Y0064195D01*
X0097801Y0070195D01*
X0085801Y0070195D01*
X0085801Y0064195D01*
X0147856Y0038746D02*
X0147856Y0026746D01*
X0153856Y0026746D01*
X0153856Y0038746D01*
X0147856Y0038746D01*
X0231518Y0016108D02*
X0231518Y0004108D01*
X0237518Y0004108D01*
X0237518Y0016108D01*
X0231518Y0016108D01*
X0240376Y0016108D02*
X0246376Y0016108D01*
X0246376Y0004108D01*
X0240376Y0004108D01*
X0240376Y0016108D01*
X0319620Y0039746D02*
X0319620Y0045746D01*
X0331620Y0045746D01*
X0331620Y0039746D01*
X0319620Y0039746D01*
X0193274Y0282699D02*
X0181274Y0282699D01*
X0181274Y0288699D01*
X0193274Y0288699D01*
X0193274Y0282699D01*
X0161778Y0282699D02*
X0161778Y0288699D01*
X0149778Y0288699D01*
X0149778Y0282699D01*
X0161778Y0282699D01*
X0130281Y0282699D02*
X0130281Y0288699D01*
X0118281Y0288699D01*
X0118281Y0282699D01*
X0130281Y0282699D01*
X0130281Y0291557D02*
X0130281Y0297557D01*
X0118281Y0297557D01*
X0118281Y0291557D01*
X0130281Y0291557D01*
D12*
X0129793Y0275266D02*
X0129793Y0272116D01*
X0127431Y0272116D01*
X0121132Y0272116D02*
X0118770Y0272116D01*
X0118770Y0275266D01*
X0150266Y0275266D02*
X0150266Y0272116D01*
X0152628Y0272116D01*
X0158927Y0272116D02*
X0161289Y0272116D01*
X0161289Y0275266D01*
X0181762Y0275266D02*
X0181762Y0272116D01*
X0184124Y0272116D01*
X0190423Y0272116D02*
X0192785Y0272116D01*
X0192785Y0275266D01*
X0325974Y0059360D02*
X0329124Y0059360D01*
X0329124Y0056998D01*
X0329124Y0050699D02*
X0329124Y0048337D01*
X0325974Y0048337D01*
X0168179Y0034518D02*
X0168179Y0031368D01*
X0168179Y0034518D02*
X0165817Y0034518D01*
X0159518Y0034518D02*
X0157156Y0034518D01*
X0157156Y0031368D01*
D13*
X0160143Y0032062D02*
X0160143Y0033063D01*
X0160393Y0033313D01*
X0160894Y0033313D01*
X0161144Y0033063D01*
X0161144Y0032813D01*
X0160894Y0032562D01*
X0160143Y0032562D01*
X0160143Y0032062D02*
X0160393Y0031812D01*
X0160894Y0031812D01*
X0161144Y0032062D01*
X0161616Y0031812D02*
X0162617Y0031812D01*
X0162117Y0031812D02*
X0162117Y0033313D01*
X0162617Y0032813D01*
X0163090Y0033063D02*
X0163340Y0033313D01*
X0163840Y0033313D01*
X0164091Y0033063D01*
X0164091Y0032813D01*
X0163840Y0032562D01*
X0163340Y0032562D01*
X0163090Y0032312D01*
X0163090Y0032062D01*
X0163340Y0031812D01*
X0163840Y0031812D01*
X0164091Y0032062D01*
X0164563Y0032062D02*
X0164563Y0033313D01*
X0165564Y0033313D02*
X0165564Y0032062D01*
X0165314Y0031812D01*
X0164813Y0031812D01*
X0164563Y0032062D01*
X0163590Y0031562D02*
X0163590Y0033563D01*
X0326168Y0052926D02*
X0328170Y0052926D01*
X0327919Y0053176D02*
X0327669Y0053426D01*
X0327919Y0053176D02*
X0327919Y0052675D01*
X0327669Y0052425D01*
X0327419Y0052425D01*
X0327169Y0052675D01*
X0327169Y0053176D01*
X0326919Y0053426D01*
X0326668Y0053426D01*
X0326418Y0053176D01*
X0326418Y0052675D01*
X0326668Y0052425D01*
X0326668Y0051953D02*
X0327919Y0051953D01*
X0327919Y0050952D02*
X0326668Y0050952D01*
X0326418Y0051202D01*
X0326418Y0051703D01*
X0326668Y0051953D01*
X0326418Y0053898D02*
X0326418Y0054899D01*
X0326418Y0054399D02*
X0327919Y0054399D01*
X0327419Y0053898D01*
X0327169Y0055372D02*
X0327169Y0056373D01*
X0327919Y0056122D02*
X0327169Y0055372D01*
X0327919Y0056122D02*
X0326418Y0056122D01*
X0189183Y0273322D02*
X0188683Y0273322D01*
X0188433Y0273572D01*
X0188433Y0274823D01*
X0187960Y0274573D02*
X0187710Y0274823D01*
X0187210Y0274823D01*
X0186959Y0274573D01*
X0186487Y0274823D02*
X0186487Y0274073D01*
X0185987Y0274323D01*
X0185736Y0274323D01*
X0185486Y0274073D01*
X0185486Y0273572D01*
X0185736Y0273322D01*
X0186237Y0273322D01*
X0186487Y0273572D01*
X0186959Y0273572D02*
X0186959Y0273822D01*
X0187210Y0274073D01*
X0187710Y0274073D01*
X0187960Y0274323D01*
X0187960Y0274573D01*
X0187460Y0275074D02*
X0187460Y0273072D01*
X0187710Y0273322D02*
X0187210Y0273322D01*
X0186959Y0273572D01*
X0187710Y0273322D02*
X0187960Y0273572D01*
X0189183Y0273322D02*
X0189434Y0273572D01*
X0189434Y0274823D01*
X0186487Y0274823D02*
X0185486Y0274823D01*
X0171965Y0283780D02*
X0171965Y0285282D01*
X0171214Y0285282D01*
X0170964Y0285031D01*
X0170964Y0284031D01*
X0171214Y0283780D01*
X0171965Y0283780D01*
X0170491Y0283780D02*
X0169490Y0284781D01*
X0169490Y0285031D01*
X0169741Y0285282D01*
X0170241Y0285282D01*
X0170491Y0285031D01*
X0170491Y0283780D02*
X0169490Y0283780D01*
X0157937Y0274823D02*
X0157937Y0273572D01*
X0157687Y0273322D01*
X0157187Y0273322D01*
X0156937Y0273572D01*
X0156937Y0274823D01*
X0156464Y0274573D02*
X0156214Y0274823D01*
X0155714Y0274823D01*
X0155463Y0274573D01*
X0155714Y0274073D02*
X0156214Y0274073D01*
X0156464Y0274323D01*
X0156464Y0274573D01*
X0155964Y0275074D02*
X0155964Y0273072D01*
X0156214Y0273322D02*
X0155714Y0273322D01*
X0155463Y0273572D01*
X0155463Y0273822D01*
X0155714Y0274073D01*
X0154991Y0274073D02*
X0154240Y0274073D01*
X0153990Y0273822D01*
X0153990Y0273572D01*
X0154240Y0273322D01*
X0154741Y0273322D01*
X0154991Y0273572D01*
X0154991Y0274073D01*
X0154491Y0274573D01*
X0153990Y0274823D01*
X0156214Y0273322D02*
X0156464Y0273572D01*
X0140469Y0283780D02*
X0139718Y0283780D01*
X0139468Y0284031D01*
X0139468Y0285031D01*
X0139718Y0285282D01*
X0140469Y0285282D01*
X0140469Y0283780D01*
X0138995Y0284031D02*
X0138745Y0283780D01*
X0138245Y0283780D01*
X0137994Y0284031D01*
X0137994Y0284281D01*
X0138245Y0284531D01*
X0138495Y0284531D01*
X0138245Y0284531D02*
X0137994Y0284781D01*
X0137994Y0285031D01*
X0138245Y0285282D01*
X0138745Y0285282D01*
X0138995Y0285031D01*
X0126441Y0274823D02*
X0126441Y0273572D01*
X0126191Y0273322D01*
X0125691Y0273322D01*
X0125441Y0273572D01*
X0125441Y0274823D01*
X0124968Y0274573D02*
X0124718Y0274823D01*
X0124217Y0274823D01*
X0123967Y0274573D01*
X0123495Y0274823D02*
X0122494Y0274823D01*
X0122494Y0274573D01*
X0123495Y0273572D01*
X0123495Y0273322D01*
X0123967Y0273572D02*
X0123967Y0273822D01*
X0124217Y0274073D01*
X0124718Y0274073D01*
X0124968Y0274323D01*
X0124968Y0274573D01*
X0124468Y0275074D02*
X0124468Y0273072D01*
X0124718Y0273322D02*
X0124217Y0273322D01*
X0123967Y0273572D01*
X0124718Y0273322D02*
X0124968Y0273572D01*
X0200987Y0283780D02*
X0201987Y0283780D01*
X0201487Y0283780D02*
X0201487Y0285282D01*
X0201987Y0284781D01*
X0202460Y0285031D02*
X0202710Y0285282D01*
X0203461Y0285282D01*
X0203461Y0283780D01*
X0202710Y0283780D01*
X0202460Y0284031D01*
X0202460Y0285031D01*
D14*
X0204059Y0286330D02*
X0208228Y0286330D01*
X0208228Y0281162D01*
X0203756Y0281130D02*
X0200374Y0281130D01*
X0195847Y0281162D02*
X0195847Y0286330D01*
X0199819Y0286330D01*
X0176732Y0286330D02*
X0176732Y0281162D01*
X0172259Y0281130D02*
X0168878Y0281130D01*
X0164351Y0281162D02*
X0164351Y0286330D01*
X0168322Y0286330D01*
X0172563Y0286330D02*
X0176732Y0286330D01*
X0145236Y0286330D02*
X0145236Y0281162D01*
X0140763Y0281130D02*
X0137382Y0281130D01*
X0132855Y0281162D02*
X0132855Y0286330D01*
X0136826Y0286330D01*
X0141067Y0286330D02*
X0145236Y0286330D01*
M02*
