G75*
%MOIN*%
%OFA0B0*%
%FSLAX25Y25*%
%IPPOS*%
%LPD*%
%AMOC8*
5,1,8,0,0,1.08239X$1,22.5*
%
%ADD10R,0.40000X0.20000*%
%ADD11C,0.10000*%
%ADD12C,0.06000*%
%ADD13R,0.04331X0.03937*%
%ADD14R,0.03937X0.04331*%
%ADD15C,0.09449*%
%ADD16R,0.03150X0.03543*%
%ADD17R,0.20000X0.40000*%
%ADD18R,0.03543X0.03150*%
%ADD19OC8,0.10335*%
%ADD20C,0.05906*%
%ADD21C,0.04724*%
%ADD22C,0.07600*%
%ADD23R,0.02362X0.02756*%
%ADD24C,0.07400*%
%ADD25R,0.06500X0.06500*%
%ADD26C,0.06500*%
%ADD27C,0.10000*%
%ADD28C,0.00984*%
%ADD29C,0.05000*%
%ADD30C,0.02000*%
%ADD31C,0.01000*%
%ADD32C,0.00600*%
%ADD33C,0.02778*%
D10*
X0046526Y0293809D03*
D11*
X0069163Y0125266D03*
X0098691Y0125266D03*
X0261093Y0112470D03*
X0261093Y0141998D03*
D12*
X0266841Y0272620D02*
X0266841Y0278620D01*
X0276841Y0278620D02*
X0276841Y0272620D01*
X0286841Y0272620D02*
X0286841Y0278620D01*
X0103770Y0291951D02*
X0103770Y0297951D01*
X0093770Y0297951D02*
X0093770Y0291951D01*
X0083770Y0291951D02*
X0083770Y0297951D01*
D13*
X0120935Y0294557D03*
X0127628Y0294557D03*
X0127628Y0285699D03*
X0120935Y0285699D03*
X0152431Y0285699D03*
X0159124Y0285699D03*
X0183927Y0285699D03*
X0190620Y0285699D03*
X0095148Y0067195D03*
X0088455Y0067195D03*
X0088455Y0057352D03*
X0095148Y0057352D03*
X0095148Y0047510D03*
X0088455Y0047510D03*
X0088455Y0037667D03*
X0095148Y0037667D03*
X0050856Y0046526D03*
X0044163Y0046526D03*
X0044163Y0058337D03*
X0050856Y0058337D03*
X0029203Y0058337D03*
X0022510Y0058337D03*
X0022510Y0046526D03*
X0029203Y0046526D03*
X0322274Y0042746D03*
X0328967Y0042746D03*
D14*
X0243376Y0013455D03*
X0243376Y0006762D03*
X0234518Y0006762D03*
X0234518Y0013455D03*
X0150856Y0029400D03*
X0150856Y0036093D03*
D15*
X0044557Y0036683D03*
X0022904Y0036683D03*
X0022904Y0068179D03*
X0044557Y0068179D03*
X0139045Y0272904D03*
X0139045Y0294557D03*
X0170541Y0294557D03*
X0170541Y0272904D03*
X0202037Y0272904D03*
X0202037Y0294557D03*
X0233533Y0294557D03*
X0233533Y0272904D03*
D16*
X0191014Y0278809D03*
X0183533Y0278809D03*
X0187274Y0270541D03*
X0159518Y0278809D03*
X0152037Y0278809D03*
X0155778Y0270541D03*
X0128022Y0278809D03*
X0120541Y0278809D03*
X0124281Y0270541D03*
X0162667Y0036093D03*
X0158927Y0027825D03*
X0166407Y0027825D03*
D17*
X0343770Y0260108D03*
D18*
X0322431Y0057589D03*
X0322431Y0050108D03*
X0330699Y0053848D03*
D19*
X0336880Y0163770D03*
X0350266Y0163770D03*
X0350266Y0216801D03*
X0336880Y0216801D03*
X0026447Y0198219D03*
X0013061Y0198219D03*
X0013061Y0251250D03*
X0026447Y0251250D03*
D20*
X0150856Y0047707D03*
X0150856Y0017785D03*
D21*
X0102628Y0037667D03*
X0102628Y0047667D03*
X0102628Y0057667D03*
X0102628Y0067667D03*
X0072628Y0067667D03*
X0072628Y0057667D03*
X0072628Y0047667D03*
X0072628Y0037667D03*
D22*
X0203967Y0042431D03*
X0203967Y0032431D03*
X0213967Y0032431D03*
X0223967Y0032431D03*
X0233967Y0032431D03*
X0243967Y0032431D03*
X0253967Y0032431D03*
X0263967Y0032431D03*
X0273967Y0032431D03*
X0283967Y0032431D03*
X0293967Y0032431D03*
X0303967Y0032431D03*
X0303967Y0022431D03*
X0313967Y0022431D03*
X0323967Y0022431D03*
X0333967Y0022431D03*
X0323967Y0032431D03*
X0293967Y0022431D03*
X0283967Y0022431D03*
X0273967Y0022431D03*
X0263967Y0022431D03*
X0253967Y0022431D03*
X0243967Y0022431D03*
X0233967Y0022431D03*
X0223967Y0022431D03*
X0213967Y0022431D03*
X0203967Y0022431D03*
X0203967Y0052431D03*
X0203967Y0062431D03*
X0203967Y0072431D03*
X0213967Y0072431D03*
X0223967Y0072431D03*
X0233967Y0072431D03*
X0243967Y0072431D03*
X0253967Y0072431D03*
X0263967Y0072431D03*
X0273967Y0072431D03*
X0273967Y0082431D03*
X0263967Y0082431D03*
X0253967Y0082431D03*
X0243967Y0082431D03*
X0233967Y0082431D03*
X0223967Y0082431D03*
X0213967Y0082431D03*
X0203967Y0082431D03*
X0283967Y0082431D03*
X0293967Y0082431D03*
X0303967Y0082431D03*
X0313967Y0082431D03*
X0323967Y0082431D03*
X0333967Y0082431D03*
D23*
X0205778Y0279793D03*
X0202037Y0287667D03*
X0198297Y0279793D03*
X0174281Y0279793D03*
X0166801Y0279793D03*
X0170541Y0287667D03*
X0142785Y0279793D03*
X0135305Y0279793D03*
X0139045Y0287667D03*
D24*
X0089006Y0258140D03*
X0079006Y0258140D03*
X0255679Y0257156D03*
X0265679Y0257156D03*
X0257785Y0052931D03*
X0247785Y0051931D03*
X0237785Y0052931D03*
X0227785Y0051931D03*
X0217785Y0052931D03*
X0267785Y0051931D03*
X0277785Y0052931D03*
X0287785Y0051931D03*
X0297785Y0052931D03*
X0307785Y0051931D03*
D25*
X0128297Y0250266D03*
D26*
X0118297Y0250266D03*
D27*
X0119360Y0239439D02*
X0099675Y0239439D01*
X0083927Y0239439D01*
X0068179Y0239439D01*
X0063258Y0244360D01*
X0064242Y0245344D01*
X0064242Y0263061D01*
X0046526Y0261093D02*
X0046526Y0293809D01*
X0046526Y0261093D02*
X0063258Y0244360D01*
X0119360Y0239439D02*
X0265030Y0239439D01*
X0276841Y0239439D01*
X0328022Y0239439D01*
X0340817Y0252234D01*
X0343770Y0260108D01*
X0343770Y0280778D01*
X0335896Y0288652D01*
X0343770Y0260108D02*
X0343770Y0253219D01*
X0280778Y0190226D01*
X0280778Y0176447D01*
X0280778Y0132156D01*
X0261093Y0112470D01*
X0280778Y0176447D02*
X0158730Y0176447D01*
X0158730Y0103612D01*
X0158730Y0095738D01*
X0131597Y0068605D01*
X0135108Y0103612D02*
X0158730Y0103612D01*
D28*
X0158730Y0168573D02*
X0320148Y0168573D01*
X0328022Y0176447D01*
X0328022Y0221722D01*
X0333927Y0227628D01*
X0347707Y0227628D01*
X0347707Y0247313D01*
X0158730Y0247313D01*
X0154793Y0243376D01*
X0154793Y0172510D01*
X0158730Y0168573D01*
X0158001Y0169303D02*
X0320877Y0169303D01*
X0321860Y0170285D02*
X0157018Y0170285D01*
X0156035Y0171268D02*
X0322843Y0171268D01*
X0323826Y0172251D02*
X0155052Y0172251D01*
X0154793Y0173234D02*
X0324808Y0173234D01*
X0325791Y0174216D02*
X0154793Y0174216D01*
X0154793Y0175199D02*
X0326774Y0175199D01*
X0327757Y0176182D02*
X0154793Y0176182D01*
X0154793Y0177165D02*
X0328022Y0177165D01*
X0328022Y0178147D02*
X0154793Y0178147D01*
X0154793Y0179130D02*
X0328022Y0179130D01*
X0328022Y0180113D02*
X0154793Y0180113D01*
X0154793Y0181096D02*
X0328022Y0181096D01*
X0328022Y0182078D02*
X0154793Y0182078D01*
X0154793Y0183061D02*
X0328022Y0183061D01*
X0328022Y0184044D02*
X0154793Y0184044D01*
X0154793Y0185027D02*
X0328022Y0185027D01*
X0328022Y0186009D02*
X0154793Y0186009D01*
X0154793Y0186992D02*
X0328022Y0186992D01*
X0328022Y0187975D02*
X0154793Y0187975D01*
X0154793Y0188958D02*
X0328022Y0188958D01*
X0328022Y0189941D02*
X0154793Y0189941D01*
X0154793Y0190923D02*
X0328022Y0190923D01*
X0328022Y0191906D02*
X0154793Y0191906D01*
X0154793Y0192889D02*
X0328022Y0192889D01*
X0328022Y0193872D02*
X0154793Y0193872D01*
X0154793Y0194854D02*
X0328022Y0194854D01*
X0328022Y0195837D02*
X0154793Y0195837D01*
X0154793Y0196820D02*
X0328022Y0196820D01*
X0328022Y0197803D02*
X0154793Y0197803D01*
X0154793Y0198785D02*
X0328022Y0198785D01*
X0328022Y0199768D02*
X0154793Y0199768D01*
X0154793Y0200751D02*
X0328022Y0200751D01*
X0328022Y0201734D02*
X0154793Y0201734D01*
X0154793Y0202716D02*
X0328022Y0202716D01*
X0328022Y0203699D02*
X0154793Y0203699D01*
X0154793Y0204682D02*
X0328022Y0204682D01*
X0328022Y0205665D02*
X0154793Y0205665D01*
X0154793Y0206648D02*
X0328022Y0206648D01*
X0328022Y0207630D02*
X0154793Y0207630D01*
X0154793Y0208613D02*
X0328022Y0208613D01*
X0328022Y0209596D02*
X0154793Y0209596D01*
X0154793Y0210579D02*
X0328022Y0210579D01*
X0328022Y0211561D02*
X0154793Y0211561D01*
X0154793Y0212544D02*
X0328022Y0212544D01*
X0328022Y0213527D02*
X0154793Y0213527D01*
X0154793Y0214510D02*
X0328022Y0214510D01*
X0328022Y0215492D02*
X0154793Y0215492D01*
X0154793Y0216475D02*
X0328022Y0216475D01*
X0328022Y0217458D02*
X0154793Y0217458D01*
X0154793Y0218441D02*
X0328022Y0218441D01*
X0328022Y0219423D02*
X0154793Y0219423D01*
X0154793Y0220406D02*
X0328022Y0220406D01*
X0328022Y0221389D02*
X0154793Y0221389D01*
X0154793Y0222372D02*
X0328671Y0222372D01*
X0329654Y0223355D02*
X0154793Y0223355D01*
X0154793Y0224337D02*
X0330636Y0224337D01*
X0331619Y0225320D02*
X0154793Y0225320D01*
X0154793Y0226303D02*
X0332602Y0226303D01*
X0333585Y0227286D02*
X0154793Y0227286D01*
X0154793Y0228268D02*
X0347707Y0228268D01*
X0347707Y0229251D02*
X0154793Y0229251D01*
X0154793Y0230234D02*
X0347707Y0230234D01*
X0347707Y0231217D02*
X0154793Y0231217D01*
X0154793Y0232199D02*
X0347707Y0232199D01*
X0347707Y0233182D02*
X0154793Y0233182D01*
X0154793Y0234165D02*
X0347707Y0234165D01*
X0347707Y0235148D02*
X0154793Y0235148D01*
X0154793Y0236130D02*
X0347707Y0236130D01*
X0347707Y0237113D02*
X0154793Y0237113D01*
X0154793Y0238096D02*
X0347707Y0238096D01*
X0347707Y0239079D02*
X0154793Y0239079D01*
X0154793Y0240061D02*
X0347707Y0240061D01*
X0347707Y0241044D02*
X0154793Y0241044D01*
X0154793Y0242027D02*
X0347707Y0242027D01*
X0347707Y0243010D02*
X0154793Y0243010D01*
X0155410Y0243993D02*
X0347707Y0243993D01*
X0347707Y0244975D02*
X0156393Y0244975D01*
X0157375Y0245958D02*
X0347707Y0245958D01*
X0347707Y0246941D02*
X0158358Y0246941D01*
D29*
X0119360Y0239439D02*
X0118297Y0240502D01*
X0118297Y0250266D01*
X0099675Y0239439D02*
X0099675Y0276841D01*
X0093770Y0282745D01*
X0093770Y0294951D01*
X0085699Y0241211D02*
X0083927Y0239439D01*
D30*
X0021295Y0006743D02*
X0019739Y0005187D01*
X0157939Y0005187D01*
X0151694Y0011433D01*
X0149593Y0011433D01*
X0147258Y0012400D01*
X0145772Y0013885D01*
X0091734Y0013885D01*
X0090301Y0014479D01*
X0072875Y0031905D01*
X0071482Y0031905D01*
X0069364Y0032782D01*
X0067743Y0034403D01*
X0066866Y0036521D01*
X0066866Y0038673D01*
X0063590Y0038673D01*
X0050590Y0025672D01*
X0049230Y0025109D01*
X0039884Y0025109D01*
X0038524Y0025672D01*
X0037483Y0026713D01*
X0030472Y0033725D01*
X0029791Y0032081D01*
X0027506Y0029796D01*
X0024520Y0028559D01*
X0021287Y0028559D01*
X0018301Y0029796D01*
X0016016Y0032081D01*
X0014779Y0035067D01*
X0014779Y0038299D01*
X0016016Y0041285D01*
X0017433Y0042702D01*
X0016944Y0043881D01*
X0016944Y0049170D01*
X0017462Y0050420D01*
X0018419Y0051376D01*
X0019668Y0051894D01*
X0025352Y0051894D01*
X0025856Y0051685D01*
X0026361Y0051894D01*
X0030413Y0051894D01*
X0029339Y0052968D01*
X0026361Y0052968D01*
X0025856Y0053177D01*
X0025352Y0052968D01*
X0019668Y0052968D01*
X0018419Y0053486D01*
X0017462Y0054442D01*
X0016944Y0055692D01*
X0016944Y0060981D01*
X0017433Y0062160D01*
X0016016Y0063577D01*
X0014779Y0066563D01*
X0014779Y0069795D01*
X0016016Y0072781D01*
X0018301Y0075067D01*
X0021287Y0076304D01*
X0024520Y0076304D01*
X0027506Y0075067D01*
X0029791Y0072781D01*
X0031028Y0069795D01*
X0031028Y0066563D01*
X0029844Y0063705D01*
X0032044Y0063705D01*
X0033294Y0063187D01*
X0034250Y0062231D01*
X0034768Y0060981D01*
X0034768Y0058004D01*
X0036641Y0056131D01*
X0038598Y0056131D01*
X0038598Y0060981D01*
X0039086Y0062160D01*
X0037670Y0063577D01*
X0036433Y0066563D01*
X0036433Y0069795D01*
X0037670Y0072781D01*
X0039955Y0075067D01*
X0042941Y0076304D01*
X0046173Y0076304D01*
X0049159Y0075067D01*
X0051445Y0072781D01*
X0052681Y0069795D01*
X0052681Y0066563D01*
X0051498Y0063705D01*
X0053698Y0063705D01*
X0054948Y0063187D01*
X0055904Y0062231D01*
X0055985Y0062037D01*
X0064678Y0062037D01*
X0067011Y0064370D01*
X0067538Y0064897D01*
X0066866Y0066521D01*
X0066866Y0068813D01*
X0067743Y0070931D01*
X0069364Y0072552D01*
X0071482Y0073430D01*
X0073774Y0073430D01*
X0075892Y0072552D01*
X0077513Y0070931D01*
X0078377Y0068846D01*
X0081775Y0072244D01*
X0082816Y0073284D01*
X0084175Y0073848D01*
X0092537Y0073848D01*
X0093897Y0073284D01*
X0094618Y0072563D01*
X0097989Y0072563D01*
X0098969Y0072157D01*
X0099364Y0072552D01*
X0101482Y0073430D01*
X0103774Y0073430D01*
X0105892Y0072552D01*
X0107077Y0071367D01*
X0120065Y0071367D01*
X0121425Y0070804D01*
X0125824Y0066405D01*
X0178930Y0066405D01*
X0178759Y0066476D01*
X0177412Y0067823D01*
X0176751Y0069420D01*
X0175675Y0069866D01*
X0174328Y0071213D01*
X0173599Y0072973D01*
X0173599Y0074878D01*
X0174328Y0076638D01*
X0175675Y0077986D01*
X0177435Y0078715D01*
X0177944Y0078715D01*
X0178722Y0079492D01*
X0180081Y0080056D01*
X0183905Y0080056D01*
X0197409Y0093560D01*
X0198450Y0094601D01*
X0199810Y0095164D01*
X0315669Y0095164D01*
X0317029Y0094601D01*
X0318070Y0093560D01*
X0322156Y0089474D01*
X0322534Y0089631D01*
X0325399Y0089631D01*
X0328045Y0088535D01*
X0330070Y0086510D01*
X0331167Y0083863D01*
X0331167Y0080999D01*
X0331097Y0080831D01*
X0334999Y0080831D01*
X0336359Y0081394D01*
X0338265Y0081394D01*
X0340025Y0080665D01*
X0341372Y0079318D01*
X0342101Y0077558D01*
X0342101Y0075653D01*
X0341372Y0073893D01*
X0340025Y0072545D01*
X0338265Y0071816D01*
X0336359Y0071816D01*
X0334599Y0072545D01*
X0333714Y0073431D01*
X0292456Y0073431D01*
X0292456Y0073132D01*
X0291727Y0071372D01*
X0290380Y0070025D01*
X0288620Y0069296D01*
X0288395Y0069296D01*
X0288115Y0069016D01*
X0282999Y0063899D01*
X0281958Y0062858D01*
X0280598Y0062295D01*
X0242259Y0062295D01*
X0242259Y0061641D01*
X0241530Y0059881D01*
X0240953Y0059304D01*
X0241807Y0058950D01*
X0243285Y0057472D01*
X0243764Y0057950D01*
X0246373Y0059031D01*
X0249198Y0059031D01*
X0251807Y0057950D01*
X0252285Y0057472D01*
X0253764Y0058950D01*
X0256373Y0060031D01*
X0259198Y0060031D01*
X0261807Y0058950D01*
X0263285Y0057472D01*
X0263764Y0057950D01*
X0266373Y0059031D01*
X0269198Y0059031D01*
X0271807Y0057950D01*
X0272285Y0057472D01*
X0273764Y0058950D01*
X0276373Y0060031D01*
X0279198Y0060031D01*
X0281807Y0058950D01*
X0283285Y0057472D01*
X0283764Y0057950D01*
X0286373Y0059031D01*
X0289198Y0059031D01*
X0291807Y0057950D01*
X0292285Y0057472D01*
X0293764Y0058950D01*
X0296373Y0060031D01*
X0299198Y0060031D01*
X0301807Y0058950D01*
X0303285Y0057472D01*
X0303764Y0057950D01*
X0306373Y0059031D01*
X0309198Y0059031D01*
X0311807Y0057950D01*
X0313805Y0055953D01*
X0314885Y0053343D01*
X0314885Y0050519D01*
X0313805Y0047909D01*
X0311807Y0045912D01*
X0309198Y0044831D01*
X0306373Y0044831D01*
X0303764Y0045912D01*
X0302285Y0047390D01*
X0301807Y0046912D01*
X0299198Y0045831D01*
X0296373Y0045831D01*
X0293764Y0046912D01*
X0293285Y0047390D01*
X0291807Y0045912D01*
X0289583Y0044991D01*
X0289095Y0043813D01*
X0287748Y0042466D01*
X0285988Y0041737D01*
X0284409Y0041737D01*
X0283504Y0040831D01*
X0296649Y0040831D01*
X0296814Y0040763D01*
X0298526Y0041472D01*
X0300431Y0041472D01*
X0302191Y0040743D01*
X0303303Y0039631D01*
X0305399Y0039631D01*
X0305777Y0039474D01*
X0312186Y0045883D01*
X0313546Y0046446D01*
X0317145Y0046446D01*
X0317226Y0046641D01*
X0317606Y0047021D01*
X0317259Y0047857D01*
X0317259Y0052359D01*
X0317777Y0053609D01*
X0318734Y0054565D01*
X0319983Y0055083D01*
X0324879Y0055083D01*
X0325527Y0054815D01*
X0325527Y0056100D01*
X0326045Y0057349D01*
X0327001Y0058306D01*
X0328251Y0058823D01*
X0333147Y0058823D01*
X0334396Y0058306D01*
X0335353Y0057349D01*
X0335870Y0056100D01*
X0335870Y0051597D01*
X0335353Y0050348D01*
X0334396Y0049391D01*
X0333147Y0048874D01*
X0328251Y0048874D01*
X0327603Y0049142D01*
X0327603Y0048115D01*
X0331808Y0048115D01*
X0333058Y0047597D01*
X0334014Y0046641D01*
X0334532Y0045391D01*
X0334532Y0040101D01*
X0334014Y0038852D01*
X0333058Y0037895D01*
X0331808Y0037378D01*
X0330012Y0037378D01*
X0329607Y0036973D01*
X0330070Y0036510D01*
X0331167Y0033863D01*
X0331167Y0030999D01*
X0330199Y0028664D01*
X0332534Y0029631D01*
X0335399Y0029631D01*
X0338045Y0028535D01*
X0340070Y0026510D01*
X0341167Y0023863D01*
X0341167Y0021073D01*
X0341389Y0021295D01*
X0343735Y0022650D01*
X0346352Y0023351D01*
X0349061Y0023351D01*
X0351678Y0022650D01*
X0354025Y0021295D01*
X0355605Y0019715D01*
X0355831Y0157219D01*
X0353814Y0155202D01*
X0346717Y0155202D01*
X0343573Y0158347D01*
X0340429Y0155202D01*
X0333331Y0155202D01*
X0328313Y0160221D01*
X0328313Y0167318D01*
X0333331Y0172337D01*
X0340429Y0172337D01*
X0343573Y0169193D01*
X0346717Y0172337D01*
X0353814Y0172337D01*
X0355852Y0170299D01*
X0355918Y0210338D01*
X0353814Y0208234D01*
X0346717Y0208234D01*
X0343573Y0211378D01*
X0340429Y0208234D01*
X0333331Y0208234D01*
X0328313Y0213252D01*
X0328313Y0220350D01*
X0333331Y0225368D01*
X0340429Y0225368D01*
X0343573Y0222224D01*
X0346717Y0225368D01*
X0353814Y0225368D01*
X0355939Y0223244D01*
X0356050Y0290397D01*
X0355941Y0290208D01*
X0354025Y0288292D01*
X0351678Y0286937D01*
X0349061Y0286236D01*
X0346352Y0286236D01*
X0343735Y0286937D01*
X0341389Y0288292D01*
X0339473Y0290208D01*
X0338118Y0292554D01*
X0337417Y0295171D01*
X0337417Y0297880D01*
X0338118Y0300497D01*
X0339473Y0302844D01*
X0341029Y0304400D01*
X0019739Y0304400D01*
X0021295Y0302844D01*
X0022650Y0300497D01*
X0023351Y0297880D01*
X0023351Y0295171D01*
X0022650Y0292554D01*
X0021295Y0290208D01*
X0019379Y0288292D01*
X0017033Y0286937D01*
X0014416Y0286236D01*
X0011706Y0286236D01*
X0009089Y0286937D01*
X0006743Y0288292D01*
X0005654Y0289380D01*
X0005599Y0255904D01*
X0009512Y0259817D01*
X0016610Y0259817D01*
X0019754Y0256673D01*
X0022898Y0259817D01*
X0029996Y0259817D01*
X0035014Y0254799D01*
X0035014Y0247701D01*
X0029996Y0242683D01*
X0022898Y0242683D01*
X0019754Y0245827D01*
X0016610Y0242683D01*
X0009512Y0242683D01*
X0005584Y0246611D01*
X0005512Y0202785D01*
X0009512Y0206786D01*
X0016610Y0206786D01*
X0019754Y0203642D01*
X0022898Y0206786D01*
X0029996Y0206786D01*
X0035014Y0201767D01*
X0035014Y0194670D01*
X0029996Y0189651D01*
X0022898Y0189651D01*
X0019754Y0192795D01*
X0016610Y0189651D01*
X0009512Y0189651D01*
X0005497Y0193666D01*
X0005211Y0019763D01*
X0006743Y0021295D01*
X0009089Y0022650D01*
X0011706Y0023351D01*
X0014416Y0023351D01*
X0017033Y0022650D01*
X0019379Y0021295D01*
X0021295Y0019379D01*
X0022650Y0017033D01*
X0023351Y0014416D01*
X0023351Y0011706D01*
X0022650Y0009089D01*
X0021295Y0006743D01*
X0021585Y0007246D02*
X0155881Y0007246D01*
X0153882Y0009244D02*
X0022691Y0009244D01*
X0023227Y0011243D02*
X0151884Y0011243D01*
X0146417Y0013241D02*
X0023351Y0013241D01*
X0023130Y0015240D02*
X0089540Y0015240D01*
X0087542Y0017238D02*
X0022531Y0017238D01*
X0021377Y0019237D02*
X0085543Y0019237D01*
X0083545Y0021235D02*
X0019439Y0021235D01*
X0014853Y0023234D02*
X0081546Y0023234D01*
X0079548Y0025232D02*
X0049527Y0025232D01*
X0052148Y0027231D02*
X0077549Y0027231D01*
X0075551Y0029229D02*
X0054147Y0029229D01*
X0056145Y0031228D02*
X0073552Y0031228D01*
X0068920Y0033226D02*
X0058144Y0033226D01*
X0060142Y0035225D02*
X0067403Y0035225D01*
X0066866Y0037223D02*
X0062141Y0037223D01*
X0057278Y0042826D02*
X0052681Y0038229D01*
X0052681Y0038299D01*
X0051498Y0041157D01*
X0053698Y0041157D01*
X0054948Y0041675D01*
X0055904Y0042631D01*
X0055985Y0042826D01*
X0057278Y0042826D01*
X0055673Y0041220D02*
X0053850Y0041220D01*
X0053674Y0039222D02*
X0052299Y0039222D01*
X0039086Y0042702D02*
X0037670Y0041285D01*
X0036433Y0038299D01*
X0036433Y0038229D01*
X0033077Y0041585D01*
X0033294Y0041675D01*
X0034250Y0042631D01*
X0034768Y0043881D01*
X0034768Y0048731D01*
X0038598Y0048731D01*
X0038598Y0043881D01*
X0039086Y0042702D01*
X0038872Y0043219D02*
X0034494Y0043219D01*
X0034768Y0045217D02*
X0038598Y0045217D01*
X0038598Y0047216D02*
X0034768Y0047216D01*
X0033441Y0041220D02*
X0037643Y0041220D01*
X0036815Y0039222D02*
X0035440Y0039222D01*
X0030970Y0033226D02*
X0030265Y0033226D01*
X0028938Y0031228D02*
X0032969Y0031228D01*
X0034967Y0029229D02*
X0026138Y0029229D01*
X0019669Y0029229D02*
X0005227Y0029229D01*
X0005223Y0027231D02*
X0036966Y0027231D01*
X0039587Y0025232D02*
X0005220Y0025232D01*
X0005217Y0023234D02*
X0011269Y0023234D01*
X0006683Y0021235D02*
X0005213Y0021235D01*
X0005230Y0031228D02*
X0016869Y0031228D01*
X0015542Y0033226D02*
X0005233Y0033226D01*
X0005236Y0035225D02*
X0014779Y0035225D01*
X0014779Y0037223D02*
X0005240Y0037223D01*
X0005243Y0039222D02*
X0015161Y0039222D01*
X0015989Y0041220D02*
X0005246Y0041220D01*
X0005250Y0043219D02*
X0017219Y0043219D01*
X0016944Y0045217D02*
X0005253Y0045217D01*
X0005256Y0047216D02*
X0016944Y0047216D01*
X0016963Y0049214D02*
X0005259Y0049214D01*
X0005263Y0051213D02*
X0018255Y0051213D01*
X0019081Y0053211D02*
X0005266Y0053211D01*
X0005269Y0055210D02*
X0017144Y0055210D01*
X0016944Y0057208D02*
X0005273Y0057208D01*
X0005276Y0059207D02*
X0016944Y0059207D01*
X0017037Y0061205D02*
X0005279Y0061205D01*
X0005282Y0063204D02*
X0016389Y0063204D01*
X0015343Y0065202D02*
X0005286Y0065202D01*
X0005289Y0067201D02*
X0014779Y0067201D01*
X0014779Y0069199D02*
X0005292Y0069199D01*
X0005296Y0071198D02*
X0015360Y0071198D01*
X0016431Y0073196D02*
X0005299Y0073196D01*
X0005302Y0075195D02*
X0018611Y0075195D01*
X0027196Y0075195D02*
X0040265Y0075195D01*
X0038085Y0073196D02*
X0029376Y0073196D01*
X0030447Y0071198D02*
X0037014Y0071198D01*
X0036433Y0069199D02*
X0031028Y0069199D01*
X0031028Y0067201D02*
X0036433Y0067201D01*
X0036996Y0065202D02*
X0030464Y0065202D01*
X0033255Y0063204D02*
X0038043Y0063204D01*
X0038691Y0061205D02*
X0034675Y0061205D01*
X0034768Y0059207D02*
X0038598Y0059207D01*
X0038598Y0057208D02*
X0035564Y0057208D01*
X0052118Y0065202D02*
X0067412Y0065202D01*
X0066866Y0067201D02*
X0052681Y0067201D01*
X0052681Y0069199D02*
X0067026Y0069199D01*
X0068010Y0071198D02*
X0052100Y0071198D01*
X0051029Y0073196D02*
X0070919Y0073196D01*
X0074337Y0073196D02*
X0082728Y0073196D01*
X0080729Y0071198D02*
X0077246Y0071198D01*
X0078230Y0069199D02*
X0078731Y0069199D01*
X0083200Y0063204D02*
X0088226Y0063204D01*
X0088101Y0063506D02*
X0088664Y0062146D01*
X0089649Y0061162D01*
X0089943Y0060868D01*
X0089582Y0059997D01*
X0089582Y0054708D01*
X0090100Y0053458D01*
X0091056Y0052501D01*
X0091226Y0052431D01*
X0091056Y0052361D01*
X0090100Y0051404D01*
X0089582Y0050155D01*
X0089582Y0044865D01*
X0090100Y0043615D01*
X0091056Y0042659D01*
X0091226Y0042589D01*
X0091056Y0042518D01*
X0090100Y0041562D01*
X0089582Y0040312D01*
X0089582Y0037430D01*
X0087627Y0037430D01*
X0087627Y0045293D01*
X0087064Y0046653D01*
X0079190Y0054527D01*
X0078149Y0055568D01*
X0078018Y0055622D01*
X0078390Y0056521D01*
X0078390Y0058813D01*
X0078385Y0058827D01*
X0079133Y0059137D01*
X0086444Y0066448D01*
X0088101Y0066448D01*
X0088101Y0063506D01*
X0088101Y0065202D02*
X0085199Y0065202D01*
X0081202Y0061205D02*
X0089605Y0061205D01*
X0089649Y0061162D02*
X0089649Y0061162D01*
X0089582Y0059207D02*
X0079203Y0059207D01*
X0078390Y0057208D02*
X0089582Y0057208D01*
X0089582Y0055210D02*
X0078507Y0055210D01*
X0080506Y0053211D02*
X0090347Y0053211D01*
X0090021Y0051213D02*
X0082504Y0051213D01*
X0084503Y0049214D02*
X0089582Y0049214D01*
X0089582Y0047216D02*
X0086501Y0047216D01*
X0087627Y0045217D02*
X0089582Y0045217D01*
X0090497Y0043219D02*
X0087627Y0043219D01*
X0087627Y0041220D02*
X0089958Y0041220D01*
X0089582Y0039222D02*
X0087627Y0039222D01*
X0099069Y0042589D02*
X0099239Y0042659D01*
X0099363Y0042783D01*
X0099364Y0042782D01*
X0099642Y0042667D01*
X0099364Y0042552D01*
X0099284Y0042473D01*
X0099239Y0042518D01*
X0099069Y0042589D01*
X0099192Y0052380D02*
X0099069Y0052431D01*
X0099239Y0052501D01*
X0099474Y0052737D01*
X0099642Y0052667D01*
X0099364Y0052552D01*
X0099192Y0052380D01*
X0105614Y0052667D02*
X0105892Y0052552D01*
X0107077Y0051367D01*
X0113064Y0051367D01*
X0115664Y0053967D01*
X0107077Y0053967D01*
X0105892Y0052782D01*
X0105614Y0052667D01*
X0106321Y0053211D02*
X0114908Y0053211D01*
X0123013Y0045217D02*
X0145011Y0045217D01*
X0145471Y0044108D02*
X0147156Y0042423D01*
X0147156Y0041221D01*
X0146962Y0041140D01*
X0146005Y0040184D01*
X0145488Y0038934D01*
X0145488Y0036446D01*
X0114242Y0036446D01*
X0126864Y0049068D01*
X0144544Y0049068D01*
X0144504Y0048970D01*
X0144504Y0046443D01*
X0145471Y0044108D01*
X0146360Y0043219D02*
X0121015Y0043219D01*
X0119016Y0041220D02*
X0147155Y0041220D01*
X0145607Y0039222D02*
X0117018Y0039222D01*
X0115019Y0037223D02*
X0145488Y0037223D01*
X0154556Y0041221D02*
X0154556Y0042423D01*
X0156242Y0044108D01*
X0157209Y0046443D01*
X0157209Y0048970D01*
X0157169Y0049068D01*
X0188357Y0049068D01*
X0190463Y0046961D01*
X0190463Y0032010D01*
X0190664Y0031525D01*
X0170862Y0031525D01*
X0169908Y0032479D01*
X0168659Y0032996D01*
X0167374Y0032996D01*
X0167642Y0033645D01*
X0167642Y0038540D01*
X0167124Y0039790D01*
X0166168Y0040747D01*
X0164918Y0041264D01*
X0160416Y0041264D01*
X0159167Y0040747D01*
X0158213Y0039793D01*
X0155869Y0039793D01*
X0155707Y0040184D01*
X0154751Y0041140D01*
X0154556Y0041221D01*
X0154558Y0041220D02*
X0160310Y0041220D01*
X0165025Y0041220D02*
X0190463Y0041220D01*
X0190463Y0039222D02*
X0167360Y0039222D01*
X0167642Y0037223D02*
X0190463Y0037223D01*
X0190463Y0035225D02*
X0167642Y0035225D01*
X0167469Y0033226D02*
X0190463Y0033226D01*
X0190463Y0043219D02*
X0155352Y0043219D01*
X0156701Y0045217D02*
X0190463Y0045217D01*
X0190209Y0047216D02*
X0157209Y0047216D01*
X0144504Y0047216D02*
X0125012Y0047216D01*
X0125028Y0067201D02*
X0178034Y0067201D01*
X0176842Y0069199D02*
X0123030Y0069199D01*
X0120474Y0071198D02*
X0174343Y0071198D01*
X0173599Y0073196D02*
X0104337Y0073196D01*
X0100919Y0073196D02*
X0093985Y0073196D01*
X0065845Y0063204D02*
X0054908Y0063204D01*
X0048850Y0075195D02*
X0173730Y0075195D01*
X0174883Y0077193D02*
X0005305Y0077193D01*
X0005309Y0079192D02*
X0178421Y0079192D01*
X0185040Y0081190D02*
X0005312Y0081190D01*
X0005315Y0083189D02*
X0187038Y0083189D01*
X0189037Y0085187D02*
X0005319Y0085187D01*
X0005322Y0087186D02*
X0191035Y0087186D01*
X0193034Y0089184D02*
X0005325Y0089184D01*
X0005328Y0091183D02*
X0195032Y0091183D01*
X0197031Y0093182D02*
X0005332Y0093182D01*
X0005335Y0095180D02*
X0355729Y0095180D01*
X0355725Y0093182D02*
X0318449Y0093182D01*
X0320447Y0091183D02*
X0355722Y0091183D01*
X0355719Y0089184D02*
X0326477Y0089184D01*
X0329394Y0087186D02*
X0355716Y0087186D01*
X0355712Y0085187D02*
X0330618Y0085187D01*
X0331167Y0083189D02*
X0355709Y0083189D01*
X0355706Y0081190D02*
X0338757Y0081190D01*
X0335867Y0081190D02*
X0331167Y0081190D01*
X0333948Y0073196D02*
X0292456Y0073196D01*
X0291553Y0071198D02*
X0355689Y0071198D01*
X0355693Y0073196D02*
X0340676Y0073196D01*
X0341911Y0075195D02*
X0355696Y0075195D01*
X0355699Y0077193D02*
X0342101Y0077193D01*
X0341424Y0079192D02*
X0355702Y0079192D01*
X0355686Y0069199D02*
X0288299Y0069199D01*
X0286300Y0067201D02*
X0355683Y0067201D01*
X0355679Y0065202D02*
X0284302Y0065202D01*
X0282303Y0063204D02*
X0355676Y0063204D01*
X0355673Y0061205D02*
X0242079Y0061205D01*
X0241188Y0059207D02*
X0254383Y0059207D01*
X0261188Y0059207D02*
X0274383Y0059207D01*
X0281188Y0059207D02*
X0294383Y0059207D01*
X0301188Y0059207D02*
X0355670Y0059207D01*
X0355666Y0057208D02*
X0335411Y0057208D01*
X0335870Y0055210D02*
X0355663Y0055210D01*
X0355660Y0053211D02*
X0335870Y0053211D01*
X0335711Y0051213D02*
X0355656Y0051213D01*
X0355653Y0049214D02*
X0333969Y0049214D01*
X0333439Y0047216D02*
X0355650Y0047216D01*
X0355647Y0045217D02*
X0334532Y0045217D01*
X0334532Y0043219D02*
X0355643Y0043219D01*
X0355640Y0041220D02*
X0334532Y0041220D01*
X0334168Y0039222D02*
X0355637Y0039222D01*
X0355633Y0037223D02*
X0329857Y0037223D01*
X0330603Y0035225D02*
X0355630Y0035225D01*
X0355627Y0033226D02*
X0331167Y0033226D01*
X0331167Y0031228D02*
X0355624Y0031228D01*
X0355620Y0029229D02*
X0336369Y0029229D01*
X0339349Y0027231D02*
X0355617Y0027231D01*
X0355614Y0025232D02*
X0340600Y0025232D01*
X0341167Y0023234D02*
X0345915Y0023234D01*
X0349499Y0023234D02*
X0355610Y0023234D01*
X0355607Y0021235D02*
X0354085Y0021235D01*
X0341329Y0021235D02*
X0341167Y0021235D01*
X0337915Y0016273D02*
X0336120Y0015530D01*
X0336748Y0014014D01*
X0336748Y0012108D01*
X0336327Y0011093D01*
X0336748Y0010077D01*
X0336748Y0008171D01*
X0336019Y0006411D01*
X0334794Y0005187D01*
X0341029Y0005187D01*
X0339473Y0006743D01*
X0338118Y0009089D01*
X0337417Y0011706D01*
X0337417Y0014416D01*
X0337915Y0016273D01*
X0337638Y0015240D02*
X0336240Y0015240D01*
X0336748Y0013241D02*
X0337417Y0013241D01*
X0337541Y0011243D02*
X0336389Y0011243D01*
X0336748Y0009244D02*
X0338077Y0009244D01*
X0339183Y0007246D02*
X0336364Y0007246D01*
X0334854Y0005247D02*
X0340969Y0005247D01*
X0329123Y0005187D02*
X0328886Y0005424D01*
X0310919Y0005424D01*
X0310821Y0005187D01*
X0329123Y0005187D01*
X0329063Y0005247D02*
X0310845Y0005247D01*
X0312534Y0015231D02*
X0315399Y0015231D01*
X0318045Y0016327D01*
X0320070Y0018353D01*
X0321167Y0020999D01*
X0321167Y0023863D01*
X0320199Y0026198D01*
X0322534Y0025231D01*
X0325399Y0025231D01*
X0327734Y0026198D01*
X0326767Y0023863D01*
X0326767Y0020999D01*
X0327863Y0018353D01*
X0329170Y0017045D01*
X0327899Y0015774D01*
X0327174Y0014024D01*
X0248744Y0014024D01*
X0248744Y0016296D01*
X0248531Y0016813D01*
X0248967Y0017249D01*
X0249888Y0016327D01*
X0252534Y0015231D01*
X0255399Y0015231D01*
X0258045Y0016327D01*
X0258967Y0017249D01*
X0259888Y0016327D01*
X0262534Y0015231D01*
X0265399Y0015231D01*
X0268045Y0016327D01*
X0268967Y0017249D01*
X0269888Y0016327D01*
X0272534Y0015231D01*
X0275399Y0015231D01*
X0278045Y0016327D01*
X0278967Y0017249D01*
X0279888Y0016327D01*
X0282534Y0015231D01*
X0285399Y0015231D01*
X0288045Y0016327D01*
X0288967Y0017249D01*
X0289888Y0016327D01*
X0292534Y0015231D01*
X0295399Y0015231D01*
X0298045Y0016327D01*
X0298967Y0017249D01*
X0299888Y0016327D01*
X0302534Y0015231D01*
X0305399Y0015231D01*
X0308045Y0016327D01*
X0308967Y0017249D01*
X0309888Y0016327D01*
X0312534Y0015231D01*
X0312514Y0015240D02*
X0305419Y0015240D01*
X0302514Y0015240D02*
X0295419Y0015240D01*
X0292514Y0015240D02*
X0285419Y0015240D01*
X0282514Y0015240D02*
X0275419Y0015240D01*
X0272514Y0015240D02*
X0265419Y0015240D01*
X0262514Y0015240D02*
X0255419Y0015240D01*
X0252514Y0015240D02*
X0248744Y0015240D01*
X0248956Y0017238D02*
X0248977Y0017238D01*
X0258956Y0017238D02*
X0258977Y0017238D01*
X0268956Y0017238D02*
X0268977Y0017238D01*
X0278956Y0017238D02*
X0278977Y0017238D01*
X0288956Y0017238D02*
X0288977Y0017238D01*
X0298956Y0017238D02*
X0298977Y0017238D01*
X0308956Y0017238D02*
X0308977Y0017238D01*
X0315419Y0015240D02*
X0327677Y0015240D01*
X0328977Y0017238D02*
X0318956Y0017238D01*
X0320437Y0019237D02*
X0327497Y0019237D01*
X0326767Y0021235D02*
X0321167Y0021235D01*
X0321167Y0023234D02*
X0326767Y0023234D01*
X0327334Y0025232D02*
X0325401Y0025232D01*
X0322532Y0025232D02*
X0320600Y0025232D01*
X0317734Y0028664D02*
X0317667Y0028826D01*
X0317667Y0028692D01*
X0317734Y0028664D01*
X0310267Y0028692D02*
X0310199Y0028664D01*
X0310267Y0028826D01*
X0310267Y0028692D01*
X0307523Y0041220D02*
X0301039Y0041220D01*
X0297918Y0041220D02*
X0283893Y0041220D01*
X0288501Y0043219D02*
X0309522Y0043219D01*
X0310130Y0045217D02*
X0311520Y0045217D01*
X0313111Y0047216D02*
X0317525Y0047216D01*
X0317259Y0049214D02*
X0314345Y0049214D01*
X0314885Y0051213D02*
X0317259Y0051213D01*
X0317612Y0053211D02*
X0314885Y0053211D01*
X0314112Y0055210D02*
X0325527Y0055210D01*
X0325986Y0057208D02*
X0312549Y0057208D01*
X0302460Y0047216D02*
X0302111Y0047216D01*
X0305441Y0045217D02*
X0290130Y0045217D01*
X0293111Y0047216D02*
X0293460Y0047216D01*
X0277563Y0040679D02*
X0276571Y0040268D01*
X0275777Y0039474D01*
X0275399Y0039631D01*
X0272534Y0039631D01*
X0269888Y0038535D01*
X0268967Y0037613D01*
X0268045Y0038535D01*
X0265399Y0039631D01*
X0262534Y0039631D01*
X0259888Y0038535D01*
X0258967Y0037613D01*
X0258045Y0038535D01*
X0255399Y0039631D01*
X0252534Y0039631D01*
X0249888Y0038535D01*
X0248967Y0037613D01*
X0248045Y0038535D01*
X0245399Y0039631D01*
X0242534Y0039631D01*
X0239888Y0038535D01*
X0238967Y0037613D01*
X0238045Y0038535D01*
X0235399Y0039631D01*
X0232534Y0039631D01*
X0232072Y0039440D01*
X0231749Y0039763D01*
X0230708Y0040804D01*
X0229348Y0041367D01*
X0211167Y0041367D01*
X0211167Y0043810D01*
X0211332Y0043810D01*
X0212147Y0042994D01*
X0213507Y0042431D01*
X0276154Y0042431D01*
X0276397Y0041844D01*
X0277563Y0040679D01*
X0277021Y0041220D02*
X0229703Y0041220D01*
X0236387Y0039222D02*
X0241546Y0039222D01*
X0246387Y0039222D02*
X0251546Y0039222D01*
X0256387Y0039222D02*
X0261546Y0039222D01*
X0266387Y0039222D02*
X0271546Y0039222D01*
X0266810Y0070895D02*
X0261123Y0070895D01*
X0261167Y0070999D01*
X0261167Y0073431D01*
X0266767Y0073431D01*
X0266767Y0070999D01*
X0266810Y0070895D01*
X0266767Y0071198D02*
X0261167Y0071198D01*
X0261167Y0073196D02*
X0266767Y0073196D01*
X0233708Y0058894D02*
X0232285Y0057472D01*
X0231807Y0057950D01*
X0229528Y0058894D01*
X0233708Y0058894D01*
X0221917Y0062295D02*
X0219520Y0059898D01*
X0219198Y0060031D01*
X0216373Y0060031D01*
X0213764Y0058950D01*
X0212131Y0057318D01*
X0212064Y0057480D01*
X0211023Y0058521D01*
X0210399Y0059145D01*
X0211167Y0060999D01*
X0211167Y0061206D01*
X0211596Y0061206D01*
X0212955Y0061769D01*
X0213481Y0062295D01*
X0221917Y0062295D01*
X0220827Y0061205D02*
X0211167Y0061205D01*
X0210424Y0059207D02*
X0214383Y0059207D01*
X0205227Y0053652D02*
X0205227Y0052679D01*
X0205790Y0051319D01*
X0205900Y0051210D01*
X0202586Y0051210D01*
X0200745Y0053051D01*
X0201181Y0053231D01*
X0201601Y0053652D01*
X0205227Y0053652D01*
X0205227Y0053211D02*
X0201132Y0053211D01*
X0202583Y0051213D02*
X0205897Y0051213D01*
X0211167Y0043219D02*
X0211923Y0043219D01*
X0191918Y0020188D02*
X0198404Y0013702D01*
X0199444Y0012661D01*
X0200804Y0012098D01*
X0228148Y0012098D01*
X0228416Y0012209D01*
X0229149Y0012209D01*
X0229149Y0010662D01*
X0163495Y0010662D01*
X0157209Y0016948D01*
X0157209Y0019049D01*
X0156242Y0021384D01*
X0154556Y0023070D01*
X0154556Y0024271D01*
X0154751Y0024352D01*
X0155707Y0025308D01*
X0156225Y0026558D01*
X0156225Y0029046D01*
X0158182Y0029046D01*
X0158967Y0028261D01*
X0158967Y0024628D01*
X0159531Y0023268D01*
X0161007Y0021792D01*
X0162048Y0020751D01*
X0163408Y0020188D01*
X0191918Y0020188D01*
X0192869Y0019237D02*
X0157131Y0019237D01*
X0157209Y0017238D02*
X0194868Y0017238D01*
X0196866Y0015240D02*
X0158918Y0015240D01*
X0160916Y0013241D02*
X0198865Y0013241D01*
X0198404Y0013702D02*
X0198404Y0013702D01*
X0229149Y0011243D02*
X0162915Y0011243D01*
X0157879Y0005247D02*
X0019799Y0005247D01*
X0088180Y0027630D02*
X0106327Y0027630D01*
X0107686Y0028194D01*
X0108539Y0029046D01*
X0145488Y0029046D01*
X0145488Y0026558D01*
X0146005Y0025308D01*
X0146962Y0024352D01*
X0147156Y0024271D01*
X0147156Y0023070D01*
X0145772Y0021685D01*
X0094125Y0021685D01*
X0088180Y0027630D01*
X0088580Y0027231D02*
X0145488Y0027231D01*
X0146082Y0025232D02*
X0090579Y0025232D01*
X0092577Y0023234D02*
X0147156Y0023234D01*
X0154556Y0023234D02*
X0159565Y0023234D01*
X0158967Y0025232D02*
X0155631Y0025232D01*
X0156225Y0027231D02*
X0158967Y0027231D01*
X0161564Y0021235D02*
X0156304Y0021235D01*
X0103449Y0118145D02*
X0100362Y0116866D01*
X0097020Y0116866D01*
X0093933Y0118145D01*
X0091570Y0120508D01*
X0090291Y0123595D01*
X0090291Y0126937D01*
X0091570Y0130024D01*
X0093933Y0132387D01*
X0097020Y0133666D01*
X0100362Y0133666D01*
X0103449Y0132387D01*
X0105812Y0130024D01*
X0107091Y0126937D01*
X0107091Y0123595D01*
X0105812Y0120508D01*
X0103449Y0118145D01*
X0104467Y0119162D02*
X0355768Y0119162D01*
X0355765Y0117164D02*
X0101081Y0117164D01*
X0096301Y0117164D02*
X0005371Y0117164D01*
X0005374Y0119162D02*
X0024699Y0119162D01*
X0025306Y0118911D02*
X0023546Y0119640D01*
X0022199Y0120987D01*
X0021470Y0122747D01*
X0021470Y0124652D01*
X0022199Y0126413D01*
X0022359Y0126572D01*
X0022359Y0138255D01*
X0022953Y0139688D01*
X0023528Y0140264D01*
X0023528Y0140490D01*
X0024257Y0142250D01*
X0025604Y0143597D01*
X0027364Y0144326D01*
X0029270Y0144326D01*
X0031030Y0143597D01*
X0032377Y0142250D01*
X0033106Y0140490D01*
X0033106Y0138585D01*
X0032377Y0136825D01*
X0031030Y0135477D01*
X0030159Y0135117D01*
X0030159Y0126572D01*
X0030319Y0126413D01*
X0031048Y0124652D01*
X0031048Y0122747D01*
X0030319Y0120987D01*
X0028972Y0119640D01*
X0027211Y0118911D01*
X0025306Y0118911D01*
X0027818Y0119162D02*
X0092915Y0119162D01*
X0091299Y0121161D02*
X0030391Y0121161D01*
X0031048Y0123159D02*
X0090471Y0123159D01*
X0090291Y0125158D02*
X0030838Y0125158D01*
X0030159Y0127156D02*
X0090382Y0127156D01*
X0091210Y0129155D02*
X0030159Y0129155D01*
X0030159Y0131153D02*
X0092699Y0131153D01*
X0095779Y0133152D02*
X0030159Y0133152D01*
X0030240Y0135150D02*
X0256061Y0135150D01*
X0256334Y0134877D02*
X0253971Y0137240D01*
X0252693Y0140327D01*
X0252693Y0143669D01*
X0253971Y0146756D01*
X0256334Y0149119D01*
X0259422Y0150398D01*
X0262763Y0150398D01*
X0265851Y0149119D01*
X0268214Y0146756D01*
X0269493Y0143669D01*
X0269493Y0140327D01*
X0268214Y0137240D01*
X0265851Y0134877D01*
X0262763Y0133598D01*
X0259422Y0133598D01*
X0256334Y0134877D01*
X0254062Y0137149D02*
X0032511Y0137149D01*
X0033106Y0139147D02*
X0253181Y0139147D01*
X0252693Y0141146D02*
X0032834Y0141146D01*
X0031483Y0143144D02*
X0252693Y0143144D01*
X0253303Y0145143D02*
X0005417Y0145143D01*
X0005420Y0147141D02*
X0254356Y0147141D01*
X0256384Y0149140D02*
X0005424Y0149140D01*
X0005427Y0151138D02*
X0355821Y0151138D01*
X0355817Y0149140D02*
X0265801Y0149140D01*
X0267829Y0147141D02*
X0355814Y0147141D01*
X0355811Y0145143D02*
X0268882Y0145143D01*
X0269493Y0143144D02*
X0355808Y0143144D01*
X0355804Y0141146D02*
X0269493Y0141146D01*
X0269004Y0139147D02*
X0355801Y0139147D01*
X0355798Y0137149D02*
X0268123Y0137149D01*
X0266124Y0135150D02*
X0355794Y0135150D01*
X0355791Y0133152D02*
X0101603Y0133152D01*
X0104683Y0131153D02*
X0355788Y0131153D01*
X0355785Y0129155D02*
X0106172Y0129155D01*
X0107000Y0127156D02*
X0355781Y0127156D01*
X0355778Y0125158D02*
X0107091Y0125158D01*
X0106910Y0123159D02*
X0355775Y0123159D01*
X0355771Y0121161D02*
X0106083Y0121161D01*
X0031453Y0191109D02*
X0355887Y0191109D01*
X0355890Y0193107D02*
X0033451Y0193107D01*
X0035014Y0195106D02*
X0355893Y0195106D01*
X0355896Y0197104D02*
X0035014Y0197104D01*
X0035014Y0199103D02*
X0355900Y0199103D01*
X0355903Y0201101D02*
X0035014Y0201101D01*
X0033682Y0203100D02*
X0355906Y0203100D01*
X0355910Y0205098D02*
X0031683Y0205098D01*
X0021210Y0205098D02*
X0018297Y0205098D01*
X0007825Y0205098D02*
X0005516Y0205098D01*
X0005512Y0203100D02*
X0005826Y0203100D01*
X0005519Y0207097D02*
X0355913Y0207097D01*
X0355916Y0209095D02*
X0354676Y0209095D01*
X0345856Y0209095D02*
X0341290Y0209095D01*
X0343288Y0211094D02*
X0343857Y0211094D01*
X0332470Y0209095D02*
X0005522Y0209095D01*
X0005526Y0211094D02*
X0330471Y0211094D01*
X0328473Y0213092D02*
X0005529Y0213092D01*
X0005532Y0215091D02*
X0328313Y0215091D01*
X0328313Y0217089D02*
X0005536Y0217089D01*
X0005539Y0219088D02*
X0328313Y0219088D01*
X0329049Y0221086D02*
X0005542Y0221086D01*
X0005545Y0223085D02*
X0331047Y0223085D01*
X0333046Y0225083D02*
X0005549Y0225083D01*
X0005552Y0227082D02*
X0355946Y0227082D01*
X0355949Y0229080D02*
X0005555Y0229080D01*
X0005559Y0231079D02*
X0355952Y0231079D01*
X0355956Y0233077D02*
X0005562Y0233077D01*
X0005565Y0235076D02*
X0355959Y0235076D01*
X0355962Y0237074D02*
X0005568Y0237074D01*
X0005572Y0239073D02*
X0355965Y0239073D01*
X0355969Y0241071D02*
X0005575Y0241071D01*
X0005578Y0243070D02*
X0009125Y0243070D01*
X0007127Y0245068D02*
X0005582Y0245068D01*
X0016997Y0243070D02*
X0022511Y0243070D01*
X0020512Y0245068D02*
X0018995Y0245068D01*
X0030383Y0243070D02*
X0355972Y0243070D01*
X0355975Y0245068D02*
X0134408Y0245068D01*
X0134430Y0245090D02*
X0134947Y0246339D01*
X0134947Y0254192D01*
X0134430Y0255442D01*
X0133473Y0256398D01*
X0132224Y0256916D01*
X0124371Y0256916D01*
X0123121Y0256398D01*
X0122165Y0255442D01*
X0121647Y0254192D01*
X0121647Y0246339D01*
X0122165Y0245090D01*
X0123121Y0244133D01*
X0124371Y0243616D01*
X0132224Y0243616D01*
X0133473Y0244133D01*
X0134430Y0245090D01*
X0134947Y0247067D02*
X0355979Y0247067D01*
X0355982Y0249065D02*
X0134947Y0249065D01*
X0134947Y0251064D02*
X0251832Y0251064D01*
X0251657Y0251136D02*
X0254267Y0250056D01*
X0257091Y0250056D01*
X0259701Y0251136D01*
X0260679Y0252115D01*
X0261657Y0251136D01*
X0264267Y0250056D01*
X0267091Y0250056D01*
X0269701Y0251136D01*
X0271698Y0253134D01*
X0272779Y0255743D01*
X0272779Y0258568D01*
X0271698Y0261177D01*
X0269701Y0263175D01*
X0267091Y0264255D01*
X0264267Y0264255D01*
X0261657Y0263175D01*
X0260679Y0262196D01*
X0259701Y0263175D01*
X0257091Y0264255D01*
X0254267Y0264255D01*
X0251657Y0263175D01*
X0249660Y0261177D01*
X0248579Y0258568D01*
X0248579Y0255743D01*
X0249660Y0253134D01*
X0251657Y0251136D01*
X0249731Y0253062D02*
X0134947Y0253062D01*
X0134587Y0255061D02*
X0248862Y0255061D01*
X0248579Y0257059D02*
X0224179Y0257059D01*
X0224662Y0257260D02*
X0226009Y0258607D01*
X0226739Y0260367D01*
X0226739Y0262272D01*
X0226009Y0264032D01*
X0224662Y0265380D01*
X0222902Y0266109D01*
X0220997Y0266109D01*
X0220058Y0265720D01*
X0210088Y0265720D01*
X0209671Y0266137D01*
X0207911Y0266866D01*
X0207489Y0266866D01*
X0208925Y0268301D01*
X0210162Y0271287D01*
X0210162Y0274520D01*
X0209640Y0275778D01*
X0209678Y0275868D01*
X0209678Y0276326D01*
X0209841Y0276489D01*
X0210359Y0277739D01*
X0210359Y0281848D01*
X0209841Y0283097D01*
X0208885Y0284054D01*
X0207635Y0284571D01*
X0206187Y0284571D01*
X0206618Y0285613D01*
X0206618Y0287661D01*
X0206640Y0287670D01*
X0208925Y0289955D01*
X0210162Y0292941D01*
X0210162Y0296173D01*
X0208925Y0299159D01*
X0206640Y0301445D01*
X0203653Y0302681D01*
X0200421Y0302681D01*
X0197435Y0301445D01*
X0195150Y0299159D01*
X0193913Y0296173D01*
X0193913Y0292941D01*
X0195150Y0289955D01*
X0197435Y0287670D01*
X0197456Y0287661D01*
X0197456Y0285613D01*
X0197888Y0284571D01*
X0196440Y0284571D01*
X0195190Y0284054D01*
X0194234Y0283097D01*
X0193716Y0281848D01*
X0193716Y0277739D01*
X0194234Y0276489D01*
X0194584Y0276139D01*
X0194088Y0274941D01*
X0191028Y0274941D01*
X0190774Y0275195D01*
X0189525Y0275713D01*
X0188240Y0275713D01*
X0188508Y0276361D01*
X0188508Y0281257D01*
X0188485Y0281314D01*
X0188975Y0281804D01*
X0189493Y0283054D01*
X0189493Y0288344D01*
X0188975Y0289593D01*
X0188018Y0290550D01*
X0186769Y0291067D01*
X0181085Y0291067D01*
X0179836Y0290550D01*
X0178879Y0289593D01*
X0178362Y0288344D01*
X0178362Y0283057D01*
X0178345Y0283097D01*
X0177389Y0284054D01*
X0176139Y0284571D01*
X0174691Y0284571D01*
X0175122Y0285613D01*
X0175122Y0287661D01*
X0175143Y0287670D01*
X0177429Y0289955D01*
X0178666Y0292941D01*
X0178666Y0296173D01*
X0177429Y0299159D01*
X0175143Y0301445D01*
X0172157Y0302681D01*
X0168925Y0302681D01*
X0165939Y0301445D01*
X0163654Y0299159D01*
X0162417Y0296173D01*
X0162417Y0292941D01*
X0163654Y0289955D01*
X0165939Y0287670D01*
X0165960Y0287661D01*
X0165960Y0285613D01*
X0166392Y0284571D01*
X0164944Y0284571D01*
X0163694Y0284054D01*
X0162738Y0283097D01*
X0162220Y0281848D01*
X0162220Y0277739D01*
X0162738Y0276489D01*
X0163088Y0276139D01*
X0162592Y0274941D01*
X0159532Y0274941D01*
X0159278Y0275195D01*
X0158029Y0275713D01*
X0156744Y0275713D01*
X0157012Y0276361D01*
X0157012Y0281257D01*
X0156989Y0281314D01*
X0157479Y0281804D01*
X0157996Y0283054D01*
X0157996Y0288344D01*
X0157479Y0289593D01*
X0156522Y0290550D01*
X0155273Y0291067D01*
X0149589Y0291067D01*
X0148340Y0290550D01*
X0147383Y0289593D01*
X0146866Y0288344D01*
X0146866Y0283057D01*
X0146849Y0283097D01*
X0145892Y0284054D01*
X0144643Y0284571D01*
X0143195Y0284571D01*
X0143626Y0285613D01*
X0143626Y0287661D01*
X0143647Y0287670D01*
X0145933Y0289955D01*
X0147170Y0292941D01*
X0147170Y0296173D01*
X0145933Y0299159D01*
X0143647Y0301445D01*
X0140661Y0302681D01*
X0137429Y0302681D01*
X0134443Y0301445D01*
X0132158Y0299159D01*
X0132102Y0299025D01*
X0131719Y0299408D01*
X0130470Y0299926D01*
X0124786Y0299926D01*
X0123537Y0299408D01*
X0122580Y0298452D01*
X0122063Y0297202D01*
X0122063Y0292722D01*
X0121089Y0293696D01*
X0119329Y0294425D01*
X0117423Y0294425D01*
X0115663Y0293696D01*
X0114316Y0292349D01*
X0113587Y0290588D01*
X0113587Y0288683D01*
X0114316Y0286923D01*
X0115370Y0285869D01*
X0115370Y0283054D01*
X0115840Y0281918D01*
X0115567Y0281257D01*
X0115567Y0276361D01*
X0116084Y0275111D01*
X0117041Y0274155D01*
X0118290Y0273637D01*
X0119575Y0273637D01*
X0119307Y0272989D01*
X0119307Y0268093D01*
X0119824Y0266844D01*
X0120781Y0265887D01*
X0122030Y0265370D01*
X0126533Y0265370D01*
X0127782Y0265887D01*
X0128036Y0266141D01*
X0134318Y0266141D01*
X0134443Y0266016D01*
X0137429Y0264779D01*
X0140661Y0264779D01*
X0143647Y0266016D01*
X0145933Y0268301D01*
X0146451Y0269552D01*
X0147159Y0268844D01*
X0148919Y0268115D01*
X0150803Y0268115D01*
X0150803Y0268093D01*
X0151320Y0266844D01*
X0152277Y0265887D01*
X0153526Y0265370D01*
X0158029Y0265370D01*
X0159278Y0265887D01*
X0159532Y0266141D01*
X0165814Y0266141D01*
X0165939Y0266016D01*
X0168925Y0264779D01*
X0172157Y0264779D01*
X0175143Y0266016D01*
X0177429Y0268301D01*
X0177947Y0269552D01*
X0178655Y0268844D01*
X0180416Y0268115D01*
X0182299Y0268115D01*
X0182299Y0268093D01*
X0182816Y0266844D01*
X0183773Y0265887D01*
X0185023Y0265370D01*
X0189525Y0265370D01*
X0190774Y0265887D01*
X0191028Y0266141D01*
X0197310Y0266141D01*
X0197435Y0266016D01*
X0200421Y0264779D01*
X0202894Y0264779D01*
X0202170Y0263029D01*
X0202170Y0261124D01*
X0202899Y0259364D01*
X0204246Y0258017D01*
X0205185Y0257628D01*
X0205223Y0257590D01*
X0206841Y0256920D01*
X0220058Y0256920D01*
X0220997Y0256531D01*
X0222902Y0256531D01*
X0224662Y0257260D01*
X0226196Y0259058D02*
X0248782Y0259058D01*
X0249610Y0261056D02*
X0226739Y0261056D01*
X0226414Y0263055D02*
X0251538Y0263055D01*
X0259821Y0263055D02*
X0261538Y0263055D01*
X0263215Y0267194D02*
X0265568Y0266220D01*
X0268114Y0266220D01*
X0270466Y0267194D01*
X0272266Y0268995D01*
X0273241Y0271347D01*
X0273241Y0279893D01*
X0272266Y0282245D01*
X0270466Y0284046D01*
X0268114Y0285020D01*
X0265568Y0285020D01*
X0263215Y0284046D01*
X0261415Y0282245D01*
X0260441Y0279893D01*
X0260441Y0271347D01*
X0261415Y0268995D01*
X0263215Y0267194D01*
X0263559Y0267052D02*
X0207676Y0267052D01*
X0209235Y0269051D02*
X0261392Y0269051D01*
X0260564Y0271049D02*
X0210063Y0271049D01*
X0210162Y0273048D02*
X0260441Y0273048D01*
X0260441Y0275046D02*
X0209944Y0275046D01*
X0210071Y0277045D02*
X0260441Y0277045D01*
X0260441Y0279043D02*
X0210359Y0279043D01*
X0210359Y0281042D02*
X0260916Y0281042D01*
X0262210Y0283040D02*
X0209865Y0283040D01*
X0206381Y0285039D02*
X0356041Y0285039D01*
X0356044Y0287037D02*
X0351852Y0287037D01*
X0354769Y0289036D02*
X0356048Y0289036D01*
X0356038Y0283040D02*
X0291471Y0283040D01*
X0292266Y0282245D02*
X0290466Y0284046D01*
X0288114Y0285020D01*
X0285568Y0285020D01*
X0283215Y0284046D01*
X0281415Y0282245D01*
X0280441Y0279893D01*
X0280441Y0271347D01*
X0281415Y0268995D01*
X0283215Y0267194D01*
X0285568Y0266220D01*
X0288114Y0266220D01*
X0290466Y0267194D01*
X0292266Y0268995D01*
X0293241Y0271347D01*
X0293241Y0279893D01*
X0292266Y0282245D01*
X0292765Y0281042D02*
X0356034Y0281042D01*
X0356031Y0279043D02*
X0293241Y0279043D01*
X0293241Y0277045D02*
X0356028Y0277045D01*
X0356025Y0275046D02*
X0293241Y0275046D01*
X0293241Y0273048D02*
X0356021Y0273048D01*
X0356018Y0271049D02*
X0293117Y0271049D01*
X0292289Y0269051D02*
X0356015Y0269051D01*
X0356011Y0267052D02*
X0290122Y0267052D01*
X0283559Y0267052D02*
X0270122Y0267052D01*
X0272289Y0269051D02*
X0281392Y0269051D01*
X0280564Y0271049D02*
X0273117Y0271049D01*
X0273241Y0273048D02*
X0280441Y0273048D01*
X0280441Y0275046D02*
X0273241Y0275046D01*
X0273241Y0277045D02*
X0280441Y0277045D01*
X0280441Y0279043D02*
X0273241Y0279043D01*
X0272765Y0281042D02*
X0280916Y0281042D01*
X0282210Y0283040D02*
X0271471Y0283040D01*
X0269821Y0263055D02*
X0356005Y0263055D01*
X0356008Y0265053D02*
X0224988Y0265053D01*
X0221950Y0261320D02*
X0207716Y0261320D01*
X0206959Y0262077D01*
X0203205Y0259058D02*
X0096106Y0259058D01*
X0096106Y0259552D02*
X0095025Y0262162D01*
X0093028Y0264159D01*
X0090418Y0265240D01*
X0087594Y0265240D01*
X0084984Y0264159D01*
X0084006Y0263181D01*
X0083028Y0264159D01*
X0080418Y0265240D01*
X0077594Y0265240D01*
X0074984Y0264159D01*
X0072987Y0262162D01*
X0071906Y0259552D01*
X0071906Y0256727D01*
X0072987Y0254118D01*
X0074984Y0252121D01*
X0077594Y0251040D01*
X0080418Y0251040D01*
X0083028Y0252121D01*
X0084006Y0253099D01*
X0084984Y0252121D01*
X0087594Y0251040D01*
X0090418Y0251040D01*
X0093028Y0252121D01*
X0095025Y0254118D01*
X0096106Y0256727D01*
X0096106Y0259552D01*
X0095483Y0261056D02*
X0202198Y0261056D01*
X0202180Y0263055D02*
X0094132Y0263055D01*
X0090868Y0265053D02*
X0136767Y0265053D01*
X0141324Y0265053D02*
X0168263Y0265053D01*
X0172820Y0265053D02*
X0199759Y0265053D01*
X0199675Y0270541D02*
X0202037Y0272904D01*
X0199675Y0270541D02*
X0187274Y0270541D01*
X0182730Y0267052D02*
X0176179Y0267052D01*
X0177739Y0269051D02*
X0178448Y0269051D01*
X0170541Y0272904D02*
X0168179Y0270541D01*
X0155778Y0270541D01*
X0159428Y0275046D02*
X0162635Y0275046D01*
X0162508Y0277045D02*
X0157012Y0277045D01*
X0157012Y0279043D02*
X0162220Y0279043D01*
X0162220Y0281042D02*
X0157012Y0281042D01*
X0157991Y0283040D02*
X0162714Y0283040D01*
X0159518Y0285305D02*
X0159518Y0278809D01*
X0157996Y0285039D02*
X0166198Y0285039D01*
X0166604Y0285699D02*
X0168573Y0283730D01*
X0174478Y0283730D01*
X0180384Y0289636D01*
X0186683Y0289636D01*
X0190620Y0285699D01*
X0191014Y0285305D02*
X0191014Y0278809D01*
X0188508Y0279043D02*
X0193716Y0279043D01*
X0193716Y0281042D02*
X0188508Y0281042D01*
X0189487Y0283040D02*
X0194210Y0283040D01*
X0197694Y0285039D02*
X0189493Y0285039D01*
X0189493Y0287037D02*
X0197456Y0287037D01*
X0196069Y0289036D02*
X0189206Y0289036D01*
X0186849Y0291034D02*
X0194703Y0291034D01*
X0193913Y0293033D02*
X0178666Y0293033D01*
X0178666Y0295031D02*
X0193913Y0295031D01*
X0194268Y0297030D02*
X0178311Y0297030D01*
X0177483Y0299028D02*
X0195096Y0299028D01*
X0197017Y0301027D02*
X0175561Y0301027D01*
X0165521Y0301027D02*
X0144065Y0301027D01*
X0145987Y0299028D02*
X0163600Y0299028D01*
X0162772Y0297030D02*
X0146815Y0297030D01*
X0147170Y0295031D02*
X0162417Y0295031D01*
X0162417Y0293033D02*
X0147170Y0293033D01*
X0146380Y0291034D02*
X0149509Y0291034D01*
X0148888Y0289636D02*
X0155187Y0289636D01*
X0159124Y0285699D01*
X0166604Y0285699D01*
X0165960Y0287037D02*
X0157996Y0287037D01*
X0157710Y0289036D02*
X0164573Y0289036D01*
X0163207Y0291034D02*
X0155353Y0291034D01*
X0148888Y0289636D02*
X0142982Y0283730D01*
X0136093Y0283730D01*
X0134124Y0285699D01*
X0127628Y0285699D01*
X0128022Y0285305D02*
X0128022Y0278809D01*
X0125516Y0279043D02*
X0130724Y0279043D01*
X0130724Y0277739D02*
X0131242Y0276489D01*
X0131592Y0276139D01*
X0131096Y0274941D01*
X0128036Y0274941D01*
X0127782Y0275195D01*
X0126533Y0275713D01*
X0125248Y0275713D01*
X0125516Y0276361D01*
X0125516Y0281257D01*
X0125492Y0281314D01*
X0125983Y0281804D01*
X0126500Y0283054D01*
X0126500Y0288344D01*
X0126150Y0289189D01*
X0130470Y0289189D01*
X0131719Y0289706D01*
X0132102Y0290089D01*
X0132158Y0289955D01*
X0134443Y0287670D01*
X0134464Y0287661D01*
X0134464Y0285613D01*
X0134896Y0284571D01*
X0133448Y0284571D01*
X0132198Y0284054D01*
X0131242Y0283097D01*
X0130724Y0281848D01*
X0130724Y0277739D01*
X0131012Y0277045D02*
X0125516Y0277045D01*
X0127932Y0275046D02*
X0131139Y0275046D01*
X0136683Y0270541D02*
X0139045Y0272904D01*
X0136683Y0270541D02*
X0124281Y0270541D01*
X0119307Y0271049D02*
X0005624Y0271049D01*
X0005621Y0269051D02*
X0119307Y0269051D01*
X0119738Y0267052D02*
X0005618Y0267052D01*
X0005614Y0265053D02*
X0077144Y0265053D01*
X0080868Y0265053D02*
X0087144Y0265053D01*
X0096106Y0257059D02*
X0206503Y0257059D01*
X0194131Y0275046D02*
X0190924Y0275046D01*
X0188508Y0277045D02*
X0194004Y0277045D01*
X0178559Y0277005D02*
X0178461Y0276769D01*
X0178559Y0276867D01*
X0178559Y0277005D01*
X0178362Y0285039D02*
X0174884Y0285039D01*
X0175122Y0287037D02*
X0178362Y0287037D01*
X0178648Y0289036D02*
X0176510Y0289036D01*
X0177876Y0291034D02*
X0181005Y0291034D01*
X0206618Y0287037D02*
X0230458Y0287037D01*
X0231917Y0286433D02*
X0228931Y0287670D01*
X0226646Y0289955D01*
X0225409Y0292941D01*
X0225409Y0296173D01*
X0226646Y0299159D01*
X0228931Y0301445D01*
X0231917Y0302681D01*
X0235150Y0302681D01*
X0238136Y0301445D01*
X0240421Y0299159D01*
X0241658Y0296173D01*
X0241658Y0292941D01*
X0240421Y0289955D01*
X0238136Y0287670D01*
X0235150Y0286433D01*
X0231917Y0286433D01*
X0236609Y0287037D02*
X0343562Y0287037D01*
X0340645Y0289036D02*
X0239502Y0289036D01*
X0240868Y0291034D02*
X0338996Y0291034D01*
X0337990Y0293033D02*
X0241658Y0293033D01*
X0241658Y0295031D02*
X0337454Y0295031D01*
X0337417Y0297030D02*
X0241303Y0297030D01*
X0240475Y0299028D02*
X0337725Y0299028D01*
X0338424Y0301027D02*
X0238553Y0301027D01*
X0228513Y0301027D02*
X0207057Y0301027D01*
X0208979Y0299028D02*
X0226592Y0299028D01*
X0225764Y0297030D02*
X0209807Y0297030D01*
X0210162Y0295031D02*
X0225409Y0295031D01*
X0225409Y0293033D02*
X0210162Y0293033D01*
X0209372Y0291034D02*
X0226199Y0291034D01*
X0227565Y0289036D02*
X0208006Y0289036D01*
X0259526Y0251064D02*
X0261832Y0251064D01*
X0269526Y0251064D02*
X0355985Y0251064D01*
X0355988Y0253062D02*
X0271627Y0253062D01*
X0272497Y0255061D02*
X0355992Y0255061D01*
X0355995Y0257059D02*
X0272779Y0257059D01*
X0272576Y0259058D02*
X0355998Y0259058D01*
X0356002Y0261056D02*
X0271748Y0261056D01*
X0340714Y0225083D02*
X0346432Y0225083D01*
X0344433Y0223085D02*
X0342712Y0223085D01*
X0354100Y0225083D02*
X0355942Y0225083D01*
X0355883Y0189110D02*
X0005489Y0189110D01*
X0005486Y0187112D02*
X0355880Y0187112D01*
X0355877Y0185113D02*
X0005483Y0185113D01*
X0005480Y0183115D02*
X0355873Y0183115D01*
X0355870Y0181116D02*
X0005476Y0181116D01*
X0005473Y0179118D02*
X0355867Y0179118D01*
X0355863Y0177119D02*
X0005470Y0177119D01*
X0005466Y0175120D02*
X0355860Y0175120D01*
X0355857Y0173122D02*
X0005463Y0173122D01*
X0005460Y0171123D02*
X0332118Y0171123D01*
X0330119Y0169125D02*
X0005457Y0169125D01*
X0005453Y0167126D02*
X0328313Y0167126D01*
X0328313Y0165128D02*
X0005450Y0165128D01*
X0005447Y0163129D02*
X0328313Y0163129D01*
X0328313Y0161131D02*
X0005443Y0161131D01*
X0005440Y0159132D02*
X0329401Y0159132D01*
X0331400Y0157134D02*
X0005437Y0157134D01*
X0005434Y0155135D02*
X0355827Y0155135D01*
X0355824Y0153137D02*
X0005430Y0153137D01*
X0005414Y0143144D02*
X0025151Y0143144D01*
X0023800Y0141146D02*
X0005411Y0141146D01*
X0005407Y0139147D02*
X0022728Y0139147D01*
X0022359Y0137149D02*
X0005404Y0137149D01*
X0005401Y0135150D02*
X0022359Y0135150D01*
X0022359Y0133152D02*
X0005397Y0133152D01*
X0005394Y0131153D02*
X0022359Y0131153D01*
X0022359Y0129155D02*
X0005391Y0129155D01*
X0005388Y0127156D02*
X0022359Y0127156D01*
X0021679Y0125158D02*
X0005384Y0125158D01*
X0005381Y0123159D02*
X0021470Y0123159D01*
X0022127Y0121161D02*
X0005378Y0121161D01*
X0005368Y0115165D02*
X0355762Y0115165D01*
X0355758Y0113167D02*
X0005365Y0113167D01*
X0005361Y0111168D02*
X0355755Y0111168D01*
X0355752Y0109170D02*
X0005358Y0109170D01*
X0005355Y0107171D02*
X0355748Y0107171D01*
X0355745Y0105173D02*
X0005351Y0105173D01*
X0005348Y0103174D02*
X0355742Y0103174D01*
X0355739Y0101176D02*
X0005345Y0101176D01*
X0005342Y0099177D02*
X0355735Y0099177D01*
X0355732Y0097179D02*
X0005338Y0097179D01*
X0005493Y0191109D02*
X0008055Y0191109D01*
X0006056Y0193107D02*
X0005496Y0193107D01*
X0018067Y0191109D02*
X0021441Y0191109D01*
X0032381Y0245068D02*
X0122186Y0245068D01*
X0121647Y0247067D02*
X0034380Y0247067D01*
X0035014Y0249065D02*
X0121647Y0249065D01*
X0121647Y0251064D02*
X0090476Y0251064D01*
X0087535Y0251064D02*
X0080476Y0251064D01*
X0077535Y0251064D02*
X0035014Y0251064D01*
X0035014Y0253062D02*
X0074042Y0253062D01*
X0072596Y0255061D02*
X0034752Y0255061D01*
X0032753Y0257059D02*
X0071906Y0257059D01*
X0071906Y0259058D02*
X0030755Y0259058D01*
X0022139Y0259058D02*
X0017369Y0259058D01*
X0019368Y0257059D02*
X0020140Y0257059D01*
X0008753Y0259058D02*
X0005605Y0259058D01*
X0005608Y0261056D02*
X0072529Y0261056D01*
X0073880Y0263055D02*
X0005611Y0263055D01*
X0005601Y0257059D02*
X0006754Y0257059D01*
X0005628Y0273048D02*
X0119331Y0273048D01*
X0116150Y0275046D02*
X0005631Y0275046D01*
X0005634Y0277045D02*
X0115567Y0277045D01*
X0115567Y0279043D02*
X0005637Y0279043D01*
X0005641Y0281042D02*
X0115567Y0281042D01*
X0115375Y0283040D02*
X0005644Y0283040D01*
X0005647Y0285039D02*
X0115370Y0285039D01*
X0114269Y0287037D02*
X0107908Y0287037D01*
X0107396Y0286525D02*
X0109196Y0288325D01*
X0110170Y0290678D01*
X0110170Y0299224D01*
X0109196Y0301576D01*
X0107396Y0303376D01*
X0105043Y0304351D01*
X0102497Y0304351D01*
X0100145Y0303376D01*
X0098345Y0301576D01*
X0097370Y0299224D01*
X0097370Y0290678D01*
X0098345Y0288325D01*
X0100145Y0286525D01*
X0102497Y0285551D01*
X0105043Y0285551D01*
X0107396Y0286525D01*
X0109490Y0289036D02*
X0113587Y0289036D01*
X0113772Y0291034D02*
X0110170Y0291034D01*
X0110170Y0293033D02*
X0115000Y0293033D01*
X0110170Y0295031D02*
X0122063Y0295031D01*
X0120935Y0294557D02*
X0120344Y0294557D01*
X0111486Y0303415D01*
X0097707Y0303415D01*
X0093770Y0299479D01*
X0093770Y0294951D01*
X0090170Y0295031D02*
X0097370Y0295031D01*
X0097370Y0293033D02*
X0090170Y0293033D01*
X0090170Y0291034D02*
X0097370Y0291034D01*
X0098051Y0289036D02*
X0089490Y0289036D01*
X0089196Y0288325D02*
X0090170Y0290678D01*
X0090170Y0299224D01*
X0089196Y0301576D01*
X0087396Y0303376D01*
X0085043Y0304351D01*
X0082497Y0304351D01*
X0080145Y0303376D01*
X0078345Y0301576D01*
X0077370Y0299224D01*
X0077370Y0290678D01*
X0078345Y0288325D01*
X0080145Y0286525D01*
X0082497Y0285551D01*
X0085043Y0285551D01*
X0087396Y0286525D01*
X0089196Y0288325D01*
X0087908Y0287037D02*
X0099633Y0287037D01*
X0097370Y0297030D02*
X0090170Y0297030D01*
X0090170Y0299028D02*
X0097370Y0299028D01*
X0098117Y0301027D02*
X0089424Y0301027D01*
X0087747Y0303025D02*
X0099794Y0303025D01*
X0107747Y0303025D02*
X0339654Y0303025D01*
X0341642Y0171123D02*
X0345504Y0171123D01*
X0355028Y0171123D02*
X0355854Y0171123D01*
X0355746Y0157134D02*
X0355831Y0157134D01*
X0344786Y0157134D02*
X0342360Y0157134D01*
X0331564Y0029229D02*
X0330433Y0029229D01*
X0121647Y0253062D02*
X0093969Y0253062D01*
X0095416Y0255061D02*
X0122007Y0255061D01*
X0144683Y0267052D02*
X0151234Y0267052D01*
X0146952Y0269051D02*
X0146243Y0269051D01*
X0146965Y0276769D02*
X0147063Y0277005D01*
X0147063Y0276867D01*
X0146965Y0276769D01*
X0146866Y0285039D02*
X0143388Y0285039D01*
X0143626Y0287037D02*
X0146866Y0287037D01*
X0147152Y0289036D02*
X0145013Y0289036D01*
X0134464Y0287037D02*
X0126500Y0287037D01*
X0127628Y0287864D02*
X0120935Y0294557D01*
X0121752Y0293033D02*
X0122063Y0293033D01*
X0122063Y0297030D02*
X0110170Y0297030D01*
X0110170Y0299028D02*
X0123157Y0299028D01*
X0132099Y0299028D02*
X0132103Y0299028D01*
X0134025Y0301027D02*
X0109424Y0301027D01*
X0126214Y0289036D02*
X0133077Y0289036D01*
X0134702Y0285039D02*
X0126500Y0285039D01*
X0126495Y0283040D02*
X0131218Y0283040D01*
X0130724Y0281042D02*
X0125516Y0281042D01*
X0084042Y0253062D02*
X0083969Y0253062D01*
X0079633Y0287037D02*
X0017206Y0287037D01*
X0020123Y0289036D02*
X0078051Y0289036D01*
X0077370Y0291034D02*
X0021772Y0291034D01*
X0022778Y0293033D02*
X0077370Y0293033D01*
X0077370Y0295031D02*
X0023313Y0295031D01*
X0023351Y0297030D02*
X0077370Y0297030D01*
X0077370Y0299028D02*
X0023043Y0299028D01*
X0022344Y0301027D02*
X0078117Y0301027D01*
X0079794Y0303025D02*
X0021113Y0303025D01*
X0005999Y0289036D02*
X0005654Y0289036D01*
X0005651Y0287037D02*
X0008916Y0287037D01*
D31*
X0127628Y0287864D02*
X0127628Y0285699D01*
X0128022Y0285305D01*
X0127628Y0294557D02*
X0139045Y0294557D01*
X0139045Y0287667D01*
X0142785Y0279793D02*
X0142785Y0276644D01*
X0139045Y0272904D01*
X0159124Y0285699D02*
X0159518Y0285305D01*
X0170541Y0287667D02*
X0170541Y0294557D01*
X0174281Y0279793D02*
X0174281Y0276644D01*
X0170541Y0272904D01*
X0190620Y0285699D02*
X0191014Y0285305D01*
X0202037Y0287667D02*
X0202037Y0294557D01*
X0205778Y0279793D02*
X0205778Y0276644D01*
X0202037Y0272904D01*
X0276841Y0275620D02*
X0276841Y0239439D01*
X0261093Y0112470D02*
X0261093Y0095738D01*
X0263967Y0092864D01*
X0323533Y0092864D01*
X0333967Y0082431D01*
X0323967Y0022431D02*
X0323967Y0020935D01*
X0323967Y0016880D01*
X0320148Y0013061D01*
X0249281Y0013061D01*
X0243376Y0006762D02*
X0306289Y0006762D01*
X0243376Y0006762D02*
X0234518Y0006762D01*
X0161880Y0006762D01*
X0150856Y0017785D01*
X0092510Y0017785D01*
X0072628Y0037667D01*
X0088455Y0037667D02*
X0088455Y0047510D01*
X0088455Y0052431D01*
X0087055Y0053831D01*
X0039712Y0053831D01*
X0036191Y0057352D01*
X0036191Y0064242D01*
X0014783Y0085650D01*
X0054400Y0125266D01*
X0069163Y0125266D01*
X0026259Y0123700D02*
X0026259Y0137479D01*
X0028317Y0139537D01*
X0014537Y0085896D02*
X0014783Y0085650D01*
X0022904Y0068179D02*
X0022510Y0067785D01*
X0022510Y0058337D01*
X0022510Y0046526D02*
X0022510Y0037077D01*
X0022904Y0036683D01*
X0044163Y0037077D02*
X0044557Y0036683D01*
X0044163Y0037077D02*
X0044163Y0046526D01*
X0044163Y0058337D02*
X0044163Y0067785D01*
X0044557Y0068179D01*
X0088455Y0067195D02*
X0088455Y0057352D01*
X0088455Y0052431D01*
X0158730Y0023396D02*
X0158927Y0023593D01*
X0169459Y0013061D01*
X0227628Y0013061D01*
X0158927Y0023593D02*
X0158927Y0027825D01*
X0159183Y0103159D02*
X0158730Y0103612D01*
D32*
X0159183Y0103159D02*
X0159715Y0102628D01*
X0159715Y0099183D01*
X0135108Y0103612D02*
X0134124Y0102628D01*
X0134124Y0099675D01*
X0119329Y0067667D02*
X0102628Y0067667D01*
X0102156Y0067195D01*
X0095148Y0067195D01*
X0091801Y0070148D02*
X0091801Y0064242D01*
X0092785Y0063258D01*
X0111202Y0063258D01*
X0112857Y0064913D01*
X0120387Y0064913D01*
X0123794Y0061505D01*
X0182555Y0061505D01*
X0184844Y0063794D01*
X0187027Y0063794D01*
X0200415Y0077183D01*
X0227198Y0077183D01*
X0228648Y0075733D01*
X0230665Y0075733D01*
X0233967Y0072431D01*
X0230487Y0077131D02*
X0336786Y0077131D01*
X0337312Y0076605D01*
X0336900Y0079498D02*
X0333967Y0082431D01*
X0336900Y0079498D02*
X0339833Y0079498D01*
X0340325Y0079006D01*
X0340325Y0074577D01*
X0323337Y0057589D01*
X0322431Y0057589D01*
X0322431Y0057037D01*
X0332451Y0047018D01*
X0332451Y0029419D01*
X0323967Y0020935D01*
X0313967Y0022431D02*
X0313967Y0036407D01*
X0316211Y0038652D01*
X0326053Y0038652D01*
X0328967Y0041565D01*
X0328967Y0042746D01*
X0322431Y0042904D02*
X0322274Y0042746D01*
X0314281Y0042746D01*
X0303967Y0032431D01*
X0299478Y0036683D02*
X0296361Y0036683D01*
X0295913Y0037131D01*
X0278667Y0037131D01*
X0273967Y0032431D01*
X0268667Y0027731D02*
X0233533Y0027731D01*
X0231471Y0027731D01*
X0211786Y0027731D01*
X0209419Y0025364D01*
X0209419Y0024531D01*
X0209267Y0024378D01*
X0209267Y0018814D01*
X0207943Y0017490D01*
X0207451Y0016998D01*
X0202037Y0016998D01*
X0191211Y0027825D01*
X0166407Y0027825D01*
X0162667Y0029793D02*
X0162667Y0025364D01*
X0164144Y0023888D01*
X0193451Y0023888D01*
X0201540Y0015798D01*
X0227412Y0015798D01*
X0228612Y0016998D01*
X0234518Y0013455D02*
X0234518Y0021880D01*
X0233967Y0022431D01*
X0234518Y0013455D02*
X0238145Y0009827D01*
X0245717Y0009827D01*
X0246420Y0009124D01*
X0331959Y0009124D01*
X0329222Y0010324D02*
X0246917Y0010324D01*
X0246214Y0011027D01*
X0245804Y0011027D01*
X0243376Y0013455D01*
X0243376Y0021841D01*
X0243967Y0022431D01*
X0233967Y0032431D02*
X0233848Y0032431D01*
X0228612Y0037667D01*
X0201053Y0037667D01*
X0197116Y0041604D01*
X0197116Y0049478D01*
X0192626Y0053968D01*
X0124834Y0053968D01*
X0104596Y0033730D01*
X0085896Y0033730D01*
X0083927Y0035699D01*
X0083927Y0044557D01*
X0076053Y0052431D01*
X0035108Y0052431D01*
X0029203Y0058337D01*
X0029203Y0046526D02*
X0029203Y0040226D01*
X0040620Y0028809D01*
X0048494Y0028809D01*
X0062058Y0042373D01*
X0079222Y0042373D01*
X0080482Y0041112D01*
X0080482Y0035750D01*
X0084902Y0031330D01*
X0105591Y0031330D01*
X0107006Y0032746D01*
X0159715Y0032746D01*
X0162667Y0029793D01*
X0162667Y0036093D02*
X0150856Y0036093D01*
X0150856Y0047707D01*
X0150856Y0029400D02*
X0150856Y0017785D01*
X0123794Y0055168D02*
X0113031Y0044405D01*
X0109366Y0044405D01*
X0102628Y0037667D01*
X0095148Y0037667D01*
X0095148Y0047510D02*
X0102470Y0047510D01*
X0102628Y0047667D01*
X0114596Y0047667D01*
X0123297Y0056368D01*
X0199085Y0056368D01*
X0200069Y0057352D01*
X0206959Y0057352D01*
X0208927Y0055384D01*
X0208927Y0053415D01*
X0214833Y0047510D01*
X0225701Y0047510D01*
X0225880Y0047331D01*
X0229691Y0047331D01*
X0229870Y0047510D01*
X0245701Y0047510D01*
X0245880Y0047331D01*
X0284230Y0047331D01*
X0285035Y0046526D01*
X0280457Y0044557D02*
X0278883Y0046131D01*
X0214243Y0046131D01*
X0212864Y0047510D01*
X0201053Y0047510D01*
X0195148Y0053415D01*
X0194163Y0054400D01*
X0193395Y0055168D01*
X0183552Y0055168D01*
X0182352Y0055168D01*
X0123794Y0055168D01*
X0125331Y0052768D02*
X0189889Y0052768D01*
X0194163Y0048494D01*
X0194163Y0032746D01*
X0199178Y0027731D01*
X0205913Y0027731D01*
X0206007Y0027825D01*
X0209419Y0027825D01*
X0213967Y0032372D01*
X0213967Y0032431D01*
X0217785Y0052931D02*
X0227448Y0062594D01*
X0237470Y0062594D01*
X0230487Y0077131D02*
X0229596Y0078022D01*
X0248533Y0087864D02*
X0202037Y0087864D01*
X0185003Y0070829D01*
X0185595Y0073118D02*
X0201540Y0089064D01*
X0297333Y0089064D01*
X0303967Y0082431D01*
X0306133Y0090264D02*
X0201043Y0090264D01*
X0185098Y0074318D01*
X0183558Y0074318D01*
X0183306Y0074067D01*
X0181766Y0074067D01*
X0180817Y0076356D02*
X0185438Y0076356D01*
X0200546Y0091464D01*
X0314933Y0091464D01*
X0323967Y0082431D01*
X0313967Y0082431D02*
X0306133Y0090264D01*
X0287667Y0074085D02*
X0286019Y0072437D01*
X0286019Y0072152D01*
X0279862Y0065995D01*
X0211949Y0065995D01*
X0210860Y0064906D01*
X0208963Y0064906D01*
X0207622Y0066247D01*
X0207622Y0066531D01*
X0206959Y0067195D01*
X0199405Y0067195D01*
X0197116Y0064906D01*
X0194163Y0058657D02*
X0190226Y0062594D01*
X0185341Y0062594D01*
X0183052Y0060305D01*
X0123297Y0060305D01*
X0120979Y0062624D01*
X0113805Y0062624D01*
X0119360Y0060305D02*
X0120798Y0058867D01*
X0184852Y0058867D01*
X0186289Y0060305D01*
X0188429Y0057667D02*
X0189419Y0058657D01*
X0188429Y0057667D02*
X0102628Y0057667D01*
X0102313Y0057352D01*
X0095148Y0057352D01*
X0091801Y0070148D02*
X0084911Y0070148D01*
X0077037Y0062274D01*
X0070148Y0062274D01*
X0066211Y0058337D01*
X0050856Y0058337D01*
X0050856Y0046526D02*
X0065226Y0046526D01*
X0068179Y0043573D01*
X0079990Y0043573D01*
X0082727Y0040836D01*
X0082727Y0035202D01*
X0085399Y0032530D01*
X0105094Y0032530D01*
X0125331Y0052768D01*
X0124291Y0062705D02*
X0182058Y0062705D01*
X0184347Y0064994D01*
X0186530Y0064994D01*
X0189203Y0067667D01*
X0189970Y0068435D01*
X0203967Y0082431D01*
X0209911Y0067195D02*
X0277825Y0067195D01*
X0283730Y0073100D01*
X0253967Y0082431D02*
X0248533Y0087864D01*
X0185595Y0073118D02*
X0184055Y0073118D01*
X0181472Y0070536D01*
X0178388Y0073926D02*
X0180817Y0076356D01*
X0124291Y0062705D02*
X0119329Y0067667D01*
X0268667Y0027731D02*
X0273967Y0022431D01*
X0322431Y0042904D02*
X0322431Y0050108D01*
X0331959Y0013061D02*
X0329222Y0010324D01*
X0265030Y0239439D02*
X0266014Y0240423D01*
X0233533Y0272904D02*
X0222707Y0283730D01*
X0199085Y0283730D01*
X0197116Y0285699D01*
X0190620Y0285699D01*
X0183927Y0285699D02*
X0183533Y0285305D01*
X0183533Y0278809D01*
X0183533Y0275069D01*
X0181368Y0272904D01*
X0152037Y0275069D02*
X0149872Y0272904D01*
X0152037Y0275069D02*
X0152037Y0278809D01*
X0152037Y0285305D01*
X0152431Y0285699D01*
X0120935Y0285699D02*
X0120935Y0287077D01*
X0118376Y0289636D01*
X0120935Y0285699D02*
X0120541Y0285305D01*
X0120541Y0278809D01*
D33*
X0118376Y0289636D03*
X0105581Y0272904D03*
X0093770Y0284715D03*
X0068179Y0266998D03*
X0064242Y0266998D03*
X0060305Y0266998D03*
X0060305Y0263061D03*
X0060305Y0259124D03*
X0056368Y0259124D03*
X0056368Y0255187D03*
X0056368Y0251250D03*
X0056368Y0247313D03*
X0056368Y0243376D03*
X0064242Y0259124D03*
X0064242Y0263061D03*
X0068179Y0263061D03*
X0068179Y0259124D03*
X0105581Y0257156D03*
X0121329Y0241407D03*
X0146919Y0245344D03*
X0146919Y0217785D03*
X0150856Y0194163D03*
X0178415Y0190226D03*
X0178415Y0217785D03*
X0178415Y0245344D03*
X0206959Y0262077D03*
X0221950Y0261320D03*
X0209911Y0245344D03*
X0209911Y0217785D03*
X0241407Y0217785D03*
X0241407Y0190226D03*
X0209911Y0190226D03*
X0272904Y0265030D03*
X0276841Y0292589D03*
X0304400Y0292589D03*
X0304400Y0296526D03*
X0304400Y0300463D03*
X0304400Y0304400D03*
X0308337Y0304400D03*
X0312274Y0304400D03*
X0316211Y0304400D03*
X0320148Y0304400D03*
X0324085Y0304400D03*
X0328022Y0304400D03*
X0328022Y0300463D03*
X0328022Y0296526D03*
X0328022Y0292589D03*
X0328022Y0288652D03*
X0324085Y0288652D03*
X0320148Y0288652D03*
X0316211Y0288652D03*
X0312274Y0288652D03*
X0308337Y0288652D03*
X0304400Y0288652D03*
X0331959Y0288652D03*
X0335896Y0288652D03*
X0335896Y0292589D03*
X0339833Y0288652D03*
X0335896Y0284715D03*
X0181368Y0272904D03*
X0149872Y0272904D03*
X0087864Y0158730D03*
X0056368Y0158730D03*
X0028317Y0139537D03*
X0026259Y0123700D03*
X0009124Y0115423D03*
X0009124Y0103612D03*
X0009124Y0091801D03*
X0014537Y0085896D03*
X0056368Y0095738D03*
X0087864Y0095738D03*
X0119360Y0095738D03*
X0130187Y0095738D03*
X0134124Y0095738D03*
X0138061Y0095738D03*
X0141998Y0095738D03*
X0141998Y0091801D03*
X0141998Y0087864D03*
X0141998Y0083927D03*
X0145935Y0083927D03*
X0149872Y0083927D03*
X0153809Y0083927D03*
X0153809Y0079990D03*
X0149872Y0079990D03*
X0145935Y0079990D03*
X0145935Y0076053D03*
X0145935Y0072116D03*
X0145935Y0068179D03*
X0141998Y0068179D03*
X0141998Y0072116D03*
X0138061Y0072116D03*
X0134124Y0072116D03*
X0130187Y0072116D03*
X0130187Y0076053D03*
X0134124Y0076053D03*
X0138061Y0076053D03*
X0141998Y0076053D03*
X0141998Y0079990D03*
X0153809Y0072116D03*
X0161683Y0072116D03*
X0169557Y0072116D03*
X0169557Y0079990D03*
X0178388Y0073926D03*
X0181766Y0074067D03*
X0181472Y0070536D03*
X0185003Y0070829D03*
X0186289Y0060305D03*
X0189419Y0058657D03*
X0194163Y0058657D03*
X0197116Y0064906D03*
X0209911Y0067195D03*
X0229596Y0078022D03*
X0237470Y0062594D03*
X0280457Y0044557D03*
X0285035Y0046526D03*
X0299478Y0036683D03*
X0306289Y0006762D03*
X0331959Y0009124D03*
X0331959Y0013061D03*
X0287667Y0074085D03*
X0283730Y0073100D03*
X0337312Y0076605D03*
X0249281Y0013061D03*
X0228612Y0016998D03*
X0227628Y0013061D03*
X0158730Y0023396D03*
X0123297Y0009124D03*
X0088455Y0052431D03*
X0113805Y0062624D03*
X0119360Y0060305D03*
X0122313Y0072116D03*
X0126250Y0072116D03*
X0126250Y0076053D03*
X0122313Y0076053D03*
X0130187Y0099675D03*
X0134124Y0099675D03*
X0138061Y0099675D03*
X0141998Y0099675D03*
X0151841Y0099183D03*
X0155778Y0099183D03*
X0159715Y0099183D03*
X0163652Y0099183D03*
X0163652Y0095246D03*
X0159715Y0095246D03*
X0155778Y0095246D03*
X0151841Y0095246D03*
X0087864Y0127234D03*
X0056368Y0127234D03*
X0007156Y0133632D03*
X0007156Y0153317D03*
X0013061Y0182352D03*
X0048494Y0009124D03*
M02*
