G75*
%MOIN*%
%OFA0B0*%
%FSLAX25Y25*%
%IPPOS*%
%LPD*%
%AMOC8*
5,1,8,0,0,1.08239X$1,22.5*
%
%ADD10R,0.40000X0.20000*%
%ADD11R,0.04331X0.03937*%
%ADD12R,0.03937X0.04331*%
%ADD13R,0.03150X0.03543*%
%ADD14R,0.20000X0.40000*%
%ADD15R,0.03543X0.03150*%
%ADD16R,0.02362X0.02756*%
D10*
X0046526Y0293809D03*
D11*
X0022510Y0046526D03*
X0029203Y0046526D03*
X0029203Y0058337D03*
X0022510Y0058337D03*
X0044163Y0058337D03*
X0050856Y0058337D03*
X0050856Y0046526D03*
X0044163Y0046526D03*
X0088455Y0047510D03*
X0095148Y0047510D03*
X0095148Y0057352D03*
X0088455Y0057352D03*
X0088455Y0067195D03*
X0095148Y0067195D03*
X0095148Y0037667D03*
X0088455Y0037667D03*
X0322274Y0042746D03*
X0328967Y0042746D03*
X0190620Y0285699D03*
X0183927Y0285699D03*
X0159124Y0285699D03*
X0152431Y0285699D03*
X0127628Y0285699D03*
X0120935Y0285699D03*
X0120935Y0294557D03*
X0127628Y0294557D03*
D12*
X0150856Y0036093D03*
X0150856Y0029400D03*
X0234518Y0013455D03*
X0234518Y0006762D03*
X0243376Y0006762D03*
X0243376Y0013455D03*
D13*
X0166407Y0027825D03*
X0158927Y0027825D03*
X0162667Y0036093D03*
X0155778Y0270541D03*
X0159518Y0278809D03*
X0152037Y0278809D03*
X0128022Y0278809D03*
X0120541Y0278809D03*
X0124281Y0270541D03*
X0183533Y0278809D03*
X0191014Y0278809D03*
X0187274Y0270541D03*
D14*
X0343770Y0260108D03*
D15*
X0322431Y0057589D03*
X0322431Y0050108D03*
X0330699Y0053848D03*
D16*
X0205778Y0279793D03*
X0202037Y0287667D03*
X0198297Y0279793D03*
X0174281Y0279793D03*
X0166801Y0279793D03*
X0170541Y0287667D03*
X0142785Y0279793D03*
X0135305Y0279793D03*
X0139045Y0287667D03*
M02*
