%
M48
M72
T01C0.0138
T02C0.0276
T03C0.0315
T04C0.0354
T05C0.0394
T06C0.0400
T07C0.0433
T08C0.0630
T09C0.0689
T10C0.1378
%
T01
X4849Y912
X8845Y5243
X11380Y6262
X11936Y6031
X12231Y7212
X12231Y7605
X12625Y7605
X12625Y7212
X13019Y7212
X13019Y7605
X13412Y7605
X13412Y7212
X13806Y7212
X13806Y7605
X14200Y7605
X14200Y7212
X14594Y7212
X14594Y7605
X14594Y7999
X14987Y7999
X15381Y7999
X15381Y8393
X14987Y8393
X14594Y8393
X14200Y8393
X14200Y8786
X14200Y9180
X14200Y9574
X13806Y9574
X13412Y9574
X13019Y9574
X13019Y9968
X13412Y9968
X13806Y9968
X14200Y9968
X15184Y9918
X15578Y9918
X15971Y9918
X16365Y9918
X16365Y9525
X15971Y9525
X15578Y9525
X15184Y9525
X14200Y7999
X14200Y6818
X14594Y6818
X15381Y7212
X16168Y7212
X16956Y7212
X16956Y7999
X17839Y7393
X18177Y7407
X18147Y7054
X18500Y7083
X18629Y6031
X18942Y5866
X19416Y5866
X19712Y6491
X20991Y6719
X22960Y7802
X23747Y6259
X28046Y4456
X28504Y4653
X29948Y3668
X30629Y676
X33196Y912
X33196Y1306
X28767Y7408
X28373Y7310
X33731Y7661
X24928Y1306
X22861Y1700
X22763Y1306
X15873Y2340
X12330Y912
X11936Y9574
X8786Y9574
X5637Y9574
X2626Y12370
X912Y11542
X912Y10361
X912Y9180
X1454Y8590
X5637Y12723
X2832Y13954
X716Y13363
X716Y15332
X1306Y18235
X5637Y15873
X8786Y15873
X8786Y12723
X15086Y19416
X14692Y21779
X12133Y24141
X10558Y25716
X10558Y27290
X9377Y28471
X11838Y28964
X14987Y27290
X14692Y24534
X17842Y24534
X20696Y26208
X22195Y26132
X20991Y24534
X20991Y21779
X24141Y21779
X24141Y19023
X20991Y19023
X17842Y19023
X17842Y21779
X18137Y27290
X27290Y26503
X27684Y29259
X30440Y29259
X30440Y29653
X30440Y30046
X30440Y30440
X30834Y30440
X31227Y30440
X31621Y30440
X32015Y30440
X32408Y30440
X32802Y30440
X32802Y30046
X32802Y29653
X32802Y29259
X32802Y28865
X32408Y28865
X32015Y28865
X31621Y28865
X31227Y28865
X30834Y28865
X30440Y28865
X33196Y28865
X33590Y28865
X33983Y28865
X33590Y29259
X33590Y28471
X6818Y26700
X6424Y26700
X6031Y26700
X6031Y26306
X6424Y26306
X6424Y25912
X6031Y25912
X5637Y25912
X5637Y25519
X5637Y25125
X5637Y24731
X5637Y24338
X6818Y25912
X6818Y26306
T02
X11830Y25027
X12830Y25027
T03
X10263Y6767
X10263Y5767
X10263Y4767
X10263Y3767
X7263Y3767
X7263Y4767
X7263Y5767
X7263Y6767
T04
X6916Y12527
X9869Y12527
X26109Y11247
X26109Y14200
T05
X15086Y4771
X15086Y1779
T06
X21779Y5293
X22779Y5193
X23779Y5293
X24779Y5193
X25779Y5293
X26779Y5193
X27779Y5293
X28779Y5193
X29779Y5293
X30779Y5193
X26568Y25716
X25568Y25716
X26684Y27562
X27684Y27562
X28684Y27562
X10377Y29495
X9377Y29495
X8377Y29495
X7901Y25814
X8901Y25814
T07
X20397Y8243
X21397Y8243
X22397Y8243
X23397Y8243
X24397Y8243
X25397Y8243
X26397Y8243
X27397Y8243
X28397Y8243
X29397Y8243
X30397Y8243
X31397Y8243
X32397Y8243
X33397Y8243
X32397Y3243
X32397Y2243
X31397Y2243
X30397Y2243
X30397Y3243
X29397Y3243
X29397Y2243
X28397Y2243
X28397Y3243
X27397Y3243
X26397Y3243
X26397Y2243
X27397Y2243
X25397Y2243
X25397Y3243
X24397Y3243
X24397Y2243
X23397Y2243
X22397Y2243
X22397Y3243
X23397Y3243
X21397Y3243
X21397Y2243
X20397Y2243
X20397Y3243
X20397Y4243
X20397Y5243
X20397Y6243
X20397Y7243
X21397Y7243
X22397Y7243
X23397Y7243
X24397Y7243
X25397Y7243
X26397Y7243
X27397Y7243
X33397Y2243
T08
X4456Y3668
X2290Y3668
X2290Y6818
X4456Y6818
X13905Y27290
X13905Y29456
X17054Y29456
X17054Y27290
X20204Y27290
X20204Y29456
X23353Y29456
X23353Y27290
T09
X33688Y21680
X35027Y21680
X35027Y16377
X33688Y16377
X2645Y19822
X1306Y19822
X1306Y25125
X2645Y25125
T10
X1306Y1306
X1306Y29653
X34771Y29653
X34771Y1306
M30
